<svg width="20" height="20" viewBox="0 0 20 20" fill="none" xmlns="http://www.w3.org/2000/svg">

<path d="M10 0C8.02219 0 6.08879 0.58649 4.4443 1.6853C2.79981 2.78412 1.51809 4.3459 0.761209 6.17317C0.00433286 8.00043 -0.193701 10.0111 0.192152 11.9509C0.578004 13.8907 1.53041 15.6725 2.92894 17.0711C4.32746 18.4696 6.10929 19.422 8.0491 19.8079C9.98891 20.1937 11.9996 19.9957 13.8268 19.2388C15.6541 18.4819 17.2159 17.2002 18.3147 15.5557C19.4135 13.9112 20 11.9778 20 10C19.9971 7.34872 18.9426 4.80684 17.0679 2.9321C15.1932 1.05736 12.6513 0.00286757 10 0ZM10 18.3333C8.35183 18.3333 6.74066 17.8446 5.37025 16.9289C3.99984 16.0132 2.93174 14.7117 2.30101 13.189C1.67028 11.6663 1.50525 9.99076 1.82679 8.37425C2.14834 6.75774 2.94201 5.27288 4.10745 4.10744C5.27289 2.94201 6.75774 2.14833 8.37425 1.82679C9.99076 1.50525 11.6663 1.67027 13.189 2.301C14.7118 2.93173 16.0132 3.99984 16.9289 5.37025C17.8446 6.74066 18.3333 8.35182 18.3333 10C18.3309 12.2094 17.4522 14.3276 15.8899 15.8899C14.3276 17.4522 12.2094 18.3309 10 18.3333Z" fill="#ED5A67"/>
<path d="M10.0007 8.33594H9.16732C8.9463 8.33594 8.73434 8.42374 8.57806 8.58002C8.42178 8.7363 8.33398 8.94826 8.33398 9.16927C8.33398 9.39028 8.42178 9.60225 8.57806 9.75853C8.73434 9.91481 8.9463 10.0026 9.16732 10.0026H10.0007V15.0026C10.0007 15.2236 10.0884 15.4356 10.2447 15.5919C10.401 15.7481 10.613 15.8359 10.834 15.8359C11.055 15.8359 11.267 15.7481 11.4232 15.5919C11.5795 15.4356 11.6673 15.2236 11.6673 15.0026V10.0026C11.6673 9.56058 11.4917 9.13665 11.1792 8.82409C10.8666 8.51153 10.4427 8.33594 10.0007 8.33594Z" fill="#ED5A67"/>
<path d="M10 6.66406C10.6904 6.66406 11.25 6.10442 11.25 5.41406C11.25 4.72371 10.6904 4.16406 10 4.16406C9.30964 4.16406 8.75 4.72371 8.75 5.41406C8.75 6.10442 9.30964 6.66406 10 6.66406Z" fill="#ED5A67"/>

</svg>
