<svg width="20" height="20" viewBox="0 0 20 20" fill="none" xmlns="http://www.w3.org/2000/svg">
<g clip-path="url(#clip0_402_12508)">
<path d="M13.333 19.1667C13.333 19.3877 13.2452 19.5996 13.0889 19.7559C12.9327 19.9122 12.7207 20 12.4997 20H4.99967C2.70217 20 0.833008 18.1308 0.833008 15.8333V4.16667C0.833008 1.86917 2.70217 0 4.99967 0H8.76218C10.3197 0 11.7847 0.606667 12.8872 1.70833L15.7905 4.61333C16.0163 4.83917 16.2263 5.08667 16.4138 5.34917C16.5356 5.52919 16.5822 5.74964 16.5437 5.96352C16.5052 6.1774 16.3847 6.36779 16.2078 6.49409C16.031 6.6204 15.8118 6.67262 15.597 6.63963C15.3822 6.60664 15.1888 6.49105 15.058 6.3175C14.9245 6.13048 14.7756 5.95487 14.613 5.7925L11.7088 2.8875C11.4479 2.62614 11.1533 2.40056 10.833 2.21667V5.83333C10.833 6.2925 11.2063 6.66667 11.6663 6.66667H14.1663C14.3874 6.66667 14.5993 6.75446 14.7556 6.91074C14.9119 7.06702 14.9997 7.27899 14.9997 7.5C14.9997 7.72101 14.9119 7.93297 14.7556 8.08926C14.5993 8.24554 14.3874 8.33333 14.1663 8.33333H11.6663C10.288 8.33333 9.16634 7.21167 9.16634 5.83333V1.68583C9.03199 1.67315 8.89712 1.66676 8.76218 1.66667H4.99967C3.62134 1.66667 2.49967 2.78833 2.49967 4.16667V15.8333C2.49967 17.2117 3.62134 18.3333 4.99967 18.3333H12.4997C12.7207 18.3333 12.9327 18.4211 13.0889 18.5774C13.2452 18.7337 13.333 18.9457 13.333 19.1667ZM18.0705 13.5558L15.5363 13.1333C15.3862 13.1088 15.2497 13.0315 15.1514 12.9155C15.0531 12.7994 14.9993 12.6521 14.9997 12.5C14.9997 12.0408 15.373 11.6667 15.833 11.6667H17.723C18.0197 11.6667 18.2963 11.8267 18.4455 12.0833C18.4981 12.1822 18.57 12.2694 18.657 12.3398C18.744 12.4102 18.8444 12.4624 18.952 12.4932C19.0596 12.524 19.1723 12.5328 19.2834 12.519C19.3945 12.5053 19.5017 12.4694 19.5986 12.4133C19.6955 12.3572 19.7801 12.2822 19.8473 12.1928C19.9146 12.1033 19.9632 12.0012 19.9901 11.8925C20.017 11.7839 20.0218 11.6709 20.0041 11.5604C19.9864 11.4498 19.9467 11.344 19.8872 11.2492C19.6672 10.8696 19.3515 10.5545 18.9716 10.3351C18.5917 10.1158 18.1609 9.99993 17.7222 9.99917H17.4988V9.16583C17.4988 8.94482 17.411 8.73286 17.2548 8.57658C17.0985 8.4203 16.8865 8.3325 16.6655 8.3325C16.4445 8.3325 16.2325 8.4203 16.0763 8.57658C15.92 8.73286 15.8322 8.94482 15.8322 9.16583V9.99917C14.4538 9.99917 13.3322 11.1208 13.3322 12.4992C13.3322 13.6325 14.1438 14.5908 15.2613 14.7767L17.7955 15.1992C17.9456 15.2237 18.0821 15.301 18.1805 15.417C18.2788 15.5331 18.3326 15.6804 18.3322 15.8325C18.3322 16.2917 17.9588 16.6658 17.4988 16.6658H15.6088C15.3122 16.6658 15.0355 16.5058 14.8863 16.2492C14.8317 16.1543 14.7589 16.0712 14.6721 16.0045C14.5852 15.9378 14.4861 15.889 14.3803 15.8607C14.2746 15.8325 14.1643 15.8254 14.0558 15.8398C13.9473 15.8543 13.8427 15.89 13.748 15.945C13.6532 15.9997 13.5702 16.0726 13.5036 16.1594C13.437 16.2463 13.3882 16.3454 13.36 16.4512C13.3319 16.557 13.3248 16.6672 13.3394 16.7757C13.3539 16.8842 13.3897 16.9887 13.4447 17.0833C13.6647 17.4628 13.9805 17.7778 14.3604 17.997C14.7403 18.2162 15.1711 18.3319 15.6097 18.3325H15.833V19.1658C15.833 19.3868 15.9208 19.5988 16.0771 19.7551C16.2334 19.9114 16.4453 19.9992 16.6663 19.9992C16.8874 19.9992 17.0993 19.9114 17.2556 19.7551C17.4119 19.5988 17.4997 19.3868 17.4997 19.1658V18.3325C18.878 18.3325 19.9997 17.2108 19.9997 15.8325C19.9997 14.6992 19.188 13.7417 18.0705 13.5558ZM6.24967 12.5H10.833C11.054 12.5 11.266 12.4122 11.4223 12.2559C11.5785 12.0996 11.6663 11.8877 11.6663 11.6667C11.6663 11.4457 11.5785 11.2337 11.4223 11.0774C11.266 10.9211 11.054 10.8333 10.833 10.8333H6.24967C5.69734 10.834 5.16782 11.0537 4.77727 11.4443C4.38671 11.8348 4.167 12.3643 4.16634 12.9167V14.5833C4.16634 15.7317 5.10134 16.6667 6.24967 16.6667H10.833C11.054 16.6667 11.266 16.5789 11.4223 16.4226C11.5785 16.2663 11.6663 16.0543 11.6663 15.8333C11.6663 15.6123 11.5785 15.4004 11.4223 15.2441C11.266 15.0878 11.054 15 10.833 15H6.24967C6.13917 15 6.03319 14.9561 5.95505 14.878C5.87691 14.7998 5.83301 14.6938 5.83301 14.5833V12.9167C5.83301 12.8062 5.87691 12.7002 5.95505 12.622C6.03319 12.5439 6.13917 12.5 6.24967 12.5ZM4.99967 9.16667H6.66634C6.88736 9.16667 7.09932 9.07887 7.2556 8.92259C7.41188 8.76631 7.49967 8.55435 7.49967 8.33333C7.49967 8.11232 7.41188 7.90036 7.2556 7.74408C7.09932 7.5878 6.88736 7.5 6.66634 7.5H4.99967C4.77866 7.5 4.5667 7.5878 4.41042 7.74408C4.25414 7.90036 4.16634 8.11232 4.16634 8.33333C4.16634 8.55435 4.25414 8.76631 4.41042 8.92259C4.5667 9.07887 4.77866 9.16667 4.99967 9.16667ZM4.99967 5.83333H6.66634C6.88736 5.83333 7.09932 5.74554 7.2556 5.58926C7.41188 5.43297 7.49967 5.22101 7.49967 5C7.49967 4.77899 7.41188 4.56702 7.2556 4.41074C7.09932 4.25446 6.88736 4.16667 6.66634 4.16667H4.99967C4.77866 4.16667 4.5667 4.25446 4.41042 4.41074C4.25414 4.56702 4.16634 4.77899 4.16634 5C4.16634 5.22101 4.25414 5.43297 4.41042 5.58926C4.5667 5.74554 4.77866 5.83333 4.99967 5.83333Z" fill="#CEB7A1"/>
</g>
<defs>
<clipPath id="clip0_402_12508">
<rect width="20" height="20" fill="white"/>
</clipPath>
</defs>
</svg>
