<svg width="20" height="20" viewBox="0 0 20 20" fill="none" xmlns="http://www.w3.org/2000/svg">
<g clip-path="url(#clip0_1882_3132)">
<path d="M15.8327 7.02V5.83333C15.8327 4.28624 15.2181 2.80251 14.1241 1.70854C13.0302 0.614582 11.5464 0 9.99935 0C8.45225 0 6.96852 0.614582 5.87456 1.70854C4.7806 2.80251 4.16602 4.28624 4.16602 5.83333V7.02C3.42382 7.34392 2.79209 7.8771 2.3481 8.55434C1.9041 9.23158 1.66708 10.0235 1.66602 10.8333V15.8333C1.66734 16.938 2.10675 17.997 2.88787 18.7782C3.66898 19.5593 4.72802 19.9987 5.83268 20H14.166C15.2707 19.9987 16.3297 19.5593 17.1108 18.7782C17.8919 17.997 18.3314 16.938 18.3327 15.8333V10.8333C18.3316 10.0235 18.0946 9.23158 17.6506 8.55434C17.2066 7.8771 16.5749 7.34392 15.8327 7.02ZM5.83268 5.83333C5.83268 4.72826 6.27167 3.66846 7.05307 2.88705C7.83447 2.10565 8.89428 1.66667 9.99935 1.66667C11.1044 1.66667 12.1642 2.10565 12.9456 2.88705C13.727 3.66846 14.166 4.72826 14.166 5.83333V6.66667H5.83268V5.83333ZM16.666 15.8333C16.666 16.4964 16.4026 17.1323 15.9338 17.6011C15.4649 18.0699 14.8291 18.3333 14.166 18.3333H5.83268C5.16964 18.3333 4.53376 18.0699 4.06492 17.6011C3.59607 17.1323 3.33268 16.4964 3.33268 15.8333V10.8333C3.33268 10.1703 3.59607 9.53441 4.06492 9.06557C4.53376 8.59672 5.16964 8.33333 5.83268 8.33333H14.166C14.8291 8.33333 15.4649 8.59672 15.9338 9.06557C16.4026 9.53441 16.666 10.1703 16.666 10.8333V15.8333Z" fill="#CEB7A1"/>
<path d="M13.8063 14.5303L12.7093 13.4333C12.6787 13.4007 12.6419 13.3746 12.6011 13.3566C12.5602 13.3385 12.5162 13.3289 12.4715 13.3282C12.4268 13.3275 12.3825 13.3358 12.3411 13.3525C12.2997 13.3693 12.2621 13.3942 12.2305 13.4258C12.199 13.4574 12.1741 13.4951 12.1573 13.5365C12.1406 13.5779 12.1323 13.6222 12.133 13.6669C12.1338 13.7115 12.1435 13.7556 12.1615 13.7964C12.1796 13.8373 12.2057 13.8741 12.2383 13.9046L13.0016 14.6693C12.5867 14.6702 12.1757 14.5881 11.793 14.4278C11.4102 14.2675 11.0634 14.0323 10.773 13.7359C10.7407 13.7062 10.7028 13.6833 10.6616 13.6685C10.6203 13.6538 10.5764 13.6474 10.5327 13.6499C10.4889 13.6524 10.4461 13.6637 10.4067 13.683C10.3674 13.7024 10.3323 13.7294 10.3036 13.7626L10.2993 13.7693C10.2433 13.8345 10.2146 13.9188 10.2192 14.0046C10.2239 14.0905 10.2615 14.1712 10.3243 14.2299C10.6742 14.5838 11.0915 14.864 11.5515 15.054C12.0116 15.244 12.505 15.3398 13.0026 15.3359L12.2383 16.1003C12.2035 16.1302 12.1752 16.1671 12.1553 16.2085C12.1354 16.2499 12.1242 16.2949 12.1226 16.3408C12.1209 16.3867 12.1287 16.4325 12.1456 16.4752C12.1624 16.518 12.1879 16.5568 12.2205 16.5892C12.253 16.6216 12.2919 16.6469 12.3347 16.6636C12.3775 16.6803 12.4233 16.6879 12.4692 16.686C12.5151 16.6842 12.5602 16.6728 12.6015 16.6527C12.6428 16.6326 12.6795 16.6042 12.7093 16.5693L13.8063 15.4723C13.9311 15.3473 14.0012 15.1779 14.0012 15.0013C14.0012 14.8247 13.9311 14.6553 13.8063 14.5303Z" fill="#CEB7A1" stroke="#CEB7A1" stroke-width="0.5"/>
<path d="M13.0023 11.3357L12.239 12.0991C12.2325 12.1078 12.2264 12.117 12.221 12.1264C12.1672 12.192 12.1406 12.2757 12.1468 12.3603C12.1531 12.4449 12.1915 12.5239 12.2543 12.5809C12.3171 12.6379 12.3994 12.6686 12.4842 12.6667C12.569 12.6647 12.6499 12.6302 12.71 12.5704L13.2786 12.0024L13.8073 11.4741C13.8967 11.384 13.9585 11.2703 13.9855 11.1463C14.0125 11.0223 14.0035 10.8931 13.9596 10.7741C13.9272 10.6829 13.8751 10.6 13.807 10.5314L12.71 9.43572C12.6795 9.40266 12.6427 9.37609 12.6018 9.35761C12.5608 9.33913 12.5165 9.32913 12.4716 9.3282C12.4267 9.32727 12.382 9.33543 12.3403 9.35219C12.2986 9.36896 12.2608 9.39398 12.229 9.42576C12.1972 9.45753 12.1722 9.4954 12.1554 9.53709C12.1387 9.57879 12.1305 9.62344 12.1314 9.66836C12.1324 9.71329 12.1424 9.75756 12.1608 9.79853C12.1793 9.83949 12.2059 9.87629 12.239 9.90672L13.0033 10.6707C11.359 10.6747 10.4576 11.5621 9.64029 12.4954C8.88962 11.6481 7.99995 10.8024 6.49562 10.6844L6.33529 10.6691C6.24688 10.6691 6.1621 10.7042 6.09958 10.7667C6.03707 10.8292 6.00195 10.914 6.00195 11.0024C6.00366 11.0903 6.03933 11.1741 6.10147 11.2362C6.16362 11.2983 6.24742 11.334 6.33529 11.3357C6.35929 11.3357 6.43095 11.3467 6.43095 11.3467C7.72962 11.4451 8.47495 12.1764 9.19995 13.0024C8.47929 13.8244 7.73895 14.5691 6.45095 14.6557L6.31762 14.6627C6.22988 14.6682 6.14791 14.7083 6.08974 14.7742C6.03157 14.8402 6.00197 14.9265 6.00745 15.0142C6.01293 15.102 6.05305 15.1839 6.11897 15.2421C6.18488 15.3003 6.27121 15.3299 6.35895 15.3244C6.41095 15.3221 6.49562 15.3201 6.53729 15.3167C8.21062 15.1877 9.11829 14.1167 9.92762 13.1804C10.745 12.2357 11.517 11.3417 13.0023 11.3357Z" fill="#CEB7A1" stroke="#CEB7A1" stroke-width="0.5"/>
</g>
<defs>
<clipPath id="clip0_1882_3132">
<rect width="20" height="20" fill="white"/>
</clipPath>
</defs>
</svg>
