<svg width="25" height="24" viewBox="0 0 25 24" fill="none" xmlns="http://www.w3.org/2000/svg">

<path d="M12.4991 23.9986C15.0244 23.9961 17.4718 23.1249 19.4307 21.5312C21.3895 19.9375 22.7403 17.7184 23.2563 15.2464C23.7724 12.7745 23.4222 10.2003 22.2646 7.956C21.107 5.71173 19.2125 3.93408 16.8991 2.92154C16.7786 2.8682 16.6488 2.8392 16.5171 2.8362C16.3853 2.8332 16.2543 2.85626 16.1315 2.90406C16.0087 2.95186 15.8966 3.02346 15.8016 3.11473C15.7065 3.20601 15.6305 3.31517 15.5778 3.43593C15.5251 3.5567 15.4968 3.68669 15.4944 3.81843C15.4921 3.95018 15.5159 4.08108 15.5643 4.20361C15.6128 4.32615 15.685 4.4379 15.7767 4.53245C15.8685 4.627 15.9781 4.70248 16.0991 4.75455C17.9942 5.58161 19.5466 7.03596 20.4955 8.87305C21.4444 10.7101 21.7317 12.8179 21.3093 14.842C20.8868 16.866 19.7803 18.6829 18.1759 19.9871C16.5714 21.2912 14.5668 22.0032 12.4991 22.0032C10.4315 22.0032 8.42685 21.2912 6.82237 19.9871C5.21789 18.6829 4.1114 16.866 3.68896 14.842C3.26652 12.8179 3.55388 10.7101 4.50274 8.87305C5.4516 7.03596 7.00407 5.58161 8.89912 4.75455C9.02016 4.70248 9.12972 4.627 9.22149 4.53245C9.31327 4.4379 9.38545 4.32615 9.4339 4.20361C9.48235 4.08108 9.5061 3.95018 9.50379 3.81843C9.50149 3.68669 9.47317 3.5567 9.42046 3.43593C9.36775 3.31517 9.2917 3.20601 9.19667 3.11473C9.10164 3.02346 8.98951 2.95186 8.86672 2.90406C8.74393 2.85626 8.61291 2.8332 8.48117 2.8362C8.34944 2.8392 8.2196 2.8682 8.09912 2.92154C5.78578 3.93408 3.89125 5.71173 2.73365 7.956C1.57605 10.2003 1.22587 12.7745 1.74191 15.2464C2.25795 17.7184 3.60878 19.9375 5.56759 21.5312C7.52639 23.1249 9.97389 23.9961 12.4991 23.9986Z" fill="#FF0005"/>
<path d="M12.5 9.99999C12.7652 9.99999 13.0196 9.89464 13.2071 9.7071C13.3946 9.51956 13.5 9.26521 13.5 8.99999V0.999999C13.5 0.734783 13.3946 0.480429 13.2071 0.292893C13.0196 0.105357 12.7652 0 12.5 0C12.2348 0 11.9804 0.105357 11.7929 0.292893C11.6054 0.480429 11.5 0.734783 11.5 0.999999V8.99999C11.5 9.26521 11.6054 9.51956 11.7929 9.7071C11.9804 9.89464 12.2348 9.99999 12.5 9.99999Z" fill="#FF0005"/>

</svg>
