<svg width="20" height="20" viewBox="0 0 20 20" fill="none" xmlns="http://www.w3.org/2000/svg">
<g clip-path="url(#clip0_1843_3068)">
<path fill-rule="evenodd" clip-rule="evenodd" d="M15.5869 9.41144L16.3724 12.2376C16.4718 12.5902 16.4876 12.9611 16.4186 13.3208C16.3496 13.6806 16.1977 14.0193 15.975 14.3102C15.7544 14.6028 15.4686 14.84 15.1402 15.0028C14.8119 15.1657 14.4501 15.2497 14.0837 15.2483H4.78074C4.4251 15.2482 4.07403 15.1683 3.75342 15.0144C3.4328 14.8605 3.15085 14.6366 2.92835 14.3592C2.70586 14.0817 2.54851 13.7579 2.46792 13.4115C2.38732 13.0651 2.38555 12.7051 2.46272 12.3579L3.62648 7.1202C3.90701 5.85844 4.60127 4.72667 5.59889 3.90479C6.59652 3.08291 7.84025 2.6181 9.13237 2.58425C9.29682 2.57995 9.46084 2.58265 9.62404 2.59223C9.77114 2.04287 10.0095 1.53081 10.3218 1.07328C9.91632 1.0157 9.50468 0.991689 9.09096 1.00254C7.44591 1.04567 5.86248 1.63744 4.59237 2.68379C3.32225 3.73015 2.43834 5.17103 2.08114 6.77741L0.916587 12.0143C0.787953 12.593 0.790927 13.1931 0.92529 13.7705C1.05965 14.3479 1.32197 14.8877 1.69289 15.3501C2.0638 15.8125 2.53383 16.1857 3.06828 16.4421C3.60273 16.6985 4.18795 16.8317 4.78074 16.8316H5.66266C5.84436 17.7265 6.32982 18.5309 7.03679 19.1088C7.74377 19.6866 8.62877 20.0023 9.54185 20.0023C10.4549 20.0023 11.3399 19.6866 12.0469 19.1088C12.7539 18.5309 13.2393 17.7265 13.421 16.8316H14.0845C14.6947 16.8317 15.2967 16.6906 15.8434 16.4195C16.3901 16.1484 16.8667 15.7546 17.236 15.2688C17.6053 14.783 17.8572 14.2184 17.9722 13.6191C18.0872 13.0198 18.0612 12.402 17.8979 11.814L17.111 8.98274C16.6383 9.20197 16.1256 9.34952 15.5869 9.41144ZM8.17645 17.9763C8.57551 18.2597 9.05239 18.413 9.54185 18.415C10.0313 18.413 10.5082 18.2597 10.9072 17.9763C11.3063 17.6929 11.608 17.2931 11.7712 16.8316H7.3125C7.47565 17.2931 7.77739 17.6929 8.17645 17.9763Z" fill="#ED5A67"/>
<path d="M10.631 7C10.8992 7.47853 11.4938 7.64294 11.9591 7.36722L11.9601 7.36666L12.1043 7.28098C12.3766 7.52055 12.6896 7.70633 13.0275 7.82898V8C13.0275 8.55228 13.4629 9 14 9C14.5371 9 14.9725 8.55228 14.9725 8V7.829C15.3105 7.70615 15.6234 7.52013 15.8957 7.28033L16.0406 7.36633C16.506 7.64247 17.1011 7.47831 17.3696 6.99966C17.6382 6.52102 17.4785 5.90912 17.0131 5.63298L16.8691 5.54766C16.9339 5.18513 16.9339 4.81351 16.8691 4.45098L17.0131 4.36566C17.4785 4.08952 17.6382 3.47764 17.3696 2.99898C17.1011 2.52034 16.5061 2.35617 16.0406 2.63231L15.8963 2.71798C15.6238 2.47872 15.3106 2.29328 14.9725 2.171V2C14.9725 1.44772 14.5371 1 14 1C13.4629 1 13.0275 1.44772 13.0275 2V2.171C12.6895 2.29385 12.3766 2.47987 12.1043 2.71967L11.9594 2.63334C11.4939 2.35719 10.8989 2.52136 10.6304 3C10.3618 3.47864 10.5215 4.09053 10.9869 4.36667L11.1309 4.452C11.0661 4.81452 11.0661 5.18615 11.1309 5.54867L10.9869 5.634C10.5228 5.91087 10.3636 6.52156 10.631 7ZM14 3.66667C14.7161 3.66667 15.2966 4.26363 15.2966 5C15.2966 5.73637 14.7161 6.33333 14 6.33333C13.2839 6.33333 12.7034 5.73637 12.7034 5C12.7034 4.26363 13.2839 3.66667 14 3.66667Z" fill="#ED5A67"/>
</g>
<defs>
<clipPath id="clip0_1843_3068">
<rect width="20" height="20" fill="white"/>
</clipPath>
</defs>
</svg>
