<svg width="20" height="20" viewBox="0 0 20 20" fill="none" xmlns="http://www.w3.org/2000/svg">
<g clip-path="url(#clip0_402_12492)">
<path d="M19.6842 5.695L18.5576 3.34C18.2667 2.73167 17.7326 2.26 17.0926 2.04667L11.8451 0.2975C10.6551 -0.0991667 9.34507 -0.0991667 8.15507 0.2975L2.9084 2.04667C2.26757 2.26 1.7334 2.7325 1.44257 3.34167L0.370902 5.5975C-0.0265984 6.2575 -0.101598 7.04917 0.165068 7.77167C0.422568 8.47167 0.968401 9.01333 1.66673 9.26833L1.66257 14.53C1.6609 16.3283 2.8059 17.9183 4.5109 18.4867L8.1484 19.6992C8.7434 19.8975 9.3684 19.9967 9.9934 19.9967C10.6184 19.9967 11.2434 19.8975 11.8384 19.6992L15.4792 18.485C17.1817 17.9175 18.3267 16.3308 18.3284 14.5358L18.3326 9.26917C19.0376 9.02167 19.5892 8.48083 19.8484 7.7775C20.1126 7.0625 20.0392 6.27833 19.6842 5.695ZM8.68257 1.87917C9.53257 1.59583 10.4684 1.59583 11.3176 1.87917L14.8576 3.05917L10.0059 4.68417L5.14423 3.05917L8.68257 1.87917ZM1.83673 6.38667L2.94257 4.06833C2.98257 4.08917 8.8234 6.04583 8.8234 6.04583L7.47257 8.76083C7.2734 9.0925 6.86007 9.24583 6.49507 9.1225L2.2609 7.71167C2.0134 7.62917 1.81923 7.44083 1.7284 7.19583C1.63757 6.95083 1.6634 6.6825 1.8359 6.3875L1.83673 6.38667ZM5.03757 16.9058C4.01423 16.565 3.32757 15.6108 3.3284 14.5325L3.33257 9.82583L5.96757 10.7042C7.08757 11.0775 8.29423 10.6317 8.9334 9.56167L9.16507 9.0975L9.1609 18.2483C8.99673 18.215 8.83507 18.1725 8.67673 18.1192L5.0384 16.9067L5.03757 16.9058ZM14.9517 16.905L11.3101 18.1192C11.1517 18.1717 10.9901 18.215 10.8259 18.2483L10.8301 9.08583L11.0959 9.61917C11.5592 10.3925 12.3726 10.835 13.2301 10.835C13.4959 10.835 13.7659 10.7925 14.0301 10.7042L16.6642 9.82667L16.6601 14.5358C16.6601 15.6125 15.9717 16.565 14.9501 16.9058L14.9517 16.905ZM18.2851 7.20167C18.1976 7.43917 18.0092 7.62167 17.7692 7.70167L13.5042 9.12333C13.1392 9.24583 12.7259 9.09417 12.5576 8.81917L11.1784 6.05C11.1784 6.05 17.0167 4.09083 17.0567 4.06917L18.2176 6.48667C18.3484 6.70417 18.3726 6.965 18.2851 7.2025V7.20167Z" fill="#ED5A67"/>
</g>
<defs>
<clipPath id="clip0_402_12492">
<rect width="20" height="20" fill="white"/>
</clipPath>
</defs>
</svg>
