<svg width="20" height="20" viewBox="0 0 20 20" fill="none" xmlns="http://www.w3.org/2000/svg">

<path d="M19.864 7.32626C19.6935 6.78368 19.353 6.31035 18.8927 5.97629C18.4324 5.64222 17.8768 5.46515 17.3081 5.47126H13.6673L12.5615 2.02459C12.3876 1.48206 12.0459 1.00877 11.5856 0.672982C11.1254 0.337191 10.5704 0.15625 10.0006 0.15625C9.43093 0.15625 8.87592 0.337191 8.41567 0.672982C7.95543 1.00877 7.61371 1.48206 7.43982 2.02459L6.33398 5.47126H2.69315C2.12627 5.47207 1.57414 5.652 1.11563 5.98535C0.657122 6.3187 0.315683 6.78842 0.140084 7.32742C-0.0355159 7.86642 -0.0362931 8.44712 0.137863 8.98659C0.312019 9.52605 0.6522 9.99668 1.10982 10.3313L4.07315 12.4979L2.94648 15.9871C2.76441 16.5283 2.7621 17.1138 2.93991 17.6563C3.11771 18.1989 3.4661 18.6695 3.93315 18.9979C4.39219 19.3369 4.94848 19.5185 5.51911 19.5157C6.08974 19.5128 6.64418 19.3257 7.09982 18.9821L10.0006 16.8471L12.9023 18.9796C13.3605 19.3166 13.9138 19.4997 14.4826 19.5025C15.0514 19.5052 15.6065 19.3276 16.068 18.995C16.5294 18.6625 16.8736 18.1921 17.0509 17.6517C17.2282 17.1112 17.2296 16.5284 17.0548 15.9871L15.9281 12.4979L18.8948 10.3313C19.3577 10.0009 19.7018 9.53026 19.8764 8.98905C20.0509 8.44784 20.0466 7.86481 19.864 7.32626ZM17.9115 8.98543L14.4581 11.5096C14.3163 11.6131 14.2108 11.7587 14.1566 11.9257C14.1024 12.0927 14.1024 12.2726 14.1565 12.4396L15.469 16.4979C15.5354 16.7038 15.5348 16.9254 15.4674 17.1309C15.3999 17.3364 15.269 17.5152 15.0935 17.6416C14.918 17.768 14.7069 17.8355 14.4907 17.8344C14.2744 17.8333 14.064 17.7636 13.8898 17.6354L10.494 15.1354C10.351 15.0304 10.1781 14.9737 10.0006 14.9737C9.82318 14.9737 9.65034 15.0304 9.50732 15.1354L6.11148 17.6354C5.93738 17.7654 5.72643 17.8365 5.5092 17.8384C5.29198 17.8404 5.07977 17.7731 4.90334 17.6464C4.72691 17.5196 4.59544 17.34 4.52798 17.1335C4.46052 16.927 4.46058 16.7044 4.52815 16.4979L5.84482 12.4396C5.89891 12.2726 5.89887 12.0927 5.8447 11.9257C5.79053 11.7587 5.68499 11.6131 5.54315 11.5096L2.08982 8.98543C1.9159 8.85809 1.78668 8.67905 1.7206 8.47388C1.65452 8.26871 1.65497 8.04791 1.72189 7.84301C1.7888 7.63811 1.91875 7.4596 2.09318 7.33297C2.26762 7.20634 2.4776 7.13808 2.69315 7.13793H6.94315C7.11958 7.13792 7.29145 7.08192 7.43402 6.97799C7.57659 6.87406 7.68249 6.72756 7.73648 6.55959L9.02815 2.53376C9.09445 2.32775 9.22441 2.14809 9.39932 2.02063C9.57423 1.89318 9.78506 1.82452 10.0015 1.82452C10.2179 1.82452 10.4287 1.89318 10.6036 2.02063C10.7786 2.14809 10.9085 2.32775 10.9748 2.53376L12.2665 6.55959C12.3205 6.72756 12.4264 6.87406 12.5689 6.97799C12.7115 7.08192 12.8834 7.13792 13.0598 7.13793H17.3098C17.5254 7.13808 17.7353 7.20634 17.9098 7.33297C18.0842 7.4596 18.2142 7.63811 18.2811 7.84301C18.348 8.04791 18.3484 8.26871 18.2824 8.47388C18.2163 8.67905 18.0871 8.85809 17.9131 8.98543H17.9115Z" fill="#CEB7A1"/>

</svg>
