<svg width="20" height="20" viewBox="0 0 20 20" fill="none" xmlns="http://www.w3.org/2000/svg">

<path d="M10 20C9.33174 20.0005 8.67148 19.8546 8.06565 19.5726C7.45982 19.2905 6.92314 18.8792 6.49333 18.3675C5.21 18.515 3.8875 18.0292 2.92917 17.0717C2.45641 16.5992 2.09281 16.0289 1.86391 15.401C1.63501 14.773 1.54635 14.1025 1.60417 13.4367C0.595 12.6333 0 11.355 0 10C0 8.645 0.595 7.36667 1.63333 6.49333C1.4875 5.2125 1.97083 3.8875 2.92917 2.92917C3.40105 2.45582 3.97108 2.09182 4.59903 1.86288C5.22698 1.63393 5.89752 1.54562 6.56333 1.60417C7.36667 0.595833 8.645 0 10 0C11.355 0 12.6333 0.595 13.5067 1.6325C14.7917 1.48583 16.1125 1.97083 17.0708 2.92833C17.5436 3.40081 17.9072 3.97106 18.1361 4.59902C18.365 5.22699 18.4536 5.89745 18.3958 6.56333C19.405 7.36667 20 8.645 20 10C20 11.355 19.405 12.6333 18.3667 13.5067C18.5125 14.7875 18.0292 16.1125 17.0708 17.0708C16.5985 17.5436 16.0284 17.9072 15.4006 18.1361C14.7728 18.365 14.1024 18.4536 13.4367 18.3958C12.6333 19.4042 11.355 20 10 20ZM6.56083 16.73C7.02833 16.73 7.46167 16.9308 7.7675 17.2933C8.32417 17.9542 9.1375 18.3333 10 18.3333C10.8625 18.3333 11.6758 17.9542 12.2325 17.2933C12.5683 16.8942 13.0575 16.6925 13.5792 16.735C14.003 16.7719 14.4297 16.7155 14.8295 16.5699C15.2292 16.4243 15.5922 16.193 15.893 15.8922C16.1938 15.5914 16.4252 15.2284 16.5708 14.8286C16.7164 14.4289 16.7727 14.0022 16.7358 13.5783C16.7124 13.3253 16.7509 13.0703 16.8482 12.8355C16.9455 12.6007 17.0986 12.3931 17.2942 12.2308C17.62 11.9574 17.8821 11.6159 18.0618 11.2303C18.2416 10.8448 18.3348 10.4246 18.3348 9.99917C18.3348 9.57377 18.2416 9.15354 18.0618 8.76799C17.8821 8.38245 17.62 8.04095 17.2942 7.7675C17.0987 7.60511 16.9457 7.39755 16.8484 7.16277C16.7511 6.928 16.7125 6.67306 16.7358 6.42C16.8092 5.55917 16.5025 4.71583 15.8925 4.10667C15.2825 3.4975 14.4358 3.19333 13.58 3.26333C13.327 3.28735 13.0719 3.2491 12.837 3.15193C12.6021 3.05476 12.3946 2.90161 12.2325 2.70583C11.6758 2.045 10.8625 1.66583 10 1.66583C9.1375 1.66583 8.32417 2.045 7.7675 2.70583C7.60455 2.90042 7.39703 3.05279 7.16257 3.14999C6.92812 3.2472 6.67367 3.28636 6.42083 3.26417C5.99699 3.22646 5.57003 3.28247 5.17025 3.42821C4.77046 3.57395 4.40764 3.80586 4.1075 4.1075C3.80666 4.40821 3.57528 4.77112 3.42959 5.17075C3.2839 5.57039 3.22744 5.99706 3.26417 6.42083C3.28765 6.67391 3.24907 6.92889 3.15178 7.16369C3.05449 7.39849 2.90142 7.60603 2.70583 7.76833C2.37997 8.04179 2.11795 8.38328 1.93818 8.76883C1.7584 9.15437 1.66525 9.5746 1.66525 10C1.66525 10.4254 1.7584 10.8456 1.93818 11.2312C2.11795 11.6167 2.37997 11.9582 2.70583 12.2317C3.105 12.5675 3.30917 13.0592 3.26417 13.5792C3.22721 14.003 3.28357 14.4297 3.42927 14.8294C3.57497 15.229 3.80647 15.5919 4.1075 15.8925C4.40865 16.1925 4.7715 16.4233 5.17084 16.5689C5.57018 16.7146 5.99643 16.7715 6.42 16.7358C6.4675 16.7317 6.51417 16.73 6.56083 16.73ZM7.5 6.66667C7.27899 6.66667 7.06702 6.75446 6.91074 6.91074C6.75446 7.06703 6.66667 7.27899 6.66667 7.5C6.66667 7.72101 6.75446 7.93298 6.91074 8.08926C7.06702 8.24554 7.27899 8.33333 7.5 8.33333C7.72101 8.33333 7.93297 8.24554 8.08926 8.08926C8.24554 7.93298 8.33333 7.72101 8.33333 7.5C8.33333 7.27899 8.24554 7.06703 8.08926 6.91074C7.93297 6.75446 7.72101 6.66667 7.5 6.66667ZM12.5 11.6667C12.279 11.6667 12.067 11.7545 11.9107 11.9107C11.7545 12.067 11.6667 12.279 11.6667 12.5C11.6667 12.721 11.7545 12.933 11.9107 13.0893C12.067 13.2455 12.279 13.3333 12.5 13.3333C12.721 13.3333 12.933 13.2455 13.0893 13.0893C13.2455 12.933 13.3333 12.721 13.3333 12.5C13.3333 12.279 13.2455 12.067 13.0893 11.9107C12.933 11.7545 12.721 11.6667 12.5 11.6667ZM9.02667 12.9625L12.36 7.9625C12.4207 7.87145 12.4629 7.76933 12.4842 7.66197C12.5055 7.55461 12.5054 7.44411 12.484 7.33678C12.4625 7.22945 12.4202 7.12739 12.3593 7.03644C12.2984 6.94548 12.2202 6.8674 12.1292 6.80667C12.0381 6.74593 11.936 6.70372 11.8286 6.68245C11.7213 6.66118 11.6108 6.66127 11.5034 6.6827C11.3961 6.70414 11.2941 6.7465 11.2031 6.80738C11.1121 6.86825 11.0341 6.94645 10.9733 7.0375L7.64 12.0375C7.57926 12.1286 7.53706 12.2307 7.51579 12.338C7.49452 12.4454 7.4946 12.5559 7.51604 12.6632C7.53747 12.7706 7.57984 12.8726 7.64071 12.9636C7.70159 13.0545 7.77978 13.1326 7.87083 13.1933C8.05472 13.316 8.2798 13.3606 8.49656 13.3173C8.60389 13.2959 8.70594 13.2535 8.7969 13.1926C8.88785 13.1317 8.96593 13.0536 9.02667 12.9625Z" fill="#ED5A67"/>

</svg>
