<svg width="20" height="20" viewBox="0 0 20 20" fill="none" xmlns="http://www.w3.org/2000/svg">
<g clip-path="url(#clip0_1882_3051)">
<path d="M14.1667 15.8308C14.1667 18.1308 12.3 19.9975 10 19.9975H4.16667C1.86667 19.9975 0 18.1308 0 15.8308V9.99749C0 7.69748 1.86667 5.83082 4.16667 5.83082H5C5.45833 5.83082 5.83333 6.20582 5.83333 6.66415C5.83333 7.12249 5.45833 7.49749 5 7.49749H4.16667C2.79167 7.49749 1.66667 8.62249 1.66667 9.99749V15.8308C1.66667 17.2058 2.79167 18.3308 4.16667 18.3308H10C11.375 18.3308 12.5 17.2058 12.5 15.8308C12.5 15.3725 12.875 14.9975 13.3333 14.9975C13.7917 14.9975 14.1667 15.3725 14.1667 15.8308ZM19.275 4.90582L14.7667 0.247485C14.45 -0.0858485 13.9167 -0.0941818 13.5917 0.230818C13.2667 0.555818 13.25 1.08082 13.575 1.40582L17.8583 5.82248H10.8333C8.53333 5.82248 6.66667 7.68915 6.66667 9.98915V14.1558C6.66667 14.6142 7.04167 14.9892 7.5 14.9892C7.95833 14.9892 8.33333 14.6142 8.33333 14.1558V9.98915C8.33333 8.61415 9.45833 7.48915 10.8333 7.48915H17.85L13.5667 11.9058C13.4527 12.0231 13.376 12.1715 13.346 12.3322C13.3161 12.493 13.3343 12.659 13.3984 12.8095C13.4625 12.9599 13.5696 13.0881 13.7063 13.1779C13.843 13.2677 14.0031 13.3151 14.1667 13.3142C14.375 13.3142 14.6 13.2308 14.7667 13.0642L19.2667 8.42248C19.734 7.9555 19.9973 7.32237 19.9988 6.66171C20.0004 6.00104 19.7401 5.36667 19.275 4.89748V4.90582Z" fill="#CEB7A1"/>
</g>
<defs>
<clipPath id="clip0_1882_3051">
<rect width="20" height="20" fill="white"/>
</clipPath>
</defs>
</svg>
