<svg width="20" height="20" viewBox="0 0 20 20" fill="none" xmlns="http://www.w3.org/2000/svg">
<path d="M12.7976 16.9643C12.8179 17.0162 12.8278 17.0717 12.8267 17.1274C12.8257 17.1832 12.8138 17.2382 12.7916 17.2893C12.7694 17.3404 12.7375 17.3866 12.6976 17.4253C12.6577 17.464 12.6106 17.4944 12.559 17.5148C10.9136 18.1617 9.0865 18.1617 7.44106 17.5148C7.33689 17.4736 7.25323 17.3925 7.20848 17.2893C7.16373 17.1861 7.16155 17.0692 7.20242 16.9643C7.24329 16.8595 7.32387 16.7753 7.42643 16.7302C7.52899 16.6852 7.64512 16.683 7.74929 16.7241C9.1966 17.2929 10.8035 17.2929 12.2508 16.7241C12.3549 16.683 12.4711 16.6852 12.5736 16.7302C12.6762 16.7753 12.7568 16.8595 12.7976 16.9643ZM13.845 6.09827C15.0609 7.07183 15.865 8.47319 16.0951 10.0199C16.11 10.1204 16.1603 10.2122 16.2368 10.2786C16.3132 10.345 16.4108 10.3816 16.5118 10.3817C16.5329 10.3817 16.554 10.3801 16.5748 10.377C16.6296 10.3687 16.6823 10.3497 16.7298 10.3209C16.7773 10.2922 16.8187 10.2543 16.8516 10.2095C16.8845 10.1646 16.9084 10.1137 16.9218 10.0596C16.9352 10.0055 16.9378 9.94921 16.9296 9.89405C16.6682 8.13547 15.7543 6.542 14.3719 5.4348C14.3287 5.39998 14.279 5.37408 14.2258 5.35858C14.1725 5.34308 14.1168 5.33829 14.0617 5.34447C14.0067 5.35066 13.9534 5.3677 13.9048 5.39462C13.8563 5.42154 13.8135 5.45782 13.7789 5.50138C13.7444 5.54495 13.7186 5.59494 13.7032 5.64852C13.6878 5.70209 13.6831 5.75819 13.6892 5.81361C13.6954 5.86904 13.7123 5.92271 13.739 5.97155C13.7658 6.02039 13.8018 6.06345 13.8451 6.09827H13.845ZM5.62824 5.4348C4.24593 6.54201 3.33199 8.13548 3.07059 9.89405C3.06238 9.94922 3.06505 10.0055 3.07844 10.0596C3.09184 10.1137 3.11569 10.1647 3.14865 10.2095C3.1816 10.2544 3.22301 10.2922 3.27051 10.321C3.31801 10.3497 3.37067 10.3687 3.42548 10.377C3.44633 10.3801 3.46739 10.3817 3.48848 10.3817C3.58946 10.3816 3.68704 10.345 3.76349 10.2786C3.83994 10.2122 3.8902 10.1204 3.90514 10.0199C4.13525 8.47319 4.93931 7.07184 6.15525 6.09827C6.19853 6.06345 6.23458 6.02039 6.26132 5.97155C6.28807 5.92271 6.305 5.86904 6.31114 5.81361C6.31729 5.75819 6.31252 5.70209 6.29712 5.64852C6.28173 5.59494 6.256 5.54495 6.22141 5.50138C6.18681 5.45782 6.14403 5.42154 6.09551 5.39462C6.04699 5.3677 5.99367 5.35066 5.93861 5.34447C5.88354 5.33829 5.82781 5.34308 5.77458 5.35858C5.72136 5.37408 5.67169 5.39998 5.62841 5.4348H5.62824ZM13.2971 4.31868C13.2971 4.97506 13.1038 5.6167 12.7415 6.16246C12.3792 6.70823 11.8643 7.1336 11.2618 7.38479C10.6593 7.63598 9.9964 7.70171 9.35683 7.57366C8.71725 7.44561 8.12976 7.12954 7.66865 6.66541C7.20754 6.20128 6.89352 5.60994 6.7663 4.96617C6.63908 4.32241 6.70437 3.65512 6.95392 3.0487C7.20347 2.44229 7.62606 1.92397 8.16827 1.55931C8.71047 1.19464 9.34793 1 10 1C10.8742 1.001 11.7122 1.35097 12.3303 1.97312C12.9484 2.59528 13.2961 3.43881 13.2971 4.31868ZM12.4533 4.31868C12.4533 3.83028 12.3094 3.35285 12.0399 2.94677C11.7703 2.54069 11.3871 2.22418 10.9388 2.03729C10.4906 1.85039 9.99729 1.80149 9.5214 1.89678C9.04551 1.99207 8.60838 2.22725 8.26528 2.57261C7.92219 2.91796 7.68854 3.35796 7.59388 3.83697C7.49922 4.31599 7.5478 4.81249 7.73349 5.26371C7.91917 5.71493 8.23362 6.1006 8.63706 6.37193C9.0405 6.64327 9.51482 6.7881 10 6.7881C10.6505 6.78736 11.2741 6.52695 11.734 6.064C12.1939 5.60105 12.4526 4.97338 12.4533 4.31868ZM18.8877 13.4022C19.0851 14.1439 19.0209 14.9315 18.7061 15.6308C18.3912 16.3302 17.8452 16.898 17.1611 17.2376C16.477 17.5771 15.697 17.6674 14.9542 17.4931C14.2113 17.3187 13.5515 16.8904 13.0872 16.2813C12.6228 15.6721 12.3827 14.9198 12.4077 14.1524C12.4326 13.385 12.7212 12.6501 13.2242 12.0728C13.7271 11.4956 14.4134 11.1118 15.166 10.9867C15.9186 10.8617 16.691 11.0032 17.3516 11.3871C17.7273 11.6041 18.0565 11.8939 18.3201 12.2398C18.5838 12.5857 18.7767 12.9808 18.8877 13.4022ZM18.0726 13.6221C17.9327 13.0977 17.6253 12.6343 17.1977 12.3033C16.7702 11.9723 16.2463 11.7922 15.7069 11.7907C15.4912 11.7909 15.2763 11.8195 15.068 11.876C14.5993 12.0024 14.1784 12.2658 13.8585 12.633C13.5385 13.0002 13.334 13.4546 13.2707 13.9389C13.2073 14.4231 13.2881 14.9153 13.5027 15.3533C13.7173 15.7914 14.0561 16.1555 14.4763 16.3997C14.8965 16.6439 15.3792 16.7572 15.8634 16.7252C16.3475 16.6933 16.8114 16.5175 17.1964 16.2202C17.5813 15.9229 17.87 15.5174 18.026 15.0549C18.182 14.5925 18.1982 14.0938 18.0726 13.6221ZM5.94571 17.1353C5.38098 17.4635 4.73223 17.6158 4.08151 17.5728C3.4308 17.5299 2.80734 17.2937 2.28998 16.8942C1.77262 16.4946 1.3846 15.9496 1.17498 15.328C0.965363 14.7065 0.943568 14.0363 1.11235 13.4023C1.28113 12.7683 1.63291 12.1988 2.1232 11.7661C2.61349 11.3333 3.22027 11.0566 3.8668 10.9709C4.51334 10.8852 5.17059 10.9945 5.75544 11.2848C6.34029 11.5752 6.82648 12.0335 7.15251 12.602C7.37163 12.9787 7.51428 13.3955 7.57219 13.8281C7.63009 14.2608 7.60211 14.7007 7.48985 15.1224C7.3776 15.544 7.18331 15.9391 6.91825 16.2846C6.65318 16.6302 6.32262 16.9193 5.94571 17.1353ZM6.42175 13.0267C6.26136 12.7453 6.04712 12.4987 5.79142 12.3012C5.53572 12.1037 5.24365 11.9592 4.93211 11.8761C4.72374 11.8197 4.50892 11.791 4.29314 11.7909C3.75309 11.7915 3.22833 11.9715 2.80021 12.3028C2.37208 12.6342 2.06451 13.0985 1.92516 13.6236C1.78581 14.1488 1.82247 14.7056 2.02945 15.2077C2.23643 15.7098 2.60218 16.1291 3.07 16.4007C3.53782 16.6723 4.08158 16.781 4.617 16.7099C5.15242 16.6388 5.64959 16.392 6.03144 16.0076C6.4133 15.6232 6.65852 15.1227 6.72908 14.5838C6.79965 14.0448 6.69163 13.4975 6.42175 13.0267Z" fill="#ED5A67" stroke="#ED5A67" stroke-width="0.5"/>
</svg>
