<svg width="20" height="20" viewBox="0 0 20 20" fill="none" xmlns="http://www.w3.org/2000/svg">

<path d="M5.54313 20C5.12485 19.9996 4.72024 19.851 4.40109 19.5806C4.08193 19.3102 3.86885 18.9356 3.79966 18.523L3.46348 16.506C3.45852 16.4646 3.44444 16.4249 3.42227 16.3896C3.4001 16.3544 3.37039 16.3244 3.33527 16.3021C2.73553 16.0012 2.19649 15.5922 1.74524 15.0957C-0.581748 12.4032 -0.581748 5.26273 1.74524 2.5713C3.38575 0.676392 7.00798 0 9.85084 0H9.85185C12.6937 0 16.3159 0.676392 17.9554 2.5713C20.2834 5.26374 20.2834 12.4042 17.9554 15.0957C16.5885 16.6766 13.6094 17.6346 9.98511 17.6579C9.73485 17.6563 9.48959 17.7279 9.27944 17.8638L6.5234 19.7022C6.23359 19.8961 5.89282 19.9997 5.54414 20H5.54313ZM9.85084 1.51431C6.69805 1.51431 3.96724 2.3179 2.89107 3.56267C1.05876 5.68068 1.05876 11.9863 2.89107 14.1043C3.21973 14.4586 3.61047 14.7498 4.04397 14.9634C4.28478 15.0948 4.49233 15.2795 4.65069 15.5035C4.80906 15.7275 4.91404 15.9848 4.9576 16.2556L5.29277 18.2747C5.29977 18.3163 5.31709 18.3555 5.34315 18.3887C5.36921 18.4219 5.40318 18.448 5.44194 18.4647C5.48071 18.4813 5.52303 18.488 5.56505 18.4841C5.60706 18.4802 5.64743 18.4658 5.68245 18.4423L8.44051 16.6039C8.89609 16.3039 9.42954 16.1439 9.97501 16.1436C13.0743 16.1234 15.7566 15.3228 16.8096 14.1043C18.6419 11.9863 18.6419 5.68068 16.8096 3.56267C15.7344 2.3179 13.0036 1.51431 9.85185 1.51431H9.85084Z" fill="#ED5A67"/>
<path d="M11.981 13.2279C11.7355 13.2279 11.4966 13.1478 11.3006 12.9998L9.85092 11.9135L8.40122 13.0008C8.21008 13.1437 7.97876 13.2227 7.74015 13.2266C7.50153 13.2304 7.26777 13.159 7.0721 13.0223C6.87644 12.8857 6.72883 12.6909 6.65027 12.4655C6.57171 12.2402 6.5662 11.9958 6.63452 11.7671L7.21602 9.82882L5.98741 8.84553C5.8035 8.69886 5.66976 8.49863 5.60473 8.27256C5.5397 8.0465 5.5466 7.80581 5.62447 7.58384C5.70234 7.36187 5.84733 7.16963 6.03934 7.03374C6.23135 6.89785 6.46087 6.82505 6.69611 6.82544H8.0822L8.80907 5.13042C8.89687 4.92697 9.04232 4.75368 9.22746 4.63194C9.4126 4.51019 9.62933 4.44531 9.85092 4.44531C10.0725 4.44531 10.2892 4.51019 10.4744 4.63194C10.6595 4.75368 10.805 4.92697 10.8928 5.13042L11.6196 6.82544H13.0057C13.2405 6.8257 13.4694 6.89879 13.661 7.03463C13.8525 7.17047 13.9971 7.36237 14.075 7.58387C14.1528 7.80538 14.1601 8.04558 14.0957 8.27136C14.0313 8.49715 13.8984 8.6974 13.7154 8.84452L12.4848 9.82882L13.0683 11.7671C13.119 11.9367 13.1293 12.1157 13.0985 12.29C13.0677 12.4642 12.9966 12.6288 12.8909 12.7707C12.7852 12.9126 12.6478 13.0279 12.4896 13.1072C12.3315 13.1866 12.158 13.228 11.981 13.2279ZM7.77833 8.33975L8.36185 8.80616C8.53894 8.94722 8.6696 9.1382 8.73692 9.35437C8.80424 9.57054 8.80511 9.80194 8.73941 10.0186L8.41636 11.0968L9.17049 10.5315C9.36716 10.3851 9.60577 10.3061 9.85092 10.3061C10.0961 10.3061 10.3347 10.3851 10.5313 10.5315L11.2855 11.0968L10.9614 10.0186C10.8965 9.80204 10.8978 9.57102 10.965 9.35518C11.0323 9.13933 11.1625 8.9485 11.339 8.80716L11.9235 8.33975H11.3683C11.1461 8.33992 10.9287 8.27474 10.7433 8.15232C10.5579 8.02989 10.4125 7.85564 10.3254 7.65124L9.85092 6.54277L9.37643 7.65225C9.2886 7.85619 9.14291 8.02992 8.95738 8.15193C8.77185 8.27394 8.55462 8.33889 8.33257 8.33874L7.77833 8.33975Z" fill="#ED5A67"/>

</svg>
