<svg width="20" height="20" viewBox="0 0 20 20" fill="none" xmlns="http://www.w3.org/2000/svg">
<path d="M11.8232 18.7035H4.63469C3.4342 18.7035 2.45856 17.7272 2.45856 16.5274V3.47063C2.45856 2.27086 3.4342 1.2945 4.63469 1.2945H14.79C15.9897 1.2945 16.9661 2.27086 16.9661 3.47063V13.8435C16.9661 14.0372 17.0444 14.2113 17.1677 14.3411C17.2349 14.4128 17.316 14.47 17.406 14.5092C17.4961 14.5484 17.5932 14.5687 17.6915 14.5689C17.8838 14.5689 18.0683 14.4925 18.2044 14.3564C18.3404 14.2204 18.4168 14.0359 18.4168 13.8435V3.47063C18.4168 1.47077 16.7891 -0.15625 14.79 -0.15625H4.63469C2.63483 -0.15625 1.00781 1.47077 1.00781 3.47063V16.5274C1.00781 18.5273 2.63483 20.1543 4.63469 20.1543H11.8232C12.0156 20.1543 12.2001 20.0779 12.3361 19.9418C12.4721 19.8058 12.5485 19.6213 12.5485 19.4289C12.5478 19.2428 12.475 19.0642 12.3454 18.9306C12.2784 18.8592 12.1975 18.8022 12.1077 18.7632C12.0179 18.7241 11.9211 18.7038 11.8232 18.7035Z" fill="#CEB7A1"/>
<path d="M14.0647 9.27532H5.36014C5.16776 9.27532 4.98326 9.35174 4.84722 9.48778C4.71119 9.62381 4.63477 9.80831 4.63477 10.0007C4.63477 10.1931 4.71119 10.3776 4.84722 10.5136C4.98326 10.6496 5.16776 10.7261 5.36014 10.7261H14.0647C14.257 10.7261 14.4415 10.6496 14.5776 10.5136C14.7136 10.3776 14.79 10.1931 14.79 10.0007C14.79 9.80831 14.7136 9.62381 14.5776 9.48778C14.4415 9.35174 14.257 9.27532 14.0647 9.27532ZM14.0647 5.64844H5.36014C5.16776 5.64844 4.98326 5.72486 4.84722 5.8609C4.71119 5.99693 4.63477 6.18143 4.63477 6.37381C4.63477 6.5662 4.71119 6.7507 4.84722 6.88673C4.98326 7.02277 5.16776 7.09919 5.36014 7.09919H14.0647C14.257 7.09919 14.4415 7.02277 14.5776 6.88673C14.7136 6.7507 14.79 6.5662 14.79 6.37381C14.79 6.18143 14.7136 5.99693 14.5776 5.8609C14.4415 5.72486 14.257 5.64844 14.0647 5.64844ZM14.0647 12.9022H5.36014C5.16776 12.9022 4.98326 12.9786 4.84722 13.1147C4.71119 13.2507 4.63477 13.4352 4.63477 13.6276C4.63477 13.82 4.71119 14.0045 4.84722 14.1405C4.98326 14.2765 5.16776 14.3529 5.36014 14.3529H14.0647C14.257 14.3529 14.4415 14.2765 14.5776 14.1405C14.7136 14.0045 14.79 13.82 14.79 13.6276C14.79 13.4352 14.7136 13.2507 14.5776 13.1147C14.4415 12.9786 14.257 12.9022 14.0647 12.9022ZM13.7012 17.2893C13.6301 17.3611 13.5749 17.4471 13.5394 17.5418C13.5039 17.6364 13.4889 17.7375 13.4952 17.8384C13.502 18.0174 13.5755 18.1874 13.7012 18.315L15.1709 19.7838C15.2381 19.8514 15.318 19.9051 15.406 19.9417C15.494 19.9783 15.5884 19.9971 15.6837 19.9971C15.779 19.9971 15.8734 19.9783 15.9614 19.9417C16.0494 19.9051 16.1293 19.8514 16.1965 19.7838L18.7789 17.2015C18.8482 17.1346 18.9034 17.0545 18.9414 16.966C18.9794 16.8775 18.9995 16.7824 19.0003 16.6861C19.0011 16.5897 18.9828 16.4942 18.9463 16.4051C18.9098 16.3159 18.856 16.2349 18.7879 16.1668C18.7198 16.0987 18.6388 16.0449 18.5496 16.0084C18.4605 15.9719 18.365 15.9536 18.2686 15.9544C18.1723 15.9552 18.0771 15.9752 17.9886 16.0133C17.9001 16.0513 17.8201 16.1065 17.7532 16.1758L15.6837 18.2453L14.7262 17.2893C14.6062 17.1728 14.4491 17.1022 14.2823 17.0898C14.1767 17.0776 14.0697 17.0892 13.9692 17.1238C13.8686 17.1583 13.7771 17.2148 13.7012 17.2893Z" fill="#CEB7A1"/>

</svg>
