<svg width="37" height="37" viewBox="0 0 37 37" fill="none" xmlns="http://www.w3.org/2000/svg">
<path d="M29.1878 30.3592L29.5658 30.0892C30.6919 29.2856 31.4942 28.1063 31.8281 26.7638C32.162 25.4212 32.0056 24.0035 31.3872 22.766L31.246 22.4847L34.8128 24.9806V34.2944L29.1878 30.3592ZM29.919 12.7344C30.4759 13.5704 30.8019 14.5388 30.8642 15.5414C30.9264 16.544 30.7226 17.5452 30.2734 18.4438L29.5388 19.913L24.6878 16.5194V8.33056L28.9892 11.3416L29.919 12.7344ZM24.6878 17.8931L29.311 21.1291L30.3797 23.2694C30.8791 24.2672 31.0057 25.4104 30.7369 26.4933C30.468 27.5761 29.8213 28.5274 28.9133 29.1757L28.2119 29.6763L24.6878 27.2075V17.8931ZM34.8128 23.6069L30.4703 20.5694L31.2797 18.95C31.7408 18.0278 31.9869 17.0132 31.9998 15.9823C32.0126 14.9514 31.7919 13.931 31.354 12.9976L34.8128 15.4181V23.6069ZM18.5003 2.1875C19.8425 2.18914 21.1292 2.72303 22.0782 3.67208C23.0273 4.62113 23.5612 5.90784 23.5628 7.25V23.9501C22.9933 23.1357 22.2358 22.4707 21.3545 22.0115C20.4731 21.5524 19.4941 21.3126 18.5003 21.3126C17.5065 21.3126 16.5275 21.5524 15.6461 22.0115C14.7648 22.4707 14.0073 23.1357 13.4378 23.9501V7.25C13.4394 5.90784 13.9733 4.62113 14.9224 3.67208C15.8714 2.72303 17.1581 2.18914 18.5003 2.1875ZM2.1878 24.9806L5.75461 22.4836L5.61342 22.7649C4.99487 24.0021 4.83825 25.4195 5.17174 26.7619C5.50523 28.1043 6.30693 29.2836 7.43255 30.0875L7.81055 30.3575L2.18555 34.295L2.1878 24.9806ZM6.72717 18.4438C6.278 17.5452 6.07421 16.544 6.13644 15.5414C6.19867 14.5388 6.52471 13.5704 7.08155 12.7344L8.01023 11.3416L12.3128 8.33056V16.5194L7.4618 19.9152L6.72717 18.4438ZM8.78761 29.6724L8.08617 29.1717C7.17813 28.5234 6.53144 27.5722 6.26259 26.4893C5.99373 25.4065 6.12039 24.2632 6.61973 23.2655L7.68848 21.128L12.3128 17.8931V27.2075L8.78761 29.6724ZM5.64661 12.9965C5.20856 13.93 4.98767 14.9507 5.00053 15.9818C5.01339 17.0129 5.25966 18.0277 5.72086 18.95L6.5303 20.5689L2.1878 23.6069V15.4181L5.64661 12.9965ZM21.8984 28.5513C20.8974 27.8666 19.713 27.5003 18.5003 27.5003C17.2876 27.5003 16.1032 27.8666 15.1022 28.5513L5.95092 34.8125H3.40955L13.197 27.9607C13.2713 27.9089 13.3319 27.84 13.3738 27.7598C13.4157 27.6796 13.4377 27.5905 13.4378 27.5C13.4378 26.1573 13.9712 24.8697 14.9206 23.9203C15.87 22.9709 17.1576 22.4375 18.5003 22.4375C19.843 22.4375 21.1306 22.9709 22.08 23.9203C23.0294 24.8697 23.5628 26.1573 23.5628 27.5C23.5628 27.5904 23.5847 27.6795 23.6265 27.7597C23.6683 27.8399 23.7289 27.9089 23.803 27.9607L33.591 34.8125H31.0497L21.8984 28.5513Z" fill="url(#paint0_linear_402_14701)"/>
<defs>
<linearGradient id="paint0_linear_402_14701" x1="18.4992" y1="2.1875" x2="18.4992" y2="34.8125" gradientUnits="userSpaceOnUse">
<stop stop-color="#CEB7A1"/>
<stop offset="1" stop-color="#CE202F"/>
</linearGradient>
</defs>
</svg>
