<svg width="37" height="37" viewBox="0 0 37 37" fill="none" xmlns="http://www.w3.org/2000/svg">
<path fill-rule="evenodd" clip-rule="evenodd" d="M5.56228 10.5245L2.98265 11.6968C2.91516 11.7293 2.84185 11.7481 2.76701 11.7519C2.69218 11.7557 2.61733 11.7446 2.54687 11.7191C2.47641 11.6936 2.41176 11.6543 2.3567 11.6034C2.30165 11.5526 2.25731 11.4913 2.22628 11.4231C2.19525 11.3549 2.17816 11.2812 2.17601 11.2063C2.17387 11.1314 2.18671 11.0568 2.21378 10.9869C2.24085 10.917 2.28161 10.8533 2.33367 10.7994C2.38572 10.7455 2.44802 10.7025 2.5169 10.673L5.90146 9.1346L18.2765 3.5096L21.0794 2.23554C21.1469 2.20299 21.2202 2.18425 21.295 2.18042C21.3699 2.17659 21.4447 2.18776 21.5152 2.21325C21.5856 2.23875 21.6503 2.27807 21.7053 2.3289C21.7604 2.37973 21.8047 2.44105 21.8358 2.50925C21.8668 2.57746 21.8839 2.65118 21.886 2.72608C21.8882 2.80098 21.8753 2.87555 21.8483 2.94542C21.8212 3.01529 21.7804 3.07905 21.7284 3.13295C21.6763 3.18685 21.614 3.2298 21.5452 3.25929L19.0623 4.38823V8.57604L31.0958 14.1628L31.1268 14.1774L34.4866 15.7372C34.6203 15.801 34.7235 15.915 34.7737 16.0544C34.8239 16.1938 34.817 16.3474 34.7546 16.4818C34.6923 16.6161 34.5794 16.7205 34.4405 16.7722C34.3016 16.8238 34.148 16.8186 34.013 16.7576L31.4373 15.5617V30.8724H34.2498C34.399 30.8724 34.542 30.9317 34.6475 31.0372C34.753 31.1427 34.8123 31.2857 34.8123 31.4349V34.2474C34.8123 34.3966 34.753 34.5397 34.6475 34.6452C34.542 34.7507 34.399 34.8099 34.2498 34.8099H2.74978C2.60059 34.8099 2.45752 34.7507 2.35203 34.6452C2.24654 34.5397 2.18728 34.3966 2.18728 34.2474V31.4349C2.18728 31.2857 2.24654 31.1427 2.35203 31.0372C2.45752 30.9317 2.60059 30.8724 2.74978 30.8724H5.56228V10.5245ZM30.3123 15.0392L19.0623 9.81635V30.8724H30.3123V15.0392ZM14.5623 30.8724V22.9974H10.0623V30.8724H14.5623ZM12.3123 11.1849C11.0703 11.1849 10.0623 12.1929 10.0623 13.4349C10.0623 14.6769 11.0703 15.6849 12.3123 15.6849C13.5543 15.6849 14.5623 14.6769 14.5623 13.4349C14.5623 12.1929 13.5543 11.1849 12.3123 11.1849ZM28.6248 28.6224H20.7498C20.6006 28.6224 20.4575 28.5632 20.352 28.4577C20.2465 28.3522 20.1873 28.2091 20.1873 28.0599V21.3099C20.1873 21.1607 20.2465 21.0177 20.352 20.9122C20.4575 20.8067 20.6006 20.7474 20.7498 20.7474H28.6248C28.774 20.7474 28.917 20.8067 29.0225 20.9122C29.128 21.0177 29.1873 21.1607 29.1873 21.3099V28.0599C29.1873 28.2091 29.128 28.3522 29.0225 28.4577C28.917 28.5632 28.774 28.6224 28.6248 28.6224ZM24.1248 21.8724H21.3123V27.4974H24.1248V21.8724ZM25.2498 27.4974H28.0623V21.8724H25.2498V27.4974Z" fill="url(#paint0_linear_402_14712)"/>
<defs>
<linearGradient id="paint0_linear_402_14712" x1="18.494" y1="2.17969" x2="18.494" y2="34.8099" gradientUnits="userSpaceOnUse">
<stop stop-color="#CEB7A1"/>
<stop offset="1" stop-color="#CE202F"/>
</linearGradient>
</defs>
</svg>
