<svg width="37" height="37" viewBox="0 0 37 37" fill="none" xmlns="http://www.w3.org/2000/svg">
<g clip-path="url(#clip0_402_14706)">
<path d="M20.6094 24.8281C20.6094 24.852 20.6101 24.8752 20.6122 24.8984H20.6094V24.8281ZM22.7188 24.8281V24.8984H22.7159C22.718 24.8752 22.7188 24.852 22.7188 24.8281ZM22.7188 4.64844V9.99219H35.4453C36.0278 9.99219 36.5 9.51997 36.5 8.9375V5.70312C36.5 5.12066 36.0278 4.64844 35.4453 4.64844H22.7188ZM6.89844 8.9375C6.89844 9.51997 7.37066 9.99219 7.95312 9.99219H20.6094V4.64844H7.95312C7.37066 4.64844 6.89844 5.12066 6.89844 5.70312V8.9375ZM16.3906 12.1016V17.4453H29.0469C29.6293 17.4453 30.1016 16.9731 30.1016 16.3906V13.1562C30.1016 12.5738 29.6293 12.1016 29.0469 12.1016H16.3906ZM0.5 16.3906C0.5 16.9731 0.972219 17.4453 1.55469 17.4453H14.2812V12.1016H1.55469C0.972219 12.1016 0.5 12.5738 0.5 13.1562V16.3906Z" fill="url(#paint0_linear_402_14706)"/>
<path d="M22.7188 19.5547V24.8281C22.7188 24.852 22.718 24.8752 22.7159 24.8984H35.4453C36.0278 24.8984 36.5 24.4262 36.5 23.8438V20.6094C36.5 20.0269 36.0278 19.5547 35.4453 19.5547H22.7188ZM20.6094 19.5547H7.95312C7.37066 19.5547 6.89844 20.0269 6.89844 20.6094V23.8438C6.89844 24.4262 7.37066 24.8984 7.95312 24.8984H20.6122C20.6101 24.8752 20.6094 24.852 20.6094 24.8281V19.5547ZM16.3906 27.0078V32.3516H29.0469C29.6293 32.3516 30.1016 31.8793 30.1016 31.2969V28.0625C30.1016 27.48 29.6293 27.0078 29.0469 27.0078H16.3906ZM0.5 31.2969C0.5 31.8793 0.972219 32.3516 1.55469 32.3516H14.2812V27.0078H1.55469C0.972219 27.0078 0.5 27.48 0.5 28.0625V31.2969Z" fill="url(#paint1_linear_402_14706)"/>
</g>
<defs>
<linearGradient id="paint0_linear_402_14706" x1="18.5" y1="4.64844" x2="18.5" y2="24.8984" gradientUnits="userSpaceOnUse">
<stop stop-color="#ED5A67"/>
<stop offset="1" stop-color="#CE202F"/>
</linearGradient>
<linearGradient id="paint1_linear_402_14706" x1="18.5" y1="19.5547" x2="18.5" y2="32.3516" gradientUnits="userSpaceOnUse">
<stop stop-color="#ED5A67"/>
<stop offset="1" stop-color="#CE202F"/>
</linearGradient>
<clipPath id="clip0_402_14706">
<rect width="36" height="36" fill="white" transform="translate(0.5 0.5)"/>
</clipPath>
</defs>
</svg>
