<svg width="343" height="343" viewBox="0 0 343 343" fill="none" xmlns="http://www.w3.org/2000/svg">
<mask id="mask0_402_2788" style="mask-type:alpha" maskUnits="userSpaceOnUse" x="0" y="0" width="343" height="343">
<path fill-rule="evenodd" clip-rule="evenodd" d="M172.949 0.614689C210.88 5.29527 233.138 48.2183 261.405 78.7783C292.307 112.187 341.12 134.667 342.942 184.394C344.779 234.537 302.685 268.867 269.498 299.673C241.346 325.807 208.332 347.496 172.949 342.197C140.524 337.341 123.828 297.761 97.9198 273.979C64.257 243.078 8.72108 234.256 1.04063 184.394C-6.84412 133.206 31.6266 89.1499 64.1022 54.4318C94.5164 21.9174 132.342 -4.39615 172.949 0.614689Z" fill="#E2F3F8"/>
</mask>
<g mask="url(#mask0_402_2788)">
<path fill-rule="evenodd" clip-rule="evenodd" d="M172.949 0.614689C210.88 5.29527 233.138 48.2183 261.405 78.7783C292.307 112.187 341.12 134.667 342.942 184.394C344.779 234.537 302.685 268.867 269.498 299.673C241.346 325.807 208.332 347.496 172.949 342.197C140.524 337.341 123.828 297.761 97.9198 273.979C64.257 243.078 8.72108 234.256 1.04063 184.394C-6.84412 133.206 31.6266 89.1499 64.1022 54.4318C94.5164 21.9174 132.342 -4.39615 172.949 0.614689Z" fill="#E2F3F8"/>
<path d="M254.655 226.613V337.365L133.42 353.142V222.67L204.927 169.352L254.655 226.613Z" fill="white"/>
<path d="M133.422 222.781V353.253L53.8418 334.795V238.912L125.888 229.592L133.422 222.781Z" fill="#E5E5E4"/>
<path d="M268.549 230.32L263.172 240.706L205.102 174.037L205.824 153.961L268.549 230.32Z" fill="#D63745"/>
<path d="M205.824 153.961L205.101 174.037L126.968 232.818L42.2371 244.353L37.002 232.109L121.412 218.453L205.824 153.961Z" fill="#CEB7A1"/>
<path d="M133.423 351.285V364.511L50.2937 342.205C47.9437 341.533 46.3223 339.385 46.3223 336.94C46.3223 333.389 49.6508 330.775 53.102 331.621L133.423 351.285Z" fill="#D3D3D3"/>
<path d="M263.525 341.644C263.525 344.405 261.505 346.752 258.775 347.161L133.422 364.512V351.285L257.267 336.104C260.593 335.699 263.525 338.295 263.525 341.644Z" fill="#EAEAE9"/>
<path d="M199.728 340.707L162.988 345.008V256.297H199.728V340.707Z" fill="#D63745"/>
<path d="M161.494 254.703H201.221V342.124L161.494 346.776V254.703Z" fill="#7B0314"/>
<path d="M199.728 339.293L162.988 343.594V257.719H199.728V339.293Z" fill="#CEB7A1"/>
<path d="M240.684 259.817V312.837L213.258 314.185V258.469L240.684 259.817Z" fill="#F8C214"/>
<path d="M213.266 258.469V314.185L240.69 312.837V259.817L213.266 258.469Z" fill="#F8C113"/>
<path d="M201.878 232.099C207.668 232.099 212.362 226.643 212.362 219.913C212.362 213.183 207.668 207.727 201.878 207.727C196.088 207.727 191.395 213.183 191.395 219.913C191.395 226.643 196.088 232.099 201.878 232.099Z" fill="#F8C214"/>
<path d="M210.754 213.466C209.491 212.842 208.101 212.501 206.654 212.501C200.866 212.501 196.169 217.964 196.169 224.689C196.169 227.058 196.749 229.286 197.785 231.158C194.04 229.299 191.4 224.973 191.4 219.922C191.4 213.182 196.083 207.734 201.871 207.734C205.631 207.733 208.922 210.018 210.754 213.466Z" fill="#E1A625"/>
<path d="M118.697 267.352V294.806L94.6328 293.202V268.955L118.697 267.352Z" fill="#F8C113"/>
<path d="M93.2148 267.617V294.53L120.115 296.304V265.828L93.2148 267.617ZM118.698 280.363H118.696H107.374V268.149C107.374 268.132 107.367 268.119 107.365 268.103L118.699 267.348V280.363H118.698ZM105.954 268.196V280.363H94.6338V268.951L105.954 268.196ZM94.6338 281.782H105.954V293.952L94.6338 293.198V281.782ZM107.364 294.045C107.365 294.029 107.374 294.014 107.374 293.996V281.781H118.696H118.698V294.8L107.364 294.045Z" fill="#D63745"/>
<path d="M84.0239 269.492V292.659L63.7188 291.306V270.845L84.0239 269.492Z" fill="#F8C113"/>
<path d="M62.5215 269.72V292.433L85.2225 293.929V268.211L62.5215 269.72ZM84.0239 280.477H74.4684V270.169C74.4684 270.156 74.4625 270.144 74.461 270.131L84.0239 269.494V280.477ZM73.2727 270.209V280.477H63.7187V270.846L73.2727 270.209ZM63.7187 281.674H73.2727V291.944L63.7187 291.308V281.674ZM74.461 292.023C74.4625 292.009 74.4699 291.997 74.4699 291.984V281.676H84.0239C84.0239 281.676 84.0239 281.676 84.0253 281.676V292.662L74.461 292.023Z" fill="#D63745"/>
<path d="M205.824 153.961L121.412 218.453L37 232.109L114.78 180.138L205.824 153.961Z" fill="#D63745"/>
<path opacity="0.2" d="M194.757 304.312C196.332 304.312 197.609 303.035 197.609 301.46C197.609 299.886 196.332 298.609 194.757 298.609C193.183 298.609 191.906 299.886 191.906 301.46C191.906 303.035 193.183 304.312 194.757 304.312Z" fill="black"/>
<path d="M126.555 167.508V188.11L100.562 205.673V163.734L126.555 167.508Z" fill="#E5E5E4"/>
<path d="M100.562 163.734V205.673L90.1758 207.292V166.6L100.562 163.734Z" fill="white"/>
<path d="M128.182 162.67V170.999L100.562 167.678V158.216L100.663 158.188L128.182 162.67Z" fill="#EFA61F"/>
<path d="M100.563 158.211V167.673L88.1191 170.994V162.126L100.563 158.211Z" fill="#F8C113"/>
<path d="M194.041 303.108C195.615 303.108 196.892 301.832 196.892 300.257C196.892 298.683 195.615 297.406 194.041 297.406C192.466 297.406 191.189 298.683 191.189 300.257C191.189 301.832 192.466 303.108 194.041 303.108Z" fill="#F8C113"/>
<path d="M202.417 342.124L199.729 342.293L199.782 254.703H202.417V342.124Z" fill="#640210"/>
<path d="M161.494 346.776L164.197 346.453L164.131 254.703H161.496L161.494 346.776Z" fill="#640210"/>
<path opacity="0.51" d="M240.69 260.305V262.745L227.666 275.769V273.342L240.69 260.305Z" fill="white"/>
<path opacity="0.51" d="M240.69 266.672V269.112L227.666 282.136V279.696L240.69 266.672Z" fill="white"/>
<path opacity="0.51" d="M226.234 289.156V291.568L213.266 304.551V302.111L226.234 289.156Z" fill="white"/>
<path opacity="0.51" d="M226.234 295.516V297.941L213.266 310.909V308.482L226.234 295.516Z" fill="white"/>
<path d="M211.84 256.977V315.672L242.103 314.182V258.466L211.84 256.977ZM240.685 285.618C240.684 285.618 240.682 285.616 240.679 285.616H227.678V259.174L240.684 259.813V285.618H240.685ZM226.267 259.106C226.267 259.12 226.26 259.132 226.26 259.145V285.618H213.259V258.468L226.267 259.106ZM213.259 287.035H226.26V313.508C226.26 313.52 226.265 313.53 226.267 313.542L213.259 314.182V287.035ZM227.678 313.474V287.035H240.679C240.681 287.035 240.684 287.035 240.685 287.035V312.836L227.678 313.474Z" fill="#D63745"/>
<path d="M220.573 37.4112V94.503C220.573 95.5288 220.495 96.5161 220.218 97.5034C218.482 103.979 208.928 128.34 172.287 143.619C135.648 128.34 126.093 103.979 124.355 97.5034C124.078 96.5161 124 95.5288 124 94.503V37.4112C153.02 35.3582 172.287 20 172.287 20C172.287 20 191.553 35.3582 220.573 37.4112Z" fill="#D50825"/>
<path d="M212.199 45.1103V92.3023C212.199 93.1507 212.134 93.9666 211.905 94.7825C210.47 100.134 202.572 120.271 172.285 132.902C141.999 120.271 134.1 100.136 132.665 94.7825C132.438 93.9666 132.371 93.1507 132.371 92.3023V45.1103C156.358 43.4135 172.285 30.7188 172.285 30.7188C172.285 30.7188 188.213 43.4135 212.199 45.1103Z" fill="#FFFAEF"/>
<path d="M208.541 48.4779V91.3438C208.541 92.1138 208.482 92.8558 208.275 93.5963C206.971 98.4575 199.797 116.748 172.288 128.221C144.779 116.748 137.604 98.4575 136.299 93.5963C136.092 92.8558 136.033 92.1138 136.033 91.3438V48.4779C157.821 46.9364 172.288 35.4062 172.288 35.4062C172.288 35.4062 186.753 46.9364 208.541 48.4779Z" fill="#F8C214"/>
<path d="M172.286 109.415C187.53 109.415 199.888 97.0574 199.888 81.8131C199.888 66.5689 187.53 54.2109 172.286 54.2109C157.042 54.2109 144.684 66.5689 144.684 81.8131C144.684 97.0574 157.042 109.415 172.286 109.415Z" fill="#D40825"/>
<path d="M189.737 70.1869C189.218 69.6681 188.531 69.3828 187.798 69.3828C187.065 69.3828 186.376 69.6681 185.859 70.1869L166.693 89.3539L158.715 81.3755C158.196 80.8567 157.509 80.5715 156.777 80.5715C156.044 80.5715 155.355 80.8567 154.838 81.3755C154.32 81.8928 154.035 82.5816 154.035 83.3147C154.035 84.0478 154.32 84.7366 154.838 85.2539L164.755 95.17C165.274 95.6888 165.961 95.974 166.694 95.974C167.428 95.974 168.115 95.6888 168.634 95.17L189.74 74.0652C190.256 73.5479 190.541 72.8591 190.541 72.126C190.538 71.3929 190.253 70.7042 189.737 70.1869Z" fill="#9E0D22"/>
<path d="M189.737 68.4603C189.218 67.9415 188.531 67.6562 187.798 67.6562C187.065 67.6562 186.376 67.9415 185.859 68.4603L166.693 87.6259L158.715 79.6475C158.196 79.1287 157.509 78.8435 156.777 78.8435C156.044 78.8435 155.355 79.1287 154.838 79.6475C154.32 80.1648 154.035 80.8536 154.035 81.5867C154.035 82.3198 154.32 83.0085 154.838 83.5259L164.755 93.442C165.274 93.9607 165.961 94.246 166.694 94.246C167.428 94.246 168.115 93.9607 168.634 93.442L189.74 72.3372C190.256 71.8199 190.541 71.1311 190.541 70.398C190.538 69.6649 190.253 68.9761 189.737 68.4603Z" fill="#FAFBFB"/>
</g>
</svg>
