<svg width="17" height="16" viewBox="0 0 17 16" fill="none" xmlns="http://www.w3.org/2000/svg">
<path fill-rule="evenodd" clip-rule="evenodd" d="M14.4923 11.3643C14.538 11.4101 14.5637 11.4722 14.5637 11.537C14.5636 11.6017 14.5379 11.6638 14.4921 11.7095C14.4463 11.7552 14.3842 11.7809 14.3194 11.7809C14.2547 11.7808 14.1926 11.7551 14.1469 11.7093L13.5274 11.0898V13.0506C13.5274 13.1153 13.5017 13.1774 13.4559 13.2231C13.4101 13.2689 13.3481 13.2946 13.2833 13.2946C13.2186 13.2946 13.1566 13.2689 13.1108 13.2231C13.065 13.1774 13.0393 13.1153 13.0393 13.0506V11.0898L12.4198 11.7092C12.3735 11.7524 12.3123 11.7759 12.2491 11.7748C12.1858 11.7737 12.1255 11.7481 12.0807 11.7034C12.036 11.6587 12.0104 11.5983 12.0093 11.535C12.0082 11.4718 12.0317 11.4106 12.0749 11.3643L13.1107 10.3282C13.1566 10.2824 13.2187 10.2567 13.2834 10.2567C13.3482 10.2567 13.4103 10.2824 13.4561 10.3282L14.4923 11.3643ZM15.8024 12.0814C15.8426 11.7506 15.8172 11.4152 15.7277 11.0942C15.6382 10.7732 15.4864 10.473 15.2808 10.2107C15.0753 9.94836 14.8201 9.72912 14.5298 9.56545C14.2396 9.40179 13.9199 9.2969 13.5891 9.25678C13.4859 9.24425 13.3821 9.2379 13.2783 9.23778C12.7897 9.23878 12.3117 9.38082 11.9019 9.64683C11.4921 9.91284 11.1678 10.2915 10.9679 10.7374C10.7681 11.1832 10.7012 11.6773 10.7753 12.1602C10.8494 12.6432 11.0614 13.0945 11.3858 13.4599C11.7101 13.8253 12.1331 14.0892 12.6038 14.2201C13.0746 14.351 13.5731 14.3431 14.0395 14.1976C14.5059 14.052 14.9204 13.7748 15.2331 13.3994C15.5458 13.024 15.7435 12.5663 15.8024 12.0813V12.0814ZM2.61107 13.085H10.5552C10.3089 12.5719 10.2123 11.9998 10.2766 11.4344C10.3409 10.8689 10.5634 10.333 10.9186 9.88835C11.2737 9.44366 11.7471 9.10819 12.2844 8.92049C12.8216 8.73279 13.401 8.70046 13.9558 8.82723V6.90403L12.3487 5.2967L9.01505 7.69984L10.0089 8.39652C10.0358 8.41461 10.0589 8.4379 10.0767 8.46502C10.0945 8.49213 10.1068 8.52253 10.1127 8.55444C10.1186 8.58634 10.1182 8.61911 10.1113 8.65082C10.1044 8.68253 10.0913 8.71255 10.0726 8.73913C10.054 8.7657 10.0303 8.78829 10.0028 8.80558C9.97535 8.82287 9.94472 8.83451 9.91271 8.83982C9.88069 8.84513 9.84794 8.84399 9.81637 8.83649C9.7848 8.82898 9.75504 8.81526 9.72884 8.79612L4.72013 5.28514L1.17947 8.27938V11.6531C1.17987 12.0326 1.33081 12.3965 1.59917 12.665C1.86752 12.9334 2.23139 13.0844 2.61095 13.0848L2.61107 13.085ZM2.61107 1.42556H12.5242C12.9037 1.42596 13.2676 1.57691 13.536 1.84529C13.8044 2.11368 13.9554 2.47757 13.9558 2.85713V6.2137L12.547 4.8051C12.5061 4.76408 12.4518 4.73898 12.394 4.73428C12.3362 4.72959 12.2786 4.74561 12.2316 4.77948L8.59187 7.40341L4.84632 4.77761C4.80214 4.74672 4.74898 4.73131 4.69512 4.73378C4.64126 4.73625 4.58974 4.75647 4.54857 4.79128L1.17947 7.64042V2.85713C1.17985 2.47757 1.33081 2.11366 1.5992 1.84526C1.86759 1.57687 2.2315 1.42592 2.61107 1.42553V1.42556ZM15.6649 9.90987C15.3449 9.50038 14.9241 9.18088 14.4438 8.98255V2.85713C14.4432 2.34819 14.2408 1.86025 13.8809 1.50037C13.521 1.14049 13.0331 0.938065 12.5242 0.9375H2.61107C2.10212 0.938049 1.61417 1.14047 1.25428 1.50035C0.894393 1.86023 0.691963 2.34818 0.691406 2.85713V11.6532C0.691979 12.1622 0.894401 12.6501 1.25427 13.0101C1.61414 13.37 2.10207 13.5725 2.61104 13.5731H10.8501C10.8669 13.596 10.8843 13.6189 10.9019 13.6413C11.147 13.9541 11.4512 14.2155 11.7972 14.4107C12.1433 14.6058 12.5243 14.7309 12.9187 14.7788C13.3131 14.8267 13.7131 14.7964 14.0958 14.6898C14.4785 14.5831 14.8364 14.4021 15.1491 14.1571C15.4619 13.912 15.7233 13.6078 15.9185 13.2618C16.1136 12.9158 16.2387 12.5347 16.2866 12.1403C16.3345 11.7459 16.3043 11.3459 16.1976 10.9632C16.0909 10.5805 15.9099 10.2226 15.6649 9.90987ZM8.38573 3.15964C8.60697 3.15963 8.82325 3.22523 9.00721 3.34814C9.19117 3.47105 9.33456 3.64576 9.41923 3.85016C9.5039 4.05456 9.52606 4.27948 9.4829 4.49647C9.43975 4.71347 9.33321 4.91279 9.17677 5.06924C9.02033 5.22569 8.82102 5.33223 8.60402 5.3754C8.38703 5.41857 8.16211 5.39642 7.95771 5.31176C7.7533 5.2271 7.57859 5.08373 7.45567 4.89977C7.33275 4.71582 7.26713 4.49954 7.26713 4.2783C7.26754 3.98175 7.38552 3.69747 7.59521 3.48778C7.8049 3.27809 8.08918 3.16011 8.38573 3.1597V3.15964ZM8.38573 5.88487C8.06797 5.88488 7.75734 5.79065 7.49312 5.61412C7.22891 5.43758 7.02298 5.18666 6.90137 4.89309C6.77977 4.59952 6.74794 4.27648 6.80993 3.96482C6.87192 3.65316 7.02494 3.36688 7.24963 3.14219C7.47432 2.91749 7.76059 2.76447 8.07225 2.70248C8.38391 2.64049 8.70695 2.6723 9.00052 2.7939C9.2941 2.9155 9.54502 3.12143 9.72156 3.38564C9.8981 3.64985 9.99233 3.96048 9.99233 4.27824C9.99184 4.70419 9.82241 5.11255 9.52122 5.41374C9.22004 5.71494 8.81168 5.88437 8.38573 5.88487Z" fill="#ED5A67"/>

</svg>
