<svg width="25" height="24" viewBox="0 0 25 24" fill="none" xmlns="http://www.w3.org/2000/svg">
<path d="M7.79993 7.5H7.04993C6.45319 7.5 5.88089 7.73705 5.45894 8.15901C5.03698 8.58097 4.79993 9.15326 4.79993 9.75V17.25C4.79993 17.8467 5.03698 18.419 5.45894 18.841C5.88089 19.2629 6.45319 19.5 7.04993 19.5H14.5499C15.1467 19.5 15.719 19.2629 16.1409 18.841C16.5629 18.419 16.7999 17.8467 16.7999 17.25V9.75C16.7999 9.15326 16.5629 8.58097 16.1409 8.15901C15.719 7.73705 15.1467 7.5 14.5499 7.5H13.7999M7.79993 11.25L10.7999 14.25M10.7999 14.25L13.7999 11.25M10.7999 14.25V1.5M16.7999 10.5H17.5499C18.1467 10.5 18.719 10.7371 19.1409 11.159C19.5629 11.581 19.7999 12.1533 19.7999 12.75V20.25C19.7999 20.8467 19.5629 21.419 19.1409 21.841C18.719 22.2629 18.1467 22.5 17.5499 22.5H10.0499C9.45319 22.5 8.88089 22.2629 8.45894 21.841C8.03698 21.419 7.79993 20.8467 7.79993 20.25V19.5" stroke="#484C52" stroke-width="1.5" stroke-linecap="round" stroke-linejoin="round"/>
</svg>
