<svg width="20" height="20" viewBox="0 0 20 20" fill="none" xmlns="http://www.w3.org/2000/svg">
<path d="M17.5003 3.33333H14.917C14.7236 2.39284 14.2118 1.54779 13.468 0.940598C12.7242 0.333408 11.7938 0.0012121 10.8337 0L9.16699 0C8.20682 0.0012121 7.27642 0.333408 6.53262 0.940598C5.78881 1.54779 5.27707 2.39284 5.08366 3.33333H2.50033C2.27931 3.33333 2.06735 3.42113 1.91107 3.57741C1.75479 3.73369 1.66699 3.94565 1.66699 4.16667C1.66699 4.38768 1.75479 4.59964 1.91107 4.75592C2.06735 4.9122 2.27931 5 2.50033 5H3.33366V15.8333C3.33498 16.938 3.77439 17.997 4.55551 18.7782C5.33662 19.5593 6.39566 19.9987 7.50033 20H12.5003C13.605 19.9987 14.664 19.5593 15.4451 18.7782C16.2263 17.997 16.6657 16.938 16.667 15.8333V5H17.5003C17.7213 5 17.9333 4.9122 18.0896 4.75592C18.2459 4.59964 18.3337 4.38768 18.3337 4.16667C18.3337 3.94565 18.2459 3.73369 18.0896 3.57741C17.9333 3.42113 17.7213 3.33333 17.5003 3.33333ZM9.16699 1.66667H10.8337C11.3506 1.6673 11.8546 1.82781 12.2767 2.1262C12.6987 2.42459 13.0182 2.84624 13.1912 3.33333H6.80949C6.98248 2.84624 7.30191 2.42459 7.72398 2.1262C8.14605 1.82781 8.6501 1.6673 9.16699 1.66667ZM15.0003 15.8333C15.0003 16.4964 14.7369 17.1323 14.2681 17.6011C13.7993 18.0699 13.1634 18.3333 12.5003 18.3333H7.50033C6.83728 18.3333 6.2014 18.0699 5.73256 17.6011C5.26372 17.1323 5.00033 16.4964 5.00033 15.8333V5H15.0003V15.8333Z" fill="#CEB7A1"/>
<path d="M8.33333 15.0026C8.55435 15.0026 8.76631 14.9148 8.92259 14.7585C9.07887 14.6022 9.16667 14.3903 9.16667 14.1693V9.16927C9.16667 8.94826 9.07887 8.7363 8.92259 8.58002C8.76631 8.42374 8.55435 8.33594 8.33333 8.33594C8.11232 8.33594 7.90036 8.42374 7.74408 8.58002C7.5878 8.7363 7.5 8.94826 7.5 9.16927V14.1693C7.5 14.3903 7.5878 14.6022 7.74408 14.7585C7.90036 14.9148 8.11232 15.0026 8.33333 15.0026ZM11.6667 15.0026C11.8877 15.0026 12.0996 14.9148 12.2559 14.7585C12.4122 14.6022 12.5 14.3903 12.5 14.1693V9.16927C12.5 8.94826 12.4122 8.7363 12.2559 8.58002C12.0996 8.42374 11.8877 8.33594 11.6667 8.33594C11.4457 8.33594 11.2337 8.42374 11.0774 8.58002C10.9211 8.7363 10.8333 8.94826 10.8333 9.16927V14.1693C10.8333 14.3903 10.9211 14.6022 11.0774 14.7585C11.2337 14.9148 11.4457 15.0026 11.6667 15.0026Z" fill="#CEB7A1"/>

</svg>
