<svg width="20" height="21" viewBox="0 0 20 21" fill="none" xmlns="http://www.w3.org/2000/svg">
<path d="M5.46191 20.8594C4.11839 20.8594 2.85886 20.3395 1.91517 19.3954C0.971477 18.4513 0.451172 17.1922 0.451172 15.8486C0.451172 14.5055 0.971097 13.246 1.91517 12.3023L12.2886 1.92888C13.7727 0.445498 16.0789 0.512009 17.6528 2.08585C19.2266 3.65968 19.2943 5.96552 17.8101 7.45004L8.06495 17.1952C7.15014 18.11 5.6603 18.1115 4.74397 17.1952C3.8284 16.2793 3.82878 14.7894 4.74397 13.8742L11.3453 7.27293C11.568 7.05021 11.9287 7.05021 12.1514 7.27293C12.3741 7.49565 12.3741 7.85633 12.1514 8.07904L5.55008 14.6803C5.07919 15.1512 5.07919 15.9178 5.55008 16.3891C6.02174 16.86 6.78795 16.8592 7.25884 16.3891L17.004 6.64393C18.0283 5.61928 17.961 4.0063 16.8467 2.89196C15.7323 1.77762 14.1193 1.71034 13.0947 2.73499L2.72128 13.1084C1.9927 13.837 1.59136 14.8103 1.59136 15.8486C1.59136 16.8874 1.9927 17.8607 2.72128 18.5893C3.44986 19.3179 4.4232 19.7192 5.46191 19.7192C6.50024 19.7192 7.47358 19.3179 8.20216 18.5893L18.5756 8.21586C18.7983 7.99315 19.159 7.99315 19.3817 8.21586C19.6044 8.43858 19.6044 8.79926 19.3817 9.02198L9.00827 19.3954C8.06457 20.3391 6.80505 20.8594 5.46191 20.8594Z" fill="#CEB7A1"/>

</svg>
