<svg width="32" height="32" viewBox="0 0 32 32" fill="none" xmlns="http://www.w3.org/2000/svg">
<rect width="32" height="32" rx="16" fill="#F44336" fill-opacity="0.2"/>
<g clip-path="url(#clip0_1884_3099)">
<path d="M7.99902 8H23.999V24H7.99902V8Z" fill="#ECEFF1"/>
<path d="M15.999 17.6781L23.999 23.9954V11.5234L15.999 17.6781Z" fill="#CFD8DC"/>
<path d="M24.6663 8H23.9997L15.9997 14.3173L7.99967 8H7.33301C6.22901 8 5.33301 8.896 5.33301 10V22C5.33301 23.104 6.22901 24 7.33301 24H7.99967V11.528L15.9997 17.6813L23.9997 11.5267V24H24.6663C25.7703 24 26.6663 23.104 26.6663 22V10C26.6663 8.896 25.7703 8 24.6663 8Z" fill="#F44336"/>
</g>
<defs>
<clipPath id="clip0_1884_3099">
<rect width="21.3333" height="21.3333" fill="white" transform="translate(5.33301 5.33594)"/>
</clipPath>
</defs>
</svg>
