<svg width="24" height="24" viewBox="0 0 24 24" fill="none" xmlns="http://www.w3.org/2000/svg">
<path d="M6.98044 1.98466C6.7206 1.99236 6.47393 2.10079 6.29257 2.28702L2.29383 6.28954C2.20069 6.38257 2.1268 6.49303 2.07639 6.61463C2.02598 6.73623 2.00003 6.86657 2.00003 6.99821C2.00003 7.12984 2.02598 7.26018 2.07639 7.38178C2.1268 7.50338 2.20069 7.61385 2.29383 7.70687L6.29257 11.7056C6.38327 11.8082 6.49405 11.891 6.61804 11.9491C6.74204 12.0072 6.87662 12.0392 7.01348 12.0432C7.15034 12.0472 7.28656 12.0231 7.41375 11.9724C7.54093 11.9217 7.65636 11.8455 7.75292 11.7484C7.84947 11.6513 7.9251 11.5355 7.97513 11.408C8.02516 11.2806 8.04852 11.1442 8.04378 11.0074C8.03904 10.8705 8.00629 10.7361 7.94756 10.6125C7.88884 10.4888 7.80537 10.3784 7.70233 10.2883L5.41194 7.99411H20.9987C21.2643 7.99411 21.5191 7.88859 21.7069 7.70076C21.8948 7.51292 22.0003 7.25817 22.0003 6.99254C22.0003 6.7269 21.8948 6.47215 21.7069 6.28432C21.5191 6.09648 21.2643 5.99096 20.9987 5.99096H5.42328L7.70233 3.70435C7.84677 3.56403 7.94556 3.38344 7.9858 3.18613C8.02605 2.98882 8.00589 2.78396 7.92794 2.59828C7.85 2.4126 7.7179 2.25473 7.54887 2.14527C7.37985 2.03581 7.18176 1.97984 6.98044 1.98466ZM16.9886 11.9853C16.7907 11.9873 16.5978 12.048 16.4343 12.1596C16.2708 12.2712 16.144 12.4288 16.07 12.6124C15.996 12.796 15.9781 12.9974 16.0185 13.1912C16.0589 13.385 16.1558 13.5624 16.297 13.7012L18.5912 15.9954H3.0006C2.73496 15.9954 2.48021 16.1009 2.29238 16.2887C2.10455 16.4766 1.99902 16.7313 1.99902 16.9969C1.99902 17.2626 2.10455 17.5173 2.29238 17.7052C2.48021 17.893 2.73496 17.9985 3.0006 17.9985H18.5874L16.297 20.2927C16.1891 20.3814 16.1009 20.4918 16.0382 20.6166C15.9755 20.7415 15.9396 20.8781 15.9328 21.0176C15.926 21.1572 15.9485 21.2966 15.9988 21.427C16.0491 21.5573 16.1262 21.6757 16.225 21.7745C16.3237 21.8733 16.4421 21.9503 16.5725 22.0006C16.7028 22.0509 16.8422 22.0734 16.9818 22.0667C17.1214 22.0599 17.2579 22.024 17.3828 21.9612C17.5076 21.8985 17.618 21.8104 17.7067 21.7025L21.7055 17.6999C21.8913 17.5124 21.9955 17.2591 21.9955 16.9951C21.9955 16.7311 21.8913 16.4777 21.7055 16.2902L17.7067 12.2877C17.6133 12.1918 17.5016 12.1157 17.3783 12.0638C17.255 12.0118 17.1225 11.9852 16.9886 11.9853Z" fill="#1F1F1F"/>
</svg>
