<svg width="20" height="19" viewBox="0 0 20 19" fill="none" xmlns="http://www.w3.org/2000/svg">
<path d="M18.426 11.6067H13.8967L14.6341 7.39345H18.426C19.058 7.39345 19.4794 6.97212 19.4794 6.34013C19.4794 5.70813 19.058 5.2868 18.426 5.2868H15.0554L15.7927 1.28417C15.8981 0.757508 15.5821 0.125514 14.9501 0.0201819H14.8447C14.3181 -0.0851505 13.6861 0.230847 13.5807 0.757509V0.862841L12.8434 5.2868H8.73546L9.47278 1.28417C9.57812 0.757508 9.26212 0.125514 8.63013 0.0201819H8.52479C7.99813 -0.0851505 7.36614 0.230847 7.2608 0.757509V0.862841L6.52348 5.2868H1.57286C0.940861 5.2868 0.519531 5.70813 0.519531 6.34013C0.519531 6.97212 0.940861 7.39345 1.57286 7.39345H6.10215L5.36482 11.6067H1.57286C0.940861 11.6067 0.519531 12.0281 0.519531 12.6601C0.519531 13.2921 0.940861 13.7134 1.57286 13.7134H4.94349L4.20617 17.716C4.10083 18.2427 4.41683 18.8747 5.04882 18.98H5.15416C5.68082 19.0853 6.31281 18.7693 6.41815 18.2427V18.1374L7.15547 13.7134H11.2634L10.5261 17.716C10.4208 18.2427 10.7368 18.8747 11.3688 18.98H11.4741C12.0008 19.0853 12.6328 18.7693 12.7381 18.2427V18.1374L13.5807 13.7134H18.426C19.058 13.7134 19.4794 13.2921 19.4794 12.6601C19.4794 12.0281 19.058 11.6067 18.426 11.6067ZM7.5768 11.6067L8.31413 7.39345H12.4221L11.6848 11.6067H7.5768Z" fill="#CEB7A1"/>
</svg>
