<svg width="16" height="17" viewBox="0 0 16 17" fill="none" xmlns="http://www.w3.org/2000/svg">
<g clip-path="url(#clip0_402_12458)">
<path d="M11.5555 16.5H2.66665C1.95431 16.5 1.28467 16.2226 0.781023 15.7189C0.277378 15.2152 0 14.5456 0 13.8333V4.94444C0 4.23213 0.277409 3.56249 0.781054 3.05884C1.2847 2.5552 1.95434 2.27779 2.66668 2.27779H6.22223C6.71317 2.27779 7.11112 2.67574 7.11112 3.16668C7.11112 3.65763 6.71317 4.05558 6.22223 4.05558H2.66665C2.4292 4.05558 2.20601 4.14805 2.03815 4.31591C1.87029 4.48377 1.77779 4.70699 1.77779 4.94444V13.8333C1.77779 14.0708 1.87026 14.294 2.03815 14.4619C2.20601 14.6297 2.4292 14.7222 2.66665 14.7222H11.5555C11.7929 14.7222 12.0161 14.6297 12.184 14.4618C12.3519 14.294 12.4444 14.0707 12.4444 13.8333V10.2778C12.4444 9.78683 12.8423 9.38891 13.3333 9.38891C13.8242 9.38891 14.2222 9.78686 14.2222 10.2778V13.8333C14.2222 14.5456 13.9448 15.2152 13.4411 15.7189C12.9375 16.2226 12.2678 16.5 11.5555 16.5ZM6.22223 11.1666C5.99472 11.1666 5.76724 11.0799 5.5937 10.9063C5.24658 10.5592 5.24658 9.99633 5.5937 9.64921L12.9651 2.27779H9.77777C9.28683 2.27779 8.88891 1.87984 8.88891 1.38889C8.88891 0.897949 9.28683 0.500001 9.77777 0.500001H15.1111C15.3432 0.499734 15.5662 0.590531 15.732 0.752879L15.7321 0.752941L15.7338 0.75468L15.7344 0.755177L15.7357 0.756543L15.7366 0.757444L15.7376 0.758437L15.7395 0.760362L15.7415 0.762288L15.7424 0.763281L15.7433 0.764182C15.744 0.764769 15.7446 0.765402 15.7452 0.766076L15.7469 0.767846L15.747 0.767908C15.9093 0.933807 16.0001 1.15675 15.9999 1.38886V6.7222C15.9999 7.21314 15.6019 7.61109 15.111 7.61109C14.62 7.61109 14.2221 7.21314 14.2221 6.7222V3.53488L6.85061 10.9063C6.67719 11.0799 6.44971 11.1666 6.22223 11.1666Z" fill="#CEB7A1"/>
</g>
<defs>
<clipPath id="clip0_402_12458">
<rect width="16" height="16" fill="white" transform="translate(0 0.5)"/>
</clipPath>
</defs>
</svg>
