<svg width="32" height="32" viewBox="0 0 32 32" fill="none" xmlns="http://www.w3.org/2000/svg">
<rect width="32" height="32" rx="16" fill="#018AFE" fill-opacity="0.1"/>
<path d="M25.4755 20.678L22.6786 17.8869C21.6797 16.8901 19.9816 17.2889 19.582 18.5847C19.2823 19.4818 18.2834 19.9802 17.3844 19.7808C15.3866 19.2824 12.6896 16.6907 12.1901 14.5975C11.8904 13.7003 12.4898 12.7035 13.3888 12.4045C14.6874 12.0058 15.0869 10.3112 14.088 9.31438L11.2911 6.52332C10.492 5.82556 9.29329 5.82556 8.59406 6.52332L6.69614 8.41725C4.79823 10.4109 6.89592 15.6939 11.5908 20.3789C16.2856 25.0639 21.5798 27.2569 23.5776 25.2633L25.4755 23.3693C26.1748 22.5719 26.1748 21.3757 25.4755 20.678Z" fill="#018AFE"/>
</svg>
