<svg width="20" height="20" viewBox="0 0 20 20" fill="none" xmlns="http://www.w3.org/2000/svg">
<path d="M15.8333 0H4.16667C3.062 0.00132321 2.00296 0.440735 1.22185 1.22185C0.440735 2.00296 0.00132321 3.062 0 4.16667L0 15.8333C0.00132321 16.938 0.440735 17.997 1.22185 18.7782C2.00296 19.5593 3.062 19.9987 4.16667 20H15.8333C16.938 19.9987 17.997 19.5593 18.7782 18.7782C19.5593 17.997 19.9987 16.938 20 15.8333V4.16667C19.9987 3.062 19.5593 2.00296 18.7782 1.22185C17.997 0.440735 16.938 0.00132321 15.8333 0ZM4.16667 1.66667H15.8333C16.4964 1.66667 17.1323 1.93006 17.6011 2.3989C18.0699 2.86774 18.3333 3.50363 18.3333 4.16667V15.8333C18.3319 16.2046 18.2464 16.5707 18.0833 16.9042L10.4475 9.26833C10.0606 8.88131 9.6012 8.57429 9.0956 8.36483C8.59001 8.15537 8.0481 8.04756 7.50083 8.04756C6.95357 8.04756 6.41166 8.15537 5.90606 8.36483C5.40047 8.57429 4.94109 8.88131 4.55417 9.26833L1.66667 12.155V4.16667C1.66667 3.50363 1.93006 2.86774 2.3989 2.3989C2.86774 1.93006 3.50363 1.66667 4.16667 1.66667ZM4.16667 18.3333C3.50363 18.3333 2.86774 18.0699 2.3989 17.6011C1.93006 17.1323 1.66667 16.4964 1.66667 15.8333V14.5117L5.73167 10.4467C5.96383 10.2144 6.2395 10.0301 6.54292 9.90432C6.84634 9.77858 7.17156 9.71387 7.5 9.71387C7.82844 9.71387 8.15366 9.77858 8.45708 9.90432C8.7605 10.0301 9.03617 10.2144 9.26833 10.4467L16.9042 18.0833C16.5707 18.2464 16.2046 18.3319 15.8333 18.3333H4.16667Z" fill="#CEB7A1"/>
<path d="M13.3327 8.7474C13.9095 8.7474 14.4735 8.57634 14.9531 8.25585C15.4327 7.93536 15.8066 7.47984 16.0273 6.94689C16.2481 6.41394 16.3058 5.8275 16.1933 5.26172C16.0808 4.69594 15.803 4.17624 15.3951 3.76834C14.9872 3.36043 14.4675 3.08265 13.9017 2.97011C13.3359 2.85757 12.7495 2.91533 12.2165 3.13608C11.6836 3.35684 11.228 3.73067 10.9076 4.21032C10.5871 4.68996 10.416 5.25387 10.416 5.83073C10.416 6.60428 10.7233 7.34614 11.2703 7.89313C11.8173 8.44011 12.5591 8.7474 13.3327 8.7474ZM13.3327 4.58073C13.5799 4.58073 13.8216 4.65404 14.0271 4.79139C14.2327 4.92875 14.3929 5.12397 14.4875 5.35238C14.5821 5.58078 14.6069 5.83212 14.5587 6.07459C14.5104 6.31707 14.3914 6.5398 14.2166 6.71461C14.0417 6.88943 13.819 7.00848 13.5765 7.05671C13.3341 7.10494 13.0827 7.08019 12.8543 6.98558C12.6259 6.89097 12.4307 6.73075 12.2933 6.52519C12.156 6.31963 12.0827 6.07796 12.0827 5.83073C12.0827 5.49921 12.2144 5.18127 12.4488 4.94685C12.6832 4.71243 13.0012 4.58073 13.3327 4.58073Z" fill="#CEB7A1"/>
</svg>
