<svg width="16" height="17" viewBox="0 0 16 17" fill="none" xmlns="http://www.w3.org/2000/svg">
<g clip-path="url(#clip0_402_17348)">
<path d="M14 4.36198H3.33333C2.76067 4.36198 2.21867 4.11398 1.84333 3.69598C2.21 3.28665 2.74267 3.02865 3.33333 3.02865H15.3333C15.702 3.02865 16 2.72998 16 2.36198C16 1.99398 15.702 1.69531 15.3333 1.69531H3.33333C1.49267 1.69531 0 3.18798 0 5.02865V11.6953C0 13.536 1.49267 15.0286 3.33333 15.0286H14C15.1047 15.0286 16 14.1333 16 13.0286V6.36198C16 5.25731 15.1047 4.36198 14 4.36198ZM14.6667 13.0286C14.6667 13.396 14.368 13.6953 14 13.6953H3.33333C2.23067 13.6953 1.33333 12.798 1.33333 11.6953V5.02731C1.90267 5.45331 2.60267 5.69531 3.33333 5.69531H14C14.368 5.69531 14.6667 5.99465 14.6667 6.36198V13.0286ZM13.3333 9.69531C13.3333 10.0633 13.0347 10.362 12.6667 10.362C12.2987 10.362 12 10.0633 12 9.69531C12 9.32731 12.2987 9.02865 12.6667 9.02865C13.0347 9.02865 13.3333 9.32731 13.3333 9.69531Z" fill="#777777"/>
</g>
<defs>
<clipPath id="clip0_402_17348">
<rect width="16" height="16" fill="white" transform="translate(0 0.359375)"/>
</clipPath>
</defs>
</svg>
