<svg width="21" height="21" viewBox="0 0 21 21" fill="none" xmlns="http://www.w3.org/2000/svg">
<path fill-rule="evenodd" clip-rule="evenodd" d="M6.55606 18.3011C6.52371 18.2852 6.49244 18.2671 6.46247 18.2471C4.64606 17.1826 3.33317 15.46 2.78821 13.4262C1.75653 9.57601 3.72934 5.53445 7.42102 3.99386C9.03673 3.3196 10.8347 3.1914 12.5284 3.6371C12.6924 3.68026 12.8549 3.72868 13.0157 3.7823C13.0987 3.80995 13.1795 3.7339 13.1568 3.64941L12.8208 2.39535C12.7049 1.96257 12.9666 1.51019 13.3994 1.39456C13.8322 1.27894 14.2841 1.5405 14.4 1.97304L15.2597 5.18163C15.3757 5.61441 15.1139 6.06648 14.6813 6.18238L11.4727 7.0421C11.0399 7.15808 10.5875 6.89628 10.4719 6.46351C10.3563 6.03081 10.6179 5.57882 11.0504 5.46292L11.5955 5.31687C11.709 5.28644 11.7015 5.12214 11.5858 5.10206C8.96778 4.64886 6.33196 5.87761 5.00067 8.18343C3.25595 11.2054 4.26798 15.0707 7.32802 16.8611C8.77641 17.7085 10.5256 17.927 12.1443 17.4932C15.1851 16.6784 17.1459 13.7788 16.8153 10.6883C16.7677 10.2431 17.096 9.83691 17.5411 9.78956C17.9863 9.74226 18.3921 10.0703 18.4397 10.5153C18.5288 11.3483 18.4867 12.1953 18.313 13.0149C17.6944 15.9335 15.4801 18.2917 12.5666 19.0724C10.534 19.6171 8.38544 19.3408 6.55606 18.3011Z" fill="white"/>
</svg>
