<svg width="18" height="24" viewBox="0 0 18 24" fill="none" xmlns="http://www.w3.org/2000/svg">
<path d="M1.51294 23.7602C1.95969 23.9957 2.45362 24.0596 2.93029 23.9437C3.40696 23.8278 3.84423 23.5374 4.18507 23.1105L8.99999 17.2052L13.8149 23.1105C14.0394 23.3914 14.3069 23.6145 14.6018 23.7671C14.8967 23.9197 15.2132 23.9986 15.5331 23.9993C15.8618 23.9982 16.1871 23.9169 16.4903 23.7602C16.9407 23.5354 17.3257 23.1484 17.595 22.6497C17.8643 22.1509 18.0054 21.5636 17.9998 20.9645V5.04463C17.9985 3.7072 17.5671 2.42501 16.8002 1.47931C16.0333 0.533603 14.9936 0.00160203 13.909 0L4.09098 0C3.00642 0.00160203 1.96666 0.533603 1.19976 1.47931C0.432857 2.42501 0.00144162 3.7072 0.000142481 5.04463V20.9645C-0.0051373 21.5641 0.13643 22.1517 0.406333 22.6505C0.676236 23.1493 1.06191 23.5361 1.51294 23.7602Z" fill="#D9D9D9"/>
</svg>
