<svg width="20" height="20" viewBox="0 0 20 20" fill="none" xmlns="http://www.w3.org/2000/svg">
<path d="M15.8333 20.0037H13.4492C12.9108 20.0037 12.4042 19.7429 12.0917 19.3046C11.7792 18.8671 11.6983 18.3013 11.8733 17.7938L13.3242 13.5887C13.3508 13.5121 13.325 13.4529 13.2992 13.4171C13.2733 13.3804 13.2258 13.3371 13.145 13.3371H10.7533C10.4892 13.3371 10.2408 13.2121 10.0833 13.0004C9.92667 12.7879 9.87917 12.5138 9.95583 12.2613L11.0975 8.51375C11.1108 8.46958 11.1033 8.42875 11.0767 8.39208C11.0217 8.31792 10.9033 8.32208 10.8525 8.39792L6.72083 14.5404C6.64083 14.6621 6.68333 14.7829 6.71583 14.8429C6.74833 14.9029 6.82667 15.0029 6.985 15.0029H9.28083C9.55583 15.0029 9.8125 15.1379 9.9675 15.3646C10.1225 15.5913 10.1575 15.8787 10.0583 16.1354L8.98333 18.9338C8.73833 19.5737 8.1125 20.0029 7.4275 20.0029H4.16667C1.86917 20.0029 0 18.1338 0 15.8363V8.10708C0 6.72042 0.686667 5.42875 1.83583 4.65208L7.67 0.71625C9.085 -0.23875 10.915 -0.23875 12.3308 0.71625L18.1642 4.65208C19.3133 5.42875 20 6.71958 20 8.10708V15.8371C20 18.1346 18.1308 20.0037 15.8333 20.0037ZM11.8783 11.6704H13.145C13.7442 11.6704 14.3092 11.9621 14.6567 12.4496C15.0042 12.9379 15.095 13.5671 14.9 14.1329L13.4492 18.3379H15.8342C17.2125 18.3379 18.3342 17.2162 18.3342 15.8379V8.10708C18.3342 7.27542 17.9225 6.49958 17.2325 6.03458L11.3983 2.09875C10.5483 1.52458 9.45167 1.52458 8.60167 2.09875L2.76833 6.03375C2.07833 6.49958 1.66667 7.27375 1.66667 8.10625V15.8363C1.66667 17.2146 2.78833 18.3363 4.16667 18.3363H7.4275L8.0675 16.6696H6.985C6.26 16.6696 5.59583 16.2738 5.25 15.6371C4.90417 15.0004 4.93583 14.2279 5.33083 13.6196L9.465 7.47458C9.79417 6.97292 10.3575 6.66958 10.9667 6.66958C11.5442 6.66958 12.0725 6.93542 12.4158 7.39958C12.76 7.86292 12.86 8.44542 12.6925 8.99792L11.8792 11.6696L11.8783 11.6704Z" fill="#CEB7A1"/>

</svg>
