<svg width="18" height="17" viewBox="0 0 18 17" fill="none" xmlns="http://www.w3.org/2000/svg">
<path d="M16.6609 8.11531C17.0817 7.70531 17.2309 7.10364 17.0492 6.54448C16.8675 5.98531 16.3934 5.58615 15.8125 5.50115L12.1625 4.97031C12.1291 4.9654 12.0974 4.95245 12.0701 4.93256C12.0428 4.91267 12.0208 4.88645 12.0059 4.85615L10.3742 1.54948C10.1142 1.02281 9.58754 0.695312 9.00004 0.695312C8.41254 0.695312 7.88587 1.02365 7.62587 1.54948L5.9942 4.85615C5.97941 4.88653 5.9574 4.91283 5.93009 4.93274C5.90277 4.95264 5.87099 4.96554 5.83754 4.97031L2.1892 5.50115C1.60754 5.58615 1.13254 5.98531 0.951703 6.54448C0.770869 7.10364 0.919203 7.70531 1.34004 8.11531L3.98004 10.6886C4.03004 10.737 4.0517 10.8061 4.04004 10.8736L3.4167 14.507C3.36715 14.7889 3.39809 15.0792 3.50599 15.3443C3.61389 15.6095 3.79436 15.8389 4.0267 16.0061C4.25746 16.1752 4.53116 16.2759 4.81648 16.2967C5.10181 16.3175 5.38722 16.2575 5.64004 16.1236L8.90337 14.4078C8.93338 14.3918 8.96687 14.3835 9.00087 14.3835C9.03487 14.3835 9.06835 14.3918 9.09837 14.4078L12.3617 16.1236C12.6145 16.2572 12.8997 16.3169 13.1848 16.2962C13.4699 16.2754 13.7435 16.1749 13.9742 16.0061C14.2066 15.839 14.3872 15.6096 14.4951 15.3444C14.603 15.0792 14.6339 14.7889 14.5842 14.507L13.9609 10.8736C13.9552 10.8403 13.9577 10.806 13.9682 10.7738C13.9786 10.7416 13.9967 10.7124 14.0209 10.6886L16.6609 8.11531Z" fill="#FFD500"/>
</svg>
