<svg width="24" height="25" viewBox="0 0 24 25" fill="none" xmlns="http://www.w3.org/2000/svg">
<rect y="0.5" width="24" height="24" rx="8" fill="#B6B9EB"/>
<g clip-path="url(#clip0_1469_3048)">
<path d="M13.0883 15.1275C13.0285 15.062 12.9529 15.0131 12.8748 14.9723C12.7047 14.8836 12.5187 14.8298 12.334 14.7812V16.2125C12.6338 16.1786 12.978 16.0698 13.1354 15.7899C13.2105 15.6562 13.2255 15.492 13.1949 15.3432C13.1783 15.2625 13.144 15.1885 13.0883 15.1275Z" fill="#7275AE"/>
<path d="M13.1338 15.7925L13.1353 15.7897C13.1348 15.7906 13.1343 15.7915 13.1338 15.7925ZM10.9277 12.8393C10.8762 12.9145 10.8439 13 10.8349 13.0909C10.826 13.182 10.831 13.2833 10.8656 13.369C10.8986 13.4507 10.9676 13.511 11.0388 13.5596C11.1187 13.614 11.2066 13.6564 11.2962 13.6924C11.3713 13.7226 11.4558 13.7516 11.5468 13.7795V12.4844C11.3168 12.5335 11.0654 12.6383 10.9277 12.8393ZM13.1413 15.7791C13.1394 15.7825 13.1374 15.786 13.1354 15.7897C13.1377 15.7854 13.1396 15.7822 13.1413 15.7791ZM13.1488 15.7657C13.1493 15.7648 13.1494 15.7648 13.1488 15.7657V15.7657Z" fill="#7275AE"/>
<path d="M12.8381 7.98134C14.0553 6.95888 14.8685 4.65541 14.368 4.55466C13.703 4.42074 12.2589 5.00795 11.5609 5.11141C10.5709 5.23095 9.4926 4.03785 8.88735 4.70288C8.39525 5.2436 9.24016 7.20999 10.562 8.06666C6.61826 10.005 1.075 19.7355 10.7455 20.4415C24.1263 21.4184 17.4261 9.87018 12.8381 7.98134ZM13.9873 15.6553C13.9461 16.0346 13.7451 16.3777 13.4446 16.6106C13.1273 16.8565 12.7293 16.9709 12.3338 17.0029V17.4221C12.3338 17.5342 12.2849 17.6427 12.2009 17.7169C12.0855 17.819 11.9159 17.8442 11.7759 17.7797C11.6376 17.7161 11.5468 17.5742 11.5468 17.4221V16.9639C11.4789 16.9512 11.4117 16.9357 11.3451 16.9175C10.9755 16.8159 10.6328 16.618 10.3824 16.3252C10.2576 16.1792 10.1559 16.0136 10.0856 15.8348C10.0672 15.7881 10.0509 15.7405 10.0365 15.6924C10.0235 15.6488 10.0101 15.6046 10.0055 15.5591C9.99781 15.4826 10.0127 15.4056 10.0483 15.3374C10.1213 15.1979 10.275 15.1136 10.432 15.1276C10.5865 15.1413 10.7219 15.2485 10.7706 15.3958C10.7856 15.4412 10.7957 15.4877 10.8126 15.5325C10.8292 15.5772 10.8494 15.6204 10.8731 15.6617C10.92 15.7432 10.9782 15.8176 11.0459 15.8829C11.1849 16.0169 11.3621 16.104 11.5468 16.1558V14.5985C11.1857 14.5051 10.8129 14.3843 10.5148 14.1525C10.3699 14.0398 10.2469 13.8997 10.1664 13.7339C10.0814 13.559 10.0462 13.3641 10.0448 13.1705C10.0433 12.9739 10.0806 12.7791 10.1626 12.6C10.2394 12.4323 10.35 12.2817 10.4856 12.1569C10.7755 11.8901 11.1606 11.7413 11.5468 11.6866V11.2515C11.5468 11.1394 11.5958 11.0309 11.6797 10.9567C11.7952 10.8546 11.9647 10.8294 12.1047 10.8939C12.243 10.9576 12.3339 11.0993 12.3339 11.2515V11.6843C12.3853 11.6907 12.4367 11.6985 12.4877 11.7077C12.867 11.7764 13.2379 11.933 13.5153 12.2064C13.6471 12.3365 13.7538 12.4898 13.8299 12.6586C13.851 12.7055 13.8695 12.7536 13.8855 12.8025C13.9004 12.8482 13.9154 12.8952 13.9225 12.9429C13.9338 13.0193 13.9224 13.0973 13.8897 13.1672C13.823 13.3098 13.6734 13.4006 13.516 13.3939C13.3613 13.3871 13.2212 13.2864 13.1658 13.1419C13.1493 13.0989 13.1411 13.0534 13.1242 13.0105C13.107 12.9671 13.0855 12.9256 13.0599 12.8865C13.0107 12.8105 12.9469 12.7453 12.874 12.6916C12.7163 12.5751 12.5249 12.5144 12.3338 12.4805V13.9707C12.561 14.0251 12.7884 14.0844 13.0061 14.1702C13.3351 14.3 13.6468 14.4989 13.8264 14.8126C13.7986 14.7637 13.7715 14.7161 13.8274 14.8142C13.8823 14.9106 13.8561 14.8647 13.8285 14.8164C13.9714 15.0682 14.0183 15.3692 13.9873 15.6553Z" fill="#7275AE"/>
<path d="M13.1299 15.8047L13.124 15.8152C13.1254 15.8128 13.1274 15.8092 13.1299 15.8047Z" fill="#7275AE"/>
</g>
<defs>
<clipPath id="clip0_1469_3048">
<rect width="16" height="16" fill="white" transform="translate(4 4.5)"/>
</clipPath>
</defs>
</svg>
