<svg width="24" height="24" viewBox="0 0 24 24" fill="none" xmlns="http://www.w3.org/2000/svg">
<rect width="24" height="24" rx="8" fill="#A3C083"/>
<g clip-path="url(#clip0_1469_3038)">
<path d="M16.2188 11.8125L12.4688 13.0625L16.2188 14.3125L19.9688 13.0625L16.2188 11.8125ZM4.03125 13.0625L7.78125 14.3125L11.5312 13.0625L7.78125 11.8125L4.03125 13.0625ZM12.1482 4.02405C12.052 3.99198 11.948 3.99198 11.8517 4.02405L8.25 5.22464L12 6.47464L15.75 5.22464L12.1482 4.02405ZM8.25 20L11.5312 18.9062V14.0507L8.25 15.1445V20ZM4.03125 18.5684C4.03124 18.6668 4.0622 18.7627 4.11973 18.8425C4.17725 18.9223 4.25844 18.982 4.35178 19.0131L7.3125 20V15.1445L4.03125 14.0507V18.5684ZM12.4688 18.9062L15.75 20V15.1445L12.4688 14.0507V18.9062ZM16.6875 20L19.6482 19.0131C19.7416 18.982 19.8227 18.9223 19.8803 18.8425C19.9378 18.7627 19.9687 18.6668 19.9688 18.5684V14.0507L16.6875 15.1445V20ZM8.25 11.1562L11.5312 12.25V7.30661L8.25 6.21283V11.1562ZM15.75 11.1562V6.21283L12.4688 7.30661V12.25L15.75 11.1562Z" fill="#6D8752"/>
</g>
<defs>
<clipPath id="clip0_1469_3038">
<rect width="16" height="16" fill="white" transform="translate(4 4)"/>
</clipPath>
</defs>
</svg>
