<svg width="24" height="25" viewBox="0 0 24 25" fill="none" xmlns="http://www.w3.org/2000/svg">
<rect y="0.5" width="24" height="24" rx="8" fill="#FFDC8A"/>
<g clip-path="url(#clip0_1469_3063)">
<path d="M14.5 5.5H13.414C13.208 4.918 12.652 4.5 12 4.5C11.348 4.5 10.792 4.918 10.585 5.5H9.5C9.224 5.5 9 5.724 9 6V8C9 8.276 9.224 8.5 9.5 8.5H14.5C14.776 8.5 15 8.276 15 8V6C15 5.724 14.776 5.5 14.5 5.5Z" fill="#CEA135"/>
<path d="M17 6.5H16V8C16 8.827 15.327 9.5 14.5 9.5H9.5C8.673 9.5 8 8.827 8 8V6.5H7C6.449 6.5 6 6.949 6 7.5V19.5C6 20.061 6.439 20.5 7 20.5H17C17.561 20.5 18 20.061 18 19.5V7.5C18 6.939 17.561 6.5 17 6.5ZM11.854 15.354L9.854 17.354C9.75991 17.4475 9.63265 17.5 9.5 17.5C9.36735 17.5 9.24009 17.4475 9.146 17.354L8.146 16.354C7.951 16.159 7.951 15.842 8.146 15.647C8.341 15.452 8.658 15.452 8.853 15.647L9.5 16.293L11.146 14.647C11.341 14.452 11.658 14.452 11.853 14.647C12.048 14.842 12.049 15.158 11.854 15.354ZM11.854 11.354L9.854 13.354C9.75991 13.4475 9.63265 13.5 9.5 13.5C9.36735 13.5 9.24009 13.4475 9.146 13.354L8.146 12.354C7.951 12.159 7.951 11.842 8.146 11.647C8.341 11.452 8.658 11.452 8.853 11.647L9.5 12.293L11.146 10.647C11.341 10.452 11.658 10.452 11.853 10.647C12.048 10.842 12.049 11.158 11.854 11.354ZM15.5 16.5H13.5C13.224 16.5 13 16.276 13 16C13 15.724 13.224 15.5 13.5 15.5H15.5C15.776 15.5 16 15.724 16 16C16 16.276 15.776 16.5 15.5 16.5ZM15.5 12.5H13.5C13.224 12.5 13 12.276 13 12C13 11.724 13.224 11.5 13.5 11.5H15.5C15.776 11.5 16 11.724 16 12C16 12.276 15.776 12.5 15.5 12.5Z" fill="#CEA135"/>
</g>
<defs>
<clipPath id="clip0_1469_3063">
<rect width="16" height="16" fill="white" transform="translate(4 4.5)"/>
</clipPath>
</defs>
</svg>
