<svg width="16" height="16" viewBox="0 0 16 16" fill="none" xmlns="http://www.w3.org/2000/svg">
    <path
        d="M16.0008 0.666667C16.0008 1.03533 15.7021 1.33333 15.3341 1.33333H6.66746C6.29946 1.33333 6.00079 1.03533 6.00079 0.666667C6.00079 0.298 6.29946 0 6.66746 0H15.3341C15.7021 0 16.0008 0.298 16.0008 0.666667ZM13.3341 3.33333H6.66746C6.29946 3.33333 6.00079 3.63133 6.00079 4C6.00079 4.36867 6.29946 4.66667 6.66746 4.66667H13.3341C13.7021 4.66667 14.0008 4.36867 14.0008 4C14.0008 3.63133 13.7021 3.33333 13.3341 3.33333ZM11.3341 6.66667H6.66746C6.29946 6.66667 6.00079 6.96467 6.00079 7.33333C6.00079 7.702 6.29946 8 6.66746 8H11.3341C11.7021 8 12.0008 7.702 12.0008 7.33333C12.0008 6.96467 11.7021 6.66667 11.3341 6.66667ZM9.33412 10H6.66746C6.29946 10 6.00079 10.298 6.00079 10.6667C6.00079 11.0353 6.29946 11.3333 6.66746 11.3333H9.33412C9.70212 11.3333 10.0008 11.0353 10.0008 10.6667C10.0008 10.298 9.70212 10 9.33412 10ZM5.13879 12.862L4.00079 14V0.666667C4.00079 0.298 3.70212 0 3.33412 0C2.96612 0 2.66746 0.298 2.66746 0.666667V14L1.52879 12.8613C1.26812 12.6007 0.846792 12.6007 0.586125 12.8613C0.325458 13.122 0.325458 13.5433 0.586125 13.804L2.39079 15.6087C2.65079 15.8687 2.99212 15.9987 3.33412 15.9987C3.67612 15.9987 4.01679 15.8687 4.27679 15.6087L6.08146 13.804C6.34212 13.5433 6.34212 13.122 6.08146 12.8613C5.82079 12.6007 5.39946 12.6013 5.13879 12.862Z"
        fill="#CEB7A1" />
</svg>
