<svg width="24" height="24" viewBox="0 0 24 24" fill="none" xmlns="http://www.w3.org/2000/svg">
<path d="M13.4062 16.2188C13.4062 16.2347 13.4067 16.2502 13.4081 16.2656H13.4062V16.2188ZM14.8125 16.2188V16.2656H14.8106C14.812 16.2502 14.8125 16.2347 14.8125 16.2188ZM14.8125 2.76562V6.32812H23.2969C23.6852 6.32812 24 6.01331 24 5.625V3.46875C24 3.08044 23.6852 2.76562 23.2969 2.76562H14.8125ZM4.26562 5.625C4.26562 6.01331 4.58044 6.32812 4.96875 6.32812H13.4062V2.76562H4.96875C4.58044 2.76562 4.26562 3.08044 4.26562 3.46875V5.625ZM10.5938 7.73438V11.2969H19.0312C19.4196 11.2969 19.7344 10.9821 19.7344 10.5938V8.4375C19.7344 8.04919 19.4196 7.73438 19.0312 7.73438H10.5938ZM0 10.5938C0 10.9821 0.314812 11.2969 0.703125 11.2969H9.1875V7.73438H0.703125C0.314812 7.73438 0 8.04919 0 8.4375V10.5938Z" fill="url(#paint0_linear_402_17226)"/>
<path d="M14.8125 12.7031V16.2188C14.8125 16.2347 14.812 16.2502 14.8106 16.2656H23.2969C23.6852 16.2656 24 15.9508 24 15.5625V13.4062C24 13.0179 23.6852 12.7031 23.2969 12.7031H14.8125ZM13.4062 12.7031H4.96875C4.58044 12.7031 4.26562 13.0179 4.26562 13.4062V15.5625C4.26562 15.9508 4.58044 16.2656 4.96875 16.2656H13.4081C13.4067 16.2502 13.4062 16.2347 13.4062 16.2188V12.7031ZM10.5938 17.6719V21.2344H19.0312C19.4196 21.2344 19.7344 20.9196 19.7344 20.5312V18.375C19.7344 17.9867 19.4196 17.6719 19.0312 17.6719H10.5938ZM0 20.5312C0 20.9196 0.314812 21.2344 0.703125 21.2344H9.1875V17.6719H0.703125C0.314812 17.6719 0 17.9867 0 18.375V20.5312Z" fill="url(#paint1_linear_402_17226)"/>
<defs>
<linearGradient id="paint0_linear_402_17226" x1="12" y1="2.76562" x2="12" y2="16.2656" gradientUnits="userSpaceOnUse">
<stop stop-color="#CEB7A1"/>
<stop offset="1" stop-color="#CE202F"/>
</linearGradient>
<linearGradient id="paint1_linear_402_17226" x1="12" y1="12.7031" x2="12" y2="21.2344" gradientUnits="userSpaceOnUse">
<stop stop-color="#CEB7A1"/>
<stop offset="1" stop-color="#CE202F"/>
</linearGradient>
</defs>
</svg>
