<svg width="32" height="32" viewBox="0 0 32 32" fill="none" xmlns="http://www.w3.org/2000/svg">
<g clip-path="url(#clip0_402_17758)">
<path fill-rule="evenodd" clip-rule="evenodd" d="M27.636 24.1412L16.6197 24.5877L4.36458 24.1412C2.33752 21.5993 1.125 18.3789 1.125 14.8749C1.125 6.65992 7.78492 0 16.0001 0C24.2153 0 30.875 6.65971 30.875 14.8749C30.875 18.3789 29.6631 21.5993 27.636 24.1412Z" fill="#00ABE0"/>
<path d="M10.0821 24.6253C10.117 24.7121 10.1845 24.7818 10.2702 24.8193C10.3559 24.8568 10.4529 24.8592 10.5403 24.8259C10.6278 24.7926 10.6986 24.7263 10.7377 24.6413C10.7767 24.5563 10.7808 24.4593 10.749 24.3713C10.2614 23.0974 9.87377 21.6506 9.61034 20.0814C9.35619 18.5667 9.21805 16.9346 9.21805 15.2322C9.21805 11.1764 10.0033 7.51242 11.2729 4.86739C12.5047 2.30145 14.1778 0.714353 16.0009 0.714353C17.824 0.714353 19.497 2.30145 20.7287 4.86718C21.9984 7.51242 22.7838 11.1764 22.7838 15.2322C22.7838 16.9348 22.6454 18.5667 22.3913 20.0816C22.1281 21.6504 21.7402 23.0976 21.2526 24.3715C21.2214 24.4594 21.2259 24.556 21.2651 24.6406C21.3042 24.7252 21.3749 24.7911 21.4621 24.8243C21.5492 24.8575 21.6458 24.8552 21.7313 24.818C21.8168 24.7808 21.8844 24.7116 21.9195 24.6253C22.4227 23.3109 22.8228 21.8176 23.0943 20.1989C23.3558 18.6407 23.4982 16.9692 23.4982 15.2319C23.4982 11.0726 22.6851 7.29897 21.3705 4.56051C20.0179 1.74275 18.1212 0 16.0007 0C13.8802 0 11.9839 1.74275 10.6314 4.56051C9.31697 7.29897 8.50391 11.0726 8.50391 15.2322C8.50391 16.969 8.64606 18.6405 8.90738 20.1987C9.17903 21.8176 9.57913 23.3109 10.0821 24.6253Z" fill="#E9EEFA"/>
<path d="M16.3569 0.716552C16.3569 0.621822 16.3193 0.530973 16.2523 0.46399C16.1853 0.397006 16.0945 0.359375 15.9998 0.359375C15.905 0.359375 15.8142 0.397006 15.7472 0.46399C15.6802 0.530973 15.6426 0.621822 15.6426 0.716552V24.8578C15.6426 24.9525 15.6802 25.0434 15.7472 25.1103C15.8142 25.1773 15.905 25.215 15.9998 25.215C16.0945 25.215 16.1853 25.1773 16.2523 25.1103C16.3193 25.0434 16.3569 24.9525 16.3569 24.8578V0.716552Z" fill="#E9EEFA"/>
<path d="M30.3377 15.23C30.5278 15.23 30.6819 15.0701 30.6819 14.8727C30.6819 14.6753 30.528 14.5156 30.3377 14.5156H1.66257C1.47253 14.5156 1.31836 14.6755 1.31836 14.8729C1.31836 15.0703 1.47232 15.23 1.66257 15.23H30.3377Z" fill="#E9EEFA"/>
<path d="M30.875 14.8722C30.875 16.9925 29.1729 18.8892 26.4214 20.2418C23.747 21.5562 20.062 22.3693 16.0001 22.3693C11.9382 22.3693 8.25293 21.5562 5.57858 20.2418C2.82705 18.8892 1.125 16.9925 1.125 14.872C1.125 12.7515 2.82705 10.855 5.57858 9.50245C8.25293 8.18806 11.9382 7.375 16.0003 7.375C20.0624 7.375 23.7475 8.18806 26.4216 9.50245C29.1733 10.855 30.8752 12.7517 30.8752 14.8722H30.875ZM26.1217 19.6C28.6275 18.3683 30.1775 16.6951 30.1775 14.8722C30.1775 13.0493 28.6275 11.376 26.1217 10.1443C23.5387 8.87457 19.9606 8.08914 16.0001 8.08914C12.0396 8.08914 8.46152 8.87457 5.8785 10.1443C3.37246 11.376 1.82269 13.0491 1.82269 14.8722C1.82269 16.6953 3.37246 18.3683 5.8785 19.6C8.46152 20.8697 12.0394 21.6551 16.0001 21.6551C19.9608 21.6551 23.5387 20.8697 26.1217 19.6Z" fill="#E9EEFA"/>
<path d="M30.6008 24.1406H1.39918C0.626434 24.1406 0 24.7671 0 25.5398V30.6002C0 31.3729 0.626434 31.9994 1.39918 31.9994H30.6008C31.3735 31.9994 32 31.3729 32 30.6002V25.5398C32 24.7671 31.3735 24.1406 30.6008 24.1406Z" fill="#2D5872"/>
<path fill-rule="evenodd" clip-rule="evenodd" d="M23.9883 24.1406H24.7026V31.9994H23.9883V24.1406Z" fill="#274354"/>
<path d="M28.8949 28.2921C28.8617 28.2589 28.8224 28.2326 28.779 28.2147C28.7357 28.1967 28.6892 28.1875 28.6423 28.1875C28.5954 28.1875 28.549 28.1967 28.5057 28.2147C28.4623 28.2326 28.4229 28.2589 28.3898 28.2921C28.3566 28.3253 28.3303 28.3647 28.3123 28.408C28.2944 28.4513 28.2852 28.4978 28.2852 28.5447C28.2852 28.5916 28.2944 28.638 28.3123 28.6814C28.3303 28.7247 28.3566 28.7641 28.3898 28.7972L30.0401 30.4474C30.1071 30.5144 30.1979 30.552 30.2926 30.5521C30.3873 30.5521 30.4782 30.5145 30.5452 30.4475C30.6122 30.3806 30.6498 30.2897 30.6498 30.195C30.6498 30.1003 30.6122 30.0095 30.5453 29.9425L28.8949 28.2921Z" fill="#D99053"/>
<path d="M3.90182 26.7833C3.86017 26.7 3.78757 26.6363 3.69956 26.6058C3.61156 26.5754 3.51512 26.5806 3.4309 26.6203C3.34667 26.6601 3.28134 26.7312 3.2489 26.8185C3.21645 26.9058 3.21946 27.0023 3.25727 27.0874L4.33123 29.3642L4.33039 29.3644C4.36008 29.4275 4.4076 29.4805 4.46707 29.5169C4.52654 29.5533 4.59536 29.5715 4.66504 29.5692C4.73472 29.5669 4.80221 29.5443 4.85919 29.5041C4.91617 29.464 4.96014 29.408 4.98568 29.3431L5.72746 27.7708L6.47893 29.3642L6.4783 29.3644C6.508 29.4275 6.55551 29.4805 6.61498 29.5169C6.67445 29.5533 6.74327 29.5715 6.81295 29.5692C6.88263 29.5669 6.95012 29.5443 7.0071 29.5041C7.06408 29.464 7.10805 29.408 7.13359 29.3431L8.19743 27.0874C8.23524 27.0023 8.23825 26.9058 8.2058 26.8185C8.17335 26.7312 8.10803 26.6601 8.0238 26.6203C7.93958 26.5806 7.84314 26.5754 7.75513 26.6058C7.66712 26.6363 7.59453 26.7 7.55288 26.7833L6.8012 28.3769L6.05964 26.8044C6.0341 26.7395 5.99013 26.6835 5.93315 26.6434C5.87617 26.6032 5.80867 26.5806 5.73899 26.5783C5.66931 26.576 5.60049 26.5942 5.54102 26.6306C5.48156 26.667 5.43404 26.72 5.40434 26.7831L5.40497 26.7833L4.6535 28.3769L3.90182 26.7833ZM9.88387 26.7833C9.84222 26.7 9.76963 26.6363 9.68162 26.6058C9.59361 26.5754 9.49717 26.5806 9.41295 26.6203C9.32872 26.6601 9.2634 26.7312 9.23095 26.8185C9.1985 26.9058 9.20151 27.0023 9.23932 27.0874L10.3133 29.3642L10.3126 29.3644C10.3423 29.4275 10.3899 29.4805 10.4493 29.5169C10.5088 29.5533 10.5776 29.5715 10.6473 29.5692C10.717 29.5669 10.7845 29.5443 10.8415 29.5041C10.8984 29.464 10.9424 29.408 10.9679 29.3431L11.7095 27.7708L12.4612 29.3642L12.4603 29.3644C12.49 29.4275 12.5376 29.4805 12.597 29.5169C12.6565 29.5533 12.7253 29.5715 12.795 29.5692C12.8647 29.5669 12.9322 29.5443 12.9892 29.5041C13.0461 29.464 13.0901 29.408 13.1156 29.3431L14.1797 27.0874C14.2175 27.0023 14.2205 26.9058 14.1881 26.8185C14.1556 26.7312 14.0903 26.6601 14.0061 26.6203C13.9218 26.5806 13.8254 26.5754 13.7374 26.6058C13.6494 26.6363 13.5768 26.7 13.5351 26.7833L12.7835 28.3769L12.0417 26.8044C12.0161 26.7395 11.9722 26.6835 11.9152 26.6434C11.8582 26.6032 11.7907 26.5806 11.721 26.5783C11.6514 26.576 11.5825 26.5942 11.5231 26.6306C11.4636 26.667 11.4161 26.72 11.3864 26.7831L11.3872 26.7833L10.6356 28.3769L9.88387 26.7833ZM15.8659 26.7833C15.8237 26.7009 15.7512 26.6382 15.6636 26.6084C15.576 26.5786 15.4802 26.584 15.3965 26.6235C15.3129 26.663 15.2478 26.7335 15.2152 26.82C15.1825 26.9066 15.1848 27.0025 15.2216 27.0874L16.2955 29.3642L16.2947 29.3644C16.3244 29.4275 16.3719 29.4805 16.4314 29.5169C16.4908 29.5533 16.5597 29.5715 16.6293 29.5692C16.699 29.5669 16.7665 29.5443 16.8235 29.5041C16.8805 29.464 16.9245 29.408 16.95 29.3431L17.6916 27.7708L18.4432 29.3642L18.4426 29.3644C18.4723 29.4274 18.5198 29.4804 18.5793 29.5167C18.6387 29.5531 18.7075 29.5712 18.7771 29.5689C18.8468 29.5667 18.9142 29.5441 18.9712 29.504C19.0282 29.4638 19.0721 29.4079 19.0977 29.3431L20.1617 27.0874C20.1996 27.0023 20.2026 26.9058 20.1701 26.8185C20.1377 26.7312 20.0723 26.6601 19.9881 26.6203C19.9039 26.5806 19.8075 26.5754 19.7194 26.6058C19.6314 26.6363 19.5588 26.7 19.5172 26.7833L18.7655 28.3769L18.024 26.8044C17.9984 26.7395 17.9544 26.6835 17.8975 26.6434C17.8405 26.6032 17.773 26.5806 17.7033 26.5783C17.6336 26.576 17.5648 26.5942 17.5053 26.6306C17.4459 26.667 17.3984 26.72 17.3687 26.7831L17.3693 26.7833L16.6178 28.3769L15.8659 26.7833ZM20.6264 28.8549C20.5316 28.8549 20.4408 28.8925 20.3738 28.9595C20.3068 29.0265 20.2692 29.1173 20.2692 29.212C20.2692 29.3068 20.3068 29.3976 20.3738 29.4646C20.4408 29.5316 20.5316 29.5692 20.6264 29.5692H20.7668C20.8616 29.5692 20.9524 29.5316 21.0194 29.4646C21.0864 29.3976 21.124 29.3068 21.124 29.212C21.124 29.1173 21.0864 29.0265 21.0194 28.9595C20.9524 28.8925 20.8616 28.8549 20.7668 28.8549H20.6264Z" fill="#E9EEFA"/>
<path d="M27.7132 29.2663C28.6303 29.2663 29.3737 28.5229 29.3737 27.6058C29.3737 26.6887 28.6303 25.9453 27.7132 25.9453C26.7962 25.9453 26.0527 26.6887 26.0527 27.6058C26.0527 28.5229 26.7962 29.2663 27.7132 29.2663Z" fill="#31BBE6"/>
</g>
<defs>
<clipPath id="clip0_402_17758">
<rect width="32" height="32" fill="white"/>
</clipPath>
</defs>
</svg>
