<svg width="32" height="32" viewBox="0 0 32 32" fill="none" xmlns="http://www.w3.org/2000/svg">
<g clip-path="url(#clip0_402_17789)">
<path d="M16 32C24.8366 32 32 24.8366 32 16C32 7.16344 24.8366 0 16 0C7.16344 0 0 7.16344 0 16C0 24.8366 7.16344 32 16 32Z" fill="#29A71A"/>
<path d="M23.0544 8.94878C21.3897 7.2675 19.1791 6.23643 16.8211 6.04154C14.4632 5.84666 12.1132 6.50079 10.1951 7.88594C8.27703 9.2711 6.91703 11.2961 6.36047 13.5957C5.80391 15.8952 6.08741 18.318 7.15984 20.427L6.10712 25.5379C6.09619 25.5887 6.09588 25.6413 6.10621 25.6923C6.11653 25.7433 6.13727 25.7916 6.16712 25.8342C6.21084 25.8989 6.27326 25.9487 6.34604 25.977C6.41881 26.0052 6.49847 26.0106 6.57439 25.9924L11.5835 24.8051C13.6865 25.8504 16.0922 26.1157 18.3724 25.5538C20.6527 24.9918 22.6596 23.6391 24.0361 21.7363C25.4126 19.8336 26.0694 17.5042 25.8897 15.1626C25.7099 12.821 24.7052 10.6191 23.0544 8.94878ZM21.4926 21.4142C20.3408 22.5628 18.8576 23.3209 17.2521 23.5819C15.6466 23.8428 13.9997 23.5934 12.5435 22.8688L11.8453 22.5233L8.77439 23.2506L8.78348 23.2124L9.41985 20.1215L9.07803 19.447C8.33395 17.9856 8.07147 16.3263 8.32818 14.7067C8.58489 13.087 9.34763 11.5902 10.5071 10.4306C11.964 8.97413 13.9398 8.15593 15.9998 8.15593C18.0599 8.15593 20.0357 8.97413 21.4926 10.4306C21.505 10.4448 21.5183 10.4582 21.5326 10.4706C22.9714 11.9308 23.7747 13.9007 23.7672 15.9507C23.7597 18.0007 22.9421 19.9646 21.4926 21.4142Z" fill="white"/>
<path d="M21.2196 19.1462C20.8432 19.7389 20.2486 20.4644 19.5014 20.6444C18.1923 20.9608 16.1832 20.6553 13.6832 18.3244L13.6523 18.2971C11.4541 16.2589 10.8832 14.5626 11.0214 13.2171C11.0977 12.4535 11.7341 11.7626 12.2705 11.3117C12.3553 11.2393 12.4558 11.1878 12.5641 11.1612C12.6724 11.1346 12.7853 11.1338 12.894 11.1587C13.0027 11.1836 13.104 11.2336 13.1899 11.3047C13.2758 11.3758 13.3438 11.4659 13.3886 11.568L14.1977 13.3862C14.2503 13.5041 14.2698 13.6341 14.2541 13.7622C14.2384 13.8903 14.1881 14.0118 14.1086 14.1135L13.6996 14.6444C13.6118 14.754 13.5588 14.8874 13.5475 15.0274C13.5361 15.1674 13.5669 15.3075 13.6359 15.4298C13.865 15.8317 14.4141 16.4226 15.0232 16.9698C15.7068 17.588 16.465 18.1535 16.945 18.3462C17.0734 18.3987 17.2147 18.4115 17.3504 18.383C17.4862 18.3545 17.6103 18.2859 17.7068 18.1862L18.1814 17.708C18.2729 17.6177 18.3868 17.5533 18.5114 17.5214C18.6359 17.4895 18.7667 17.4911 18.8905 17.5262L20.8123 18.0717C20.9183 18.1042 21.0155 18.1605 21.0964 18.2363C21.1773 18.3122 21.2398 18.4055 21.2791 18.5092C21.3184 18.6129 21.3334 18.7242 21.3231 18.8346C21.3128 18.945 21.2774 19.0516 21.2196 19.1462Z" fill="white"/>
</g>
<defs>
<clipPath id="clip0_402_17789">
<rect width="32" height="32" fill="white"/>
</clipPath>
</defs>
</svg>
