<svg width="251" height="251" viewBox="0 0 251 251" fill="none" xmlns="http://www.w3.org/2000/svg">
<path d="M35.6882 126.307C36.4342 126.307 36.4352 125.148 35.6882 125.148C34.9422 125.147 34.9402 126.307 35.6882 126.307Z" fill="#777777"/>
<path d="M127.457 42.7138V169.705C127.457 178.171 120.595 185.036 112.13 185.036H48.2705C39.8045 185.036 32.9395 178.171 32.9395 169.705V42.7138C32.9395 34.2478 39.8045 27.3828 48.2705 27.3828H112.13C120.595 27.3828 127.457 34.2488 127.457 42.7138Z" fill="#777777"/>
<path d="M112.13 185.426H48.2697C39.6037 185.426 32.5527 178.375 32.5527 169.709V42.717C32.5527 34.05 39.6037 27 48.2697 27H112.13C120.795 27 127.844 34.051 127.844 42.717V169.708C127.843 178.375 120.794 185.426 112.13 185.426ZM48.2697 27.773C40.0297 27.773 33.3257 34.477 33.3257 42.717V169.708C33.3257 177.948 40.0297 184.652 48.2697 184.652H112.13C120.368 184.652 127.071 177.948 127.071 169.708V42.717C127.071 34.477 120.369 27.773 112.13 27.773H48.2697Z" fill="#777777"/>
<path d="M130.218 42.7138V169.705C130.218 178.171 123.356 185.036 114.891 185.036H51.0312C42.5652 185.036 35.7002 178.171 35.7002 169.705V42.7138C35.7002 34.2478 42.5652 27.3828 51.0312 27.3828H114.891C123.356 27.3828 130.218 34.2488 130.218 42.7138Z" fill="white"/>
<path d="M114.89 185.426H51.0315C42.3655 185.426 35.3145 178.375 35.3145 169.709V42.717C35.3145 34.05 42.3655 27 51.0315 27H114.89C123.555 27 130.604 34.051 130.604 42.717V169.708C130.604 178.375 123.555 185.426 114.89 185.426ZM51.0315 27.773C42.7915 27.773 36.0875 34.477 36.0875 42.717V169.708C36.0875 177.948 42.7915 184.652 51.0315 184.652H114.89C123.128 184.652 129.831 177.948 129.831 169.708V42.717C129.831 34.477 123.128 27.773 114.89 27.773H51.0315Z" fill="#777777"/>
<path d="M97.5092 27.3828L96.7122 31.0278C96.3732 32.5798 94.9992 33.6858 93.4102 33.6858H72.5072C70.9192 33.6858 69.5452 32.5798 69.2052 31.0278L68.4082 27.3828H97.5092Z" fill="#777777"/>
<path d="M93.4104 34.076H72.5074C70.7514 34.076 69.2034 32.83 68.8284 31.114L68.0314 27.469C68.0064 27.355 68.0344 27.235 68.1074 27.144C68.1814 27.053 68.2914 27 68.4084 27H97.5094C97.6264 27 97.7374 27.053 97.8104 27.144C97.8834 27.235 97.9124 27.355 97.8864 27.469L97.0894 31.114C96.7144 32.83 95.1674 34.076 93.4104 34.076ZM68.8884 27.773L69.5824 30.949C69.8814 32.313 71.1104 33.303 72.5064 33.303H93.4104C94.8064 33.303 96.0364 32.313 96.3344 30.949L97.0284 27.773H68.8884Z" fill="#777777"/>
<path d="M114.311 104.186H54.3255C54.1115 104.186 53.9395 104.013 53.9395 103.8C53.9395 103.587 54.1125 103.414 54.3255 103.414H114.312C114.526 103.414 114.698 103.587 114.698 103.8C114.698 104.013 114.525 104.186 114.311 104.186Z" fill="#777777"/>
<path d="M114.311 111.67H54.3255C54.1115 111.67 53.9395 111.497 53.9395 111.284C53.9395 111.071 54.1125 110.898 54.3255 110.898H114.312C114.526 110.898 114.698 111.071 114.698 111.284C114.698 111.497 114.525 111.67 114.311 111.67Z" fill="#777777"/>
<path d="M109.838 119.155H58.7981C58.5841 119.155 58.4121 118.982 58.4121 118.769C58.4121 118.556 58.5851 118.383 58.7981 118.383H109.838C110.052 118.383 110.224 118.556 110.224 118.769C110.224 118.982 110.051 119.155 109.838 119.155Z" fill="#777777"/>
<path d="M95.8453 126.639H72.7913C72.5773 126.639 72.4053 126.466 72.4053 126.253C72.4053 126.04 72.5783 125.867 72.7913 125.867H95.8453C96.0593 125.867 96.2313 126.04 96.2313 126.253C96.2313 126.466 96.0593 126.639 95.8453 126.639Z" fill="#777777"/>
<path d="M81.334 95.0801C91.966 95.0801 100.585 86.4612 100.585 75.8291C100.585 65.1971 91.966 56.5781 81.334 56.5781C70.702 56.5781 62.083 65.1971 62.083 75.8291C62.083 86.4612 70.702 95.0801 81.334 95.0801Z" fill="#777777"/>
<path d="M84.3177 93.1901C73.4897 93.1901 64.6797 84.3811 64.6797 73.5521C64.6797 62.7231 73.4887 53.9141 84.3177 53.9141C95.1467 53.9141 103.956 62.7231 103.956 73.5521C103.956 84.3811 95.1457 93.1901 84.3177 93.1901ZM84.3177 54.6881C73.9157 54.6881 65.4527 63.1511 65.4527 73.5531C65.4527 83.9551 73.9157 92.4181 84.3177 92.4181C94.7197 92.4181 103.183 83.9551 103.183 73.5531C103.183 63.1511 94.7197 54.6881 84.3177 54.6881Z" fill="#777777"/>
<path d="M80.8064 79.139C80.5094 79.139 80.2124 79.026 79.9864 78.799L77.1864 75.999C76.7334 75.546 76.7334 74.812 77.1864 74.359C77.6394 73.906 78.3734 73.906 78.8254 74.359L80.8114 76.345L87.7334 69.514C88.1894 69.064 88.9234 69.069 89.3734 69.525C89.8224 69.981 89.8184 70.715 89.3624 71.165L81.6204 78.805C81.3954 79.028 81.1014 79.139 80.8064 79.139Z" fill="white"/>
<path d="M109.839 139.268V151.113C109.839 153.362 108.015 155.186 105.766 155.186H67.6023C65.3533 155.186 63.5293 153.362 63.5293 151.113V139.268C63.5293 137.019 65.3533 135.195 67.6023 135.195H105.765C108.015 135.194 109.839 137.018 109.839 139.268Z" fill="url(#paint0_linear_402_15535)"/>
<path d="M105.766 155.578H67.6026C65.1436 155.578 63.1426 153.577 63.1426 151.118V139.272C63.1426 136.813 65.1436 134.812 67.6026 134.812H105.766C108.225 134.812 110.226 136.813 110.226 139.272V151.118C110.226 153.578 108.225 155.578 105.766 155.578ZM67.6026 135.586C65.5696 135.586 63.9156 137.24 63.9156 139.273V151.119C63.9156 153.152 65.5696 154.806 67.6026 154.806H105.766C107.799 154.806 109.453 153.152 109.453 151.119V139.273C109.453 137.24 107.799 135.586 105.766 135.586H67.6026Z" fill="#777777"/>
<path d="M57.4667 146.399C55.2627 155.13 45.5057 163.185 40.1867 164.101C40.1397 164.109 40.0927 164.109 40.0447 164.101C34.7257 163.184 24.9687 155.13 22.7647 146.399C20.8527 138.827 21.5887 129.98 21.8247 127.705C21.8547 127.413 22.1097 127.216 22.3677 127.285C31.6407 129.767 38.3727 123.898 39.8227 122.489C39.9897 122.326 40.2387 122.326 40.4067 122.489C41.8567 123.898 48.5887 129.766 57.8587 127.285C58.1167 127.216 58.3717 127.413 58.4017 127.705C58.6407 129.979 59.3787 138.826 57.4667 146.399Z" fill="white"/>
<path d="M40.1156 164.492C40.0696 164.492 40.0246 164.488 39.9796 164.48C34.6126 163.555 24.6426 155.414 22.3896 146.491C20.4796 138.923 21.1806 130.166 21.4406 127.662C21.4676 127.4 21.6026 127.168 21.8116 127.024C22.0046 126.891 22.2436 126.849 22.4686 126.909C31.6116 129.356 38.3046 123.424 39.5546 122.21C39.8756 121.899 40.3576 121.899 40.6776 122.21C41.9276 123.424 48.6216 129.356 57.7606 126.909C57.9866 126.849 58.2246 126.891 58.4176 127.024C58.6266 127.168 58.7616 127.4 58.7886 127.662C59.0496 130.165 59.7536 138.921 57.8416 146.491C55.5886 155.414 45.6186 163.555 40.2526 164.479C40.2066 164.489 40.1606 164.492 40.1156 164.492ZM22.2686 127.657C22.2426 127.668 22.2146 127.69 22.2096 127.743C21.9526 130.215 21.2596 138.858 23.1396 146.303C25.3226 154.948 34.9396 162.828 40.1106 163.719C45.2926 162.828 54.9096 154.948 57.0916 146.303C58.9716 138.857 58.2766 130.215 58.0186 127.743C58.0126 127.689 57.9866 127.667 57.9776 127.662C56.3716 128.09 54.8366 128.272 53.3906 128.272C46.2316 128.273 41.2206 123.817 40.1376 122.765C40.1206 122.748 40.1096 122.748 40.0926 122.765C38.7906 124.03 31.8136 130.211 22.2686 127.657Z" fill="#777777"/>
<path d="M40.2101 161.373C40.1471 161.388 40.0841 161.388 40.0211 161.373C35.3351 160.25 26.9341 152.962 25.0951 145.677C23.7801 140.47 23.8151 134.502 24.0111 130.872C24.0261 130.589 24.2541 130.384 24.5091 130.415C25.3041 130.514 26.0991 130.564 26.8901 130.564C32.8571 130.564 37.4251 127.773 39.8601 125.856C40.0141 125.735 40.2181 125.735 40.3711 125.856C42.8061 127.773 47.3741 130.565 53.3391 130.565C54.1301 130.565 54.9251 130.515 55.7201 130.416C55.9751 130.384 56.2031 130.59 56.2181 130.873C56.4151 134.502 56.4511 140.471 55.1361 145.678C53.2971 152.963 44.8971 160.25 40.2101 161.373Z" fill="url(#paint1_linear_402_15535)"/>
<path d="M40.1147 151.109C43.9001 151.109 46.9687 147.715 46.9687 143.527C46.9687 139.34 43.9001 135.945 40.1147 135.945C36.3294 135.945 33.2607 139.34 33.2607 143.527C33.2607 147.715 36.3294 151.109 40.1147 151.109Z" fill="white"/>
<path d="M37.3115 144.442L38.2655 145.498C38.4395 145.69 38.7205 145.69 38.8935 145.498L42.9175 141.047" fill="white"/>
<path d="M38.5797 146.798C38.1357 146.798 37.7077 146.606 37.4057 146.272L36.4517 145.216C36.0227 144.741 36.0587 144.008 36.5347 143.578C37.0097 143.149 37.7417 143.185 38.1727 143.661L38.5807 144.113L42.0587 140.265C42.4877 139.79 43.2207 139.753 43.6967 140.183C44.1717 140.612 44.2087 141.346 43.7797 141.821L39.7557 146.272C39.4527 146.606 39.0247 146.798 38.5797 146.798C38.5807 146.798 38.5807 146.798 38.5797 146.798ZM38.0337 144.717C38.0337 144.717 38.0337 144.718 38.0327 144.718L38.0337 144.717Z" fill="#777777"/>
<path d="M217.191 188.346C217.191 188.346 219.588 215.014 218.738 224.062H168.859C168.859 224.062 169.091 192.032 171.798 185.021C173.684 180.135 217.191 188.346 217.191 188.346Z" fill="white"/>
<path d="M218.738 224.45C218.726 224.45 218.714 224.449 218.701 224.448C218.489 224.428 218.333 224.24 218.353 224.027C219.143 215.624 217.088 191.6 216.832 188.673C200.113 185.533 173.441 181.84 172.158 185.161C169.507 192.027 169.248 223.746 169.246 224.066C169.244 224.278 169.072 224.45 168.86 224.45C168.859 224.45 168.858 224.45 168.857 224.45C168.643 224.448 168.472 224.274 168.473 224.061C168.482 222.75 168.736 191.88 171.438 184.884C171.757 184.059 172.728 181.548 195.252 184.47C206.248 185.897 217.154 187.948 217.263 187.968C217.433 188 217.561 188.141 217.576 188.313C217.6 188.58 219.967 215.12 219.123 224.1C219.104 224.3 218.935 224.45 218.738 224.45Z" fill="#777777"/>
<path d="M197.243 224.271H191.625C191.625 224.271 190.951 217.408 191.625 213.867C191.626 213.867 195.981 223.771 197.243 224.271Z" fill="#777777"/>
<path d="M135.214 107.473C135.214 107.473 132.048 100.22 132.01 97.4598C131.973 94.6998 132.756 90.8958 130.22 91.9028C127.684 92.9098 127.945 95.7068 127.945 95.7068C127.945 95.7068 122.836 83.9968 120.076 84.7798C117.316 85.5628 122.314 93.8788 122.314 93.8788C122.314 93.8788 116.13 96.5528 116.366 100.368C116.478 102.177 121.382 111.22 123.545 112.525C124.578 114.319 136.247 109.266 135.214 107.473Z" fill="white"/>
<path d="M124.614 113.292C124.613 113.292 124.612 113.292 124.611 113.292C123.958 113.292 123.507 113.129 123.269 112.809C120.994 111.301 116.097 102.284 115.98 100.393C115.764 96.8957 120.356 94.3917 121.765 93.7087C120.905 92.2237 118.211 87.3017 119.01 85.2817C119.185 84.8387 119.518 84.5377 119.971 84.4087C122.496 83.6947 126.166 90.9177 127.717 94.2597C127.966 93.3067 128.581 92.1387 130.078 91.5437C130.751 91.2767 131.3 91.2877 131.709 91.5787C132.59 92.2047 132.517 93.9247 132.439 95.7457C132.415 96.3197 132.39 96.9137 132.397 97.4537C132.432 100.042 135.392 106.913 135.561 107.301C135.677 107.516 135.75 107.861 135.483 108.323C134.326 110.324 127.37 113.292 124.614 113.292ZM120.366 85.1267C120.302 85.1267 120.241 85.1347 120.182 85.1517C119.959 85.2147 119.815 85.3467 119.728 85.5657C119.09 87.1777 121.617 91.9697 122.645 93.6807C122.702 93.7757 122.716 93.8917 122.682 93.9977C122.648 94.1037 122.57 94.1897 122.468 94.2347C122.408 94.2607 116.536 96.8457 116.752 100.345C116.855 102.009 121.737 110.984 123.745 112.195C123.801 112.229 123.848 112.276 123.88 112.333C123.932 112.422 124.151 112.518 124.613 112.518C124.614 112.518 124.615 112.518 124.616 112.518C127.299 112.518 133.873 109.565 134.815 107.937C134.857 107.865 134.92 107.735 134.88 107.666C134.873 107.654 134.866 107.641 134.861 107.628C134.73 107.329 131.663 100.271 131.625 97.4647C131.617 96.9037 131.643 96.2987 131.668 95.7137C131.73 94.2507 131.801 92.5917 131.262 92.2097C131.079 92.0797 130.777 92.0977 130.364 92.2627C128.135 93.1477 128.322 95.5697 128.331 95.6727C128.348 95.8617 128.225 96.0347 128.042 96.0817C127.858 96.1287 127.668 96.0357 127.592 95.8627C125.598 91.2947 122.117 85.1267 120.366 85.1267Z" fill="#777777"/>
<path d="M122.424 93.9702L125.161 98.6312C125.608 99.3922 125.376 100.357 124.643 100.787C123.91 101.217 122.954 100.95 122.507 100.189L119.77 95.5282C119.323 94.7672 119.554 93.8002 120.287 93.3692C120.654 93.1532 121.077 93.1142 121.462 93.2222C121.851 93.3312 122.201 93.5902 122.424 93.9702Z" fill="white"/>
<path d="M123.887 101.384C123.713 101.384 123.537 101.36 123.363 101.311C122.863 101.171 122.441 100.843 122.174 100.389L119.437 95.7284C119.17 95.2744 119.089 94.7454 119.211 94.2394C119.333 93.7284 119.646 93.3024 120.092 93.0404C120.537 92.7784 121.062 92.7124 121.567 92.8544C122.067 92.9944 122.491 93.3224 122.758 93.7784L125.495 98.4394C125.762 98.8934 125.842 99.4224 125.721 99.9274C125.598 100.437 125.285 100.862 124.839 101.124C124.546 101.296 124.22 101.384 123.887 101.384ZM121.043 93.5554C120.846 93.5554 120.655 93.6064 120.483 93.7074C120.22 93.8614 120.035 94.1144 119.962 94.4194C119.888 94.7294 119.938 95.0554 120.103 95.3364L122.84 99.9974C123.005 100.278 123.265 100.48 123.571 100.566C123.871 100.65 124.183 100.612 124.446 100.457C124.709 100.302 124.894 100.05 124.967 99.7464C125.041 99.4374 124.992 99.1114 124.826 98.8304L122.089 94.1694C121.923 93.8874 121.663 93.6844 121.356 93.5984C121.253 93.5694 121.147 93.5554 121.043 93.5554Z" fill="#777777"/>
<path d="M119.833 95.6596L122.472 100.155C122.903 100.888 122.679 101.819 121.972 102.234C121.265 102.649 120.343 102.391 119.913 101.657L117.274 97.1616C116.843 96.4286 117.066 95.4956 117.773 95.0806C118.127 94.8726 118.535 94.8346 118.906 94.9386C119.28 95.0436 119.618 95.2936 119.833 95.6596Z" fill="white"/>
<path d="M121.244 102.822C121.075 102.822 120.904 102.799 120.735 102.751C120.249 102.615 119.839 102.297 119.58 101.856L116.94 97.3615C116.401 96.4445 116.687 95.2735 117.576 94.7515C118.009 94.4975 118.518 94.4335 119.009 94.5705C119.495 94.7065 119.906 95.0245 120.166 95.4675L122.806 99.9625C123.065 100.403 123.143 100.917 123.025 101.407C122.906 101.903 122.602 102.316 122.168 102.57C121.884 102.737 121.568 102.822 121.244 102.822ZM118.501 95.2725C118.314 95.2725 118.131 95.3215 117.968 95.4175C117.446 95.7235 117.285 96.4205 117.607 96.9705L120.247 101.465C120.404 101.733 120.652 101.926 120.944 102.008C121.23 102.088 121.527 102.052 121.777 101.904C122.028 101.757 122.204 101.516 122.274 101.227C122.345 100.932 122.297 100.622 122.14 100.354L119.5 95.8595C119.342 95.5905 119.094 95.3975 118.801 95.3155C118.702 95.2865 118.601 95.2725 118.501 95.2725Z" fill="#777777"/>
<path d="M117.75 97.9996L119.974 101.788C120.337 102.406 120.101 103.218 119.447 103.602C118.793 103.986 117.969 103.796 117.606 103.178L115.566 99.7036C115.203 99.0856 115.253 97.9576 115.908 97.5736C116.236 97.3806 116.606 97.3336 116.938 97.4096C117.273 97.4876 117.569 97.6916 117.75 97.9996Z" fill="white"/>
<path d="M118.727 104.189C118.142 104.189 117.581 103.9 117.273 103.377L115.233 99.9031C115.01 99.5231 114.913 99.0021 114.972 98.5081C115.041 97.9321 115.304 97.4831 115.712 97.2441C116.114 97.0081 116.58 96.9351 117.024 97.0371C117.476 97.1411 117.852 97.4141 118.083 97.8071L120.307 101.595C120.537 101.986 120.592 102.448 120.463 102.893C120.336 103.331 120.044 103.702 119.643 103.938C119.354 104.108 119.037 104.189 118.727 104.189ZM116.629 97.7651C116.448 97.7651 116.267 97.8141 116.104 97.9101C115.912 98.0231 115.779 98.2741 115.74 98.6001C115.7 98.9271 115.762 99.2761 115.9 99.5111L117.94 102.985C118.194 103.418 118.783 103.546 119.253 103.271C119.484 103.135 119.65 102.924 119.722 102.677C119.792 102.437 119.763 102.192 119.642 101.986L117.418 98.1981C117.296 97.9911 117.095 97.8461 116.852 97.7901C116.778 97.7731 116.703 97.7651 116.629 97.7651Z" fill="#777777"/>
<path d="M127.945 95.7031C127.945 95.7031 127.255 98.5191 128.411 100.197C128.411 100.197 126.957 101.372 126.49 103.124C126.023 104.876 127.022 106.162 127.022 106.162" fill="white"/>
<path d="M127.022 106.552C126.907 106.552 126.794 106.501 126.717 106.403C126.672 106.344 125.608 104.945 126.117 103.029C126.493 101.616 127.451 100.569 127.913 100.128C126.923 98.3246 127.541 95.7296 127.569 95.6146C127.62 95.4076 127.827 95.2806 128.036 95.3316C128.243 95.3826 128.37 95.5916 128.32 95.7986C128.314 95.8256 127.686 98.4686 128.729 99.9816C128.843 100.148 128.811 100.374 128.654 100.502C128.64 100.513 127.29 101.625 126.864 103.229C126.456 104.765 127.292 105.885 127.328 105.932C127.457 106.101 127.426 106.343 127.257 106.473C127.187 106.526 127.104 106.552 127.022 106.552Z" fill="#777777"/>
<path d="M122.739 116.091L126.663 122.369L141.832 111.977L137.752 105.59C134.762 102.021 119.439 111.506 122.739 116.091Z" fill="url(#paint2_linear_402_15535)"/>
<path d="M126.663 122.751C126.637 122.751 126.61 122.748 126.584 122.743C126.481 122.721 126.391 122.659 126.335 122.569L122.418 116.301C121.023 114.345 122.43 111.437 126.186 108.519C129.876 105.653 136.052 102.953 138.048 105.338C138.059 105.351 138.068 105.364 138.077 105.378L142.157 111.765C142.269 111.941 142.222 112.174 142.05 112.292L126.881 122.684C126.817 122.728 126.74 122.751 126.663 122.751ZM135.635 105.181C133.295 105.181 129.545 106.889 126.66 109.13C124.039 111.166 121.716 114.003 123.053 115.861C123.058 115.868 123.063 115.875 123.067 115.882L126.777 121.819L141.305 111.866L137.441 105.817C137.06 105.377 136.429 105.181 135.635 105.181Z" fill="#777777"/>
<path d="M180.001 119.149C174.575 119.791 162.939 125 152.206 129.544L141.802 110.569C138.022 105.123 122.106 117.262 125.885 122.708C125.885 122.708 137.743 146.887 144.986 149.381C153.606 152.35 180.773 141.438 180.773 141.438L180.001 119.149Z" fill="white"/>
<path d="M148.819 150.284C147.282 150.284 145.936 150.122 144.862 149.751C137.606 147.252 126.197 124.219 125.552 122.908C123.429 119.795 127.08 114.788 131.606 111.647C133.642 110.234 135.74 109.274 137.513 108.944C139.615 108.553 141.21 109.04 142.121 110.353C142.129 110.364 142.136 110.376 142.143 110.388L152.379 129.057C153.636 128.524 154.905 127.983 156.173 127.442C165.51 123.458 175.165 119.338 179.957 118.771C180.063 118.758 180.172 118.791 180.254 118.861C180.336 118.931 180.385 119.033 180.388 119.141L181.162 141.43C181.168 141.593 181.071 141.741 180.92 141.802C179.942 142.193 159.657 150.284 148.819 150.284ZM138.833 109.588C138.423 109.588 138.019 109.636 137.653 109.704C135.985 110.014 133.993 110.93 132.045 112.282C127.756 115.259 124.398 119.892 126.203 122.492C126.214 122.508 126.224 122.525 126.232 122.542C126.35 122.782 138.102 146.606 145.112 149.02C153.064 151.758 177.615 142.27 180.378 141.183L179.628 119.594C174.81 120.327 165.493 124.303 156.473 128.152C155.095 128.74 153.718 129.328 152.355 129.905C152.173 129.982 151.961 129.909 151.866 129.735L141.473 110.778C140.827 109.86 139.81 109.588 138.833 109.588Z" fill="#777777"/>
<path d="M220.08 187.467C222.74 169.18 226.271 134.318 224.522 129.066C221.214 119.144 192.455 116.549 179.374 119.271L171.364 131.255C171.288 131.698 171.217 132.148 171.144 132.607C169.944 140.141 168.785 167.496 164.761 187.467C164.761 192.82 220.08 192.82 220.08 187.467Z" fill="white"/>
<path d="M192.421 191.869C185.159 191.869 178.388 191.511 173.356 190.862C165.306 189.823 164.375 188.427 164.375 187.468C164.375 187.442 164.378 187.417 164.383 187.392C167.078 174.02 168.468 157.535 169.484 145.498C169.977 139.657 170.366 135.043 170.764 132.548L170.804 132.299C170.864 131.925 170.922 131.556 170.985 131.192C171.021 130.982 171.222 130.84 171.431 130.877C171.642 130.913 171.782 131.113 171.746 131.324C171.684 131.685 171.626 132.05 171.566 132.421L171.526 132.67C171.133 135.137 170.745 139.738 170.253 145.563C169.237 157.606 167.846 174.094 165.148 187.502C165.272 189.275 175.453 191.097 192.42 191.097C209.492 191.097 219.693 189.252 219.693 187.469C219.693 187.45 219.694 187.432 219.697 187.413C222.252 169.841 225.886 134.389 224.154 129.19C220.94 119.548 192.571 116.921 179.452 119.652C179.24 119.696 179.038 119.561 178.995 119.352C178.952 119.143 179.086 118.938 179.295 118.895C186.092 117.481 196.693 117.542 205.676 119.048C211.97 120.103 222.836 122.792 224.888 128.946C226.731 134.479 222.935 170.512 220.466 187.5C220.344 191.745 195.284 191.869 192.421 191.869Z" fill="#777777"/>
<path d="M207.107 119.694L190.952 126.81L188.27 118.547C188.27 118.547 192.981 116.419 192.66 107.946C198.145 109.741 206.851 106.648 206.851 106.648C205.889 111.949 205.547 116.687 207.107 119.694Z" fill="white"/>
<path d="M190.952 127.2C190.898 127.2 190.844 127.189 190.794 127.166C190.694 127.121 190.618 127.037 190.585 126.933L187.903 118.67C187.842 118.483 187.932 118.28 188.111 118.199C188.293 118.115 192.581 116.046 192.275 107.965C192.27 107.839 192.327 107.718 192.428 107.642C192.529 107.566 192.661 107.544 192.781 107.583C198.076 109.315 206.637 106.318 206.722 106.288C206.852 106.242 206.996 106.268 207.102 106.358C207.207 106.447 207.257 106.586 207.232 106.721C206.081 113.063 206.148 117.01 207.451 119.52C207.5 119.615 207.508 119.726 207.473 119.826C207.438 119.927 207.362 120.008 207.264 120.051L191.109 127.167C191.058 127.189 191.005 127.2 190.952 127.2ZM188.737 118.736L191.188 126.287L206.585 119.505C205.415 116.922 205.345 113.087 206.358 107.223C204.318 107.875 197.787 109.732 193.061 108.471C193.161 115.53 189.795 118.102 188.737 118.736Z" fill="#777777"/>
<path d="M200.662 109.77C196.333 109.921 189.394 110.06 186.903 106.299C184.407 102.53 184.171 95.1176 185.679 87.8356C185.679 87.8356 185.679 87.8326 185.682 87.8266C187.442 79.3096 194.126 70.7706 199.945 70.9966C214.245 71.5516 209.428 91.4676 209.428 91.4676C209.428 91.4676 212.696 89.9686 213.206 93.0636C213.851 96.9616 207.898 102.728 207.898 102.728L206.732 107.331" fill="white"/>
<path d="M197.832 110.222C193.817 110.222 188.705 109.722 186.581 106.516C184.155 102.852 183.664 95.6654 185.301 87.7614C185.303 87.7534 185.304 87.7464 185.307 87.7384C187.002 79.5604 193.479 70.6094 199.711 70.6094C199.794 70.6094 199.877 70.6114 199.961 70.6144C203.448 70.7494 206.13 72.0264 207.931 74.4084C211.848 79.5894 210.458 88.3654 209.952 90.8834C210.582 90.7144 211.534 90.5844 212.329 91.0074C213.005 91.3674 213.429 92.0394 213.588 93.0054C214.225 96.8514 208.992 102.194 208.247 102.932L207.108 107.43C207.055 107.637 206.844 107.762 206.639 107.71C206.432 107.658 206.307 107.447 206.359 107.24L207.525 102.637C207.543 102.568 207.579 102.504 207.631 102.454C207.689 102.398 213.431 96.7844 212.826 93.1314C212.708 92.4164 212.42 91.9324 211.969 91.6914C211.019 91.1844 209.604 91.8174 209.59 91.8234C209.456 91.8844 209.297 91.8634 209.184 91.7694C209.07 91.6754 209.019 91.5244 209.054 91.3804C209.08 91.2724 211.605 80.5454 207.314 74.8724C205.659 72.6844 203.176 71.5114 199.932 71.3864C199.865 71.3834 199.797 71.3824 199.729 71.3824C194.431 71.3824 187.837 79.3184 186.062 87.9084C186.06 87.9174 186.058 87.9264 186.055 87.9354C184.487 95.5224 184.946 102.646 187.226 106.089C189.664 109.771 196.81 109.521 200.649 109.387C200.854 109.376 201.042 109.546 201.049 109.76C201.057 109.973 200.89 110.152 200.676 110.16C199.851 110.188 198.878 110.222 197.832 110.222Z" fill="#777777"/>
<path d="M198.834 90.52C198.907 89.7797 198.507 89.1339 197.94 89.0775C197.373 89.0211 196.853 89.5756 196.78 90.3158C196.706 91.0561 197.106 91.7019 197.673 91.7583C198.241 91.8147 198.76 91.2603 198.834 90.52Z" fill="#777777"/>
<path d="M192.142 89.0278C192.216 88.2875 191.816 87.6417 191.248 87.5853C190.681 87.529 190.162 88.0834 190.088 88.8237C190.015 89.5639 190.415 90.2098 190.982 90.2661C191.549 90.3225 192.069 89.7681 192.142 89.0278Z" fill="#777777"/>
<path d="M197.039 86.416C197.039 86.416 198.895 85.451 200.817 87.421L197.039 86.416Z" fill="white"/>
<path d="M200.817 87.8083C200.717 87.8083 200.616 87.7693 200.54 87.6913C198.855 85.9653 197.281 86.7273 197.214 86.7603C197.024 86.8553 196.792 86.7813 196.695 86.5913C196.598 86.4023 196.671 86.1713 196.86 86.0733C196.946 86.0283 198.995 85.0013 201.093 87.1513C201.242 87.3043 201.239 87.5483 201.086 87.6973C201.012 87.7713 200.915 87.8083 200.817 87.8083Z" fill="#777777"/>
<path d="M189.526 85.5098C189.526 85.5098 191.382 84.5448 193.304 86.5148L189.526 85.5098Z" fill="white"/>
<path d="M193.304 86.902C193.204 86.902 193.103 86.8631 193.027 86.7851C191.325 85.0401 189.721 85.845 189.704 85.853C189.514 85.952 189.282 85.878 189.183 85.688C189.085 85.499 189.158 85.2651 189.348 85.1671C189.434 85.1221 191.483 84.095 193.581 86.245C193.73 86.398 193.727 86.6421 193.574 86.791C193.499 86.8661 193.402 86.902 193.304 86.902Z" fill="#777777"/>
<path d="M193.6 90.6562C192.999 92.6272 192.397 94.5983 191.796 96.5693C191.697 96.8933 191.597 97.2342 191.661 97.5672C191.744 97.9992 192.095 98.3423 192.494 98.5283C192.893 98.7153 193.338 98.7713 193.775 98.8253" fill="white"/>
<path d="M193.775 99.2084C193.759 99.2084 193.743 99.2074 193.727 99.2054C193.287 99.1504 192.788 99.0894 192.329 98.8744C191.77 98.6124 191.379 98.1494 191.28 97.6354C191.197 97.2004 191.324 96.7854 191.425 96.4524L193.229 90.5394C193.291 90.3354 193.506 90.2204 193.711 90.2824C193.915 90.3444 194.03 90.5604 193.968 90.7654L192.164 96.6784C192.083 96.9434 191.992 97.2444 192.039 97.4914C192.1 97.8104 192.398 98.0544 192.656 98.1754C193.003 98.3374 193.419 98.3894 193.821 98.4394C194.033 98.4654 194.183 98.6584 194.157 98.8704C194.134 99.0644 193.967 99.2084 193.775 99.2084Z" fill="#777777"/>
<path d="M197.133 101.844C195.79 102.697 194.082 102.952 192.548 102.53L197.133 101.844Z" fill="white"/>
<path d="M194.04 103.118C193.501 103.118 192.963 103.048 192.445 102.905C192.239 102.848 192.119 102.636 192.175 102.43C192.232 102.224 192.444 102.103 192.65 102.16C194.077 102.554 195.676 102.314 196.925 101.521C197.105 101.407 197.344 101.46 197.458 101.64C197.573 101.82 197.519 102.059 197.339 102.173C196.363 102.794 195.2 103.118 194.04 103.118Z" fill="#777777"/>
<path d="M221.916 90.3883C218.07 103.287 207.898 102.727 207.898 102.727C207.898 102.727 213.852 96.9623 213.205 93.0613C212.695 89.9663 209.428 91.4643 209.428 91.4643C209.428 91.4643 208.905 93.1023 207.739 92.7773C206.512 92.4393 207.854 86.9863 207.933 86.0873C207.987 85.4433 208.102 84.9813 207.659 84.4873C207.12 83.8913 206.008 83.4803 205.284 83.1673C205.284 83.1673 199.799 81.3953 199.738 79.7693C199.684 78.3443 199.365 78.2303 199.834 77.6783C194.932 78.9693 183.862 80.9553 184.054 72.5243C184.299 61.7033 193.304 66.9913 193.304 66.9913C193.304 66.9913 192.599 61.9053 197.04 62.1913C203.37 62.5983 204.482 66.5833 204.482 66.5833C220.952 65.0693 224.275 74.9143 221.916 90.3883Z" fill="#777777"/>
<path d="M208.028 103.116C207.936 103.116 207.884 103.114 207.877 103.113C207.723 103.105 207.59 103.006 207.536 102.862C207.482 102.718 207.519 102.556 207.629 102.449C207.687 102.393 213.43 96.7803 212.824 93.1243C212.706 92.4093 212.418 91.9243 211.967 91.6833C211.197 91.2713 210.12 91.6113 209.734 91.7573C209.456 92.4563 208.748 93.4593 207.636 93.1493C206.421 92.8153 206.821 90.0803 207.378 87.0653C207.462 86.6113 207.534 86.2193 207.549 86.0533L207.571 85.8203C207.624 85.2873 207.636 85.0403 207.372 84.7453C206.963 84.2923 206.082 83.9233 205.439 83.6533L205.131 83.5233C204.206 83.2263 199.419 81.5893 199.352 79.7853C199.334 79.3053 199.285 78.9883 199.246 78.7343C199.218 78.5523 199.194 78.3943 199.195 78.2413C195.293 79.1963 189.021 80.1573 185.762 77.5873C184.321 76.4503 183.616 74.7443 183.666 72.5183C183.743 69.1133 184.687 66.8823 186.471 65.8883C188.722 64.6333 191.617 65.7363 192.874 66.3363C192.864 65.4413 193.006 63.9003 193.976 62.8563C194.701 62.0763 195.739 61.7243 197.062 61.8093C202.629 62.1673 204.33 65.1863 204.741 66.1763C211.452 65.6083 216.175 66.8853 219.182 70.0773C222.784 73.9013 223.803 80.5653 222.296 90.4503C222.293 90.4683 222.29 90.4853 222.284 90.5023C218.656 102.677 209.33 103.116 208.028 103.116ZM211.083 90.7163C211.498 90.7163 211.933 90.7903 212.328 91.0003C213.004 91.3603 213.428 92.0323 213.587 92.9983C214.131 96.2773 210.412 100.64 208.839 102.316C211.383 102.114 218.455 100.608 221.539 90.3033C223.003 80.6833 222.048 74.2393 218.623 70.6033C215.746 67.5493 211.131 66.3603 204.518 66.9683C204.335 66.9843 204.161 66.8673 204.11 66.6873C204.067 66.5363 202.969 62.9603 197.015 62.5773C195.941 62.5083 195.106 62.7773 194.547 63.3773C193.387 64.6223 193.684 66.9163 193.687 66.9393C193.707 67.0863 193.642 67.2313 193.519 67.3133C193.396 67.3953 193.237 67.4003 193.109 67.3253C193.072 67.3033 189.358 65.1613 186.848 66.5623C185.322 67.4143 184.512 69.4233 184.442 72.5333C184.397 74.5043 185.004 75.9993 186.244 76.9783C189.452 79.5093 196.075 78.2693 199.737 77.3053C199.901 77.2623 200.073 77.3303 200.163 77.4733C200.253 77.6163 200.24 77.8013 200.13 77.9293C199.941 78.1513 199.945 78.1783 200.012 78.6163C200.052 78.8753 200.106 79.2313 200.126 79.7553C200.161 80.6893 203.234 82.0983 205.405 82.7993L205.74 82.9393C206.49 83.2543 207.422 83.6463 207.948 84.2273C208.451 84.7883 208.395 85.3513 208.341 85.8953L208.32 86.1183C208.302 86.3233 208.234 86.6933 208.139 87.2043C207.301 91.7393 207.653 92.3503 207.843 92.4033C208.634 92.6243 209.058 91.3573 209.062 91.3443C209.096 91.2413 209.171 91.1563 209.269 91.1113C209.318 91.0903 210.149 90.7163 211.083 90.7163Z" fill="#777777"/>
<path d="M203.46 181.761L186.583 212.426C184.525 216.165 179.826 217.526 176.087 215.468L125.52 187.638C121.781 185.58 120.419 180.883 122.477 177.144L139.354 146.479C141.412 142.74 146.109 141.378 149.848 143.436L200.415 171.266C204.154 173.324 205.518 178.022 203.46 181.761Z" fill="white"/>
<path d="M179.803 216.814C178.453 216.814 177.117 216.474 175.901 215.804L125.335 187.974C123.436 186.929 122.058 185.208 121.455 183.127C120.852 181.046 121.095 178.854 122.14 176.956L139.017 146.291C140.062 144.392 141.783 143.014 143.864 142.411C145.944 141.807 148.137 142.05 150.035 143.096L200.602 170.926C204.522 173.083 205.956 178.027 203.799 181.946L186.922 212.611C185.877 214.51 184.155 215.887 182.073 216.491C181.325 216.707 180.561 216.814 179.803 216.814ZM146.133 142.859C145.447 142.859 144.756 142.956 144.079 143.153C142.196 143.699 140.639 144.946 139.694 146.664L122.817 177.329C121.872 179.047 121.652 181.03 122.198 182.912C122.744 184.795 123.991 186.352 125.709 187.298L176.275 215.128C177.993 216.073 179.975 216.294 181.859 215.748C183.742 215.202 185.3 213.956 186.246 212.238L203.123 181.573C205.074 178.028 203.776 173.555 200.23 171.603L149.663 143.773C148.562 143.167 147.354 142.859 146.133 142.859Z" fill="#777777"/>
<path d="M150.337 149.977L147.4 155.312L152.358 158.041L155.295 152.706L150.337 149.977Z" fill="url(#paint3_linear_402_15535)"/>
<path d="M146.726 156.54L143.789 161.875L148.747 164.604L151.683 159.268L146.726 156.54Z" fill="url(#paint4_linear_402_15535)"/>
<path d="M145.494 155.867L142.558 161.202L141.708 160.734C140.415 160.022 139.943 158.395 140.655 157.102L142.302 154.109L145.494 155.867Z" fill="url(#paint5_linear_402_15535)"/>
<path d="M159.544 158.099L157.897 161.092L153.584 158.718L156.52 153.383L158.49 154.467C159.784 155.179 160.255 156.805 159.544 158.099Z" fill="url(#paint6_linear_402_15535)"/>
<path d="M149.107 149.3L146.171 154.635L142.979 152.878L144.626 149.885C145.338 148.592 146.965 148.12 148.258 148.832L149.107 149.3Z" fill="url(#paint7_linear_402_15535)"/>
<path d="M157.222 162.318L155.575 165.311C154.863 166.604 153.236 167.076 151.943 166.364L149.973 165.28L152.909 159.945L157.222 162.318Z" fill="url(#paint8_linear_402_15535)"/>
<path d="M176.673 189.701C176.282 190.412 175.389 190.671 174.678 190.28L167.166 186.146C166.457 185.756 166.198 184.863 166.589 184.152C166.98 183.441 167.874 183.182 168.582 183.572L176.094 187.706C176.449 187.902 176.692 188.221 176.796 188.582C176.902 188.943 176.869 189.345 176.673 189.701Z" fill="#777777"/>
<path d="M162.61 180.781C162.715 181.142 162.68 181.544 162.484 181.899C162.093 182.61 161.2 182.869 160.489 182.478L150.405 176.928C149.694 176.537 149.435 175.644 149.826 174.933C150.217 174.222 151.111 173.963 151.822 174.354L161.906 179.904C162.261 180.099 162.505 180.42 162.61 180.781Z" fill="#777777"/>
<path d="M145.571 171.402C145.676 171.763 145.641 172.165 145.445 172.52C145.054 173.231 144.161 173.49 143.45 173.099L135.19 168.553C134.835 168.357 134.592 168.038 134.488 167.677C134.383 167.316 134.416 166.913 134.612 166.558C135.003 165.847 135.897 165.588 136.608 165.979L144.868 170.525C145.222 170.72 145.467 171.041 145.571 171.402Z" fill="#777777"/>
<path d="M189.036 196.505C188.645 197.216 187.752 197.475 187.041 197.084L180.383 193.42C179.672 193.029 179.413 192.136 179.804 191.425C180.195 190.714 181.089 190.455 181.8 190.846L188.458 194.51C188.813 194.706 189.058 195.026 189.162 195.387C189.266 195.748 189.231 196.149 189.036 196.505Z" fill="#777777"/>
<path d="M164.616 194.446L130.434 175.633C130.088 175.442 129.961 175.007 130.152 174.66C130.343 174.314 130.778 174.187 131.125 174.378L165.307 193.191C165.653 193.382 165.78 193.817 165.589 194.164C165.398 194.51 164.962 194.637 164.616 194.446Z" fill="#777777"/>
<path d="M146.675 188.582C146.581 188.754 146.422 188.872 146.247 188.924C146.071 188.973 145.874 188.958 145.702 188.864L128.394 179.338C128.047 179.147 127.922 178.711 128.112 178.366C128.208 178.192 128.364 178.073 128.541 178.022C128.716 177.969 128.912 177.987 129.086 178.082L146.394 187.608C146.74 187.797 146.867 188.234 146.675 188.582Z" fill="#777777"/>
<path d="M185.514 175.912C185.514 175.912 178.008 173.516 176.371 174.948C174.734 176.38 179.324 178.693 179.324 178.693C179.324 178.693 169.943 179.37 169.657 180.944C169.372 182.518 174.81 182.135 174.81 182.135C174.81 182.135 170.423 183.662 169.947 184.725C169.471 185.788 170.632 186.439 171.577 186.293C171.577 186.293 170.19 188.301 172.623 188.618C172.623 188.618 171.815 190.068 174.025 190.204C176.235 190.34 180.612 189.249 182.043 188.678C185.396 187.342 188.144 185.025 188.144 185.025C188.509 182.324 188.329 177.626 185.514 175.912Z" fill="white"/>
<path d="M174.433 190.599C174.283 190.599 174.14 190.595 174.004 190.587C173.1 190.531 172.506 190.256 172.24 189.769C172.084 189.484 172.074 189.175 172.12 188.912C171.514 188.755 171.11 188.458 170.918 188.025C170.709 187.555 170.807 187.05 170.952 186.669C170.453 186.589 169.994 186.346 169.724 185.991C169.413 185.583 169.368 185.076 169.597 184.564C169.905 183.878 171.371 183.114 172.671 182.551C171.433 182.501 170.051 182.304 169.52 181.711C169.306 181.473 169.223 181.182 169.279 180.871C169.547 179.394 174.793 178.696 178.049 178.404C177.061 177.78 175.768 176.788 175.644 175.806C175.605 175.503 175.656 175.057 176.118 174.653C177.868 173.121 184.843 175.288 185.632 175.54C185.661 175.549 185.689 175.562 185.716 175.578C188.506 177.277 188.975 181.755 188.53 185.074C188.517 185.169 188.47 185.256 188.396 185.318C188.282 185.414 185.561 187.69 182.189 189.035C180.746 189.609 176.786 190.599 174.433 190.599ZM171.579 185.903C171.711 185.903 171.835 185.97 171.907 186.084C171.989 186.215 171.985 186.382 171.898 186.509C171.762 186.708 171.447 187.314 171.626 187.712C171.777 188.048 172.28 188.18 172.676 188.232C172.803 188.249 172.914 188.327 172.972 188.441C173.029 188.555 173.027 188.691 172.964 188.803C172.964 188.804 172.783 189.154 172.921 189.401C173.049 189.631 173.451 189.778 174.053 189.816C176.266 189.952 180.589 188.842 181.905 188.317C184.78 187.171 187.235 185.264 187.785 184.821C188.092 182.315 187.909 177.862 185.354 176.262C182.526 175.364 177.696 174.301 176.628 175.235C176.408 175.428 176.397 175.59 176.412 175.709C176.518 176.547 178.363 177.77 179.501 178.344C179.656 178.422 179.74 178.595 179.706 178.765C179.672 178.935 179.528 179.062 179.355 179.075C174.517 179.425 170.164 180.329 170.041 181.01C170.027 181.085 170.042 181.136 170.096 181.196C170.609 181.767 173.147 181.862 174.786 181.746C174.98 181.731 175.153 181.864 175.192 182.054C175.231 182.244 175.124 182.433 174.941 182.497C173.185 183.109 170.585 184.253 170.303 184.881C170.19 185.133 170.201 185.344 170.339 185.523C170.56 185.813 171.067 185.979 171.521 185.909C171.54 185.905 171.56 185.903 171.579 185.903Z" fill="#777777"/>
<path d="M171.578 186.682C171.418 186.682 171.268 186.581 171.213 186.421C171.144 186.219 171.251 185.999 171.453 185.93L175.599 184.505C175.801 184.436 176.021 184.543 176.09 184.745C176.159 184.947 176.052 185.167 175.85 185.236L171.704 186.661C171.662 186.675 171.62 186.682 171.578 186.682Z" fill="#777777"/>
<path d="M172.626 189.002C172.469 189.002 172.322 188.906 172.264 188.751C172.189 188.551 172.291 188.328 172.491 188.254L176.621 186.712C176.821 186.638 177.044 186.739 177.118 186.939C177.193 187.139 177.091 187.362 176.891 187.436L172.761 188.978C172.716 188.994 172.671 189.002 172.626 189.002Z" fill="#777777"/>
<path d="M187.982 186.923L195.447 184.86L192.001 172.391L184.536 174.454C182.249 175.087 185.695 187.555 187.982 186.923Z" fill="url(#paint9_linear_402_15535)"/>
<path d="M187.805 187.337C185.947 187.337 184.462 182.319 184.172 181.269C183.867 180.166 182.446 174.634 184.434 174.085L191.898 172.022C192.102 171.966 192.317 172.086 192.374 172.292L195.82 184.761C195.847 184.86 195.834 184.965 195.784 185.055C195.734 185.145 195.65 185.21 195.551 185.237L188.086 187.3C187.992 187.325 187.898 187.337 187.805 187.337ZM191.732 172.87L184.64 174.83C183.991 175.009 183.948 177.557 184.917 181.063C185.886 184.57 187.239 186.73 187.88 186.554L194.972 184.594L191.732 172.87Z" fill="#777777"/>
<path d="M218.632 123.328C219.106 123.312 227.729 127.674 228.592 137.52C229.593 148.942 230.469 171.726 227.404 175.444C220.224 184.152 193.081 187.573 193.081 187.573C188.68 188.997 184.935 172.352 189.336 170.928L212.729 163.481C212.729 163.481 209.578 148.078 209.214 141.891" fill="white"/>
<path d="M192.548 188.042C192.04 188.042 191.42 187.858 190.748 187.252C188.2 184.952 186.313 177.569 187.206 173.393C187.534 171.858 188.23 170.877 189.218 170.557L212.282 163.215C211.817 160.91 209.16 147.542 208.829 141.91C208.817 141.697 208.979 141.515 209.192 141.502C209.404 141.49 209.588 141.652 209.6 141.865C209.959 147.954 213.077 163.247 213.108 163.4C213.148 163.593 213.035 163.785 212.847 163.845L189.454 171.292C188.558 171.582 188.148 172.683 187.962 173.554C187.13 177.447 188.921 184.56 191.267 186.677C191.848 187.201 192.418 187.379 192.963 187.201C192.986 187.195 193.009 187.188 193.034 187.186C193.304 187.151 220.106 183.683 227.107 175.193C229.85 171.866 229.402 151.177 228.209 137.549C227.401 128.327 219.494 123.918 218.606 123.708C218.411 123.694 218.254 123.535 218.247 123.336C218.239 123.123 218.407 122.945 218.62 122.938C218.621 122.938 218.622 122.938 218.623 122.938C219.201 122.938 228.097 127.422 228.978 137.482C229.731 146.079 231.113 171.549 227.703 175.685C220.57 184.336 194.695 187.754 193.165 187.949C192.986 188.004 192.778 188.042 192.548 188.042Z" fill="#777777"/>
<path d="M190.952 126.809L194.84 133.039L212.354 120.923L206.1 115.797L190.952 126.809Z" fill="url(#paint10_linear_402_15535)"/>
<path d="M194.84 133.429C194.814 133.429 194.788 133.426 194.762 133.421C194.659 133.4 194.568 133.337 194.512 133.247L190.624 127.017C190.517 126.845 190.561 126.619 190.725 126.5L205.873 115.488C206.015 115.385 206.21 115.39 206.345 115.502L212.599 120.628C212.693 120.705 212.745 120.821 212.74 120.943C212.735 121.064 212.674 121.176 212.574 121.245L195.06 133.361C194.995 133.405 194.918 133.429 194.84 133.429ZM191.47 126.913L194.953 132.494L211.712 120.9L206.085 116.288L191.47 126.913Z" fill="#777777"/>
<path d="M190.952 126.816L185.521 129.9L182.353 118.784C185.797 118.198 188.736 117.256 190.952 115.805V126.816Z" fill="url(#paint11_linear_402_15535)"/>
<path d="M185.521 130.282C185.472 130.282 185.422 130.272 185.375 130.253C185.265 130.208 185.182 130.115 185.15 130.001L181.982 118.885C181.952 118.779 181.968 118.666 182.027 118.573C182.085 118.48 182.181 118.416 182.289 118.398C185.918 117.78 188.683 116.825 190.741 115.477C190.86 115.399 191.012 115.393 191.137 115.46C191.262 115.527 191.34 115.658 191.34 115.8V126.812C191.34 126.951 191.265 127.079 191.145 127.148L185.714 130.232C185.652 130.265 185.587 130.282 185.521 130.282ZM182.842 119.086L185.757 129.317L190.565 126.587V116.494C188.579 117.656 186.041 118.508 182.842 119.086Z" fill="#777777"/>
<path d="M166.168 66.5675H117.135C116.144 66.5675 115.341 65.7645 115.341 64.7735V44.9815C115.341 43.9905 116.144 43.1875 117.135 43.1875H166.168C167.159 43.1875 167.962 43.9905 167.962 44.9815V64.7725C167.963 65.7645 167.159 66.5675 166.168 66.5675Z" fill="white"/>
<path d="M161.028 66.9499H122.276C118.239 66.9499 114.955 63.6659 114.955 59.6289V50.1179C114.955 46.0809 118.239 42.7969 122.276 42.7969H161.028C165.065 42.7969 168.349 46.0809 168.349 50.1179V59.6289C168.349 63.6659 165.065 66.9499 161.028 66.9499ZM122.276 43.5699C118.665 43.5699 115.728 46.5079 115.728 50.1179V59.6289C115.728 63.2399 118.665 66.1769 122.276 66.1769H161.028C164.639 66.1769 167.576 63.2389 167.576 59.6289V50.1179C167.576 46.5069 164.638 43.5699 161.028 43.5699H122.276Z" fill="#777777"/>
<path d="M147.018 53.7428L143.598 55.0718L147.018 56.3978C147.211 56.4668 147.3 56.6138 147.285 56.8458C147.27 57.0778 147.123 57.4328 146.844 57.9158C146.566 58.3948 146.33 58.6968 146.137 58.8158C145.944 58.9358 145.77 58.9358 145.619 58.8078L142.744 56.5118L143.324 60.1368C143.37 60.3378 143.289 60.4928 143.077 60.6008C142.864 60.7048 142.482 60.7598 141.921 60.7598C141.364 60.7598 140.978 60.7058 140.765 60.6008C140.556 60.4928 140.471 60.3378 140.522 60.1368L141.098 56.5118L138.227 58.8078C138.08 58.9348 137.914 58.9348 137.721 58.8078C137.528 58.6838 137.288 58.3828 136.998 57.8998C136.72 57.4278 136.577 57.0768 136.565 56.8448C136.557 56.6128 136.642 56.4658 136.824 56.3968L140.264 55.0708L136.824 53.7418C136.642 53.6758 136.557 53.5258 136.565 53.2938C136.577 53.0618 136.72 52.7068 136.998 52.2268C137.276 51.7438 137.516 51.4418 137.713 51.3148C137.91 51.1908 138.08 51.1948 138.227 51.3298L141.098 53.6258L140.522 50.0008C140.472 49.8118 140.557 49.6568 140.765 49.5488C140.978 49.4368 141.364 49.3828 141.921 49.3828C142.481 49.3828 142.864 49.4368 143.077 49.5488C143.29 49.6568 143.371 49.8118 143.324 50.0008L142.744 53.6258L145.619 51.3298C145.77 51.1948 145.944 51.1948 146.129 51.3218C146.318 51.4528 146.554 51.7588 146.844 52.2418C147.122 52.7128 147.269 53.0608 147.285 53.2928C147.3 53.5258 147.212 53.6768 147.018 53.7428Z" fill="#777777"/>
<path d="M162.001 56.8458C161.986 57.0778 161.839 57.4328 161.56 57.9158C161.278 58.3948 161.042 58.6968 160.853 58.8158C160.66 58.9358 160.486 58.9358 160.331 58.8078L157.46 56.5118L158.036 60.1368C158.086 60.3378 158.001 60.4928 157.792 60.6008C157.579 60.7048 157.193 60.7598 156.636 60.7598C156.076 60.7598 155.693 60.7058 155.48 60.6008C155.267 60.4928 155.186 60.3378 155.233 60.1368L155.813 56.5118L152.938 58.8078C152.795 58.9348 152.625 58.9348 152.436 58.8078C152.243 58.6838 151.999 58.3828 151.713 57.8998C151.431 57.4278 151.288 57.0768 151.28 56.8448C151.268 56.6128 151.357 56.4658 151.539 56.3968L154.975 55.0708L151.539 53.7418C151.357 53.6758 151.268 53.5258 151.28 53.2938C151.288 53.0618 151.431 52.7068 151.713 52.2268C151.991 51.7438 152.231 51.4418 152.428 51.3148C152.625 51.1908 152.795 51.1948 152.938 51.3298L155.813 53.6258L155.233 50.0008C155.187 49.8118 155.268 49.6568 155.48 49.5488C155.693 49.4368 156.075 49.3828 156.636 49.3828C157.192 49.3828 157.579 49.4368 157.792 49.5488C158.001 49.6568 158.086 49.8118 158.036 50.0008L157.46 53.6258L160.331 51.3298C160.486 51.1948 160.656 51.1948 160.845 51.3218C161.031 51.4528 161.27 51.7588 161.56 52.2418C161.838 52.7128 161.985 53.0608 162.001 53.2928C162.013 53.5248 161.924 53.6758 161.731 53.7408L158.311 55.0698L161.731 56.3958C161.924 56.4668 162.013 56.6138 162.001 56.8458Z" fill="#777777"/>
<path d="M132.306 53.7428L128.882 55.0718L132.306 56.3978C132.495 56.4668 132.584 56.6138 132.573 56.8458C132.558 57.0778 132.411 57.4328 132.132 57.9158C131.85 58.3948 131.614 58.6968 131.425 58.8158C131.232 58.9358 131.058 58.9358 130.903 58.8078L128.032 56.5118L128.608 60.1368C128.658 60.3378 128.573 60.4928 128.365 60.6008C128.152 60.7048 127.766 60.7598 127.209 60.7598C126.649 60.7598 126.266 60.7058 126.053 60.6008C125.84 60.4928 125.759 60.3378 125.806 60.1368L126.386 56.5118L123.511 58.8078C123.368 58.9348 123.198 58.9348 123.009 58.8078C122.816 58.6838 122.576 58.3828 122.286 57.8998C122.008 57.4278 121.861 57.0768 121.853 56.8448C121.841 56.6128 121.93 56.4658 122.112 56.3968L125.548 55.0708L122.112 53.7418C121.93 53.6758 121.841 53.5258 121.853 53.2938C121.861 53.0618 122.008 52.7068 122.286 52.2268C122.564 51.7438 122.804 51.4418 123.001 51.3148C123.198 51.1908 123.368 51.1948 123.511 51.3298L126.386 53.6258L125.806 50.0008C125.76 49.8118 125.841 49.6568 126.053 49.5488C126.266 49.4368 126.648 49.3828 127.209 49.3828C127.765 49.3828 128.152 49.4368 128.365 49.5488C128.574 49.6568 128.659 49.8118 128.608 50.0008L128.032 53.6258L130.903 51.3298C131.058 51.1948 131.228 51.1948 131.417 51.3218C131.602 51.4528 131.842 51.7588 132.132 52.2418C132.41 52.7128 132.557 53.0608 132.573 53.2928C132.584 53.5258 132.495 53.6768 132.306 53.7428Z" fill="#777777"/>
<path d="M83.7993 144.01C83.7993 144.583 83.7103 145.089 83.5313 145.53C83.3523 145.971 83.0923 146.343 82.7513 146.645C82.4093 146.947 81.9913 147.177 81.4943 147.334C80.9973 147.491 80.4133 147.57 79.7413 147.57H78.8903V150.824C78.8903 150.877 78.8733 150.924 78.8393 150.966C78.8053 151.008 78.7483 151.042 78.6703 151.068C78.5913 151.094 78.4863 151.115 78.3553 151.131C78.2243 151.147 78.0563 151.155 77.8513 151.155C77.6513 151.155 77.4853 151.147 77.3513 151.131C77.2173 151.115 77.1113 151.094 77.0323 151.068C76.9533 151.042 76.8983 151.008 76.8673 150.966C76.8353 150.924 76.8193 150.877 76.8193 150.824V141.654C76.8193 141.407 76.8843 141.222 77.0123 141.099C77.1413 140.976 77.3103 140.914 77.5203 140.914H79.9233C80.1653 140.914 80.3943 140.923 80.6123 140.942C80.8303 140.96 81.0913 141 81.3963 141.06C81.7013 141.12 82.0093 141.232 82.3223 141.395C82.6343 141.558 82.9013 141.764 83.1223 142.013C83.3423 142.262 83.5103 142.554 83.6263 142.887C83.7413 143.221 83.7993 143.595 83.7993 144.01ZM81.6323 144.159C81.6323 143.802 81.5693 143.508 81.4433 143.277C81.3173 143.046 81.1623 142.875 80.9783 142.765C80.7943 142.655 80.6013 142.585 80.3993 142.556C80.1973 142.527 79.9883 142.513 79.7733 142.513H78.8913V145.971H79.8213C80.1523 145.971 80.4293 145.926 80.6523 145.837C80.8753 145.748 81.0583 145.623 81.1993 145.463C81.3413 145.303 81.4483 145.111 81.5223 144.888C81.5953 144.665 81.6323 144.422 81.6323 144.159Z" fill="white"/>
<path d="M92.6619 150.336C92.7249 150.525 92.7639 150.675 92.7799 150.785C92.7959 150.895 92.7749 150.978 92.7169 151.033C92.6589 151.088 92.5569 151.122 92.4099 151.135C92.2629 151.148 92.0609 151.155 91.8039 151.155C91.5359 151.155 91.3269 151.151 91.1779 151.143C91.0289 151.135 90.9139 151.119 90.8349 151.096C90.7559 151.072 90.7009 151.04 90.6699 150.998C90.6379 150.956 90.6119 150.901 90.5909 150.833L89.9059 148.785H86.0769L85.4309 150.778C85.4099 150.852 85.3829 150.913 85.3479 150.963C85.3139 151.013 85.2589 151.052 85.1829 151.081C85.1069 151.11 84.9989 151.129 84.8599 151.14C84.7209 151.15 84.5379 151.156 84.3119 151.156C84.0699 151.156 83.8809 151.148 83.7449 151.132C83.6089 151.116 83.5139 151.078 83.4619 151.018C83.4099 150.958 83.3909 150.872 83.4069 150.762C83.4219 150.652 83.4619 150.505 83.5249 150.321L86.6679 141.277C86.6989 141.188 86.7359 141.115 86.7779 141.06C86.8199 141.005 86.8869 140.963 86.9789 140.934C87.0709 140.905 87.1979 140.887 87.3609 140.879C87.5239 140.871 87.7389 140.867 88.0069 140.867C88.3169 140.867 88.5639 140.871 88.7469 140.879C88.9309 140.887 89.0739 140.905 89.1759 140.934C89.2779 140.963 89.3519 141.006 89.3969 141.064C89.4419 141.122 89.4799 141.201 89.5109 141.3L92.6619 150.336ZM87.9819 142.86H87.9739L86.5319 147.193H89.4229L87.9819 142.86Z" fill="white"/>
<path d="M96.8924 147.241V150.825C96.8924 150.878 96.8754 150.925 96.8414 150.967C96.8074 151.009 96.7504 151.043 96.6724 151.069C96.5934 151.095 96.4874 151.116 96.3534 151.132C96.2194 151.148 96.0524 151.156 95.8534 151.156C95.6484 151.156 95.4804 151.148 95.3494 151.132C95.2184 151.116 95.1114 151.095 95.0304 151.069C94.9484 151.043 94.8924 151.009 94.8614 150.967C94.8294 150.925 94.8144 150.878 94.8144 150.825V147.24L92.0254 141.686C91.9254 141.492 91.8614 141.341 91.8324 141.233C91.8034 141.125 91.8194 141.044 91.8794 140.989C91.9394 140.934 92.0514 140.9 92.2144 140.887C92.3774 140.874 92.6034 140.867 92.8914 140.867C93.1334 140.867 93.3264 140.872 93.4704 140.883C93.6144 140.894 93.7294 140.913 93.8134 140.942C93.8974 140.971 93.9594 141.009 93.9984 141.056C94.0384 141.103 94.0754 141.164 94.1124 141.237L95.2464 143.742C95.3564 143.984 95.4654 144.238 95.5734 144.506C95.6814 144.774 95.7904 145.055 95.9004 145.349H95.9164C96.0164 145.065 96.1184 144.79 96.2234 144.522C96.3284 144.254 96.4314 143.999 96.5304 143.758L97.6494 141.269C97.6754 141.185 97.7084 141.118 97.7474 141.068C97.7874 141.018 97.8464 140.977 97.9244 140.946C98.0034 140.914 98.1104 140.894 98.2474 140.883C98.3844 140.873 98.5654 140.867 98.7904 140.867C99.0894 140.867 99.3224 140.874 99.4874 140.887C99.6524 140.9 99.7654 140.934 99.8264 140.989C99.8864 141.044 99.9014 141.127 99.8694 141.237C99.8374 141.347 99.7744 141.497 99.6804 141.686L96.8924 147.241Z" fill="white"/>
<path d="M204.647 80.5126C203.921 80.5126 203.332 79.9146 203.105 79.2746C202.931 78.7836 202.922 78.2826 202.913 77.7976C202.911 77.6696 202.908 77.5416 202.903 77.4146C202.875 76.7606 202.727 76.3166 202.451 76.0576C202.035 75.6676 201.324 75.6936 200.8 75.7846C200.099 75.9056 199.431 76.1356 198.723 76.3786C198.245 76.5426 197.751 76.7126 197.249 76.8446C194.769 77.4966 192.035 77.2076 189.747 76.0516C188.241 75.2906 187.104 74.2406 186.461 73.0156C185.682 71.5326 185.67 69.8076 186.432 68.5156L187.098 68.9086C186.481 69.9556 186.499 71.4266 187.146 72.6566C187.864 74.0236 189.147 74.8826 190.097 75.3626C192.219 76.4346 194.755 76.7026 197.053 76.0986C197.528 75.9736 198.009 75.8086 198.473 75.6486C199.178 75.4066 199.908 75.1556 200.669 75.0236C201.685 74.8476 202.461 75.0066 202.981 75.4946C203.411 75.8986 203.638 76.5156 203.676 77.3816C203.682 77.5146 203.684 77.6496 203.687 77.7836C203.695 78.2266 203.702 78.6446 203.835 79.0166C203.975 79.4116 204.348 79.7866 204.726 79.7346L204.832 80.5006C204.768 80.5086 204.707 80.5126 204.647 80.5126Z" fill="white"/>
<path d="M194.866 66.4545L194.108 66.3005C194.217 65.7625 194.359 65.1955 194.654 64.6895C195.001 64.0955 195.527 63.6775 196.098 63.5435C196.535 63.4405 197.03 63.4935 197.53 63.6945C197.947 63.8625 198.31 64.1045 198.662 64.3385L198.233 64.9815C197.914 64.7695 197.585 64.5495 197.241 64.4115C196.996 64.3125 196.63 64.2125 196.274 64.2965C195.909 64.3825 195.561 64.6675 195.321 65.0795C195.097 65.4655 194.977 65.9085 194.866 66.4545Z" fill="white"/>
<path d="M219.655 80.065C219.334 76.815 217.759 73.696 215.334 71.508C213.361 69.728 211.042 68.842 208.975 69.075L208.888 68.307C211.177 68.049 213.715 69.006 215.852 70.934C218.418 73.249 220.085 76.55 220.425 79.989L219.655 80.065Z" fill="white"/>
<path d="M211.153 89.4784C211.069 89.4784 210.986 89.4714 210.903 89.4574C210.386 89.3674 209.941 89.0104 209.742 88.5244C209.468 87.8534 209.71 87.1814 209.924 86.5874C209.995 86.3894 210.063 86.2024 210.112 86.0194C210.459 84.7164 209.693 83.1984 208.439 82.7034L208.723 81.9844C210.352 82.6274 211.31 84.5264 210.859 86.2184C210.802 86.4324 210.726 86.6444 210.652 86.8494C210.469 87.3564 210.296 87.8354 210.458 88.2314C210.554 88.4654 210.786 88.6524 211.036 88.6954C211.285 88.7394 211.567 88.6404 211.736 88.4524L212.311 88.9684C212.021 89.2914 211.586 89.4784 211.153 89.4784Z" fill="white"/>
<path d="M217.448 96.5153L216.816 96.0703C218.213 94.0853 218.882 91.5603 218.652 89.1433L219.421 89.0703C219.669 91.6683 218.95 94.3823 217.448 96.5153Z" fill="white"/>
<path fill-rule="evenodd" clip-rule="evenodd" d="M133.405 124.326C133.405 124.326 137.176 123.483 140.127 124.16C140.245 124.186 140.368 124.164 140.47 124.1C140.572 124.036 140.645 123.933 140.672 123.816C140.736 123.561 140.582 123.317 140.326 123.261C137.209 122.54 133.204 123.417 133.204 123.417C132.961 123.472 132.805 123.727 132.861 123.971C132.916 124.227 133.16 124.382 133.405 124.326ZM182.292 127.455C182.292 127.455 177.401 130.106 165.696 127.421C165.453 127.355 165.199 127.51 165.143 127.765C165.087 128.009 165.241 128.264 165.486 128.32C177.655 131.104 182.736 128.265 182.736 128.265C182.957 128.142 183.035 127.865 182.912 127.643C182.792 127.421 182.515 127.332 182.292 127.455ZM1.46277 224.69H242.496C242.75 224.69 242.958 224.483 242.958 224.235C242.958 223.976 242.75 223.768 242.496 223.768H1.46277C1.20872 223.768 1 223.976 1 224.235C1 224.483 1.20872 224.69 1.46277 224.69Z" fill="#777777"/>
<defs>
<linearGradient id="paint0_linear_402_15535" x1="86.6843" y1="135.195" x2="86.6843" y2="155.186" gradientUnits="userSpaceOnUse">
<stop stop-color="#CEB7A1"/>
<stop offset="1" stop-color="#CE202F"/>
</linearGradient>
<linearGradient id="paint1_linear_402_15535" x1="40.115" y1="125.766" x2="40.115" y2="161.385" gradientUnits="userSpaceOnUse">
<stop stop-color="#CEB7A1"/>
<stop offset="1" stop-color="#CE202F"/>
</linearGradient>
<linearGradient id="paint2_linear_402_15535" x1="132.054" y1="104.805" x2="132.054" y2="122.369" gradientUnits="userSpaceOnUse">
<stop stop-color="#CEB7A1"/>
<stop offset="1" stop-color="#CE202F"/>
</linearGradient>
<linearGradient id="paint3_linear_402_15535" x1="148.869" y1="152.645" x2="153.826" y2="155.374" gradientUnits="userSpaceOnUse">
<stop stop-color="#CEB7A1"/>
<stop offset="1" stop-color="#CE202F"/>
</linearGradient>
<linearGradient id="paint4_linear_402_15535" x1="145.257" y1="159.207" x2="150.215" y2="161.936" gradientUnits="userSpaceOnUse">
<stop stop-color="#CEB7A1"/>
<stop offset="1" stop-color="#CE202F"/>
</linearGradient>
<linearGradient id="paint5_linear_402_15535" x1="142.909" y1="154.109" x2="142.909" y2="161.202" gradientUnits="userSpaceOnUse">
<stop stop-color="#CEB7A1"/>
<stop offset="1" stop-color="#CE202F"/>
</linearGradient>
<linearGradient id="paint6_linear_402_15535" x1="156.73" y1="153.383" x2="156.73" y2="161.092" gradientUnits="userSpaceOnUse">
<stop stop-color="#CEB7A1"/>
<stop offset="1" stop-color="#CE202F"/>
</linearGradient>
<linearGradient id="paint7_linear_402_15535" x1="146.043" y1="148.5" x2="146.043" y2="154.635" gradientUnits="userSpaceOnUse">
<stop stop-color="#CEB7A1"/>
<stop offset="1" stop-color="#CE202F"/>
</linearGradient>
<linearGradient id="paint8_linear_402_15535" x1="153.597" y1="159.945" x2="153.597" y2="166.696" gradientUnits="userSpaceOnUse">
<stop stop-color="#CEB7A1"/>
<stop offset="1" stop-color="#CE202F"/>
</linearGradient>
<linearGradient id="paint9_linear_402_15535" x1="189.616" y1="172.391" x2="189.616" y2="186.946" gradientUnits="userSpaceOnUse">
<stop stop-color="#CEB7A1"/>
<stop offset="1" stop-color="#CE202F"/>
</linearGradient>
<linearGradient id="paint10_linear_402_15535" x1="201.653" y1="115.797" x2="201.653" y2="133.039" gradientUnits="userSpaceOnUse">
<stop stop-color="#CEB7A1"/>
<stop offset="1" stop-color="#CE202F"/>
</linearGradient>
<linearGradient id="paint11_linear_402_15535" x1="186.652" y1="115.805" x2="186.652" y2="129.9" gradientUnits="userSpaceOnUse">
<stop stop-color="#CEB7A1"/>
<stop offset="1" stop-color="#CE202F"/>
</linearGradient>
</defs>
</svg>
