<svg width="201" height="200" viewBox="0 0 201 200" fill="none" xmlns="http://www.w3.org/2000/svg">
<g clip-path="url(#clip0_402_8927)">
<path d="M193.043 97.7675H137.627C137.627 97.7675 143.124 82.7578 151.582 82.7578C160.04 82.7578 162.688 93.1173 162.688 93.1173C162.688 93.1173 168.397 87.4909 173.084 87.4909C177.771 87.4909 181.832 94.9267 181.832 94.9267C181.832 94.9267 188.471 90.9119 193.043 97.7675Z" fill="#EBEBEB"/>
<path d="M127.227 19.6513H101.324C101.324 19.6513 107.112 11.2578 111.674 11.2578C116.237 11.2578 117.582 16.8565 117.582 16.8565C117.582 16.8565 120.805 14.2505 123.779 14.7156C126.753 15.1806 127.227 19.6513 127.227 19.6513Z" fill="#EBEBEB"/>
<path d="M176.468 37.1623H150.561C150.561 37.1623 156.348 28.7734 160.906 28.7734C165.464 28.7734 166.8 34.3675 166.8 34.3675C166.8 34.3675 170.023 31.757 172.997 32.222C175.971 32.687 176.468 37.1623 176.468 37.1623Z" fill="#EBEBEB"/>
<path d="M140.022 79.0764H114.119C114.119 79.0764 119.907 70.6875 124.465 70.6875C129.023 70.6875 130.372 76.2816 130.372 76.2816C130.372 76.2816 133.595 73.671 136.574 74.136C139.553 74.6011 140.022 79.0764 140.022 79.0764Z" fill="#EBEBEB"/>
<path d="M33.8445 96.9706H7.95508C7.95508 96.9706 13.7288 88.6094 18.2869 88.6094C22.8451 88.6094 24.1987 94.1989 24.1987 94.1989C24.1987 94.1989 27.4216 91.5883 30.396 92.0579C33.3703 92.5276 33.8445 96.9706 33.8445 96.9706Z" fill="#EBEBEB"/>
<path d="M68.229 44.9915H17.7715C17.7715 44.9915 24.6778 29.5674 32.0721 28.6005C39.4665 27.6336 42.9979 40.065 42.9979 40.065C42.9979 40.065 47.7679 35.6725 51.5157 35.6725C55.2635 35.6725 58.1411 41.4554 58.1411 41.4554C58.1411 41.4554 65.6552 37.5004 68.229 44.9915Z" fill="#EBEBEB"/>
<path d="M156.316 109.141H141.049V189.185H156.316V109.141Z" fill="#DBDBDB"/>
<path d="M146.384 111.742H143.414V114.799H146.384V111.742Z" fill="#EBEBEB"/>
<path d="M150.183 111.742H147.213V114.799H150.183V111.742Z" fill="#EBEBEB"/>
<path d="M146.384 116.93H143.414V119.987H146.384V116.93Z" fill="#EBEBEB"/>
<path d="M150.183 116.93H147.213V119.987H150.183V116.93Z" fill="#EBEBEB"/>
<path d="M146.384 122.117H143.414V125.174H146.384V122.117Z" fill="#EBEBEB"/>
<path d="M150.183 122.117H147.213V125.174H150.183V122.117Z" fill="#EBEBEB"/>
<path d="M146.384 127.305H143.414V130.362H146.384V127.305Z" fill="#EBEBEB"/>
<path d="M150.183 127.305H147.213V130.362H150.183V127.305Z" fill="#EBEBEB"/>
<path d="M146.384 132.492H143.414V135.549H146.384V132.492Z" fill="#EBEBEB"/>
<path d="M150.183 132.492H147.213V135.549H150.183V132.492Z" fill="#EBEBEB"/>
<path d="M146.384 137.688H143.414V140.745H146.384V137.688Z" fill="#EBEBEB"/>
<path d="M150.183 137.688H147.213V140.745H150.183V137.688Z" fill="#EBEBEB"/>
<path d="M146.384 142.875H143.414V145.932H146.384V142.875Z" fill="#EBEBEB"/>
<path d="M150.183 142.875H147.213V145.932H150.183V142.875Z" fill="#EBEBEB"/>
<path d="M146.384 148.062H143.414V151.12H146.384V148.062Z" fill="#EBEBEB"/>
<path d="M150.183 148.062H147.213V151.12H150.183V148.062Z" fill="#EBEBEB"/>
<path d="M146.384 153.25H143.414V156.307H146.384V153.25Z" fill="#EBEBEB"/>
<path d="M150.183 153.25H147.213V156.307H150.183V153.25Z" fill="#EBEBEB"/>
<path d="M146.384 158.438H143.414V161.495H146.384V158.438Z" fill="#EBEBEB"/>
<path d="M150.183 158.438H147.213V161.495H150.183V158.438Z" fill="#EBEBEB"/>
<path d="M146.384 163.633H143.414V166.69H146.384V163.633Z" fill="#EBEBEB"/>
<path d="M150.183 163.633H147.213V166.69H150.183V163.633Z" fill="#EBEBEB"/>
<path d="M146.384 168.82H143.414V171.878H146.384V168.82Z" fill="#EBEBEB"/>
<path d="M150.183 168.82H147.213V171.878H150.183V168.82Z" fill="#EBEBEB"/>
<path d="M146.384 174.008H143.414V177.065H146.384V174.008Z" fill="#EBEBEB"/>
<path d="M150.183 174.008H147.213V177.065H150.183V174.008Z" fill="#EBEBEB"/>
<path d="M146.384 179.195H143.414V182.253H146.384V179.195Z" fill="#EBEBEB"/>
<path d="M150.976 182.25H153.945V179.193H150.976V182.25Z" fill="#EBEBEB"/>
<path d="M150.976 177.062H153.945V174.005H150.976V177.062Z" fill="#EBEBEB"/>
<path d="M150.976 171.875H153.945V168.818H150.976V171.875Z" fill="#EBEBEB"/>
<path d="M150.976 166.688H153.945V163.63H150.976V166.688Z" fill="#EBEBEB"/>
<path d="M150.976 161.5H153.945V158.443H150.976V161.5Z" fill="#EBEBEB"/>
<path d="M150.976 156.312H153.945V153.255H150.976V156.312Z" fill="#EBEBEB"/>
<path d="M150.976 151.125H153.945V148.068H150.976V151.125Z" fill="#EBEBEB"/>
<path d="M150.976 145.938H153.945V142.88H150.976V145.938Z" fill="#EBEBEB"/>
<path d="M150.976 140.75H153.945V137.693H150.976V140.75Z" fill="#EBEBEB"/>
<path d="M150.976 135.555H153.945V132.498H150.976V135.555Z" fill="#EBEBEB"/>
<path d="M150.976 130.367H153.945V127.31H150.976V130.367Z" fill="#EBEBEB"/>
<path d="M150.976 125.18H153.945V122.122H150.976V125.18Z" fill="#EBEBEB"/>
<path d="M150.976 119.992H153.945V116.935H150.976V119.992Z" fill="#EBEBEB"/>
<path d="M150.976 114.797H153.945V111.74H150.976V114.797Z" fill="#EBEBEB"/>
<path d="M150.183 179.195H147.213V182.253H150.183V179.195Z" fill="#EBEBEB"/>
<path d="M168.356 109.141H156.316V189.185H168.356V109.141Z" fill="#A6A6A6"/>
<path d="M164.664 182.25H167.113V179.193H164.664V182.25Z" fill="#C7C7C7"/>
<path d="M161.527 182.25H163.977V179.193H161.527V182.25Z" fill="#C7C7C7"/>
<path d="M164.664 177.062H167.113V174.005H164.664V177.062Z" fill="#C7C7C7"/>
<path d="M161.527 177.062H163.977V174.005H161.527V177.062Z" fill="#C7C7C7"/>
<path d="M164.664 171.875H167.113V168.818H164.664V171.875Z" fill="#C7C7C7"/>
<path d="M161.527 171.875H163.977V168.818H161.527V171.875Z" fill="#C7C7C7"/>
<path d="M164.664 166.688H167.113V163.63H164.664V166.688Z" fill="#C7C7C7"/>
<path d="M161.527 166.688H163.977V163.63H161.527V166.688Z" fill="#C7C7C7"/>
<path d="M164.664 161.5H167.113V158.443H164.664V161.5Z" fill="#C7C7C7"/>
<path d="M161.527 161.5H163.977V158.443H161.527V161.5Z" fill="#C7C7C7"/>
<path d="M164.664 156.312H167.113V153.255H164.664V156.312Z" fill="#C7C7C7"/>
<path d="M161.527 156.312H163.977V153.255H161.527V156.312Z" fill="#C7C7C7"/>
<path d="M164.664 151.125H167.113V148.068H164.664V151.125Z" fill="#C7C7C7"/>
<path d="M161.527 151.125H163.977V148.068H161.527V151.125Z" fill="#C7C7C7"/>
<path d="M164.664 145.938H167.113V142.88H164.664V145.938Z" fill="#C7C7C7"/>
<path d="M161.527 145.938H163.977V142.88H161.527V145.938Z" fill="#C7C7C7"/>
<path d="M164.664 140.75H167.113V137.693H164.664V140.75Z" fill="#C7C7C7"/>
<path d="M161.527 140.75H163.977V137.693H161.527V140.75Z" fill="#C7C7C7"/>
<path d="M164.664 135.555H167.113V132.498H164.664V135.555Z" fill="#C7C7C7"/>
<path d="M161.527 135.555H163.977V132.498H161.527V135.555Z" fill="#C7C7C7"/>
<path d="M164.664 130.367H167.113V127.31H164.664V130.367Z" fill="#C7C7C7"/>
<path d="M161.527 130.367H163.977V127.31H161.527V130.367Z" fill="#C7C7C7"/>
<path d="M164.664 125.18H167.113V122.122H164.664V125.18Z" fill="#C7C7C7"/>
<path d="M161.527 125.18H163.977V122.122H161.527V125.18Z" fill="#C7C7C7"/>
<path d="M164.664 119.992H167.113V116.935H164.664V119.992Z" fill="#C7C7C7"/>
<path d="M161.527 119.992H163.977V116.935H161.527V119.992Z" fill="#C7C7C7"/>
<path d="M164.664 114.797H167.113V111.74H164.664V114.797Z" fill="#C7C7C7"/>
<path d="M160.869 111.742H158.42V114.799H160.869V111.742Z" fill="#C7C7C7"/>
<path d="M160.869 116.93H158.42V119.987H160.869V116.93Z" fill="#C7C7C7"/>
<path d="M160.869 122.117H158.42V125.174H160.869V122.117Z" fill="#C7C7C7"/>
<path d="M160.869 127.305H158.42V130.362H160.869V127.305Z" fill="#C7C7C7"/>
<path d="M160.869 132.492H158.42V135.549H160.869V132.492Z" fill="#C7C7C7"/>
<path d="M160.869 137.688H158.42V140.745H160.869V137.688Z" fill="#C7C7C7"/>
<path d="M160.869 142.875H158.42V145.932H160.869V142.875Z" fill="#C7C7C7"/>
<path d="M160.869 148.062H158.42V151.12H160.869V148.062Z" fill="#C7C7C7"/>
<path d="M160.869 153.25H158.42V156.307H160.869V153.25Z" fill="#C7C7C7"/>
<path d="M160.869 158.438H158.42V161.495H160.869V158.438Z" fill="#C7C7C7"/>
<path d="M160.869 163.633H158.42V166.69H160.869V163.633Z" fill="#C7C7C7"/>
<path d="M160.869 168.82H158.42V171.878H160.869V168.82Z" fill="#C7C7C7"/>
<path d="M160.869 174.008H158.42V177.065H160.869V174.008Z" fill="#C7C7C7"/>
<path d="M160.869 179.195H158.42V182.253H160.869V179.195Z" fill="#C7C7C7"/>
<path d="M161.527 114.797H163.977V111.74H161.527V114.797Z" fill="#C7C7C7"/>
<path d="M47.9002 104.828H29.8379V189.186H47.9002V104.828Z" fill="#EBEBEB"/>
<path d="M47.9001 102.977H29.4004V104.823H47.9001V102.977Z" fill="#C7C7C7"/>
<path d="M33.2966 107.547H31.4688V189.184H33.2966V107.547Z" fill="white"/>
<path d="M36.5427 107.547H34.7148V189.184H36.5427V107.547Z" fill="white"/>
<path d="M39.7829 107.547H37.9551V189.184H39.7829V107.547Z" fill="white"/>
<path d="M43.0297 107.547H41.1973V189.184H43.0297V107.547Z" fill="white"/>
<path d="M46.2654 107.547H44.4375V189.184H46.2654V107.547Z" fill="white"/>
<path d="M33.2966 109.883H31.4688V113.529H33.2966V109.883Z" fill="#EBEBEB"/>
<path d="M36.5427 109.883H34.7148V113.529H36.5427V109.883Z" fill="#EBEBEB"/>
<path d="M39.7829 109.883H37.9551V113.529H39.7829V109.883Z" fill="#EBEBEB"/>
<path d="M43.0297 109.883H41.1973V113.529H43.0297V109.883Z" fill="#EBEBEB"/>
<path d="M46.2654 109.883H44.4375V113.529H46.2654V109.883Z" fill="#EBEBEB"/>
<path d="M33.2966 115.805H31.4688V119.451H33.2966V115.805Z" fill="#EBEBEB"/>
<path d="M36.5427 115.805H34.7148V119.451H36.5427V115.805Z" fill="#EBEBEB"/>
<path d="M39.7829 115.805H37.9551V119.451H39.7829V115.805Z" fill="#EBEBEB"/>
<path d="M43.0297 115.805H41.1973V119.451H43.0297V115.805Z" fill="#EBEBEB"/>
<path d="M46.2654 115.805H44.4375V119.451H46.2654V115.805Z" fill="#EBEBEB"/>
<path d="M33.2966 121.734H31.4688V125.381H33.2966V121.734Z" fill="#EBEBEB"/>
<path d="M36.5427 121.734H34.7148V125.381H36.5427V121.734Z" fill="#EBEBEB"/>
<path d="M39.7829 121.734H37.9551V125.381H39.7829V121.734Z" fill="#EBEBEB"/>
<path d="M43.0297 121.734H41.1973V125.381H43.0297V121.734Z" fill="#EBEBEB"/>
<path d="M46.2654 121.734H44.4375V125.381H46.2654V121.734Z" fill="#EBEBEB"/>
<path d="M33.2966 127.656H31.4688V131.303H33.2966V127.656Z" fill="#EBEBEB"/>
<path d="M36.5427 127.656H34.7148V131.303H36.5427V127.656Z" fill="#EBEBEB"/>
<path d="M39.7829 127.656H37.9551V131.303H39.7829V127.656Z" fill="#EBEBEB"/>
<path d="M43.0297 127.656H41.1973V131.303H43.0297V127.656Z" fill="#EBEBEB"/>
<path d="M46.2654 127.656H44.4375V131.303H46.2654V127.656Z" fill="#EBEBEB"/>
<path d="M33.2966 133.586H31.4688V137.232H33.2966V133.586Z" fill="#EBEBEB"/>
<path d="M36.5427 133.586H34.7148V137.232H36.5427V133.586Z" fill="#EBEBEB"/>
<path d="M39.7829 133.586H37.9551V137.232H39.7829V133.586Z" fill="#EBEBEB"/>
<path d="M43.0297 133.586H41.1973V137.232H43.0297V133.586Z" fill="#EBEBEB"/>
<path d="M46.2654 133.586H44.4375V137.232H46.2654V133.586Z" fill="#EBEBEB"/>
<path d="M33.2966 139.508H31.4688V143.154H33.2966V139.508Z" fill="#EBEBEB"/>
<path d="M36.5427 139.508H34.7148V143.154H36.5427V139.508Z" fill="#EBEBEB"/>
<path d="M39.7829 139.508H37.9551V143.154H39.7829V139.508Z" fill="#EBEBEB"/>
<path d="M43.0297 139.508H41.1973V143.154H43.0297V139.508Z" fill="#EBEBEB"/>
<path d="M46.2654 139.508H44.4375V143.154H46.2654V139.508Z" fill="#EBEBEB"/>
<path d="M33.2966 145.43H31.4688V149.076H33.2966V145.43Z" fill="#EBEBEB"/>
<path d="M36.5427 145.43H34.7148V149.076H36.5427V145.43Z" fill="#EBEBEB"/>
<path d="M39.7829 145.43H37.9551V149.076H39.7829V145.43Z" fill="#EBEBEB"/>
<path d="M43.0297 145.43H41.1973V149.076H43.0297V145.43Z" fill="#EBEBEB"/>
<path d="M46.2654 145.43H44.4375V149.076H46.2654V145.43Z" fill="#EBEBEB"/>
<path d="M33.2966 151.359H31.4688V155.006H33.2966V151.359Z" fill="#EBEBEB"/>
<path d="M36.5427 151.359H34.7148V155.006H36.5427V151.359Z" fill="#EBEBEB"/>
<path d="M39.7829 151.359H37.9551V155.006H39.7829V151.359Z" fill="#EBEBEB"/>
<path d="M43.0297 151.359H41.1973V155.006H43.0297V151.359Z" fill="#EBEBEB"/>
<path d="M46.2654 151.359H44.4375V155.006H46.2654V151.359Z" fill="#EBEBEB"/>
<path d="M33.2966 157.281H31.4688V160.928H33.2966V157.281Z" fill="#EBEBEB"/>
<path d="M36.5427 157.281H34.7148V160.928H36.5427V157.281Z" fill="#EBEBEB"/>
<path d="M39.7829 157.281H37.9551V160.928H39.7829V157.281Z" fill="#EBEBEB"/>
<path d="M43.0297 157.281H41.1973V160.928H43.0297V157.281Z" fill="#EBEBEB"/>
<path d="M46.2654 157.281H44.4375V160.928H46.2654V157.281Z" fill="#EBEBEB"/>
<path d="M33.2966 163.211H31.4688V166.857H33.2966V163.211Z" fill="#EBEBEB"/>
<path d="M36.5427 163.211H34.7148V166.857H36.5427V163.211Z" fill="#EBEBEB"/>
<path d="M39.7829 163.211H37.9551V166.857H39.7829V163.211Z" fill="#EBEBEB"/>
<path d="M43.0297 163.211H41.1973V166.857H43.0297V163.211Z" fill="#EBEBEB"/>
<path d="M46.2654 163.211H44.4375V166.857H46.2654V163.211Z" fill="#EBEBEB"/>
<path d="M33.2966 169.133H31.4688V172.779H33.2966V169.133Z" fill="#EBEBEB"/>
<path d="M36.5427 169.133H34.7148V172.779H36.5427V169.133Z" fill="#EBEBEB"/>
<path d="M39.7829 169.133H37.9551V172.779H39.7829V169.133Z" fill="#EBEBEB"/>
<path d="M43.0297 169.133H41.1973V172.779H43.0297V169.133Z" fill="#EBEBEB"/>
<path d="M46.2654 169.133H44.4375V172.779H46.2654V169.133Z" fill="#EBEBEB"/>
<path d="M33.2966 175.062H31.4688V178.709H33.2966V175.062Z" fill="#EBEBEB"/>
<path d="M36.5427 175.062H34.7148V178.709H36.5427V175.062Z" fill="#EBEBEB"/>
<path d="M39.7829 175.062H37.9551V178.709H39.7829V175.062Z" fill="#EBEBEB"/>
<path d="M43.0297 175.062H41.1973V178.709H43.0297V175.062Z" fill="#EBEBEB"/>
<path d="M46.2654 175.062H44.4375V178.709H46.2654V175.062Z" fill="#EBEBEB"/>
<path d="M33.2966 180.984H31.4688V184.631H33.2966V180.984Z" fill="#EBEBEB"/>
<path d="M36.5427 180.984H34.7148V184.631H36.5427V180.984Z" fill="#EBEBEB"/>
<path d="M39.7829 180.984H37.9551V184.631H39.7829V180.984Z" fill="#EBEBEB"/>
<path d="M43.0297 180.984H41.1973V184.631H43.0297V180.984Z" fill="#EBEBEB"/>
<path d="M46.2654 180.984H44.4375V184.631H46.2654V180.984Z" fill="#EBEBEB"/>
<path d="M33.2966 186.914H31.4688V189.189H33.2966V186.914Z" fill="#EBEBEB"/>
<path d="M36.5427 186.914H34.7148V189.189H36.5427V186.914Z" fill="#EBEBEB"/>
<path d="M39.7829 186.914H37.9551V189.189H39.7829V186.914Z" fill="#EBEBEB"/>
<path d="M43.0297 186.914H41.1973V189.189H43.0297V186.914Z" fill="#EBEBEB"/>
<path d="M46.2654 186.914H44.4375V189.189H46.2654V186.914Z" fill="#EBEBEB"/>
<path d="M59.4984 104.828H47.9004V189.186H59.4984V104.828Z" fill="#DBDBDB"/>
<path d="M60.0002 102.977H47.9004V104.823H60.0002V102.977Z" fill="#C7C7C7"/>
<path d="M51.3676 107.547H49.5352V189.184H51.3676V107.547Z" fill="#C7C7C7"/>
<path d="M54.6052 107.547H52.7773V189.184H54.6052V107.547Z" fill="#C7C7C7"/>
<path d="M57.8454 107.547H56.0176V189.184H57.8454V107.547Z" fill="#C7C7C7"/>
<path d="M51.3676 109.883H49.5352V113.529H51.3676V109.883Z" fill="#DBDBDB"/>
<path d="M54.6052 109.883H52.7773V113.529H54.6052V109.883Z" fill="#DBDBDB"/>
<path d="M57.8454 109.883H56.0176V113.529H57.8454V109.883Z" fill="#DBDBDB"/>
<path d="M51.3676 115.805H49.5352V119.451H51.3676V115.805Z" fill="#DBDBDB"/>
<path d="M54.6052 115.805H52.7773V119.451H54.6052V115.805Z" fill="#DBDBDB"/>
<path d="M57.8454 115.805H56.0176V119.451H57.8454V115.805Z" fill="#DBDBDB"/>
<path d="M51.3676 121.734H49.5352V125.381H51.3676V121.734Z" fill="#DBDBDB"/>
<path d="M54.6052 121.734H52.7773V125.381H54.6052V121.734Z" fill="#DBDBDB"/>
<path d="M57.8454 121.734H56.0176V125.381H57.8454V121.734Z" fill="#DBDBDB"/>
<path d="M51.3676 127.656H49.5352V131.303H51.3676V127.656Z" fill="#DBDBDB"/>
<path d="M54.6052 127.656H52.7773V131.303H54.6052V127.656Z" fill="#DBDBDB"/>
<path d="M57.8454 127.656H56.0176V131.303H57.8454V127.656Z" fill="#DBDBDB"/>
<path d="M51.3676 133.586H49.5352V137.232H51.3676V133.586Z" fill="#DBDBDB"/>
<path d="M54.6052 133.586H52.7773V137.232H54.6052V133.586Z" fill="#DBDBDB"/>
<path d="M57.8454 133.586H56.0176V137.232H57.8454V133.586Z" fill="#DBDBDB"/>
<path d="M51.3676 139.508H49.5352V143.154H51.3676V139.508Z" fill="#DBDBDB"/>
<path d="M54.6052 139.508H52.7773V143.154H54.6052V139.508Z" fill="#DBDBDB"/>
<path d="M57.8454 139.508H56.0176V143.154H57.8454V139.508Z" fill="#DBDBDB"/>
<path d="M51.3676 145.43H49.5352V149.076H51.3676V145.43Z" fill="#DBDBDB"/>
<path d="M54.6052 145.43H52.7773V149.076H54.6052V145.43Z" fill="#DBDBDB"/>
<path d="M57.8454 145.43H56.0176V149.076H57.8454V145.43Z" fill="#DBDBDB"/>
<path d="M51.3676 151.359H49.5352V155.006H51.3676V151.359Z" fill="#DBDBDB"/>
<path d="M54.6052 151.359H52.7773V155.006H54.6052V151.359Z" fill="#DBDBDB"/>
<path d="M57.8454 151.359H56.0176V155.006H57.8454V151.359Z" fill="#DBDBDB"/>
<path d="M51.3676 157.281H49.5352V160.928H51.3676V157.281Z" fill="#DBDBDB"/>
<path d="M54.6052 157.281H52.7773V160.928H54.6052V157.281Z" fill="#DBDBDB"/>
<path d="M57.8454 157.281H56.0176V160.928H57.8454V157.281Z" fill="#DBDBDB"/>
<path d="M51.3676 163.211H49.5352V166.857H51.3676V163.211Z" fill="#DBDBDB"/>
<path d="M54.6052 163.211H52.7773V166.857H54.6052V163.211Z" fill="#DBDBDB"/>
<path d="M57.8454 163.211H56.0176V166.857H57.8454V163.211Z" fill="#DBDBDB"/>
<path d="M51.3676 169.133H49.5352V172.779H51.3676V169.133Z" fill="#DBDBDB"/>
<path d="M54.6052 169.133H52.7773V172.779H54.6052V169.133Z" fill="#DBDBDB"/>
<path d="M57.8454 169.133H56.0176V172.779H57.8454V169.133Z" fill="#DBDBDB"/>
<path d="M51.3676 175.062H49.5352V178.709H51.3676V175.062Z" fill="#DBDBDB"/>
<path d="M54.6052 175.062H52.7773V178.709H54.6052V175.062Z" fill="#DBDBDB"/>
<path d="M57.8454 175.062H56.0176V178.709H57.8454V175.062Z" fill="#DBDBDB"/>
<path d="M51.3676 180.984H49.5352V184.631H51.3676V180.984Z" fill="#DBDBDB"/>
<path d="M54.6052 180.984H52.7773V184.631H54.6052V180.984Z" fill="#DBDBDB"/>
<path d="M57.8454 180.984H56.0176V184.631H57.8454V180.984Z" fill="#DBDBDB"/>
<path d="M51.3676 186.914H49.5352V189.189H51.3676V186.914Z" fill="#DBDBDB"/>
<path d="M54.6052 186.914H52.7773V189.189H54.6052V186.914Z" fill="#DBDBDB"/>
<path d="M57.8454 186.914H56.0176V189.189H57.8454V186.914Z" fill="#DBDBDB"/>
<path d="M25.1468 135.828H7.1582V189.186H25.1468V135.828Z" fill="#EBEBEB"/>
<path d="M25.1474 131.305H9.71875V135.831H25.1474V131.305Z" fill="#C7C7C7"/>
<path d="M23.1756 138.188H9.13281V189.184H23.1756V138.188Z" fill="#DBDBDB"/>
<path d="M23.1756 143.055H9.13281V144.261H23.1756V143.055Z" fill="white"/>
<path d="M23.1756 148.047H9.13281V149.253H23.1756V148.047Z" fill="white"/>
<path d="M23.1756 153.039H9.13281V154.245H23.1756V153.039Z" fill="white"/>
<path d="M23.1756 158.031H9.13281V159.238H23.1756V158.031Z" fill="white"/>
<path d="M23.1756 163.023H9.13281V164.23H23.1756V163.023Z" fill="white"/>
<path d="M23.1756 168.016H9.13281V169.222H23.1756V168.016Z" fill="white"/>
<path d="M23.1756 173H9.13281V174.206H23.1756V173Z" fill="white"/>
<path d="M23.1756 177.992H9.13281V179.198H23.1756V177.992Z" fill="white"/>
<path d="M23.1756 182.992H9.13281V184.198H23.1756V182.992Z" fill="white"/>
<path d="M23.1756 187.984H9.13281V189.191H23.1756V187.984Z" fill="white"/>
<path d="M36.413 135.828H25.1465V189.186H36.413V135.828Z" fill="#DBDBDB"/>
<path d="M34.7232 131.305H25.1465V135.831H34.7232V131.305Z" fill="#A6A6A6"/>
<path d="M35.3597 138.188H26.6992V189.184H35.3597V138.188Z" fill="#C7C7C7"/>
<path d="M35.3597 143.055H26.6992V144.261H35.3597V143.055Z" fill="white"/>
<path d="M35.3597 148.047H26.6992V149.253H35.3597V148.047Z" fill="white"/>
<path d="M35.3597 153.039H26.6992V154.245H35.3597V153.039Z" fill="white"/>
<path d="M35.3597 158.031H26.6992V159.238H35.3597V158.031Z" fill="white"/>
<path d="M35.3597 163.023H26.6992V164.23H35.3597V163.023Z" fill="white"/>
<path d="M35.3597 168.016H26.6992V169.222H35.3597V168.016Z" fill="white"/>
<path d="M35.3597 173H26.6992V174.206H35.3597V173Z" fill="white"/>
<path d="M35.3597 177.992H26.6992V179.198H35.3597V177.992Z" fill="white"/>
<path d="M35.3597 182.992H26.6992V184.198H35.3597V182.992Z" fill="white"/>
<path d="M35.3597 187.984H26.6992V189.191H35.3597V187.984Z" fill="white"/>
<path d="M75.559 157.945H61.6543V189.18H75.559V157.945Z" fill="#DBDBDB"/>
<path d="M66.2985 160.648H63.8398V162.564H66.2985V160.648Z" fill="#C7C7C7"/>
<path d="M66.2985 164.742H63.8398V166.658H66.2985V164.742Z" fill="#C7C7C7"/>
<path d="M66.2985 168.828H63.8398V170.743H66.2985V168.828Z" fill="#C7C7C7"/>
<path d="M66.2985 172.914H63.8398V174.829H66.2985V172.914Z" fill="#C7C7C7"/>
<path d="M66.2985 177.008H63.8398V178.923H66.2985V177.008Z" fill="#C7C7C7"/>
<path d="M66.2985 181.086H63.8398V183.001H66.2985V181.086Z" fill="#C7C7C7"/>
<path d="M66.2985 185.18H63.8398V187.095H66.2985V185.18Z" fill="#C7C7C7"/>
<path d="M69.8395 160.648H67.3809V162.564H69.8395V160.648Z" fill="#C7C7C7"/>
<path d="M69.8395 164.742H67.3809V166.658H69.8395V164.742Z" fill="#C7C7C7"/>
<path d="M69.8395 168.828H67.3809V170.743H69.8395V168.828Z" fill="#C7C7C7"/>
<path d="M69.8395 172.914H67.3809V174.829H69.8395V172.914Z" fill="#C7C7C7"/>
<path d="M69.8395 177.008H67.3809V178.923H69.8395V177.008Z" fill="#C7C7C7"/>
<path d="M69.8395 181.086H67.3809V183.001H69.8395V181.086Z" fill="#C7C7C7"/>
<path d="M69.8395 185.18H67.3809V187.095H69.8395V185.18Z" fill="#C7C7C7"/>
<path d="M73.3708 160.648H70.9121V162.564H73.3708V160.648Z" fill="#C7C7C7"/>
<path d="M73.3708 164.742H70.9121V166.658H73.3708V164.742Z" fill="#C7C7C7"/>
<path d="M73.3708 168.828H70.9121V170.743H73.3708V168.828Z" fill="#C7C7C7"/>
<path d="M73.3708 172.914H70.9121V174.829H73.3708V172.914Z" fill="#C7C7C7"/>
<path d="M73.3708 177.008H70.9121V178.923H73.3708V177.008Z" fill="#C7C7C7"/>
<path d="M73.3708 181.086H70.9121V183.001H73.3708V181.086Z" fill="#C7C7C7"/>
<path d="M73.3708 185.18H70.9121V187.095H73.3708V185.18Z" fill="#C7C7C7"/>
<path d="M85.3149 157.945H75.5586V189.18H85.3149V157.945Z" fill="#A6A6A6"/>
<path d="M82.3116 186.781H84.3145V184.866H82.3116V186.781Z" fill="#C7C7C7"/>
<path d="M82.3116 182.703H84.3145V180.788H82.3116V182.703Z" fill="#C7C7C7"/>
<path d="M82.3116 178.609H84.3145V176.694H82.3116V178.609Z" fill="#C7C7C7"/>
<path d="M82.3116 174.531H84.3145V172.616H82.3116V174.531Z" fill="#C7C7C7"/>
<path d="M82.3116 170.438H84.3145V168.522H82.3116V170.438Z" fill="#C7C7C7"/>
<path d="M82.3116 166.344H84.3145V164.428H82.3116V166.344Z" fill="#C7C7C7"/>
<path d="M82.3116 162.266H84.3145V160.35H82.3116V162.266Z" fill="#C7C7C7"/>
<path d="M79.4308 186.781H81.4336V184.866H79.4308V186.781Z" fill="#C7C7C7"/>
<path d="M79.4308 182.703H81.4336V180.788H79.4308V182.703Z" fill="#C7C7C7"/>
<path d="M79.4308 178.609H81.4336V176.694H79.4308V178.609Z" fill="#C7C7C7"/>
<path d="M79.4308 174.531H81.4336V172.616H79.4308V174.531Z" fill="#C7C7C7"/>
<path d="M79.4308 170.438H81.4336V168.522H79.4308V170.438Z" fill="#C7C7C7"/>
<path d="M79.4308 166.344H81.4336V164.428H79.4308V166.344Z" fill="#C7C7C7"/>
<path d="M79.4308 162.266H81.4336V160.35H79.4308V162.266Z" fill="#C7C7C7"/>
<path d="M76.5577 186.781H78.5605V184.866H76.5577V186.781Z" fill="#C7C7C7"/>
<path d="M76.5577 182.703H78.5605V180.788H76.5577V182.703Z" fill="#C7C7C7"/>
<path d="M76.5577 178.609H78.5605V176.694H76.5577V178.609Z" fill="#C7C7C7"/>
<path d="M76.5577 174.531H78.5605V172.616H76.5577V174.531Z" fill="#C7C7C7"/>
<path d="M76.5577 170.438H78.5605V168.522H76.5577V170.438Z" fill="#C7C7C7"/>
<path d="M76.5577 166.344H78.5605V164.428H76.5577V166.344Z" fill="#C7C7C7"/>
<path d="M76.5577 162.266H78.5605V160.35H76.5577V162.266Z" fill="#C7C7C7"/>
<path d="M179.005 122.117H169.4V133.467H179.005V122.117Z" fill="#DBDBDB"/>
<path d="M185.101 122.117H179.01V133.881H185.101V122.117Z" fill="#C7C7C7"/>
<path d="M185.506 127.133H179.461V133.887H185.506V127.133Z" fill="#DBDBDB"/>
<path d="M189.277 127.133H185.506V133.887H189.277V127.133Z" fill="#C7C7C7"/>
<path d="M181.251 132.734H165.717V189.187H181.251V132.734Z" fill="#EBEBEB"/>
<path d="M172.379 135.156H167.494V137.15H172.379V135.156Z" fill="white"/>
<path d="M178.627 135.156H173.742V137.15H178.627V135.156Z" fill="white"/>
<path d="M172.379 138.547H167.494V140.541H172.379V138.547Z" fill="white"/>
<path d="M178.627 138.547H173.742V140.541H178.627V138.547Z" fill="white"/>
<path d="M172.379 141.938H167.494V143.931H172.379V141.938Z" fill="white"/>
<path d="M178.627 141.938H173.742V143.931H178.627V141.938Z" fill="white"/>
<path d="M172.379 145.32H167.494V147.314H172.379V145.32Z" fill="white"/>
<path d="M178.627 145.32H173.742V147.314H178.627V145.32Z" fill="white"/>
<path d="M172.379 148.711H167.494V150.705H172.379V148.711Z" fill="white"/>
<path d="M178.627 148.711H173.742V150.705H178.627V148.711Z" fill="white"/>
<path d="M172.379 152.102H167.494V154.095H172.379V152.102Z" fill="white"/>
<path d="M178.627 152.102H173.742V154.095H178.627V152.102Z" fill="white"/>
<path d="M172.379 155.492H167.494V157.486H172.379V155.492Z" fill="white"/>
<path d="M178.627 155.492H173.742V157.486H178.627V155.492Z" fill="white"/>
<path d="M172.379 158.875H167.494V160.869H172.379V158.875Z" fill="white"/>
<path d="M178.627 158.875H173.742V160.869H178.627V158.875Z" fill="white"/>
<path d="M172.379 162.266H167.494V164.259H172.379V162.266Z" fill="white"/>
<path d="M178.627 162.266H173.742V164.259H178.627V162.266Z" fill="white"/>
<path d="M172.379 165.656H167.494V167.65H172.379V165.656Z" fill="white"/>
<path d="M178.627 165.656H173.742V167.65H178.627V165.656Z" fill="white"/>
<path d="M172.379 169.047H167.494V171.04H172.379V169.047Z" fill="white"/>
<path d="M178.627 169.047H173.742V171.04H178.627V169.047Z" fill="white"/>
<path d="M172.379 172.43H167.494V174.428H172.379V172.43Z" fill="white"/>
<path d="M178.627 172.43H173.742V174.428H178.627V172.43Z" fill="white"/>
<path d="M172.379 175.82H167.494V177.814H172.379V175.82Z" fill="white"/>
<path d="M178.627 175.82H173.742V177.814H178.627V175.82Z" fill="white"/>
<path d="M172.379 179.211H167.494V181.205H172.379V179.211Z" fill="white"/>
<path d="M178.627 179.211H173.742V181.205H178.627V179.211Z" fill="white"/>
<path d="M193.84 132.734H181.252V189.187H193.84V132.734Z" fill="#C7C7C7"/>
<path d="M188.568 181.203H192.578V179.21H188.568V181.203Z" fill="#EBEBEB"/>
<path d="M183.435 181.203H187.445V179.21H183.435V181.203Z" fill="#EBEBEB"/>
<path d="M188.568 177.812H192.578V175.819H188.568V177.812Z" fill="#EBEBEB"/>
<path d="M183.435 177.812H187.445V175.819H183.435V177.812Z" fill="#EBEBEB"/>
<path d="M188.568 174.43H192.578V172.431H188.568V174.43Z" fill="#EBEBEB"/>
<path d="M183.435 174.43H187.445V172.431H183.435V174.43Z" fill="#EBEBEB"/>
<path d="M188.568 171.039H192.578V169.045H188.568V171.039Z" fill="#EBEBEB"/>
<path d="M183.435 171.039H187.445V169.045H183.435V171.039Z" fill="#EBEBEB"/>
<path d="M188.568 167.648H192.578V165.655H188.568V167.648Z" fill="#EBEBEB"/>
<path d="M183.435 167.648H187.445V165.655H183.435V167.648Z" fill="#EBEBEB"/>
<path d="M188.568 164.258H192.578V162.264H188.568V164.258Z" fill="#EBEBEB"/>
<path d="M183.435 164.258H187.445V162.264H183.435V164.258Z" fill="#EBEBEB"/>
<path d="M188.568 160.875H192.578V158.881H188.568V160.875Z" fill="#EBEBEB"/>
<path d="M183.435 160.875H187.445V158.881H183.435V160.875Z" fill="#EBEBEB"/>
<path d="M188.568 157.484H192.578V155.491H188.568V157.484Z" fill="#EBEBEB"/>
<path d="M183.435 157.484H187.445V155.491H183.435V157.484Z" fill="#EBEBEB"/>
<path d="M188.568 154.094H192.578V152.1H188.568V154.094Z" fill="#EBEBEB"/>
<path d="M183.435 154.094H187.445V152.1H183.435V154.094Z" fill="#EBEBEB"/>
<path d="M188.568 150.703H192.578V148.71H188.568V150.703Z" fill="#EBEBEB"/>
<path d="M183.435 150.703H187.445V148.71H183.435V150.703Z" fill="#EBEBEB"/>
<path d="M188.568 147.32H192.578V145.327H188.568V147.32Z" fill="#EBEBEB"/>
<path d="M183.435 147.32H187.445V145.327H183.435V147.32Z" fill="#EBEBEB"/>
<path d="M188.568 143.93H192.578V141.936H188.568V143.93Z" fill="#EBEBEB"/>
<path d="M183.435 143.93H187.445V141.936H183.435V143.93Z" fill="#EBEBEB"/>
<path d="M188.568 140.539H192.578V138.545H188.568V140.539Z" fill="#EBEBEB"/>
<path d="M183.435 140.539H187.445V138.545H183.435V140.539Z" fill="#EBEBEB"/>
<path d="M188.568 137.156H192.578V135.163H188.568V137.156Z" fill="#EBEBEB"/>
<path d="M183.435 137.156H187.445V135.163H183.435V137.156Z" fill="#EBEBEB"/>
<path d="M115.527 152.398H97.207V189.186H115.527V152.398Z" fill="#C7C7C7"/>
<path d="M103.331 155.578H100.09V157.83H103.331V155.578Z" fill="#DBDBDB"/>
<path d="M103.331 160.398H100.09V162.654H103.331V160.398Z" fill="#DBDBDB"/>
<path d="M103.331 165.211H100.09V167.467H103.331V165.211Z" fill="#DBDBDB"/>
<path d="M103.331 170.023H100.09V172.28H103.331V170.023Z" fill="#DBDBDB"/>
<path d="M103.331 174.836H100.09V177.092H103.331V174.836Z" fill="#DBDBDB"/>
<path d="M103.331 179.648H100.09V181.905H103.331V179.648Z" fill="#DBDBDB"/>
<path d="M103.331 184.461H100.09V186.717H103.331V184.461Z" fill="#DBDBDB"/>
<path d="M107.995 155.578H104.754V157.83H107.995V155.578Z" fill="#DBDBDB"/>
<path d="M107.995 160.398H104.754V162.654H107.995V160.398Z" fill="#DBDBDB"/>
<path d="M107.995 165.211H104.754V167.467H107.995V165.211Z" fill="#DBDBDB"/>
<path d="M107.995 170.023H104.754V172.28H107.995V170.023Z" fill="#DBDBDB"/>
<path d="M107.995 174.836H104.754V177.092H107.995V174.836Z" fill="#DBDBDB"/>
<path d="M107.995 179.648H104.754V181.905H107.995V179.648Z" fill="#DBDBDB"/>
<path d="M107.995 184.461H104.754V186.717H107.995V184.461Z" fill="#DBDBDB"/>
<path d="M112.646 155.578H109.404V157.83H112.646V155.578Z" fill="#DBDBDB"/>
<path d="M112.646 160.398H109.404V162.654H112.646V160.398Z" fill="#DBDBDB"/>
<path d="M112.646 165.211H109.404V167.467H112.646V165.211Z" fill="#DBDBDB"/>
<path d="M112.646 170.023H109.404V172.28H112.646V170.023Z" fill="#DBDBDB"/>
<path d="M112.646 174.836H109.404V177.092H112.646V174.836Z" fill="#DBDBDB"/>
<path d="M112.646 179.648H109.404V181.905H112.646V179.648Z" fill="#DBDBDB"/>
<path d="M112.646 184.461H109.404V186.717H112.646V184.461Z" fill="#DBDBDB"/>
<path d="M115.527 148.562H103.33V152.393H115.527V148.562Z" fill="#DBDBDB"/>
<path d="M115.532 146.195H107.797V148.566H115.532V146.195Z" fill="#EBEBEB"/>
<path d="M128.382 152.398H115.527V189.186H128.382V152.398Z" fill="#A6A6A6"/>
<path d="M124.432 186.359H127.07V184.103H124.432V186.359Z" fill="#C7C7C7"/>
<path d="M124.432 181.547H127.07V179.291H124.432V181.547Z" fill="#C7C7C7"/>
<path d="M124.432 176.734H127.07V174.478H124.432V176.734Z" fill="#C7C7C7"/>
<path d="M124.432 171.914H127.07V169.658H124.432V171.914Z" fill="#C7C7C7"/>
<path d="M124.432 167.109H127.07V164.853H124.432V167.109Z" fill="#C7C7C7"/>
<path d="M124.432 162.289H127.07V160.033H124.432V162.289Z" fill="#C7C7C7"/>
<path d="M124.432 157.477H127.07V155.221H124.432V157.477Z" fill="#C7C7C7"/>
<path d="M120.633 186.359H123.271V184.103H120.633V186.359Z" fill="#C7C7C7"/>
<path d="M120.633 181.547H123.271V179.291H120.633V181.547Z" fill="#C7C7C7"/>
<path d="M120.633 176.734H123.271V174.478H120.633V176.734Z" fill="#C7C7C7"/>
<path d="M120.633 171.914H123.271V169.658H120.633V171.914Z" fill="#C7C7C7"/>
<path d="M120.633 167.109H123.271V164.853H120.633V167.109Z" fill="#C7C7C7"/>
<path d="M120.633 162.289H123.271V160.033H120.633V162.289Z" fill="#C7C7C7"/>
<path d="M120.633 157.477H123.271V155.221H120.633V157.477Z" fill="#C7C7C7"/>
<path d="M116.848 186.359H119.486V184.103H116.848V186.359Z" fill="#C7C7C7"/>
<path d="M116.848 181.547H119.486V179.291H116.848V181.547Z" fill="#C7C7C7"/>
<path d="M116.848 176.734H119.486V174.478H116.848V176.734Z" fill="#C7C7C7"/>
<path d="M116.848 171.914H119.486V169.658H116.848V171.914Z" fill="#C7C7C7"/>
<path d="M116.848 167.109H119.486V164.853H116.848V167.109Z" fill="#C7C7C7"/>
<path d="M116.848 162.289H119.486V160.033H116.848V162.289Z" fill="#C7C7C7"/>
<path d="M116.848 157.477H119.486V155.221H116.848V157.477Z" fill="#C7C7C7"/>
<path d="M126.435 148.562H115.527V152.393H126.435V148.562Z" fill="#C7C7C7"/>
<path d="M121.439 146.195H115.527V148.566H121.439V146.195Z" fill="#DBDBDB"/>
<path d="M197.178 192.105L173.011 192.216L148.839 192.257L100.499 192.335L52.1598 192.257L27.9924 192.216L3.82031 192.105L27.9924 191.99L52.1598 191.953L100.499 191.875L148.839 191.953L173.011 191.995L197.178 192.105Z" fill="#1F1F1F"/>
<path d="M197.178 189.18H3.82031V191.984H197.178V189.18Z" fill="#C7C7C7"/>
<path d="M17.3748 189.182C17.5361 189.633 17.6141 190.109 17.605 190.587C17.6141 191.057 17.5361 191.526 17.3748 191.968C17.0678 191.059 17.0678 190.074 17.3748 189.164V189.182Z" fill="#1F1F1F"/>
<path d="M32.4911 189.18C32.7981 190.089 32.7981 191.074 32.4911 191.984C32.3298 191.541 32.2517 191.073 32.2608 190.602C32.2495 190.118 32.3275 189.636 32.4911 189.18Z" fill="#1F1F1F"/>
<path d="M47.6014 189.182C47.7627 189.633 47.8407 190.109 47.8316 190.587C47.8407 191.057 47.7626 191.526 47.6014 191.968C47.2943 191.059 47.2943 190.074 47.6014 189.164V189.182Z" fill="#1F1F1F"/>
<path d="M62.7176 189.18C63.0246 190.089 63.0246 191.074 62.7176 191.984C62.5564 191.541 62.4783 191.073 62.4874 190.602C62.4761 190.118 62.5541 189.636 62.7176 189.18Z" fill="#1F1F1F"/>
<path d="M77.8279 189.182C77.9892 189.633 78.0672 190.109 78.0581 190.587C78.0672 191.057 77.9892 191.526 77.8279 191.968C77.5209 191.059 77.5209 190.074 77.8279 189.164V189.182Z" fill="#1F1F1F"/>
<path d="M92.9442 189.18C93.2512 190.089 93.2512 191.074 92.9442 191.984C92.7829 191.541 92.7049 191.073 92.714 190.602C92.7026 190.118 92.7807 189.636 92.9442 189.18Z" fill="#1F1F1F"/>
<path d="M108.054 189.182C108.216 189.633 108.294 190.109 108.285 190.587C108.294 191.057 108.216 191.526 108.054 191.968C107.747 191.059 107.747 190.074 108.054 189.164V189.182Z" fill="#1F1F1F"/>
<path d="M123.171 189.18C123.478 190.089 123.478 191.074 123.171 191.984C123.009 191.541 122.931 191.073 122.941 190.602C122.929 190.118 123.007 189.636 123.171 189.18Z" fill="#1F1F1F"/>
<path d="M138.281 189.182C138.442 189.633 138.52 190.109 138.511 190.587C138.52 191.057 138.442 191.526 138.281 191.968C137.974 191.059 137.974 190.074 138.281 189.164V189.182Z" fill="#1F1F1F"/>
<path d="M153.397 189.18C153.704 190.089 153.704 191.074 153.397 191.984C153.236 191.541 153.158 191.073 153.167 190.602C153.156 190.118 153.234 189.636 153.397 189.18Z" fill="#1F1F1F"/>
<path d="M168.508 189.182C168.669 189.633 168.747 190.109 168.738 190.587C168.747 191.057 168.669 191.526 168.508 191.968C168.201 191.059 168.201 190.074 168.508 189.164V189.182Z" fill="#1F1F1F"/>
<path d="M183.624 189.18C183.931 190.089 183.931 191.074 183.624 191.984C183.463 191.541 183.385 191.073 183.394 190.602C183.382 190.118 183.46 189.636 183.624 189.18Z" fill="#1F1F1F"/>
<path d="M162.312 12.7139L162.201 12.387C162.491 12.2857 162.786 12.1936 163.081 12.1016L163.182 12.4285L162.312 12.7139Z" fill="#1F1F1F"/>
<path d="M118.664 49.9359L118.59 49.5952C119.198 49.4708 119.801 49.3189 120.385 49.1347L120.478 49.4662C119.888 49.655 119.276 49.807 118.664 49.9359ZM122.692 48.7342L122.568 48.4119C123.134 48.1909 123.705 47.9515 124.258 47.6752L124.405 47.9883C123.843 48.2599 123.268 48.5086 122.692 48.7342ZM126.463 46.8925L126.283 46.5978C126.804 46.2847 127.324 45.944 127.83 45.5895L128.028 45.8704C127.513 46.2157 126.988 46.5564 126.463 46.8741V46.8925ZM129.884 44.4523L129.663 44.1852C130.123 43.8031 130.584 43.3887 131.044 42.9605L131.279 43.2137C130.823 43.6281 130.354 44.0425 129.884 44.4339V44.4523ZM132.955 41.57L132.702 41.3306C133.116 40.9024 133.535 40.442 133.959 39.9494L134.217 40.1796C133.793 40.6538 133.369 41.1188 132.955 41.5516V41.57ZM135.717 38.4116L135.45 38.1906C135.842 37.7301 136.224 37.2283 136.606 36.7356L136.878 36.9474C136.5 37.4263 136.115 37.9082 135.722 38.3931L135.717 38.4116ZM138.287 35.0873L138.01 34.8847L139.115 33.3838L139.392 33.5863L138.287 35.0873ZM140.759 31.6986L140.478 31.496L141.579 29.9859L141.855 30.1884L140.759 31.6986ZM143.241 28.2961L142.964 28.0889C143.337 27.5917 143.715 27.0944 144.097 26.6018L144.369 26.8136C143.987 27.3062 143.614 27.7989 143.241 28.2961ZM145.814 24.9949L145.547 24.7739C145.943 24.3135 146.344 23.8162 146.754 23.3466L147.012 23.5722C146.606 24.0418 146.206 24.5161 145.814 24.9949ZM148.577 21.8502L148.324 21.6154C148.761 21.155 149.203 20.6946 149.636 20.2802L149.88 20.5288C149.443 20.9294 149.001 21.3898 148.572 21.8502H148.577ZM151.584 18.9588L151.358 18.6964C151.818 18.282 152.32 17.8814 152.799 17.5085L153.015 17.7801C152.527 18.1669 152.067 18.5444 151.579 18.9588H151.584ZM154.885 16.4173L154.691 16.1318C155.207 15.7819 155.737 15.4412 156.266 15.1281L156.446 15.4228C155.916 15.7359 155.391 16.072 154.88 16.4173H154.885ZM158.471 14.3178L158.32 14.0093C158.872 13.733 159.448 13.4706 160.018 13.2266L160.152 13.5443C159.581 13.7837 159.019 14.0461 158.467 14.3178H158.471Z" fill="#1F1F1F"/>
<path d="M115.396 50.4186L115.363 50.0732C115.67 50.0456 115.977 50.0134 116.284 49.9766L116.326 50.3173L115.396 50.4186Z" fill="#1F1F1F"/>
<path d="M166.66 6.43569L163.133 12.2738L168.676 9.46525L188.359 6.42188L166.66 6.43569Z" fill="#CEB7A1"/>
<path opacity="0.1" d="M166.66 6.43569L163.133 12.2738L168.676 9.46525L188.359 6.42188L166.66 6.43569Z" fill="black"/>
<path d="M169.008 11.0494L163.133 12.2695L168.676 9.46094L169.008 11.0494Z" fill="#1F1F1F"/>
<path d="M168.676 9.46525L188.359 6.42188L170.393 18.158L168.676 9.46525Z" fill="#CEB7A1"/>
<path d="M166.658 6.43207L159.996 0L188.358 6.41826L166.658 6.43207Z" fill="#CEB7A1"/>
<path d="M56.9172 55.8203H50.9824V189.181H56.9172V55.8203Z" fill="#37474F"/>
<path d="M56.9223 189.18H60.1406L60.1406 55.8189H56.9223L56.9223 189.18Z" fill="#455A64"/>
<path d="M56.9163 54.1406H50.4336V55.8166H56.9163V54.1406Z" fill="#1F1F1F"/>
<path d="M56.9172 55.8203H60.6973V54.1444H56.9172V55.8203Z" fill="#37474F"/>
<path d="M56.9173 52.6562H51.7422V54.1434H56.9173V52.6562Z" fill="#37474F"/>
<path d="M59.5055 52.6562H56.918V54.1434H59.5055V52.6562Z" fill="#455A64"/>
<path d="M58.9933 49.3128C58.9924 49.9746 58.7953 50.6213 58.427 51.1712C58.0586 51.721 57.5355 52.1493 56.9238 52.402C56.3121 52.6546 55.6392 52.7202 54.9902 52.5906C54.3412 52.4609 53.7452 52.1417 53.2776 51.6734C52.8099 51.2051 52.4916 50.6087 52.3628 49.9595C52.234 49.3103 52.3006 48.6376 52.5541 48.0262C52.8075 47.4148 53.2366 46.8923 53.7869 46.5247C54.3373 46.1571 54.9843 45.9609 55.6461 45.9609C56.086 45.9609 56.5217 46.0477 56.9281 46.2162C57.3345 46.3847 57.7037 46.6316 58.0146 46.9429C58.3255 47.2543 58.5719 47.6238 58.7399 48.0304C58.9078 48.4371 58.9939 48.8728 58.9933 49.3128Z" fill="#37474F"/>
<path d="M31.4002 67.3531V81.6261H16.0176V67.4866C16.017 66.4934 16.2121 65.5098 16.5917 64.592C16.9714 63.6743 17.5282 62.8403 18.2303 62.1378C18.9323 61.4353 19.766 60.878 20.6835 60.4978C21.601 60.1176 22.5845 59.9219 23.5777 59.9219H23.969C25.9399 59.9219 27.8301 60.7048 29.2237 62.0984C30.6173 63.492 31.4002 65.3822 31.4002 67.3531Z" fill="#CEB7A1"/>
<path d="M55.6457 66.1928V81.6399H31.3999V67.3669C31.4018 66.3898 31.2109 65.422 30.8382 64.5188C30.4656 63.6157 29.9185 62.7948 29.2283 62.1033C28.5381 61.4118 27.7182 60.8632 26.8157 60.4889C25.9132 60.1145 24.9458 59.9219 23.9688 59.9219H49.3932C51.0531 59.9268 52.6434 60.5896 53.8155 61.7651C54.9875 62.9406 55.6457 64.5328 55.6457 66.1928Z" fill="#CEB7A1"/>
<path opacity="0.1" d="M55.6457 66.1928V81.6399H31.3999V67.3669C31.4018 66.3898 31.2109 65.422 30.8382 64.5188C30.4656 63.6157 29.9185 62.7948 29.2283 62.1033C28.5381 61.4118 27.7182 60.8632 26.8157 60.4889C25.9132 60.1145 24.9458 59.9219 23.9688 59.9219H49.3932C51.0531 59.9268 52.6434 60.5896 53.8155 61.7651C54.9875 62.9406 55.6457 64.5328 55.6457 66.1928Z" fill="#020100"/>
<path opacity="0.1" d="M35.6079 67.0768V81.6399H34.618V67.3669C34.6198 66.3902 34.4291 65.4228 34.0567 64.5199C33.6844 63.617 33.1377 62.7964 32.448 62.1049C31.7582 61.4135 30.9389 60.8648 30.037 60.4902C29.135 60.1156 28.1681 59.9225 27.1914 59.9219H28.453C30.3506 59.9219 32.1704 60.6757 33.5123 62.0175C34.8541 63.3593 35.6079 65.1792 35.6079 67.0768Z" fill="#020100"/>
<path opacity="0.1" d="M53.395 67.0786V81.6417H52.4051V67.3687C52.4051 65.3986 51.6228 63.5092 50.2302 62.1157C48.8376 60.7222 46.9486 59.9387 44.9785 59.9375H46.2401C48.1353 59.9375 49.9531 60.6894 51.2945 62.0282C52.6359 63.3671 53.3913 65.1834 53.395 67.0786Z" fill="#020100"/>
<g opacity="0.1">
<path d="M40.9911 77.8101V75.508L40.1577 77.1839H39.6973L38.8639 75.508V77.8101H37.9707V73.9609H38.9376L39.9367 75.9684L40.9358 73.9609H41.8981V77.8101H40.9911Z" fill="#020100"/>
<path d="M43.6606 73.9609H44.4663L45.8476 77.8101H44.9267L44.6274 76.9445H43.4304L43.1357 77.8101H42.2148L43.6606 73.9609ZM44.5123 76.3321L44.0519 74.9508L43.5915 76.3321H44.5123Z" fill="#020100"/>
<path d="M46.25 77.8101V73.9609H47.1386V77.8101H46.25Z" fill="#020100"/>
<path d="M47.875 77.8101V73.9609H48.7636V77.0273H50.6283V77.8101H47.875Z" fill="#020100"/>
</g>
<path opacity="0.3" d="M30.6134 67.7028V80.5301H16.8008V67.8225C16.8008 66.9291 16.977 66.0445 17.3195 65.2193C17.6619 64.3942 18.1638 63.6447 18.7964 63.0138C19.429 62.383 20.1798 61.8831 21.0059 61.5429C21.8319 61.2027 22.717 61.0289 23.6104 61.0313H23.9603C25.7265 61.0362 27.4187 61.7412 28.6659 62.9918C29.913 64.2424 30.6134 65.9366 30.6134 67.7028Z" fill="#020100"/>
<path d="M14.3104 83.0836L16.0186 81.6562H31.4012L29.8542 82.95C24.8771 87.126 18.0675 90.5147 13.8915 90.5147H12.8877C8.7854 90.5009 8.19145 87.7937 14.3104 83.0836Z" fill="#37474F"/>
<path d="M31.3959 81.6406L29.8535 82.9344C24.8764 87.1104 18.0668 90.4991 13.8907 90.4991H12.7996C8.77548 90.4577 8.23218 87.7366 14.3097 83.0679L16.0133 81.6406H31.3959Z" fill="#37474F"/>
<path d="M30.2587 81.6406L28.7163 82.9344C23.7576 87.0782 16.9802 90.4715 12.7996 90.4991C8.77548 90.4577 8.23218 87.7366 14.3097 83.0679L16.0133 81.6406H30.2587Z" fill="#455A64"/>
<path d="M53.2668 87.976V91.9034L45.1035 81.6406H48.2298L53.2668 87.976Z" fill="#455A64"/>
<path d="M53.2655 91.9034H52.1144L43.9512 81.6406H45.1068L53.2655 91.9034Z" fill="#37474F"/>
<path d="M40.6466 53.2788V56.9161H37.3177V70.5768C37.3177 70.8821 37.1965 71.1749 36.9806 71.3907C36.7647 71.6066 36.472 71.7279 36.1667 71.7279C35.8614 71.7279 35.5686 71.6066 35.3528 71.3907C35.1369 71.1749 35.0156 70.8821 35.0156 70.5768V52.3672L37.3177 52.7401L40.6466 53.2788Z" fill="#455A64"/>
<path d="M40.646 53.2788V56.9161H37.3172V70.5768C37.3162 70.8414 37.2241 71.0975 37.0563 71.3021C36.8886 71.5067 36.6555 71.6473 36.3963 71.7002C36.3179 71.7188 36.2375 71.728 36.1569 71.7279C36.0927 71.7351 36.0278 71.7351 35.9635 71.7279C35.7276 71.6916 35.5096 71.5802 35.342 71.4102C35.1271 71.1933 35.0063 70.9005 35.0059 70.5952V52.3672L37.308 52.7401L40.646 53.2788Z" fill="#455A64"/>
<path d="M36.1514 71.7279H35.2536C35.0019 71.7307 34.7588 71.6367 34.5746 71.4653C34.3903 71.2939 34.279 71.0582 34.2637 70.807V52.3672H35.0003V70.5768C35.0008 70.8821 35.1216 71.1749 35.3365 71.3918C35.5626 71.5922 35.8497 71.7106 36.1514 71.7279Z" fill="#37474F"/>
<path d="M30.6141 67.7024V76.722L28.312 75.7597L26.9675 75.1934L26.3736 74.9448L25.9868 74.779L25.5771 74.6087L25.4527 74.558L25.2916 74.4889L21.9121 73.0617L22.6258 71.3627L22.7639 71.0404L23.3762 69.5947L23.6203 69.0053L23.7216 68.7751L24.1452 67.7622L24.6056 66.6204L26.4473 62.2188L28.8599 63.2363C29.574 64.0231 30.0873 64.9708 30.3562 65.9988C30.5155 66.5531 30.6022 67.1257 30.6141 67.7024Z" fill="#EBEBEB"/>
<path d="M30.6135 70.0519V71.0556L30.5583 70.9405V70.8899L30.5168 70.8024C30.4997 70.7742 30.4843 70.745 30.4708 70.7149L29.9229 69.5869C29.9229 69.5408 29.8768 69.4948 29.8538 69.4441L29.3704 68.4312C29.2691 68.2286 29.1724 68.0261 29.0757 67.8189L29.0481 67.7544L28.316 66.212C28.1364 65.8206 27.9523 65.4293 27.7727 65.0333C27.3491 64.1125 26.9117 63.164 26.502 62.2109C26.9992 63.0903 27.4642 63.9836 27.9477 64.8722C28.1779 65.3326 28.4081 65.7424 28.6383 66.1798L29.3658 67.561L29.4625 67.7498L29.7709 68.3483L30.1485 69.0896C30.1485 69.1265 30.1899 69.1633 30.2083 69.2001L30.6135 70.0519Z" fill="#DBDBDB"/>
<path d="M30.6142 70.8792V70.9206H30.5589L30.4208 70.9621C29.8361 71.1416 29.2513 71.3028 28.662 71.4547L28.4686 71.5008L28.0404 71.6067H27.9898L27.4833 71.7264L26.4934 71.9474C25.7936 72.0947 25.1122 72.2328 24.3893 72.3525H24.3064L23.8782 72.4216C23.2843 72.5229 22.6903 72.6058 22.0918 72.6702C22.6075 72.4999 23.1231 72.3525 23.6434 72.2098L24.1038 72.0901L24.2466 72.0487C24.9648 71.8645 25.6923 71.7033 26.4151 71.5422L27.0643 71.4041C27.2577 71.3718 27.4465 71.3304 27.6399 71.2936C27.8332 71.2567 28.1003 71.2015 28.3397 71.1646L28.6067 71.1186L28.7541 71.091C29.2882 70.9989 29.8269 70.916 30.3748 70.8516H30.5405L30.6142 70.8792Z" fill="#DBDBDB"/>
<path d="M30.6188 68.5938H18.7031V80.3621H30.6188V68.5938Z" fill="white"/>
<path d="M30.6129 74.0317V74.6073L30.5024 74.7039L30.2907 74.8927C30.265 74.9129 30.2404 74.9344 30.217 74.9572L30.1525 75.017L30.1065 75.0585L28.3247 76.6055L28.0806 76.8127L27.9747 76.9002L27.8688 76.8127L26.9756 76.0346L26.5152 75.6524C26.4231 75.5695 26.3264 75.4913 26.2343 75.4038C26.2098 75.3893 26.188 75.3706 26.1699 75.3485L25.8476 75.0723L25.8062 75.0354L25.7325 74.971L25.6588 74.9111C25.0449 74.3924 24.4495 73.8675 23.8724 73.3365L23.633 73.1247L23.2508 72.784L22.6154 72.2177C22.155 71.8217 21.7268 71.4211 21.2894 71.016L21.1329 70.8779L20.9625 70.7259C20.2074 70.0215 19.4431 69.3447 18.6973 68.6172C19.4938 69.2295 20.2765 69.8787 21.0638 70.5049C21.1237 70.5556 21.1881 70.6016 21.248 70.6568L21.446 70.818L22.7536 71.8908L23.4166 72.4387L24.0934 73.005L24.3835 73.249C24.9298 73.7064 25.4747 74.1668 26.018 74.6303L26.1377 74.7316L26.4553 75.0032L26.5981 75.1229L26.8651 75.3531L27.9655 76.274C28.6101 75.7215 29.2593 75.1644 29.9085 74.6165L30.1019 74.4507C30.2262 74.3448 30.3459 74.2389 30.4748 74.1376L30.6129 74.0317Z" fill="#DBDBDB"/>
<path d="M26.0546 74.875L25.76 75.1236C25.2995 75.515 24.8391 75.8925 24.3327 76.2563C23.7433 76.7167 23.1402 77.1403 22.5324 77.5685C21.9247 77.9967 21.3077 78.4064 20.6907 78.807C20.0738 79.2076 19.4292 79.6035 18.7754 79.9626C19.3371 79.47 19.9264 79.0096 20.5158 78.5584C21.1051 78.1072 21.7129 77.6744 22.316 77.2462C22.9192 76.818 23.5453 76.4036 24.1577 76.003C24.655 75.6853 25.1614 75.3677 25.6817 75.0822L26.0454 74.8796L26.0546 74.875Z" fill="#DBDBDB"/>
<path d="M30.6125 75.2852V75.4786L30.2165 75.1471L30.106 75.055L29.9219 74.8984H29.9541L30.1751 75.0228L30.3132 75.1056L30.6125 75.2852Z" fill="#DBDBDB"/>
<path d="M72.8236 139.711C72.8236 139.711 58.2283 152.082 58.2145 152.087C55.4105 154.44 52.9933 156.553 51.8469 157.759C51.5498 158.01 51.3136 158.325 51.1562 158.68C51.1563 158.68 51.1562 158.703 51.1562 158.712C51.2898 160.02 69.4257 182.977 70.3282 183.575C71.2306 184.174 72.9756 181.641 72.9802 180.186C72.9848 178.732 69.9736 166.834 69.9736 166.834L84.4446 154.329L72.8236 139.711Z" fill="#EB9481"/>
<path d="M61.2118 149.547C61.2118 149.547 58.2283 152.079 58.2145 152.084C55.4105 154.437 52.9933 156.55 51.8469 157.756C51.5811 158.035 51.3493 158.344 51.1562 158.677C51.1562 158.677 51.1562 158.7 51.1562 158.709C51.2898 160.017 69.4257 182.973 70.3282 183.572C71.2306 184.17 72.9756 181.638 72.9802 180.183C72.9848 178.728 69.9736 166.831 69.9736 166.831L73.0492 164.294L61.2118 149.547Z" fill="#EBEBEB"/>
<path d="M70.3055 183.583C69.3847 182.998 51.2672 160.041 51.1336 158.72C51.0738 158.218 54.2645 155.382 58.2149 152.067L58.3438 151.961L70.2043 166.639L69.951 166.833C69.951 166.833 72.9622 178.725 72.9576 180.185C72.953 181.644 71.2034 184.177 70.3055 183.583Z" fill="#CEB7A1"/>
<path d="M70.987 182.626C68.0265 178.685 55.7103 163.054 52.4828 159.379C52.4551 159.352 52.4321 159.379 52.4597 159.379C55.3097 163.353 67.7503 178.883 70.9272 182.658C70.9917 182.755 71.0331 182.709 70.987 182.626Z" fill="#1F1F1F"/>
<path d="M70.89 168.128C69.9691 166.383 68.2656 164.702 66.2627 164.398C66.1845 164.398 66.1661 164.495 66.2213 164.532C67.8407 165.617 69.3394 166.872 70.692 168.275C70.7129 168.297 70.7412 168.311 70.7714 168.313C70.8017 168.316 70.8318 168.307 70.8562 168.289C70.8805 168.271 70.8974 168.245 70.9036 168.215C70.9099 168.185 70.905 168.154 70.89 168.128Z" fill="#1F1F1F"/>
<path d="M71.0925 169.753C70.1716 168.008 68.4681 166.332 66.4883 166.023C66.41 166.023 66.3962 166.12 66.4514 166.157C68.0693 167.242 69.5666 168.497 70.9175 169.9C70.9392 169.911 70.9638 169.916 70.988 169.913C71.0122 169.91 71.035 169.9 71.0537 169.884C71.0723 169.869 71.0859 169.848 71.0928 169.824C71.0997 169.801 71.0996 169.776 71.0925 169.753Z" fill="#1F1F1F"/>
<path d="M71.301 171.375C70.3802 169.625 68.6766 167.949 66.6738 167.641C66.5955 167.641 66.5817 167.742 66.637 167.779C68.2548 168.862 69.752 170.115 71.103 171.517C71.1241 171.537 71.1513 171.549 71.1801 171.551C71.2089 171.553 71.2375 171.544 71.2609 171.528C71.2843 171.511 71.3011 171.486 71.3084 171.458C71.3157 171.43 71.3131 171.401 71.301 171.375Z" fill="#1F1F1F"/>
<path d="M80.5352 125.188C79.6143 130.419 58.4902 151.695 58.4902 151.695L73.9511 168.73C73.9511 168.73 103.878 137.422 102.037 125.948C100.412 115.975 84.4948 76.0938 84.4948 76.0938L67.2152 76.4989C67.2152 76.4989 81.4514 120.045 80.5352 125.188Z" fill="#37474F"/>
<path d="M75.5676 164.547C73.5095 162.102 74.1357 162.774 72.05 160.352C71.0279 159.169 64.3149 151.392 63.1685 150.453C63.1409 150.453 63.0994 150.453 63.1178 150.499C63.9006 151.756 70.7516 159.413 71.7922 160.578C73.9239 162.958 73.3392 162.254 75.4755 164.606C75.4795 164.613 75.4845 164.618 75.4905 164.622C75.4964 164.626 75.5031 164.629 75.5102 164.63C75.5172 164.632 75.5245 164.632 75.5316 164.631C75.5387 164.629 75.5455 164.627 75.5515 164.623C75.5575 164.619 75.5628 164.614 75.5668 164.608C75.5709 164.602 75.5738 164.595 75.5753 164.588C75.5768 164.581 75.5769 164.574 75.5756 164.566C75.5742 164.559 75.5715 164.553 75.5676 164.547Z" fill="#1F1F1F"/>
<path d="M83.4647 123.402C83.1885 122.109 82.8754 120.819 82.5715 119.535C81.9576 116.907 81.3023 114.286 80.6055 111.671C79.2365 106.487 77.7617 101.334 76.1809 96.2146C74.5878 91.0809 72.9119 85.9519 71.0011 80.9241C70.7617 80.3025 70.5177 79.6855 70.2783 79.0824C70.2746 79.072 70.267 79.0635 70.2571 79.0587C70.2471 79.054 70.2357 79.0534 70.2253 79.0571C70.215 79.0607 70.2065 79.0684 70.2017 79.0783C70.197 79.0882 70.1964 79.0996 70.2 79.11C71.8713 84.1516 73.5933 89.1794 75.168 94.2532C76.7426 99.3271 78.1975 104.382 79.5834 109.498C80.2786 112.062 80.9278 114.636 81.5678 117.214C81.8747 118.482 82.1817 119.751 82.4886 121.022C82.8563 122.308 83.1287 123.619 83.3036 124.945C83.3799 126.204 83.0577 127.456 82.3827 128.522C81.7612 129.595 81.0015 130.613 80.3108 131.626C78.8789 133.665 65.1814 149.665 64.7394 150.098C64.7026 150.134 64.7394 150.185 64.7947 150.148C66.6364 148.412 78.2758 135.217 79.7445 133.182C80.4674 132.178 81.1764 131.156 81.8717 130.129C82.5663 129.193 83.1201 128.16 83.5154 127.063C83.8175 125.859 83.8 124.597 83.4647 123.402Z" fill="#1F1F1F"/>
<path d="M80.9419 76.1719L80.2927 121.998C78.3498 110.561 67.2168 76.4942 67.2168 76.4942L80.9419 76.1719Z" fill="#1F1F1F"/>
<path d="M76.0703 161.089C76.0703 161.089 80.2141 179.165 80.2141 179.174C80.3476 182.858 80.5318 186.035 80.785 187.683C80.7829 187.692 80.7829 187.701 80.785 187.711C80.8003 188.102 80.9059 188.485 81.0935 188.829L81.1165 188.852C82.2307 189.552 111.504 189.313 112.503 188.972C113.502 188.631 112.6 185.689 111.458 184.796C110.316 183.903 99.0729 178.976 99.0729 178.976L94.7358 160.914L76.0703 161.089Z" fill="#EB9481"/>
<path d="M112.517 188.977C111.499 189.331 82.244 189.562 81.1297 188.862L81.1067 188.839C80.9161 188.496 80.8103 188.112 80.7982 187.72C80.7962 187.715 80.7951 187.711 80.7951 187.706C80.7951 187.701 80.7962 187.697 80.7982 187.692C80.5496 186.044 80.3701 182.844 80.2319 179.188L79.5137 176.039L98.2804 175.602L99.0907 178.981C99.0907 178.981 110.33 183.908 111.481 184.805C112.632 185.703 113.539 188.622 112.517 188.977Z" fill="#EBEBEB"/>
<path d="M112.517 188.976C111.499 189.326 82.2486 189.556 81.1298 188.856C80.697 188.599 80.4162 184.34 80.209 179.188C80.209 179.137 80.209 179.082 80.209 179.026L99.0862 178.672V178.99C99.0862 178.99 110.32 183.911 111.472 184.809C112.623 185.707 113.534 188.622 112.517 188.976Z" fill="#CEB7A1"/>
<path d="M112.176 187.837C107.244 187.754 87.3451 187.887 82.4647 188.177C82.4232 188.177 82.4232 188.21 82.4647 188.21C87.3497 188.398 107.249 188.104 112.176 187.92C112.281 187.915 112.281 187.837 112.176 187.837Z" fill="#1F1F1F"/>
<path d="M100.67 179.021C98.7274 178.671 96.3563 178.989 94.8875 180.403C94.8277 180.458 94.8875 180.536 94.9704 180.518C96.8187 179.902 98.7283 179.488 100.666 179.284C100.683 179.284 100.7 179.281 100.716 179.275C100.732 179.268 100.747 179.259 100.759 179.247C100.772 179.235 100.782 179.221 100.788 179.205C100.795 179.189 100.799 179.172 100.799 179.155C100.8 179.138 100.797 179.12 100.79 179.104C100.784 179.088 100.774 179.074 100.763 179.061C100.751 179.049 100.736 179.039 100.72 179.032C100.705 179.025 100.688 179.022 100.67 179.021Z" fill="#1F1F1F"/>
<path d="M102.079 179.857C100.136 179.507 97.7651 179.825 96.2918 181.239C96.2365 181.294 96.2918 181.372 96.3746 181.354C98.2247 180.738 100.136 180.325 102.075 180.12C102.092 180.12 102.109 180.117 102.125 180.111C102.141 180.104 102.156 180.095 102.168 180.083C102.181 180.071 102.19 180.057 102.197 180.041C102.204 180.025 102.208 180.008 102.208 179.991C102.208 179.974 102.205 179.956 102.199 179.94C102.193 179.924 102.183 179.91 102.171 179.897C102.159 179.885 102.145 179.875 102.129 179.868C102.113 179.861 102.096 179.858 102.079 179.857Z" fill="#1F1F1F"/>
<path d="M103.483 180.693C101.54 180.343 99.1688 180.661 97.7 182.074C97.6402 182.13 97.7 182.208 97.7829 182.19C99.6314 181.574 101.541 181.16 103.478 180.956C103.513 180.956 103.547 180.943 103.572 180.919C103.597 180.895 103.611 180.862 103.612 180.827C103.612 180.792 103.599 180.758 103.575 180.733C103.551 180.708 103.518 180.694 103.483 180.693Z" fill="#1F1F1F"/>
<path d="M82.8241 76.1252C82.8241 76.489 81.4198 91.3191 80.9502 91.7381C80.4806 92.1571 77.4234 94.3026 76.5163 94.8874C76.5163 94.8874 85.4025 120.496 87.7966 129.046C91.2728 141.445 99.7676 178.684 99.7676 178.684L79.44 179.144C79.44 179.144 72.4278 143.669 69.4489 131.859C66.8982 121.73 57.3122 91.402 57.3122 91.402C56.0329 86.5662 56.1623 81.4655 57.6851 76.7008C57.6851 76.7008 82.8287 76.1114 82.8241 76.1252Z" fill="#37474F"/>
<path d="M98.948 174.75C95.7527 174.805 96.6689 174.75 93.4736 174.837C91.9128 174.884 81.6408 175.192 80.1904 175.491C80.1582 175.491 80.1628 175.551 80.1904 175.556C81.6592 175.74 91.922 175.252 93.4828 175.178C96.6735 175.022 95.7573 175.031 98.948 174.842C98.9602 174.842 98.9719 174.837 98.9805 174.829C98.9892 174.82 98.994 174.808 98.994 174.796C98.994 174.784 98.9892 174.772 98.9805 174.763C98.9719 174.755 98.9602 174.75 98.948 174.75Z" fill="#1F1F1F"/>
<path d="M81.8348 90.9696C79.8833 92.1013 78.0346 93.4016 76.3098 94.8556C76.3022 94.8607 76.2957 94.8673 76.2907 94.8749C76.2857 94.8826 76.2822 94.8911 76.2805 94.9001C76.2788 94.9091 76.2789 94.9183 76.2807 94.9272C76.2826 94.9362 76.2862 94.9447 76.2913 94.9522C76.2965 94.9598 76.3031 94.9663 76.3107 94.9713C76.3183 94.9763 76.3269 94.9798 76.3359 94.9815C76.3448 94.9832 76.3541 94.9831 76.363 94.9813C76.372 94.9794 76.3805 94.9758 76.388 94.9707C78.2573 93.7321 80.1773 92.5304 81.9821 91.1952C82.004 91.1727 82.0175 91.1435 82.0205 91.1123C82.0235 91.0811 82.0158 91.0498 81.9986 91.0235C81.9815 90.9973 81.9559 90.9777 81.9262 90.9679C81.8964 90.9581 81.8642 90.9587 81.8348 90.9696Z" fill="#1F1F1F"/>
<path d="M79.9513 76.9625C79.9513 76.8934 79.8085 76.9026 79.8223 76.9625C80.2306 79.2314 80.5241 81.5196 80.7017 83.8181C80.7938 84.8771 80.9872 90.8027 79.1041 90.7244C78.7864 90.7244 78.5792 90.439 78.4457 89.9924C78.3473 89.3929 78.3226 88.7837 78.372 88.1783C78.372 86.9306 78.2983 85.692 78.1832 84.4489C77.9885 82.137 77.5533 79.8517 76.8849 77.6301C76.8795 77.6168 76.8695 77.6059 76.8568 77.5993C76.844 77.5928 76.8293 77.591 76.8154 77.5944C76.8015 77.5977 76.7892 77.6059 76.7808 77.6176C76.7725 77.6292 76.7685 77.6434 76.7698 77.6577C77.3896 80.8012 77.7698 83.9873 77.907 87.1884C77.953 88.7308 77.5985 91.1296 79.2146 91.0789C80.8307 91.0283 81.2128 87.0549 81.222 85.9821C81.1926 82.9331 80.7654 79.9009 79.9513 76.9625Z" fill="#1F1F1F"/>
<path d="M79.1734 90.8568C79.0839 91.2762 79.0193 91.7006 78.98 92.1276C78.9155 92.4637 78.9155 92.809 78.98 93.1451C78.98 93.205 79.0813 93.1958 79.109 93.1451C79.2455 92.8165 79.3295 92.4685 79.3576 92.1138C79.4313 91.7178 79.5095 91.3264 79.5694 90.9305C79.5669 90.8841 79.5489 90.8399 79.5182 90.8049C79.4876 90.77 79.4461 90.7464 79.4004 90.7379C79.3547 90.7294 79.3075 90.7365 79.2663 90.758C79.2251 90.7796 79.1924 90.8144 79.1734 90.8568Z" fill="#1F1F1F"/>
<path d="M76.7326 164.056C76.6681 163.596 76.5944 163.135 76.5162 162.652C76.3688 161.754 76.1939 160.861 76.0558 159.963C75.7335 158.163 75.3835 156.367 75.0198 154.576C74.2969 151.003 73.4774 147.44 72.621 143.899C72.133 141.896 71.5759 139.916 70.9911 137.941C70.9497 137.803 70.7563 137.877 70.7839 138.01C71.1523 139.82 71.5114 141.634 71.9258 143.439C72.3402 145.244 72.7499 147.035 73.1551 148.835C73.947 152.394 74.6929 155.967 75.4802 159.526C75.7058 160.529 75.9084 161.538 76.1294 162.542C76.2399 163.045 76.355 163.547 76.4747 164.047C76.5944 164.544 76.7602 165.032 76.8569 165.534C76.8569 165.58 76.9352 165.557 76.9259 165.534C76.82 165.032 76.8016 164.54 76.7326 164.056Z" fill="#1F1F1F"/>
<path d="M90.1169 136.727C89.3618 133.371 88.3719 130.065 87.3774 126.773C85.3745 120.147 83.0448 113.623 80.7243 107.104L78.7169 101.468C78.3807 100.547 76.7278 95.4596 76.5299 94.9808C76.5262 94.9704 76.5186 94.9619 76.5086 94.9572C76.4987 94.9524 76.4873 94.9518 76.4769 94.9555C76.4665 94.9592 76.458 94.9668 76.4533 94.9767C76.4485 94.9867 76.4479 94.9981 76.4516 95.0084C76.912 96.735 77.5934 99.2535 78.1367 100.966C78.68 102.679 79.2648 104.327 79.8357 106.031C80.9499 109.332 82.0825 112.629 83.1691 115.944C85.3147 122.491 87.4464 129.038 89.2236 135.7C89.7163 137.565 90.2135 139.43 90.6694 141.308C91.1252 143.187 91.5258 145.065 91.9632 146.944C91.9632 146.995 92.0598 146.976 92.0552 146.944C91.5806 143.508 90.9337 140.098 90.1169 136.727Z" fill="#1F1F1F"/>
<path d="M77.8929 154.666C76.6268 148.257 75.1304 141.89 73.5005 135.568C71.8706 129.247 70.052 122.897 68.0722 116.64C66.0924 110.383 63.9284 104.186 61.5987 98.0438C60.4357 95.1566 59.4441 92.2032 58.629 89.1992C57.8923 86.2064 57.4733 82.9651 58.1041 79.9171C58.2611 79.1437 58.4766 78.3834 58.7487 77.6426C58.7487 77.592 58.6888 77.5505 58.6704 77.6012C56.3683 83.3564 58.0903 89.5491 60.0839 95.0971C61.1751 98.1497 62.3307 101.179 63.4081 104.236C64.5193 107.373 65.5828 110.526 66.5988 113.694C68.6247 119.974 70.5124 126.291 72.2206 132.663C73.9287 139.035 75.4711 145.444 76.8248 151.895C78.1784 158.345 79.3893 164.869 80.5864 171.375C80.7429 172.222 80.8719 173.074 81.0008 173.926C81.0008 173.972 81.0837 173.972 81.0791 173.926C80.1628 167.494 79.1591 161.066 77.8929 154.666Z" fill="#1F1F1F"/>
<path d="M73.7949 49.7944C75.899 57.5663 80.8393 69.5924 84.9555 69.4451C88.7079 69.2978 96.9264 62.4421 100.393 60.1768C103.86 57.9116 95.7892 49.4951 93.8001 50.9362C90.7291 53.1646 86.1526 57.1242 85.356 56.8894C84.3661 56.5948 83.0539 54.2098 77.2895 47.2206C74.9045 44.3476 72.874 46.4839 73.7949 49.7944Z" fill="#EB9481"/>
<path d="M97.4746 47.5373C99.1137 46.9111 100.946 46.0639 102.788 46.0547C104.63 46.0455 106.209 48.4397 106.227 49.1349C106.246 49.8302 105.647 54.1995 103.81 54.2272C101.973 54.2548 103.004 50.9121 102.926 50.5438C102.848 50.1755 102.765 49.6782 102.42 49.7243C102.074 49.7703 96.0703 52.7861 96.0703 52.7861L97.4746 47.5373Z" fill="#EB9481"/>
<path d="M97.5938 47.7861C97.6996 47.7861 102.58 45.728 104.422 45.7188C106.263 45.7096 107.866 48.0899 107.866 48.7944C107.866 49.4988 107.286 53.859 105.449 53.8866C103.611 53.9143 104.643 50.5716 104.565 50.2033C104.486 49.8349 104.403 49.3331 104.058 49.3791C103.713 49.4252 97.7089 52.4455 97.7089 52.4455L97.5938 47.7861Z" fill="#EB9481"/>
<path d="M104.815 53.6708C104.614 53.3443 104.499 52.9718 104.483 52.5888C104.437 52.1976 104.451 51.8017 104.524 51.4147C104.618 51.0815 104.684 50.7412 104.722 50.3972C104.712 50.0569 104.617 49.7246 104.446 49.4303C104.299 49.1771 104.027 49.2692 103.797 49.3566C103.459 49.4924 103.129 49.6461 102.807 49.8171L101.776 50.3926C101.412 50.575 101.06 50.7795 100.721 51.005C100.715 51.008 100.709 51.0136 100.707 51.0205C100.704 51.0274 100.705 51.0351 100.708 51.0418C100.711 51.0485 100.716 51.0537 100.723 51.0563C100.73 51.0589 100.738 51.0587 100.744 51.0556C101.059 50.9181 101.366 50.7645 101.665 50.5952L102.706 50.0887C103.033 49.9368 103.35 49.7618 103.682 49.6283C103.797 49.5776 104.027 49.4441 104.142 49.4718C104.257 49.4994 104.359 49.8447 104.396 49.9552C104.479 50.2837 104.464 50.6293 104.354 50.9497C104.265 51.2809 104.209 51.6202 104.188 51.9626C104.163 52.2851 104.195 52.6095 104.285 52.9203C104.407 53.1971 104.562 53.4583 104.745 53.6984C104.782 53.7398 104.842 53.6984 104.815 53.6708Z" fill="#1F1F1F"/>
<path d="M91.877 52.745C91.877 52.745 96.8633 47.9797 97.9039 47.0358C99.9896 45.1343 108.866 41.2621 110.114 41.101C111.362 40.9399 111.868 43.4906 105.846 46.2945C102.674 47.7679 102.163 49.6188 102.232 50.6363C102.301 51.6538 103.332 53.5277 105.04 53.4403C106.749 53.3528 107.803 50.8297 109.373 50.5166C110.943 50.2035 109.967 53.1088 108.912 54.7985C107.784 56.4295 106.217 57.7068 104.391 58.4819C102.922 59.0712 98.4057 61.1523 98.4057 61.1523L91.877 52.745Z" fill="#EB9481"/>
<path d="M107.139 52.1878C106.504 52.7034 105.79 53.3664 104.943 53.4171C104.096 53.4677 103.483 52.9152 103.06 52.2108C102.595 51.519 102.414 50.6751 102.553 49.8534C102.736 49.1101 103.128 48.4344 103.681 47.9059C104.369 47.2663 105.144 46.7283 105.983 46.3082C106.02 46.3082 105.983 46.2345 105.947 46.253C105.169 46.6259 102.724 47.6849 102.305 49.858C102.169 50.6974 102.358 51.557 102.834 52.2614C103.23 52.9337 103.796 53.5782 104.63 53.6427C105.643 53.7026 106.495 52.86 107.208 52.2292C107.217 52.1832 107.171 52.1601 107.139 52.1878Z" fill="#1F1F1F"/>
<path d="M91.8634 52.0997L99.7596 63.7438C99.7596 63.7438 87.8255 70.8112 84.3861 69.7983C80.9468 68.7854 75.5415 59.0981 73.2117 50.5435C70.882 41.9889 76.2459 45.1566 78.3592 47.781C80.4726 50.4054 85.063 56.4369 85.307 56.3494C85.551 56.2619 91.8634 52.0997 91.8634 52.0997Z" fill="#CEB7A1"/>
<path d="M96.3291 65.6573C95.5878 66.0533 94.7729 66.4722 93.9165 66.8912L87.0332 55.2518C87.7238 54.7914 88.525 54.2849 89.2754 53.7969C91.444 57.4342 94.0776 61.8588 96.3291 65.6573Z" fill="#EBEBEB"/>
<path d="M92.9853 67.3414L92.1934 67.7052L85.416 56.2729C85.5634 56.19 85.812 56.0335 86.1343 55.8125C88.266 59.4038 90.8029 63.6673 92.9853 67.3414Z" fill="#EBEBEB"/>
<path d="M91.3337 68.0893C88.6034 69.2771 85.9191 70.1565 84.501 69.8343L84.3767 69.802C80.9328 68.7891 75.5367 59.1065 73.2023 50.5472C72.8551 49.4023 72.6616 48.2163 72.6268 47.0204C72.6268 46.9744 72.6268 46.9375 72.6268 46.8915C72.6268 46.8455 72.6268 46.758 72.6268 46.6889C72.6245 46.6613 72.6245 46.6336 72.6268 46.606C72.6218 46.5448 72.6218 46.4832 72.6268 46.4219L91.3337 68.0893Z" fill="#1F1F1F"/>
<path d="M95.4773 62.6926C95.2287 62.2783 94.9708 61.8639 94.7176 61.4541C94.2065 60.63 91.1401 55.7449 89.9384 54.2669C89.9062 54.2255 89.8464 54.2669 89.8648 54.3176C90.7212 56.0304 93.8935 60.8233 94.4229 61.6152C94.6946 62.0158 94.9616 62.421 95.2379 62.8216C95.5141 63.2221 95.8364 63.5951 96.1127 64.0002C96.1403 64.0371 96.2048 64.0002 96.1817 63.9634C95.9285 63.549 95.7259 63.107 95.4773 62.6926Z" fill="#1F1F1F"/>
<path d="M55.978 84.2188C56.0517 84.297 86.5085 80.6643 86.7755 80.3374C87.1531 79.877 79.3674 49.5261 76.0754 45.5204C75.3709 44.664 73.1379 44.4937 71.2548 44.793C70.7636 44.8652 70.2798 44.9808 69.809 45.1383H69.763C69.3819 45.2615 69.0252 45.45 68.7086 45.6954C63.5888 50.074 59.6522 64.9041 58.7682 69.3518C57.2948 76.6909 55.7156 83.9379 55.978 84.2188Z" fill="#CEB7A1"/>
<path d="M86.149 77.0413C78.7823 77.9944 62.8011 80.0663 56.4473 80.826C56.6683 79.698 56.9353 78.3535 57.2392 76.871L85.2466 73.3672C85.6011 74.7484 85.9096 76.0008 86.149 77.0413Z" fill="#EBEBEB"/>
<path d="M84.8682 71.8776C77.5936 72.8215 64.1493 74.5573 57.5469 75.363L57.8047 74.1014L84.5689 70.7266C84.6702 71.1133 84.7715 71.5001 84.8682 71.8776Z" fill="#EBEBEB"/>
<path d="M66.6355 53.6564C68.1779 61.5986 75.2178 76.3505 79.6102 77.6535C84.6978 79.1591 102.088 73.1506 105.467 70.5492C106.812 69.5179 99.3115 60.8804 97.6402 61.525C90.5682 64.3151 84.288 65.8115 83.3442 65.2083C81.9077 64.2875 75.9775 56.1703 72.1007 51.1425C67.2341 44.8255 65.9403 50.0973 66.6355 53.6564Z" fill="#EB9481"/>
<path d="M105.02 70.8008C105.794 70.5016 111.07 66.4821 112.608 64.6174C114.28 62.6852 115.624 60.4922 116.586 58.1255C118.092 54.3776 118.778 51.6474 118.368 50.4411C117.908 49.0368 117.756 48.8112 114.187 55.0453C112.171 58.5767 110.177 59.0141 108.441 59.0187C104.168 59.0386 99.9615 60.0839 96.1758 62.0667C96.1758 62.0667 102.051 71.9381 105.02 70.8008Z" fill="#EB9481"/>
<path d="M120.925 45.7845L111.928 57.6956C111.799 57.8591 111.626 57.9827 111.43 58.052C111.233 58.1213 111.021 58.1334 110.818 58.0869L104.303 56.0887C104.22 56.0715 104.142 56.0313 104.08 55.9725C104.018 55.9137 103.973 55.8387 103.951 55.756C103.929 55.6733 103.931 55.586 103.955 55.5041C103.98 55.4222 104.027 55.3488 104.092 55.2922L113.088 43.3811C113.216 43.2167 113.389 43.0924 113.586 43.0231C113.782 42.9537 113.995 42.9421 114.198 42.9898L120.713 44.988C120.797 45.0052 120.874 45.0454 120.936 45.1042C120.999 45.163 121.043 45.238 121.065 45.3207C121.087 45.4034 121.086 45.4907 121.061 45.5726C121.036 45.6545 120.989 45.7279 120.925 45.7845Z" fill="#37474F"/>
<path d="M120.127 44.7909L113.612 42.7927C113.408 42.7467 113.196 42.7595 112.999 42.8296C112.803 42.8997 112.63 43.0242 112.502 43.1886L103.51 55.0997C103.44 55.1551 103.388 55.2297 103.36 55.3143C103.331 55.3988 103.328 55.4898 103.351 55.5761C103.373 55.6624 103.42 55.7403 103.486 55.8004C103.552 55.8605 103.634 55.9002 103.722 55.9146L110.237 57.9129C110.44 57.9582 110.652 57.9456 110.848 57.8764C111.044 57.8072 111.217 57.6842 111.346 57.5215L120.338 45.6104C120.41 45.5553 120.463 45.4805 120.493 45.3953C120.522 45.31 120.525 45.2181 120.503 45.1308C120.48 45.0436 120.433 44.9648 120.366 44.9044C120.299 44.844 120.216 44.8045 120.127 44.7909ZM111.208 57.0058C111.092 57.16 110.934 57.2781 110.753 57.3465C110.572 57.4149 110.376 57.4309 110.186 57.3926L104.362 55.6062C104.035 55.5049 103.961 55.1457 104.201 54.8557L112.576 43.7641C113.036 43.1288 113.345 43.1748 113.672 43.2761L114.836 43.6352C114.905 43.6352 114.91 43.7411 114.836 43.824L114.809 43.8608C114.657 44.0634 114.781 44.1003 114.933 44.1463L117.631 44.9751C117.703 45.0152 117.787 45.0257 117.867 45.0042C117.946 44.9826 118.013 44.9308 118.055 44.86L118.082 44.8231C118.107 44.7833 118.143 44.7513 118.185 44.7309C118.228 44.7105 118.275 44.7026 118.322 44.708L119.491 45.0671C119.814 45.1638 120.016 45.3296 119.574 45.9143L111.208 57.0058Z" fill="#1F1F1F"/>
<path d="M116.844 44.4281L116.112 44.1979C116.108 44.1949 116.105 44.1911 116.103 44.1867C116.101 44.1823 116.1 44.1775 116.1 44.1726C116.1 44.1677 116.101 44.1629 116.103 44.1585C116.105 44.1541 116.108 44.1503 116.112 44.1473C116.121 44.1353 116.133 44.1263 116.147 44.1214C116.161 44.1165 116.176 44.1159 116.19 44.1196L116.927 44.3453C116.932 44.3481 116.936 44.3522 116.938 44.357C116.941 44.3618 116.942 44.3673 116.942 44.3729C116.942 44.3784 116.941 44.3839 116.938 44.3887C116.936 44.3936 116.932 44.3976 116.927 44.4005C116.917 44.4124 116.904 44.4212 116.889 44.4261C116.875 44.431 116.859 44.4317 116.844 44.4281Z" fill="white"/>
<path d="M119.584 45.9167L111.209 57.0082C111.092 57.1624 110.934 57.2805 110.754 57.3489C110.573 57.4173 110.376 57.4333 110.187 57.395L104.363 55.6086C104.036 55.5073 103.962 55.1481 104.201 54.8581L112.576 43.7666C113.037 43.1312 113.345 43.1772 113.672 43.2785L114.837 43.6376C114.906 43.6376 114.911 43.7435 114.837 43.8264L114.809 43.8632C114.658 44.0658 114.782 44.1027 114.934 44.1487L117.632 44.9775C117.703 45.0176 117.788 45.0281 117.867 45.0066C117.946 44.985 118.014 44.9333 118.055 44.8624L118.083 44.8255C118.108 44.7857 118.144 44.7537 118.186 44.7333C118.229 44.7129 118.276 44.705 118.322 44.7104L119.492 45.0695C119.837 45.1662 120.026 45.3274 119.584 45.9167Z" fill="white"/>
<path d="M119.585 45.9167L118.959 46.7455L111.951 44.5953L112.577 43.7666C113.038 43.1312 113.346 43.1772 113.673 43.2785L114.838 43.6376C114.907 43.6376 114.912 43.7435 114.838 43.8264L114.81 43.8632C114.658 44.0658 114.783 44.1027 114.935 44.1487L117.633 44.9775C117.704 45.0176 117.789 45.0281 117.868 45.0066C117.947 44.985 118.015 44.9333 118.056 44.8624L118.084 44.8255C118.109 44.7857 118.145 44.7537 118.187 44.7333C118.229 44.7129 118.277 44.705 118.323 44.7104L119.488 45.0695C119.838 45.1662 120.027 45.3274 119.585 45.9167Z" fill="#CEB7A1"/>
<path d="M112.964 44.4032L112.891 44.1684L113.227 44.0625L113.236 44.0993L112.96 44.1914L113.02 44.3848L112.964 44.4032Z" fill="white"/>
<path d="M118.944 45.9418C118.934 45.9479 118.923 45.9512 118.912 45.9512C118.9 45.9512 118.889 45.9479 118.88 45.9418C118.876 45.9393 118.873 45.9358 118.87 45.9318C118.868 45.9278 118.867 45.9233 118.867 45.9188C118.867 45.9142 118.868 45.9097 118.87 45.9057C118.873 45.9017 118.876 45.8983 118.88 45.8957C118.886 45.8854 118.896 45.8773 118.908 45.8724C118.919 45.8675 118.932 45.866 118.944 45.8681C118.953 45.9003 118.962 45.9234 118.944 45.9418Z" fill="white"/>
<path d="M118.847 46.0751C118.837 46.0817 118.825 46.0852 118.813 46.0852C118.8 46.0852 118.788 46.0817 118.778 46.0751C118.774 46.0726 118.771 46.0692 118.769 46.0652C118.767 46.0611 118.766 46.0567 118.766 46.0521C118.766 46.0475 118.767 46.0431 118.769 46.039C118.771 46.035 118.774 46.0316 118.778 46.0291C118.784 46.0183 118.794 46.0098 118.806 46.0048C118.817 45.9999 118.83 45.9987 118.842 46.0015C118.852 46.0008 118.862 46.0041 118.869 46.0106C118.877 46.0171 118.881 46.0262 118.882 46.036C118.882 46.0458 118.879 46.0554 118.872 46.0627C118.866 46.07 118.857 46.0745 118.847 46.0751Z" fill="white"/>
<path d="M118.75 46.1997C118.74 46.2062 118.728 46.2097 118.716 46.2097C118.703 46.2097 118.691 46.2062 118.681 46.1997C118.658 46.1997 118.654 46.1721 118.681 46.149C118.69 46.1399 118.701 46.133 118.713 46.129C118.725 46.125 118.738 46.124 118.75 46.126C118.76 46.126 118.769 46.1299 118.776 46.1368C118.783 46.1437 118.787 46.1531 118.787 46.1629C118.787 46.1726 118.783 46.182 118.776 46.1889C118.769 46.1958 118.76 46.1997 118.75 46.1997Z" fill="white"/>
<path d="M114.45 43.826H114.418C114.413 43.8076 114.403 43.791 114.389 43.778C114.375 43.7649 114.358 43.7561 114.339 43.7524C114.294 43.7388 114.246 43.7388 114.201 43.7524H114.224H114.27H114.348H114.381V43.78L114.45 43.826Z" fill="white"/>
<path d="M114.215 43.8115C114.246 43.8024 114.28 43.8024 114.312 43.8115C114.33 43.8118 114.349 43.8183 114.364 43.8299C114.379 43.8415 114.389 43.8577 114.394 43.876H114.367C114.362 43.8646 114.354 43.8546 114.344 43.8466C114.335 43.8387 114.324 43.8329 114.312 43.8299C114.283 43.8112 114.248 43.8046 114.215 43.8115Z" fill="white"/>
<path d="M114.311 43.8701H114.283C114.281 43.8636 114.278 43.8577 114.273 43.8529C114.268 43.848 114.262 43.8445 114.256 43.8425C114.239 43.8382 114.222 43.8382 114.205 43.8425C114.27 43.8149 114.311 43.8287 114.311 43.8701Z" fill="white"/>
<path d="M113.328 43.5167C113.335 43.5062 113.344 43.4978 113.356 43.4922C113.367 43.4865 113.38 43.4839 113.392 43.4845C113.397 43.4873 113.401 43.4914 113.404 43.4962C113.406 43.5011 113.408 43.5065 113.408 43.5121C113.408 43.5176 113.406 43.5231 113.404 43.528C113.401 43.5328 113.397 43.5368 113.392 43.5397C113.383 43.5516 113.371 43.5607 113.357 43.5656C113.343 43.5705 113.328 43.5711 113.314 43.5673C113.311 43.5634 113.308 43.5587 113.307 43.5536C113.306 43.5486 113.306 43.5434 113.308 43.5385C113.309 43.5335 113.312 43.5289 113.315 43.5251C113.319 43.5214 113.323 43.5185 113.328 43.5167Z" fill="white"/>
<path d="M113.475 43.5613C113.483 43.5494 113.496 43.5404 113.509 43.5354C113.523 43.5305 113.539 43.5299 113.553 43.5337C113.558 43.5366 113.562 43.5406 113.564 43.5455C113.567 43.5503 113.569 43.5558 113.569 43.5613C113.569 43.5669 113.567 43.5724 113.564 43.5772C113.562 43.582 113.558 43.5861 113.553 43.589C113.543 43.6 113.531 43.6084 113.517 43.6133C113.504 43.6181 113.489 43.6193 113.475 43.6166C113.47 43.6137 113.466 43.6097 113.463 43.6048C113.46 43.6 113.459 43.5945 113.459 43.589C113.459 43.5834 113.46 43.5779 113.463 43.5731C113.466 43.5683 113.47 43.5642 113.475 43.5613Z" fill="white"/>
<path d="M113.622 43.6048C113.63 43.5935 113.642 43.5852 113.655 43.5811C113.668 43.5769 113.683 43.5772 113.696 43.5818C113.723 43.5818 113.728 43.614 113.696 43.637C113.684 43.6444 113.67 43.6483 113.657 43.6483C113.643 43.6483 113.629 43.6444 113.617 43.637C113.608 43.6555 113.604 43.6278 113.622 43.6048Z" fill="white"/>
<path d="M113.766 43.6537C113.775 43.6429 113.788 43.6348 113.801 43.63C113.815 43.6252 113.83 43.6238 113.844 43.626C113.849 43.6289 113.853 43.633 113.855 43.6378C113.858 43.6426 113.86 43.6481 113.86 43.6537C113.86 43.6592 113.858 43.6647 113.855 43.6695C113.853 43.6744 113.849 43.6784 113.844 43.6813C113.835 43.6928 113.823 43.7015 113.809 43.7063C113.795 43.7112 113.78 43.7121 113.766 43.7089C113.761 43.7061 113.757 43.702 113.754 43.6972C113.751 43.6923 113.75 43.6869 113.75 43.6813C113.75 43.6757 113.751 43.6703 113.754 43.6654C113.757 43.6606 113.761 43.6565 113.766 43.6537Z" fill="white"/>
<path d="M113.912 43.6941C113.921 43.6822 113.933 43.6732 113.947 43.6683C113.961 43.6633 113.976 43.6627 113.99 43.6665C114.018 43.6665 114.023 43.6988 113.99 43.7218C113.982 43.7337 113.969 43.7427 113.955 43.7477C113.942 43.7526 113.926 43.7532 113.912 43.7494C113.907 43.7465 113.903 43.7425 113.901 43.7376C113.898 43.7328 113.896 43.7273 113.896 43.7218C113.896 43.7162 113.898 43.7107 113.901 43.7059C113.903 43.7011 113.907 43.697 113.912 43.6941Z" fill="white"/>
<path d="M119.326 45.5782L118.732 45.394L118.986 45.0625L119.58 45.2421L119.326 45.5782Z" fill="white"/>
<path d="M119.281 45.2924L119.037 45.2188L118.959 45.32L119.203 45.3983L119.281 45.2924Z" fill="white"/>
<path d="M119.345 45.428L119.312 45.4188L119.377 45.3359L119.409 45.3451L119.345 45.428Z" fill="white"/>
<path d="M105.348 55.0759L105.297 55.0575L105.131 55.2785L105.03 55.2463L105.113 55.1358L104.938 55.0805L104.855 55.191L104.754 55.1634L104.92 54.9424L104.864 54.9286L105.274 54.7812L105.348 55.0759Z" fill="#EBEBEB"/>
<path d="M110.823 56.5689L110.238 56.3894L110.294 56.3203L110.878 56.4953L110.823 56.5689Z" fill="#EBEBEB"/>
<path d="M110.684 56.7532L110.104 56.5737L110.159 56.5L110.739 56.6796L110.684 56.7532Z" fill="#EBEBEB"/>
<path d="M110.547 56.9407L109.967 56.7612L110.022 56.6875L110.602 56.8671L110.547 56.9407Z" fill="#EBEBEB"/>
<path d="M107.978 55.8463L107.693 55.9522L107.646 55.745L107.693 55.7266L107.734 55.9015L107.964 55.8094L107.978 55.8463Z" fill="#EBEBEB"/>
<path d="M107.688 56.3352C107.631 56.3445 107.574 56.3445 107.517 56.3352C107.45 56.3146 107.389 56.279 107.338 56.2311C107.287 56.1832 107.248 56.1244 107.223 56.0589C107.202 55.9872 107.2 55.9117 107.215 55.8387C107.23 55.7657 107.263 55.6975 107.31 55.64C107.394 55.5346 107.506 55.4555 107.633 55.4122C107.761 55.3689 107.898 55.3633 108.028 55.3959C108.096 55.4149 108.157 55.4499 108.208 55.4981C108.258 55.5462 108.296 55.606 108.319 55.6722C108.34 55.7435 108.343 55.8189 108.329 55.8919C108.314 55.9648 108.282 56.0332 108.236 56.0912C108.168 56.1697 108.084 56.2322 107.989 56.2744C107.894 56.3166 107.791 56.3374 107.688 56.3352ZM107.849 55.8103C107.793 55.8152 107.74 55.8378 107.697 55.8748C107.759 55.8728 107.819 55.8501 107.867 55.8103H107.849Z" fill="#EBEBEB"/>
<path d="M115.233 44.9608C115.271 44.9157 115.319 44.8816 115.375 44.8621C115.43 44.8427 115.489 44.8386 115.546 44.8503C115.566 44.855 115.585 44.8641 115.601 44.8768C115.617 44.8895 115.629 44.9056 115.638 44.924C115.638 44.924 115.638 44.9562 115.615 44.9608C115.592 44.9654 115.579 44.9608 115.574 44.9608C115.568 44.9479 115.559 44.9367 115.548 44.9279C115.537 44.9191 115.523 44.913 115.51 44.9101C115.471 44.8964 115.429 44.8964 115.39 44.9101C115.353 44.9234 115.32 44.9455 115.293 44.9746C115.282 44.9871 115.275 45.0019 115.271 45.0179C115.267 45.0339 115.267 45.0506 115.27 45.0667C115.276 45.082 115.285 45.0959 115.297 45.107C115.309 45.1182 115.323 45.1265 115.339 45.1311C115.372 45.1404 115.407 45.1404 115.44 45.1311H115.477C115.476 45.1394 115.473 45.147 115.467 45.1528C115.461 45.1587 115.453 45.1624 115.445 45.1634C115.397 45.1772 115.346 45.1772 115.298 45.1634C115.278 45.1565 115.261 45.1452 115.247 45.1304C115.232 45.1156 115.222 45.0977 115.215 45.0781C115.209 45.0585 115.207 45.0377 115.211 45.0173C115.214 44.997 115.221 44.9776 115.233 44.9608Z" fill="white"/>
<path d="M115.52 45.2185L115.722 44.9515C115.73 44.9474 115.739 44.9453 115.748 44.9453C115.756 44.9453 115.765 44.9474 115.773 44.9515C115.776 44.9536 115.778 44.9564 115.78 44.9596C115.781 44.9628 115.782 44.9663 115.782 44.9699C115.782 44.9734 115.781 44.977 115.78 44.9802C115.778 44.9834 115.776 44.9861 115.773 44.9883L115.69 45.0942L115.824 45.1356L115.906 45.0251C115.913 45.0211 115.921 45.019 115.929 45.019C115.938 45.019 115.946 45.0211 115.953 45.0251C115.953 45.0251 115.976 45.0251 115.953 45.0574L115.75 45.329C115.743 45.333 115.735 45.3352 115.727 45.3352C115.719 45.3352 115.711 45.333 115.704 45.329C115.704 45.329 115.681 45.329 115.704 45.2922L115.787 45.1817L115.653 45.1402L115.57 45.2507C115.563 45.2548 115.554 45.2569 115.545 45.2569C115.536 45.2569 115.528 45.2548 115.52 45.2507C115.52 45.2507 115.511 45.2369 115.52 45.2185Z" fill="white"/>
<path d="M116.077 45.3299L115.948 45.293L115.879 45.3437C115.873 45.3469 115.867 45.3486 115.86 45.3486C115.854 45.3486 115.847 45.3469 115.842 45.3437C115.842 45.3437 115.842 45.3161 115.842 45.3022L116.159 45.0674C116.166 45.0642 116.173 45.0625 116.18 45.0625C116.187 45.0625 116.194 45.0642 116.201 45.0674C116.201 45.0674 116.201 45.0674 116.201 45.0904L116.113 45.3943C116.11 45.4024 116.104 45.4093 116.097 45.4142C116.089 45.4191 116.081 45.4218 116.072 45.422C116.072 45.422 116.072 45.4219 116.072 45.3989L116.077 45.3299ZM116.077 45.2746L116.109 45.1595L115.994 45.247L116.077 45.2746Z" fill="white"/>
<path d="M116.536 45.2385L116.457 45.2108L116.273 45.4595C116.266 45.4639 116.257 45.4662 116.248 45.4662C116.239 45.4662 116.23 45.4639 116.223 45.4595V45.4272L116.407 45.1832L116.329 45.1556C116.329 45.1556 116.306 45.1556 116.329 45.1234C116.336 45.1193 116.343 45.1172 116.352 45.1172C116.36 45.1172 116.368 45.1193 116.375 45.1234L116.596 45.1924V45.2246C116.589 45.2332 116.579 45.2392 116.568 45.2417C116.557 45.2442 116.546 45.243 116.536 45.2385Z" fill="white"/>
<path d="M109.221 49.4622L114.23 51L115.289 49.6003L110.275 48.0625L109.221 49.4622Z" fill="#455A64"/>
<path d="M114.695 51.138L114.23 50.9953L114.557 50.5625L114.695 51.138Z" fill="#455A64"/>
<path d="M114.8 49.7765L110.361 48.4136L110.38 48.3906L114.818 49.7489L114.8 49.7765Z" fill="white"/>
<path d="M113.77 49.6441L110.252 48.5667L110.27 48.5391L113.788 49.6164L113.77 49.6441Z" fill="white"/>
<path d="M114.11 50.0957L110.035 48.8479L110.054 48.8203L114.128 50.0727L114.11 50.0957Z" fill="white"/>
<path d="M114.364 50.3514L109.93 48.9886L109.948 48.9609L114.387 50.3238L114.364 50.3514Z" fill="white"/>
<path d="M114.257 50.4998L109.818 49.137L109.837 49.1094L114.275 50.4722L114.257 50.4998Z" fill="white"/>
<path d="M112.918 50.2661L109.709 49.2808L109.732 49.2578L112.941 50.2385L112.918 50.2661Z" fill="white"/>
<path d="M106.725 52.759L111.739 54.2969L112.793 52.8972L107.784 51.3594L106.725 52.759Z" fill="#455A64"/>
<path d="M112.203 54.4459L111.738 54.3032L112.061 53.875L112.203 54.4459Z" fill="#455A64"/>
<path d="M112.306 53.0812L107.867 51.7183L107.886 51.6953L112.324 53.0536L112.306 53.0812Z" fill="white"/>
<path d="M111.273 52.9409L107.756 51.8636L107.779 51.8359L111.296 52.9133L111.273 52.9409Z" fill="white"/>
<path d="M111.615 53.4004L107.545 52.1526L107.563 52.125L111.633 53.3773L111.615 53.4004Z" fill="white"/>
<path d="M111.872 53.6561L107.434 52.2932L107.452 52.2656L111.89 53.6285L111.872 53.6561Z" fill="white"/>
<path d="M111.763 53.7967L107.324 52.4339L107.347 52.4062L111.786 53.7691L111.763 53.7967Z" fill="white"/>
<path d="M110.426 53.563L107.217 52.5777L107.235 52.5547L110.444 53.54L110.426 53.563Z" fill="white"/>
<path d="M116.798 48.3539L111.789 46.8161L112.678 45.6328L117.692 47.1706L116.798 48.3539Z" fill="#CEB7A1"/>
<path d="M111.324 46.6729L111.789 46.8156L112.112 46.3828L111.324 46.6729Z" fill="#CEB7A1"/>
<path d="M116.482 47.1056L112.789 45.9729L112.807 45.9453L116.505 47.0826L116.482 47.1056Z" fill="white"/>
<path d="M117.116 47.4764L112.678 46.1136L112.701 46.0859L117.135 47.4488L117.116 47.4764Z" fill="white"/>
<path d="M117.006 47.6202L112.572 46.2574L112.591 46.2344L117.029 47.5926L117.006 47.6202Z" fill="white"/>
<path d="M116.549 47.655L112.461 46.4026L112.479 46.375L116.568 47.6273L116.549 47.655Z" fill="white"/>
<path d="M116.789 47.9015L112.355 46.5432L112.374 46.5156L116.812 47.8785L116.789 47.9015Z" fill="white"/>
<path d="M115.524 47.6954L112.246 46.6917L112.265 46.6641L115.547 47.6724L115.524 47.6954Z" fill="white"/>
<path d="M115.994 49.4204L110.984 47.8826L111.643 47.0078L116.657 48.5456L115.994 49.4204Z" fill="#CEB7A1"/>
<path d="M110.52 47.7386L110.985 47.8813L111.307 47.4531L110.52 47.7386Z" fill="#CEB7A1"/>
<path d="M116.181 48.6984L111.752 47.3401L111.77 47.3125L116.2 48.6707L116.181 48.6984Z" fill="white"/>
<path d="M115.289 48.6074L111.643 47.4886L111.666 47.4609L115.312 48.5798L115.289 48.6074Z" fill="white"/>
<path d="M115.547 48.8585L111.537 47.6292L111.556 47.6016L115.57 48.8355L115.547 48.8585Z" fill="white"/>
<path d="M114.52 48.7183L111.426 47.7698L111.449 47.7422L114.543 48.6953L114.52 48.7183Z" fill="white"/>
<path d="M113.506 52.717L108.492 51.1792L109.427 49.9453L114.436 51.4831L113.506 52.717Z" fill="#DBDBDB"/>
<path d="M108.033 51.0322L108.494 51.175L108.821 50.7422L108.033 51.0322Z" fill="#DBDBDB"/>
<path d="M113.401 51.9919L109.211 50.7073L109.234 50.6797L113.424 51.9689L113.401 51.9919Z" fill="white"/>
<path d="M112.955 52.0312L109.105 50.8479L109.124 50.8203L112.973 52.0036L112.955 52.0312Z" fill="white"/>
<path d="M113.378 51.6292L109.428 50.4182L109.451 50.3906L113.397 51.6015L113.378 51.6292Z" fill="white"/>
<path d="M113.92 51.6221L109.537 50.2776L109.556 50.25L113.939 51.5944L113.92 51.6221Z" fill="white"/>
<path d="M112.981 52.2165L108.994 50.9918L109.017 50.9688L113 52.1889L112.981 52.2165Z" fill="white"/>
<path d="M111.155 55.8302L106.141 54.2924L106.919 53.2656L111.928 54.8034L111.155 55.8302Z" fill="#CEB7A1"/>
<path d="M105.676 54.1494L106.141 54.2922L106.463 53.8594L105.676 54.1494Z" fill="#CEB7A1"/>
<path d="M111.467 54.9562L107.033 53.5933L107.052 53.5703L111.49 54.9286L111.467 54.9562Z" fill="white"/>
<path d="M111.36 55.0968L106.922 53.734L106.94 53.7109L111.379 55.0692L111.36 55.0968Z" fill="white"/>
<path d="M110.901 55.1315L106.812 53.8792L106.836 53.8516L110.919 55.1039L110.901 55.1315Z" fill="white"/>
<path d="M111.145 55.3859L106.707 54.0276L106.725 54L111.164 55.3628L111.145 55.3859Z" fill="white"/>
<path d="M109.879 55.172L106.596 54.1682L106.619 54.1406L109.897 55.1489L109.879 55.172Z" fill="white"/>
<path d="M109.308 58.9846C107.517 59.0536 113.258 55.3012 113.3 53.2339C113.341 51.1666 111.366 51.8803 109.823 53.0682C104.478 57.212 100.366 57.0968 97.696 60.9828C95.0255 64.8687 109.308 58.9846 109.308 58.9846Z" fill="#EB9481"/>
<path d="M103.828 56.6172C102.666 56.935 101.549 57.3992 100.504 57.9984C99.5742 58.6082 98.7694 59.3895 98.1325 60.3006C98.1049 60.342 98.1601 60.3926 98.1924 60.3512C99.6197 58.5095 101.774 57.5564 103.842 56.6356C103.841 56.6317 103.839 56.6281 103.837 56.6249C103.834 56.6217 103.831 56.6191 103.828 56.6172Z" fill="#1F1F1F"/>
<path d="M83.6938 64.7093C85.0981 65.0546 94.7439 62.1678 94.7439 62.1678L100.499 75.2575C100.499 75.2575 83.6754 79.5855 79.6974 78.3101C75.7193 77.0348 69.2734 63.747 67.1049 55.9982C65.0652 48.7143 67.4456 43.8753 72.8555 51.3433C72.8739 51.3433 82.9617 64.5297 83.6938 64.7093Z" fill="#CEB7A1"/>
<path d="M97.4419 75.9784C96.3553 76.227 95.057 76.5217 93.6527 76.821L88.3809 63.9292C89.6424 63.6207 90.9638 63.2616 92.0642 62.9531C93.6895 66.8667 95.6601 71.6413 97.4419 75.9784Z" fill="#EBEBEB"/>
<path d="M92.1793 77.1238L90.9592 77.3678L85.7012 64.5175C86.0695 64.4484 86.4701 64.3655 86.8844 64.2734C88.4775 68.1226 90.4159 72.8188 92.1793 77.1238Z" fill="#EBEBEB"/>
<path d="M79.4949 77.891C76.1477 76.275 71.8611 67.504 71.037 65.782C70.5075 64.6816 70.0241 63.5582 69.5452 62.4347C68.5922 60.1787 67.7036 57.8996 66.861 55.6067C66.8629 55.6018 66.8637 55.5965 66.8631 55.5913C66.8625 55.586 66.8607 55.581 66.8577 55.5767C66.8548 55.5723 66.8508 55.5687 66.8462 55.5663C66.8415 55.5638 66.8363 55.5625 66.8311 55.5625C66.8258 55.5625 66.8206 55.5638 66.816 55.5663C66.8113 55.5687 66.8073 55.5723 66.8044 55.5767C66.8014 55.581 66.7996 55.586 66.799 55.5913C66.7984 55.5965 66.7992 55.6018 66.8011 55.6067C67.2769 57.3839 67.8401 59.1366 68.4909 60.8647C68.0757 60.2247 67.699 59.5605 67.3628 58.8757C67.3628 58.8434 67.2892 58.8757 67.303 58.9033C67.6465 59.7205 68.087 60.4934 68.6152 61.2054C69.2782 62.9412 70.0195 64.6447 70.839 66.3023C71.0738 66.7627 76.0464 77.5319 79.7666 78.4528C81.0603 78.775 85.4528 78.3561 86.3828 78.1212C86.4196 78.1212 86.4288 78.0614 86.3828 78.0614C85.1166 78.0798 80.7012 78.4804 79.4949 77.891Z" fill="#1F1F1F"/>
<path d="M96.8168 73.7173C96.6418 73.2568 96.4669 72.7964 96.2873 72.3636C95.9282 71.4658 93.7642 66.1157 92.8434 64.449C92.8434 64.403 92.7513 64.449 92.7651 64.4858C93.3038 66.3275 95.5875 71.5993 95.988 72.4695C96.1814 72.9299 96.3748 73.3581 96.5774 73.8001C96.7799 74.2421 97.0378 74.6703 97.2312 75.1169C97.2312 75.1584 97.3232 75.1169 97.3048 75.0893C97.1207 74.6427 97.001 74.1685 96.8168 73.7173Z" fill="#1F1F1F"/>
<path d="M94.754 62.1857C93.9482 62.241 86.7196 64.1011 85.122 64.4878C84.7429 64.625 84.3417 64.6906 83.9387 64.6812C83.5445 64.5734 83.2017 64.3285 82.9718 63.9906C82.4377 63.4058 76.5766 56.0253 76.153 55.6662C75.9964 55.528 75.8721 55.505 76.0241 55.7398C76.2865 56.1404 81.9865 63.4289 82.5022 64.0274C83.0179 64.6259 83.423 65.1186 84.2196 65.068C84.5603 65.0449 94.3166 62.6185 94.8092 62.4067C94.8921 62.3653 94.8783 62.1765 94.754 62.1857Z" fill="#1F1F1F"/>
<path d="M75.6364 49.8914C74.1815 50.1585 70.4659 48.4503 69.545 46.3462C69.4806 46.1988 69.8213 44.7715 70.1528 43.0127C70.3462 41.9446 70.5395 40.7475 70.6132 39.6471C70.6132 39.4215 77.3768 41.9492 77.3768 41.9492C76.8604 43.2934 76.511 44.6959 76.3362 46.1252C76.3196 46.2782 76.3196 46.4326 76.3362 46.5856C76.3385 46.6101 76.3385 46.6348 76.3362 46.6593C76.4421 47.5156 77.2018 49.6014 75.6364 49.8914Z" fill="#EB9481"/>
<path d="M76.3788 46.569V46.6426C76.1422 46.6527 75.9052 46.645 75.6698 46.6196C71.6089 46.1592 70.9827 40.9795 70.8906 39.6719C72.1061 39.9573 77.4102 41.9371 77.4102 41.9371C76.8938 43.2813 76.5444 44.6838 76.3696 46.1132C76.3587 46.2651 76.3618 46.4176 76.3788 46.569Z" fill="#1F1F1F"/>
<path d="M67.8469 32.4334C67.5936 34.9933 70.2595 41.7062 72.2899 42.9171C75.2274 44.6759 79.3435 44.0728 80.6557 40.7025C81.9311 37.4335 78.303 28.7316 76.1022 27.7141C72.8746 26.1947 68.2198 28.6487 67.8469 32.4334Z" fill="#EB9481"/>
<path d="M75.481 35.2422C75.481 35.2422 75.4534 35.279 75.481 35.2928C75.6698 35.7533 75.8171 36.2873 75.481 36.6004C75.9322 36.3564 75.7343 35.6566 75.481 35.2422Z" fill="#1F1F1F"/>
<path d="M74.8908 34.9229C74.1403 35.1531 74.656 36.6403 75.3512 36.4239C76.0464 36.2075 75.5169 34.7341 74.8908 34.9229Z" fill="#1F1F1F"/>
<path d="M78.1641 34.3906C78.1641 34.3906 78.2101 34.3906 78.2147 34.4182C78.362 34.8787 78.6061 35.3943 79.0757 35.4035C78.5462 35.5325 78.2285 34.8556 78.1641 34.3906Z" fill="#1F1F1F"/>
<path d="M78.3993 33.7702C79.1222 33.4571 79.6931 34.9213 79.0255 35.2113C78.3579 35.5014 77.8054 34.0326 78.3993 33.7702Z" fill="#1F1F1F"/>
<path d="M74.068 34.4477C74.2438 34.3233 74.4129 34.1896 74.5744 34.0472C74.7709 33.9298 74.9243 33.7522 75.0118 33.5407C75.0245 33.4683 75.0134 33.3938 74.9802 33.3282C74.947 33.2627 74.8935 33.2096 74.8277 33.177C74.6877 33.1338 74.5386 33.129 74.3961 33.163C74.2536 33.197 74.1228 33.2686 74.0173 33.3703C73.7695 33.5414 73.5953 33.7995 73.5293 34.0932C73.5168 34.1609 73.5245 34.2308 73.5514 34.2941C73.5784 34.3574 73.6235 34.4114 73.681 34.4492C73.7385 34.4871 73.8059 34.5071 73.8747 34.5068C73.9435 34.5066 74.0108 34.486 74.068 34.4477Z" fill="#1F1F1F"/>
<path d="M78.7265 32.824C78.5055 32.8609 78.3029 32.8563 78.0819 32.8747C77.8572 32.9226 77.6231 32.8967 77.4143 32.801C77.3552 32.7582 77.3119 32.6971 77.2911 32.6272C77.2703 32.5572 77.2731 32.4824 77.2992 32.4143C77.3725 32.2863 77.4785 32.1801 77.6063 32.1065C77.7341 32.0329 77.8792 31.9945 78.0267 31.9953C78.3238 31.9554 78.6252 32.0258 78.8738 32.1933C78.9285 32.2346 78.9699 32.291 78.9932 32.3554C79.0165 32.4199 79.0206 32.4897 79.005 32.5565C78.9894 32.6232 78.9548 32.684 78.9054 32.7315C78.8559 32.779 78.7938 32.8111 78.7265 32.824Z" fill="#1F1F1F"/>
<path d="M78.1275 38.1752C78.0209 38.495 77.8338 38.782 77.5842 39.0086C77.4441 39.1277 77.2702 39.2001 77.087 39.2158C76.6864 39.248 76.5621 38.9119 76.5299 38.6034C76.5109 38.4367 76.5109 38.2683 76.5299 38.1016C77.0407 38.2971 77.6009 38.3229 78.1275 38.1752Z" fill="#1F1F1F"/>
<path d="M77.5856 39.007C77.4454 39.1261 77.2716 39.1986 77.0884 39.2142C76.6878 39.2464 76.5635 38.9103 76.5312 38.6018C76.727 38.5427 76.9369 38.5504 77.1279 38.6238C77.3188 38.6971 77.4798 38.832 77.5856 39.007Z" fill="#FF9BBC"/>
<path d="M70.1759 38.6461C71.4927 38.1028 69.8306 34.4562 69.8306 34.4562C70.3705 34.1863 70.8228 33.7688 71.135 33.2521C71.4471 32.7354 71.6063 32.1407 71.594 31.5372C71.594 31.5372 77.2433 31.0767 78.0399 28.8759C78.8364 26.6751 77.2756 23.862 76.5803 23.8988C75.8851 23.9356 75.1991 25.1419 75.1991 25.1419C75.1991 25.1419 74.467 24.2487 73.8961 24.3132C73.0167 24.4099 72.8786 25.5793 72.5148 25.9615C71.5203 26.9606 68.0948 28.0656 67.3535 29.0463C67.1411 29.2879 66.9918 29.5783 66.9187 29.8915C66.8456 30.2048 66.851 30.5313 66.9345 30.8419C66.6242 31.0457 66.369 31.323 66.1915 31.6491C66.014 31.9751 65.9197 32.34 65.917 32.7112C65.8065 34.3734 68.8499 39.1986 70.1759 38.6461Z" fill="#1F1F1F"/>
<path d="M70.2922 38.3312C71.2545 36.95 70.3198 35.0668 69.4082 33.8836C69.4082 33.8836 69.4082 33.8467 69.4404 33.8836C70.3613 34.9655 71.4571 37.1065 70.3613 38.3957C70.3527 38.4048 70.3409 38.4102 70.3284 38.4107C70.3158 38.4111 70.3037 38.4065 70.2945 38.398C70.2854 38.3894 70.28 38.3776 70.2795 38.3651C70.2791 38.3526 70.2837 38.3404 70.2922 38.3312Z" fill="#1F1F1F"/>
<path d="M70.6733 31.334C71.9664 31.5045 73.2776 31.4813 74.5638 31.265C75.1481 31.1426 75.7165 30.9541 76.2582 30.7032C76.7969 30.4546 77.7545 30.0264 77.9663 29.4141C77.7518 29.8989 77.3691 30.2897 76.889 30.5145C76.2669 30.8965 75.5899 31.1807 74.8815 31.357C73.4927 31.718 72.0383 31.7464 70.6364 31.4399C70.572 31.4307 70.6042 31.3294 70.6733 31.334Z" fill="#1F1F1F"/>
<path d="M67.9078 28.2063C68.5351 27.8404 69.1857 27.5159 69.8553 27.2348C70.6749 26.8342 71.6694 26.4429 72.3186 25.7891H72.3416C71.8855 26.2557 71.3489 26.6363 70.7577 26.9125C70.1776 27.2302 69.5837 27.5248 68.9851 27.8057C68.3037 28.128 67.5532 28.4963 67.1435 29.187C66.7337 29.8776 66.8718 30.5682 66.9593 31.2635C66.9593 31.2773 66.9545 31.2907 66.9457 31.3014C66.9369 31.3121 66.9247 31.3194 66.9112 31.3222C66.8976 31.3249 66.8835 31.3228 66.8713 31.3163C66.8591 31.3098 66.8495 31.2993 66.8442 31.2865C66.6476 30.7284 66.6457 30.1202 66.8388 29.5609C67.0319 29.0016 67.4087 28.5241 67.9078 28.2063Z" fill="#1F1F1F"/>
<path d="M66.6222 31.1719C65.1764 32.2216 65.9131 34.358 66.6544 35.6149C67.3026 36.8471 68.3267 37.8406 69.5781 38.4511C69.6379 38.4741 69.5781 38.5662 69.532 38.5432C68.0311 37.9539 66.926 36.5174 66.2354 35.1085C65.7197 34.0449 65.1396 31.8027 66.6222 31.1719Z" fill="#1F1F1F"/>
<path d="M70.7617 37.8322C70.7617 37.8322 68.6944 35.9353 67.8012 36.7226C66.908 37.5099 68.8049 40.498 70.1033 40.6776C70.2677 40.7122 70.4375 40.7132 70.6023 40.6806C70.7672 40.648 70.9237 40.5824 71.0626 40.4878C71.2015 40.3932 71.3198 40.2716 71.4105 40.1301C71.5012 39.9887 71.5625 39.8304 71.5905 39.6647L70.7617 37.8322Z" fill="#EB9481"/>
<path d="M68.3672 37.5661V37.5983C69.288 37.7548 69.8958 38.4317 70.3792 39.1729C70.3126 39.0995 70.2308 39.0415 70.1395 39.0029C70.0481 38.9644 69.9495 38.9462 69.8504 38.9498C69.7513 38.9533 69.6542 38.9783 69.5658 39.0232C69.4774 39.0682 69.3999 39.1318 69.3387 39.2098C69.3387 39.2098 69.3387 39.2604 69.3709 39.2512C69.5072 39.1703 69.6654 39.1344 69.8232 39.1484C69.9811 39.1625 70.1305 39.2258 70.2503 39.3295C70.4507 39.5007 70.6314 39.6938 70.789 39.905C70.8489 39.9741 70.9732 39.905 70.9271 39.8221C70.7015 38.7309 69.5367 37.4187 68.3672 37.5661Z" fill="#1F1F1F"/>
<path d="M76.8717 46.3984H76.8487C77.3091 47.7244 78.2852 50.8185 76.1949 51.1914C75.3237 51.2653 74.4499 51.0828 73.681 50.6665C72.8896 50.3008 72.1395 49.8517 71.4434 49.3267C70.6384 48.7599 69.8808 48.1285 69.1781 47.439C69.1459 47.4068 69.109 47.439 69.1367 47.485C69.8503 48.1757 70.5179 48.9215 71.273 49.5431C72.0115 50.1502 72.8294 50.6536 73.704 51.0395C74.517 51.4601 75.4395 51.6209 76.3468 51.4999C76.7353 51.4087 77.0794 51.1841 77.3192 50.8652C77.559 50.5463 77.6793 50.1534 77.659 49.7549C77.6393 48.5927 77.3708 47.4482 76.8717 46.3984Z" fill="#1F1F1F"/>
<path d="M118.67 189.273H193.553V157.841H118.67V189.273Z" fill="#1F1F1F"/>
<path d="M120.088 157.837C120.088 157.837 121.119 153.21 123.177 152.501C125.235 151.792 126.492 153.882 126.492 153.882C126.492 153.882 126.976 149.462 129.895 148.141C132.814 146.819 135.01 149.522 135.01 149.522C135.01 149.522 137.252 143.914 141.253 143.914C145.254 143.914 147.276 152.119 147.276 152.119C147.276 152.119 149.642 149.674 152.064 151.055C154.486 152.436 154.486 157.851 154.486 157.851L120.088 157.837Z" fill="#37474F"/>
<path d="M161.115 157.838H192.125C192.125 157.838 191.102 153.635 189.044 153.335C186.986 153.036 186.029 154.988 186.029 154.988C186.029 154.988 186.121 149.127 182.281 148.128C178.441 147.129 175.218 152.309 175.218 152.309C175.218 152.309 172.805 149.357 169.523 149.546C166.24 149.735 165.406 154.611 165.406 154.611C165.406 154.611 162.432 152.921 161.115 157.838Z" fill="#37474F"/>
<path d="M152.262 157.839H171.323C171.323 157.839 171.277 155.113 169.403 154.39C168.896 154.175 168.334 154.125 167.798 154.249C167.261 154.372 166.777 154.662 166.415 155.076C166.415 155.076 165.651 150.062 162.161 150.062C158.671 150.062 156.995 154.39 156.995 154.39C156.692 153.971 156.274 153.648 155.793 153.46C155.311 153.271 154.785 153.225 154.278 153.327C152.34 153.566 152.262 157.839 152.262 157.839Z" fill="#455A64"/>
<path d="M133.55 189.18H196.162V185.469H133.55V189.18Z" fill="#CEB7A1"/>
<path d="M133.55 184.578H196.162V180.867H133.55V184.578Z" fill="#CEB7A1"/>
<path d="M133.55 179.969H196.162V176.258H133.55V179.969Z" fill="#CEB7A1"/>
<path d="M133.55 175.367H196.162V171.656H133.55V175.367Z" fill="#CEB7A1"/>
<path d="M133.55 170.758H196.162V167.047H133.55V170.758Z" fill="#CEB7A1"/>
<path d="M133.55 166.156H196.162V162.445H133.55V166.156Z" fill="#CEB7A1"/>
<path d="M133.55 161.547H196.162V157.836H133.55V161.547Z" fill="#CEB7A1"/>
<path d="M116.059 189.18H133.551V185.469H116.059V189.18Z" fill="#CEB7A1"/>
<path opacity="0.2" d="M116.059 189.18H133.551V185.469H116.059V189.18Z" fill="#020100"/>
<path d="M116.059 184.578H133.551V180.867H116.059V184.578Z" fill="#CEB7A1"/>
<path opacity="0.2" d="M116.059 184.578H133.551V180.867H116.059V184.578Z" fill="#020100"/>
<path d="M116.059 179.969H133.551V176.258H116.059V179.969Z" fill="#CEB7A1"/>
<path opacity="0.2" d="M116.059 179.969H133.551V176.258H116.059V179.969Z" fill="#020100"/>
<path d="M116.059 175.367H133.551V171.656H116.059V175.367Z" fill="#CEB7A1"/>
<path opacity="0.2" d="M116.059 175.367H133.551V171.656H116.059V175.367Z" fill="#020100"/>
<path d="M116.059 170.758H133.551V167.047H116.059V170.758Z" fill="#CEB7A1"/>
<path opacity="0.2" d="M116.059 170.758H133.551V167.047H116.059V170.758Z" fill="#020100"/>
<path d="M116.059 166.156H133.551V162.445H116.059V166.156Z" fill="#CEB7A1"/>
<path opacity="0.2" d="M116.059 166.156H133.551V162.445H116.059V166.156Z" fill="#020100"/>
<path d="M116.059 161.547H133.551V157.836H116.059V161.547Z" fill="#CEB7A1"/>
<path opacity="0.2" d="M116.059 161.547H133.551V157.836H116.059V161.547Z" fill="#020100"/>
</g>
<defs>
<clipPath id="clip0_402_8927">
<rect width="200" height="200" fill="white" transform="translate(0.5)"/>
</clipPath>
</defs>
</svg>
