<svg width="1024" height="294" viewBox="0 0 1024 294" fill="none" xmlns="http://www.w3.org/2000/svg">
<g clip-path="url(#clip0_71_2409)">
<path d="M737.73 24.0601C730.09 21.5701 719.56 20.3301 706.16 20.3301C692.76 20.3301 682.99 21.5801 675.47 24.0601C667.94 26.5501 662.77 32.6501 659.95 42.3601L588.34 285.87C588.34 287.36 589.28 288.11 591.16 288.11H637.02C639.37 288.11 640.9 286.87 641.61 284.37L660.31 220.51C661.01 217.77 662.54 216.4 664.9 216.4H747.8C750.15 216.4 751.68 217.65 752.39 220.13L771.09 284.74C771.8 286.98 773.32 288.1 775.68 288.1H821.89C823.53 288.1 824.36 287.35 824.36 285.86L753.45 42.3501C750.63 32.6401 745.39 26.5401 737.75 24.0501L737.73 24.0601ZM732.61 165.24H680.05C678.16 165.24 677.23 164.37 677.23 162.63C677.23 162.38 677.29 162.13 677.41 161.88C677.52 161.64 677.58 161.26 677.58 160.76L702.28 75.6101C703.69 71.1301 704.98 68.8901 706.16 68.8901C707.34 68.8901 708.16 69.3301 708.63 70.2001C709.1 71.0701 709.69 72.8801 710.4 75.6101L735.09 160.76C735.09 161.26 735.15 161.64 735.27 161.88C735.38 162.13 735.45 162.38 735.45 162.63C735.45 164.38 734.51 165.24 732.63 165.24H732.61Z" fill="#ffffff"/>
<path d="M1020.47 20.3301H897C889.71 20.3301 882.94 21.3901 876.72 23.5001C870.48 25.6201 865.08 28.7301 860.49 32.8401C855.9 36.9501 852.32 42.1201 849.73 48.3401C847.14 54.5701 845.85 61.9101 845.85 70.3701V284.38C845.85 286.87 847.02 288.12 849.38 288.12H893.48C895.83 288.12 897.01 286.88 897.01 284.38V182.05C897.01 179.31 898.18 177.94 900.54 177.94H1008.84C1011.19 177.94 1012.37 176.7 1012.37 174.21V133.12C1012.37 130.63 1011.19 129.39 1008.84 129.39H900.54C898.19 129.39 897.01 128.02 897.01 125.28V89.8001C897.01 83.0801 898.24 77.9101 900.71 74.3001C903.18 70.6901 907.59 68.8801 913.94 68.8801H1020.48C1022.83 68.8801 1024.01 67.6401 1024.01 65.1501V24.0601C1024.01 21.5701 1022.83 20.3301 1020.48 20.3301H1020.47Z" fill="#ffffff"/>
<path d="M214.35 58.9396C229.05 58.9396 241.47 46.6996 241.47 32.2197C241.47 17.7397 229.3 5.88965 214.35 5.88965C199.4 5.88965 187.63 17.9496 187.63 32.2197C187.63 46.4897 199.87 58.9396 214.35 58.9396Z" fill="#ffffff"/>
<path d="M300.58 218.24C300.6 217.21 300.61 216.19 300.61 215.19H300.51C300.34 209.37 300.04 205.42 300.02 205.42C300.09 203.83 300.15 202.24 300.15 200.59V139.51C300.15 120.48 293.49 104.4 280.31 91.6599C264.87 77.0699 242.68 69.6699 214.35 69.6699C163.92 69.6699 131.34 97.0799 131.34 139.51C131.34 162.73 135.7 179.25 144.75 190.12C155.75 202.88 175.13 209.34 202.36 209.34C217.62 209.34 232.99 209.87 248.22 209.01C249.06 208.96 249.95 208.93 250.67 209.36C251.67 209.96 251.89 212.44 251.83 215.18H251.27C251.27 215.26 251.26 215.36 251.26 215.43C251.14 218.98 250.89 222.54 250.85 226.1C250.83 228.01 250.81 229.95 250.17 231.75C245.67 244.53 225.8 242.16 215.53 242.16H83.02C60.13 242.16 49.47 231.62 49.47 209.01V129.73L0 172V213.02C0 257.66 31.28 287.65 77.82 287.65H220.73C245.92 287.65 264.95 283.1 277.35 274.12C285.14 268.39 290.94 260.69 294.75 251.1C298.73 245.02 300.13 232.69 300.5 221.4H300.61C300.61 220.32 300.59 219.26 300.58 218.25V218.24ZM250.29 165.49H210.76C190.1 165.49 185.16 162.82 184.64 162.45C183.74 161.55 180.8 157.31 180.8 140.71C180.8 128.8 184.61 115.14 214.35 115.14C246.21 115.14 250.29 128.8 250.29 140.71V165.48V165.49Z" fill="#ffffff"/>
<path d="M493.02 287C492.52 286.25 492.14 285.63 491.9 285.13L467.76 242.07H391.89C383.65 241.55 380.32 237.77 380.32 228.98V20.0498H330.46V230.19C330.46 265.63 352.94 287.65 389.12 287.65H493.73C493.46 287.48 493.22 287.29 493.03 287H493.02Z" fill="#ffffff"/>
<path d="M553.15 283.26L480.69 159.26C480.19 158.52 479.5 157.27 478.63 155.53C477.76 153.79 477.32 152.54 477.32 151.8C477.32 151.3 477.88 150.06 479 148.06C480.12 146.07 480.93 144.83 481.43 144.32L550.9 25.1803C551.89 23.4403 552.14 22.1903 551.65 21.4403C551.15 20.7003 550.53 20.3203 549.78 20.3203H493.01C492.01 20.3203 491.26 20.6903 490.77 21.4403C490.27 22.1903 489.89 22.8103 489.65 23.3103L433.25 125.27C430.76 130 428.77 133.86 427.27 136.85C425.78 139.84 424.66 142.39 423.91 144.51C423.16 146.63 422.66 148.25 422.42 149.37C422.17 150.49 422.05 151.55 422.05 152.54C422.05 158.27 425.78 167.61 433.25 180.55L467.74 242.07L491.88 285.13C492.13 285.63 492.5 286.25 493 287C493.19 287.28 493.43 287.48 493.7 287.65C493.83 287.73 493.96 287.82 494.1 287.88H552.9C553.26 287.7 553.59 287.43 553.87 287C554.37 286.25 554.11 285.01 553.12 283.26H553.15Z" fill="#000000"/>
</g>
<defs>
<clipPath id="clip0_71_2409">
<rect width="1024" height="294" fill="white"/>
</clipPath>
</defs>
</svg>
