<svg width="63" height="54" viewBox="0 0 63 54" fill="none" xmlns="http://www.w3.org/2000/svg">
<path d="M27.1845 4.41834C27.3202 5.42911 27.131 6.37679 26.6167 7.26139C26.5591 7.36013 26.5275 7.3519 26.522 7.2367C26.5118 7.03715 26.6311 6.79646 26.629 6.61543C26.6167 4.47389 25.4811 2.86722 23.5371 1.99085C23.1105 1.79885 23.129 1.74056 23.5926 1.81599C26.2196 2.24389 28.2583 3.1614 29.507 5.62386C29.5523 5.71163 29.6051 5.71643 29.6654 5.63826C30.5541 4.49309 30.4095 3.52209 29.2314 2.72527C29.2169 2.71524 29.2052 2.70179 29.1972 2.68615C29.1892 2.67051 29.1852 2.65318 29.1856 2.63577C29.1861 2.61836 29.1908 2.60142 29.1995 2.5865C29.2083 2.57158 29.2206 2.55917 29.2355 2.55041C30.2051 1.97988 30.8586 1.15975 31.196 0.0900042C31.233 -0.0306846 31.2673 -0.0299968 31.2989 0.0920634C31.6177 1.3593 32.2698 1.83862 33.2018 2.57304C33.2772 2.63338 33.2751 2.69099 33.1956 2.74584C32.0367 3.54404 31.905 4.50749 32.8006 5.6362C32.8123 5.65051 32.8275 5.66166 32.8446 5.66864C32.8618 5.67562 32.8804 5.6782 32.8988 5.67616C32.9172 5.67411 32.9348 5.66751 32.9499 5.65694C32.9651 5.64637 32.9774 5.63217 32.9858 5.61563C34.1625 3.17991 36.4994 2.03405 39.11 1.80365C39.1205 1.80323 39.1308 1.80647 39.1392 1.8128C39.1475 1.81914 39.1534 1.82818 39.1558 1.83839C39.1583 1.84859 39.1571 1.85932 39.1525 1.86875C39.1479 1.87817 39.1401 1.8857 39.1306 1.89005C36.7422 2.87956 35.3454 5.04373 36.0366 7.65637C36.0397 7.66367 36.0398 7.67188 36.037 7.67931C36.0342 7.68673 36.0287 7.69279 36.0216 7.69623C36.0144 7.69967 36.0062 7.70023 35.9987 7.69779C35.9911 7.69534 35.9848 7.69009 35.981 7.68311C35.2871 6.71349 35.0169 5.6362 35.1705 4.45126C35.1787 4.3868 35.1575 4.37446 35.1067 4.41423C34.1769 5.16031 33.5878 6.11416 33.3396 7.27579C33.3245 7.34573 33.2888 7.35807 33.2326 7.31282C32.4084 6.65863 31.7384 5.87209 31.2227 4.95321C31.1788 4.87504 31.1356 4.87641 31.0931 4.95733C30.6049 5.89678 29.9356 6.68537 29.0853 7.3231C29.0304 7.36425 28.9969 7.35122 28.9845 7.28402C28.7514 6.11141 28.1705 5.14522 27.2421 4.38543C27.1954 4.34566 27.1762 4.35663 27.1845 4.41834Z" fill="#ED5A67"/>
<path d="M13.1939 3.68942C13.1719 3.69079 13.1514 3.70793 13.1322 3.74085C12.3436 5.09448 12.2071 6.55646 12.7228 8.12679C13.1445 9.41253 13.9077 11.0171 13.702 11.8647C13.6883 11.9196 13.6636 11.9251 13.628 11.8812C12.6954 10.736 11.6942 9.65185 10.6245 8.62874C9.00132 7.07967 8.33273 3.75525 10.141 2.09098C10.237 2.00457 10.2672 2.02309 10.2315 2.14652C9.96546 3.0846 10.0231 4.00142 10.4043 4.89699C10.4132 4.91672 10.4276 4.93339 10.446 4.94487C10.4643 4.95635 10.4856 4.96213 10.5072 4.96147C10.5288 4.9608 10.5497 4.95374 10.5673 4.94116C10.5849 4.92858 10.5983 4.91106 10.6059 4.89082C12.0151 0.817573 16.1172 0.778486 19.6597 1.36479C19.6782 1.36761 19.6953 1.37669 19.7079 1.39053C19.7206 1.40437 19.7282 1.42214 19.7294 1.44087C19.7306 1.45961 19.7254 1.4782 19.7145 1.49354C19.7037 1.50889 19.688 1.52008 19.6699 1.52525C18.0921 1.97989 16.0328 2.85831 15.1133 4.13377C13.379 6.53657 15.9361 9.4475 14.8458 12.0478C14.8394 12.0655 14.8265 12.08 14.8098 12.0885C14.793 12.097 14.7736 12.0989 14.7556 12.0936C14.7376 12.0884 14.7222 12.0765 14.7126 12.0603C14.703 12.0442 14.6998 12.025 14.7039 12.0067C14.8088 11.3093 14.636 10.7991 14.2965 10.1058C13.2535 7.99307 12.0933 6.16217 13.2227 3.73056C13.2364 3.70039 13.2268 3.68667 13.1939 3.68942Z" fill="#ED5A67"/>
<path d="M49.2347 3.80091C50.4176 6.16668 49.0887 8.37611 47.8502 10.7419C47.7309 10.9695 47.7008 11.4146 47.7597 12.077C47.7721 12.2114 47.7392 12.2238 47.661 12.114C47.1899 11.4454 47.2434 10.0754 47.4182 9.29156C47.6671 8.17245 48.0683 6.82087 47.9428 5.78816C47.6178 3.13026 44.9373 2.30533 42.7937 1.50302C42.71 1.47148 42.7121 1.44611 42.7998 1.42691C44.8323 0.981182 46.6557 0.962666 48.2699 1.37136C50.0864 1.83012 51.1397 3.25575 51.8782 4.92825C51.8845 4.94283 51.8949 4.95527 51.9081 4.96408C51.9213 4.9729 51.9368 4.9777 51.9527 4.97792C51.9685 4.97813 51.9841 4.97376 51.9976 4.96531C52.011 4.95686 52.0217 4.94471 52.0284 4.93031C52.4995 3.9696 52.4234 3.11175 52.2218 2.1531C52.2184 2.13865 52.2201 2.12362 52.2265 2.11039C52.233 2.09716 52.2438 2.08651 52.2573 2.08011C52.2708 2.07372 52.2861 2.07197 52.301 2.07513C52.3158 2.07829 52.3292 2.08618 52.339 2.09755C53.3663 3.3497 53.6652 4.72665 53.236 6.2284C52.6188 8.39874 50.2242 10.0219 48.8727 11.8672C48.8178 11.9426 48.7828 11.9344 48.7677 11.8425C48.6923 11.3721 48.6958 11.0402 48.778 10.8468C49.7285 8.6456 50.7509 5.85605 49.2779 3.77622C49.1518 3.59793 49.1374 3.60616 49.2347 3.80091Z" fill="#ED5A67"/>
<path d="M17.8923 8.08088C18.3422 7.26349 19.006 6.69159 19.8837 6.36518C19.9 6.35905 19.9179 6.35903 19.9342 6.36512C19.9506 6.37121 19.9641 6.383 19.9724 6.39831C19.9807 6.41362 19.9831 6.43141 19.9793 6.44839C19.9755 6.46537 19.9656 6.48039 19.9516 6.49067C16.9872 8.71244 20.1861 13.623 15.2571 15.1947C15.0404 15.2632 15.0205 15.2255 15.1974 15.0815C18.5918 12.3166 15.0699 8.07677 17.7339 4.78731C19.0135 3.20464 20.7217 2.56211 22.8584 2.85972C23.9089 3.00647 24.6482 3.53448 25.0761 4.44376C25.6233 5.60402 24.9979 7.09754 23.5908 7.10166C22.1754 7.10371 21.4204 5.09795 23.0333 4.71737C23.1018 4.70091 23.1677 4.70982 23.2308 4.74411C23.2815 4.77154 23.3405 4.78114 23.4077 4.77291C23.4927 4.76057 23.505 4.72423 23.4447 4.66388C23.0593 4.27439 22.6973 4.08032 22.3585 4.08169C19.6389 4.09952 18.1111 5.41956 17.7751 8.04179C17.774 8.05593 17.7778 8.07001 17.7856 8.0818C17.7935 8.09359 17.8051 8.10243 17.8185 8.10691C17.832 8.11139 17.8465 8.11127 17.8599 8.10655C17.8733 8.10184 17.8847 8.09281 17.8923 8.08088Z" fill="#ED5A67"/>
<path d="M44.6614 8.03857C44.7087 5.46297 41.3575 2.94701 39.0185 4.56603C39.0046 4.57529 38.9942 4.58873 38.9887 4.60441C38.9832 4.62008 38.983 4.63718 38.988 4.65322C38.9931 4.66926 39.0031 4.68341 39.0167 4.69362C39.0304 4.70384 39.0468 4.70958 39.0638 4.71003C40.9626 4.72649 40.5388 7.05112 38.9095 7.10872C38.0125 7.13958 37.2925 6.42573 37.1855 5.57405C36.9983 4.06201 38.3376 3.06222 39.7344 2.87296C41.0839 2.68781 42.1866 2.86473 43.351 3.58269C48.3253 6.64585 43.4888 11.686 47.2637 15.1318C47.3351 15.1976 47.3234 15.2196 47.2288 15.1976C45.4534 14.8006 44.3466 13.2371 44.1389 11.5029C43.9187 9.65553 44.0422 7.71971 42.38 6.36607C42.3741 6.36079 42.3702 6.35367 42.3689 6.34588C42.3675 6.33809 42.3689 6.33008 42.3727 6.32317C42.3765 6.31625 42.3826 6.31083 42.3899 6.30778C42.3972 6.30474 42.4053 6.30426 42.4129 6.30642C43.3537 6.61499 44.0662 7.20198 44.5503 8.06737C44.6216 8.19355 44.6587 8.18395 44.6614 8.03857Z" fill="#ED5A67"/>
<path d="M11.8048 24.2603C4.67046 22.2546 2.31086 14.0402 5.83484 8.01466C6.49726 6.8832 8.48039 7.73488 7.57522 9.42589C4.47092 15.219 6.00559 20.9853 11.848 24.1554C11.8595 24.1627 11.868 24.1737 11.8721 24.1866C11.8762 24.1995 11.8756 24.2135 11.8705 24.226C11.8653 24.2385 11.8559 24.2488 11.8439 24.2551C11.8319 24.2614 11.818 24.2632 11.8048 24.2603Z" fill="#ED5A67"/>
<path d="M54.6954 9.0875C54.2387 8.21319 55.2056 7.24219 56.1128 7.62483C56.5325 7.80175 56.7547 8.23993 56.946 8.63903C59.9392 14.8991 57.559 22.1486 50.6448 24.2758C50.632 24.2783 50.6187 24.2763 50.6071 24.2703C50.5955 24.2642 50.5863 24.2544 50.5811 24.2424C50.5758 24.2305 50.5747 24.2171 50.5781 24.2044C50.5815 24.1918 50.589 24.1807 50.5995 24.1729C56.6888 20.5852 57.9437 15.3126 54.6954 9.0875Z" fill="#ED5A67"/>
<path d="M31.171 46.5941C19.2845 41.7638 12.3456 30.799 13.6107 17.8963C13.6154 17.846 13.6364 17.7986 13.6706 17.7614C13.7048 17.7242 13.7503 17.6993 13.8 17.6905C17.4988 17.0076 20.3049 14.181 19.7762 10.227C19.772 10.1917 19.7817 10.1561 19.8031 10.1278C19.8246 10.0994 19.8562 10.0804 19.8914 10.0748C23.3886 9.52142 27.0895 8.91455 30.5373 8.86312C34.5777 8.80346 38.583 9.46794 42.5699 10.0542C42.6398 10.0652 42.6714 10.1057 42.6645 10.1756C42.2428 14.2324 44.7011 16.6928 48.3753 17.6473C48.3904 17.6515 48.4589 17.6576 48.581 17.6659C48.725 17.6768 48.8059 17.7831 48.8238 17.9847C49.9881 31.1096 43.2344 41.5087 31.3561 46.5941C31.2944 46.6202 31.2327 46.6202 31.171 46.5941ZM14.808 19.003C14.0016 30.7167 20.3645 40.5521 30.9838 45.1603C31.1442 45.2288 31.3054 45.2268 31.4672 45.1541C42.1296 40.3691 48.1798 31.1384 47.6882 19.4083C47.68 19.2026 47.6457 18.9989 47.5853 18.7973C47.5759 18.7659 47.5585 18.7374 47.5348 18.7143C47.511 18.6913 47.4817 18.6746 47.4496 18.6657C43.8844 17.7214 41.4878 14.9977 41.3315 11.2556C41.3303 11.2291 41.3198 11.2037 41.3018 11.1839C41.2838 11.164 41.2594 11.1508 41.2327 11.1466C38.727 10.7784 36.0259 10.3608 33.6684 10.2353C29.5067 10.0172 25.4581 10.4533 21.3479 11.1178C21.2839 11.1281 21.2255 11.1602 21.1824 11.2085C21.1394 11.2568 21.1142 11.3185 21.1113 11.3832C20.9385 14.9936 18.5439 17.7132 15.1022 18.6451C15.0218 18.6668 14.9502 18.713 14.8974 18.7771C14.8447 18.8413 14.8134 18.9203 14.808 19.003Z" fill="#ED5A67"/>
<path d="M11.6763 23.5159C7.63801 20.6276 6.23911 16.3774 8.32099 11.7076C9.02661 10.1256 10.5798 11.2242 9.94207 12.2774C7.69767 15.9804 8.68512 20.5433 11.7709 23.483C11.7997 23.5104 11.7956 23.5303 11.7586 23.5426C11.738 23.5495 11.7106 23.5406 11.6763 23.5159Z" fill="#ED5A67"/>
<path d="M52.5001 12.2242C51.8912 11.212 53.4567 10.1258 54.1767 11.7921C56.1845 16.4311 54.8144 20.815 50.5766 23.5984C50.5745 23.5998 50.5721 23.6007 50.5697 23.601C50.5672 23.6014 50.5646 23.6011 50.5623 23.6003C50.5599 23.5995 50.5577 23.5982 50.5559 23.5964C50.5541 23.5947 50.5528 23.5925 50.5519 23.5902C50.5451 23.5723 50.5389 23.5545 50.5334 23.5367C50.532 23.5339 50.5375 23.5278 50.5499 23.5182C51.9426 22.4402 52.8868 20.5805 53.397 18.9388C54.1294 16.5813 53.7467 14.3019 52.5001 12.2242Z" fill="#ED5A67"/>
<path d="M46.7009 19.5873C47.2399 30.5419 41.3584 39.8157 31.3131 44.1399C31.2768 44.1555 31.2375 44.1634 31.1979 44.163C31.1582 44.1627 31.119 44.1541 31.0827 44.1379C21.0313 39.645 15.4069 30.8504 15.7258 19.7251C15.7282 19.6392 15.7566 19.5562 15.8074 19.487C15.8581 19.4179 15.9287 19.366 16.0096 19.3384C19.452 18.1411 21.4626 15.7342 22.0413 12.1176C22.0509 12.0587 22.0852 12.0257 22.1442 12.0189C24.4071 11.7144 26.884 11.305 28.9576 11.1672C32.9136 10.9059 36.4561 11.4737 40.2146 12.0045C40.2751 12.0133 40.3311 12.0415 40.3741 12.085C40.4172 12.1284 40.4449 12.1846 40.4532 12.2452C40.8414 15.0238 42.219 17.1111 44.5861 18.5073C45.1416 18.8323 45.913 19.1306 46.5919 19.431C46.6605 19.4611 46.6968 19.5132 46.7009 19.5873ZM16.0343 19.8013C15.6044 30.4184 21.3604 39.4475 30.9901 43.6956C30.997 43.6983 31.034 43.7216 31.1012 43.7655C31.1835 43.8176 31.2864 43.8142 31.4098 43.7552C38.0607 40.5707 42.9815 35.8186 45.228 28.676C46.1332 25.8014 46.5069 22.8548 46.3491 19.8362C46.3464 19.7663 46.3135 19.7162 46.2504 19.6861C45.7965 19.468 45.3473 19.2444 44.9029 19.0154C42.2149 17.633 40.6233 15.4421 40.1282 12.4427C40.1159 12.3714 40.0747 12.3302 40.0048 12.3192C35.5592 11.5704 31.1547 11.196 26.6577 11.7391C25.2725 11.9064 23.9141 12.0888 22.5824 12.2863C22.4315 12.3096 22.3417 12.396 22.3129 12.5455C21.6285 16.1182 19.572 18.4881 16.1434 19.6552C16.0734 19.6799 16.0371 19.7286 16.0343 19.8013Z" fill="#ED5A67"/>
<path d="M10.8927 16.9407C11.2425 16.1898 12.234 16.3297 12.2731 17.1094C12.2896 17.4427 11.9501 17.9508 11.7917 18.28C11.0731 19.7872 11.1149 21.2588 11.9172 22.6947C12.0077 22.8579 11.9844 22.8764 11.8473 22.7502C10.2324 21.2629 10.0411 18.7716 10.8927 16.9407Z" fill="#ED5A67"/>
<path d="M50.2817 17.4679C49.823 16.5833 51.1704 16.0402 51.5119 16.7952C52.5199 19.0225 52.2052 21.0214 50.5677 22.792C50.5581 22.8018 50.5451 22.8079 50.5312 22.809C50.5173 22.8101 50.5035 22.8061 50.4926 22.7978C50.4817 22.7895 50.4745 22.7775 50.4724 22.7642C50.4703 22.7509 50.4735 22.7373 50.4813 22.7261C51.6292 20.8973 51.1992 19.2371 50.2817 17.4679Z" fill="#ED5A67"/>
<path d="M57.5704 23.7349C57.2556 21.1778 58.9014 19.7728 60.6726 18.2443C60.7508 18.1757 60.7816 18.1928 60.7652 18.2957C60.5101 19.9229 60.1686 21.3074 60.7261 22.9182C61.4729 25.0844 62.6846 27.4338 62.4171 29.7831C62.1099 32.4972 60.6911 34.3933 58.1608 35.4712C57.2803 35.8477 56.1386 35.9073 55.1429 36.0802C55.129 36.0824 55.116 36.0884 55.1053 36.0974C55.0945 36.1065 55.0864 36.1182 55.0818 36.1315C55.0771 36.1448 55.0762 36.159 55.079 36.1728C55.0817 36.1866 55.0882 36.1993 55.0976 36.2098C56.5733 37.8226 56.8078 39.622 55.8012 41.6078C55.7477 41.7134 55.7189 41.7073 55.7148 41.5893C55.6339 39.469 54.7719 37.7396 53.1289 36.4011C53.112 36.3877 53.0993 36.3698 53.0922 36.3495C53.0851 36.3291 53.084 36.3072 53.089 36.2862C53.094 36.2653 53.1048 36.2462 53.1203 36.2312C53.1357 36.2162 53.1551 36.2059 53.1762 36.2015C58.6957 35.0516 62.5796 30.7458 59.7716 24.8458C59.6673 24.625 59.6502 24.6319 59.7201 24.8664C59.8765 25.3862 60.0315 25.9725 60.1851 26.6253C61.1005 30.5422 58.4961 33.5621 55.0565 34.8952C55.0481 34.8991 55.0386 34.8997 55.0298 34.8969C55.021 34.8941 55.0135 34.8882 55.0089 34.8802C55.0042 34.8722 55.0028 34.8628 55.0047 34.8538C55.0067 34.8447 55.0119 34.8368 55.0194 34.8314C58.8787 31.8814 58.9693 26.8495 56.2373 23.1877C56.2235 23.1716 56.2161 23.1509 56.2165 23.1296C56.217 23.1084 56.2253 23.088 56.2398 23.0725C56.2543 23.057 56.274 23.0473 56.2952 23.0454C56.3164 23.0435 56.3375 23.0495 56.3546 23.0622L57.4881 23.7884C57.5525 23.8296 57.58 23.8117 57.5704 23.7349Z" fill="#ED5A67"/>
<path d="M2.79895 24.5659C2.13105 25.8414 1.77241 27.0449 1.72304 28.1763C1.53172 32.6404 5.31696 35.4588 9.30792 36.1912C9.32633 36.1946 9.34338 36.2032 9.35709 36.2159C9.37079 36.2287 9.38059 36.2451 9.38533 36.2632C9.39008 36.2813 9.38958 36.3004 9.38388 36.3183C9.37819 36.3361 9.36754 36.3519 9.35318 36.364C7.98308 37.4954 6.63973 39.5238 6.77139 41.3794C6.80019 41.7799 6.72956 41.7984 6.5595 41.4349C5.65159 39.493 5.91971 37.756 7.36387 36.2241C7.37463 36.2129 7.38209 36.1989 7.38541 36.1837C7.38872 36.1685 7.38777 36.1527 7.38266 36.138C7.37755 36.1233 7.36848 36.1103 7.35645 36.1004C7.34442 36.0906 7.3299 36.0842 7.3145 36.0821C4.70186 35.7262 2.75575 35.3168 1.20051 32.9737C-1.10149 29.5053 0.389974 26.654 1.67366 23.0683C2.22705 21.5254 2.07893 19.8858 1.65515 18.347C1.64956 18.3284 1.65036 18.3085 1.65742 18.2905C1.66448 18.2724 1.67741 18.2572 1.69422 18.2472C1.71104 18.2371 1.73082 18.2328 1.75051 18.2349C1.77021 18.2369 1.78874 18.2453 1.80327 18.2586C3.52103 19.8509 5.20176 21.0749 4.89318 23.7472C4.89123 23.7634 4.89441 23.7799 4.9023 23.7942C4.91019 23.8085 4.92237 23.82 4.93714 23.8271C4.9519 23.8341 4.96851 23.8364 4.98461 23.8335C5.00071 23.8306 5.0155 23.8227 5.0269 23.811C5.3437 23.4845 5.71811 23.2459 6.15012 23.0951C6.16474 23.0897 6.18071 23.0891 6.19564 23.0936C6.21057 23.098 6.22366 23.1072 6.23293 23.1197C6.2422 23.1323 6.24716 23.1474 6.24707 23.163C6.24697 23.1786 6.24183 23.1937 6.23241 23.2061C3.51691 26.8906 3.54571 31.9122 7.38444 34.7799C7.39497 34.7867 7.40254 34.7972 7.40563 34.8093C7.40872 34.8214 7.4071 34.8342 7.40109 34.8452C7.39509 34.8562 7.38514 34.8644 7.37327 34.8684C7.3614 34.8723 7.34848 34.8716 7.33712 34.8663C5.18735 34.0578 3.11576 32.3483 2.37723 30.1348C1.76213 28.2874 2.17356 26.5038 2.83187 24.5804C2.83256 24.5763 2.83186 24.5721 2.8299 24.5685C2.82794 24.5648 2.82482 24.5619 2.82104 24.5603C2.81725 24.5586 2.81302 24.5583 2.80902 24.5593C2.80502 24.5603 2.80147 24.5627 2.79895 24.5659Z" fill="#ED5A67"/>
<path d="M33.9599 21.798C33.7624 21.7308 33.5628 21.6726 33.3612 21.6232C33.3091 21.6108 33.2673 21.5882 33.2357 21.5553C33.1233 21.4387 33.1281 21.3496 33.2501 21.2879C33.2677 21.2784 33.2868 21.2734 33.3057 21.2735H36.6857C36.7131 21.2735 36.7357 21.2831 36.7535 21.3023L36.7988 21.3455C36.8258 21.3721 36.8437 21.4066 36.8498 21.444C36.8559 21.4814 36.8501 21.5198 36.8331 21.5539C36.816 21.588 36.7887 21.6159 36.7548 21.6339C36.721 21.6519 36.6824 21.6589 36.6445 21.654C36.1261 21.5862 35.8196 21.8721 35.7887 22.4029C35.6324 25.2157 35.6303 28.0265 35.7825 30.8353C35.8196 31.5121 35.9739 31.6849 36.6569 31.7055C36.6995 31.7063 36.7406 31.7214 36.7736 31.7485C36.8065 31.7755 36.8294 31.8129 36.8384 31.8546C36.8474 31.8962 36.8422 31.9397 36.8234 31.978C36.8046 32.0163 36.7735 32.0471 36.735 32.0655C36.6473 32.1094 36.5149 32.1272 36.338 32.119C35.3327 32.0737 34.3199 32.0689 33.2995 32.1046C33.2743 32.105 33.2495 32.0981 33.2282 32.0846C33.2069 32.0712 33.19 32.0518 33.1795 32.0289C33.169 32.006 33.1654 31.9805 33.1692 31.9556C33.173 31.9306 33.184 31.9074 33.2008 31.8886C33.5669 31.4998 34.1183 31.8454 34.1944 31.1089C34.3329 29.7388 34.3741 28.366 34.3178 26.9904C34.3137 26.8889 34.2609 26.8382 34.1594 26.8382H28.2244C28.2068 26.8382 28.1893 26.8417 28.1731 26.8486C28.1568 26.8554 28.1421 26.8655 28.1298 26.8782C28.1176 26.8908 28.1079 26.9058 28.1016 26.9223C28.0952 26.9387 28.0922 26.9563 28.0928 26.9739L28.2388 31.0842C28.2431 31.2009 28.2837 31.3133 28.3548 31.4058C28.426 31.4984 28.5242 31.5664 28.6359 31.6006L29.288 31.8001C29.3217 31.8102 29.3506 31.8322 29.3694 31.8619C29.3882 31.8916 29.3957 31.9271 29.3904 31.9618C29.3852 31.9966 29.3675 32.0283 29.3408 32.0511C29.314 32.074 29.2799 32.0864 29.2448 32.0861L25.6858 32.0696C25.6131 32.0682 25.5809 32.0312 25.5891 31.9585C25.596 31.8968 25.6227 31.8447 25.6694 31.8022C25.8154 31.6685 26.2845 31.6644 26.5334 31.4854C26.5614 31.4645 26.585 31.4383 26.6027 31.4082C26.6203 31.3782 26.6317 31.345 26.6363 31.3105C26.6651 31.0582 26.687 30.6611 26.7021 30.1194C26.7789 27.2832 26.7775 24.8612 26.698 22.8534C26.6733 22.2136 26.7227 21.7281 25.9142 21.6376C25.7263 21.617 25.6186 21.5381 25.5912 21.401C25.5878 21.3857 25.588 21.3698 25.5917 21.3545C25.5954 21.3392 25.6025 21.3249 25.6126 21.3127C25.6227 21.3004 25.6354 21.2906 25.6499 21.2838C25.6643 21.277 25.6801 21.2735 25.6961 21.2735H29.1954C29.228 21.2729 29.2597 21.284 29.2847 21.3047C29.3097 21.3254 29.3265 21.3544 29.3322 21.3866C29.3378 21.4188 29.332 21.4522 29.3156 21.4808C29.2992 21.5094 29.2734 21.5314 29.2427 21.5429L28.4919 21.8186C28.4216 21.8449 28.3608 21.8913 28.3168 21.9521C28.2729 22.0128 28.2479 22.0852 28.245 22.1601L28.0969 26.0297C28.096 26.051 28.0995 26.0723 28.1069 26.0922C28.1144 26.1122 28.1258 26.1304 28.1404 26.1457C28.155 26.1611 28.1725 26.1733 28.1919 26.1817C28.2113 26.19 28.2322 26.1943 28.2532 26.1943L34.2047 26.2004C34.2952 26.2004 34.3411 26.1552 34.3425 26.0647C34.3549 24.8303 34.468 22.9172 34.0957 21.9297C34.084 21.8989 34.0658 21.871 34.0423 21.8483C34.0188 21.8255 33.9907 21.8083 33.9599 21.798Z" fill="#ED5A67"/>
<path d="M7.89059 26.8839C7.83573 26.9031 7.79047 26.9415 7.75482 26.9991C6.73033 28.6613 7.31458 30.5498 8.53655 31.922C8.54758 31.9342 8.56231 31.9426 8.57852 31.9458C8.59472 31.949 8.61152 31.9468 8.62639 31.9396C8.64125 31.9324 8.65337 31.9206 8.66091 31.9059C8.66846 31.8912 8.67102 31.8745 8.66821 31.8582C8.52009 31.1148 8.66341 30.4387 9.09817 29.8298C9.164 29.7365 9.19005 29.7468 9.17634 29.8606C8.6929 33.9853 12.6509 33.7364 14.6917 35.7689C15.1669 36.2421 15.7676 36.9785 15.9034 37.6698C15.9308 37.8055 15.9027 37.8186 15.819 37.7088C13.1282 34.1293 7.58407 35.0756 5.98975 30.3955C5.50631 28.9802 5.61122 26.9929 6.82703 25.9129C8.53656 24.3967 11.3487 26.1145 10.2543 28.2231C9.51578 29.6426 6.90314 28.6654 7.95025 26.9579C7.99963 26.8784 7.97974 26.8537 7.89059 26.8839Z" fill="#ED5A67"/>
<path d="M53.914 31.8965C55.0125 30.7383 55.8642 28.3787 54.634 27.0004C54.5517 26.9072 54.5263 26.9209 54.5579 27.0416C54.6278 27.3049 54.7616 27.5641 54.743 27.8171C54.6854 28.6811 53.556 29.0946 52.8833 28.8231C50.3859 27.8192 53.375 23.4456 55.8457 26.1014C56.792 27.1197 56.9134 29.0082 56.5081 30.2282C54.8521 35.2292 49.0137 34.1327 46.6233 37.7719C46.6173 37.7818 46.608 37.7891 46.5971 37.7924C46.5861 37.7957 46.5743 37.7947 46.5638 37.7897C46.5532 37.7847 46.5447 37.776 46.5398 37.7651C46.5348 37.7543 46.5338 37.7421 46.5369 37.7307C47.261 35.4185 49.0611 34.9618 50.9413 33.9146C52.6673 32.9519 53.5766 31.8266 53.2557 29.8147C53.2527 29.8031 53.2541 29.7909 53.2594 29.7803C53.2648 29.7696 53.2738 29.7613 53.2848 29.7568C53.2959 29.7523 53.3081 29.7519 53.3194 29.7557C53.3307 29.7595 53.3402 29.7673 53.3462 29.7776C53.781 30.3934 53.9298 31.0791 53.7926 31.8348C53.7905 31.8497 53.7931 31.8648 53.8001 31.8781C53.807 31.8914 53.8179 31.9022 53.8313 31.909C53.8447 31.9158 53.8598 31.9182 53.8746 31.916C53.8895 31.9138 53.9032 31.907 53.914 31.8965Z" fill="#ED5A67"/>
<path d="M13.1737 33.6197C12.2665 33.0293 11.2091 32.4265 10.8017 31.3568C10.7784 31.2951 10.775 31.2327 10.7915 31.1696C11.0054 30.3693 11.8283 30.394 12.1801 31.1037C13.3321 33.4263 15.3852 33.7925 16.1443 36.3373C16.1462 36.3477 16.1446 36.3586 16.1396 36.368C16.1346 36.3774 16.1265 36.3849 16.1168 36.3892C16.107 36.3935 16.0961 36.3943 16.0858 36.3916C16.0755 36.3889 16.0664 36.3828 16.0599 36.3743C15.3152 35.1317 14.515 34.494 13.1737 33.6197Z" fill="#ED5A67"/>
<path d="M51.4831 30.852C52.0736 31.5576 50.7426 32.6355 50.2385 32.9647C48.7532 33.9316 47.3708 34.7318 46.4327 36.3262C46.4259 36.3371 46.4153 36.3451 46.403 36.3488C46.3907 36.3526 46.3774 36.3517 46.3657 36.3465C46.3539 36.3412 46.3444 36.3319 46.339 36.3202C46.3335 36.3086 46.3325 36.2953 46.336 36.283C47.0931 33.8143 49.2758 33.2548 50.2735 31.0968C50.5265 30.5454 51.0614 30.35 51.4831 30.852Z" fill="#ED5A67"/>
<path d="M16.2199 40.141C16.3255 39.3401 16.6972 38.6969 17.3349 38.2114C17.3498 38.1999 17.368 38.1936 17.3868 38.1934C17.4056 38.1932 17.4239 38.1991 17.4391 38.2103C17.4542 38.2214 17.4653 38.2372 17.4706 38.2552C17.4759 38.2733 17.4752 38.2925 17.4686 38.3101C16.2446 41.688 18.9128 44.7306 21.9122 45.8744C24.4816 46.8557 27.1025 46.9257 29.8139 47.08C29.8385 47.0813 29.8502 47.0944 29.8488 47.119C29.8475 47.1492 29.8385 47.165 29.8221 47.1664C26.8289 47.4976 23.3913 47.8205 20.5277 46.7385C17.5221 45.6029 16.2528 43.3688 14.4733 40.678C13.9117 39.8283 12.5375 38.8718 11.4205 39.2564C10.2273 39.6658 9.60603 40.8035 10.0668 42.0481C10.0792 42.0823 10.1046 42.0967 10.143 42.0913C10.1827 42.0858 10.1978 42.0638 10.1882 42.0254C9.5114 39.2174 13.6402 39.0466 13.6011 41.8588C13.5476 45.8312 7.45214 44.6977 8.17011 40.6512C8.5404 38.557 10.4351 37.226 12.5272 37.5058C14.0948 37.7135 15.2715 38.8285 16.1026 40.1657C16.1657 40.2658 16.2048 40.2576 16.2199 40.141Z" fill="#ED5A67"/>
<path d="M52.3521 42.01C52.7533 40.9691 52.3932 39.9652 51.4305 39.4221C49.0873 38.1013 47.2852 41.7487 46.3266 43.1867C43.1729 47.9183 37.6102 47.8566 32.6051 47.1468C32.5914 47.146 32.5787 47.1398 32.5696 47.1296C32.5605 47.1194 32.5559 47.1059 32.5567 47.0923C32.5576 47.0787 32.5638 47.0659 32.574 47.0569C32.5842 47.0478 32.5976 47.0431 32.6113 47.044C35.2897 46.9473 38.1862 46.8568 40.6528 45.8549C43.6604 44.6309 46.1743 41.6521 44.9626 38.198C44.9589 38.1893 44.9581 38.1795 44.9605 38.1703C44.9629 38.161 44.9682 38.1528 44.9758 38.147C44.9833 38.1411 44.9925 38.1379 45.0021 38.1378C45.0116 38.1377 45.0209 38.1408 45.0285 38.1466C45.7101 38.6198 46.1044 39.2712 46.2114 40.1009C46.2129 40.1161 46.2189 40.1304 46.2287 40.142C46.2384 40.1537 46.2514 40.1622 46.266 40.1664C46.2806 40.1706 46.2962 40.1703 46.3106 40.1656C46.3251 40.1609 46.3378 40.152 46.3471 40.14C46.5515 39.8904 46.7387 39.6477 46.9088 39.4118C48.0999 37.7681 50.1715 36.9431 52.0703 37.7907C54.5841 38.9119 55.2939 42.5984 52.6298 44.0405C50.6631 45.104 48.4578 43.4706 48.9125 41.2365C49.3342 39.1608 52.8684 39.3912 52.2924 41.9936C52.2902 42.0015 52.2913 42.0099 52.2954 42.0171C52.2994 42.0242 52.3061 42.0294 52.314 42.0316C52.322 42.0338 52.3304 42.0327 52.3375 42.0287C52.3447 42.0246 52.3499 42.0179 52.3521 42.01Z" fill="#ED5A67"/>
<path d="M20.1259 43.0407C19.6055 42.547 18.077 41.4402 18.8443 40.8004C19.3483 40.3787 19.84 40.7223 20.1959 41.181C22.2421 43.8005 24.8925 45.5169 28.1469 46.3302C28.1481 46.3299 28.149 46.3299 28.1496 46.3303C28.1502 46.3307 28.1504 46.3313 28.1501 46.3321C28.1498 46.333 28.1491 46.3339 28.1482 46.3346C28.1472 46.3354 28.146 46.3361 28.1449 46.3363C25.0344 46.2623 22.3614 45.1638 20.1259 43.0407Z" fill="#ED5A67"/>
<path d="M42.5184 40.9271C43.1273 40.1865 44.3164 40.89 43.5408 41.8117C41.1778 44.6204 38.1352 46.1407 34.4131 46.3725C34.3555 46.3766 34.3411 46.354 34.3699 46.3046C34.3836 46.2799 34.4048 46.2648 34.4336 46.2593C37.7972 45.5187 40.3769 43.5438 42.5184 40.9271Z" fill="#ED5A67"/>
<path d="M14.5688 46.8762C16.949 48.7256 19.3724 49.9908 22.452 50.1266C24.2171 50.2027 26.3668 49.5073 27.9447 50.5215C27.9643 50.5346 27.9785 50.5543 27.9848 50.577C27.9912 50.5997 27.9892 50.6239 27.9792 50.6452C27.9693 50.6666 27.9521 50.6836 27.9307 50.6934C27.9092 50.7032 27.885 50.705 27.8624 50.6985C26.085 50.1615 24.0998 51.8731 23.3736 53.3275C23.3682 53.3392 23.3593 53.3487 23.3481 53.3548C23.337 53.3609 23.3241 53.3634 23.3113 53.3618C23.2984 53.3602 23.2863 53.3547 23.2764 53.346C23.2666 53.3373 23.2596 53.3258 23.2563 53.3131C23.0918 52.6452 23.1466 52.0013 23.4209 51.3814C23.4538 51.3046 23.4285 51.2683 23.3448 51.2724C21.0407 51.3876 18.8046 51.2889 16.9613 49.9661C14.6861 48.3327 12.4149 46.2714 9.48754 46.0739C9.35176 46.0643 9.34559 46.032 9.46903 45.9772C11.747 44.9568 14.0339 44.9253 16.3298 45.8826C17.0909 46.2014 17.9015 46.7733 18.6667 47.228C19.768 47.8835 20.9386 48.3244 22.1784 48.5507C23.5732 48.8058 25.2662 48.5713 26.8091 48.5466C28.8313 48.5178 30.3084 48.9848 30.1294 51.3177C30.0417 52.4683 29.5198 53.3563 28.5639 53.9817C28.5516 53.9894 28.5371 53.9931 28.5225 53.9923C28.5079 53.9916 28.494 53.9864 28.4827 53.9776C28.4713 53.9687 28.4631 53.9566 28.4593 53.943C28.4554 53.9294 28.456 53.9148 28.4611 53.9015C29.0062 52.4121 29.4341 50.036 27.3111 49.4971C25.7558 49.1 23.7748 49.6637 22.1208 49.6205C19.9251 49.5643 17.8912 48.93 16.0191 47.7176C15.5501 47.4145 15.0735 47.1231 14.5894 46.8433C14.4317 46.7528 14.4248 46.7637 14.5688 46.8762Z" fill="#ED5A67"/>
<path d="M47.5808 46.9634C46.7291 47.488 45.8239 48.1278 45.0258 48.5022C42.2856 49.7838 39.8848 49.7118 36.9451 49.3703C36.3924 49.3059 35.828 49.3367 35.252 49.4629C32.9109 49.9793 33.5775 52.2628 33.956 53.8879C33.9834 54.0059 33.9478 54.0292 33.849 53.9579C32.8506 53.242 32.337 52.3087 32.3082 51.158C32.228 48.0373 35.2952 48.459 37.3607 48.5886C40.5061 48.784 42.1272 48.2595 44.7419 46.6075C47.3079 44.9851 50.0871 44.7684 53.0797 45.9575C53.0913 45.9617 53.1009 45.9698 53.107 45.9804C53.1131 45.991 53.1152 46.0035 53.113 46.0158C53.1109 46.028 53.1045 46.0394 53.0951 46.0478C53.0857 46.0563 53.0737 46.0614 53.0612 46.0624C50.4712 46.2228 48.8172 47.5723 46.8155 49.0165C44.3551 50.7939 42.2815 51.7238 39.1052 51.2054C39.0903 51.203 39.075 51.2046 39.0609 51.2099C39.0468 51.2153 39.0344 51.2242 39.0248 51.2358C39.0153 51.2475 39.0089 51.2614 39.0064 51.2763C39.0039 51.2912 39.0053 51.3064 39.0105 51.3206C39.2347 51.9151 39.4158 52.6413 39.1936 53.2955C39.1593 53.397 39.1175 53.3997 39.0681 53.3037C38.344 51.8945 36.3732 50.148 34.6554 50.6787C34.5718 50.7034 34.5368 50.6732 34.5505 50.5882C34.5629 50.5073 34.6164 50.4421 34.711 50.3928C36.2559 49.5905 38.0951 50.1891 39.7429 50.1294C42.7203 50.0225 45.3453 48.9836 47.6178 47.0128C47.6244 47.0079 47.6287 47.0006 47.6299 46.9925C47.631 46.9844 47.6289 46.9761 47.624 46.9696C47.6191 46.963 47.6118 46.9587 47.6037 46.9576C47.5956 46.9564 47.5873 46.9585 47.5808 46.9634Z" fill="#ED5A67"/>
</svg>
