<svg width="20" height="20" viewBox="0 0 20 20" fill="none" xmlns="http://www.w3.org/2000/svg">
<path d="M7.46484 18.3359C7.89922 19.3127 8.86242 20.0015 9.99922 20.0015C11.136 20.0015 12.0992 19.3127 12.5336 18.3359C11.732 18.3752 10.8984 18.4015 9.99922 18.4015C9.10004 18.4015 8.26645 18.3751 7.46484 18.3359Z" fill="#CEB7A1"/>
<path d="M18.8233 14.1C17.7689 12.7704 15.9993 10.1568 15.9993 7.6C15.9993 5.0648 14.3705 2.78398 11.9993 1.94559C11.9705 0.867187 11.0841 0 10.0001 0C8.91528 0 8.02969 0.867187 8.00086 1.94559C5.62887 2.78398 4.00008 5.0648 4.00008 7.6C4.00008 10.1576 2.23129 12.7704 1.1761 14.1C0.824106 14.544 0.715277 15.1304 0.885707 15.6688C1.05211 16.1944 1.46649 16.6016 1.9945 16.7568C2.9193 17.0296 4.43528 17.3368 6.74731 17.4936C7.74809 17.5608 8.82411 17.6 10.0001 17.6C11.1753 17.6 12.2513 17.5608 13.2521 17.4936C15.5649 17.3368 17.0801 17.0296 18.0057 16.7568C18.5337 16.6016 18.9473 16.1944 19.1137 15.6688C19.2841 15.1304 19.1745 14.544 18.8233 14.1Z" fill="#CEB7A1"/>
</svg>
