<svg width="201" height="200" viewBox="0 0 201 200" fill="none" xmlns="http://www.w3.org/2000/svg">
<path d="M31.752 158.828L22.3152 158.97C19.1491 159.017 15.9547 159.041 12.7698 159.045H12.5527V158.828V153.548V153.312H12.7934L22.2821 153.346L27.0289 153.388L31.7756 153.445H31.8794V153.544L31.752 158.828ZM31.752 158.828L31.6482 153.548L31.752 153.652L27.0053 153.709L22.2585 153.751L12.7698 153.784L13.001 153.548V158.828L12.7839 158.611C15.9264 158.611 19.0594 158.64 22.2208 158.687L31.752 158.828Z" fill="#EBEBEB"/>
<path d="M21.16 160.203H2.17773V165.483H21.16V160.203Z" fill="#EBEBEB"/>
<path d="M123.658 179.227H104.676V184.506H123.658V179.227Z" fill="#EBEBEB"/>
<path d="M198.822 115.758H179.84V121.038H198.822V115.758Z" fill="#EBEBEB"/>
<path d="M147.028 8.51584L137.591 8.65739C134.425 8.70458 131.231 8.72817 128.041 8.73289H127.824V8.51584V3.23592V3H128.06L137.554 3.03303L142.296 3.07549L147.042 3.13212H147.146V3.2312L147.028 8.51584ZM147.028 8.51584L146.929 3.2312L147.028 3.33501L142.281 3.39163L137.539 3.4341L128.046 3.46712L128.282 3.2312V8.51112L128.065 8.29407C131.203 8.29407 134.34 8.32238 137.502 8.36957L147.028 8.51584Z" fill="#EBEBEB"/>
<path d="M157.615 9.89062H138.633V15.1705H157.615V9.89062Z" fill="#EBEBEB"/>
<path d="M21.1591 8.51584L11.7222 8.65739C8.55615 8.70458 5.36178 8.72817 2.17213 8.73289H1.95508V8.51584V3.23592V3H2.191L11.6845 3.03303L16.4312 3.07549L21.1496 3.13212H21.2534V3.2312L21.1591 8.51584ZM21.1591 8.51584L21.06 3.2312L21.1591 3.33501L16.4406 3.39163L11.6939 3.4341L2.20043 3.46712L2.43636 3.2312V8.51112L2.21931 8.29407C5.35706 8.29407 8.49481 8.32238 11.6562 8.36957L21.1591 8.51584Z" fill="#EBEBEB"/>
<path d="M106.888 80.1719H87.9062V85.4518H106.888V80.1719Z" fill="#EBEBEB"/>
<path d="M193.023 6.52344H161.131V45.2098H193.023V6.52344Z" fill="#EBEBEB"/>
<path d="M189.38 10.0469H164.773V41.6698H189.38V10.0469Z" fill="white"/>
<path d="M165.731 10.0469H164.773V41.6698H165.731V10.0469Z" fill="#C7C7C7"/>
<path d="M193.981 6.52344H193.023V45.2098H193.981V6.52344Z" fill="#C7C7C7"/>
<path d="M177.622 34.6484H183.426V17.3648H177.622V34.6484Z" fill="#EBEBEB"/>
<path d="M186.196 23.1134H170.252V14.1484H186.196V23.1134ZM170.724 22.6416H185.724V14.6203H170.724V22.6416Z" fill="#EBEBEB"/>
<path d="M193.023 101.859H161.131V140.546H193.023V101.859Z" fill="#EBEBEB"/>
<path d="M189.38 105.391H164.773V137.014H189.38V105.391Z" fill="white"/>
<path d="M165.731 105.391H164.773V137.014H165.731V105.391Z" fill="#C7C7C7"/>
<path d="M193.981 101.859H193.023V140.546H193.981V101.859Z" fill="#C7C7C7"/>
<path d="M178.825 112.703H173.021V129.987H178.825V112.703Z" fill="#EBEBEB"/>
<path d="M186.196 118.457H170.252V109.516H186.196V118.457ZM170.724 117.985H185.724V109.987H170.724V117.985Z" fill="#EBEBEB"/>
<path d="M193.023 54.3672H161.131V93.0536H193.023V54.3672Z" fill="#EBEBEB"/>
<path d="M189.38 57.8906H164.773V89.5135H189.38V57.8906Z" fill="white"/>
<path d="M165.731 57.8906H164.773V89.5135H165.731V57.8906Z" fill="#C7C7C7"/>
<path d="M193.981 54.3672H193.023V93.0536H193.981V54.3672Z" fill="#C7C7C7"/>
<path d="M179.66 66.0703H174.691V78.6355H179.66V66.0703Z" fill="#EBEBEB"/>
<path d="M185.134 82.6036H171.309V73.4688H185.134V82.6036ZM171.78 82.1318H184.662V73.9406H171.78V82.1318Z" fill="#DBDBDB"/>
<path d="M19.2458 144.666C27.0548 152.333 28.3666 164.129 26.7198 174.51C26.6774 174.745 26.314 174.679 26.314 174.462C26.314 172.103 26.3848 169.744 26.3754 167.437C26.3329 167.328 26.2999 167.229 26.2574 167.12C24.2191 165.639 22.3411 163.964 21.1804 161.671C19.8781 159.104 19.3638 156.211 18.3493 153.531C18.255 153.277 18.5286 153.352 18.7079 153.484C23.4594 156.985 24.974 160.755 26.3376 165.795C26.308 163.161 26.0315 160.535 25.5119 157.953C24.4833 153.168 22.4544 148.431 19.0194 144.883C19.0051 144.868 18.9939 144.85 18.9864 144.831C18.979 144.812 18.9753 144.791 18.9758 144.771C18.9762 144.75 18.9807 144.73 18.989 144.711C18.9973 144.692 19.0092 144.675 19.0241 144.661C19.0389 144.647 19.0565 144.635 19.0757 144.628C19.0949 144.62 19.1153 144.617 19.1359 144.617C19.1565 144.618 19.1768 144.622 19.1957 144.63C19.2145 144.639 19.2316 144.651 19.2458 144.666Z" fill="#1F1F1F"/>
<path d="M17.779 145.562C16.4343 145.61 15.5897 147.757 14.5422 148.394C14.4322 148.482 14.3047 148.547 14.168 148.584C14.0314 148.62 13.8886 148.627 13.7489 148.605C13.6092 148.583 13.4758 148.532 13.3572 148.455C13.2386 148.377 13.1376 148.276 13.0606 148.158C12.0226 146.709 13.4475 144.925 14.7875 143.911C13.8439 144.303 13.037 144.996 12.0037 145.19C11.8717 145.234 11.7317 145.249 11.5933 145.234C11.4549 145.219 11.3213 145.175 11.2017 145.104C11.0821 145.032 10.9793 144.936 10.9003 144.822C10.8212 144.707 10.7679 144.577 10.7439 144.439C10.272 142.467 12.7681 141.608 14.4667 141.547C13.641 140.971 11.2818 139.414 12.5369 138.65C13.792 137.886 16.5758 140.108 17.4818 140.839C18.8076 141.92 20.393 143.529 20.4544 145.213C20.5299 147.186 18.8124 145.978 17.779 145.562Z" fill="#CEB7A1"/>
<path opacity="0.1" d="M17.779 145.562C16.4343 145.61 15.5897 147.757 14.5422 148.394C14.4322 148.482 14.3047 148.547 14.168 148.584C14.0314 148.62 13.8886 148.627 13.7489 148.605C13.6092 148.583 13.4758 148.532 13.3572 148.455C13.2386 148.377 13.1376 148.276 13.0606 148.158C12.0226 146.709 13.4475 144.925 14.7875 143.911C13.8439 144.303 13.037 144.996 12.0037 145.19C11.8717 145.234 11.7317 145.249 11.5933 145.234C11.4549 145.219 11.3213 145.175 11.2017 145.104C11.0821 145.032 10.9793 144.936 10.9003 144.822C10.8212 144.707 10.7679 144.577 10.7439 144.439C10.272 142.467 12.7681 141.608 14.4667 141.547C13.641 140.971 11.2818 139.414 12.5369 138.65C13.792 137.886 16.5758 140.108 17.4818 140.839C18.8076 141.92 20.393 143.529 20.4544 145.213C20.5299 147.186 18.8124 145.978 17.779 145.562Z" fill="black"/>
<path d="M18.1666 145.892C16.4491 145.114 13.1509 146.237 12.8678 145.585C12.3016 144.264 14.9345 143.354 16.3594 143.179C15.0477 142.825 12.5375 142.259 12.613 140.994C12.7074 139.451 16.4679 140.777 18.3695 142.235C20.7664 144.075 20.7287 145.85 20.3512 146.203C19.8133 146.675 18.4497 146.024 18.1666 145.892Z" fill="#CEB7A1"/>
<path d="M37.0309 143.916C28.9341 151.258 27.1741 163.026 28.4245 173.444C28.4622 173.68 28.8255 173.628 28.835 173.411C28.9246 171.052 28.9435 168.693 29.0379 166.385C29.085 166.282 29.1228 166.182 29.17 166.079C31.265 164.663 33.1995 163.073 34.4499 160.822C35.8654 158.307 36.4694 155.439 37.5688 152.801C37.6726 152.546 37.3942 152.612 37.2102 152.735C32.3313 156.038 30.6752 159.765 29.1228 164.748C29.2503 162.115 29.6263 159.501 30.2458 156.939C31.4537 152.221 33.6619 147.545 37.229 144.129C37.3612 144.001 37.1724 143.784 37.0309 143.916Z" fill="#1F1F1F"/>
<path d="M38.4638 144.855C39.8038 144.954 40.5635 147.129 41.5827 147.799C41.689 147.893 41.8139 147.964 41.9493 148.006C42.0848 148.048 42.2276 148.061 42.3684 148.044C42.5093 148.027 42.6449 147.981 42.7665 147.908C42.8881 147.834 42.9928 147.736 43.0737 147.62C44.1684 146.204 42.8142 144.374 41.5119 143.326C42.4556 143.756 43.22 144.477 44.2439 144.709C44.3742 144.758 44.5137 144.778 44.6527 144.769C44.7918 144.759 44.9271 144.72 45.0494 144.653C45.1717 144.586 45.2782 144.494 45.3615 144.382C45.4448 144.27 45.5029 144.142 45.532 144.006C46.0605 142.052 43.6446 141.08 41.9224 140.972C42.767 140.434 45.1876 138.966 43.9608 138.141C42.734 137.315 39.8699 139.443 38.9357 140.141C37.5673 141.165 35.9253 142.713 35.8026 144.388C35.6469 146.374 37.4116 145.228 38.4638 144.855Z" fill="#CEB7A1"/>
<path opacity="0.1" d="M38.4638 144.855C39.8038 144.954 40.5635 147.129 41.5827 147.799C41.689 147.893 41.8139 147.964 41.9493 148.006C42.0848 148.048 42.2276 148.061 42.3684 148.044C42.5093 148.027 42.6449 147.981 42.7665 147.908C42.8881 147.834 42.9928 147.736 43.0737 147.62C44.1684 146.204 42.8142 144.374 41.5119 143.326C42.4556 143.756 43.22 144.477 44.2439 144.709C44.3742 144.758 44.5137 144.778 44.6527 144.769C44.7918 144.759 44.9271 144.72 45.0494 144.653C45.1717 144.586 45.2782 144.494 45.3615 144.382C45.4448 144.27 45.5029 144.142 45.532 144.006C46.0605 142.052 43.6446 141.08 41.9224 140.972C42.767 140.434 45.1876 138.966 43.9608 138.141C42.734 137.315 39.8699 139.443 38.9357 140.141C37.5673 141.165 35.9253 142.713 35.8026 144.388C35.6469 146.374 37.4116 145.228 38.4638 144.855Z" fill="black"/>
<path d="M38.064 145.169C39.8098 144.457 43.0608 145.703 43.3675 145.066C43.9856 143.763 41.3857 142.758 39.9702 142.527C41.2961 142.225 43.8252 141.753 43.7969 140.489C43.7591 138.941 39.9561 140.125 37.9979 141.508C35.5349 143.254 35.483 145.028 35.8652 145.396C36.3889 145.905 37.7714 145.287 38.064 145.169Z" fill="#CEB7A1"/>
<path d="M28.7769 163.306C28.2278 167.233 27.3872 171.115 26.2619 174.918C26.2463 174.993 26.2015 175.059 26.1373 175.101C26.0732 175.143 25.9949 175.157 25.9198 175.142C25.8448 175.126 25.779 175.081 25.7369 175.017C25.6949 174.953 25.6801 174.875 25.6957 174.8C26.2289 171.223 27.1962 167.722 27.7294 164.131C28.3092 160.512 28.5179 156.842 28.3522 153.18C28.0077 147.154 26.3705 140.737 22.44 136.024C22.3504 135.91 22.5344 135.75 22.624 135.854C30.4991 145.041 29.2298 156.299 29.2298 157.308C30.3481 153.505 31.4947 149.15 35.7129 145.276C35.897 145.111 36.0385 145.192 36.0055 145.475C35.2505 152.524 33.2924 156.209 29.2015 159.979C29.0741 161.093 28.9278 162.206 28.7769 163.306Z" fill="#1F1F1F"/>
<path d="M22.3417 137.076C20.9262 136.448 18.9727 138.251 17.5714 138.378C16.8306 138.444 16.2785 138.152 16.1558 137.387C15.8067 135.363 18.1848 134.226 20.0768 133.863C18.8831 133.787 17.7176 134.108 16.5428 133.792C16.3822 133.773 16.2276 133.719 16.0898 133.634C15.952 133.55 15.8342 133.436 15.7445 133.302C15.6547 133.167 15.5953 133.015 15.5702 132.855C15.5451 132.695 15.5549 132.532 15.5991 132.376C16.1181 130.102 19.1332 130.437 20.9167 131.249C20.3505 130.239 18.6849 127.436 20.3694 127.271C22.0539 127.106 23.828 130.819 24.3989 132.037C25.2341 133.82 26.0645 136.283 25.2813 138.067C24.3848 140.148 23.2099 138.024 22.3417 137.076Z" fill="#CEB7A1"/>
<path opacity="0.1" d="M22.3417 137.076C20.9262 136.448 18.9727 138.251 17.5714 138.378C16.8306 138.444 16.2785 138.152 16.1558 137.387C15.8067 135.363 18.1848 134.226 20.0768 133.863C18.8831 133.787 17.7176 134.108 16.5428 133.792C16.3822 133.773 16.2276 133.719 16.0898 133.634C15.952 133.55 15.8342 133.436 15.7445 133.302C15.6547 133.167 15.5953 133.015 15.5702 132.855C15.5451 132.695 15.5549 132.532 15.5991 132.376C16.1181 130.102 19.1332 130.437 20.9167 131.249C20.3505 130.239 18.6849 127.436 20.3694 127.271C22.0539 127.106 23.828 130.819 24.3989 132.037C25.2341 133.82 26.0645 136.283 25.2813 138.067C24.3848 140.148 23.2099 138.024 22.3417 137.076Z" fill="black"/>
<path d="M22.5825 137.618C21.167 135.943 17.2035 135.448 17.2365 134.631C17.312 132.97 20.5064 133.357 22.0729 133.891C20.8933 132.862 18.5718 131.012 19.2843 129.738C20.162 128.186 23.3941 131.456 24.6303 133.924C26.1921 137.038 25.2862 138.868 24.6964 139.038C23.8848 139.27 22.809 137.892 22.5825 137.618Z" fill="#CEB7A1"/>
<path d="M33.9353 165.431L37.4081 191.973H16.2695C16.7036 189.613 20.6388 165.398 20.6388 165.398L33.9353 165.431Z" fill="#CEB7A1"/>
<path d="M69.3561 82.9377C68.9005 81.3557 68.1948 79.8568 67.2658 78.4977C66.3011 77.1535 65.1778 75.9305 63.9204 74.8551C58.9047 70.4905 51.9923 68.8013 45.4572 69.2496C42.4718 69.43 39.5449 70.1577 36.8225 71.3965C35.4959 72.0151 34.2658 72.8225 33.1705 73.7934C32.156 74.6946 31.0141 75.8035 30.5423 77.0963C30.5272 77.1428 30.5276 77.193 30.5434 77.2393C30.5591 77.2856 30.5895 77.3255 30.6298 77.3531C30.6702 77.3807 30.7184 77.3945 30.7673 77.3925C30.8161 77.3904 30.863 77.3726 30.9009 77.3417C31.5001 76.8698 32.005 76.2753 32.5759 75.7563C33.1519 75.2417 33.7637 74.7686 34.4067 74.3408C35.6698 73.5095 37.0135 72.8076 38.4173 72.2458C44.0276 69.9809 50.6852 70.0376 56.3474 72.0854C59.0931 73.0877 61.6278 74.5935 63.8213 76.5254C64.8548 77.4388 65.8024 78.4448 66.6524 79.531C67.5636 80.634 68.4036 81.794 69.1673 83.0038C69.2523 83.0698 69.3985 83.0415 69.3561 82.9377Z" fill="#1F1F1F"/>
<path d="M65.2191 74.0088C64.6522 73.1037 63.9395 72.2986 63.11 71.626C62.2412 70.9877 61.3229 70.4197 60.3639 69.9274C56.8517 68.0325 53.0065 66.8341 49.0397 66.398C47.1258 66.1872 45.1906 66.2828 43.3068 66.6811C42.414 66.8808 41.5334 67.1313 40.6692 67.4313C39.789 67.6912 38.9526 68.0808 38.1873 68.5873C38.1693 68.6043 38.1571 68.6266 38.1525 68.6509C38.1478 68.6752 38.151 68.7003 38.1614 68.7227C38.1718 68.7452 38.1891 68.7638 38.2106 68.7759C38.2322 68.788 38.2571 68.793 38.2816 68.7902C39.2914 68.5826 40.2587 68.2098 41.2731 68.0164C42.2876 67.8229 43.236 67.7852 44.2269 67.6908C55.82 66.615 64.2047 73.7823 65.0257 74.2117C65.0534 74.2315 65.0874 74.2407 65.1214 74.2375C65.1553 74.2344 65.187 74.219 65.2106 74.1943C65.2341 74.1696 65.2479 74.1372 65.2495 74.1031C65.2511 74.0691 65.2403 74.0355 65.2191 74.0088Z" fill="#1F1F1F"/>
<path d="M25.1067 110.703C27.4659 112.227 30.2592 111.113 32.1088 109.325C34.034 107.466 35.3457 105.031 36.3554 102.582C37.2991 100.346 37.9644 98.0103 38.7146 95.703C39.4649 93.3957 40.1302 90.9846 41.3192 88.8755C42.4319 86.8583 44.298 85.3637 46.5095 84.7185C48.9056 84.0737 51.453 84.3029 53.6956 85.365C54.8834 85.8889 55.9609 86.6334 56.8711 87.559C57.7046 88.4647 58.3537 89.524 58.7821 90.6779C59.7777 93.1692 60.2778 95.821 60.8818 98.4208C61.3772 100.572 62.4058 102.512 64.4206 103.573C66.1381 104.479 68.252 104.753 69.9978 103.776C70.0238 103.764 70.0444 103.742 70.0556 103.716C70.0667 103.689 70.0678 103.659 70.0585 103.632C70.0492 103.605 70.0302 103.582 70.0051 103.567C69.98 103.553 69.9505 103.548 69.9223 103.554C68.8227 103.768 67.6885 103.726 66.6082 103.429C65.5279 103.133 64.5306 102.591 63.694 101.846C62.8316 100.974 62.2344 99.8742 61.9717 98.6756C61.5943 97.2601 61.3112 95.8021 60.9243 94.3771C60.2826 92.0179 59.6456 89.437 58.0932 87.4741C56.5121 85.5727 54.3808 84.2078 51.9923 83.5672C49.6929 82.8982 47.2373 83.0043 45.0043 83.8692C42.7841 84.7874 40.9731 86.481 39.9084 88.6348C37.6813 92.8814 36.9641 97.7225 35.2466 102.167C34.4562 104.374 33.2769 106.421 31.7644 108.212C30.1932 109.967 27.6688 111.269 25.319 110.292C25.2648 110.267 25.2027 110.263 25.1458 110.282C25.0889 110.301 25.0417 110.342 25.0141 110.395C24.9865 110.448 24.9808 110.51 24.9981 110.568C25.0153 110.625 25.0543 110.674 25.1067 110.703Z" fill="#1F1F1F"/>
<path d="M24.5924 103.26C25.6776 103.406 26.6732 102.59 27.1781 101.693C27.8644 100.403 28.3905 99.0342 28.7446 97.6166C29.4922 94.6838 30.438 91.8053 31.5757 89.0007C33.463 84.6079 36.4026 80.3707 40.635 77.936C42.7322 76.7148 45.071 75.9667 47.4876 75.7442C49.9042 75.5217 52.3403 75.8301 54.6252 76.6479C56.8008 77.4413 58.7893 78.6749 60.4666 80.2716C62.1926 81.9699 63.5822 83.979 64.5622 86.1932C65.5415 88.4885 66.3459 90.8544 66.9686 93.2709C67.247 94.2382 67.6386 95.413 68.5728 95.9368C68.9213 96.1551 69.3359 96.2427 69.7429 96.1839C70.1498 96.1252 70.5228 95.9239 70.7952 95.6159C70.8471 95.5546 70.7622 95.4885 70.7056 95.5263C70.4409 95.702 70.1248 95.7836 69.8081 95.758C69.4915 95.7323 69.1926 95.6008 68.9598 95.3847C68.4556 94.9567 68.1209 94.3627 68.0161 93.7097C67.6999 92.4074 67.4451 91.0957 67.0724 89.7981C66.3752 87.1618 65.2754 84.6487 63.812 82.3477C62.4936 80.3736 60.7979 78.6798 58.8223 77.3637C56.8468 76.0476 54.6304 75.1352 52.3008 74.6791C49.9712 74.223 47.5745 74.2322 45.2484 74.7061C42.9224 75.1801 40.7131 76.1094 38.7477 77.4406C34.671 80.2056 31.9107 84.4663 30.0846 88.963C29.1409 91.4276 28.3529 93.949 27.7254 96.5124C27.4141 97.8087 27.0297 99.0862 26.5741 100.339C26.3609 100.888 26.1087 101.421 25.8192 101.934C25.715 102.17 25.5499 102.373 25.341 102.524C25.132 102.675 24.8867 102.768 24.6301 102.793C24.5682 102.788 24.5068 102.807 24.4595 102.848C24.4121 102.888 24.3827 102.945 24.3777 103.007C24.3727 103.069 24.3925 103.131 24.4328 103.178C24.473 103.225 24.5305 103.255 24.5924 103.26Z" fill="#1F1F1F"/>
<path d="M25.9081 112.742C25.9011 112.794 25.9142 112.847 25.9449 112.89C25.9756 112.933 26.0215 112.963 26.0732 112.973C26.4563 113.064 26.846 113.124 27.2387 113.152C27.4147 113.162 27.5911 113.162 27.7672 113.152C29.848 113.049 32.0137 111.869 34.1937 109.647C36.0364 107.766 37.5543 105.593 38.6856 103.215C39.5776 101.178 40.2636 99.057 40.7334 96.8833C40.8844 96.2746 41.0401 95.6612 41.2052 95.0572C41.7195 93.1227 42.6538 90.3388 44.7629 88.5836C45.4747 87.9904 46.3106 87.5647 47.2089 87.3376C48.1072 87.1106 49.045 87.0881 49.9532 87.2718C51.3631 87.5578 52.6992 88.1305 53.8786 88.9543C55.058 89.7782 56.0554 90.8356 56.8091 92.061C57.9911 94.0311 58.417 96.3636 58.0075 98.6244C57.5061 101.068 56.3196 103.318 54.5867 105.112C52.7822 106.969 50.6435 108.469 48.2829 109.533C47.2826 110.005 45.9567 110.633 44.5978 111.133L43.8192 111.421C42.8284 111.784 41.8092 112.152 40.8325 112.581C40.7692 112.612 40.7191 112.664 40.6912 112.729C40.6634 112.794 40.6598 112.866 40.6809 112.933C40.7021 113 40.7468 113.057 40.8067 113.094C40.8665 113.131 40.9377 113.145 41.0071 113.134C41.6912 112.987 42.366 112.799 42.9935 112.614C47.5468 111.307 53.2183 109.194 56.6769 104.423C58.24 102.356 59.1473 99.8677 59.2815 97.2796C59.3432 94.9051 58.6054 92.5788 57.1865 90.6738C55.4011 88.2199 52.7276 86.5606 49.7361 86.0498C48.7517 85.8877 47.7444 85.9298 46.7769 86.1733C45.8094 86.4168 44.9023 86.8566 44.1118 87.4653C42.366 88.8195 41.0826 90.9758 40.1908 94.0711C39.9454 94.911 39.7189 95.7697 39.516 96.6002C39.0659 98.6098 38.4342 100.574 37.6287 102.47C36.4889 104.942 34.9147 107.189 32.981 109.104C31.4003 110.661 28.9373 112.515 26.1676 112.52C26.104 112.516 26.0414 112.537 25.993 112.578C25.9445 112.62 25.9141 112.678 25.9081 112.742Z" fill="#1F1F1F"/>
<path d="M25.0023 105.986C25.5911 106.118 26.2029 106.111 26.7882 105.963C27.3735 105.816 27.9158 105.532 28.3713 105.136C29.4046 104.311 29.9378 102.938 30.3625 101.72C31.3486 98.8892 32.113 95.9637 33.0944 93.1185C34.6185 88.6832 36.8692 84.1535 40.8657 81.4829C42.663 80.3016 44.6918 79.5179 46.8165 79.1843C48.9412 78.8506 51.1127 78.9748 53.1855 79.5483C55.4799 80.1977 57.5598 81.4469 59.2109 83.1674C60.725 84.846 61.9253 86.783 62.7545 88.8861C63.1933 89.943 63.5707 91.0188 63.9057 92.1135C64.2121 93.2717 64.5775 94.4135 65.0004 95.5344C65.7742 97.3934 67.723 99.6252 69.9689 98.7051C70.0054 98.6875 70.035 98.6584 70.0532 98.6223C70.0714 98.5861 70.0772 98.545 70.0697 98.5053C70.0621 98.4655 70.0417 98.4293 70.0116 98.4023C69.9814 98.3754 69.9432 98.3591 69.9029 98.356C69.2773 98.2978 68.6719 98.1043 68.1285 97.789C67.5851 97.4737 67.1167 97.0441 66.7557 96.53C65.9583 95.407 65.6516 94.0198 65.2882 92.7127C64.6525 90.2714 63.7142 87.9192 62.4949 85.7106C61.4081 83.7567 59.9285 82.049 58.1493 80.6949C56.2234 79.3027 54.0011 78.3757 51.6567 77.9865C49.5113 77.6363 47.3175 77.7184 45.2043 78.2281C43.091 78.7378 41.101 79.6647 39.3511 80.9544C35.4678 83.8563 33.2549 88.4048 31.7402 92.8921C30.8862 95.4117 30.2256 97.9832 29.4424 100.522C28.8479 102.456 27.7956 105.712 25.1533 105.283C25.0662 105.277 24.9799 105.302 24.9102 105.355C24.8405 105.408 24.7921 105.483 24.7737 105.569C24.7554 105.654 24.7684 105.743 24.8104 105.82C24.8524 105.896 24.9205 105.955 25.0023 105.986Z" fill="#1F1F1F"/>
<path d="M24.8096 107.836C25.12 108.185 25.4949 108.472 25.9137 108.68C26.7819 109.114 28.0512 108.973 28.9194 108.624C29.9863 108.135 30.8821 107.338 31.4909 106.335C32.1563 105.263 32.7188 104.13 33.1707 102.952C33.7133 101.645 34.1851 100.3 34.6475 98.9602C35.5912 96.266 36.4358 93.5481 37.4786 90.887C38.3845 88.5277 39.5122 86.277 41.409 84.5595C43.0978 83.0101 45.1944 81.9758 47.4516 81.5787C49.7089 81.1816 52.0326 81.4382 54.1488 82.3183C56.3195 83.2301 58.1658 84.7739 59.4476 86.7489C60.8631 88.9052 61.5048 91.4201 62.1276 93.8784C62.6844 96.0678 63.1327 98.4317 64.534 100.267C65.6995 101.801 68.1814 103.013 69.8187 101.418C69.8359 101.403 69.8471 101.383 69.8501 101.36C69.8531 101.337 69.8478 101.314 69.8351 101.295C69.8224 101.276 69.8032 101.262 69.781 101.256C69.7589 101.25 69.7354 101.253 69.7149 101.263C68.5447 101.843 67.1716 101.447 66.1949 100.654C65.2954 99.8661 64.6212 98.8532 64.2415 97.7192C63.2742 95.2137 62.892 92.529 62.0049 89.9763C61.2789 87.7134 60.0125 85.6615 58.3151 83.998C56.6855 82.4413 54.6994 81.3073 52.5303 80.6952C50.3292 80.1245 48.0178 80.1331 45.821 80.7202C43.6242 81.3072 41.6166 82.4527 39.9935 84.0452C38.1958 85.8524 37.0681 88.1314 36.1574 90.4859C35.1665 93.0669 34.3644 95.7186 33.4679 98.3373C32.9961 99.6774 32.5242 101.008 32.0005 102.334C31.6022 103.476 31.1049 104.581 30.5142 105.637C29.9698 106.62 29.1178 107.397 28.0889 107.85C27.6097 108.062 27.0827 108.142 26.5619 108.084C26.0412 108.025 25.5455 107.828 25.1257 107.515C24.9087 107.35 24.6492 107.656 24.8096 107.836Z" fill="#1F1F1F"/>
<path d="M70.3762 94.2164C70.4116 93.6035 70.4116 92.9891 70.3762 92.3762C69.8857 87.3178 67.728 82.5658 64.2423 78.8673C61.0137 75.369 56.7125 73.0449 52.0169 72.2616C47.4029 71.5578 42.6842 72.2822 38.4939 74.3377C34.3242 76.3963 30.8918 79.692 28.6654 83.7745C26.3754 87.799 25.3418 92.4166 25.6975 97.0333C25.6975 97.1324 25.8579 97.1135 25.8626 97.0333C26.1614 92.0511 27.7784 87.2377 30.548 83.0856C33.0116 79.4622 36.4779 76.6354 40.5228 74.9511C44.559 73.2953 49.0072 72.9229 53.2625 73.8847C57.6456 74.9731 61.5498 77.4714 64.3744 80.9954C65.8657 82.8641 67.0681 84.9461 67.9415 87.1718C68.8046 89.4746 69.4877 91.8409 69.9846 94.2494C70.0554 94.4287 70.3621 94.4287 70.3762 94.2164Z" fill="#1F1F1F"/>
<path d="M63.1711 111.234C63.6901 110.47 64.8037 111.144 65.3793 111.465C66.2428 111.937 67.1723 112.583 68.2104 112.409C68.2273 112.403 68.2457 112.404 68.2616 112.412C68.2775 112.42 68.2897 112.434 68.2953 112.451C68.3009 112.468 68.2996 112.487 68.2917 112.503C68.2837 112.518 68.2697 112.531 68.2528 112.536C67.9161 112.703 67.5464 112.792 67.1708 112.797C66.7952 112.801 66.4233 112.722 66.0824 112.565C65.715 112.414 65.3559 112.244 65.0066 112.055C64.6757 111.864 64.3222 111.715 63.9543 111.611C63.887 111.602 63.8188 111.602 63.7514 111.611C63.6807 111.611 63.6996 111.611 63.6901 111.635C63.6241 111.758 63.7279 112.017 63.7656 112.14C63.8529 112.459 63.9748 112.767 64.1289 113.06C64.4566 113.662 64.8716 114.212 65.3604 114.693C65.6355 114.974 65.9269 115.238 66.2333 115.485C66.5448 115.735 66.9128 115.924 67.2101 116.188C67.2345 116.201 67.2526 116.224 67.2606 116.25C67.2686 116.277 67.2657 116.305 67.2525 116.33C67.2394 116.354 67.2171 116.372 67.1905 116.38C67.164 116.388 67.1354 116.385 67.111 116.372C66.7519 116.261 66.4091 116.102 66.0918 115.9C65.7599 115.706 65.4444 115.485 65.1481 115.24C64.5494 114.747 64.0457 114.149 63.6618 113.475C63.469 113.14 63.3109 112.786 63.19 112.418C63.0941 112.236 63.0425 112.034 63.0392 111.828C63.036 111.623 63.0811 111.419 63.1711 111.234Z" fill="#1F1F1F"/>
<path d="M64.7515 112.695C65.3146 112.953 65.84 113.287 66.3133 113.686C66.5241 113.862 66.7411 114.027 66.9645 114.182C67.073 114.257 67.191 114.328 67.3042 114.394C67.4203 114.453 67.5401 114.505 67.6628 114.55C67.6862 114.557 67.7067 114.571 67.7213 114.591C67.7358 114.61 67.7437 114.634 67.7437 114.658C67.7437 114.683 67.7358 114.706 67.7213 114.726C67.7067 114.745 67.6862 114.76 67.6628 114.767C67.1013 114.904 66.5115 114.535 66.0869 114.215C65.5512 113.826 65.0744 113.362 64.6713 112.837C64.6053 112.79 64.6619 112.695 64.7515 112.695Z" fill="#1F1F1F"/>
<path d="M27.867 114.431C27.8647 114.442 27.8647 114.453 27.867 114.464C27.8702 114.503 27.8857 114.539 27.9112 114.568C27.9367 114.597 27.9708 114.617 28.0085 114.625C28.1476 114.661 28.2898 114.683 28.4332 114.691C28.9319 114.699 29.4293 114.635 29.91 114.502C30.5832 114.342 31.2378 114.113 31.8635 113.818C33.0864 113.227 34.2178 112.462 35.223 111.548C38.6438 108.557 41.0502 104.296 42.3761 98.8747C42.461 98.5161 42.5507 98.1528 42.6356 97.7942C43.1075 95.836 43.5793 93.8165 44.6645 92.1321C45.2352 91.2417 46.0121 90.502 46.9294 89.9757C47.8849 89.4963 48.9471 89.2689 50.0152 89.3152C50.0702 89.3127 50.1229 89.2921 50.165 89.2566C50.2071 89.2212 50.2364 89.1728 50.2482 89.1191C50.26 89.0653 50.2538 89.0091 50.2304 88.9593C50.2071 88.9094 50.1679 88.8686 50.119 88.8433C48.897 88.2441 47.3776 88.8103 46.7831 89.0792C45.7289 89.5797 44.8051 90.3178 44.0842 91.2355C42.6687 92.9861 42.1402 95.2321 41.6306 97.4025L41.4985 97.9451C40.9541 100.397 40.1127 102.774 38.993 105.023C37.8418 107.23 36.299 109.209 34.4397 110.864C33.5397 111.69 32.5375 112.397 31.4577 112.969C30.9031 113.247 30.3291 113.485 29.7402 113.681C29.542 113.747 29.3391 113.799 29.1362 113.856C28.7374 113.949 28.3498 114.085 27.9802 114.261C27.9477 114.277 27.92 114.301 27.9 114.331C27.8801 114.361 27.8686 114.395 27.867 114.431Z" fill="#1F1F1F"/>
<path d="M39.7058 111.756C39.7031 111.792 39.7105 111.829 39.7271 111.861C39.7438 111.894 39.7691 111.921 39.8002 111.94C39.8278 111.96 39.8606 111.972 39.8946 111.973C39.929 111.975 39.9631 111.967 39.9938 111.951C40.0244 111.936 40.0504 111.912 40.0692 111.883C40.4828 111.373 41.0276 110.985 41.6451 110.761C42.2019 110.501 42.7823 110.289 43.3437 110.057L43.5985 109.954C45.1415 109.35 46.3966 108.812 47.5479 108.26C52.6532 105.811 55.6966 102.64 56.6072 98.8229C57.1243 96.7872 56.8688 94.6322 55.89 92.7739C55.4458 91.8894 54.8218 91.1073 54.0581 90.4777C53.2944 89.848 52.4077 89.3846 51.4547 89.1171C51.3984 89.1025 51.3387 89.1088 51.2866 89.1348C51.2346 89.1608 51.1937 89.2048 51.1716 89.2587C51.1492 89.3079 51.1459 89.3637 51.1625 89.4152C51.1791 89.4667 51.2143 89.5102 51.2613 89.537C53.0899 90.5962 54.5192 92.2278 55.3286 94.18C56.3619 96.9167 55.8617 101.39 51.0395 105.009C49.2364 106.282 47.294 107.346 45.25 108.18C44.2308 108.628 43.0795 109.123 41.9754 109.722C41.5182 109.952 41.0824 110.222 40.6731 110.529C40.2969 110.847 39.9777 111.227 39.7294 111.652C39.7107 111.683 39.7024 111.72 39.7058 111.756Z" fill="#1F1F1F"/>
<path d="M26.3579 115.388C27.0514 115.805 27.838 116.042 28.6463 116.077C30.1261 116.099 31.5874 115.746 32.8929 115.048C34.8349 114.022 36.5961 112.684 38.1067 111.09C38.253 110.939 38.3899 110.783 38.5314 110.618L38.6588 110.481C38.6926 110.465 38.7231 110.442 38.7485 110.415C39.9422 109.226 41.5795 108.565 43.1507 107.924C43.6981 107.702 44.269 107.452 44.8022 107.225C47.4398 105.998 49.2375 104.781 50.6247 103.271C52.0314 101.814 52.9186 99.933 53.1491 97.9205C53.3142 96.1747 52.9037 93.74 51.2192 92.6075C49.5348 91.4751 47.402 92.282 46.1517 93.6456C44.6984 95.2357 43.9576 97.4817 43.3584 99.3077L43.1507 99.9447C42.6057 101.769 41.9081 103.545 41.0652 105.253C40.1333 107.017 38.9667 108.647 37.5972 110.099C36.235 111.542 34.6825 112.793 32.9825 113.817C30.746 115.152 28.5661 115.558 26.5136 115.039H26.4758C26.4331 115.037 26.3909 115.049 26.3547 115.071C26.3185 115.094 26.29 115.127 26.2729 115.166C26.2596 115.207 26.2607 115.252 26.2762 115.292C26.2916 115.333 26.3205 115.366 26.3579 115.388ZM40.6547 107.98C40.9944 107.508 41.2917 107.036 41.5559 106.565C42.541 104.814 43.3321 102.961 43.9151 101.039C44.0142 100.733 44.1086 100.426 44.2124 100.096C44.755 98.3782 45.3165 96.5993 46.3121 95.0989C46.7886 94.2975 47.5026 93.6643 48.3552 93.287C48.7437 93.134 49.1601 93.0649 49.5772 93.0841C50.0754 93.1028 50.5505 93.2986 50.9173 93.6362C52.3328 94.9573 52.4224 97.3779 51.861 99.1897C51.2216 101.009 50.0534 102.596 48.5062 103.748C46.7556 105.14 44.6842 106.069 42.844 106.89L42.6695 106.966C42.0136 107.31 41.3106 107.626 40.6547 107.98Z" fill="#1F1F1F"/>
<path d="M43.7253 104.836C43.714 104.877 43.7151 104.921 43.7285 104.963C43.742 105.004 43.7671 105.04 43.8008 105.067C43.8355 105.095 43.8786 105.112 43.9235 105.114C43.9535 105.116 43.9835 105.111 44.0113 105.1C44.0391 105.088 44.0639 105.07 44.0839 105.048C44.1877 104.944 44.9521 104.397 45.3201 104.147C45.4381 104.067 45.5608 103.991 45.6787 103.906C45.9288 103.741 46.1883 103.571 46.4337 103.382C47.1694 102.825 47.8604 102.212 48.5004 101.547C49.7366 100.249 50.317 98.9518 50.2131 97.6825C50.2114 97.3693 50.1221 97.0628 49.9553 96.7977C49.7886 96.5326 49.551 96.3193 49.2695 96.1821C48.9269 96.0672 48.5566 96.0643 48.2123 96.1737C47.8679 96.2831 47.5673 96.4992 47.3538 96.7908C46.9245 97.3627 46.59 98 46.3629 98.6781C46.1459 99.2255 45.9524 99.7964 45.759 100.344L45.6033 100.787C45.0725 102.108 44.453 103.391 43.7489 104.628C43.7265 104.657 43.7125 104.692 43.7083 104.729C43.7042 104.765 43.71 104.802 43.7253 104.836ZM46.1364 101.571C46.5817 100.407 47.1051 99.2754 47.7029 98.1827L47.7313 98.1355C47.8917 97.8524 48.2739 97.1918 48.6419 97.1163H48.7221C48.7998 97.1229 48.8737 97.1525 48.9345 97.2013C49.2553 97.4513 49.2081 98.1449 49.0571 98.6687C48.708 99.9238 47.6416 100.938 46.8112 101.755L46.1506 102.387C45.9241 102.599 45.7023 102.816 45.4806 103.033C45.7637 102.509 45.9666 101.995 46.1364 101.571Z" fill="#1F1F1F"/>
<path d="M46.7075 126.126C45.8924 127.745 45.1616 129.405 44.5181 131.099C44.5165 131.11 44.5185 131.121 44.5237 131.131C44.529 131.141 44.5372 131.149 44.5473 131.153C44.5573 131.158 44.5686 131.16 44.5795 131.157C44.5903 131.155 44.6003 131.15 44.6078 131.142C45.5279 129.773 46.2922 128.311 47.1557 126.895C47.7219 125.984 48.7458 123.856 50.1283 124.201C50.7087 124.342 51.1239 124.984 51.4448 125.442C51.8654 126.075 52.3223 126.683 52.8131 127.263C53.568 128.122 54.9836 129.245 56.2198 128.943C56.2764 128.943 56.3095 128.839 56.2528 128.811C55.9225 128.636 55.5734 128.528 55.2478 128.339C54.8889 128.136 54.5562 127.891 54.2569 127.607C53.6795 127.018 53.1699 126.366 52.7376 125.663C52.0298 124.569 51.2041 123.125 49.6659 123.304C48.2409 123.469 47.269 124.965 46.7075 126.126Z" fill="#1F1F1F"/>
<path d="M26.2903 116.612C27.7861 118.58 30.4614 118.231 32.396 117.183C33.5108 116.535 34.5628 115.785 35.5384 114.942C36.5705 114.072 37.6755 113.292 38.8413 112.611C38.8557 112.607 38.8678 112.597 38.8749 112.583C38.8819 112.57 38.8835 112.555 38.8791 112.54C38.8747 112.526 38.8648 112.514 38.8515 112.507C38.8382 112.5 38.8227 112.498 38.8083 112.502C36.4161 112.885 34.6891 114.862 32.7404 116.107C30.9097 117.287 28.2532 117.995 26.3658 116.504C26.3186 116.447 26.2431 116.551 26.2903 116.612Z" fill="#1F1F1F"/>
<path d="M65.2468 120.334C65.3978 120.334 65.4592 120.108 65.3035 120.07C62.8876 119.471 60.9814 117.659 59.8112 115.503C58.7528 113.537 58.1422 111.362 58.0229 109.133C57.9138 107.456 58.1615 105.776 58.7496 104.202C58.9049 103.677 59.1758 103.193 59.5423 102.786C59.6253 102.681 59.7299 102.595 59.849 102.533C59.9681 102.471 60.099 102.436 60.2329 102.428C60.3669 102.421 60.5008 102.443 60.6258 102.492C60.7508 102.54 60.864 102.615 60.9578 102.711C61.2159 103.07 61.4477 103.446 61.6514 103.839C62.2068 104.672 62.9462 105.366 63.8124 105.868C64.6744 106.369 65.647 106.649 66.6435 106.684C67.7015 106.711 68.7461 106.441 69.6586 105.905C69.7199 105.868 69.6916 105.75 69.6161 105.773C68.3585 106.157 67.0154 106.16 65.7559 105.783C64.4965 105.405 63.377 104.663 62.5385 103.65C61.9628 102.909 61.6514 101.763 60.552 101.678C59.4526 101.593 58.6882 102.47 58.2541 103.381C57.2878 105.563 56.97 107.978 57.3388 110.336C57.9191 114.493 60.4199 120.112 65.2468 120.334Z" fill="#1F1F1F"/>
<path d="M47.7875 129.533C47.6361 129.963 47.5673 130.417 47.5847 130.873C47.5881 130.886 47.5954 130.899 47.6055 130.909C47.6156 130.918 47.6282 130.925 47.642 130.928C47.6557 130.931 47.6699 130.93 47.6832 130.925C47.6964 130.92 47.708 130.912 47.7168 130.901C47.9357 130.558 48.1027 130.184 48.2122 129.792C48.3585 129.387 48.5095 128.981 48.6841 128.584C48.8561 128.186 49.058 127.801 49.288 127.433C49.3637 127.271 49.4657 127.123 49.59 126.994L49.623 126.971L49.6985 127.046C49.7694 127.114 49.8356 127.187 49.8967 127.263C50.3758 127.922 50.8925 128.552 51.4443 129.151C51.9162 129.589 52.6664 130.066 53.3317 129.915C53.3407 129.911 53.3484 129.904 53.3538 129.896C53.3591 129.888 53.362 129.878 53.362 129.868C53.362 129.858 53.3591 129.848 53.3538 129.84C53.3484 129.831 53.3407 129.825 53.3317 129.821C52.9529 129.627 52.6022 129.382 52.2889 129.094C51.9969 128.792 51.7332 128.463 51.501 128.113C51.232 127.745 50.9914 127.353 50.6988 126.999C50.4063 126.645 50.0807 126.188 49.6136 126.188C49.1465 126.188 48.9247 126.607 48.7407 126.942C48.5167 127.342 48.3273 127.761 48.1745 128.193C48.0471 128.636 47.9055 129.08 47.7875 129.533Z" fill="#1F1F1F"/>
<path d="M66.3738 117.798C66.3919 117.803 66.4115 117.802 66.4289 117.795C66.4464 117.787 66.4607 117.774 66.4691 117.757C66.4776 117.74 66.4798 117.72 66.4753 117.702C66.4708 117.683 66.4599 117.667 66.4445 117.656C65.8647 117.167 65.328 116.628 64.8403 116.047C64.3758 115.442 63.9442 114.812 63.5474 114.16C62.7574 113.037 62.0809 111.839 61.5279 110.583C61.2423 109.973 61.0942 109.308 61.0938 108.634C61.1835 107.691 62.1319 108.38 62.5424 108.734C62.9991 109.181 63.488 109.594 64.0051 109.97C65.0325 110.631 66.252 110.928 67.4684 110.814C68.0535 110.71 68.6167 110.508 69.134 110.215C69.252 110.163 69.1671 110.003 69.0491 110.041C68.5863 110.154 68.1094 110.198 67.6336 110.173C67.2423 110.18 66.851 110.156 66.4634 110.102C65.6574 109.976 64.8909 109.668 64.2222 109.201C63.42 108.63 61.9479 106.714 60.8249 107.639C59.8529 108.436 60.6031 110.291 60.9948 111.197C61.6428 112.572 62.4336 113.875 63.354 115.085C64.1089 116.123 65.1092 117.364 66.3738 117.798Z" fill="#1F1F1F"/>
<path d="M29.3007 121.401C30.3291 121.606 31.3968 121.426 32.3016 120.896C32.495 120.793 32.6743 120.675 32.8631 120.557C32.764 120.67 32.6696 120.779 32.58 120.892C31.9318 121.683 31.5256 122.645 31.4098 123.661C31.4095 123.675 31.4135 123.689 31.4213 123.7C31.4292 123.712 31.4404 123.721 31.4535 123.725C31.4665 123.73 31.4807 123.73 31.4941 123.727C31.5074 123.723 31.5192 123.715 31.5278 123.704C32.0562 122.897 32.5988 122.086 33.2028 121.345C33.8068 120.604 34.5098 119.873 35.0902 119.094C35.1127 119.06 35.1247 119.019 35.1247 118.978C35.1247 118.937 35.1127 118.896 35.0902 118.862C35.0677 118.827 35.0357 118.8 34.9979 118.784C34.9602 118.767 34.9185 118.762 34.8778 118.768C33.8775 118.995 33.1273 119.712 32.2402 120.184C31.3017 120.676 30.3109 121.06 29.2865 121.331C29.2488 121.331 29.2488 121.392 29.3007 121.401Z" fill="#1F1F1F"/>
<path d="M40.2537 125.817C39.717 126.816 39.2442 127.849 38.8381 128.908C38.825 128.933 38.8226 128.963 38.8314 128.99C38.8403 129.018 38.8597 129.041 38.8853 129.054C38.911 129.067 38.9408 129.069 38.9682 129.061C38.9956 129.052 39.0184 129.032 39.0316 129.007C39.8337 127.926 40.4801 126.728 41.2256 125.605C41.9712 124.482 42.7119 123.463 43.5235 122.439C44.8137 120.772 46.3772 119.336 48.1476 118.192C48.6014 117.902 49.0743 117.644 49.5631 117.418C50.0671 117.133 50.6314 116.971 51.2098 116.946C52.2573 117.003 52.9368 118.008 53.4039 118.787C54.5316 120.674 55.4942 122.665 57.24 124.104C58.0046 124.77 58.9274 125.228 59.92 125.435C60.3428 125.557 60.7933 125.544 61.2082 125.397C61.3356 125.317 61.4158 125.199 61.2884 125.086C61.2459 125.053 61.1799 125.086 61.2082 125.152C61.2365 125.218 60.5995 125.09 60.5712 125.081L60.1654 124.968C59.8804 124.88 59.604 124.766 59.3397 124.628C58.8354 124.365 58.3609 124.049 57.9242 123.684C56.9925 122.852 56.2105 121.865 55.6121 120.768C55.0695 119.848 54.5882 118.881 53.9843 117.999C53.5141 117.202 52.7967 116.581 51.9412 116.229C50.8654 115.88 49.7754 116.267 48.8034 116.701C47.8658 117.125 46.978 117.652 46.1564 118.272C44.4806 119.543 43.0429 121.101 41.9098 122.873C41.3067 123.825 40.7539 124.807 40.2537 125.817Z" fill="#1F1F1F"/>
<path d="M42.9564 127.928C42.6247 128.716 42.3902 129.542 42.2581 130.387C42.2568 130.4 42.2603 130.414 42.2678 130.426C42.2754 130.437 42.2867 130.446 42.2998 130.45C42.3129 130.455 42.327 130.454 42.34 130.45C42.353 130.445 42.364 130.436 42.3713 130.424C42.8431 129.603 43.1734 128.693 43.6641 127.872C44.1549 127.051 44.6078 126.239 45.0797 125.451C45.9624 124.036 46.9852 122.713 48.1325 121.502C48.6751 120.95 49.3121 120.478 50.1048 120.558C50.8483 120.709 51.5158 121.114 51.9922 121.705C53.0585 122.898 53.5492 124.536 54.6486 125.706C55.1359 126.24 55.7439 126.65 56.422 126.901C57.1 127.152 57.8283 127.238 58.5461 127.15C58.5932 127.15 58.6074 127.051 58.5461 127.037C57.6222 126.815 56.7565 126.399 56.0075 125.814C55.2775 125.188 54.6765 124.425 54.2381 123.568C53.4266 122.153 52.6386 120.615 51.1051 119.907C50.4326 119.584 49.6605 119.536 48.9535 119.775C48.2167 120.096 47.5689 120.592 47.0661 121.219C45.8675 122.518 44.8356 123.962 43.9944 125.517C43.5916 126.295 43.2447 127.101 42.9564 127.928Z" fill="#1F1F1F"/>
<path d="M36.1299 127.13C36.1185 127.167 36.1214 127.208 36.1379 127.244C36.1544 127.279 36.1835 127.308 36.2195 127.323H36.2809C36.3077 127.323 36.3342 127.317 36.358 127.305C36.3819 127.292 36.4024 127.274 36.4177 127.252C37.1316 126.136 37.9049 125.059 38.7344 124.025C39.6061 122.965 40.5371 121.955 41.523 121C43.1568 119.332 44.9019 117.776 46.7463 116.343C47.6565 115.65 48.6446 115.066 49.6906 114.602C50.6862 114.168 52.0498 113.578 52.9935 114.418C53.5413 114.987 53.9753 115.654 54.2722 116.386C54.4043 116.66 54.5365 116.924 54.6733 117.174C55.2468 118.24 55.9215 119.248 56.6881 120.184C57.4323 121.098 58.3238 121.881 59.3257 122.501C60.2837 123.104 61.3763 123.461 62.5059 123.539C62.5445 123.543 62.5832 123.532 62.614 123.508C62.6447 123.485 62.6652 123.45 62.671 123.412C62.6813 123.375 62.6766 123.335 62.6581 123.302C62.6396 123.268 62.6086 123.243 62.5719 123.232C59.4342 122.133 57.4194 119.731 56.287 117.91C55.9709 117.4 55.683 116.848 55.4141 116.32C55.1451 115.791 54.8667 115.258 54.5459 114.749C53.8617 113.64 52.9841 113.074 51.9555 113.041C50.7192 113.007 49.4358 113.545 48.4591 114.008C47.3859 114.526 46.3719 115.159 45.4346 115.895C43.5389 117.437 41.7701 119.128 40.1453 120.953C38.4608 122.77 36.7999 124.78 36.1299 127.13Z" fill="#1F1F1F"/>
<path d="M65.581 119.35C65.7367 119.426 65.831 119.194 65.7131 119.1C64.1329 117.898 62.7701 116.435 61.6835 114.773C60.7937 113.326 60.1794 111.726 59.8717 110.055C59.7086 109.199 59.6249 108.331 59.6216 107.46C59.6216 106.823 59.4564 105.214 60.3907 105.209C61.3249 105.204 61.8392 106.327 62.3819 106.865C63.0017 107.494 63.7328 108.003 64.5382 108.366C65.3368 108.74 66.2258 108.878 67.1003 108.763C67.9748 108.649 68.7983 108.286 69.4737 107.719C69.4844 107.71 69.4916 107.698 69.4937 107.684C69.4958 107.67 69.4928 107.656 69.4852 107.645C69.4776 107.633 69.466 107.624 69.4525 107.621C69.4391 107.617 69.4248 107.619 69.4123 107.625C67.3362 108.781 64.6137 107.88 63.0094 106.332C62.3583 105.709 61.8298 104.808 60.905 104.558C60.718 104.485 60.5175 104.452 60.317 104.463C60.1165 104.473 59.9205 104.526 59.742 104.618C59.5635 104.71 59.4066 104.839 59.2817 104.996C59.1568 105.153 59.0668 105.335 59.0176 105.53C58.8296 106.399 58.7755 107.292 58.8572 108.177C58.9001 109.074 59.0361 109.964 59.263 110.833C60.1925 114.287 62.3347 117.708 65.581 119.35Z" fill="#1F1F1F"/>
<path d="M34.7987 123.769C34.4213 124.421 34.14 125.123 33.9635 125.855C33.9451 125.942 33.9571 126.032 33.9974 126.111C34.0378 126.19 34.1041 126.253 34.1853 126.289C34.2205 126.301 34.2569 126.309 34.2938 126.313C34.352 126.315 34.4099 126.302 34.4614 126.275C34.5128 126.247 34.556 126.207 34.5863 126.157C34.8647 125.728 35.129 125.289 35.3932 124.855C35.9558 123.879 36.5865 122.944 37.2806 122.057C38.3143 120.807 39.4371 119.634 40.6401 118.546C43.0705 116.515 45.6147 114.625 48.2603 112.884C52.0351 110.374 54.6255 109.048 55.22 109.322C55.6258 109.51 55.6447 110.185 55.6635 110.737C55.6636 110.895 55.6715 111.052 55.6871 111.209C55.7839 111.982 55.9225 112.749 56.1024 113.507C56.4189 114.959 56.9653 116.351 57.7208 117.631C58.4153 118.795 59.3577 119.792 60.4811 120.551C61.0945 120.952 62.6846 121.854 64.1473 121.575C64.1854 121.56 64.2184 121.535 64.2422 121.502C64.2661 121.468 64.2799 121.429 64.2819 121.388C64.2839 121.347 64.274 121.307 64.2535 121.271C64.233 121.236 64.2026 121.207 64.1662 121.188C63.9255 121.094 63.6943 121.009 63.4537 120.924C62.9477 120.752 62.4543 120.546 61.9768 120.306C61.2873 119.934 60.6523 119.469 60.0894 118.924C58.9453 117.772 58.0844 116.369 57.5745 114.828C57.0991 113.325 56.7828 111.777 56.6308 110.209C56.6267 109.874 56.5469 109.545 56.3974 109.246C56.2478 108.947 56.0324 108.686 55.7674 108.482C55.2106 108.118 54.2527 108.368 53.7809 108.571C51.0725 109.732 42.3717 115.29 38.9037 118.508C37.8249 119.534 36.8526 120.666 36.0019 121.887C35.5663 122.492 35.1646 123.12 34.7987 123.769Z" fill="#1F1F1F"/>
<path d="M27.9101 119.331C29.7267 120.119 31.8783 119.331 33.5345 118.51C35.1907 117.689 36.5543 116.58 38.1066 115.679C38.5077 115.452 38.9088 115.24 39.324 115.046C39.5316 114.952 39.7439 114.862 39.9563 114.782C40.0648 114.74 40.1922 114.659 40.3054 114.697C40.4187 114.735 40.4423 114.697 40.3526 114.787C40.263 114.876 40.296 114.867 40.263 114.905C39.7251 115.575 38.8805 116.056 38.234 116.613C36.9119 117.73 35.71 118.983 34.648 120.35C33.6477 121.647 32.605 123.138 32.2888 124.776C32.2888 124.856 32.3832 124.884 32.4257 124.828C33.0627 123.959 33.5958 123.016 34.2281 122.143C34.849 121.292 35.5353 120.49 36.2806 119.746C36.9459 119.076 37.6395 118.429 38.3426 117.802C39.0456 117.174 39.7864 116.636 40.4187 115.971C40.8575 115.499 41.6408 114.556 40.782 114.084C40.0884 113.706 39.0598 114.353 38.4464 114.659C36.71 115.528 35.1435 116.703 33.4543 117.637C32.5851 118.127 31.662 118.515 30.7034 118.793C29.7894 119.027 28.853 119.163 27.9101 119.199C27.8346 119.203 27.8346 119.302 27.9101 119.331Z" fill="#1F1F1F"/>
<path d="M49.5774 128.534C49.5766 128.517 49.5766 128.499 49.5774 128.482C49.5831 128.466 49.5925 128.451 49.6048 128.439C49.6171 128.427 49.6321 128.418 49.6485 128.412C49.6648 128.407 49.6823 128.405 49.6994 128.407C49.7165 128.41 49.7329 128.416 49.7473 128.425L49.785 128.449C49.9502 128.51 50.0587 128.751 50.12 128.893C50.1814 129.034 50.2757 129.246 50.3559 129.416C50.5117 129.756 50.6485 130.105 50.8278 130.44C50.8374 130.455 50.8414 130.472 50.8388 130.49C50.8362 130.507 50.8273 130.523 50.8138 130.534C50.8004 130.545 50.7833 130.551 50.7658 130.55C50.7483 130.549 50.7318 130.542 50.7193 130.53C50.3849 130.302 50.0993 130.01 49.8794 129.671C49.7807 129.506 49.694 129.334 49.6199 129.157C49.5735 129.045 49.5433 128.928 49.5302 128.808C49.5162 128.714 49.5328 128.618 49.5774 128.534Z" fill="#1F1F1F"/>
<path d="M12.6167 77.6287H11.2012V61.0859H27.744V62.5015H12.6167V77.6287Z" fill="#CEB7A1"/>
<path d="M83.9315 133.816H67.3887V132.401H82.5159V117.273H83.9315V133.816Z" fill="#CEB7A1"/>
<path d="M27.744 133.816H11.2012V117.273H12.6167V132.401H27.744V133.816Z" fill="#CEB7A1"/>
<path d="M83.9315 77.6287H82.5159V62.5015H67.3887V61.0859H83.9315V77.6287Z" fill="#CEB7A1"/>
<path d="M87.5733 137.462H86.4551V137.108H87.2195V136.344H87.5733V137.462Z" fill="#CEB7A1"/>
<path d="M84.5586 137.463H82.6712V137.109H84.5586V137.463ZM80.7839 137.463H78.8965V137.109H80.7839V137.463ZM77.0091 137.463H75.1217V137.109H77.0091V137.463ZM73.2344 137.463H71.347V137.109H73.2344V137.463ZM69.4596 137.463H67.5723V137.109H69.4596V137.463ZM65.6849 137.463H63.7975V137.109H65.6849V137.463ZM61.9102 137.463H60.0228V137.109H61.9102V137.463ZM58.1354 137.463H56.248V137.109H58.1354V137.463ZM54.3607 137.463H52.4733V137.109H54.3607V137.463ZM50.5859 137.463H48.6986V137.109H50.5859V137.463ZM46.8112 137.463H44.9238V137.109H46.8112V137.463ZM43.0365 137.463H41.1491V137.109H43.0365V137.463ZM39.2617 137.463H37.3743V137.109H39.2617V137.463ZM35.487 137.463H33.5996V137.109H35.487V137.463ZM31.7122 137.463H29.8249V137.109H31.7122V137.463ZM27.9375 137.463H26.0501V137.109H27.9375V137.463ZM24.1628 137.463H22.2754V137.109H24.1628V137.463ZM20.388 137.463H18.5007V137.109H20.388V137.463ZM16.6133 137.463H14.7259V137.109H16.6133V137.463ZM12.8385 137.463H10.9512V137.109H12.8385V137.463Z" fill="#CEB7A1"/>
<path d="M8.67686 137.462H7.55859V136.344H7.91248V137.108H8.67686V137.462Z" fill="#CEB7A1"/>
<path d="M7.91296 134.444H7.54492V132.556H7.8988L7.91296 134.444ZM7.91296 130.669H7.54492V128.781H7.8988L7.91296 130.669ZM7.91296 126.894H7.54492V125.007H7.8988L7.91296 126.894ZM7.91296 123.119H7.54492V121.232H7.8988L7.91296 123.119ZM7.91296 119.345H7.54492V117.457H7.8988L7.91296 119.345ZM7.91296 115.57H7.54492V113.682H7.8988L7.91296 115.57ZM7.91296 111.795H7.54492V109.908H7.8988L7.91296 111.795ZM7.91296 108.02H7.54492V106.133H7.8988L7.91296 108.02ZM7.91296 104.246H7.54492V102.358H7.8988L7.91296 104.246ZM7.91296 100.471H7.54492V98.5835H7.8988L7.91296 100.471ZM7.91296 96.6961H7.54492V94.8088H7.8988L7.91296 96.6961ZM7.91296 92.9214H7.54492V91.034H7.8988L7.91296 92.9214ZM7.91296 89.1466H7.54492V87.2593H7.8988L7.91296 89.1466ZM7.91296 85.3719H7.54492V83.4845H7.8988L7.91296 85.3719ZM7.91296 81.5972H7.54492V79.7098H7.8988L7.91296 81.5972ZM7.91296 77.7988H7.54492V75.9115H7.8988L7.91296 77.7988ZM7.91296 74.0241H7.54492V72.1367H7.8988L7.91296 74.0241ZM7.91296 70.2493H7.54492V68.362H7.8988L7.91296 70.2493ZM7.91296 66.4746H7.54492V64.5872H7.8988L7.91296 66.4746ZM7.91296 62.6999H7.54492V60.8125H7.8988L7.91296 62.6999Z" fill="#CEB7A1"/>
<path d="M7.91248 58.5636H7.55859V57.4453H8.67686V57.7992H7.91248V58.5636Z" fill="#CEB7A1"/>
<path d="M84.5586 57.7992H82.6712V57.4453H84.5586V57.7992ZM80.7839 57.7992H78.8965V57.4453H80.7839V57.7992ZM77.0091 57.7992H75.1217V57.4453H77.0091V57.7992ZM73.2344 57.7992H71.347V57.4453H73.2344V57.7992ZM69.4596 57.7992H67.5723V57.4453H69.4596V57.7992ZM65.6849 57.7992H63.7975V57.4453H65.6849V57.7992ZM61.9102 57.7992H60.0228V57.4453H61.9102V57.7992ZM58.1354 57.7992H56.248V57.4453H58.1354V57.7992ZM54.3607 57.7992H52.4733V57.4453H54.3607V57.7992ZM50.5859 57.7992H48.6986V57.4453H50.5859V57.7992ZM46.8112 57.7992H44.9238V57.4453H46.8112V57.7992ZM43.0365 57.7992H41.1491V57.4453H43.0365V57.7992ZM39.2617 57.7992H37.3743V57.4453H39.2617V57.7992ZM35.487 57.7992H33.5996V57.4453H35.487V57.7992ZM31.7122 57.7992H29.8249V57.4453H31.7122V57.7992ZM27.9375 57.7992H26.0501V57.4453H27.9375V57.7992ZM24.1628 57.7992H22.2754V57.4453H24.1628V57.7992ZM20.388 57.7992H18.5007V57.4453H20.388V57.7992ZM16.6133 57.7992H14.7259V57.4453H16.6133V57.7992ZM12.8385 57.7992H10.9512V57.4453H12.8385V57.7992Z" fill="#CEB7A1"/>
<path d="M87.5733 58.5636H87.2195V57.7992H86.4551V57.4453H87.5733V58.5636Z" fill="#CEB7A1"/>
<path d="M87.5746 134.444H87.2207V132.556H87.5746V134.444ZM87.5746 130.669H87.2207V128.781H87.5746V130.669ZM87.5746 126.894H87.2207V125.007H87.5746V126.894ZM87.5746 123.119H87.2207V121.232H87.5746V123.119ZM87.5746 119.345H87.2207V117.457H87.5746V119.345ZM87.5746 115.57H87.2207V113.682H87.5746V115.57ZM87.5746 111.795H87.2207V109.908H87.5746V111.795ZM87.5746 108.02H87.2207V106.133H87.5746V108.02ZM87.5746 104.246H87.2207V102.358H87.5746V104.246ZM87.5746 100.471H87.2207V98.5835H87.5746V100.471ZM87.5746 96.6961H87.2207V94.8088H87.5746V96.6961ZM87.5746 92.9214H87.2207V91.034H87.5746V92.9214ZM87.5746 89.1466H87.2207V87.2593H87.5746V89.1466ZM87.5746 85.3719H87.2207V83.4845H87.5746V85.3719ZM87.5746 81.5972H87.2207V79.7098H87.5746V81.5972ZM87.5746 77.7988H87.2207V75.9115H87.5746V77.7988ZM87.5746 74.0241H87.2207V72.1367H87.5746V74.0241ZM87.5746 70.2493H87.2207V68.362H87.5746V70.2493ZM87.5746 66.4746H87.2207V64.5872H87.5746V66.4746ZM87.5746 62.6999H87.2207V60.8125H87.5746V62.6999Z" fill="#CEB7A1"/>
<path d="M110.582 191.965H154.152C154.511 190.549 154.855 189.181 155.204 187.822C155.601 186.249 155.989 184.725 156.37 183.25C156.45 182.92 156.539 182.589 156.624 182.264C156.912 181.127 157.191 180.018 157.469 178.961C157.634 178.3 157.799 177.654 157.941 177.017C158.082 176.38 158.271 175.724 158.413 175.101C158.455 174.936 158.498 174.766 158.54 174.629C158.583 174.493 158.63 174.266 158.672 174.091L158.837 173.445C158.899 173.219 158.955 172.997 159.007 172.775C159.12 172.355 159.224 171.945 159.323 171.539C159.479 170.944 159.625 170.359 159.772 169.788C159.833 169.543 159.899 169.293 159.96 169.052C160.064 168.651 160.163 168.264 160.258 167.887C160.324 167.632 160.385 167.382 160.446 167.141C160.706 166.141 160.942 165.202 161.164 164.31C161.225 164.079 161.277 163.838 161.338 163.631C161.432 163.249 161.527 162.885 161.617 162.531C161.678 162.31 161.73 162.097 161.782 161.885C161.975 161.135 162.15 160.469 162.301 159.851C162.343 159.691 162.381 159.535 162.423 159.379L162.692 158.313C162.725 158.19 162.754 158.068 162.787 157.954C162.82 157.841 162.848 157.714 162.872 157.61C162.895 157.506 162.914 157.454 162.928 157.388C162.942 157.322 162.985 157.176 163.008 157.091C163.016 157.046 163.027 157.002 163.041 156.959L163.141 156.562H120.788C120.788 156.562 119.372 161.38 117.155 169.142C116.683 170.722 116.211 172.445 115.687 174.238C114.182 179.367 112.451 185.406 110.582 191.965Z" fill="#37474F"/>
<path d="M147.018 191.969H148.103C149.717 185.294 151.28 178.608 152.793 171.911C153.158 170.281 153.518 168.65 153.873 167.018L153.973 166.546C153.975 166.529 153.972 166.513 153.963 166.499C153.954 166.485 153.94 166.475 153.924 166.471C153.908 166.467 153.891 166.469 153.876 166.476C153.862 166.484 153.851 166.497 153.845 166.513L153.803 166.664C153.312 168.413 152.824 170.166 152.34 171.925C150.514 178.578 148.74 185.259 147.018 191.969Z" fill="#1F1F1F"/>
<path d="M122.143 156.523L124.03 165.894L125.549 173.566L128.163 186.66L128.432 188.005L128.88 190.241L129.215 191.935H154.157C154.511 190.52 154.86 189.147 155.205 187.792C155.601 186.22 155.989 184.696 156.37 183.22C156.45 182.89 156.54 182.56 156.625 182.234C156.913 181.097 157.191 179.988 157.469 178.931C157.635 178.271 157.8 177.624 157.941 176.987C158.083 176.35 158.272 175.694 158.413 175.072C158.456 174.906 158.498 174.737 158.541 174.6C158.583 174.463 158.63 174.236 158.673 174.062L158.838 173.415C158.899 173.189 158.956 172.967 159.008 172.745C159.121 172.325 159.225 171.915 159.324 171.509C159.479 170.915 159.626 170.33 159.772 169.759C159.838 169.509 159.899 169.263 159.961 169.023C160.065 168.621 160.164 168.235 160.258 167.857C160.324 167.602 160.385 167.352 160.447 167.112C160.706 166.111 160.942 165.172 161.164 164.281C161.225 164.049 161.277 163.809 161.339 163.601C161.433 163.219 161.527 162.856 161.617 162.502C161.678 162.28 161.73 162.068 161.782 161.855C161.976 161.105 162.15 160.44 162.301 159.822C162.344 159.661 162.381 159.505 162.424 159.35L162.693 158.283C162.726 158.161 162.754 158.038 162.787 157.925C162.82 157.812 162.848 157.684 162.872 157.58C162.896 157.477 162.914 157.425 162.929 157.359C162.943 157.293 162.985 157.146 163.009 157.061C163.016 157.016 163.027 156.972 163.042 156.929L163.141 156.533L122.143 156.523Z" fill="#1F1F1F"/>
<path d="M122.137 156.51C122.137 156.746 122.316 159.275 122.722 163.115C122.84 164.243 122.977 165.475 123.137 166.805C123.387 168.9 123.694 171.207 124.081 173.647C124.732 177.894 125.581 182.546 126.685 187.085C127.077 188.718 127.511 190.336 127.969 191.921H182.702C182.056 183.579 181.466 176.034 180.999 170.089C180.338 161.719 179.923 156.477 179.923 156.477H130.267L122.137 156.51Z" fill="#37474F"/>
<path d="M122.256 161.536C122.317 163.494 122.397 165.452 122.525 167.401C122.657 169.515 122.85 171.624 123.129 173.733C123.134 173.811 123.143 173.888 123.157 173.964C123.418 175.94 123.714 177.911 124.044 179.877C124.36 181.707 124.591 183.684 125.403 185.383C125.711 186.038 126.145 186.625 126.682 187.11C127.176 187.559 127.78 187.872 128.432 188.016C128.539 188.043 128.648 188.06 128.758 188.068C128.786 188.068 128.819 188.068 128.852 188.068C128.832 188.078 128.815 188.095 128.804 188.115C128.793 188.135 128.788 188.158 128.791 188.181C128.814 188.837 128.791 189.507 128.871 190.158C128.871 190.186 128.871 190.215 128.871 190.243C128.937 190.809 129.041 191.371 129.145 191.937H130.088C130.088 191.937 130.088 191.937 130.088 191.904C129.923 191.286 129.786 190.663 129.617 190.016C129.447 189.37 129.239 188.761 129.093 188.129C129.086 188.103 129.069 188.081 129.046 188.068C129.642 188.098 130.234 187.944 130.74 187.626C131.247 187.309 131.643 186.844 131.877 186.294C132.114 185.455 132.13 184.569 131.924 183.722L131.414 180.358C131.093 178.301 130.683 176.262 130.315 174.224C130.263 173.912 130.206 173.601 130.15 173.28C129.418 169.114 128.649 164.943 127.729 160.814C127.696 160.644 127.654 160.474 127.616 160.3C127.578 160.125 127.408 160.22 127.418 160.328C127.446 160.607 127.474 160.885 127.507 161.163C127.668 162.749 127.857 164.325 128.074 165.882C128.338 167.731 128.522 169.59 128.781 171.44L129.05 173.327C129.475 176.371 129.919 179.414 130.438 182.443C130.683 183.859 131.561 186.374 129.532 186.813C129.068 186.916 128.582 186.854 128.159 186.638C127.264 186.106 126.594 185.268 126.271 184.279C125.696 182.665 125.493 180.891 125.195 179.211C124.859 177.359 124.563 175.501 124.308 173.639C123.978 171.317 123.638 168.996 123.27 166.679C123.091 165.495 122.902 164.32 122.714 163.131C122.629 162.588 122.539 162.041 122.449 161.494C122.435 161.385 122.256 161.418 122.256 161.536Z" fill="#1F1F1F"/>
<path d="M170.695 176.089C168.415 176.067 166.147 175.763 163.943 175.183C162.923 174.919 161.918 174.594 160.923 174.268C159.934 173.993 159.008 173.528 158.196 172.9C156.662 171.574 155.945 169.488 155.28 167.639C154.551 165.551 153.96 163.419 153.51 161.255C153.487 161.146 153.331 161.179 153.326 161.283C153.283 163.734 153.601 166.177 154.27 168.535C154.822 170.536 155.563 172.782 157.181 174.197C158.88 175.669 161.192 176.188 163.367 176.457C165.814 176.743 168.289 176.71 170.728 176.358C170.745 176.356 170.762 176.35 170.778 176.342C170.793 176.333 170.807 176.321 170.818 176.307C170.829 176.293 170.837 176.277 170.842 176.26C170.846 176.243 170.848 176.225 170.846 176.207C170.843 176.19 170.838 176.173 170.829 176.157C170.82 176.142 170.809 176.128 170.795 176.117C170.781 176.106 170.765 176.098 170.747 176.093C170.73 176.088 170.712 176.087 170.695 176.089Z" fill="#1F1F1F"/>
<path d="M174.488 161.299C174.611 164.366 174.74 167.433 174.875 170.499C175.19 177.643 175.534 184.787 175.909 191.931H176.937C176.465 184.768 175.97 177.613 175.451 170.466C175.224 167.403 174.992 164.345 174.753 161.294C174.752 161.259 174.737 161.225 174.712 161.201C174.687 161.177 174.653 161.163 174.618 161.164C174.583 161.165 174.55 161.179 174.525 161.204C174.501 161.23 174.488 161.264 174.488 161.299Z" fill="#1F1F1F"/>
<path d="M128.215 93.4271C106.652 112.862 86.6602 134.147 85.0937 145.009C82.9279 160.051 92.1713 164.227 96.3235 164.265C107.61 164.378 128.121 118.638 135.255 101.175C142.182 84.2167 132.953 89.1569 128.215 93.4271Z" fill="#D3766A"/>
<path d="M95.666 124.533L119.645 137.565C119.645 137.565 134.551 110.028 137.986 97.2649C141.421 84.5016 136.292 84.8602 125.033 94.7972C113.775 104.734 95.666 124.533 95.666 124.533Z" fill="#C7C7C7"/>
<path d="M95.666 124.533L119.645 137.565C119.645 137.565 134.551 110.028 137.986 97.2649C141.421 84.5016 136.292 84.8602 125.033 94.7972C113.775 104.734 95.666 124.533 95.666 124.533Z" fill="#CEB7A1"/>
<path opacity="0.1" d="M137.986 97.2551C134.551 110.023 119.641 137.565 119.641 137.565L97.8086 125.693L138.019 87.8984C139.359 88.9271 139.416 91.961 137.986 97.2551Z" fill="black"/>
<path d="M100.601 120.858C109.845 127.114 118.805 131.177 120.603 132.21C120.688 132.262 120.759 132.12 120.669 132.073C118.852 131.153 109.014 125.029 100.672 120.707C100.578 120.655 100.498 120.796 100.601 120.858Z" fill="#1F1F1F"/>
<path d="M114.238 173.524L184.453 173.727C184.453 173.727 178.319 120.881 152.547 89.6872C146.583 82.4633 136.976 86.3843 132.923 90.2251C122.637 99.9592 114.04 173.269 114.238 173.524Z" fill="#CEB7A1"/>
<path d="M138.393 86.8125C140.077 88.044 141.696 89.4029 143.314 90.6627L148.033 94.3195C149.448 95.4283 150.864 96.6787 152.473 97.5516C153.921 98.3443 155.606 98.6982 157.158 97.9904C157.538 97.8144 157.894 97.5925 158.22 97.3299L158.38 97.5799C157.59 98.2374 156.613 98.6302 155.587 98.7029C154.035 98.7926 152.586 98.0848 151.34 97.2355C149.764 96.1691 148.297 94.9376 146.792 93.7722C143.871 91.5121 140.988 89.1528 137.987 86.9918C138.105 86.9305 138.247 86.8691 138.393 86.8125ZM166.397 128.849C168.881 128.834 171.362 129.054 173.805 129.505C173.748 129.34 173.687 129.17 173.621 129.005C171.474 128.612 169.297 128.408 167.114 128.396C160.758 128.278 152.256 128.674 148.415 122.446C146.9 119.992 146.41 116.732 148.075 114.217C149.543 111.999 152.284 111.042 154.856 111.065C156.197 111.073 157.524 111.336 158.767 111.839C160.235 112.509 161.59 113.403 162.783 114.491C165.066 116.435 167.194 118.714 170.054 119.794L169.827 119.247C168.976 118.881 168.169 118.421 167.421 117.874C164.764 115.953 162.617 113.292 159.664 111.792C157.402 110.651 154.812 110.342 152.345 110.919C149.986 111.49 147.886 113.023 147.014 115.359C146.042 117.964 146.801 120.946 148.354 123.168C152.345 128.863 160.202 128.769 166.397 128.849ZM155.62 104.568C157.478 103.678 159.399 102.925 161.367 102.317C161.282 102.18 161.197 102.034 161.107 101.897C156.578 103.167 152.393 106.031 147.721 106.833C142.053 107.731 136.251 106.536 131.4 103.469C130.071 102.637 128.832 101.671 127.701 100.586C127.644 100.737 127.593 100.888 127.541 101.057C128.621 102.073 129.793 102.986 131.042 103.785C135.726 106.786 141.301 108.082 146.83 107.456C149.93 107.036 152.779 105.851 155.62 104.568ZM159.867 154.701C163.329 155.952 166.867 156.983 170.459 157.787C174.442 158.731 179.368 159.523 182.586 162.218C182.543 161.986 182.496 161.746 182.449 161.524C179.236 159.075 174.626 158.292 170.79 157.395C167.187 156.584 163.636 155.554 160.159 154.31C157.172 153.21 154.219 151.733 152.034 149.35C151.092 148.342 150.365 147.153 149.896 145.856C149.427 144.558 149.227 143.178 149.307 141.801C149.491 139.017 151.076 136.483 153.818 135.615C156.757 134.671 160.036 135.78 162.49 137.455C165.293 139.376 167.307 142.259 169.464 144.826C171.507 147.274 173.772 149.544 176.758 150.78C177.879 151.255 179.073 151.534 180.288 151.606C180.255 151.469 180.227 151.323 180.189 151.181C177.806 151.03 175.47 149.86 173.621 148.426C170.898 146.321 168.945 143.391 166.704 140.815C164.651 138.456 162.301 136.361 159.272 135.379C156.649 134.53 153.633 134.615 151.416 136.422C149.481 138.007 148.712 140.574 148.844 143.004C149.005 145.661 150.137 148.167 152.025 150.044C154.186 152.229 157.007 153.635 159.862 154.692L159.867 154.701ZM151.331 166.719C150.831 168.998 151.067 171.329 150.93 173.632H151.364C151.529 170.8 151.081 167.842 152.256 165.176C152.536 164.494 152.961 163.881 153.501 163.38C154.041 162.878 154.684 162.499 155.384 162.27C156.953 161.865 158.615 162.052 160.055 162.793C163.103 164.284 164.731 167.512 166.213 170.381C166.788 171.48 167.378 172.617 168.058 173.683H168.567C166.888 171.135 165.816 168.229 164.005 165.756C162.254 163.397 159.621 161.444 156.531 161.651C153.667 161.845 151.902 164.072 151.326 166.719H151.331ZM123.804 173.565H124.36C124.989 172.459 125.438 171.26 125.691 170.012C126.37 166.879 126.163 163.638 125.946 160.467C125.427 153.121 124.157 145.618 125.766 138.319C126.382 135.329 127.546 132.48 129.201 129.915C130.938 127.32 133.448 124.881 136.482 123.89C137.28 123.593 138.13 123.461 138.98 123.501C139.831 123.541 140.665 123.752 141.432 124.121C142.724 124.848 143.747 125.974 144.348 127.33C145.881 130.595 144.933 134.289 143.47 137.394C140.606 143.452 135.958 148.558 133.651 154.909C132.631 157.745 132.204 160.761 132.397 163.769C132.59 166.777 133.399 169.713 134.774 172.395C134.982 172.796 135.199 173.193 135.43 173.584H135.944C134.809 171.72 133.963 169.695 133.434 167.578C132.66 164.565 132.561 161.419 133.141 158.363C133.783 155.06 135.251 152.026 136.916 149.157C138.582 146.288 140.568 143.495 142.262 140.565C143.956 137.635 145.598 134.346 145.565 130.85C145.532 128.151 144.277 125.291 141.889 123.88C139.058 122.201 135.666 123.343 133.189 125.107C128.314 128.585 125.842 134.421 124.936 140.178C123.756 147.69 125.233 155.277 125.587 162.798C125.733 165.799 125.724 168.899 124.672 171.763C124.449 172.394 124.158 172.998 123.804 173.565ZM130.844 110.15C129.328 108.866 127.426 108.128 125.441 108.055C125.408 108.178 125.375 108.31 125.337 108.432C125.813 108.455 126.286 108.514 126.753 108.607C129.65 109.183 132.585 111.438 132.618 114.623C132.66 118.091 129.716 120.667 126.866 122.102C125.196 122.941 123.445 123.593 121.732 124.315C121.704 124.466 121.671 124.612 121.643 124.786C122.728 124.315 123.832 123.909 124.945 123.456C127.894 122.248 130.867 120.625 132.335 117.652C132.983 116.418 133.189 114.998 132.918 113.63C132.646 112.263 131.914 111.029 130.844 110.136V110.15Z" fill="white"/>
<path d="M157.478 92.0452C177.928 107.743 199.25 134.403 199.585 149.775C199.902 164.968 191.366 163.459 189.932 162.987C174.738 158.268 156.431 116.109 149.646 98.9483C142.908 81.9289 152.401 88.162 157.478 92.0452Z" fill="#D3766A"/>
<path d="M190.333 122.667L166.59 136.129C166.59 136.129 151.189 108.861 147.527 96.159C143.866 83.457 149.004 83.7354 160.461 93.4601C171.917 103.185 190.333 122.667 190.333 122.667Z" fill="#CEB7A1"/>
<path d="M185.331 119.084C176.196 125.501 167.311 129.729 165.513 130.791C165.428 130.842 165.358 130.701 165.443 130.654C167.24 129.71 176.97 123.401 185.232 118.933C185.35 118.881 185.43 119.023 185.331 119.084Z" fill="#1F1F1F"/>
<path d="M168.114 135.202C167.631 135.389 167.158 135.601 166.698 135.839C164.419 131.305 164.834 132.343 162.508 127.818C161.373 125.616 160.234 123.403 159.092 121.179C157.912 118.877 156.856 116.461 155.553 114.243C155.546 114.229 155.534 114.219 155.52 114.214C155.505 114.209 155.489 114.21 155.475 114.217C155.462 114.224 155.451 114.236 155.446 114.251C155.441 114.265 155.443 114.281 155.449 114.295C156.204 116.475 157.228 118.589 158.196 120.693C157.983 120.368 157.78 120.033 157.544 119.716C157.021 119.013 156.506 118.301 156.044 117.565C155.969 117.452 155.78 117.541 155.851 117.659C156.322 118.367 156.69 119.098 157.082 119.844C157.474 120.589 157.903 121.292 158.342 122.01C158.781 122.727 159.238 123.35 159.71 124.005L159.88 124.251C160.503 125.567 161.107 126.888 161.767 128.191C164.051 132.753 166.401 136.344 166.486 136.321C167.086 136.034 167.662 135.7 168.208 135.32C168.246 135.282 168.18 135.198 168.114 135.202Z" fill="#1F1F1F"/>
<path d="M97.3653 163.728C104.405 162.699 108.392 149.625 116.206 128.812C117.574 125.16 99.4037 104.243 96.936 107.607C93.8265 111.854 85.6118 135.347 84.7719 141.735C83.1535 154.324 89.1742 164.931 97.3653 163.728Z" fill="#D3766A"/>
<path d="M108.193 149.876C108.826 148.106 109.496 146.351 110.17 144.596L112.213 139.344C112.921 137.603 113.601 135.852 114.285 134.107C114.634 133.232 114.971 132.356 115.295 131.478C115.63 130.601 115.955 129.718 116.205 128.812C115.814 130.655 115.285 132.465 114.625 134.229C114.006 136.008 113.322 137.763 112.652 139.519C111.982 141.274 111.237 143.006 110.501 144.732C109.765 146.459 108.991 148.182 108.193 149.876Z" fill="#1F1F1F"/>
<path d="M90.416 122.692C91.4022 115.548 93.4169 105.583 95.9696 103.493C98.6497 101.303 108.384 93.9757 111.191 93.0037C113.999 92.0317 126.531 87.2614 128.833 88.5919C130.678 89.6583 128.494 94.5041 122.534 96.8303C117.292 98.8687 114.593 100.775 113.097 101.421C111.602 102.068 107.907 107.032 108.898 109.221C109.488 110.509 113.244 112.024 115.579 110.967C117.915 109.91 118.491 105.305 121.157 103.111C123.822 100.916 128.531 101.195 128.805 102.464C129.079 103.733 127.522 104.328 125.115 108.65C123.568 111.424 123.464 118.087 119.953 122.871C118.189 125.273 115.126 131.662 115.126 131.662L90.416 122.692Z" fill="#D3766A"/>
<path d="M123.648 101.141C124.509 101.016 125.317 100.65 125.978 100.084C126.245 99.828 126.43 99.4999 126.512 99.14C126.542 98.943 126.542 98.7425 126.512 98.5455C126.505 98.3346 126.425 98.1327 126.285 97.9746C126.238 97.9415 126.309 97.8849 126.332 97.9321C126.396 98.0314 126.467 98.126 126.545 98.2152C126.6 98.2998 126.645 98.39 126.682 98.4841C126.752 98.6709 126.786 98.8696 126.781 99.0692C126.762 99.506 126.595 99.9234 126.309 100.254C125.964 100.606 125.544 100.875 125.079 101.038C124.614 101.202 124.118 101.256 123.629 101.197C123.619 101.211 123.619 101.15 123.648 101.141Z" fill="#1F1F1F"/>
<path d="M95.9688 103.497C98.2383 99.935 104.047 93.499 109.803 91.2908C113.691 89.7951 127.082 96.3065 126.695 98.8639C126.308 101.421 124.02 101.435 120.632 101.034C119.4 100.888 112.875 98.5477 111.761 99.9161C110.166 101.888 108.138 108.612 108.138 108.612L95.9688 103.497Z" fill="#D3766A"/>
<path d="M126.359 97.8616C124.703 95.1249 121.07 93.6669 117.451 92.5156C117.394 92.5156 117.361 92.5817 117.418 92.6006C118.338 92.8931 124.236 95.6015 126.322 97.9088C126.345 97.9324 126.378 97.8899 126.359 97.8616Z" fill="#1F1F1F"/>
<path d="M95.9688 103.494C98.2383 99.9318 104.047 93.4959 109.803 91.2877C113.691 89.7919 124.289 98.1247 123.897 100.687C123.505 103.249 120.226 103.452 116.593 102.192C115.418 101.781 111.483 99.0165 110.369 100.385C108.775 102.352 104.882 107.241 104.882 107.241L95.9688 103.494Z" fill="#D3766A"/>
<path d="M107.103 104.202C107.471 103.641 107.575 103.443 107.967 102.886C108.358 102.329 108.722 101.782 109.137 101.258C109.46 100.77 109.865 100.342 110.335 99.9934C110.822 99.7163 111.384 99.6037 111.94 99.6725C113.2 99.7905 114.337 100.588 115.408 101.201C116.602 101.885 119.074 102.994 120.971 102.791C121.492 102.761 122.001 102.623 122.467 102.386C122.819 102.224 123.125 101.978 123.358 101.668C124.179 100.253 123.151 98.6864 122.103 97.5587C120.145 95.459 117.512 93.9396 114.96 92.6893C114.332 92.3826 113.7 92.0947 113.072 91.8022C112.362 91.4226 111.578 91.199 110.774 91.1463C109.458 91.1463 107.302 92.4769 106.636 92.8827C106.584 92.911 106.547 92.8308 106.594 92.7978C107.405 92.2929 109.425 90.6509 111.529 90.7547C112.305 90.872 113.054 91.1243 113.742 91.5002C114.483 91.8164 115.214 92.1608 115.936 92.5194C117.345 93.2118 118.699 94.0116 119.985 94.9116C121.193 95.7751 122.481 96.799 123.288 98.04C123.664 98.5893 123.884 99.2302 123.926 99.8948C123.967 100.559 123.828 101.223 123.523 101.815C122.943 102.758 121.702 103.013 121.136 103.089C120.58 103.162 120.017 103.162 119.461 103.089C118.223 102.822 117.006 102.467 115.818 102.027C114.667 101.555 113.629 100.791 112.445 100.432C112.165 100.336 111.869 100.297 111.574 100.318C111.279 100.338 110.991 100.417 110.727 100.55C110.243 100.874 109.811 101.268 109.444 101.72C108.652 102.499 107.935 103.351 107.302 104.264C107.146 104.528 106.971 104.448 107.103 104.202Z" fill="#1F1F1F"/>
<path d="M94.2891 106.606C95.1195 104.907 96.5209 97.9146 97.8703 95.7535C99.2198 93.5925 105.373 86.1893 108.251 86.5101C111.87 86.9112 108.105 93.4273 106.213 96.1121C104.32 98.7969 104.646 103.36 104.646 103.36L94.2891 106.606Z" fill="#D3766A"/>
<path d="M108.851 91.6846C108.176 92.5339 107.581 93.4776 106.996 94.3882C106.394 95.2346 105.855 96.1241 105.383 97.0494C104.987 97.9966 104.749 99.0025 104.68 100.027C104.632 100.532 104.618 101.032 104.614 101.537C104.609 102.042 104.661 102.645 104.651 103.193C104.649 103.2 104.648 103.207 104.65 103.215C104.651 103.222 104.654 103.229 104.658 103.235C104.662 103.241 104.668 103.246 104.675 103.25C104.681 103.253 104.689 103.255 104.696 103.255C104.704 103.255 104.711 103.253 104.718 103.25C104.724 103.246 104.73 103.241 104.734 103.235C104.739 103.229 104.742 103.222 104.743 103.215C104.744 103.207 104.743 103.2 104.741 103.193C104.805 102.187 104.936 101.186 105.133 100.197C105.308 99.1676 105.611 98.1643 106.034 97.2099C106.878 95.3225 108.115 93.6239 108.973 91.7412C108.992 91.6704 108.898 91.6232 108.851 91.6846Z" fill="#1F1F1F"/>
<path d="M104.688 104.148C104.741 104.995 104.918 105.83 105.212 106.626C105.48 107.434 105.805 108.222 106.184 108.985C106.551 109.746 106.959 110.486 107.406 111.202C107.84 111.924 108.35 112.576 108.883 113.264C109.968 114.609 110.832 116.117 111.445 117.733C112.02 119.349 112.307 121.052 112.295 122.767C112.138 121.078 111.74 119.419 111.115 117.841C110.444 116.291 109.566 114.839 108.506 113.524C107.966 112.855 107.468 112.154 107.015 111.424C106.571 110.685 106.177 109.917 105.835 109.126C105.184 107.555 104.58 105.875 104.688 104.148Z" fill="#1F1F1F"/>
<path d="M130.503 94.16C130.604 95.2682 130.762 96.3705 130.974 97.4629C131.142 98.4578 131.399 99.4353 131.744 100.384C132.418 102.087 133.706 103.687 135.693 104.125C136.617 104.302 137.567 104.292 138.487 104.095C139.407 103.898 140.278 103.519 141.048 102.979C142.695 101.894 143.978 100.355 145.153 98.8596C145.886 97.9347 146.574 96.9816 147.215 96.0002C147.536 95.5 147.866 95.0093 148.159 94.495C148.451 93.9807 148.73 93.4617 149.06 92.971C149.088 92.9285 149.173 92.971 149.15 93.004C148.508 94.1647 146.583 97.8451 145.941 98.7558C144.766 100.417 143.488 102.111 141.784 103.337C140.152 104.579 138.102 105.137 136.066 104.894C135.09 104.742 134.169 104.342 133.391 103.733C132.613 103.125 132.004 102.327 131.621 101.417C131.17 100.33 130.882 99.1816 130.767 98.0102C130.606 96.7268 130.521 95.434 130.465 94.1459C130.474 94.1459 130.503 94.1458 130.503 94.16Z" fill="#1F1F1F"/>
<path d="M137.302 100.922C141.634 100.804 146.975 92.7306 148.4 86.96C148.494 86.5636 143.389 73.1302 142.653 70.3605C142.493 69.7943 126.389 79.1934 126.389 79.1934C126.389 79.1934 129.64 84.5394 130.89 89.3711C130.989 89.7768 133.112 101.035 137.302 100.922Z" fill="#D3766A"/>
<path d="M126.389 79.1926C126.389 79.1926 129.64 84.5386 130.89 89.375C130.89 89.4693 131.05 90.1724 131.301 91.1916C139.355 88.2331 143.266 81.7547 145.059 77.3996C143.96 74.3515 142.946 71.4874 142.653 70.3692C142.493 69.7935 126.389 79.1926 126.389 79.1926Z" fill="#1F1F1F"/>
<path d="M117.14 47.8912C116.107 48.0658 112.639 56.3042 113.144 59.9091C113.649 63.5139 116.003 70.4972 117.079 70.4642C118.155 70.4312 117.956 47.7544 117.14 47.8912Z" fill="#1F1F1F"/>
<path d="M141.922 51.0815C145.48 56.7106 147.089 75.3389 143.809 80.4914C139.039 87.9607 128.805 91.3438 121.845 85.073C115.093 78.9863 113.423 54.6722 117.325 49.7415C123.062 42.4798 136.666 42.7676 141.922 51.0815Z" fill="#D3766A"/>
<path d="M128.534 62.9799C129.084 63.0569 129.636 63.1057 130.191 63.1262C130.828 63.1733 131.332 63.2819 131.913 62.9563C132.067 62.8452 132.179 62.6866 132.234 62.5049C132.289 62.3233 132.282 62.1287 132.215 61.9513C131.884 61.2105 131.12 60.9557 130.356 60.866C129.59 60.7458 128.806 60.9139 128.157 61.3379C128.012 61.4434 127.9 61.5893 127.837 61.7575C127.774 61.9257 127.762 62.1087 127.803 62.2837C127.843 62.4588 127.934 62.6181 128.064 62.7419C128.194 62.8657 128.358 62.9484 128.534 62.9799Z" fill="#1F1F1F"/>
<path d="M129.281 67.0459C129.281 66.994 129.385 67.093 129.39 67.145C129.479 68.4048 129.795 69.8297 130.97 70.1317C131.008 70.1317 131.013 70.2025 130.97 70.2025C129.545 70.1506 129.144 68.2491 129.281 67.0459Z" fill="#1F1F1F"/>
<path d="M130.249 65.6247C132.254 65.2614 132.825 69.2956 130.97 69.6259C129.116 69.9562 128.574 65.9267 130.249 65.6247Z" fill="#1F1F1F"/>
<path d="M122.052 67.87C122.052 67.8228 121.962 67.9455 121.972 67.9927C122.189 69.2383 122.226 70.6963 121.155 71.272C121.122 71.272 121.155 71.3522 121.155 71.3427C122.528 70.97 122.453 69.0307 122.052 67.87Z" fill="#1F1F1F"/>
<path d="M120.75 66.7443C118.721 66.8812 119.137 70.9296 121.014 70.8069C122.892 70.6842 122.454 66.6358 120.75 66.7443Z" fill="#1F1F1F"/>
<path d="M118.899 64.5932C119.424 64.4057 119.939 64.1915 120.442 63.9515C121.032 63.6967 121.528 63.5551 121.891 63.0078C121.976 62.8376 122.002 62.6443 121.966 62.4577C121.93 62.271 121.834 62.1012 121.693 61.9744C121.056 61.4696 120.254 61.6017 119.532 61.8754C118.795 62.13 118.179 62.6497 117.805 63.3333C117.731 63.4934 117.705 63.6713 117.73 63.8458C117.755 64.0203 117.83 64.1839 117.945 64.3169C118.061 64.4499 118.212 64.5467 118.382 64.5958C118.551 64.6448 118.731 64.6439 118.899 64.5932Z" fill="#1F1F1F"/>
<path d="M131.858 77.2528C131.603 77.5878 131.386 78.0313 130.914 78.1351C130.448 78.1933 129.975 78.1515 129.527 78.0125C129.522 78.0094 129.517 78.0072 129.512 78.0061C129.506 78.005 129.501 78.0051 129.495 78.0061C129.49 78.0072 129.484 78.0094 129.48 78.0125C129.475 78.0156 129.471 78.0196 129.468 78.0243C129.465 78.0289 129.463 78.0341 129.462 78.0396C129.461 78.0451 129.461 78.0507 129.462 78.0562C129.463 78.0617 129.465 78.0669 129.468 78.0715C129.471 78.0762 129.475 78.0801 129.48 78.0832C129.691 78.3073 129.96 78.4696 130.257 78.5527C130.553 78.6358 130.867 78.6366 131.164 78.5551C131.409 78.4527 131.618 78.2803 131.765 78.0595C131.912 77.8387 131.99 77.5794 131.99 77.3141C131.995 77.2198 131.896 77.2056 131.858 77.2528Z" fill="#1F1F1F"/>
<path d="M130.017 73.7055C129.77 74.2452 129.414 74.7279 128.972 75.1233C128.529 75.5188 128.01 75.8184 127.446 76.0034C126.956 76.1706 126.444 76.2675 125.927 76.2912C125.828 76.3006 125.728 76.3006 125.629 76.2912C125.537 76.2959 125.444 76.2959 125.351 76.2912C125.282 76.2878 125.216 76.262 125.163 76.2177C125.111 76.1734 125.074 76.1131 125.058 76.0459C125.054 76.0035 125.054 75.9608 125.058 75.9185V75.8099C124.893 74.8663 124.78 73.3752 124.78 73.3752C124.454 73.6017 122.775 74.6586 122.732 74.1538C122.392 69.9591 122.01 65.2973 122.553 61.0554C122.558 61.0288 122.573 61.0048 122.594 60.9876C122.615 60.9703 122.641 60.9609 122.668 60.9609C122.696 60.9609 122.722 60.9703 122.743 60.9876C122.764 61.0048 122.779 61.0288 122.784 61.0554C123.256 65.0755 123.053 69.1522 123.482 73.1912C124.077 72.8046 124.724 72.5043 125.403 72.2994C125.544 72.2994 125.573 75.1305 125.681 75.5787C125.678 75.5927 125.678 75.6073 125.681 75.6212C127.323 75.6212 128.474 74.937 129.885 73.63C129.965 73.5357 130.074 73.597 130.017 73.7055Z" fill="#1F1F1F"/>
<path d="M144.106 67.076C140.86 67.8074 138.756 64.3676 136.944 59.4086C135.882 56.5067 135.877 50.4436 135.877 50.4436C135.877 50.4436 128.007 55.5017 123.189 55.7188C118.372 55.9358 113.753 52.3828 113.47 48.6411C113.229 45.409 118.075 40.5207 125.143 39.2656C130.074 38.3927 138.982 41.2474 143.394 46.0837C143.394 46.0837 150.033 48.2306 149.735 53.067C149.438 57.9034 147.791 66.2456 144.106 67.076Z" fill="#1F1F1F"/>
<path d="M143.824 66.7269C139.619 68.2226 136.458 62.0085 135.897 58.6348C135.311 55.1196 136.189 51.3684 136.34 47.8438H136.312C135.406 52.2177 134.528 57.7147 136.538 61.8905C137.803 64.5234 140.431 68.803 143.908 66.9581C144.026 66.892 143.956 66.6797 143.824 66.7269Z" fill="#1F1F1F"/>
<path d="M150.514 51.502C149.518 48.6709 145.824 46.2598 142.964 45.9531C142.936 45.9531 142.927 45.9956 142.964 46.0003C146.447 46.7647 150.806 50.0817 150.273 53.9461C149.844 57.032 148.938 61.1417 147.225 63.7746C147.183 63.8407 147.282 63.902 147.329 63.8407C148.716 62.0335 149.136 59.8583 149.688 57.7067C150.146 55.8052 151.184 53.4601 150.514 51.502Z" fill="#1F1F1F"/>
<path d="M144.083 46.4215C139.422 41.3256 130.112 36.0787 123.129 38.7682C123.129 38.7682 123.129 38.8106 123.129 38.8012C130.631 36.6071 138.417 42.1985 143.848 46.6904C144.017 46.8225 144.216 46.563 144.083 46.4215Z" fill="#1F1F1F"/>
<path d="M142.021 67.5537C142.021 67.5537 144.546 60.745 147.537 61.4952C150.529 62.2455 149.679 71.4039 146.91 73.3243C146.572 73.598 146.182 73.8005 145.764 73.9198C145.346 74.039 144.908 74.0725 144.476 74.0183C144.045 73.9641 143.629 73.8233 143.253 73.6043C142.878 73.3853 142.55 73.0927 142.29 72.744L142.021 67.5537Z" fill="#D3766A"/>
<path d="M147.244 64.0938C147.296 64.0938 147.319 64.1409 147.281 64.174C145.361 65.5895 144.748 67.8968 144.498 70.1711C144.927 69.2274 145.687 68.5432 146.951 69.0245C147.017 69.0481 146.989 69.1519 146.923 69.1519C146.513 69.131 146.107 69.2371 145.76 69.4559C145.413 69.6746 145.142 69.9953 144.984 70.374C144.728 71.01 144.54 71.671 144.422 72.3463C144.37 72.568 143.997 72.5539 144.012 72.3132C144.009 72.296 144.009 72.2786 144.012 72.2613C143.242 69.5435 144.38 65.1507 147.244 64.0938Z" fill="#1F1F1F"/>
<path d="M133.39 97.7594L143.299 127.301C143.686 128.16 143.299 128.91 142.431 128.977L126.879 130.151C126.404 130.154 125.938 130.023 125.535 129.772C125.132 129.522 124.808 129.163 124.6 128.736L114.691 99.1938C114.304 98.3304 114.691 97.5801 115.559 97.5141L131.102 96.3203C131.58 96.3191 132.049 96.4537 132.454 96.7085C132.859 96.9632 133.184 97.3276 133.39 97.7594Z" fill="#37474F"/>
<path d="M131.542 97.8875L141.45 127.43C141.837 128.288 141.45 129.043 140.582 129.109L125.035 130.303C124.558 130.303 124.091 130.167 123.688 129.912C123.285 129.658 122.962 129.294 122.756 128.864L112.847 99.3219C112.456 98.4632 112.847 97.7129 113.716 97.6469L129.282 96.4531C129.755 96.4557 130.218 96.5917 130.618 96.8454C131.018 97.099 131.338 97.4602 131.542 97.8875Z" fill="#455A64"/>
<path d="M127.393 99.5878C127.419 99.8489 127.521 100.096 127.687 100.299C127.854 100.502 128.076 100.651 128.327 100.727C128.578 100.804 128.846 100.804 129.097 100.728C129.348 100.651 129.571 100.503 129.737 100.3C129.904 100.097 130.006 99.8496 130.032 99.5886C130.058 99.3276 130.006 99.0648 129.882 98.8335C129.758 98.6022 129.569 98.4128 129.337 98.2892C129.106 98.1656 128.843 98.1134 128.582 98.1393C128.232 98.1738 127.911 98.3458 127.688 98.6175C127.465 98.8891 127.359 99.2381 127.393 99.5878Z" fill="#1F1F1F"/>
<path d="M193.14 163.186C186.373 164.172 177.833 158.986 155.704 143.208C152.637 141.009 162.234 115.261 165.612 117.417C169.882 120.14 185.864 131.643 186.925 132.634C195.905 141.009 197.74 162.478 193.14 163.186Z" fill="#D3766A"/>
<path d="M173.554 125.092C173.554 125.092 167.203 116.391 162.452 112.848C156.087 108.129 148.641 106.638 145.466 106.209C138.86 105.312 122.345 107.705 122.18 112.593C122.048 117.019 138.846 113.716 138.846 113.716C138.846 113.716 121.166 114.254 121.987 119.609C122.808 124.965 142.097 120.029 142.097 120.029C142.097 120.029 123.94 120.973 125.662 126.38C126.965 130.452 144.682 126.96 144.682 126.96C144.682 126.96 129.083 127.904 130.239 132.151C131.523 136.841 148.075 134.647 148.075 134.647C152.874 144.933 159.338 147.891 164.198 149.444C165.373 149.816 173.554 125.092 173.554 125.092Z" fill="#D3766A"/>
<path d="M144.97 113.136C142.889 113.136 140.785 113.099 138.713 113.269C136.642 113.438 134.57 113.688 132.523 114.052C127.498 114.948 124.501 116.298 124.69 116.232C129.295 114.745 136.703 114.009 138.779 113.835C140.855 113.66 142.908 113.386 144.979 113.212C145.031 113.207 145.017 113.136 144.97 113.136Z" fill="#1F1F1F"/>
<path d="M145.729 120.617C143.072 120.716 140.435 120.716 137.783 120.933C135.131 121.15 132.659 121.589 130.04 121.986C129.837 122.014 129.922 122.113 130.125 122.089C132.753 121.797 135.211 121.731 137.844 121.471C140.477 121.212 143.105 120.844 145.738 120.679C145.795 120.679 145.795 120.617 145.729 120.617Z" fill="#1F1F1F"/>
<path d="M147.536 126.909C143.469 126.853 139.397 127.546 135.419 128.325C135.221 128.363 135.343 128.481 135.546 128.452C139.566 127.905 142.714 127.447 147.536 127.037C147.607 127.042 147.621 126.909 147.536 126.909Z" fill="#1F1F1F"/>
<path d="M180.83 128.094C182.585 129.25 184.275 130.5 185.912 131.826C186.733 132.482 187.521 133.18 188.271 133.916C189.048 134.648 189.731 135.474 190.305 136.375C191.394 138.187 192.309 140.098 193.037 142.084C193.792 144.052 194.327 146.099 194.631 148.185C194.405 147.161 194.122 146.152 193.782 145.16C193.457 144.165 193.098 143.183 192.697 142.216C191.93 140.276 190.995 138.407 189.904 136.629C189.365 135.747 188.715 134.938 187.969 134.223C187.238 133.482 186.45 132.807 185.666 132.1C184.883 131.392 184.072 130.741 183.26 130.075C182.448 129.41 181.656 128.74 180.83 128.094Z" fill="#1F1F1F"/>
<path d="M113.838 35.6098C113.838 35.6098 111.898 51.1334 108.709 54.6298C104.882 58.8197 102.103 58.2063 100.56 60.3674C99.0124 58.2016 96.238 58.8197 92.4066 54.6251C89.2217 51.1334 87.2871 35.6098 87.2871 35.6098C95.6859 31.5331 100.565 26.9609 100.565 26.9609C100.711 27.1072 105.566 31.5944 113.838 35.6098Z" fill="#CEB7A1"/>
<path opacity="0.2" d="M100.56 26.9657V60.3674C99.0124 58.2016 96.238 58.8197 92.4066 54.6251C89.2217 51.1334 87.2871 35.6098 87.2871 35.6098C95.6859 31.5331 100.565 26.9609 100.565 26.9609L100.56 26.9657Z" fill="black"/>
<path opacity="0.1" d="M113.836 35.6129C113.836 35.6129 111.897 51.1365 108.707 54.6329C104.881 58.8228 102.102 58.2094 100.559 60.3705V26.9688C100.71 27.1103 105.565 31.5975 113.836 35.6129Z" fill="black"/>
<path d="M111.775 36.8666C111.775 36.8666 110.138 49.9838 107.444 52.9329C104.212 56.4811 101.862 55.9574 100.559 57.7834C99.2524 55.9574 96.9074 56.4811 93.6705 52.9329C90.9763 49.9838 89.3438 36.8666 89.3438 36.8666C96.4214 33.4222 100.559 29.5625 100.559 29.5625C100.559 29.5625 104.679 33.4316 111.775 36.8666Z" fill="#CEB7A1"/>
<path opacity="0.1" d="M100.559 29.5641V57.7803C99.2564 55.9543 96.9066 56.4733 93.6745 52.9298C90.9802 49.976 89.3477 36.8588 89.3477 36.8588C96.4253 33.4144 100.559 29.5547 100.559 29.5547V29.5641Z" fill="black"/>
<path d="M105.583 41.1719H95.5332V50.2879H105.583V41.1719Z" fill="white"/>
<path d="M104.579 43.9846H103.555V39.9126C103.555 39.1179 103.239 38.3558 102.677 37.7939C102.116 37.232 101.353 36.9164 100.559 36.9164C99.7642 36.9164 99.0021 37.232 98.4402 37.7939C97.8783 38.3558 97.5626 39.1179 97.5626 39.9126V43.9846H96.5387V39.9126C96.501 39.3628 96.5767 38.811 96.7612 38.2917C96.9456 37.7724 97.2349 37.2965 97.611 36.8937C97.9872 36.4909 98.4421 36.1697 98.9476 35.9501C99.453 35.7305 99.9983 35.6172 100.549 35.6172C101.101 35.6172 101.646 35.7305 102.151 35.9501C102.657 36.1697 103.112 36.4909 103.488 36.8937C103.864 37.2965 104.153 37.7724 104.338 38.2917C104.522 38.811 104.598 39.3628 104.56 39.9126L104.579 43.9846Z" fill="white"/>
<path d="M100.874 45.8836L101.2 47.4218H99.8223L100.148 45.8836C100.021 45.8046 99.9226 45.6863 99.8686 45.5466C99.8146 45.4069 99.8076 45.2534 99.8487 45.1094C99.8897 44.9653 99.9766 44.8386 100.096 44.7484C100.216 44.6582 100.361 44.6094 100.511 44.6094C100.661 44.6094 100.807 44.6582 100.926 44.7484C101.046 44.8386 101.133 44.9653 101.174 45.1094C101.215 45.2534 101.208 45.4069 101.154 45.5466C101.1 45.6863 101.002 45.8046 100.874 45.8836Z" fill="#37474F"/>
<path d="M100.735 97.0164H98.7246V96.6578H100.56V96.7804H100.735V97.0164ZM96.8372 97.0164H94.9499V96.6578H96.8372V97.0164ZM93.0625 97.0164H91.1751V96.6578H93.0625V97.0164ZM89.2878 97.0164H87.4004V96.6578H89.2878V97.0164ZM100.735 94.8978H100.381V93.0104H100.735V94.8978ZM100.735 91.123H100.381V89.2357H100.735V91.123ZM100.735 87.3483H100.381V85.4609H100.735V87.3483ZM100.735 83.5736H100.381V81.6862H100.735V83.5736ZM100.735 79.7988H100.381V77.9115H100.735V79.7988ZM100.735 76.0241H100.381V74.1367H100.735V76.0241ZM100.735 72.2493H100.381V70.362H100.735V72.2493ZM100.735 68.4746H100.381V66.5872H100.735V68.4746ZM100.735 64.6999H100.381V62.8125H100.735V64.6999Z" fill="#CEB7A1"/>
<path d="M101.357 62.4224C101.357 62.2647 101.31 62.1105 101.222 61.9794C101.135 61.8483 101.01 61.7461 100.864 61.6857C100.719 61.6253 100.558 61.6096 100.404 61.6403C100.249 61.6711 100.107 61.747 99.9953 61.8586C99.8838 61.9701 99.8078 62.1122 99.777 62.2668C99.7463 62.4215 99.7621 62.5819 99.8224 62.7276C99.8828 62.8733 99.985 62.9978 100.116 63.0854C100.247 63.1731 100.401 63.2198 100.559 63.2198C100.771 63.2198 100.973 63.1358 101.123 62.9863C101.273 62.8367 101.357 62.6339 101.357 62.4224Z" fill="#CEB7A1"/>
<path d="M31.8684 41.3693H7.6582V10.2891H25.6354L31.8684 16.2154V41.3693Z" fill="#EBEBEB"/>
<path d="M25.6348 10.2891L31.8678 16.2154H25.6348V10.2891Z" fill="#DBDBDB"/>
<path d="M10.0227 16.2969H23.4844V15.4995L10.0227 15.4995V16.2969Z" fill="#DBDBDB"/>
<path d="M10.0227 18.3125H23.4844V17.5151H10.0227V18.3125Z" fill="#DBDBDB"/>
<path d="M10.0227 20.3359H23.4844V19.5385H10.0227V20.3359Z" fill="#DBDBDB"/>
<path d="M10.0231 22.3516L29.7461 22.3516V21.5541L10.0231 21.5541V22.3516Z" fill="#DBDBDB"/>
<path d="M10.0231 24.3672L29.7461 24.3672V23.5698L10.0231 23.5698V24.3672Z" fill="#DBDBDB"/>
<path d="M10.0231 26.3828L29.7461 26.3828V25.5854L10.0231 25.5854V26.3828Z" fill="#DBDBDB"/>
<path d="M10.0231 28.3906L29.7461 28.3906V27.5932L10.0231 27.5932V28.3906Z" fill="#DBDBDB"/>
<path d="M10.0231 30.4063L29.7461 30.4062V29.6088L10.0231 29.6088V30.4063Z" fill="#DBDBDB"/>
<path d="M10.0231 32.4219H29.7461V31.6245L10.0231 31.6245V32.4219Z" fill="#DBDBDB"/>
<path d="M10.0231 34.4297H29.7461V33.6323H10.0231V34.4297Z" fill="#DBDBDB"/>
<path d="M10.0231 36.4453H29.7461V35.6479H10.0231V36.4453Z" fill="#DBDBDB"/>
<path d="M10.0231 38.4609H29.7461V37.6635H10.0231V38.4609Z" fill="#DBDBDB"/>
<path d="M33.504 44.1975C35.6688 43.295 36.6921 40.8086 35.7897 38.6438C34.8872 36.4791 32.4008 35.4558 30.236 36.3582C28.0713 37.2606 27.048 39.7471 27.9504 41.9118C28.8528 44.0766 31.3393 45.0999 33.504 44.1975Z" fill="#1F1F1F"/>
<path d="M33.9725 39.2109H29.7637V43.0329H33.9725V39.2109Z" fill="white"/>
<path d="M33.5529 40.38H33.1235V38.6767C33.1235 38.3438 32.9913 38.0246 32.7559 37.7892C32.5205 37.5538 32.2013 37.4216 31.8684 37.4216C31.5355 37.4216 31.2163 37.5538 30.9809 37.7892C30.7455 38.0246 30.6133 38.3438 30.6133 38.6767V40.38H30.1934V38.6767C30.1934 38.2299 30.3708 37.8015 30.6867 37.4856C31.0026 37.1697 31.4311 36.9922 31.8778 36.9922C32.3246 36.9922 32.753 37.1697 33.0689 37.4856C33.3848 37.8015 33.5623 38.2299 33.5623 38.6767L33.5529 40.38Z" fill="white"/>
<path d="M32.0475 41.165L32.2221 42.0049H31.4766L31.6511 41.165C31.5826 41.122 31.53 41.0579 31.5011 40.9824C31.4722 40.9068 31.4687 40.8239 31.4911 40.7462C31.5135 40.6685 31.5605 40.6001 31.6251 40.5515C31.6898 40.5029 31.7684 40.4766 31.8493 40.4766C31.9302 40.4766 32.0089 40.5029 32.0735 40.5515C32.1381 40.6001 32.1852 40.6685 32.2075 40.7462C32.2299 40.8239 32.2264 40.9068 32.1975 40.9824C32.1687 41.0579 32.116 41.122 32.0475 41.165Z" fill="#1F1F1F"/>
<path d="M48.4594 57.62H48.1244V55.7326H48.4783L48.4594 57.62ZM48.4594 53.8452H48.1244V51.9578H48.4783L48.4594 53.8452ZM48.4594 50.0705H48.1244V48.1831H48.4783L48.4594 50.0705ZM48.4594 46.2957H48.1244V44.4084H48.4783L48.4594 46.2957ZM48.4594 42.521H48.1244V40.6336H48.4783L48.4594 42.521ZM48.4594 38.7463H48.1244V36.8589H48.4783L48.4594 38.7463ZM48.4594 34.9715H48.1244V33.0841H48.4783L48.4594 34.9715ZM48.4594 31.1968H48.1244V29.3094H48.4783L48.4594 31.1968ZM46.7089 29.182H44.8215V28.8281H46.7089V29.182ZM42.9341 29.182H41.0468V28.8281H42.9341V29.182ZM39.1594 29.182H37.272V28.8281H39.1594V29.182ZM35.3846 29.182H34.5684V28.8281H35.3846V29.182Z" fill="#CEB7A1"/>
<path d="M34.5859 28.2344C34.4263 28.2335 34.27 28.2803 34.1371 28.3687C34.0042 28.4571 33.9007 28.5832 33.8398 28.7308C33.779 28.8784 33.7636 29.0408 33.7956 29.1972C33.8275 29.3536 33.9054 29.4969 34.0193 29.6088C34.1332 29.7206 34.2779 29.796 34.4349 29.8251C34.5918 29.8543 34.7539 29.836 34.9004 29.7725C35.0469 29.709 35.1711 29.6033 35.2571 29.4688C35.3431 29.3343 35.3871 29.1772 35.3833 29.0176C35.3784 28.809 35.2924 28.6105 35.1435 28.4643C34.9946 28.318 34.7946 28.2356 34.5859 28.2344Z" fill="#CEB7A1"/>
<path d="M62.0235 162.58H60.9147V162.245H62.0235V162.58ZM59.0273 162.58H57.14V162.245H59.0273V162.58ZM55.2526 162.58H53.3652V162.245H55.2526V162.58ZM51.4778 162.58H49.5905V162.245H51.4778V162.58ZM48.4581 161.825H48.123V159.938H48.4769L48.4581 161.825ZM48.4581 158.05H48.123V156.163H48.4769L48.4581 158.05ZM48.4581 154.275H48.123V152.388H48.4769L48.4581 154.275ZM48.4581 150.501H48.123V148.613H48.4769L48.4581 150.501ZM48.4581 146.726H48.123V144.839H48.4769L48.4581 146.726ZM48.4581 142.951H48.123V141.064H48.4769L48.4581 142.951ZM48.4581 139.176H48.123V137.289H48.4769L48.4581 139.176Z" fill="#CEB7A1"/>
<path d="M61.981 163.196C62.4214 163.196 62.7784 162.839 62.7784 162.399C62.7784 161.959 62.4214 161.602 61.981 161.602C61.5406 161.602 61.1836 161.959 61.1836 162.399C61.1836 162.839 61.5406 163.196 61.981 163.196Z" fill="#CEB7A1"/>
<path d="M94.9203 157.227H64.7695V175.421H94.9203V157.227Z" fill="#455A64"/>
<path d="M75.5658 159.516H67.1387V170.293H75.5658V159.516Z" fill="white"/>
<path d="M71.3514 165.82C72.4537 165.82 73.3473 164.926 73.3473 163.824C73.3473 162.722 72.4537 161.828 71.3514 161.828C70.2491 161.828 69.3555 162.722 69.3555 163.824C69.3555 164.926 70.2491 165.82 71.3514 165.82Z" fill="#455A64"/>
<path d="M75.5658 170.29H67.1387C67.1387 170.29 67.3699 168.279 67.7804 167.68C68.1909 167.081 69.2761 166.406 71.3522 166.406C73.4283 166.406 74.5136 167.081 74.9241 167.68C75.3346 168.279 75.5658 170.29 75.5658 170.29Z" fill="#455A64"/>
<path d="M91.6183 159.516H77.7461V160.039H91.6183V159.516Z" fill="white"/>
<path d="M91.6183 164.641H77.7461V165.164H91.6183V164.641Z" fill="white"/>
<path d="M91.6183 166.148H77.7461V166.672H91.6183V166.148Z" fill="white"/>
<path d="M91.6183 167.656H77.7461V168.18H91.6183V167.656Z" fill="white"/>
<path d="M91.6183 169.164H77.7461V169.688H91.6183V169.164Z" fill="white"/>
<path d="M91.6183 170.672H77.7461V171.196H91.6183V170.672Z" fill="white"/>
<path d="M88.9807 161.023H77.7461V161.547H88.9807V161.023Z" fill="white"/>
<path d="M96.5548 179.346C98.7196 178.443 99.7429 175.957 98.8404 173.792C97.938 171.628 95.4516 170.604 93.2868 171.507C91.1221 172.409 90.0988 174.896 91.0012 177.06C91.9036 179.225 94.3901 180.248 96.5548 179.346Z" fill="#1F1F1F"/>
<path d="M97.0252 174.352H92.8164V178.173H97.0252V174.352Z" fill="white"/>
<path d="M96.6053 175.521H96.1759V173.817C96.1759 173.484 96.0437 173.165 95.8083 172.93C95.5729 172.694 95.2537 172.562 94.9208 172.562C94.5879 172.562 94.2687 172.694 94.0333 172.93C93.7979 173.165 93.6657 173.484 93.6657 173.817V175.521H93.2363V173.817C93.2363 173.371 93.4138 172.942 93.7297 172.626C94.0456 172.31 94.4741 172.133 94.9208 172.133C95.3676 172.133 95.796 172.31 96.1119 172.626C96.4278 172.942 96.6053 173.371 96.6053 173.817V175.521Z" fill="white"/>
<path d="M95.0991 176.306L95.2737 177.146H94.5234L94.7027 176.306C94.6478 176.271 94.6029 176.223 94.5723 176.166C94.5417 176.109 94.5265 176.045 94.5283 175.98C94.5301 175.915 94.5487 175.852 94.5824 175.796C94.6161 175.741 94.6636 175.695 94.7203 175.664C94.7771 175.632 94.841 175.616 94.9058 175.617C94.9706 175.618 95.0341 175.636 95.09 175.669C95.1459 175.702 95.1922 175.748 95.2244 175.805C95.2566 175.861 95.2736 175.925 95.2737 175.99C95.2737 176.053 95.2578 176.115 95.2272 176.17C95.1967 176.225 95.1526 176.272 95.0991 176.306Z" fill="#1F1F1F"/>
<path d="M199.577 191.97L174.81 192.084L150.038 192.126L100.499 192.206L50.9606 192.126L26.1936 192.084L1.42188 191.97L26.1936 191.852L50.9606 191.815L100.499 191.734L150.038 191.815L174.81 191.857L199.577 191.97Z" fill="#1F1F1F"/>
</svg>
