<svg width="20" height="21" viewBox="0 0 20 21" fill="none" xmlns="http://www.w3.org/2000/svg">
<path d="M15.8334 13H15C14.779 13 14.567 12.9122 14.4108 12.7559C14.2545 12.5996 14.1667 12.3877 14.1667 12.1667C14.1667 11.9457 14.2545 11.7337 14.4108 11.5774C14.567 11.4211 14.779 11.3333 15 11.3333H15.8334C16.0544 11.3333 16.2663 11.4211 16.4226 11.5774C16.5789 11.7337 16.6667 11.9457 16.6667 12.1667C16.6667 12.3877 16.5789 12.5996 16.4226 12.7559C16.2663 12.9122 16.0544 13 15.8334 13ZM16.6667 15.5C16.6667 15.279 16.5789 15.067 16.4226 14.9107C16.2663 14.7545 16.0544 14.6667 15.8334 14.6667H15C14.779 14.6667 14.567 14.7545 14.4108 14.9107C14.2545 15.067 14.1667 15.279 14.1667 15.5C14.1667 15.721 14.2545 15.933 14.4108 16.0893C14.567 16.2455 14.779 16.3333 15 16.3333H15.8334C16.0544 16.3333 16.2663 16.2455 16.4226 16.0893C16.5789 15.933 16.6667 15.721 16.6667 15.5ZM13.3334 5.5C13.3334 5.27899 13.2456 5.06702 13.0893 4.91074C12.933 4.75446 12.721 4.66667 12.5 4.66667H11.6667C11.4457 4.66667 11.2337 4.75446 11.0774 4.91074C10.9211 5.06702 10.8334 5.27899 10.8334 5.5C10.8334 5.72101 10.9211 5.93297 11.0774 6.08926C11.2337 6.24554 11.4457 6.33333 11.6667 6.33333H12.5C12.721 6.33333 12.933 6.24554 13.0893 6.08926C13.2456 5.93297 13.3334 5.72101 13.3334 5.5ZM16.6667 5.5C16.6667 5.27899 16.5789 5.06702 16.4226 4.91074C16.2663 4.75446 16.0544 4.66667 15.8334 4.66667H15C14.779 4.66667 14.567 4.75446 14.4108 4.91074C14.2545 5.06702 14.1667 5.27899 14.1667 5.5C14.1667 5.72101 14.2545 5.93297 14.4108 6.08926C14.567 6.24554 14.779 6.33333 15 6.33333H15.8334C16.0544 6.33333 16.2663 6.24554 16.4226 6.08926C16.5789 5.93297 16.6667 5.72101 16.6667 5.5ZM16.6667 8.83333C16.6667 8.61232 16.5789 8.40036 16.4226 8.24408C16.2663 8.0878 16.0544 8 15.8334 8H15C14.779 8 14.567 8.0878 14.4108 8.24408C14.2545 8.40036 14.1667 8.61232 14.1667 8.83333C14.1667 9.05435 14.2545 9.26631 14.4108 9.42259C14.567 9.57887 14.779 9.66667 15 9.66667H15.8334C16.0544 9.66667 16.2663 9.57887 16.4226 9.42259C16.5789 9.26631 16.6667 9.05435 16.6667 8.83333ZM20 16.3333V4.66667C20 2.36917 18.1308 0.5 15.8334 0.5H11.6667C9.36918 0.5 7.50002 2.36917 7.50002 4.66667C7.50002 4.88768 7.58782 5.09964 7.7441 5.25592C7.90038 5.4122 8.11234 5.5 8.33335 5.5C8.55437 5.5 8.76633 5.4122 8.92261 5.25592C9.07889 5.09964 9.16669 4.88768 9.16669 4.66667C9.16669 3.28833 10.2884 2.16667 11.6667 2.16667H15.8334C17.2117 2.16667 18.3334 3.28833 18.3334 4.66667V16.3333C18.3334 17.7117 17.2117 18.8333 15.8334 18.8333H15C14.779 18.8333 14.567 18.9211 14.4108 19.0774C14.2545 19.2337 14.1667 19.4457 14.1667 19.6667C14.1667 19.8877 14.2545 20.0996 14.4108 20.2559C14.567 20.4122 14.779 20.5 15 20.5H15.8334C18.1308 20.5 20 18.6308 20 16.3333ZM13.3334 16.75V13.29C13.3351 12.6572 13.1919 12.0324 12.9147 11.4636C12.6375 10.8947 12.2336 10.3969 11.7342 10.0083L9.23419 8.05083C8.50163 7.4764 7.5976 7.16421 6.66668 7.16421C5.73577 7.16421 4.83174 7.4764 4.09918 8.05083L1.59918 10.0075C1.09963 10.396 0.695746 10.8938 0.418532 11.4626C0.141317 12.0315 -0.00185125 12.6563 1.80726e-05 13.2892V16.7492C1.80726e-05 18.8167 1.68252 20.4992 3.75002 20.4992H9.58335C11.6509 20.4992 13.3334 18.8175 13.3334 16.75ZM8.20752 9.36417L10.7075 11.3208C11.007 11.5541 11.2492 11.8529 11.4154 12.1942C11.5817 12.5355 11.6676 12.9103 11.6667 13.29V16.75C11.6667 17.8992 10.7325 18.8333 9.58335 18.8333H3.75002C3.19762 18.8329 2.66797 18.6133 2.27737 18.2227C1.88676 17.832 1.66713 17.3024 1.66668 16.75V13.29C1.66668 12.5158 2.01668 11.7983 2.62585 11.3208L5.12585 9.365C5.56517 9.01967 6.10774 8.83187 6.66654 8.83172C7.22534 8.83157 7.76801 9.01907 8.20752 9.36417ZM8.33335 15.5V13.8333C8.33335 13.6123 8.24555 13.4004 8.08927 13.2441C7.93299 13.0878 7.72103 13 7.50002 13H5.83335C5.61234 13 5.40038 13.0878 5.2441 13.2441C5.08782 13.4004 5.00002 13.6123 5.00002 13.8333V15.5C5.00002 15.721 5.08782 15.933 5.2441 16.0893C5.40038 16.2455 5.61234 16.3333 5.83335 16.3333H7.50002C7.72103 16.3333 7.93299 16.2455 8.08927 16.0893C8.24555 15.933 8.33335 15.721 8.33335 15.5Z" fill="#CEB7A1"/>

</svg>
