<svg width="20" height="21" viewBox="0 0 20 21" fill="none" xmlns="http://www.w3.org/2000/svg">

<path d="M13.3333 12.1667C13.3333 12.6267 12.96 13 12.5 13H11.6667C11.2067 13 10.8333 12.6267 10.8333 12.1667C10.8333 11.7067 11.2067 11.3333 11.6667 11.3333H12.5C12.96 11.3333 13.3333 11.7067 13.3333 12.1667ZM15.8333 11.3333H15C14.54 11.3333 14.1667 11.7067 14.1667 12.1667C14.1667 12.6267 14.54 13 15 13H15.8333C16.2933 13 16.6667 12.6267 16.6667 12.1667C16.6667 11.7067 16.2933 11.3333 15.8333 11.3333ZM12.5 14.6667H11.6667C11.2067 14.6667 10.8333 15.04 10.8333 15.5C10.8333 15.96 11.2067 16.3333 11.6667 16.3333H12.5C12.96 16.3333 13.3333 15.96 13.3333 15.5C13.3333 15.04 12.96 14.6667 12.5 14.6667ZM15.8333 14.6667H15C14.54 14.6667 14.1667 15.04 14.1667 15.5C14.1667 15.96 14.54 16.3333 15 16.3333H15.8333C16.2933 16.3333 16.6667 15.96 16.6667 15.5C16.6667 15.04 16.2933 14.6667 15.8333 14.6667ZM12.5 4.66667H11.6667C11.2067 4.66667 10.8333 5.04 10.8333 5.5C10.8333 5.96 11.2067 6.33333 11.6667 6.33333H12.5C12.96 6.33333 13.3333 5.96 13.3333 5.5C13.3333 5.04 12.96 4.66667 12.5 4.66667ZM15.8333 4.66667H15C14.54 4.66667 14.1667 5.04 14.1667 5.5C14.1667 5.96 14.54 6.33333 15 6.33333H15.8333C16.2933 6.33333 16.6667 5.96 16.6667 5.5C16.6667 5.04 16.2933 4.66667 15.8333 4.66667ZM12.5 8H11.6667C11.2067 8 10.8333 8.37333 10.8333 8.83333C10.8333 9.29333 11.2067 9.66667 11.6667 9.66667H12.5C12.96 9.66667 13.3333 9.29333 13.3333 8.83333C13.3333 8.37333 12.96 8 12.5 8ZM15.8333 8H15C14.54 8 14.1667 8.37333 14.1667 8.83333C14.1667 9.29333 14.54 9.66667 15 9.66667H15.8333C16.2933 9.66667 16.6667 9.29333 16.6667 8.83333C16.6667 8.37333 16.2933 8 15.8333 8ZM20 4.66667V16.3333C20 18.6308 18.1308 20.5 15.8333 20.5H4.16667C1.86917 20.5 0 18.6308 0 16.3333V8.215C0 7.08917 0.465 5.995 1.27583 5.21417L2.84917 3.69917C3.82167 2.76167 5.345 2.7625 6.3175 3.69917L7.5 4.83833V4.66667C7.5 2.36917 9.36917 0.5 11.6667 0.5H15.8333C18.1308 0.5 20 2.36917 20 4.66667ZM7.5 8.215C7.5 7.53917 7.22083 6.88333 6.73417 6.41417L5.16083 4.89917C4.99917 4.7425 4.79083 4.665 4.58333 4.665C4.37583 4.665 4.1675 4.7425 4.00583 4.89917L2.4325 6.41417C1.94583 6.8825 1.66667 7.53917 1.66667 8.215V16.3333C1.66667 17.7117 2.78833 18.8333 4.16667 18.8333H7.5V8.215ZM18.3333 4.66667C18.3333 3.28833 17.2117 2.16667 15.8333 2.16667H11.6667C10.2883 2.16667 9.16667 3.28833 9.16667 4.66667V18.8333H15.8333C17.2117 18.8333 18.3333 17.7117 18.3333 16.3333V4.66667ZM5 11.3333H4.16667C3.70667 11.3333 3.33333 11.7067 3.33333 12.1667C3.33333 12.6267 3.70667 13 4.16667 13H5C5.46 13 5.83333 12.6267 5.83333 12.1667C5.83333 11.7067 5.46 11.3333 5 11.3333ZM5 8H4.16667C3.70667 8 3.33333 8.37333 3.33333 8.83333C3.33333 9.29333 3.70667 9.66667 4.16667 9.66667H5C5.46 9.66667 5.83333 9.29333 5.83333 8.83333C5.83333 8.37333 5.46 8 5 8ZM5 14.6667H4.16667C3.70667 14.6667 3.33333 15.04 3.33333 15.5C3.33333 15.96 3.70667 16.3333 4.16667 16.3333H5C5.46 16.3333 5.83333 15.96 5.83333 15.5C5.83333 15.04 5.46 14.6667 5 14.6667Z" fill="#CEB7A1"/>

</svg>
