<svg width="20" height="21" viewBox="0 0 20 21" fill="none" xmlns="http://www.w3.org/2000/svg">

<path d="M15.8333 1.33594H4.16667C3.062 1.33726 2.00296 1.77667 1.22185 2.55779C0.440735 3.3389 0.00132321 4.39794 0 5.5026L0 15.5026C0.00132321 16.6073 0.440735 17.6663 1.22185 18.4474C2.00296 19.2285 3.062 19.6679 4.16667 19.6693H15.8333C16.938 19.6679 17.997 19.2285 18.7782 18.4474C19.5593 17.6663 19.9987 16.6073 20 15.5026V5.5026C19.9987 4.39794 19.5593 3.3389 18.7782 2.55779C17.997 1.77667 16.938 1.33726 15.8333 1.33594ZM4.16667 3.0026H15.8333C16.3323 3.00359 16.8196 3.15387 17.2325 3.43411C17.6453 3.71435 17.9649 4.11173 18.15 4.5751L11.7683 10.9576C11.2987 11.4254 10.6628 11.688 10 11.688C9.33715 11.688 8.70131 11.4254 8.23167 10.9576L1.85 4.5751C2.03512 4.11173 2.35468 3.71435 2.76754 3.43411C3.1804 3.15387 3.66768 3.00359 4.16667 3.0026ZM15.8333 18.0026H4.16667C3.50363 18.0026 2.86774 17.7392 2.3989 17.2704C1.93006 16.8015 1.66667 16.1656 1.66667 15.5026V6.7526L7.05333 12.1359C7.83552 12.9161 8.89521 13.3543 10 13.3543C11.1048 13.3543 12.1645 12.9161 12.9467 12.1359L18.3333 6.7526V15.5026C18.3333 16.1656 18.0699 16.8015 17.6011 17.2704C17.1323 17.7392 16.4964 18.0026 15.8333 18.0026Z" fill="#CEB7A1"/>

</svg>
