<svg width="20" height="21" viewBox="0 0 20 21" fill="none" xmlns="http://www.w3.org/2000/svg">

<path d="M15.8327 7.52V6.33333C15.8327 4.78624 15.2181 3.30251 14.1241 2.20854C13.0302 1.11458 11.5464 0.5 9.99935 0.5C8.45225 0.5 6.96852 1.11458 5.87456 2.20854C4.7806 3.30251 4.16602 4.78624 4.16602 6.33333V7.52C3.42382 7.84392 2.79209 8.3771 2.3481 9.05434C1.9041 9.73158 1.66708 10.5235 1.66602 11.3333V16.3333C1.66734 17.438 2.10675 18.497 2.88787 19.2782C3.66898 20.0593 4.72802 20.4987 5.83268 20.5H14.166C15.2707 20.4987 16.3297 20.0593 17.1108 19.2782C17.8919 18.497 18.3314 17.438 18.3327 16.3333V11.3333C18.3316 10.5235 18.0946 9.73158 17.6506 9.05434C17.2066 8.3771 16.5749 7.84392 15.8327 7.52ZM5.83268 6.33333C5.83268 5.22826 6.27167 4.16846 7.05307 3.38705C7.83447 2.60565 8.89428 2.16667 9.99935 2.16667C11.1044 2.16667 12.1642 2.60565 12.9456 3.38705C13.727 4.16846 14.166 5.22826 14.166 6.33333V7.16667H5.83268V6.33333ZM16.666 16.3333C16.666 16.9964 16.4026 17.6323 15.9338 18.1011C15.4649 18.5699 14.8291 18.8333 14.166 18.8333H5.83268C5.16964 18.8333 4.53376 18.5699 4.06492 18.1011C3.59607 17.6323 3.33268 16.9964 3.33268 16.3333V11.3333C3.33268 10.6703 3.59607 10.0344 4.06492 9.56557C4.53376 9.09672 5.16964 8.83333 5.83268 8.83333H14.166C14.8291 8.83333 15.4649 9.09672 15.9338 9.56557C16.4026 10.0344 16.666 10.6703 16.666 11.3333V16.3333Z" fill="#CEB7A1"/>
<path d="M9.99935 12.1641C9.77834 12.1641 9.56637 12.2519 9.41009 12.4081C9.25381 12.5644 9.16602 12.7764 9.16602 12.9974V14.6641C9.16602 14.8851 9.25381 15.097 9.41009 15.2533C9.56637 15.4096 9.77834 15.4974 9.99935 15.4974C10.2204 15.4974 10.4323 15.4096 10.5886 15.2533C10.7449 15.097 10.8327 14.8851 10.8327 14.6641V12.9974C10.8327 12.7764 10.7449 12.5644 10.5886 12.4081C10.4323 12.2519 10.2204 12.1641 9.99935 12.1641Z" fill="#CEB7A1"/>

</svg>
