<svg width="20" height="21" viewBox="0 0 20 21" fill="none" xmlns="http://www.w3.org/2000/svg">

<path d="M12.5007 20.5H7.50065C5.20315 20.5 3.33398 18.6308 3.33398 16.3333V4.66667C3.33398 2.36917 5.20315 0.5 7.50065 0.5H12.5007C14.7982 0.5 16.6673 2.36917 16.6673 4.66667V16.3333C16.6673 18.6308 14.7982 20.5 12.5007 20.5ZM7.50065 2.16667C6.12232 2.16667 5.00065 3.28833 5.00065 4.66667V16.3333C5.00065 17.7117 6.12232 18.8333 7.50065 18.8333H12.5007C13.879 18.8333 15.0007 17.7117 15.0007 16.3333V4.66667C15.0007 3.28833 13.879 2.16667 12.5007 2.16667H7.50065ZM11.6673 16.3333C11.6673 15.8733 11.294 15.5 10.834 15.5H9.16732C8.70732 15.5 8.33398 15.8733 8.33398 16.3333C8.33398 16.7933 8.70732 17.1667 9.16732 17.1667H10.834C11.294 17.1667 11.6673 16.7933 11.6673 16.3333Z" fill="#CEB7A1"/>

</svg>
