<svg width="20" height="18" viewBox="0 0 20 18" fill="none" xmlns="http://www.w3.org/2000/svg">
<path d="M17.5 3.9974H4.16667C3.45083 3.9974 2.77333 3.6874 2.30417 3.1649C2.7625 2.65323 3.42833 2.33073 4.16667 2.33073H19.1667C19.6275 2.33073 20 1.9574 20 1.4974C20 1.0374 19.6275 0.664062 19.1667 0.664062H4.16667C1.86583 0.664062 0 2.5299 0 4.83073V13.1641C0 15.4649 1.86583 17.3307 4.16667 17.3307H17.5C18.8808 17.3307 20 16.2116 20 14.8307V6.4974C20 5.11656 18.8808 3.9974 17.5 3.9974ZM18.3333 14.8307C18.3333 15.2899 17.96 15.6641 17.5 15.6641H4.16667C2.78833 15.6641 1.66667 14.5424 1.66667 13.1641V4.82906C2.37833 5.36156 3.25333 5.66406 4.16667 5.66406H17.5C17.96 5.66406 18.3333 6.03823 18.3333 6.4974V14.8307ZM16.6667 10.6641C16.6667 11.1241 16.2933 11.4974 15.8333 11.4974C15.3733 11.4974 15 11.1241 15 10.6641C15 10.2041 15.3733 9.83073 15.8333 9.83073C16.2933 9.83073 16.6667 10.2041 16.6667 10.6641Z" fill="#CEB7A1"/>
</svg>
