<svg width="20" height="21" viewBox="0 0 20 21" fill="none" xmlns="http://www.w3.org/2000/svg">

<path d="M17.6666 17.6429H16.7143V12.8809C17.5032 12.8809 18.1429 12.2414 18.1429 11.4523C18.1429 10.6634 17.5032 10.0238 16.7143 10.0238H16.6837C16.3875 6.80022 13.1432 4.54473 10.0477 4.33161V3.35714H12.4286C12.4911 3.35717 12.5531 3.34486 12.6109 3.32094C12.6686 3.29701 12.7212 3.26193 12.7654 3.2177C12.8096 3.17348 12.8447 3.12097 12.8686 3.06317C12.8925 3.00538 12.9048 2.94344 12.9048 2.88089V0.97625C12.9048 0.913701 12.8925 0.851761 12.8686 0.793969C12.8447 0.736177 12.8096 0.683667 12.7654 0.639438C12.7212 0.59521 12.6686 0.56013 12.6109 0.536205C12.5531 0.512279 12.4911 0.499977 12.4286 0.5H9.57143C9.50888 0.499977 9.44694 0.512279 9.38915 0.536205C9.33136 0.56013 9.27884 0.59521 9.23462 0.639438C9.19039 0.683667 9.15531 0.736177 9.13138 0.793969C9.10746 0.851761 9.09515 0.913701 9.09518 0.97625V4.33161C5.99964 4.54473 2.75536 6.80022 2.45911 10.0238H2.42857C1.63964 10.0238 1 10.6634 1 11.4523C1 12.2414 1.63964 12.8809 2.42857 12.8809V17.6429H1.47625C1.34992 17.6428 1.22873 17.6929 1.13933 17.7822C1.05007 17.8716 0.999954 17.9928 1 18.1191V20.0238C1 20.1502 1.05004 20.2712 1.13933 20.3607C1.22879 20.45 1.34982 20.5 1.47625 20.5H17.6666C17.793 20.5 17.9141 20.45 18.0035 20.3607C18.0928 20.2712 18.1429 20.1502 18.1429 20.0238V18.1191C18.1429 17.9927 18.0928 17.8717 18.0035 17.7822C17.9141 17.6929 17.7929 17.6428 17.6666 17.6429ZM15.762 17.6429H14.8095V12.8809H15.762V17.6429ZM12.9048 17.6429V12.8809H13.8571V17.6429H12.9048ZM9.09518 17.6429V12.8809H10.0477V17.6429H9.09518ZM5.28571 17.6429V12.8809H6.23804V17.6429H5.28571ZM7.19054 12.8809H8.14286V17.6429H7.19054V12.8809ZM11 12.8809H11.9523V17.6429H11V12.8809ZM10.0477 1.45232H11.9523V2.40482H10.0477V1.45232ZM9.57143 5.26196C12.3365 5.26196 15.4121 7.26808 15.7341 10.0238H3.40879C3.73071 7.26808 6.80634 5.26196 9.57143 5.26196ZM1.95232 11.4523C1.95286 11.1895 2.16576 10.9768 2.42857 10.9763H16.7143C16.9772 10.9763 17.1905 11.1893 17.1905 11.4523C17.1905 11.7153 16.9773 11.9286 16.7143 11.9286H2.42857C2.16576 11.928 1.95286 11.7151 1.95232 11.4523ZM3.38089 12.8809H4.33339V17.6429H3.38089V12.8809ZM17.1905 19.5477H1.95232V18.5952H17.1905V19.5477Z" fill="#CEB7A1"/>

</svg>
