<svg width="20" height="21" viewBox="0 0 20 21" fill="none" xmlns="http://www.w3.org/2000/svg">

<path d="M10 10.5C10.9889 10.5 11.9556 10.2068 12.7779 9.65735C13.6001 9.10794 14.241 8.32705 14.6194 7.41342C14.9978 6.49979 15.0969 5.49446 14.9039 4.52455C14.711 3.55465 14.2348 2.66373 13.5355 1.96447C12.8363 1.26521 11.9454 0.789002 10.9755 0.596076C10.0055 0.40315 9.00021 0.502166 8.08658 0.880605C7.17295 1.25904 6.39206 1.89991 5.84265 2.72215C5.29324 3.5444 5 4.5111 5 5.5C5.00132 6.82568 5.52853 8.09668 6.46593 9.03407C7.40332 9.97147 8.67432 10.4987 10 10.5ZM10 2.16667C10.6593 2.16667 11.3037 2.36217 11.8519 2.72844C12.4001 3.09471 12.8273 3.6153 13.0796 4.22439C13.3319 4.83348 13.3979 5.5037 13.2693 6.1503C13.1407 6.79691 12.8232 7.39085 12.357 7.85703C11.8908 8.3232 11.2969 8.64067 10.6503 8.76929C10.0037 8.8979 9.33348 8.83189 8.72439 8.5796C8.1153 8.32731 7.59471 7.90007 7.22843 7.3519C6.86216 6.80374 6.66667 6.15927 6.66667 5.5C6.66667 4.61595 7.01786 3.7681 7.64298 3.14298C8.2681 2.51786 9.11594 2.16667 10 2.16667Z" fill="#CEB7A1"/>
<path d="M10 12.1641C8.01155 12.1663 6.10518 12.9572 4.69914 14.3632C3.29309 15.7692 2.50221 17.6756 2.5 19.6641C2.5 19.8851 2.5878 20.097 2.74408 20.2533C2.90036 20.4096 3.11232 20.4974 3.33333 20.4974C3.55435 20.4974 3.76631 20.4096 3.92259 20.2533C4.07887 20.097 4.16667 19.8851 4.16667 19.6641C4.16667 18.117 4.78125 16.6332 5.87521 15.5393C6.96917 14.4453 8.4529 13.8307 10 13.8307C11.5471 13.8307 13.0308 14.4453 14.1248 15.5393C15.2188 16.6332 15.8333 18.117 15.8333 19.6641C15.8333 19.8851 15.9211 20.097 16.0774 20.2533C16.2337 20.4096 16.4457 20.4974 16.6667 20.4974C16.8877 20.4974 17.0996 20.4096 17.2559 20.2533C17.4122 20.097 17.5 19.8851 17.5 19.6641C17.4978 17.6756 16.7069 15.7692 15.3009 14.3632C13.8948 12.9572 11.9884 12.1663 10 12.1641Z" fill="#CEB7A1"/>

</svg>
