<svg width="20" height="21" viewBox="0 0 20 21" fill="none" xmlns="http://www.w3.org/2000/svg">

<path d="M15 3H5C2.2425 3 0 5.2425 0 8V15.5C0 16.8783 1.12167 18 2.5 18H17.5C18.8783 18 20 16.8783 20 15.5V8C20 5.2425 17.7575 3 15 3ZM1.66667 15.5V8C1.66667 6.16167 3.16167 4.66667 5 4.66667C6.83833 4.66667 8.33333 6.16167 8.33333 8V15.5C8.33333 15.96 7.95917 16.3333 7.5 16.3333H2.5C2.04083 16.3333 1.66667 15.96 1.66667 15.5ZM18.3333 15.5C18.3333 15.96 17.96 16.3333 17.5 16.3333H9.85667C9.94917 16.0725 10 15.7925 10 15.5V8C10 6.72083 9.51667 5.55167 8.72333 4.66667H15C16.8383 4.66667 18.3333 6.16167 18.3333 8V15.5ZM16.6667 8.83333V10.5C16.6667 10.96 16.2942 11.3333 15.8333 11.3333C15.3725 11.3333 15 10.96 15 10.5V9.66667H12.5C12.0392 9.66667 11.6667 9.29333 11.6667 8.83333C11.6667 8.37333 12.0392 8 12.5 8H15.8333C16.2942 8 16.6667 8.37333 16.6667 8.83333ZM6.66667 8.83333C6.66667 9.29333 6.29333 9.66667 5.83333 9.66667H4.16667C3.70667 9.66667 3.33333 9.29333 3.33333 8.83333C3.33333 8.37333 3.70667 8 4.16667 8H5.83333C6.29333 8 6.66667 8.37333 6.66667 8.83333Z" fill="#CEB7A1"/>

</svg>
