<svg width="319" height="250" viewBox="0 0 319 250" fill="none" xmlns="http://www.w3.org/2000/svg">
<g clip-path="url(#clip0_1847_3036)">
<path fill-rule="evenodd" clip-rule="evenodd" d="M159.853 235.805C196.807 235.805 230.827 236.359 257.83 237.283C323.901 199.528 301.022 125.927 277.303 84.2937C244.288 26.3483 166.295 5.52161 134.019 51.7507C90.2319 114.497 47.9835 92.6038 25.1665 140.249C2.34947 187.914 37.0059 233.589 61.8953 237.262C88.8776 236.359 122.898 235.805 159.853 235.805Z" fill="#F8F8F8"/>
<path fill-rule="evenodd" clip-rule="evenodd" d="M159.851 235.805C247.611 235.805 318.75 238.924 318.75 242.761C318.75 246.598 247.611 249.716 159.851 249.716C72.0921 249.716 0.953125 246.598 0.953125 242.761C0.953125 238.924 72.0921 235.805 159.851 235.805Z" fill="#F2F2F2"/>
<path fill-rule="evenodd" clip-rule="evenodd" d="M211.107 43.676C250.791 52.5197 276.049 89.0228 278.532 106.628C279.538 113.851 277.67 96.9431 257.418 81.5334C239.321 67.7652 225.245 65.2209 203.72 63.5383C188.516 62.3687 172.573 60.5015 173.701 51.4116C174.583 44.2711 185.479 37.9718 211.107 43.676Z" fill="white"/>
<path fill-rule="evenodd" clip-rule="evenodd" d="M148.32 69.1234C147.746 76.9206 146.597 78.0081 139.148 78.6031C146.597 79.1982 147.746 80.2857 148.32 88.0829C148.895 80.2857 150.044 79.1982 157.492 78.6031C150.044 78.0081 148.895 76.9206 148.32 69.1234ZM178.565 89.7038C178.257 93.8692 177.642 94.4437 173.682 94.772C177.662 95.1003 178.278 95.6748 178.565 99.8402C178.873 95.6748 179.489 95.1003 183.449 94.772C179.489 94.4437 178.873 93.8692 178.565 89.7038ZM165.331 57.6328C165.023 61.8597 164.407 62.4342 160.385 62.7625C164.407 63.0908 165.023 63.6654 165.331 67.8923C165.638 63.6654 166.254 63.0908 170.276 62.7625C166.254 62.4342 165.638 61.8597 165.331 57.6328Z" fill="white"/>
<path fill-rule="evenodd" clip-rule="evenodd" d="M137.342 197.112C137.793 203.432 138.737 204.315 144.769 204.787C138.737 205.279 137.813 206.141 137.342 212.461C136.89 206.141 135.946 205.258 129.914 204.787C135.946 204.315 136.89 203.432 137.342 197.112ZM112.842 213.794C113.088 217.18 113.581 217.631 116.802 217.898C113.581 218.165 113.088 218.616 112.842 222.002C112.596 218.616 112.103 218.165 108.882 217.898C112.103 217.631 112.596 217.159 112.842 213.794ZM123.573 187.797C123.82 191.224 124.333 191.695 127.595 191.942C124.333 192.208 123.84 192.68 123.573 196.086C123.327 192.66 122.814 192.188 119.552 191.942C122.814 191.695 123.327 191.224 123.573 187.797Z" fill="white"/>
<path fill-rule="evenodd" clip-rule="evenodd" d="M233.658 181.511C233.31 186.353 232.591 187.03 227.975 187.4C232.591 187.769 233.31 188.446 233.658 193.289C234.007 188.446 234.725 187.769 239.342 187.4C234.725 187.03 234.028 186.353 233.658 181.511ZM252.433 194.294C252.248 196.879 251.859 197.228 249.396 197.433C251.859 197.639 252.248 197.987 252.433 200.573C252.618 197.987 253.008 197.639 255.47 197.433C253.008 197.228 252.618 196.859 252.433 194.294ZM244.205 174.391C244.02 177.017 243.631 177.366 241.127 177.571C243.631 177.776 244 178.125 244.205 180.751C244.39 178.125 244.78 177.776 247.283 177.571C244.78 177.366 244.41 177.017 244.205 174.391Z" fill="white"/>
<path fill-rule="evenodd" clip-rule="evenodd" d="M91.1139 33.8359C84.2195 33.8359 77.5303 37.7345 74.391 43.9312C73.0162 46.6602 72.4006 49.7176 72.6674 52.7544L87.441 223.841C88.2822 233.649 95.7511 241.836 105.887 241.836H215.971C222.886 241.836 229.555 237.917 232.694 231.72C234.069 229.012 234.685 225.934 234.418 222.918L219.644 51.831C218.803 42.023 211.334 33.8359 201.198 33.8359H91.1139Z" fill="#CEB7A1"/>
<path fill-rule="evenodd" clip-rule="evenodd" d="M91.1138 39.1953H201.198C208.4 39.1953 213.673 45.1253 214.309 52.3069L229.083 223.393C229.698 230.575 223.194 236.505 215.971 236.505H105.887C98.6853 236.505 93.3914 230.575 92.7758 223.393L78.0022 52.3069C77.3867 45.1048 83.9117 39.1953 91.1138 39.1953Z" fill="#FEF7F7"/>
<path fill-rule="evenodd" clip-rule="evenodd" d="M118.754 26.9392H126.92C128.254 25.3387 129.157 23.2458 129.588 20.6604C128.316 18.7932 127.413 16.7002 126.982 14.4842C125.484 6.68701 130.593 0.367188 138.391 0.367188C146.188 0.367188 153.718 6.68701 155.195 14.4842C155.77 17.4389 155.38 20.1679 154.272 22.425C155.462 24.2101 156.796 25.708 158.273 26.9392H168.204C173.683 26.9392 179.018 31.4123 180.064 36.8908L180.311 38.2246C181.357 43.7031 177.746 48.1762 172.267 48.1762H122.817C117.338 48.1762 112.003 43.7031 110.957 38.2246L110.711 36.8908C109.644 31.4123 113.275 26.9392 118.754 26.9392ZM139.293 5.08653C136.339 5.08653 134.41 7.48724 134.984 10.4214C135.559 13.3762 138.391 15.7564 141.345 15.7564C144.3 15.7564 146.229 13.3556 145.654 10.4214C145.08 7.48724 142.248 5.08653 139.293 5.08653Z" fill="#CEB7A1"/>
<path fill-rule="evenodd" clip-rule="evenodd" d="M180.474 39.1953C180.946 44.2224 177.437 48.1826 172.287 48.1826H122.836C117.686 48.1826 112.659 44.2224 111.202 39.1953H180.474Z" fill="#CEB7A1"/>
<path fill-rule="evenodd" clip-rule="evenodd" d="M103.713 64.4844H124.499C125.853 64.4844 126.777 65.6129 126.92 66.9672L129.239 89.107C129.382 90.4613 128.069 91.5898 126.715 91.5898H105.95C104.596 91.5898 103.672 90.4613 103.529 89.107L101.19 66.9672C101.046 65.6129 102.359 64.4844 103.713 64.4844Z" fill="#FDFDFD"/>
<path fill-rule="evenodd" clip-rule="evenodd" d="M117.255 75.0391C119.922 75.8599 122.077 78.2606 122.426 81.0717L123.349 88.4174H110.709L109.786 81.0717C109.437 78.2606 110.997 75.8599 113.438 75.0391C112.166 74.362 111.181 73.0898 110.997 71.633C110.73 69.4785 112.248 67.7344 114.403 67.7344C116.557 67.7344 118.527 69.4785 118.814 71.633C119.019 73.0898 118.363 74.362 117.255 75.0391Z" fill="#FBDEE1"/>
<path fill-rule="evenodd" clip-rule="evenodd" d="M132.337 67.6641H200.952L201.65 75.2971H133.014L132.337 67.6641ZM125.689 128.379H206.595L207.313 136.012H126.407L125.689 128.379ZM105.047 113.298H205.2L205.918 120.931H105.745L105.047 113.298ZM122.098 98.2167H203.804L204.522 105.85H123.227L122.098 98.2167ZM133.589 83.6072H202.43L203.127 91.2403H134.266L133.589 83.6072Z" fill="#FBDEE1"/>
<path fill-rule="evenodd" clip-rule="evenodd" d="M105.313 96.625H116.844C117.603 96.625 118.116 97.2406 118.178 97.9998L119.471 110.27C119.553 111.009 118.814 111.645 118.075 111.645H106.544C105.785 111.645 105.272 111.029 105.21 110.27L103.917 97.9998C103.835 97.2406 104.574 96.625 105.313 96.625Z" fill="#FDFDFD"/>
<path fill-rule="evenodd" clip-rule="evenodd" d="M107.713 125.734H119.245C120.004 125.734 120.517 126.35 120.579 127.109L121.871 139.379C121.953 140.118 121.215 140.754 120.476 140.754H108.944C108.185 140.754 107.672 140.139 107.611 139.379L106.318 127.109C106.236 126.35 106.954 125.734 107.713 125.734Z" fill="#FDFDFD"/>
<path fill-rule="evenodd" clip-rule="evenodd" d="M106.974 105.667C106.625 105.236 106.686 104.6 107.117 104.251C107.548 103.902 108.184 103.964 108.533 104.395L110.462 106.754L115.038 99.4291C115.325 98.9572 115.94 98.8135 116.412 99.1008C116.884 99.3881 117.028 100.004 116.741 100.476L111.426 108.97C111.365 109.052 111.303 109.135 111.221 109.217C110.79 109.565 110.154 109.504 109.805 109.073L106.974 105.667Z" fill="#FBDEE1"/>
<path fill-rule="evenodd" clip-rule="evenodd" d="M108.903 135.261C108.555 134.83 108.616 134.194 109.047 133.845C109.478 133.496 110.114 133.558 110.463 133.988L112.392 136.348L116.967 129.023C117.255 128.551 117.87 128.407 118.342 128.695C118.814 128.982 118.958 129.597 118.67 130.069L113.356 138.564C113.294 138.646 113.233 138.728 113.151 138.81C112.72 139.159 112.084 139.098 111.735 138.667L108.903 135.261Z" fill="#FBDEE1"/>
<path fill-rule="evenodd" clip-rule="evenodd" d="M111.549 144.562H132.335C133.689 144.562 134.613 145.691 134.756 147.045L137.075 169.185C137.218 170.539 135.905 171.668 134.551 171.668H113.765C112.411 171.668 111.488 170.539 111.344 169.185L109.025 147.045C108.882 145.671 110.195 144.562 111.549 144.562Z" fill="#FDFDFD"/>
<path fill-rule="evenodd" clip-rule="evenodd" d="M125.093 155.102C127.76 155.922 129.915 158.323 130.263 161.134L131.187 168.48H118.547L117.624 161.134C117.275 158.323 118.834 155.922 121.276 155.102C120.004 154.424 119.019 153.152 118.834 151.695C118.568 149.541 120.086 147.797 122.241 147.797C124.395 147.797 126.365 149.541 126.652 151.695C126.837 153.152 126.201 154.424 125.093 155.102Z" fill="#FBDEE1"/>
<path fill-rule="evenodd" clip-rule="evenodd" d="M140.175 147.742H208.79L209.488 155.375H140.832L140.175 147.742ZM133.527 208.458H214.433L215.151 216.091H134.224L133.527 208.458ZM112.864 193.356H213.017L213.735 200.989H113.582L112.864 193.356ZM129.915 178.274H211.622L212.34 185.907H131.044L129.915 178.274ZM141.427 163.665H210.267L210.965 171.298H142.083L141.427 163.665Z" fill="#FBDEE1"/>
<path fill-rule="evenodd" clip-rule="evenodd" d="M113.151 176.68H124.683C125.442 176.68 125.955 177.295 126.037 178.054L127.33 190.325C127.412 191.063 126.673 191.7 125.934 191.7H114.403C113.644 191.7 113.131 191.084 113.069 190.325L111.776 178.054C111.674 177.316 112.392 176.68 113.151 176.68Z" fill="#FDFDFD"/>
<path fill-rule="evenodd" clip-rule="evenodd" d="M115.532 205.789H127.063C127.822 205.789 128.335 206.405 128.417 207.164L129.71 219.434C129.792 220.173 129.054 220.809 128.315 220.809H116.783C116.024 220.809 115.511 220.193 115.429 219.434L114.136 207.164C114.054 206.425 114.772 205.789 115.532 205.789Z" fill="#FDFDFD"/>
<path fill-rule="evenodd" clip-rule="evenodd" d="M114.793 185.729C114.444 185.298 114.506 184.662 114.937 184.314C115.368 183.965 116.004 184.026 116.352 184.457L118.281 186.817L122.857 179.492C123.144 179.02 123.76 178.876 124.232 179.163C124.704 179.451 124.847 180.066 124.56 180.538L119.246 189.033C119.184 189.115 119.122 189.197 119.04 189.279C118.61 189.628 117.973 189.566 117.625 189.135L114.793 185.729Z" fill="#FBDEE1"/>
<path fill-rule="evenodd" clip-rule="evenodd" d="M116.721 215.307C116.372 214.877 116.433 214.24 116.864 213.892C117.295 213.543 117.931 213.604 118.28 214.035L120.209 216.395L124.785 209.07C125.072 208.598 125.688 208.454 126.159 208.741C126.631 209.029 126.775 209.644 126.488 210.116L121.173 218.611C121.112 218.693 121.05 218.775 120.968 218.857C120.537 219.206 119.901 219.145 119.552 218.714L116.721 215.307Z" fill="#FBDEE1"/>
<path fill-rule="evenodd" clip-rule="evenodd" d="M207.928 120.289H283.458C286.105 120.289 288.26 122.444 288.26 125.09V164.138C288.26 166.785 286.105 168.939 283.458 168.939H207.928C205.281 168.939 203.127 166.785 203.127 164.138V125.09C203.127 122.444 205.281 120.289 207.928 120.289Z" fill="#FDFDFD"/>
<path fill-rule="evenodd" clip-rule="evenodd" d="M207.929 119.977H221.327C221.204 120.161 221.143 120.366 221.143 120.592H207.929C205.466 120.592 203.435 122.624 203.435 125.086V135.407C203.25 135.284 203.045 135.243 202.819 135.243V125.086C202.819 122.275 205.117 119.977 207.929 119.977ZM203.435 145.995V164.113C203.435 166.575 205.466 168.606 207.929 168.606H244.226L244.083 168.688C243.549 168.688 243.508 168.729 243.057 168.955H242.01C241.744 168.955 241.497 169.058 241.313 169.222H207.949C205.138 169.222 202.86 166.924 202.86 164.113V145.995C203.025 146.056 203.23 146.056 203.435 145.995ZM267.269 168.627H283.438C285.9 168.627 287.932 166.595 287.932 164.133V137.028C288.178 136.987 288.383 136.884 288.547 136.72V164.133C288.547 166.944 286.249 169.242 283.459 169.242H267.7C267.639 168.976 267.495 168.771 267.269 168.627ZM287.891 124.45C287.583 122.275 285.695 120.592 283.438 120.592H237.517C237.599 120.407 237.619 120.182 237.578 119.977H283.438C286.023 119.977 288.178 121.926 288.486 124.429C288.322 124.429 288.075 124.409 287.891 124.45Z" fill="#1E77D0"/>
<path fill-rule="evenodd" clip-rule="evenodd" d="M207.928 129.778C207.723 129.778 207.538 129.614 207.538 129.409C207.538 129.203 207.702 129.019 207.907 129.019L283.437 128.711C283.643 128.711 283.827 128.875 283.827 129.08C283.827 129.285 283.663 129.47 283.458 129.47L207.928 129.778Z" fill="#619FDF"/>
<path fill-rule="evenodd" clip-rule="evenodd" d="M233.822 137.833C233.679 137.833 233.576 137.668 233.576 137.463C233.576 137.258 233.679 137.073 233.822 137.073L283.601 136.766C283.745 136.766 283.847 136.93 283.847 137.135C283.847 137.34 283.745 137.525 283.601 137.525L233.822 137.833Z" fill="#619FDF"/>
<path fill-rule="evenodd" clip-rule="evenodd" d="M233.822 145.887C233.679 145.887 233.576 145.723 233.576 145.518C233.576 145.313 233.679 145.128 233.822 145.128L283.601 144.82C283.745 144.82 283.847 144.984 283.847 145.19C283.847 145.395 283.745 145.58 283.601 145.58L233.822 145.887Z" fill="#619FDF"/>
<path fill-rule="evenodd" clip-rule="evenodd" d="M233.822 153.942C233.679 153.942 233.576 153.778 233.576 153.573C233.576 153.367 233.679 153.183 233.822 153.183L283.601 152.875C283.745 152.875 283.847 153.039 283.847 153.244C283.847 153.45 283.745 153.634 283.601 153.634L233.822 153.942Z" fill="#619FDF"/>
<path fill-rule="evenodd" clip-rule="evenodd" d="M233.822 161.973C233.679 161.973 233.576 161.809 233.576 161.604C233.576 161.399 233.679 161.214 233.822 161.214L283.601 160.906C283.745 160.906 283.847 161.07 283.847 161.276C283.847 161.481 283.745 161.665 283.601 161.665L233.822 161.973Z" fill="#619FDF"/>
<path fill-rule="evenodd" clip-rule="evenodd" d="M225.513 137.886C231.299 140.82 233.597 147.899 230.663 153.686C227.729 159.472 220.65 161.77 214.863 158.836C209.077 155.902 206.779 148.823 209.713 143.036C212.647 137.25 219.726 134.931 225.513 137.886Z" fill="#EEF8FB"/>
<path fill-rule="evenodd" clip-rule="evenodd" d="M225.635 137.641C228.59 139.139 230.662 141.703 231.606 144.638C232.55 147.551 232.386 150.855 230.888 153.81C229.39 156.764 226.825 158.837 223.891 159.781C220.977 160.724 217.673 160.56 214.719 159.062C211.764 157.565 209.692 155 208.748 152.066C207.804 149.152 207.968 145.848 209.466 142.894C210.964 139.939 213.529 137.866 216.463 136.923C219.397 135.979 222.68 136.143 225.635 137.641ZM231.113 144.802C230.211 142.011 228.22 139.569 225.409 138.113C222.577 136.676 219.438 136.512 216.648 137.436C213.857 138.338 211.395 140.329 209.958 143.14C208.522 145.971 208.358 149.111 209.281 151.901C210.184 154.692 212.174 157.134 214.986 158.591C217.817 160.027 220.957 160.191 223.747 159.268C226.538 158.365 229 156.374 230.436 153.563C231.852 150.732 232.016 147.592 231.113 144.802Z" fill="#619FDF"/>
<path fill-rule="evenodd" clip-rule="evenodd" d="M216.875 151.128C215.972 149.179 215.849 147.599 216.465 146.922C218.394 148.461 218.517 150.041 216.875 151.128Z" fill="#284190"/>
<path fill-rule="evenodd" clip-rule="evenodd" d="M218.146 154.06V160.195C220.096 160.523 222.066 160.38 223.892 159.784C225.697 159.189 227.359 158.184 228.734 156.789C228.426 154.183 227.852 152.972 225.985 152.726C225.451 152.48 224.754 152.377 223.953 152.008C222.496 153.567 220.219 154.244 218.146 154.06Z" fill="#8AB9E8"/>
<path fill-rule="evenodd" clip-rule="evenodd" d="M217.387 150.671C218.7 139.345 220.875 152.846 223.111 151.779C223.317 151.861 223.522 151.923 223.727 152.025C222.168 153.995 220.095 154.57 217.53 153.729C217.653 153.298 217.695 152.764 217.674 152.128C217.571 151.861 217.469 151.369 217.387 150.671Z" fill="#FFB17D"/>
<path fill-rule="evenodd" clip-rule="evenodd" d="M221.492 153.741C220.507 154.049 219.583 154.172 218.742 154.07V160.307C220.486 160.513 222.251 160.328 223.892 159.794C224.262 159.671 224.611 159.548 224.959 159.384C226.765 148.078 219.481 156.08 221.492 153.741Z" fill="#8AB9E8"/>
<path fill-rule="evenodd" clip-rule="evenodd" d="M221.614 150.674C221.634 149.094 221.45 147.678 222.414 146.468C222.763 144.99 222.065 143.759 222.27 142.076C221.244 141.789 220.301 141.009 219.418 139.758C218.556 140.927 217.531 141.851 216.34 142.507C216.484 143.369 216.443 144.477 216.238 145.831C216.197 146.324 216.669 146.426 216.874 146.939C216.976 147.206 217.018 147.801 217.182 148.047C217.961 149.176 218.597 150.243 215.889 151.823C215.684 151.905 215.479 151.967 215.273 152.069C216.833 154.039 218.905 154.614 221.47 153.772C221.347 153.341 221.306 152.808 221.327 152.172C221.45 151.864 221.532 151.372 221.614 150.674Z" fill="#FFB17D"/>
<path fill-rule="evenodd" clip-rule="evenodd" d="M221.778 147.758C220.465 149.338 219.255 149.728 218.146 148.886C218.742 149.728 219.583 149.953 220.65 149.605C221.122 149.728 221.43 150.241 221.553 151.123C221.573 150.979 221.594 150.815 221.614 150.651C221.635 149.625 221.553 148.661 221.778 147.758Z" fill="#EF8161"/>
<path fill-rule="evenodd" clip-rule="evenodd" d="M225.081 159.332C225.061 158.553 225.102 157.773 225.266 156.891C224.958 157.732 224.814 158.594 224.753 159.476C224.856 159.435 224.979 159.373 225.081 159.332Z" fill="#619FDF"/>
<path fill-rule="evenodd" clip-rule="evenodd" d="M221.101 154.055V160.334C218.967 160.498 216.772 160.087 214.74 159.061C213.099 158.22 211.724 157.071 210.678 155.696C211.027 153.85 211.683 152.947 213.263 152.742C213.612 152.577 213.94 152.536 214.248 152.598C214.576 152.372 214.925 152.188 215.294 152.023C216.649 153.727 219.008 154.301 221.101 154.055Z" fill="#8AB9E8"/>
<path fill-rule="evenodd" clip-rule="evenodd" d="M214.761 159.086C214.761 158.389 214.72 157.691 214.576 156.891C214.863 157.65 215.007 158.43 215.069 159.23C214.966 159.189 214.863 159.127 214.761 159.086Z" fill="#619FDF"/>
<path fill-rule="evenodd" clip-rule="evenodd" d="M215.295 152.368C215.213 152.286 215.234 152.142 215.316 152.06C215.398 151.978 215.542 151.999 215.624 152.081C216.219 152.758 217.101 153.332 218.065 153.661C218.927 153.948 219.851 154.05 220.63 153.804C221.164 153.64 221.636 153.455 222.046 153.25C222.436 153.045 222.764 152.819 223.011 152.594C223.093 152.511 223.236 152.511 223.318 152.594C223.4 152.676 223.4 152.819 223.318 152.901C223.031 153.168 222.682 153.414 222.251 153.64C221.841 153.866 221.328 154.05 220.774 154.235C219.892 154.502 218.886 154.42 217.942 154.091C216.896 153.722 215.932 153.086 215.295 152.368Z" fill="#619FDF"/>
<path fill-rule="evenodd" clip-rule="evenodd" d="M215.295 153.657C215.213 153.575 215.234 153.473 215.316 153.411C215.398 153.35 215.542 153.35 215.624 153.432C216.219 153.965 217.101 154.437 218.065 154.683C218.927 154.909 219.851 154.991 220.63 154.806C221.164 154.683 221.636 154.519 222.046 154.355C222.436 154.191 222.764 154.027 223.011 153.821C223.093 153.76 223.236 153.76 223.318 153.821C223.4 153.883 223.4 154.006 223.318 154.068C223.031 154.273 222.682 154.478 222.251 154.663C221.841 154.827 221.328 154.991 220.774 155.135C219.892 155.34 218.886 155.278 217.942 155.012C216.896 154.724 215.932 154.232 215.295 153.657Z" fill="#619FDF"/>
<path fill-rule="evenodd" clip-rule="evenodd" d="M219.274 139.429C219.766 139.388 220.033 139.531 220.095 139.86C219.746 140.475 219.274 140.845 218.658 140.988C218.925 140.742 219.13 140.229 219.274 139.429Z" fill="#284190"/>
<path fill-rule="evenodd" clip-rule="evenodd" d="M224.221 144.762C222.6 143.654 221.43 142.69 220.692 141.91C218.27 142.402 216.896 141.848 216.588 140.227C216.752 138.381 217.963 137.662 220.199 138.073C223.195 138.422 224.529 140.638 224.221 144.762Z" fill="#284190"/>
<path fill-rule="evenodd" clip-rule="evenodd" d="M216.587 144.39C216.916 143.2 216.998 142.236 217.593 141.764C217.47 137.742 215.602 139.384 215.028 141.99C214.494 144.411 214.125 148.104 214.351 152.844C214.884 152.721 215.52 152.454 216.259 152.023C218.434 150.731 216.279 145.519 216.587 144.39Z" fill="#284190"/>
<path fill-rule="evenodd" clip-rule="evenodd" d="M221.49 141.457C221.88 139.282 222.064 139.611 222.988 140.821C224.588 140.288 225.45 152.538 223.685 153.769C223.583 153.83 223.46 153.625 223.295 153.523C220.279 151.348 221.756 148.208 222.208 146.936C222.31 146.669 222.331 145.684 222.331 144.494C222.331 143.202 221.9 141.847 221.49 141.457Z" fill="#284190"/>
<path fill-rule="evenodd" clip-rule="evenodd" d="M217.572 139.668C217.305 140.078 217.018 140.201 216.731 140.037C216.464 139.381 216.464 138.785 216.751 138.211C216.751 138.58 217.018 139.052 217.572 139.668Z" fill="#284190"/>
<path fill-rule="evenodd" clip-rule="evenodd" d="M216.463 139.702C216.709 139.702 216.853 139.599 216.853 139.414C216.627 139.107 216.361 138.942 216.032 138.922C216.196 139.045 216.34 139.291 216.463 139.702Z" fill="#284190"/>
<path fill-rule="evenodd" clip-rule="evenodd" d="M227.296 153.186C227.317 153.125 226.64 152.632 226.599 152.489C225.039 147.708 223.357 145.779 222.454 144.609C221.059 149.431 221.182 151.996 222.803 152.263C223.193 152.222 223.952 152.407 226.701 153.022C226.804 153.063 227.235 153.309 227.296 153.186Z" fill="#284190"/>
<path fill-rule="evenodd" clip-rule="evenodd" d="M221.471 141.843C221.184 141.72 220.999 141.741 220.876 141.925C220.958 142.377 221.163 142.705 221.512 142.91C221.389 142.726 221.389 142.377 221.471 141.843Z" fill="#284190"/>
<path fill-rule="evenodd" clip-rule="evenodd" d="M219.767 155.438C220.157 155.438 220.465 155.745 220.465 156.135C220.465 156.525 220.157 156.833 219.767 156.833C219.377 156.833 219.069 156.525 219.069 156.135C219.069 155.745 219.377 155.438 219.767 155.438Z" fill="#619FDF"/>
<path fill-rule="evenodd" clip-rule="evenodd" d="M219.767 155.852C219.911 155.852 220.034 155.975 220.034 156.118C220.034 156.262 219.911 156.385 219.767 156.385C219.623 156.385 219.5 156.262 219.5 156.118C219.48 155.975 219.603 155.852 219.767 155.852Z" fill="#619FDF"/>
<path fill-rule="evenodd" clip-rule="evenodd" d="M219.767 156.891C219.911 156.891 220.034 157.014 220.034 157.157C220.034 157.301 219.911 157.424 219.767 157.424C219.623 157.424 219.5 157.301 219.5 157.157C219.48 157.014 219.603 156.891 219.767 156.891Z" fill="#619FDF"/>
<path d="M208.217 157.562H188.765V166.18H208.217V157.562Z" fill="#619FDF"/>
<path fill-rule="evenodd" clip-rule="evenodd" d="M208.194 157.289H188.742H188.476V157.556V166.174V166.44H188.742H208.194H208.461V166.174V157.556V157.289H208.194ZM189.03 157.823H207.928V165.886H189.03V157.823Z" fill="#1E77D0"/>
<path fill-rule="evenodd" clip-rule="evenodd" d="M187.287 157.562V166.18L182.383 161.543L187.287 157.562Z" fill="#619FDF"/>
<path fill-rule="evenodd" clip-rule="evenodd" d="M187.019 158.133V165.541L182.792 161.54L187.019 158.133ZM187.553 166.177V157.559V156.984L187.101 157.354L182.197 161.334L181.951 161.54L182.177 161.745L187.081 166.382L187.532 166.813V166.177H187.553Z" fill="#1E77D0"/>
<path fill-rule="evenodd" clip-rule="evenodd" d="M13.0592 36.4688H88.5893C91.2362 36.4688 93.3907 38.6232 93.3907 41.2702V80.3176C93.3907 82.9646 91.2362 85.1191 88.5893 85.1191H13.0592C10.4123 85.1191 8.25781 82.9646 8.25781 80.3176V41.2702C8.27833 38.6232 10.4328 36.4688 13.0592 36.4688Z" fill="#FDFDFD"/>
<path fill-rule="evenodd" clip-rule="evenodd" d="M13.0594 36.1641H26.4582C26.3351 36.3487 26.2736 36.5539 26.2736 36.7796H13.0594C10.5971 36.7796 8.56576 38.811 8.56576 41.2733V51.5943C8.38109 51.4712 8.1759 51.4301 7.9502 51.4301V41.2733C7.97071 38.4622 10.2688 36.1641 13.0594 36.1641ZM8.56576 62.2025V80.3207C8.56576 82.783 10.5971 84.8144 13.0594 84.8144H49.3573L49.2137 84.8964C48.6802 84.8964 48.6392 84.9375 48.1877 85.1632H47.1413C46.8745 85.1632 46.6283 85.2658 46.4436 85.4299H13.0594C10.2483 85.4299 7.97072 83.1318 7.97072 80.3412V62.2231C8.15539 62.2436 8.38109 62.2436 8.56576 62.2025ZM72.4206 84.8144H88.5895C91.0517 84.8144 93.0831 82.783 93.0831 80.3207V53.2153C93.3293 53.1742 93.5345 53.0716 93.6986 52.9075V80.3207C93.6986 83.1318 91.4005 85.4094 88.61 85.4094H72.8515C72.7899 85.1632 72.6257 84.958 72.4206 84.8144ZM93.042 40.6372C92.7343 38.4622 90.8465 36.7796 88.5895 36.7796H42.6682C42.7502 36.595 42.7708 36.3693 42.7297 36.1641H88.5895C91.1748 36.1641 93.3293 38.1134 93.6371 40.6167C93.4524 40.6167 93.2267 40.5961 93.042 40.6372Z" fill="#1E77D0"/>
<path fill-rule="evenodd" clip-rule="evenodd" d="M13.0598 45.9732C12.8546 45.9732 12.6699 45.8091 12.6699 45.6039C12.6699 45.3987 12.8341 45.214 13.0393 45.214L88.5693 44.9062C88.7745 44.9062 88.9592 45.0704 88.9592 45.2756C88.9592 45.4808 88.795 45.6654 88.5898 45.6654L13.0598 45.9732Z" fill="#619FDF"/>
<path fill-rule="evenodd" clip-rule="evenodd" d="M38.9533 54.0201C38.8096 54.0201 38.707 53.856 38.707 53.6508C38.707 53.4456 38.8096 53.2609 38.9533 53.2609L88.7116 52.9531C88.8552 52.9531 88.9578 53.1173 88.9578 53.3225C88.9578 53.5277 88.8552 53.7123 88.7116 53.7123L38.9533 54.0201Z" fill="#619FDF"/>
<path fill-rule="evenodd" clip-rule="evenodd" d="M38.9533 62.0826C38.8096 62.0826 38.707 61.9184 38.707 61.7133C38.707 61.5081 38.8096 61.3234 38.9533 61.3234L88.7116 61.0156C88.8552 61.0156 88.9578 61.1798 88.9578 61.385C88.9578 61.5902 88.8552 61.7748 88.7116 61.7748L38.9533 62.0826Z" fill="#619FDF"/>
<path fill-rule="evenodd" clip-rule="evenodd" d="M38.9533 70.1217C38.8096 70.1217 38.707 69.9575 38.707 69.7523C38.707 69.5471 38.8096 69.3625 38.9533 69.3625L88.7116 69.0547C88.8552 69.0547 88.9578 69.2188 88.9578 69.424C88.9578 69.6292 88.8552 69.8139 88.7116 69.8139L38.9533 70.1217Z" fill="#619FDF"/>
<path fill-rule="evenodd" clip-rule="evenodd" d="M38.9533 78.1685C38.8096 78.1685 38.707 78.0044 38.707 77.7992C38.707 77.594 38.8096 77.4093 38.9533 77.4093L88.7116 77.1016C88.8552 77.1016 88.9578 77.2657 88.9578 77.4709C88.9578 77.6761 88.8552 77.8608 88.7116 77.8608L38.9533 78.1685Z" fill="#619FDF"/>
<path d="M100.161 73.7344H80.709V82.3523H100.161V73.7344Z" fill="#619FDF"/>
<path fill-rule="evenodd" clip-rule="evenodd" d="M80.7101 73.4609H100.162H100.429V73.7277V82.3456V82.6124H100.162H80.7101H80.4434V82.3456V73.7277V73.4609H80.7101ZM99.8748 73.9944H80.9768V82.0584H99.8748V73.9944Z" fill="#1E77D0"/>
<path fill-rule="evenodd" clip-rule="evenodd" d="M101.619 73.7344V82.3523L106.523 77.715L101.619 73.7344Z" fill="#619FDF"/>
<path fill-rule="evenodd" clip-rule="evenodd" d="M101.907 74.3053V81.7126L106.133 77.7114L101.907 74.3053ZM101.353 82.3487V73.7308V73.1562L101.804 73.5256L106.708 77.5063L106.954 77.6909L106.728 77.8961L101.824 82.5334L101.373 82.9643V82.3487H101.353Z" fill="#1E77D0"/>
<path fill-rule="evenodd" clip-rule="evenodd" d="M49.8918 100.358C49.8918 100.358 48.3119 110.72 48.0246 114.783C47.881 116.834 47.6758 118.455 48.948 119.83C48.948 119.83 45.747 120.138 44.6595 119.256C44.6595 119.256 44.8647 119.687 45.0699 119.892C45.0699 119.892 41.4996 120.015 40.0223 118.907C37.7857 117.388 39.2631 87.2667 50.015 89.729C50.015 89.729 59.9256 88.8877 59.1459 98.6137C59.31 110.166 60.2334 120.138 61.0131 122.149C59.9051 122.785 57.1966 120.692 56.8683 119.769C56.581 118.948 56.4169 118.004 56.3348 117.758C56.3348 117.758 56.6836 120.548 56.8477 120.713C56.8477 120.713 52.8466 120.261 51.123 118.968C49.4199 117.696 49.3994 102.369 49.8918 100.358Z" fill="#284190"/>
<path fill-rule="evenodd" clip-rule="evenodd" d="M45.8295 107.858C45.8705 107.735 45.891 107.632 45.9115 107.509C45.6037 106.504 45.5012 105.355 45.6448 104.083C44.6804 103.221 42.5875 103.96 40.8023 104.493C40.0226 111.634 40.0431 118.856 40.474 119.39C41.3769 120.498 43.5313 120.375 43.5313 120.375C43.4082 120.19 43.2851 119.739 43.2851 119.739C43.9417 120.621 45.8705 120.313 45.8705 120.313C45.0908 118.938 45.2139 117.297 45.3165 115.265C45.378 113.542 45.6038 110.608 45.8295 107.858Z" fill="#284190"/>
<path fill-rule="evenodd" clip-rule="evenodd" d="M78.4333 211.963L77.2432 211.758L78.4333 211.963Z" fill="#636466"/>
<path fill-rule="evenodd" clip-rule="evenodd" d="M60.1512 120.597H38.8115C40.3299 116.78 42.5254 114.01 44.1875 113.661C45.0698 113.435 46.5677 109.783 46.5471 104.633L46.9575 105.146L53.6672 106.48C53.6672 106.48 53.5236 108.593 53.5031 110.583C53.5031 112.245 53.5851 113.928 53.9545 114.113C54.4264 114.154 54.8778 114.236 54.8778 114.236C54.8778 114.236 58.5097 116.801 60.1512 120.597Z" fill="#FFB17D"/>
<path fill-rule="evenodd" clip-rule="evenodd" d="M53.6462 106.477C53.6462 106.477 53.5026 108.591 53.482 110.581C49.7271 110.478 47.7573 107.052 46.9365 105.164L53.6462 106.477Z" fill="#EF8161"/>
<path fill-rule="evenodd" clip-rule="evenodd" d="M46.0332 102.979C46.0332 97.459 44.8842 93.7451 50.5474 93.4168C56.2106 93.0885 57.3186 95.2019 57.7701 97.0486C58.0573 98.1977 58.0573 102.63 57.2571 105.564C55.2667 112.705 46.0332 106.569 46.0332 102.979Z" fill="#FFB17D"/>
<path fill-rule="evenodd" clip-rule="evenodd" d="M41.0059 226.766L43.4681 237.21L47.2026 237.189L47.3257 226.766H41.0059Z" fill="#FFB17D"/>
<path fill-rule="evenodd" clip-rule="evenodd" d="M72.2578 227.187L79.3163 237.2L82.0658 233.671L77.8184 225.812L72.2578 227.187Z" fill="#FFB17D"/>
<path fill-rule="evenodd" clip-rule="evenodd" d="M80.936 230.919L77.3042 231.022L73.3646 231.145C73.3646 231.145 64.2747 221.029 59.186 204.799C59.0629 204.43 58.9398 204.04 58.8167 203.65C56.0261 195.524 50.2398 185.306 47.203 176.052C46.7105 174.575 46.2796 173.2 45.8898 171.887C45.7667 171.456 45.6436 171.045 45.5204 170.655C43.2839 162.858 42.6273 157.729 42.0322 152.25L64.049 152.435C64.0285 152.435 67.5782 189.82 80.936 230.919Z" fill="#4567C5"/>
<path fill-rule="evenodd" clip-rule="evenodd" d="M60.9503 139.8C60.8888 150.264 62.4892 154.758 62.4892 154.758C62.4892 154.758 53.0711 159.539 41.8678 156.03C41.7446 155.989 33.5986 154.122 33.5986 154.122C33.7833 153.691 34.4399 146.407 34.6246 146.017C36.9843 140.949 38.7899 138.712 39.0567 137.153C39.5696 134.239 39.5901 131.223 39.3234 128.371C38.6463 120.84 37.0458 116.059 37.0458 116.059C40.1031 115.362 42.5244 112.674 45.7048 111.484C46.4435 112.386 48.6595 113.351 50.6088 113.31C52.8454 113.269 53.5635 112.304 53.4404 111.258C55.8206 112.571 57.7083 113.823 57.7083 113.823C59.7192 117.331 63.823 120.738 64.1308 126.134C64.2128 127.468 60.9503 139.512 60.9503 139.8Z" fill="#DEECF9"/>
<path fill-rule="evenodd" clip-rule="evenodd" d="M45.1729 112.011C46.3835 112.729 47.512 113.242 48.538 113.55C49.7896 113.94 50.8976 114.043 51.8005 113.858C52.7648 113.653 53.524 113.16 54.0165 112.339C54.1601 112.093 54.2832 111.827 54.3653 111.539L53.483 111.273C53.4214 111.498 53.3189 111.703 53.2163 111.868C52.8674 112.442 52.3339 112.811 51.6363 112.955C50.8771 113.099 49.9127 113.017 48.8252 112.668C47.8608 112.381 46.7938 111.888 45.6653 111.211L45.1729 112.011Z" fill="#4F8DCB"/>
<path fill-rule="evenodd" clip-rule="evenodd" d="M43.3449 236.609C43.3449 236.609 43.6527 238.682 42.873 240.898C42.873 240.898 42.2574 243.668 44.9864 243.729C47.7154 243.77 48.3926 243.524 48.0848 241.821C47.777 240.118 47.1819 237.184 47.1819 237.184L43.3449 236.609Z" fill="#FFB17D"/>
<path fill-rule="evenodd" clip-rule="evenodd" d="M48.4562 245.363C46.712 248.646 44.2498 248.4 42.4852 245.363C42.2389 244.132 42.7724 241.505 42.875 241.013C42.875 240.972 42.8955 240.951 42.8955 240.931C42.8955 240.91 42.8955 240.91 42.8955 240.91C45.9939 243.742 47.9227 240.828 47.9227 240.828C47.9227 240.828 47.9227 240.828 47.9227 240.849C48.3741 241.957 48.4562 244.932 48.4562 245.363Z" fill="#284190"/>
<path fill-rule="evenodd" clip-rule="evenodd" d="M88.6511 242.082C88.6511 242.082 83.6239 236.501 82.085 233.648L78.3506 235.557L86.7223 243.415L88.6716 243.169L88.6511 242.082Z" fill="#FFB17D"/>
<path fill-rule="evenodd" clip-rule="evenodd" d="M91.8326 245.366C91.8326 245.366 85.5948 245.366 85.5127 245.366C84.5894 245.366 83.8302 243.827 82.8248 241.816C82.4144 240.995 81.491 240.544 80.5472 240.297L80.5677 245.366H79.1108L77.7566 239.99C76.8743 238.348 77.695 236.871 78.3106 235.578C79.0493 235.578 80.9986 236.071 84.7125 240.256C85.9436 241.631 87.2774 242.124 88.6316 242.083C88.6521 242.103 88.6726 242.103 88.6932 242.103C91.7915 243.519 91.8326 245.366 91.8326 245.366Z" fill="#284190"/>
<path fill-rule="evenodd" clip-rule="evenodd" d="M77.3053 231.048L73.3656 231.171C73.3656 231.171 64.2758 221.055 59.1871 204.824C59.064 204.455 58.9408 204.065 58.8177 203.675C56.0272 195.55 50.2408 185.331 47.204 176.077C46.7116 174.6 46.2807 173.225 45.8908 171.912C45.7677 171.481 45.6446 171.071 45.5215 170.681L48.7635 168.219C48.7635 168.219 58.4894 183.977 61.5057 198.812C64.1116 211.678 74.5968 227.19 77.3053 231.048Z" fill="#3B5BB2"/>
<path fill-rule="evenodd" clip-rule="evenodd" d="M49.0909 200.181C49.1525 207.383 48.7831 223.962 47.8392 230.836H44.351C42.4223 230.836 41.4579 230.815 41.4579 230.815C39.0982 218.873 37.4156 209.004 36.205 200.488C35.1996 193.512 34.3173 187.521 33.6402 182.37C32.9425 177.179 32.4706 172.849 32.3064 169.177C32.2859 168.602 32.2654 168.028 32.2449 167.494C32.2244 166.94 32.2244 166.407 32.2449 165.894L51.2659 164.047C51.0197 176.666 49.0704 195.995 49.0909 200.181Z" fill="#4567C5"/>
<path fill-rule="evenodd" clip-rule="evenodd" d="M44.3717 230.839C42.443 230.839 41.4786 230.818 41.4786 230.818C39.1189 218.876 37.4364 209.007 36.2257 200.492C35.2203 193.515 34.338 187.524 33.6609 182.373C32.9632 177.182 32.4913 172.853 32.3271 169.18L39.3036 173.283C39.3036 173.283 34.851 174.863 36.554 186.744C38.2366 198.624 41.9915 229.156 44.3717 230.839Z" fill="#3B5BB2"/>
<path fill-rule="evenodd" clip-rule="evenodd" d="M45.254 169.061C45.254 169.061 43.9203 173.904 39.283 173.288C34.6458 172.673 30.5625 170.867 30.5625 170.867C30.5625 170.867 30.7472 164.527 32.5118 155.416C35.5281 145.465 36.2462 131.471 37.9698 123.386C38.4623 121.109 41.7453 120.391 41.8684 119.016L45.7054 111.547C45.7054 111.547 51.4302 124.412 51.738 127.654C52.0663 130.896 45.254 169.061 45.254 169.061Z" fill="#619FDF"/>
<path fill-rule="evenodd" clip-rule="evenodd" d="M42.012 137.188C41.8068 142.441 39.9601 151.407 32.5938 155.347C32.5733 155.368 32.5322 155.368 32.5117 155.388C35.487 145.436 35.4459 135.875 37.19 127.79C41.1502 126.969 42.1351 134.315 42.012 137.188Z" fill="#4F8DCB"/>
<path fill-rule="evenodd" clip-rule="evenodd" d="M70.3695 138.338C69.323 138.584 68.5228 138.728 68.215 138.666C66.9428 138.379 65.1167 124.549 64.1318 119.83C62.8596 113.736 58.0376 112.505 58.0376 112.505L53.4414 111.273C53.4414 111.273 58.6942 124.241 58.8584 126.868C59.0225 129.494 59.474 169.814 59.474 169.814C59.474 169.814 59.1662 171.661 62.7159 170.901C66.2657 170.122 67.1891 169.362 67.1891 169.362C67.1891 169.362 65.6501 158.098 64.932 148.084C66.1221 147.879 68.1534 147.12 70.3695 146.176V138.338Z" fill="#619FDF"/>
<path fill-rule="evenodd" clip-rule="evenodd" d="M55.083 94.1794C59.8024 96.9494 58.3045 98.8166 59.5356 101.34C59.5356 101.34 60.9514 96.4775 58.7354 93.81C56.3757 90.9784 55.083 94.1794 55.083 94.1794Z" fill="#284190"/>
<path fill-rule="evenodd" clip-rule="evenodd" d="M55.5946 93.0739C55.5946 93.0739 53.7273 100.379 48.6797 102.697C48.6797 102.697 53.7273 98.2242 54.1582 93.4022C54.5891 88.6008 55.5946 93.0739 55.5946 93.0739Z" fill="#284190"/>
<path fill-rule="evenodd" clip-rule="evenodd" d="M57.4216 93.1462C56.806 92.8589 56.3546 92.9205 56.1289 93.3309C56.2931 94.3158 56.7445 95.0544 57.5242 95.5264C57.2574 95.0955 57.2369 94.3158 57.4216 93.1462Z" fill="#284190"/>
<path fill-rule="evenodd" clip-rule="evenodd" d="M50.4249 91.2455C51.2457 91.0198 51.615 90.6094 51.4919 90.0144C50.548 89.2141 49.5221 88.9063 48.4141 89.091C49.0091 89.2757 49.6657 89.9938 50.4249 91.2455Z" fill="#284190"/>
<path fill-rule="evenodd" clip-rule="evenodd" d="M55.1444 92.2965C55.1444 92.2965 52.5385 99.2729 48.5373 100.299C44.5361 101.325 42.792 100.258 42.792 100.258C42.792 100.258 45.8698 97.8161 46.5059 93.5481C46.4854 93.5481 53.1745 88.9724 55.1444 92.2965Z" fill="#284190" stroke="#284190" stroke-width="0.216" stroke-miterlimit="2.613"/>
<path fill-rule="evenodd" clip-rule="evenodd" d="M45.4385 99.8243C46.3823 98.8599 47.2236 98.6752 47.9418 99.2703C48.3316 101.179 47.9828 102.841 46.9158 104.236C47.08 103.251 46.5875 101.794 45.4385 99.8243Z" fill="#284190"/>
<path fill-rule="evenodd" clip-rule="evenodd" d="M57.7295 96.5942C58.2425 94.686 58.776 94.132 59.33 94.9117C59.8019 98.0305 59.7609 100.903 59.2274 103.571C59.2274 101.909 58.7349 99.59 57.7295 96.5942Z" fill="#284190"/>
<path fill-rule="evenodd" clip-rule="evenodd" d="M53.3178 94.6521C52.6407 92.8054 54.59 92.908 55.4928 93.2363C57.6678 95.5139 59.2888 97.9146 60.3558 100.397C58.6733 98.9816 53.1332 96.2936 53.3178 94.6521Z" fill="#284190"/>
<path fill-rule="evenodd" clip-rule="evenodd" d="M50.5889 91.0658C50.2606 90.8401 50.1375 90.4297 50.1785 89.8347C50.5479 89.0344 50.9582 88.7266 51.3686 88.9113C51.1429 89.096 50.8762 89.8141 50.5889 91.0658Z" fill="#284190"/>
<path fill-rule="evenodd" clip-rule="evenodd" d="M51.4503 113.688C51.9633 113.606 52.4763 114.139 52.5994 114.878C52.7225 115.617 52.4147 116.294 51.9017 116.376C51.3888 116.458 50.8758 115.925 50.7527 115.186C50.6296 114.447 50.9373 113.77 51.4503 113.688Z" fill="#4F8DCB"/>
<path fill-rule="evenodd" clip-rule="evenodd" d="M52.0252 115.976C52.333 115.915 52.6613 116.243 52.7434 116.715C52.8255 117.166 52.6408 117.577 52.3125 117.638C52.0047 117.7 51.6764 117.371 51.5943 116.9C51.5123 116.448 51.7175 116.017 52.0252 115.976Z" fill="#4F8DCB"/>
<path fill-rule="evenodd" clip-rule="evenodd" d="M52.3324 117.402C52.5991 117.361 52.8864 117.649 52.9479 118.038C53.0095 118.449 52.8453 118.798 52.5786 118.859C52.3119 118.9 52.0246 118.613 51.963 118.223C51.881 117.813 52.0656 117.443 52.3324 117.402Z" fill="#4F8DCB"/>
<path fill-rule="evenodd" clip-rule="evenodd" d="M32.4309 128.285C33.8672 120.755 36.3295 116.528 39.8177 115.625C38.6686 133.476 37.7863 143.674 38.6071 144.085C47.5533 138.483 51.9238 135.323 51.9238 135.323C53.3396 134.502 54.7555 134.79 55.925 135.487C59.4132 136.739 61.1779 137.375 61.1779 137.375C61.5267 138.257 59.7621 137.806 56.8073 137.108C56.5406 138.524 54.1604 140.022 52.7856 138.893C49.5642 141.007 36.8219 154.857 33.1696 150.979C31.8769 149.604 31.9795 147.142 31.8769 142.997C31.7743 139.201 31.5486 134.277 32.4309 128.285Z" fill="#FFB17D"/>
<path fill-rule="evenodd" clip-rule="evenodd" d="M45.5208 111.586C45.5208 111.586 38.3391 113.597 36.9849 115.628C36.513 116.305 34.8099 117.967 33.7429 120.963C31.6705 126.811 30.9934 135.285 31.3832 137.481C31.8141 145.114 30.9113 150.736 34.1122 151.721C37.8672 152.89 48.496 143.554 52.6613 139.512C52.9691 139.204 52.5587 137.932 52.5382 137.522C52.5382 137.522 52.3741 134.259 50.9788 135.347C48.9269 136.947 42.5455 139.923 39.0163 143.206C37.5799 144.539 39.4061 136.352 39.5292 136.106C39.7755 135.573 44.187 122.912 45.4182 124.513C46.4441 125.888 45.5208 111.586 45.5208 111.586Z" fill="#619FDF"/>
<path fill-rule="evenodd" clip-rule="evenodd" d="M37.6827 150.921C36.2463 151.66 34.9947 151.988 34.1124 151.722C33.9072 151.66 33.702 151.578 33.5379 151.475C33.4558 151.414 33.3532 151.373 33.2916 151.311C33.2711 151.414 33.4558 151.537 33.5173 151.599C34.3996 152.296 35.2204 152.953 36.7593 152.296C40.227 150.819 45.9313 146.058 49.2143 142.734C45.8081 145.833 40.9246 149.259 37.6827 150.921Z" fill="#4F8DCB"/>
<path fill-rule="evenodd" clip-rule="evenodd" d="M63.3527 129.664H64.6249L88.8782 129.808C90.1299 129.808 90.3761 130.095 91.5046 130.587L75.1716 153.774L50.3232 154.225C49.4409 153.466 48.6612 153.281 49.7897 151.209L61.2803 131.593C61.7728 130.731 62.5935 129.685 63.3527 129.664Z" fill="#4567C5"/>
<path fill-rule="evenodd" clip-rule="evenodd" d="M69.6501 130.343L90.4973 130.467C91.1539 130.467 92.0772 130.241 91.1744 131.677L77.8782 153.017C77.4678 153.694 77.4473 153.755 76.2777 153.776L50.3418 154.248L62.8994 132.826C64.7666 129.666 65.2385 130.323 69.6501 130.343Z" fill="#A3CFFB"/>
<path fill-rule="evenodd" clip-rule="evenodd" d="M80.6898 145.971C79.4586 150.075 79.7664 149.972 80.0126 149.828C83.0699 148.023 83.6445 146.381 83.152 143.611C83.0905 143.55 83.0289 143.509 82.9879 143.467C81.7978 142.401 81.6336 141.682 80.7718 142.975C80.1152 143.939 80.0126 145.047 80.6898 145.971Z" fill="#FFB17D"/>
<path fill-rule="evenodd" clip-rule="evenodd" d="M278.983 199.616L277.424 201.339L277.711 199.739L279.004 198.836L278.983 199.616Z" fill="#8AB9E8"/>
<path fill-rule="evenodd" clip-rule="evenodd" d="M279.27 211.756L277.731 213.48L278.019 211.879L279.311 210.977L279.27 211.756Z" fill="#8AB9E8"/>
<path fill-rule="evenodd" clip-rule="evenodd" d="M293.08 203.574C293.08 208.273 289.263 212.09 284.565 212.09H278.983L293.08 203.492V203.574Z" fill="#8AB9E8"/>
<path fill-rule="evenodd" clip-rule="evenodd" d="M287.499 203.492H293.08L278.983 212.09V212.008C278.983 207.288 282.8 203.492 287.499 203.492Z" fill="#C2DEF9"/>
<path fill-rule="evenodd" clip-rule="evenodd" d="M291.602 191.973C291.602 196.2 288.175 199.606 283.969 199.606H278.962L291.602 191.891V191.973Z" fill="#8AB9E8"/>
<path fill-rule="evenodd" clip-rule="evenodd" d="M286.616 191.891H291.623L278.983 199.606V199.524C278.983 195.317 282.39 191.891 286.616 191.891Z" fill="#C2DEF9"/>
<path d="M277.506 190.297H276.768V220.829H277.506V190.297Z" fill="#C2DEF9"/>
<path d="M278.246 190.297H277.508V220.829H278.246V190.297Z" fill="#8AB9E8"/>
<path fill-rule="evenodd" clip-rule="evenodd" d="M277.507 240.419H267.617L263.246 220.352H277.507V240.419Z" fill="#A3CFFB"/>
<path fill-rule="evenodd" clip-rule="evenodd" d="M277.508 240.419H287.377L291.768 220.352H277.508V240.419Z" fill="#C2DEF9"/>
<path fill-rule="evenodd" clip-rule="evenodd" d="M262.856 217.719H277.507V220.345H262.856C262.261 220.345 261.769 219.812 261.769 219.176V218.888C261.769 218.232 262.261 217.719 262.856 217.719Z" fill="#8AB9E8"/>
<path fill-rule="evenodd" clip-rule="evenodd" d="M292.158 217.719H277.508V220.345H292.158C292.753 220.345 293.246 219.812 293.246 219.176V218.888C293.225 218.232 292.753 217.719 292.158 217.719Z" fill="#8AB9E8"/>
<path fill-rule="evenodd" clip-rule="evenodd" d="M277.506 242.199H269.196C268.334 242.199 267.637 241.399 267.637 240.435V240.414H277.506V242.199Z" fill="#8AB9E8"/>
<path fill-rule="evenodd" clip-rule="evenodd" d="M277.508 242.199H285.818C286.68 242.199 287.377 241.399 287.377 240.435V240.414H277.508V242.199Z" fill="#8AB9E8"/>
<path fill-rule="evenodd" clip-rule="evenodd" d="M275.866 199.616L277.426 201.339L277.138 199.739L275.846 198.836L275.866 199.616Z" fill="#8AB9E8"/>
<path fill-rule="evenodd" clip-rule="evenodd" d="M275.578 211.756L277.117 213.48L276.83 211.879L275.537 210.977L275.578 211.756Z" fill="#8AB9E8"/>
<path fill-rule="evenodd" clip-rule="evenodd" d="M261.769 203.574C261.769 208.273 265.585 212.09 270.284 212.09H275.865L261.769 203.492V203.574Z" fill="#8AB9E8"/>
<path fill-rule="evenodd" clip-rule="evenodd" d="M267.35 203.492H261.769L275.865 212.09V212.008C275.865 207.288 272.049 203.492 267.35 203.492Z" fill="#C2DEF9"/>
<path fill-rule="evenodd" clip-rule="evenodd" d="M263.246 191.973C263.246 196.2 266.673 199.606 270.879 199.606H275.886L263.246 191.891V191.973Z" fill="#8AB9E8"/>
<path fill-rule="evenodd" clip-rule="evenodd" d="M268.232 191.891H263.226L275.865 199.606V199.524C275.865 195.317 272.459 191.891 268.232 191.891Z" fill="#C2DEF9"/>
<path fill-rule="evenodd" clip-rule="evenodd" d="M272.007 178.525C269.463 181.891 270.099 186.671 273.464 189.236L277.445 192.273L272.069 178.484L272.007 178.525Z" fill="#C2DEF9"/>
<path fill-rule="evenodd" clip-rule="evenodd" d="M276.029 181.49L272.049 178.453L277.425 192.242L277.466 192.18C280.031 188.836 279.374 184.034 276.029 181.49Z" fill="#8AB9E8"/>
<path fill-rule="evenodd" clip-rule="evenodd" d="M29.6382 55.3984C35.4655 58.3531 37.7637 65.4732 34.8089 71.3005C31.8542 77.1279 24.7342 79.426 18.9068 76.4713C13.0794 73.5166 10.7813 66.3965 13.736 60.5692C16.6908 54.7418 23.8108 52.4231 29.6382 55.3984Z" fill="#EEF8FB"/>
<path fill-rule="evenodd" clip-rule="evenodd" d="M29.7621 55.1436C32.7373 56.662 34.8097 59.2269 35.7741 62.1816C36.7385 65.1158 36.5743 68.4399 35.0559 71.4151C33.5375 74.3903 30.9727 76.4628 28.018 77.4272C25.0838 78.3915 21.7597 78.2274 18.7845 76.709C15.8092 75.1906 13.7368 72.6257 12.7724 69.671C11.808 66.7368 11.9722 63.4127 13.4906 60.458C15.009 57.4828 17.5738 55.4104 20.5286 54.446C23.4833 53.4611 26.7868 53.6252 29.7621 55.1436ZM35.2611 62.3458C34.3378 59.5347 32.368 57.0724 29.5158 55.6156C26.6637 54.1587 23.5038 54.0151 20.6927 54.9179C17.8816 55.8413 15.4194 57.8111 13.9625 60.6632C12.5057 63.5153 12.362 66.6753 13.2649 69.4863C14.1882 72.2974 16.158 74.7597 19.0102 76.2165C21.8623 77.6734 25.0222 77.817 27.8333 76.9142C30.6444 75.9908 33.1066 74.021 34.5635 71.1689C36.0203 68.3168 36.1845 65.1569 35.2611 62.3458Z" fill="#619FDF"/>
<path fill-rule="evenodd" clip-rule="evenodd" d="M22.9505 62.2161L23.0326 61.1696C22.8684 61.026 22.7658 60.9234 22.6838 60.7797C22.458 60.3899 22.2939 60.2668 22.1913 60.4514C22.1297 60.4925 22.1092 60.6156 22.1503 60.7797C22.2118 61.067 22.3965 61.4979 22.4375 61.7441C22.4991 61.9493 22.7658 62.6469 22.9505 62.2161Z" fill="#FFB17D"/>
<path fill-rule="evenodd" clip-rule="evenodd" d="M28.4275 67.0645L26.8886 67.003L21.6357 66.6336L19.8506 66.6131C21.5126 66.7568 22.99 65.2794 23.1541 64.8075C23.2978 64.4176 23.3388 63.7405 23.2567 63.3506L24.7341 63.4532L26.2114 63.2891C26.0063 65.0537 26.8475 66.3669 28.4275 67.0645Z" fill="#FFB17D"/>
<path fill-rule="evenodd" clip-rule="evenodd" d="M22.8262 65.0742C22.9493 65.0127 23.0929 64.9306 23.1545 64.7869C23.2981 64.3971 23.3391 63.6789 23.2571 63.2891L24.7549 63.4532L26.2323 63.2891C26.2323 63.3096 26.2118 63.5148 26.2118 63.5763C26.2118 63.6379 26.2118 63.6994 26.2118 63.72C26.1502 63.802 26.1297 63.8226 26.0476 63.8841C25.9656 63.9457 25.8835 64.0277 25.8219 64.1098C25.6988 64.2535 25.5962 64.4792 25.4731 64.5818C25.2269 64.7869 24.8575 64.9101 24.4266 65.0127C23.8932 65.1358 23.1955 65.1973 22.8262 65.0742Z" fill="#F27960"/>
<path fill-rule="evenodd" clip-rule="evenodd" d="M24.7554 64.3396H24.7349C24.4271 64.3396 24.263 64.3396 24.0783 64.2575C23.9141 64.1959 23.8321 64.0318 23.6064 63.8061C23.4012 63.6214 23.1344 63.2726 23.0523 63.0674C22.9292 62.7801 22.9087 62.6365 22.8472 62.1851C22.7856 61.8363 22.6214 61.5285 22.6009 61.1797C22.5804 60.8103 22.642 60.4205 22.6214 60.0101C22.6009 59.5997 22.6009 59.2509 22.642 58.9636C22.7035 58.6764 22.8061 58.4301 23.0523 58.2044C23.1755 58.0813 23.3396 57.9787 23.5038 57.8966C23.5243 57.8966 23.5243 57.8966 23.5448 57.8761H23.5653C23.5653 57.8761 23.5858 57.8761 23.5858 57.8556C23.5858 57.8556 23.6064 57.8556 23.6064 57.8351C23.6064 57.8351 23.6269 57.8351 23.6269 57.8146H23.6474C23.6679 57.8146 23.6679 57.8146 23.6884 57.794H23.709C23.7295 57.794 23.75 57.7735 23.7705 57.7735C24.2014 57.6094 24.6939 57.5683 25.1658 57.6504C25.6377 57.712 26.0686 57.8966 26.3969 58.1839C26.6432 58.3891 26.7457 58.6353 26.8073 58.9226C26.8483 59.2099 26.8483 59.5587 26.8278 59.969C26.8073 60.3999 26.8689 60.7693 26.8483 61.1386C26.8278 61.4874 26.6637 61.7952 26.6021 62.1441C26.5406 62.575 26.3969 62.7801 26.2943 63.0674C26.2123 63.2726 26.0481 63.5599 25.8429 63.7445C25.6172 63.9702 25.5351 64.1344 25.371 64.1959C25.2068 64.3396 25.0632 64.3396 24.7554 64.3396Z" fill="#FFB17D"/>
<path fill-rule="evenodd" clip-rule="evenodd" d="M23.1547 64.1875C23.0521 64.5363 22.929 64.8441 22.7853 65.1724C22.0261 65.4597 21.1643 65.9521 20.6103 66.0752C18.4558 66.5472 18.1275 67.3679 18.0455 69.3788C17.6761 71.287 17.3889 73.1337 17.1016 75.0625L17.0605 75.3087C17.6146 75.7396 18.2301 76.1295 18.8867 76.4578C19.2561 76.6425 19.6049 76.8066 19.9742 76.9502C19.9537 76.7245 19.9332 76.4783 19.8922 76.2526C20.2205 73.5441 20.6514 73.5441 20.9591 70.138L22.7853 70.8356L25.6374 71.9642L28.6948 75.0625L28.5511 76.8887L28.5716 76.9502C29.5771 76.5604 30.5209 76.0269 31.3827 75.3703C31.2596 73.4005 30.6646 71.4512 30.6235 69.6866C30.7261 67.8193 30.3363 67.0601 28.9205 66.7318C28.2844 66.4446 27.5662 66.2189 26.7455 65.788L26.3966 64.8031C26.0273 65.7264 25.9042 65.788 25.2681 66.5266C23.9139 65.5417 23.2367 64.8441 23.1547 64.1875Z" fill="#8AB9E8"/>
<path fill-rule="evenodd" clip-rule="evenodd" d="M20.5902 69.0078L20.4876 69.3156C20.4876 70.5467 20.6723 71.7779 20.5697 73.0295C20.4261 74.8147 20.4671 76.0663 20.5492 77.1333C23.2782 78.0361 26.1508 77.913 28.6952 76.8871C28.7978 76.333 28.9004 75.697 28.9824 74.9583C29.1876 72.8859 29.3107 71.388 28.6541 69.5413L26.0072 69.3772L20.5902 69.0078Z" fill="#8AB9E8"/>
<path fill-rule="evenodd" clip-rule="evenodd" d="M29.146 76.6845C29.0844 75.9869 29.0434 75.2277 29.0229 74.3659C29.187 72.5807 29.2281 71.206 28.6535 69.5234H28.4689C29.1049 71.3496 28.7151 72.827 28.5099 74.8584C28.5099 74.9199 28.3457 75.7612 28.2637 77.0333C28.5509 76.9308 28.8382 76.8282 29.146 76.6845Z" fill="#619FDF"/>
<path fill-rule="evenodd" clip-rule="evenodd" d="M20.7543 69.0391L20.8569 70.2086C20.8363 71.4398 20.6106 71.7681 20.508 73.0197C20.3849 74.5381 20.3439 76.0155 20.3644 77.0825C20.5696 77.144 20.7543 77.2261 20.9595 77.2671C20.9389 76.2002 21.0621 75.0306 21.1852 74.3329C21.3288 73.4917 21.3493 72.7735 21.3698 72.0964C21.3904 71.2756 21.3288 70.0445 20.7543 69.0391Z" fill="#619FDF"/>
<path fill-rule="evenodd" clip-rule="evenodd" d="M23.1553 64.2344C22.9296 64.7268 22.6628 65.1782 22.4987 65.3424C22.4576 65.6297 22.909 66.5325 23.8324 67.4969C23.2373 66.553 22.6423 65.8349 22.7244 65.404C22.8064 65.2193 23.0527 64.7474 23.2373 64.4601L23.1553 64.2344Z" fill="#619FDF"/>
<path fill-rule="evenodd" clip-rule="evenodd" d="M23.8125 67.5153C24.2229 67.0228 24.4075 66.7151 24.9205 66.3047L25.4335 66.3457C25.8644 66.633 26.0491 66.7971 26.3568 67.8026L25.8028 67.2691L25.1667 66.8997L24.8384 66.9408L24.4896 67.1254C24.2639 67.228 24.0177 67.3717 23.8125 67.5153Z" fill="#619FDF"/>
<path fill-rule="evenodd" clip-rule="evenodd" d="M24.9192 66.294C24.6935 66.4581 24.6115 66.5812 24.3857 66.8275C24.5294 67.0942 24.673 67.2173 24.8577 67.443V67.7508C24.8782 70.4183 24.6525 73.5371 24.5704 76.2046L25.6374 77.4357L26.335 76.061C26.3966 73.7013 25.9657 70.131 25.6374 67.5251C25.7195 67.3404 25.8221 67.0121 25.9657 66.889C25.7605 66.5812 25.6374 66.4581 25.4117 66.2734C25.4117 66.294 24.9603 66.2734 24.9192 66.294Z" fill="#4F8DCB"/>
<path fill-rule="evenodd" clip-rule="evenodd" d="M25.4325 58.9404C24.7554 58.8788 22.8266 58.5095 23.1549 59.597L22.9908 59.4329C22.9087 59.8432 22.8677 59.9664 22.8882 60.3767L22.683 60.2126C22.7035 60.9307 22.7856 61.0949 22.8061 61.772C22.4983 61.2385 22.642 60.6024 22.3137 60.3562C22.2521 59.5149 22.1495 59.556 22.3137 58.7147L22.129 58.7352C22.1906 58.5916 22.2932 58.5095 22.3752 58.3864C22.2726 58.4069 22.0469 58.6326 21.9443 58.7557C22.1085 58.0171 22.8472 57.2784 23.7705 56.9501C24.858 56.5397 25.884 56.5397 26.5406 57.1553C26.6226 57.3399 26.6637 57.3399 26.6021 57.463C26.7663 57.463 26.8278 57.3605 26.9715 57.3399C26.9099 57.3605 26.8278 57.5656 26.7458 57.5862C27.1151 57.9555 27.0946 58.0786 27.1767 58.7147C27.1151 58.4274 27.0741 58.3864 26.9304 58.1402C27.0125 58.4069 27.1561 58.7557 27.1767 58.9609C27.2177 59.2687 27.1151 59.5149 27.0946 59.7612C26.992 60.8487 27.0741 60.7461 26.6432 61.9772C26.6842 61.6284 26.6637 61.3206 26.6432 60.9923C26.6432 60.623 26.6432 60.2536 26.6021 59.8227C26.438 58.3043 26.1302 59.1866 25.4325 58.9404Z" fill="#284190"/>
<path fill-rule="evenodd" clip-rule="evenodd" d="M23.1348 62.2161L23.0527 61.1696C23.2169 61.026 23.3195 60.9234 23.4016 60.7797C23.6273 60.3899 23.7914 60.2668 23.894 60.4514C23.9556 60.4925 23.9761 60.6156 23.935 60.7797C23.8735 61.067 23.6888 61.4979 23.6478 61.7441C23.6067 61.9493 23.34 62.6469 23.1348 62.2161Z" fill="#FFB17D"/>
<path fill-rule="evenodd" clip-rule="evenodd" d="M26.5614 62.1067C26.4999 60.6498 26.664 61.9015 26.7256 60.6704C26.8692 60.2805 26.9718 60.1574 27.0539 60.3421C27.0949 60.3831 27.0949 60.5062 27.0744 60.6704C27.0334 60.9576 26.9103 61.3885 26.8897 61.6348C26.8692 61.8399 26.7051 62.5376 26.5614 62.1067Z" fill="#FFB17D"/>
<path fill-rule="evenodd" clip-rule="evenodd" d="M21.8018 70.6172C22.2327 70.6787 22.6225 70.7198 22.9508 70.7198C23.2791 70.7198 23.5664 70.6993 23.7921 70.6377L23.8742 70.9455C23.6074 71.007 23.2997 71.0481 22.9508 71.0481C22.602 71.0481 22.2122 71.007 21.7607 70.9455L21.8018 70.6172Z" fill="#4F8DCB"/>
</g>
<defs>
<clipPath id="clip0_1847_3036">
<rect width="318.856" height="250" fill="white"/>
</clipPath>
</defs>
</svg>
