<svg width="222" height="200" viewBox="0 0 222 200" fill="none" xmlns="http://www.w3.org/2000/svg">
<g clip-path="url(#clip0_467_5601)">
<path d="M213.827 91.0935H175.532L182.4 63.1953H220.694L213.827 91.0935Z" fill="white"/>
<path d="M210.502 93.9607H172.207L179.074 66.0625H217.368L210.502 93.9607Z" fill="#ED5A67"/>
<path d="M213.827 91.4472H175.532C175.424 91.4472 175.322 91.3978 175.255 91.312C175.188 91.2272 175.164 91.1158 175.19 91.0112L182.056 63.112C182.095 62.9552 182.236 62.8438 182.398 62.8438H220.692C220.801 62.8438 220.902 62.8931 220.969 62.9789C221.037 63.0637 221.06 63.1751 221.035 63.2797L214.167 91.1789C214.131 91.3367 213.988 91.4472 213.827 91.4472ZM175.982 90.7429H213.551L220.245 63.548H182.675L175.982 90.7429Z" fill="black"/>
<path d="M180.837 87.1016L178.665 95.9239L190.742 89.0939" fill="#ED5A67"/>
<path d="M178.665 96.276C178.59 96.276 178.515 96.2523 178.452 96.205C178.34 96.1201 178.289 95.9771 178.323 95.84L180.494 87.0177C180.541 86.8293 180.732 86.7139 180.921 86.7602C181.109 86.8066 181.224 86.9969 181.178 87.1863L179.201 95.2167L190.568 88.788C190.737 88.6924 190.952 88.7516 191.048 88.9212C191.143 89.0908 191.084 89.3049 190.915 89.4005L178.837 96.2306C178.784 96.2612 178.724 96.276 178.665 96.276Z" fill="black"/>
<path d="M192.033 82.2316C191.989 82.2316 191.945 82.2276 191.901 82.2187C191.698 82.1803 191.523 82.054 191.421 81.8745L189.354 78.2371C189.162 77.8988 189.28 77.4697 189.618 77.2774C189.957 77.0851 190.387 77.2034 190.578 77.5417L192.236 80.4592L203.633 71.2729C203.935 71.0293 204.379 71.0766 204.624 71.3794C204.867 71.6822 204.82 72.125 204.517 72.3696L192.475 82.0757C192.348 82.1773 192.192 82.2316 192.033 82.2316Z" fill="white"/>
<path d="M190.135 170.54H9.9107C9.7164 170.54 9.55859 170.382 9.55859 170.188C9.55859 169.994 9.7164 169.836 9.9107 169.836H190.135C190.329 169.836 190.487 169.994 190.487 170.188C190.487 170.382 190.33 170.54 190.135 170.54Z" fill="black"/>
<path d="M73.3617 86.8284L74.921 94.2404L92.834 88.2004L90.9916 80.3633C89.3485 76.3994 72.0144 82.0341 73.3617 86.8284Z" fill="#ED5A67"/>
<path d="M74.9218 94.5905C74.8616 94.5905 74.8005 94.5747 74.7472 94.5441C74.6595 94.4938 74.5983 94.409 74.5776 94.3113L73.0202 86.9102C72.2421 84.0884 76.7918 81.4146 80.9293 79.9805C85.2601 78.4794 90.3602 77.9162 91.3179 80.2271C91.3248 80.2449 91.3307 80.2626 91.3357 80.2814L93.178 88.1184C93.2195 88.295 93.1199 88.4745 92.9473 88.5327L75.0342 94.5727C74.9978 94.5845 74.9593 94.5905 74.9218 94.5905ZM87.6055 79.3819C85.8726 79.3819 83.5854 79.805 81.1601 80.6453C77.135 82.0399 73.0844 84.5392 73.7008 86.7307C73.7028 86.7386 73.7047 86.7455 73.7067 86.7534L75.1851 93.7777L92.4196 87.9675L90.6571 80.4717C90.3336 79.7438 89.2063 79.3819 87.6055 79.3819Z" fill="black"/>
<path d="M126.829 104.033L98.9699 108.91L93.2781 85.1866C92.7021 80.0431 73.0995 86.7667 73.6755 91.9102C73.6755 91.9102 78.5685 123.734 85.8296 130.708C93.0916 137.682 127.682 128.648 127.682 128.648L126.829 104.033Z" fill="white"/>
<path d="M97.0002 133.706C91.9563 133.706 87.6916 132.98 85.5859 130.958C78.3218 123.982 73.5275 93.264 73.3273 91.9602C73.1803 90.6494 74.1331 89.2055 76.081 87.7704C80.3358 84.635 88.9373 81.9493 92.2414 83.3932C93.0521 83.7473 93.5294 84.345 93.6241 85.1212L99.2342 108.502L126.766 103.682C126.867 103.664 126.97 103.691 127.049 103.755C127.127 103.819 127.175 103.915 127.179 104.017L128.033 128.632C128.039 128.797 127.929 128.943 127.77 128.986C126.76 129.249 109.494 133.706 97.0002 133.706ZM89.8545 83.698C86.1747 83.698 80.0725 85.7031 76.4992 88.3365C74.7653 89.6148 73.9102 90.8348 74.0256 91.8674C74.0719 92.1702 78.9807 123.639 86.0741 130.451C92.7779 136.889 124.057 129.2 127.321 128.374L126.49 104.447L99.031 109.254C98.8495 109.286 98.671 109.17 98.6276 108.989L92.9357 85.2662C92.9327 85.2524 92.9298 85.2376 92.9278 85.2228C92.8676 84.6843 92.5511 84.2977 91.9603 84.0393C91.4296 83.8055 90.7067 83.698 89.8545 83.698Z" fill="black"/>
<path d="M126.135 104.166C140.581 101.161 172.344 104.025 175.997 114.985C178.52 122.552 162.465 164.537 160.224 170.129H103.213C105.603 167.31 110.453 150.654 111.614 147.661C114.177 141.054 115.606 127.341 117.293 117.402" fill="white"/>
<path d="M160.224 170.48H103.213C103.076 170.48 102.951 170.4 102.893 170.276C102.835 170.152 102.856 170.005 102.944 169.9C104.655 167.882 107.807 158.132 109.691 152.306C110.408 150.087 110.974 148.336 111.285 147.532C113.137 142.757 114.388 134.274 115.599 126.07C116.055 122.972 116.487 120.046 116.946 117.341C116.978 117.149 117.162 117.02 117.352 117.053C117.543 117.085 117.673 117.267 117.64 117.459C117.181 120.157 116.75 123.08 116.295 126.174C115.079 134.416 113.822 142.939 111.942 147.787C111.639 148.572 111.074 150.315 110.36 152.523C108.485 158.321 105.723 166.865 103.895 169.776H159.986C163.81 160.185 177.972 122.021 175.663 115.095C172.102 104.412 140.719 101.491 126.207 104.509C126.015 104.548 125.83 104.426 125.791 104.236C125.751 104.045 125.874 103.859 126.064 103.82C133.563 102.26 145.26 102.328 155.172 103.99C162.108 105.153 174.079 108.112 176.331 114.872C179.073 123.095 160.738 169.793 160.552 170.259C160.497 170.393 160.368 170.48 160.224 170.48Z" fill="black"/>
<path d="M126.153 170.479C126.144 170.479 126.133 170.479 126.123 170.478C125.929 170.462 125.785 170.291 125.803 170.097C127.584 149.772 140.637 110.61 140.769 110.217C140.83 110.033 141.032 109.933 141.215 109.995C141.399 110.057 141.499 110.256 141.437 110.441C141.306 110.833 128.279 149.917 126.505 170.158C126.488 170.341 126.334 170.479 126.153 170.479Z" fill="black"/>
<path d="M141.103 110.328C141.103 110.328 144.525 114.44 146.525 116.889C146.525 116.889 160.425 106.343 164.368 106.542L158.229 104.922L141.103 110.328Z" fill="#ED5A67"/>
<path d="M146.523 117.241C146.421 117.241 146.32 117.196 146.25 117.111C144.275 114.692 140.864 110.594 140.83 110.554C140.755 110.464 140.729 110.342 140.763 110.229C140.796 110.117 140.883 110.028 140.994 109.992L158.121 104.587C158.184 104.567 158.253 104.565 158.317 104.582L164.455 106.202C164.63 106.248 164.741 106.418 164.714 106.597C164.686 106.775 164.533 106.903 164.348 106.895C164.314 106.893 164.279 106.892 164.242 106.892C160.329 106.892 146.871 117.065 146.735 117.169C146.672 117.217 146.598 117.241 146.523 117.241ZM141.706 110.506C142.579 111.557 144.965 114.429 146.582 116.404C148.365 115.067 157.923 107.998 162.736 106.477L158.237 105.29L141.706 110.506Z" fill="black"/>
<path d="M134.839 139.003L126.451 147.032C126.451 147.032 112.132 137.324 111.152 132.657C110.49 129.485 112.483 129.862 112.483 129.862C111.522 126.405 115.018 127.127 115.018 127.127C114.282 125.937 114.497 124.001 116.197 124.036C117.866 124.064 122.269 128.879 122.463 129.09C122.315 128.801 118.89 121.983 121.126 121.48C123.41 120.962 130.651 131.016 130.651 131.016C130.651 131.016 132.352 127.098 135.217 128.481C138.081 129.872 134.839 139.003 134.839 139.003Z" fill="white"/>
<path d="M126.451 147.382C126.382 147.382 126.314 147.363 126.254 147.322C125.664 146.923 111.806 137.48 110.81 132.727C110.534 131.41 110.661 130.472 111.184 129.939C111.456 129.663 111.778 129.553 112.041 129.514C111.862 128.581 112.003 127.861 112.462 127.369C113.003 126.79 113.85 126.696 114.437 126.712C114.18 125.97 114.211 125.149 114.55 124.558C114.881 123.978 115.471 123.667 116.207 123.682C117.41 123.702 119.676 125.737 121.266 127.328C120.518 125.546 119.65 123.002 120.201 121.823C120.371 121.46 120.665 121.221 121.049 121.134C123.266 120.631 128.831 127.93 130.601 130.343C130.998 129.646 131.823 128.458 133.03 128.01C133.79 127.727 134.576 127.779 135.37 128.161C138.432 129.647 135.515 138.153 135.172 139.117C135.154 139.168 135.124 139.216 135.083 139.253L126.695 147.283C126.628 147.35 126.54 147.382 126.451 147.382ZM112.293 130.197C112.14 130.197 111.88 130.232 111.681 130.436C111.445 130.681 111.221 131.253 111.498 132.582C112.37 136.738 124.562 145.298 126.415 146.577L134.536 138.805C135.418 136.288 137.158 129.813 135.063 128.797C134.442 128.497 133.858 128.454 133.277 128.669C131.841 129.202 130.983 131.135 130.975 131.154C130.925 131.27 130.816 131.35 130.69 131.363C130.562 131.377 130.441 131.322 130.367 131.219C127.62 127.405 122.702 121.483 121.205 121.821C121.031 121.86 120.918 121.952 120.839 122.12C120.235 123.413 122.083 127.573 122.778 128.927C122.859 129.084 122.811 129.276 122.666 129.377C122.522 129.477 122.325 129.455 122.205 129.325C120.03 126.954 117.225 124.402 116.193 124.385C115.702 124.374 115.363 124.551 115.161 124.906C114.855 125.441 114.921 126.296 115.319 126.938C115.393 127.058 115.388 127.21 115.308 127.325C115.228 127.44 115.086 127.497 114.949 127.469C114.935 127.466 113.581 127.201 112.975 127.852C112.625 128.227 112.575 128.871 112.824 129.765C112.856 129.883 112.826 130.008 112.744 130.098C112.661 130.187 112.539 130.228 112.419 130.205C112.414 130.205 112.366 130.197 112.293 130.197Z" fill="black"/>
<path d="M119.31 132.237C119.214 132.237 119.118 132.198 119.049 132.121L114.758 127.353C114.628 127.208 114.64 126.986 114.784 126.856C114.928 126.726 115.151 126.738 115.281 126.883L119.572 131.65C119.702 131.795 119.69 132.017 119.546 132.147C119.479 132.207 119.394 132.237 119.31 132.237Z" fill="black"/>
<path d="M116.926 134.891C116.834 134.891 116.74 134.855 116.671 134.782L112.233 130.103C112.099 129.962 112.104 129.739 112.245 129.605C112.387 129.471 112.609 129.476 112.744 129.618L117.182 134.297C117.316 134.438 117.31 134.66 117.169 134.795C117.101 134.859 117.014 134.891 116.926 134.891Z" fill="black"/>
<path d="M124.805 147.361L129.61 153.712L142.812 142.717L137.12 135.883C134.095 132.838 121.823 144.347 124.805 147.361Z" fill="#ED5A67"/>
<path d="M129.61 154.059C129.596 154.059 129.584 154.058 129.57 154.058C129.474 154.047 129.387 153.997 129.329 153.92L124.538 147.587C122.857 145.848 125.314 142.202 127.937 139.601C131.286 136.281 135.603 133.852 137.369 135.632L143.082 142.488C143.142 142.56 143.171 142.653 143.162 142.746C143.153 142.838 143.109 142.924 143.037 142.984L129.835 153.98C129.772 154.031 129.692 154.059 129.61 154.059ZM135.739 135.705C133.923 135.705 130.883 137.672 128.434 140.101C125.368 143.139 123.979 146.021 125.056 147.109C125.066 147.12 125.076 147.132 125.086 147.145L129.668 153.201L142.316 142.668L136.849 136.104C136.576 135.83 136.197 135.705 135.739 135.705Z" fill="black"/>
<path d="M170.74 109.258C170.74 109.258 182.757 115.861 183.33 131.057C183.714 141.233 176.618 177.021 159.712 180.881C146.016 184.009 127.532 152.612 127.532 152.612C125.123 149.834 139.922 135.866 142.33 138.644L156.346 156.94L164.347 130.439" fill="white"/>
<path d="M157.721 181.448C144.349 181.45 128.152 154.349 127.243 152.81C125.602 150.817 130.626 145.187 134.196 142.093C135.75 140.747 140.945 136.504 142.596 138.407L156.207 156.173L164.009 130.329C164.065 130.143 164.262 130.037 164.448 130.095C164.634 130.151 164.74 130.347 164.683 130.534L156.682 157.034C156.643 157.16 156.538 157.255 156.409 157.279C156.278 157.302 156.146 157.251 156.066 157.147L142.05 138.851C141.692 138.439 140.744 138.579 139.395 139.261C138.065 139.935 136.382 141.128 134.658 142.623C130 146.66 126.794 151.217 127.797 152.374C127.811 152.39 127.824 152.407 127.835 152.426C128.009 152.723 144.666 180.739 157.734 180.741C158.377 180.741 159.011 180.673 159.635 180.531C168.667 178.468 174.43 167.255 177.675 158.211C181.625 147.201 183.155 135.707 182.979 131.062C182.421 116.253 170.69 109.624 170.572 109.559C170.401 109.465 170.34 109.251 170.434 109.081C170.527 108.91 170.742 108.849 170.911 108.942C171.033 109.009 183.11 115.817 183.684 131.036C183.891 136.524 182.088 147.997 178.338 158.448C175.034 167.657 169.135 179.083 159.793 181.216C159.111 181.374 158.419 181.448 157.721 181.448Z" fill="black"/>
<path d="M88.0234 174.547C88.0234 174.547 90.5621 179.983 91.1381 189.41C89.7977 197.133 33.8218 204.188 17.2807 191.951C17.2807 191.951 16.9503 182.751 20.0502 175.618L88.0234 174.547Z" fill="black"/>
<path d="M49.1804 198.923C39.6489 198.923 24.7579 197.921 17.0717 192.235C16.9859 192.17 16.9336 192.071 16.9297 191.964C16.9267 191.872 16.6318 182.602 19.7278 175.479C19.783 175.352 19.9073 175.269 20.0454 175.266L88.0195 174.195C88.1546 174.193 88.2848 174.273 88.344 174.399C88.3696 174.454 90.9172 180.005 91.4912 189.39C91.4932 189.418 91.4912 189.444 91.4863 189.472C91.2407 190.886 89.4694 192.263 86.2215 193.565C78.8016 196.538 64.8259 198.684 51.4469 198.905C50.7318 198.916 49.9743 198.923 49.1804 198.923ZM17.6289 191.77C31.2713 201.637 71.7408 198.606 85.9582 192.91C88.847 191.753 90.5572 190.504 90.7841 189.389C90.2761 181.179 88.2483 175.977 87.7946 174.903L20.284 175.968C17.5698 182.386 17.6043 190.502 17.6289 191.77Z" fill="black"/>
<path d="M54.2653 185.242C73.0806 184.647 88.1967 179.839 88.0279 174.504C87.8591 169.169 72.4694 165.327 53.6541 165.922C34.8388 166.517 19.7228 171.325 19.8915 176.66C20.0603 181.995 35.45 185.837 54.2653 185.242Z" fill="white"/>
<path d="M50.5229 185.657C36.7622 185.657 24.9 183.227 20.9746 179.482C20.0347 178.586 19.5494 177.626 19.5336 176.631C19.4409 171.017 34.4858 166.158 53.7845 165.571C69.0346 165.106 82.67 167.623 86.9338 171.692C87.8737 172.588 88.359 173.548 88.3747 174.543C88.4674 180.157 73.4226 185.015 54.1238 185.603C52.9127 185.64 51.7094 185.657 50.5229 185.657ZM57.4279 166.219C56.2335 166.219 55.0253 166.236 53.8052 166.274C35.5263 166.831 20.154 171.568 20.2369 176.618C20.2497 177.418 20.6619 178.21 21.4599 178.972C25.5983 182.921 39.0217 185.358 54.1021 184.899C72.381 184.342 87.7534 179.605 87.6705 174.554C87.6577 173.754 87.2454 172.962 86.4475 172.199C82.6434 168.571 70.9963 166.219 57.4279 166.219Z" fill="black"/>
<path d="M53.821 171.147C68.3529 171.147 80.1333 168.256 80.1333 164.691C80.1333 161.125 68.3529 158.234 53.821 158.234C39.2892 158.234 27.5088 161.125 27.5088 164.691C27.5088 168.256 39.2892 171.147 53.821 171.147Z" fill="white"/>
<path d="M53.8216 171.5C40.7148 171.5 27.1572 168.953 27.1572 164.691C27.1572 160.429 40.7148 157.883 53.8216 157.883C66.9284 157.883 80.4859 160.429 80.4859 164.691C80.4859 168.952 66.9284 171.5 53.8216 171.5ZM53.8216 158.586C38.2934 158.586 27.8614 161.742 27.8614 164.691C27.8614 167.639 38.2924 170.796 53.8216 170.796C69.3507 170.796 79.7817 167.64 79.7817 164.691C79.7817 161.742 69.3507 158.586 53.8216 158.586Z" fill="black"/>
<path d="M27.5098 172.986C27.5098 176.552 39.29 179.442 53.822 179.442C68.354 179.442 80.1343 176.552 80.1343 172.986V164.688C80.1343 168.253 68.354 171.144 53.822 171.144C39.29 171.144 27.5098 168.253 27.5098 164.688V172.986Z" fill="black"/>
<path d="M53.8216 179.795C40.7148 179.795 27.1572 177.248 27.1572 172.987V164.688C27.1572 164.494 27.315 164.336 27.5093 164.336C27.7036 164.336 27.8614 164.494 27.8614 164.688C27.8614 167.636 38.2924 170.793 53.8216 170.793C69.3507 170.793 79.7817 167.637 79.7817 164.688C79.7817 164.494 79.9395 164.336 80.1338 164.336C80.3281 164.336 80.4859 164.494 80.4859 164.688V172.987C80.4859 177.247 66.9284 179.795 53.8216 179.795ZM27.8624 166.314V172.986C27.8624 175.934 38.2934 179.091 53.8226 179.091C69.3517 179.091 79.7827 175.935 79.7827 172.986V166.314C76.8426 169.589 65.1639 171.496 53.8226 171.496C42.4812 171.496 30.8026 169.59 27.8624 166.314Z" fill="black"/>
<path d="M158.229 104.927L141.102 110.333L135.961 103.368C135.961 103.368 141.165 101.018 140.81 91.6606C146.866 93.6421 156.482 90.2266 156.482 90.2266C156.482 90.2266 153.39 102.131 158.229 104.927Z" fill="white"/>
<path d="M141.102 110.684C140.992 110.684 140.886 110.633 140.818 110.541L135.678 103.576C135.615 103.49 135.594 103.381 135.621 103.278C135.647 103.176 135.719 103.09 135.816 103.046C135.865 103.024 140.799 100.654 140.458 91.6735C140.454 91.5581 140.506 91.4486 140.599 91.3796C140.69 91.3105 140.811 91.2908 140.92 91.3263C146.797 93.2486 156.27 89.9287 156.364 89.8952C156.488 89.8518 156.624 89.8794 156.72 89.9672C156.816 90.055 156.856 90.1891 156.823 90.3154C156.792 90.4318 153.853 101.993 158.406 104.623C158.527 104.693 158.595 104.827 158.58 104.966C158.565 105.105 158.468 105.221 158.336 105.264L141.209 110.669C141.173 110.679 141.137 110.684 141.102 110.684ZM136.484 103.482L141.236 109.921L157.443 104.806C153.81 101.773 155.443 93.1805 155.991 90.7622C153.824 91.4605 146.443 93.5938 141.175 92.138C141.317 99.8785 137.691 102.745 136.484 103.482Z" fill="black"/>
<path d="M149.647 93.6703C144.865 93.837 137.202 93.9909 134.451 89.8376C131.694 85.6745 131.434 77.4892 133.1 69.447C133.1 69.447 133.1 69.4431 133.104 69.4362C135.048 60.0309 142.429 50.6 148.856 50.8486C164.649 51.461 159.329 73.4563 159.329 73.4563C159.329 73.4563 162.938 71.8013 163.502 75.2188C164.215 79.523 157.641 85.8915 157.641 85.8915L156.353 90.9748" fill="white"/>
<path d="M146.521 94.0912C142.103 94.0912 136.482 93.5428 134.156 90.0316C131.487 86.0006 130.95 78.0856 132.754 69.3757H132.755C132.757 69.3678 132.758 69.3589 132.761 69.351C134.627 60.3472 141.747 50.4922 148.594 50.4922C148.685 50.4922 148.776 50.4942 148.868 50.4971C152.696 50.646 155.639 52.0456 157.613 54.6573C161.986 60.4409 160.342 70.3087 159.808 72.9116C160.485 72.7143 161.587 72.5269 162.495 73.0102C163.22 73.3958 163.675 74.1198 163.847 75.1623C164.549 79.4004 158.715 85.323 157.955 86.0746L156.691 91.0623C156.643 91.2506 156.45 91.3641 156.263 91.3167C156.075 91.2694 155.96 91.077 156.008 90.8887L157.296 85.8053C157.312 85.7422 157.345 85.684 157.392 85.6386C157.458 85.5765 163.826 79.3491 163.152 75.2767C163.018 74.463 162.687 73.9097 162.166 73.6325C161.086 73.0556 159.489 73.7696 159.473 73.7765C159.35 73.8328 159.207 73.813 159.104 73.7272C159 73.6414 158.954 73.5043 158.985 73.3731C159.014 73.2538 161.811 61.3739 157.051 55.0804C155.21 52.6453 152.447 51.3404 148.84 51.2003C148.765 51.1974 148.69 51.1964 148.614 51.1964C142.731 51.1964 135.413 59.9892 133.446 69.5079C133.444 69.5177 133.441 69.5276 133.439 69.5365C131.703 77.9337 132.214 85.8251 134.743 89.643C137.459 93.744 145.379 93.4668 149.632 93.3189C149.83 93.313 149.989 93.4639 149.996 93.6582C150.003 93.8525 149.851 94.0152 149.657 94.0221C148.749 94.0537 147.675 94.0912 146.521 94.0912Z" fill="black"/>
<path d="M147.626 72.4094C147.707 71.592 147.266 70.8789 146.64 70.8167C146.014 70.7544 145.44 71.3666 145.359 72.184C145.278 73.0014 145.719 73.7145 146.345 73.7767C146.972 73.839 147.545 73.2268 147.626 72.4094Z" fill="black"/>
<path d="M140.236 70.7687C140.317 69.9513 139.875 69.2383 139.249 69.176C138.623 69.1138 138.05 69.726 137.968 70.5434C137.887 71.3608 138.329 72.0739 138.955 72.1361C139.581 72.1983 140.154 71.5861 140.236 70.7687Z" fill="black"/>
<path d="M145.646 67.878C145.646 67.878 147.695 66.8128 149.819 68.9876L145.646 67.878Z" fill="white"/>
<path d="M149.818 69.3398C149.726 69.3398 149.635 69.3042 149.566 69.2332C147.664 67.2843 145.882 68.1532 145.806 68.1907C145.634 68.2785 145.421 68.2104 145.332 68.0378C145.243 67.8652 145.31 67.6542 145.482 67.5654C145.505 67.5536 147.79 66.4065 150.069 68.7421C150.205 68.8811 150.202 69.104 150.063 69.2401C149.994 69.3062 149.907 69.3398 149.818 69.3398Z" fill="black"/>
<path d="M137.348 66.878C137.348 66.878 139.397 65.8128 141.521 67.9876L137.348 66.878Z" fill="white"/>
<path d="M141.52 68.3398C141.428 68.3398 141.337 68.3042 141.268 68.2332C139.367 66.2843 137.584 67.1532 137.509 67.1907C137.337 67.2785 137.124 67.2104 137.035 67.0378C136.947 66.8652 137.014 66.6542 137.185 66.5654C137.208 66.5536 139.493 65.4065 141.771 67.7421C141.908 67.8811 141.905 68.104 141.766 68.2401C141.697 68.3062 141.609 68.3398 141.52 68.3398Z" fill="black"/>
<path d="M141.847 72.5625C141.183 74.7392 140.518 76.916 139.854 79.0927C139.745 79.4508 139.635 79.8265 139.705 80.1944C139.795 80.6718 140.184 81.0495 140.625 81.2557C141.065 81.4618 141.557 81.5239 142.039 81.5841" fill="white"/>
<path d="M142.04 81.9297C142.025 81.9297 142.011 81.9287 141.996 81.9267C141.515 81.8676 140.971 81.7995 140.476 81.5677C139.88 81.2886 139.463 80.7974 139.359 80.253C139.271 79.7904 139.407 79.3427 139.518 78.9827L141.51 72.4524C141.566 72.267 141.764 72.1615 141.949 72.2187C142.136 72.2759 142.24 72.4722 142.183 72.6586L140.191 79.1888C140.099 79.4896 139.994 79.8309 140.051 80.1218C140.112 80.4453 140.383 80.7471 140.773 80.9306C141.167 81.115 141.633 81.1732 142.082 81.2284C142.276 81.2521 142.413 81.4287 142.388 81.621C142.366 81.7985 142.215 81.9297 142.04 81.9297Z" fill="black"/>
<path d="M145.749 84.9141C144.266 85.856 142.379 86.1381 140.686 85.6715L145.749 84.9141Z" fill="white"/>
<path d="M142.333 86.2438C141.744 86.2438 141.157 86.1679 140.591 86.0111C140.404 85.9598 140.294 85.7655 140.346 85.5781C140.397 85.3907 140.59 85.2802 140.779 85.3325C142.375 85.7724 144.163 85.5051 145.56 84.6174C145.724 84.5129 145.942 84.5622 146.046 84.7259C146.151 84.8897 146.102 85.1076 145.938 85.2122C144.87 85.8898 143.599 86.2438 142.333 86.2438Z" fill="black"/>
<path d="M173.12 72.2702C168.872 86.5161 157.638 85.8967 157.638 85.8967C157.638 85.8967 164.214 79.5302 163.5 75.2221C162.937 71.8046 159.329 73.4586 159.329 73.4586C159.329 73.4586 158.752 75.2675 157.463 74.9085C156.108 74.5357 157.59 68.5124 157.678 67.5202C157.738 66.8091 157.864 66.2991 157.375 65.7527C156.78 65.0949 155.551 64.6402 154.753 64.295C154.753 64.295 148.695 62.3382 148.628 60.5432C148.567 58.97 148.215 58.8428 148.733 58.2343C143.319 59.6594 131.094 61.853 131.305 52.5424C131.577 40.5915 141.52 46.4313 141.52 46.4313C141.52 46.4313 140.742 40.8144 145.646 41.13C152.637 41.5798 153.865 45.9806 153.865 45.9806C172.056 44.3088 175.726 55.1807 173.12 72.2702Z" fill="black"/>
<path d="M157.784 86.2499C157.683 86.2499 157.626 86.248 157.618 86.247C157.478 86.2391 157.357 86.1493 157.308 86.0182C157.258 85.887 157.292 85.74 157.392 85.6424C157.457 85.5802 163.827 79.3548 163.151 75.2784C163.017 74.4638 162.686 73.9105 162.165 73.6333C161.267 73.154 160.013 73.5662 159.607 73.7231C159.318 74.4726 158.555 75.5783 157.367 75.2469C156.086 74.8948 156.527 71.9083 157.135 68.6131C157.228 68.1101 157.309 67.6761 157.325 67.4877C157.332 67.4 157.341 67.3141 157.349 67.2313C157.408 66.6366 157.423 66.3348 157.11 65.9866C156.647 65.4737 155.664 65.0615 154.948 64.7606C154.83 64.7113 154.717 64.663 154.61 64.6176C153.591 64.2902 148.345 62.4981 148.273 60.5551C148.253 60.0205 148.196 59.6536 148.156 59.3863C148.119 59.1457 148.089 58.9474 148.106 58.7561C143.818 59.8154 136.838 60.9121 133.238 58.0716C131.666 56.8309 130.897 54.9678 130.952 52.5336C131.037 48.8015 132.067 46.3594 134.011 45.2755C136.536 43.8681 139.812 45.1828 141.124 45.8249C141.098 44.8721 141.219 43.0958 142.319 41.9122C143.103 41.068 144.227 40.6873 145.667 40.779C151.878 41.1784 153.698 44.5871 154.105 45.6059C161.518 44.9688 166.735 46.3703 170.048 49.8854C174.009 54.091 175.128 61.4299 173.467 72.3225C173.465 72.3383 173.461 72.3541 173.456 72.3699C169.462 85.7686 159.213 86.2499 157.784 86.2499ZM161.154 72.7052C161.601 72.7052 162.069 72.7841 162.495 73.011C163.219 73.3966 163.674 74.1205 163.846 75.164C164.457 78.8488 160.134 83.802 158.49 85.5309C161.137 85.3662 169.277 83.8917 172.775 72.1923C174.396 61.5414 173.336 54.4026 169.535 50.3687C166.34 46.9778 161.224 45.6572 153.896 46.3318C153.73 46.3466 153.571 46.2401 153.525 46.0764C153.477 45.9077 152.256 41.9093 145.622 41.4822C144.411 41.4043 143.47 41.7091 142.837 42.3896C141.532 43.7921 141.864 46.3584 141.868 46.3841C141.886 46.5172 141.827 46.6504 141.715 46.7244C141.604 46.7993 141.459 46.8033 141.343 46.7352C141.301 46.7105 137.164 44.3237 134.354 45.8919C132.643 46.8467 131.736 49.0865 131.657 52.5504C131.607 54.7518 132.286 56.4235 133.676 57.5193C137.245 60.3352 144.585 58.9622 148.644 57.8941C148.793 57.8556 148.95 57.9168 149.032 58.047C149.114 58.1772 149.102 58.3458 149.002 58.4622C148.771 58.7344 148.779 58.7857 148.854 59.2808C148.898 59.5649 148.958 59.9554 148.979 60.5295C149.019 61.5976 152.442 63.1786 154.861 63.9598C154.996 64.016 155.107 64.0633 155.223 64.1117C156.044 64.4569 157.066 64.8859 157.636 65.5161C158.17 66.1109 158.112 66.6888 158.051 67.3013C158.043 67.3812 158.036 67.4641 158.028 67.5489C158.008 67.7708 157.933 68.1781 157.828 68.7413C156.97 73.3838 157.206 74.4726 157.555 74.5683C158.5 74.8326 158.987 73.365 158.992 73.3503C159.023 73.2565 159.091 73.1786 159.181 73.1382C159.235 73.1125 160.14 72.7052 161.154 72.7052Z" fill="black"/>
<path d="M58.2383 52.7512L80.1507 103.234C81.6301 106.645 85.6039 108.217 89.0243 106.73C92.4349 105.249 94.0071 101.277 92.5178 97.8641L70.6143 47.3828L58.2383 52.7512Z" fill="black"/>
<path d="M86.3368 107.64C85.456 107.64 84.5743 107.474 83.731 107.141C81.9675 106.445 80.5818 105.106 79.8283 103.369L57.9159 52.8847C57.8784 52.7989 57.8774 52.7023 57.9109 52.6155C57.9454 52.5287 58.0125 52.4586 58.0983 52.4221L70.4743 47.0528C70.6528 46.9749 70.8599 47.0577 70.9369 47.2352L92.8404 97.7175C93.5969 99.4514 93.6314 101.377 92.938 103.139C92.2437 104.905 90.9033 106.292 89.1645 107.047C88.2571 107.441 87.2975 107.64 86.3368 107.64ZM58.7009 52.9271L80.4723 103.088C81.1509 104.652 82.3995 105.858 83.9875 106.486C85.5783 107.113 87.3162 107.082 88.8834 106.401C90.4496 105.721 91.6569 104.472 92.2822 102.882C92.9075 101.295 92.8759 99.5599 92.1944 97.9986L70.4319 47.8389L58.7009 52.9271Z" fill="black"/>
<path d="M94.8993 53.6244C94.8993 53.6244 80.3792 56.8732 72.2728 59.4672C64.1626 62.0651 46.3837 72.9665 46.3837 72.9665C42.835 74.4095 38.2774 71.1823 34.0284 65.7222C24.204 53.0957 16.0168 28.5332 25.7209 22.2041C42.7334 9.83506 60.7727 4.95293 70.2312 3.12237C74.4091 2.31263 76.9123 2.10156 76.9123 2.10156L94.8993 53.6244Z" fill="white"/>
<path d="M94.8992 53.6234C94.8992 53.6234 80.379 56.8722 72.2727 59.4662C64.1625 62.0641 46.3836 72.9655 46.3836 72.9655C42.8349 74.4085 38.2773 71.1813 34.0283 65.7212C37.8374 63.363 42.3427 61.8599 46.7317 60.8993C54.7956 59.1397 63.2827 58.5904 70.671 54.9115C75.9299 52.2889 80.7765 47.2135 80.1926 41.3668C79.7241 36.6996 76.0325 33.1332 73.4198 29.2364C71.8072 26.8318 70.5901 24.1678 69.7873 21.3835C68.369 16.4767 68.2319 11.1932 69.4213 6.22327C69.6324 5.33955 69.8612 4.1925 70.2311 3.12237C74.409 2.31263 76.9122 2.10156 76.9122 2.10156L94.8992 53.6234Z" fill="#ED5A67"/>
<path d="M44.5971 73.6637C42.4075 73.6637 39.8925 72.3598 37.2097 69.8113C34.1039 66.8613 30.86 62.3056 28.0757 56.9836C20.9537 43.3728 17.7917 26.956 25.5291 21.9111C49.8402 4.23479 76.614 1.77399 76.8813 1.75131C77.0371 1.7375 77.19 1.83416 77.2433 1.98605L95.2293 53.5099C95.2618 53.6045 95.2529 53.7091 95.2046 53.7969C95.1563 53.8846 95.0714 53.9478 94.9738 53.9695C94.8288 54.002 80.3777 57.242 72.3779 59.8053C64.4028 62.3598 46.7422 73.1597 46.5647 73.2682C46.5489 73.2781 46.5312 73.2869 46.5134 73.2939C45.9078 73.5404 45.2677 73.6637 44.5971 73.6637ZM76.6693 2.48018C73.7991 2.78593 48.7789 5.87696 25.9266 22.491C18.5264 27.316 21.723 43.3284 28.6981 56.6571C33.1482 65.1609 39.5137 72.9684 44.5527 72.9684C45.1277 72.9684 45.6859 72.8668 46.2215 72.6528C46.9908 72.1833 64.2479 61.6704 72.1629 59.1347C79.4565 56.7981 92.0731 53.9044 94.4343 53.3698L76.6693 2.48018Z" fill="black"/>
<path d="M94.8976 53.6187C98.2182 52.4592 96.8827 39.9855 91.9148 25.7579C86.9468 11.5302 80.2276 0.936419 76.907 2.09589C73.5864 3.25537 74.9219 15.7291 79.8898 29.9567C84.8578 44.1843 91.577 54.7782 94.8976 53.6187Z" fill="white"/>
<path d="M94.3774 54.0654C90.3277 54.0654 83.8064 42.2476 79.5584 30.0798C75.0807 17.2531 72.823 3.157 76.7948 1.77028C80.7656 0.382565 87.7722 12.8226 92.25 25.6494C94.6605 32.5554 96.2997 39.271 96.8658 44.5595C97.2781 48.409 97.2899 53.1639 95.0136 53.9588C94.8094 54.0299 94.5964 54.0654 94.3774 54.0654ZM80.2232 29.847C85.5334 45.0595 92.036 54.2498 94.7818 53.2941C96.1764 52.8069 96.6932 49.5699 96.1656 44.6345C95.6054 39.3982 93.979 32.7378 91.5852 25.8821C86.2751 10.6696 79.7734 1.47932 77.0266 2.43504C74.2837 3.39272 74.913 14.6364 80.2232 29.847Z" fill="black"/>
<path d="M79.5534 9.5C77.9704 10.0523 79.5543 18.7129 83.0912 28.8451C86.628 38.9763 90.7773 46.7413 92.3603 46.189C93.9433 45.6367 92.3593 36.9761 88.8225 26.8439" fill="white"/>
<path d="M92.1709 46.5812C91.6137 46.5812 90.4479 45.9924 88.1488 41.6892C86.3903 38.3979 84.4759 33.8778 82.7597 28.9611C81.0436 24.0445 79.7289 19.3152 79.0572 15.6442C77.9664 9.6821 79.074 9.29547 79.4389 9.16824C79.6214 9.10413 79.8226 9.20079 79.8867 9.38424C79.9508 9.56769 79.8541 9.76889 79.6697 9.833C79.358 9.94149 78.9724 11.27 79.7496 15.518C80.4144 19.1544 81.7202 23.8462 83.4245 28.7293C85.1288 33.6125 87.0274 38.0971 88.7702 41.3578C90.8049 45.1649 91.9273 45.9658 92.2459 45.8573C92.5576 45.7478 92.9432 44.4202 92.166 40.1723C91.5012 36.5358 90.1954 31.844 88.4911 26.9609C88.427 26.7775 88.5236 26.5763 88.7071 26.5122C88.8915 26.448 89.0917 26.5447 89.1558 26.7282C90.872 31.6448 92.1867 36.3741 92.8584 40.045C93.9492 46.0072 92.8416 46.3938 92.4767 46.521C92.4057 46.5467 92.3061 46.5812 92.1709 46.5812Z" fill="black"/>
<path d="M90.2671 79.5638C90.2671 79.5638 88.8666 69.2827 86.6385 66.8357C84.3908 64.367 74.9885 62.2968 73.2871 66.5665C71.5858 70.8361 81.4487 72.353 81.4487 72.353L84.515 79.4198C86.5863 78.8172 88.4849 78.9444 90.2671 79.5638Z" fill="white"/>
<path d="M90.2674 79.9168C90.2289 79.9168 90.1895 79.9109 90.152 79.8971C88.3076 79.256 86.4968 79.2106 84.614 79.758C84.4443 79.8073 84.2638 79.7225 84.1928 79.5597L81.2024 72.6695C80.0751 72.4752 74.5587 71.4061 73.101 68.8575C72.669 68.101 72.6217 67.2863 72.96 66.4362C73.4876 65.1116 74.7373 64.2358 76.5737 63.9024C80.2131 63.2426 85.2916 64.8334 86.8982 66.5989C89.1736 69.0982 90.5574 79.0922 90.6155 79.5164C90.6323 79.6377 90.584 79.759 90.4893 79.8359C90.4262 79.8902 90.3473 79.9168 90.2674 79.9168ZM87.1842 78.675C88.0709 78.675 88.9507 78.8033 89.8374 79.0597C89.5099 76.9027 88.2169 69.0942 86.3784 67.0743C84.9197 65.4726 80.0711 63.9843 76.7 64.5958C75.0923 64.8877 74.0538 65.5949 73.6139 66.6975C73.3545 67.3475 73.387 67.9393 73.7115 68.5084C75.1347 70.9987 81.4381 71.9969 81.5022 72.0067C81.6216 72.0255 81.7232 72.1034 81.7715 72.2148L84.7156 79.0005C85.548 78.7835 86.3686 78.675 87.1842 78.675Z" fill="black"/>
<path d="M76.9258 92.8751C79.7625 91.2774 81.326 88.6751 80.4179 87.0629C79.5098 85.4506 76.4741 85.4389 73.6373 87.0367C70.8006 88.6344 69.2371 91.2367 70.1452 92.8489C71.0533 94.4612 74.0891 94.4729 76.9258 92.8751Z" fill="white"/>
<path d="M72.8363 94.4309C71.4703 94.4309 70.3657 93.9605 69.84 93.0265C68.8221 91.2176 70.415 88.454 73.4666 86.7359C74.8908 85.9341 76.4156 85.4932 77.754 85.5001C79.1663 85.506 80.2217 86.0011 80.7257 86.8957C81.7445 88.7045 80.1516 91.4681 77.0991 93.1862C75.6236 94.0187 74.1155 94.4309 72.8363 94.4309ZM70.4534 92.6813C71.2514 94.0976 74.1363 94.0483 76.7549 92.5738C79.3725 91.0992 80.9101 88.6572 80.1132 87.2419C79.7384 86.5771 78.9 86.2092 77.752 86.2043C77.7451 86.2043 77.7382 86.2043 77.7303 86.2043C76.5152 86.2043 75.1245 86.6106 73.8118 87.3494C71.1951 88.8239 69.6565 91.265 70.4534 92.6813Z" fill="black"/>
<path d="M75.7035 89.0456C78.871 87.2615 80.7027 84.5082 79.7946 82.896C78.8865 81.2837 75.5826 81.423 72.415 83.2071C69.2475 84.9912 67.4158 87.7445 68.3239 89.3567C69.232 90.969 72.5359 90.8297 75.7035 89.0456Z" fill="white"/>
<path d="M70.9157 90.8401C69.5704 90.8401 68.5112 90.4062 68.019 89.5333C67.0002 87.7244 68.8564 84.8129 72.2443 82.9054C75.6312 80.9979 79.0842 80.92 80.103 82.7289C80.61 83.6303 80.4216 84.8297 79.5724 86.1069C78.7696 87.3131 77.4578 88.4681 75.8778 89.3577C74.1261 90.343 72.3567 90.8401 70.9157 90.8401ZM77.2319 82.1312C75.9083 82.1312 74.2159 82.6026 72.5895 83.5189C69.6474 85.1759 67.8356 87.7718 68.6325 89.1881C69.4304 90.6044 72.5895 90.4002 75.5326 88.7433C77.0169 87.9069 78.2439 86.8318 78.9866 85.7163C79.6819 84.6709 79.8614 83.7329 79.4905 83.0741C79.1335 82.4399 78.304 82.1312 77.2319 82.1312Z" fill="black"/>
<path d="M74.4228 84.7617C77.9197 82.7921 79.9419 79.7526 78.9395 77.9728C77.937 76.193 74.2896 76.3469 70.7927 78.3165C67.2957 80.2861 65.2736 83.3256 66.276 85.1054C67.2785 86.8852 70.9259 86.7313 74.4228 84.7617Z" fill="white"/>
<path d="M69.1357 86.7115C67.6641 86.7115 66.5082 86.239 65.9707 85.2853C64.8561 83.3058 66.8997 80.1142 70.622 78.0173C74.3452 75.9215 78.1346 75.8297 79.2481 77.8082C79.8014 78.7906 79.5933 80.1014 78.6632 81.4989C77.7805 82.8265 76.3356 84.0968 74.5967 85.0762C72.6676 86.1631 70.7196 86.7115 69.1357 86.7115ZM66.5841 84.9401C67.4747 86.5201 70.9859 86.3022 74.2515 84.4627C75.8957 83.5366 77.2538 82.3462 78.0764 81.1093C78.8526 79.9426 79.0508 78.8932 78.6346 78.1544C77.744 76.5734 74.2328 76.7924 70.9672 78.6318C67.7016 80.4702 65.6945 83.3591 66.5841 84.9401Z" fill="black"/>
<path d="M71.8627 79.8815C75.0302 78.0974 76.8618 75.3442 75.9538 73.7319C75.0457 72.1197 71.7417 72.259 68.5742 74.0431C65.4067 75.8272 63.575 78.5804 64.4831 80.1927C65.3912 81.8049 68.6951 81.6656 71.8627 79.8815Z" fill="white"/>
<path d="M67.0622 81.6691C65.6726 81.6691 64.6537 81.2115 64.1783 80.3662C63.6714 79.4658 63.8597 78.2654 64.7089 76.9882C65.5118 75.782 66.8235 74.627 68.4036 73.7374C69.9826 72.8478 71.6495 72.325 73.0983 72.2639C74.631 72.1988 75.7544 72.6604 76.2623 73.5608C76.7693 74.4613 76.5809 75.6616 75.7317 76.9389C74.9289 78.1451 73.6171 79.3001 72.0371 80.1897C70.458 81.0793 68.7912 81.6021 67.3423 81.6632C67.2467 81.6672 67.154 81.6691 67.0622 81.6691ZM73.3814 72.9622C73.2985 72.9622 73.2137 72.9641 73.1279 72.9681C71.7885 73.0243 70.2332 73.5165 68.7488 74.3518C67.2644 75.1882 66.0375 76.2633 65.2948 77.3788C64.5995 78.4242 64.42 79.3622 64.7908 80.021C65.1616 80.6799 66.0542 81.0123 67.3118 80.96C68.6511 80.9038 70.2065 80.4116 71.6909 79.5762C73.1753 78.7399 74.4022 77.6648 75.1449 76.5493C75.8402 75.5038 76.0197 74.5659 75.6489 73.907C75.3027 73.2936 74.5028 72.9622 73.3814 72.9622Z" fill="black"/>
<path d="M141.102 110.332C141.102 110.332 136.354 111.456 134.901 113.613C135.017 113.381 132.786 106.064 129.652 103.592L135.962 103.367L141.102 110.332Z" fill="#ED5A67"/>
<path d="M134.901 113.966C134.841 113.966 134.779 113.95 134.724 113.917C134.599 113.844 134.535 113.705 134.552 113.568C134.482 112.923 132.371 106.186 129.434 103.869C129.318 103.777 129.271 103.623 129.317 103.483C129.363 103.343 129.492 103.247 129.64 103.241L135.949 103.016C136.06 103.012 136.176 103.065 136.245 103.159L141.386 110.124C141.456 110.219 141.473 110.343 141.433 110.454C141.393 110.566 141.299 110.649 141.183 110.676C141.137 110.687 136.553 111.794 135.194 113.811C135.126 113.91 135.014 113.966 134.901 113.966ZM130.525 103.914C132.756 106.221 134.573 110.839 135.088 112.839C136.562 111.35 139.358 110.449 140.511 110.125L135.788 103.727L130.525 103.914Z" fill="black"/>
<path d="M33.7651 156.007C33.6014 156.007 33.4554 155.893 33.4209 155.726L28.6275 132.494C28.5881 132.304 28.7104 132.117 28.9007 132.078C29.0921 132.038 29.2775 132.162 29.3169 132.351L34.1103 155.583C34.1498 155.773 34.0275 155.96 33.8371 155.999C33.8124 156.004 33.7878 156.007 33.7651 156.007Z" fill="black"/>
<path d="M28.9727 158.044C28.8632 158.044 28.7557 157.993 28.6867 157.898L18.8603 144.245C18.7469 144.087 18.7824 143.867 18.9402 143.754C19.098 143.64 19.3179 143.676 19.4313 143.834L29.2578 157.487C29.3712 157.645 29.3357 157.865 29.1779 157.978C29.1157 158.022 29.0437 158.044 28.9727 158.044Z" fill="black"/>
<path d="M26.095 161.036C26.0772 161.036 26.0595 161.035 26.0417 161.032L6.38986 158.036C6.19754 158.007 6.06537 157.827 6.09496 157.635C6.12455 157.443 6.30405 157.31 6.49539 157.34L26.1472 160.335C26.3396 160.365 26.4717 160.545 26.4421 160.737C26.4155 160.91 26.2656 161.036 26.095 161.036Z" fill="black"/>
<path d="M34.6344 125.615C41.451 125.615 46.9769 120.089 46.9769 113.272C46.9769 106.456 41.451 100.93 34.6344 100.93C27.8179 100.93 22.292 106.456 22.292 113.272C22.292 120.089 27.8179 125.615 34.6344 125.615Z" fill="#ED5A67"/>
<path d="M33.4211 124.616C26.4214 124.616 20.7266 118.921 20.7266 111.921C20.7266 104.921 26.4214 99.2266 33.4211 99.2266C40.4208 99.2266 46.1156 104.921 46.1156 111.921C46.1156 118.921 40.4208 124.616 33.4211 124.616ZM33.4211 99.9308C26.81 99.9308 21.4308 105.31 21.4308 111.921C21.4308 118.532 26.81 123.911 33.4211 123.911C40.0332 123.911 45.4114 118.532 45.4114 111.921C45.4114 105.31 40.0322 99.9308 33.4211 99.9308Z" fill="black"/>
<path d="M37.6007 113.28C37.6007 113.744 37.5178 114.163 37.3531 114.534C37.1884 114.907 36.9547 115.229 36.6529 115.498C36.3501 115.768 35.9861 115.983 35.5591 116.146C35.133 116.308 34.6606 116.41 34.1418 116.454L33.9711 118.187C33.9652 118.23 33.9534 118.268 33.9347 118.3C33.9159 118.333 33.8804 118.359 33.8291 118.381C33.7778 118.403 33.7078 118.42 33.6181 118.433C33.5293 118.447 33.4169 118.454 33.2817 118.454C33.1091 118.454 32.9701 118.446 32.8645 118.429C32.759 118.414 32.6771 118.39 32.617 118.36C32.5578 118.331 32.5183 118.291 32.4996 118.243C32.4799 118.195 32.4769 118.14 32.4868 118.08L32.6574 116.436C32.4256 116.403 32.2067 116.362 32.0015 116.311C31.7964 116.259 31.61 116.203 31.4423 116.14C31.2746 116.078 31.1306 116.015 31.0093 115.95C30.888 115.885 30.7963 115.822 30.7341 115.759C30.672 115.697 30.6276 115.606 30.6 115.484C30.5734 115.363 30.5596 115.183 30.5596 114.946C30.5596 114.762 30.5645 114.611 30.5754 114.492C30.5862 114.373 30.6049 114.281 30.6326 114.217C30.6592 114.152 30.6927 114.107 30.7332 114.083C30.7736 114.058 30.8209 114.046 30.8752 114.046C30.9452 114.046 31.0478 114.087 31.1829 114.168C31.318 114.248 31.4906 114.338 31.7007 114.435C31.9118 114.531 32.1662 114.621 32.4661 114.702C32.7659 114.783 33.118 114.823 33.5234 114.823C34.1546 114.823 34.6241 114.706 34.9318 114.471C35.2395 114.237 35.3934 113.925 35.3934 113.536C35.3934 113.277 35.3273 113.064 35.1951 112.896C35.063 112.729 34.8864 112.582 34.6645 112.454C34.4436 112.327 34.1941 112.214 33.9159 112.114C33.6378 112.014 33.3527 111.908 33.0618 111.795C32.7698 111.681 32.4858 111.549 32.2077 111.398C31.9295 111.247 31.68 111.061 31.4591 110.839C31.2372 110.618 31.0606 110.349 30.9284 110.033C30.7963 109.717 30.7302 109.336 30.7302 108.887C30.7302 108.482 30.7983 108.114 30.9324 107.781C31.0675 107.449 31.2618 107.159 31.5153 106.91C31.7688 106.662 32.0804 106.461 32.4503 106.307C32.8201 106.153 33.2403 106.049 33.7098 105.995L33.8725 104.368C33.8775 104.324 33.8893 104.288 33.909 104.258C33.9278 104.229 33.9623 104.201 34.0145 104.177C34.0658 104.153 34.1349 104.135 34.2207 104.125C34.3065 104.114 34.4199 104.109 34.561 104.109C34.7276 104.109 34.8677 104.117 34.9782 104.133C35.0886 104.149 35.1734 104.172 35.2336 104.202C35.2928 104.232 35.3312 104.271 35.347 104.319C35.3628 104.368 35.3717 104.422 35.3717 104.481L35.2089 106.012C35.3598 106.034 35.5196 106.063 35.6863 106.102C35.854 106.139 36.0108 106.184 36.1558 106.235C36.3018 106.286 36.4339 106.34 36.5523 106.397C36.6706 106.454 36.7535 106.505 36.7988 106.55C36.8452 106.597 36.8797 106.642 36.9044 106.688C36.928 106.734 36.9478 106.79 36.9616 106.858C36.9754 106.926 36.9843 107.007 36.9902 107.101C36.9951 107.195 36.9981 107.305 36.9981 107.428C36.9981 107.596 36.9941 107.733 36.9853 107.841C36.9774 107.95 36.9626 108.032 36.9409 108.089C36.9192 108.146 36.8945 108.184 36.8679 108.202C36.8403 108.221 36.8087 108.231 36.7702 108.231C36.7002 108.231 36.5976 108.196 36.4625 108.126C36.3274 108.056 36.1617 107.98 35.9644 107.899C35.7672 107.818 35.5403 107.742 35.2839 107.672C35.0275 107.602 34.7454 107.566 34.4377 107.566C34.1576 107.566 33.9169 107.594 33.7167 107.647C33.5175 107.701 33.3547 107.776 33.2314 107.874C33.1072 107.971 33.0154 108.087 32.9563 108.222C32.8971 108.357 32.8665 108.506 32.8665 108.668C32.8665 108.921 32.9346 109.136 33.0687 109.308C33.2038 109.481 33.3833 109.63 33.6072 109.754C33.8311 109.878 34.0846 109.992 34.3686 110.094C34.6527 110.197 34.9407 110.305 35.2356 110.418C35.5295 110.531 35.8185 110.662 36.1015 110.81C36.3856 110.959 36.6371 111.143 36.859 111.361C37.0799 111.58 37.2585 111.844 37.3936 112.154C37.5326 112.469 37.6007 112.842 37.6007 113.28Z" fill="white"/>
<path d="M11.968 100.842C17.6695 100.842 22.2915 96.2203 22.2915 90.5188C22.2915 84.8173 17.6695 80.1953 11.968 80.1953C6.26652 80.1953 1.64453 84.8173 1.64453 90.5188C1.64453 96.2203 6.26652 100.842 11.968 100.842Z" fill="#ED5A67"/>
<path d="M10.953 100.07C5.06677 100.07 0.277344 95.2805 0.277344 89.3944C0.277344 83.5082 5.06677 78.7188 10.953 78.7188C16.8391 78.7188 21.6286 83.5082 21.6286 89.3944C21.6286 95.2805 16.8391 100.07 10.953 100.07ZM10.953 79.423C5.45438 79.423 0.981555 83.8958 0.981555 89.3944C0.981555 94.8929 5.45438 99.3658 10.953 99.3658C16.4515 99.3658 20.9243 94.8929 20.9243 89.3944C20.9243 83.8958 16.4515 79.423 10.953 79.423Z" fill="black"/>
<path d="M14.4496 90.5278C14.4496 90.9164 14.3806 91.2665 14.2435 91.5782C14.1054 91.8899 13.9101 92.1581 13.6576 92.384C13.4042 92.6098 13.0994 92.7903 12.7433 92.9264C12.3863 93.0616 11.9918 93.1474 11.5578 93.1839L11.4158 94.6337C11.4109 94.6702 11.401 94.7018 11.3852 94.7284C11.3694 94.756 11.3399 94.7777 11.2974 94.7964C11.254 94.8142 11.1959 94.829 11.1219 94.8408C11.0469 94.8517 10.9532 94.8576 10.8408 94.8576C10.6968 94.8576 10.5804 94.8507 10.4916 94.8369C10.4039 94.8231 10.3348 94.8043 10.2855 94.7797C10.2362 94.755 10.2036 94.7215 10.1879 94.681C10.1721 94.6406 10.1681 94.5952 10.178 94.5459L10.32 93.171C10.1257 93.1434 9.94327 93.1089 9.77165 93.0655C9.60004 93.0231 9.4442 92.9758 9.30415 92.9235C9.1641 92.8712 9.04377 92.8179 8.94218 92.7647C8.84059 92.7104 8.76366 92.6572 8.71139 92.6059C8.65912 92.5536 8.62262 92.4767 8.59994 92.3751C8.57726 92.2735 8.56641 92.1236 8.56641 91.9244C8.56641 91.7715 8.57134 91.6443 8.58021 91.5456C8.58909 91.447 8.60487 91.3701 8.62756 91.3148C8.65024 91.2606 8.67884 91.2231 8.71238 91.2034C8.7469 91.1827 8.78635 91.1728 8.83073 91.1728C8.88991 91.1728 8.97473 91.2073 9.08815 91.2744C9.20059 91.3425 9.34557 91.4164 9.52113 91.4983C9.69669 91.5802 9.91072 91.6541 10.1612 91.7222C10.4118 91.7902 10.7067 91.8238 11.045 91.8238C11.5736 91.8238 11.9661 91.7251 12.2236 91.5289C12.481 91.3326 12.6092 91.0712 12.6092 90.7467C12.6092 90.5298 12.554 90.3522 12.4435 90.2112C12.333 90.0711 12.1851 89.9478 11.9997 89.8423C11.8143 89.7358 11.6062 89.6411 11.3734 89.5573C11.1406 89.4734 10.9029 89.3847 10.6583 89.29C10.4147 89.1953 10.176 89.0848 9.94327 88.9576C9.7105 88.8314 9.50141 88.6755 9.31697 88.4901C9.13155 88.3047 8.98361 88.0808 8.87314 87.8165C8.76268 87.5521 8.70745 87.2336 8.70745 86.8578C8.70745 86.5195 8.76465 86.2108 8.87709 85.9327C8.98952 85.6555 9.15226 85.4129 9.3653 85.2048C9.57735 84.9967 9.83872 84.829 10.1474 84.6998C10.4561 84.5716 10.8082 84.4838 11.2008 84.4394L11.3369 83.0773C11.3408 83.0408 11.3517 83.0113 11.3675 82.9856C11.3833 82.961 11.4128 82.9383 11.4553 82.9176C11.4986 82.8969 11.5559 82.883 11.6279 82.8732C11.6999 82.8643 11.7945 82.8594 11.9119 82.8594C12.052 82.8594 12.1683 82.8663 12.261 82.8801C12.3538 82.8939 12.4248 82.9126 12.4741 82.9373C12.5234 82.962 12.555 82.9955 12.5688 83.0359C12.5826 83.0764 12.5895 83.1217 12.5895 83.171L12.4544 84.4512C12.5806 84.469 12.7138 84.4946 12.8538 84.5262C12.9939 84.5578 13.125 84.5952 13.2464 84.6377C13.3677 84.6801 13.4791 84.7254 13.5777 84.7728C13.6774 84.8201 13.7464 84.8635 13.7839 84.902C13.8223 84.9404 13.8519 84.9789 13.8726 85.0164C13.8934 85.0549 13.9091 85.1022 13.92 85.1584C13.9318 85.2156 13.9397 85.2827 13.9437 85.3616C13.9486 85.4405 13.9506 85.5322 13.9506 85.6358C13.9506 85.7758 13.9476 85.8912 13.9407 85.981C13.9338 86.0717 13.921 86.1398 13.9032 86.1871C13.8855 86.2345 13.8648 86.266 13.8421 86.2818C13.8194 86.2976 13.7918 86.3055 13.7602 86.3055C13.702 86.3055 13.6162 86.2759 13.5028 86.2177C13.3894 86.1585 13.2513 86.0954 13.0866 86.0283C12.9219 85.9603 12.7325 85.8971 12.5175 85.839C12.3035 85.7808 12.0668 85.7512 11.8093 85.7512C11.5746 85.7512 11.3734 85.7739 11.2067 85.8192C11.04 85.8646 10.9039 85.9277 10.8004 86.0086C10.6968 86.0905 10.6199 86.1871 10.5696 86.2996C10.5193 86.413 10.4946 86.5363 10.4946 86.6724C10.4946 86.8844 10.5508 87.0629 10.6642 87.2079C10.7767 87.3519 10.9276 87.4762 11.115 87.5798C11.3024 87.6843 11.5144 87.779 11.7511 87.8648C11.9878 87.9506 12.2295 88.0404 12.4761 88.136C12.7216 88.2307 12.9633 88.3402 13.201 88.4645C13.4387 88.5887 13.6488 88.7426 13.8342 88.9251C14.0196 89.1075 14.1685 89.3294 14.281 89.5888C14.3934 89.8492 14.4496 90.1619 14.4496 90.5278Z" fill="white"/>
<path d="M140.618 57.5714C139.293 57.5714 137.967 57.3416 136.73 56.886C135.308 56.3622 134.231 55.6176 133.53 54.6717C132.658 53.4961 132.43 51.9713 132.949 50.7887C133.027 50.6112 133.234 50.5293 133.413 50.6082C133.591 50.6861 133.672 50.8942 133.594 51.0718C133.175 52.0275 133.371 53.2751 134.096 54.2526C134.714 55.087 135.682 55.7507 136.974 56.2251C138.904 56.9353 141.068 57.0615 143.066 56.5792C143.254 56.5338 143.445 56.6492 143.491 56.8386C143.536 57.028 143.42 57.2173 143.232 57.2637C142.379 57.4688 141.499 57.5714 140.618 57.5714Z" fill="white"/>
<path d="M158.139 63.2405C158.042 63.2405 157.945 63.2001 157.875 63.1221C157.449 62.6428 156.775 62.3459 155.75 62.1901C155.531 62.1566 155.311 62.1299 155.09 62.1033C154.434 62.0234 153.757 61.9406 153.114 61.6901C152.058 61.2778 151.338 60.4217 151.28 59.5074C151.267 59.3131 151.415 59.1464 151.61 59.1336C151.801 59.1208 151.97 59.2687 151.983 59.462C152.034 60.2422 152.761 60.7965 153.37 61.0342C153.93 61.2531 154.536 61.3271 155.176 61.405C155.404 61.4326 155.631 61.4602 155.856 61.4948C156.609 61.6092 157.691 61.8548 158.402 62.6556C158.531 62.8006 158.517 63.0235 158.372 63.1527C158.305 63.2109 158.222 63.2405 158.139 63.2405Z" fill="white"/>
<path d="M169.482 77.2179C169.397 77.2179 169.31 77.1864 169.242 77.1233C169.1 76.9901 169.092 76.7682 169.225 76.6262C171.517 74.1713 172.48 70.6118 171.735 67.3363C171.692 67.1469 171.811 66.9586 172 66.9152C172.191 66.8718 172.378 66.9911 172.421 67.1805C173.216 70.6798 172.189 74.484 169.739 77.1065C169.671 77.1805 169.577 77.2179 169.482 77.2179Z" fill="white"/>
<path d="M157.521 49.665C156.551 49.665 155.525 49.4953 154.481 49.1551C152.746 48.5899 151.16 47.649 149.626 46.7396L148.98 46.3579C148.339 45.9812 147.757 45.6646 147.132 45.6103C146.364 45.5433 145.524 45.8973 144.826 46.5799C144.17 47.2209 143.704 48.0563 143.253 48.8631C143.157 49.0328 142.943 49.0939 142.774 48.9982C142.605 48.9036 142.544 48.6886 142.638 48.5189C143.114 47.6677 143.605 46.788 144.334 46.0759C145.179 45.2494 146.223 44.8243 147.193 44.9091C147.963 44.9762 148.646 45.346 149.336 45.7514L149.984 46.135C151.484 47.0247 153.037 47.9459 154.698 48.4864C155.922 48.8848 158.287 49.3928 160.373 48.3147C160.545 48.225 160.757 48.2931 160.847 48.4657C160.936 48.6383 160.869 48.8503 160.696 48.9401C159.763 49.4224 158.682 49.665 157.521 49.665Z" fill="white"/>
</g>
<defs>
<clipPath id="clip0_467_5601">
<rect width="221.324" height="200" fill="white"/>
</clipPath>
</defs>
</svg>
