<svg width="211" height="201" viewBox="0 0 211 201" fill="none" xmlns="http://www.w3.org/2000/svg">
<path opacity="0.2" d="M114.092 8.89844H114.091C61.493 8.89844 18.8535 51.5379 18.8535 104.136V104.137C18.8535 156.735 61.493 199.375 114.091 199.375H114.092C166.69 199.375 209.33 156.735 209.33 104.137V104.136C209.33 51.5379 166.69 8.89844 114.092 8.89844Z" fill="url(#paint0_linear_467_5173)"/>
<path d="M106.798 86.8258C101.911 84.1138 96.3696 85.075 89.0975 86.3368C84.4107 87.1516 79.817 88.4324 75.3848 90.1601L92.9104 106.983C95.2769 114.143 99.6714 124.385 108.126 134.416C122.488 151.457 145.221 163.922 149.74 159.429C155.817 153.388 124.741 120.897 114.103 95.9013C113.319 94.059 111.418 89.3889 106.798 86.8258Z" fill="white"/>
<path d="M146.854 160.832C146.722 160.832 146.588 160.829 146.45 160.823C138.266 160.462 119.982 149.225 107.762 134.726C101.035 126.744 95.8989 117.5 92.4951 107.247L75.0546 90.5061C74.9969 90.4507 74.9541 90.3817 74.9301 90.3054C74.9061 90.2291 74.9018 90.1479 74.9174 90.0695C74.933 89.991 74.9682 89.9178 75.0196 89.8565C75.071 89.7952 75.137 89.7479 75.2115 89.7188C79.674 87.9815 84.2983 86.6923 89.016 85.8703C96.2669 84.6122 101.995 83.6186 107.029 86.4121C111.689 88.9978 113.65 93.6181 114.487 95.5906L114.54 95.7172C119.295 106.887 128.146 119.559 135.955 130.739C146.963 146.498 153.534 156.331 150.076 159.769C149.366 160.475 148.283 160.832 146.854 160.832ZM76.2558 90.339L93.2399 106.642C93.2959 106.696 93.3379 106.762 93.3624 106.836C96.7274 117.017 101.817 126.194 108.49 134.112C120.557 148.428 138.505 159.519 146.492 159.871C147.85 159.932 148.826 159.669 149.404 159.094C152.471 156.046 144.069 144.018 135.175 131.285C127.339 120.067 118.458 107.352 113.664 96.0905L113.61 95.963C112.811 94.0804 110.94 89.6717 106.567 87.2449C101.826 84.614 96.5211 85.5346 89.1787 86.8087C84.7697 87.5766 80.4429 88.7586 76.2558 90.339Z" fill="#090817"/>
<path d="M56.0271 89.4166C56.0271 89.4166 31.539 86.3206 21.7992 97.505C12.0594 108.689 2.02539 199.374 2.02539 199.374H34.1949L56.0271 89.4166Z" fill="white"/>
<path d="M108.125 86.8974C102.075 81.8064 86.5918 86.5154 86.5918 86.5154L94.4013 115.821C94.4013 115.821 96.2829 125.892 104.915 134.636C113.548 143.379 126.12 150.796 126.12 150.796L140.442 132.843C140.442 132.843 114.175 91.9885 108.125 86.8974Z" fill="#080717"/>
<path d="M93.0423 22.4141C93.0423 22.4141 106.355 29.0025 96.1732 55.148L83.5527 23.9635L93.0423 22.4141Z" fill="#080717"/>
<path d="M185.09 1.82812H114.555C113.611 1.82813 112.706 2.20305 112.038 2.87041C111.371 3.53777 110.996 4.4429 110.996 5.3867V58.7319C110.996 59.1993 111.088 59.6622 111.267 60.0941C111.446 60.5259 111.708 60.9184 112.038 61.2489C112.369 61.5794 112.761 61.8416 113.193 62.0205C113.625 62.1994 114.087 62.2915 114.555 62.2915H121.363L115.894 76.1521C115.845 76.2747 115.84 76.4101 115.879 76.536C115.918 76.662 115.999 76.7709 116.108 76.8448C116.217 76.9187 116.348 76.9531 116.48 76.9425C116.611 76.9318 116.735 76.8767 116.831 76.7862L132.188 62.2915H185.09C186.034 62.2915 186.939 61.9165 187.607 61.2491C188.274 60.5818 188.649 59.6766 188.649 58.7328V5.3867C188.649 4.44292 188.274 3.53781 187.607 2.87045C186.939 2.20309 186.034 1.82816 185.09 1.82812Z" fill="white"/>
<path d="M116.436 77.4251C116.223 77.4241 116.016 77.3591 115.841 77.2385C115.639 77.1063 115.49 76.908 115.419 76.6777C115.347 76.4474 115.359 76.1995 115.45 75.9766L120.663 62.7673H114.555C113.485 62.7661 112.459 62.3407 111.703 61.5843C110.946 60.8278 110.521 59.8023 110.52 58.7325V5.38632C110.521 4.31657 110.946 3.291 111.703 2.53459C112.459 1.77819 113.485 1.35273 114.555 1.35156H185.09C186.16 1.35273 187.186 1.77819 187.942 2.53459C188.699 3.291 189.124 4.31657 189.125 5.38632V58.7316C189.124 59.8013 188.699 60.8269 187.942 61.5833C187.186 62.3397 186.16 62.7652 185.09 62.7663H132.377L117.157 77.1317C116.964 77.3186 116.705 77.4236 116.436 77.4251ZM114.555 2.30406C113.737 2.30498 112.954 2.63001 112.376 3.20786C111.798 3.78572 111.473 4.5692 111.472 5.38644V58.7316C111.473 59.549 111.798 60.3327 112.376 60.9108C112.953 61.4888 113.737 61.814 114.555 61.8149H121.363C121.44 61.8148 121.517 61.8338 121.585 61.8701C121.654 61.9064 121.713 61.9589 121.757 62.0231C121.8 62.0873 121.828 62.1612 121.836 62.2384C121.845 62.3156 121.834 62.3937 121.806 62.466L116.337 76.3264C116.328 76.3483 116.327 76.3723 116.334 76.3947C116.341 76.417 116.355 76.4363 116.375 76.4495C116.394 76.4627 116.417 76.4688 116.441 76.4671C116.464 76.4653 116.486 76.4556 116.503 76.4397L131.86 61.9449C131.949 61.8614 132.066 61.8149 132.187 61.8149H185.09C185.907 61.814 186.69 61.4889 187.268 60.9111C187.846 60.3332 188.171 59.5498 188.172 58.7325V5.38632C188.171 4.56908 187.846 3.7856 187.268 3.20775C186.69 2.62989 185.907 2.30486 185.09 2.30394L114.555 2.30406Z" fill="#090817"/>
<path d="M106.455 89.0428C102.235 85.4035 97.888 86.3035 82.5242 87.6537C81.7899 87.7181 81.0502 87.629 80.3521 87.3922C79.6541 87.1554 79.0129 86.776 78.4694 86.2781C77.9258 85.7802 77.4917 85.1747 77.1948 84.5C76.8978 83.8254 76.7443 83.0963 76.7442 82.3592V68.9297H58.5937V83.8929C58.5929 85.3222 58.0373 86.6954 57.044 87.7232C56.0507 88.7509 54.6973 89.3529 53.2688 89.4024C40.4525 89.8474 36.1518 89.883 31.9807 93.9124C25.0258 100.631 25.8783 111.253 26.6683 124.459C27.6683 141.173 28.7701 165.399 28.9821 196.619L105.423 196.767C105.78 165.551 107.945 140.657 109.997 122.983C111.759 107.808 113.743 95.3293 106.455 89.0428Z" fill="white"/>
<path d="M105.422 197.243H105.421L28.9807 197.095C28.8551 197.095 28.7347 197.045 28.6457 196.957C28.5567 196.868 28.5063 196.748 28.5054 196.622C28.3352 171.569 27.557 147.299 26.1926 124.487L26.1261 123.384C25.347 110.461 24.7315 100.252 31.6492 93.5697C35.8345 89.5267 40.2875 89.3732 52.1884 88.9625L53.2517 88.9257C54.5586 88.8859 55.7983 88.3376 56.7071 87.3976C57.6159 86.4576 58.122 85.2001 58.1178 83.8927V68.9293C58.1178 68.803 58.168 68.6819 58.2573 68.5926C58.3466 68.5033 58.4677 68.4531 58.594 68.4531H76.7444C76.8707 68.4531 76.9918 68.5033 77.0811 68.5926C77.1704 68.6819 77.2205 68.803 77.2205 68.9293V82.3587C77.2207 83.0298 77.3604 83.6935 77.6307 84.3077C77.9011 84.9219 78.2963 85.4731 78.7911 85.9264C79.2859 86.3797 79.8696 86.7251 80.5051 86.9408C81.1406 87.1564 81.8139 87.2375 82.4825 87.179C84.1798 87.0297 85.7428 86.886 87.186 86.7535C98.9095 85.6753 102.86 85.3124 106.766 88.6821C113.812 94.7591 112.476 106.055 110.784 120.356C110.68 121.24 110.575 122.134 110.469 123.038C107.725 146.667 106.187 171.474 105.898 196.772C105.896 196.898 105.845 197.017 105.756 197.105C105.667 197.193 105.547 197.243 105.422 197.243ZM29.4551 196.144L104.951 196.29C105.255 171.123 106.792 146.442 109.524 122.928C109.629 122.023 109.734 121.128 109.839 120.244C111.497 106.224 112.807 95.1487 106.144 89.403C102.544 86.298 98.6964 86.6518 87.2733 87.7019C85.8292 87.8347 84.2651 87.9784 82.566 88.1276C81.7659 88.1977 80.96 88.1007 80.1995 87.8426C79.4389 87.5845 78.7403 87.1711 78.1481 86.6286C77.5559 86.0861 77.0829 85.4264 76.7593 84.6913C76.4357 83.9562 76.2686 83.1619 76.2684 82.3587V69.4055H59.0702V83.8927C59.0755 85.4472 58.474 86.9424 57.3937 88.0603C56.3133 89.1781 54.8395 89.8303 53.2857 89.878L52.2222 89.9148C40.2628 90.3271 36.2341 90.4659 32.312 94.2547C25.7095 100.633 26.3133 110.648 27.0778 123.327L27.1441 124.43C28.5006 147.116 29.278 171.241 29.4551 196.144Z" fill="#090817"/>
<path d="M53.2693 89.4009C53.2693 89.4009 70.6883 101.336 84.3161 86.9988C84.3161 86.9988 105.248 81.8349 109.897 90.5291C114.545 99.2233 111.647 199.374 111.647 199.374H26.149C26.149 199.374 20.8699 106.749 26.149 97.2315C31.428 87.7137 53.2693 89.4009 53.2693 89.4009Z" fill="#080717"/>
<path d="M50.8695 89.0195C50.8695 89.0195 26.1604 86.1121 18.7409 103.438C11.3214 120.764 7.12695 160.146 7.12695 160.146L36.1865 165.985L50.8695 89.0195Z" fill="#080717"/>
<path d="M2.0257 199.847C1.9576 199.847 1.89026 199.833 1.82825 199.805C1.76623 199.776 1.71097 199.735 1.6662 199.684C1.62143 199.633 1.58818 199.572 1.56871 199.507C1.54924 199.442 1.54399 199.373 1.55332 199.306L7.30879 157.739C7.31739 157.677 7.33811 157.617 7.36976 157.563C7.40142 157.509 7.44339 157.462 7.49328 157.425C7.54317 157.387 7.6 157.359 7.66053 157.344C7.72106 157.328 7.7841 157.324 7.84606 157.333C7.90801 157.341 7.96767 157.362 8.02162 157.394C8.07557 157.425 8.12275 157.467 8.16048 157.517C8.19821 157.567 8.22574 157.624 8.24151 157.684C8.25727 157.745 8.26096 157.808 8.25237 157.87L2.49737 199.437C2.48153 199.55 2.42506 199.655 2.33838 199.73C2.25169 199.806 2.14063 199.847 2.0257 199.847Z" fill="#080717"/>
<path d="M98.4016 44.1032C98.3885 44.1032 98.376 44.1051 98.363 44.1052C98.3527 43.8823 98.3406 43.6628 98.3261 43.4492C98.3261 43.4492 98.3023 43.424 98.2559 43.376C97.2363 27.3666 83.9354 14.6953 67.6685 14.6953C51.1487 14.6953 37.6874 27.7633 37.0419 44.1247C36.1164 44.1833 35.2137 44.4365 34.3928 44.8677C33.5718 45.299 32.8511 45.8987 32.2778 46.6276C31.7044 47.3564 31.2914 48.1981 31.0656 49.0975C30.8398 49.997 30.8063 50.9339 30.9674 51.8472C31.1284 52.7604 31.4804 53.6294 32.0003 54.3973C32.5202 55.1652 33.1963 55.8148 33.9844 56.3035C34.7725 56.7923 35.6548 57.1092 36.5738 57.2337C37.4927 57.3581 38.4276 57.2872 39.3173 57.0255C39.3519 57.1097 39.3822 57.1961 39.4175 57.2798C42.4632 67.3898 49.3563 78.8883 64.9616 80.4446C85.0721 82.4504 93.8142 69.3191 96.9378 57.1245C97.8426 57.3307 98.7808 57.3436 99.691 57.1623C100.601 56.981 101.463 56.6096 102.22 56.0724C102.976 55.5351 103.611 54.8442 104.083 54.0447C104.554 53.2453 104.851 52.3553 104.955 51.433C105.059 50.5108 104.966 49.577 104.684 48.6928C104.402 47.8087 103.937 46.994 103.318 46.3021C102.7 45.6102 101.942 45.0567 101.095 44.6778C100.248 44.2988 99.3301 44.103 98.4021 44.1032H98.4016Z" fill="white"/>
<path d="M69.0186 81.1285C67.7096 81.1285 66.3421 81.0584 64.9163 80.9183C48.9318 79.3239 42.0104 67.3976 39.0174 57.595C38.084 57.8052 37.1176 57.8236 36.1768 57.6492C35.236 57.4748 34.3404 57.1112 33.5444 56.5803C32.7483 56.0495 32.0684 55.3625 31.5457 54.561C31.0231 53.7595 30.6687 52.8603 30.5039 51.9177C30.3392 50.9752 30.3676 50.009 30.5874 49.0778C30.8072 48.1466 31.2139 47.2697 31.7827 46.5003C32.3515 45.7309 33.0706 45.0851 33.8965 44.6019C34.7224 44.1187 35.6378 43.8083 36.5872 43.6895C36.9882 35.7239 40.4408 28.2186 46.2286 22.7311C52.0164 17.2436 59.6949 14.1953 67.6705 14.2189C83.993 14.2189 97.6007 26.9279 98.7222 43.1819C98.7694 43.2517 98.7973 43.3328 98.803 43.417C98.8081 43.4902 98.8128 43.5644 98.8172 43.6388C100.654 43.7455 102.378 44.5642 103.621 45.921C104.864 47.2778 105.529 49.0658 105.475 50.9053C105.422 52.7447 104.653 54.4908 103.332 55.7725C102.012 57.0542 100.244 57.7707 98.4034 57.7697C98.0295 57.769 97.6562 57.7383 97.2873 57.6777C94.8349 66.8767 87.9718 81.1283 69.0186 81.1285ZM39.3192 56.5491C39.4136 56.5491 39.5058 56.5771 39.5843 56.6296C39.6627 56.6821 39.7237 56.7567 39.7597 56.844L39.8586 57.0948C39.865 57.1104 39.8705 57.1263 39.8755 57.1425C42.7549 66.7001 49.4525 78.4191 65.0107 79.9706C86.7165 82.1372 94.0433 66.5122 96.4781 57.0063C96.5089 56.8861 96.5853 56.7828 96.6912 56.7181C96.797 56.6535 96.9239 56.6326 97.0448 56.6601C97.884 56.8515 98.7541 56.8637 99.5984 56.6958C100.443 56.5279 101.242 56.1837 101.944 55.6858C102.646 55.1878 103.235 54.5473 103.673 53.8061C104.11 53.0649 104.387 52.2396 104.483 51.3843C104.58 50.5291 104.496 49.663 104.235 48.8427C103.974 48.0224 103.543 47.2664 102.97 46.6241C102.397 45.9818 101.695 45.4676 100.909 45.1153C100.124 44.7629 99.2732 44.5802 98.4124 44.5792C98.3975 44.58 98.3736 44.5811 98.3648 44.5811C98.2423 44.5813 98.1244 44.5342 98.0357 44.4496C97.947 44.3651 97.8943 44.2496 97.8886 44.1272C97.8809 43.9635 97.8723 43.8015 97.8625 43.6425C97.815 43.5723 97.7871 43.4906 97.7818 43.406C96.774 27.5739 83.5471 15.1713 67.6705 15.1713C59.8691 15.1484 52.3639 18.1571 46.7385 23.5625C41.1132 28.9679 37.8077 36.3472 37.5196 44.1433C37.5149 44.261 37.4668 44.3727 37.3846 44.457C37.3024 44.5413 37.1918 44.5922 37.0743 44.5997C36.2156 44.6539 35.378 44.8888 34.6163 45.2889C33.8545 45.689 33.1858 46.2454 32.6538 46.9216C32.1218 47.5979 31.7386 48.3788 31.5291 49.2133C31.3196 50.0478 31.2885 50.9172 31.438 51.7645C31.5875 52.6119 31.9141 53.4181 32.3966 54.1306C32.879 54.843 33.5063 55.4456 34.2376 55.899C34.9689 56.3524 35.7876 56.6464 36.6403 56.7617C37.4929 56.877 38.3603 56.8111 39.1857 56.5682C39.2291 56.5555 39.274 56.5491 39.3192 56.5491Z" fill="#090817"/>
<path d="M24.2337 161.233C24.1081 161.233 23.9876 161.184 23.8984 161.095C23.8093 161.007 23.7586 160.887 23.7575 160.761L23.3262 112.285C23.3256 112.223 23.3374 112.16 23.3608 112.102C23.3843 112.045 23.4189 111.992 23.4627 111.947C23.5065 111.902 23.5587 111.867 23.6163 111.843C23.6739 111.818 23.7357 111.805 23.7982 111.805H23.8024C23.928 111.805 24.0485 111.854 24.1376 111.943C24.2268 112.031 24.2775 112.151 24.2786 112.277L24.7099 160.753C24.7104 160.815 24.6987 160.877 24.6752 160.935C24.6518 160.993 24.6172 161.046 24.5734 161.091C24.5295 161.135 24.4773 161.171 24.4198 161.195C24.3622 161.22 24.3004 161.233 24.2379 161.233H24.2337Z" fill="white"/>
<path d="M60.6546 45.4627C60.5587 45.4627 60.4651 45.4336 60.386 45.3793C60.1765 45.2365 55.1814 41.9121 49.136 45.3674C49.0265 45.4279 48.8976 45.4428 48.7772 45.409C48.6568 45.3752 48.5545 45.2954 48.4924 45.1868C48.4304 45.0782 48.4135 44.9496 48.4455 44.8287C48.4776 44.7078 48.5559 44.6043 48.6635 44.5406C55.2398 40.7811 60.8692 44.5555 60.9254 44.5939C61.0091 44.6515 61.0722 44.7344 61.1055 44.8305C61.1387 44.9265 61.1403 45.0307 61.1101 45.1277C61.0799 45.2248 61.0194 45.3096 60.9375 45.3698C60.8556 45.43 60.7566 45.4624 60.6549 45.4623L60.6546 45.4627Z" fill="#080717"/>
<path d="M56.0052 55.0417C57.6391 55.0417 58.9635 53.7172 58.9635 52.0833C58.9635 50.4495 57.6391 49.125 56.0052 49.125C54.3714 49.125 53.0469 50.4495 53.0469 52.0833C53.0469 53.7172 54.3714 55.0417 56.0052 55.0417Z" fill="#080717"/>
<path d="M65.5446 59.1884C65.0552 59.1884 64.6605 59.1632 64.4768 59.1491C64.4145 59.1443 64.3537 59.1272 64.2979 59.099C64.2421 59.0707 64.1925 59.0317 64.1518 58.9842C64.0696 58.8883 64.0288 58.7637 64.0385 58.6378C64.0482 58.5118 64.1075 58.3949 64.2034 58.3127C64.2993 58.2305 64.4239 58.1897 64.5498 58.1994C66.141 58.3211 68.0629 58.1336 68.3891 57.6179C68.6898 57.0353 67.4949 53.3109 66.1891 50.1998C66.1402 50.0834 66.1395 49.9523 66.1872 49.8353C66.2349 49.7184 66.3271 49.6252 66.4436 49.5763C66.56 49.5273 66.6911 49.5266 66.808 49.5744C66.925 49.6221 67.0181 49.7143 67.0671 49.8307C67.9516 51.9379 69.9293 56.9636 69.1941 58.1267C68.6245 59.0281 66.7818 59.1884 65.5446 59.1884Z" fill="#080717"/>
<path d="M55.8176 59.6608C55.8304 58.1875 54.011 56.9773 51.7539 56.9578C49.4969 56.9383 47.6569 58.1169 47.6441 59.5902C47.6314 61.0635 49.4508 62.2736 51.7078 62.2931C53.9649 62.3126 55.8049 61.1341 55.8176 59.6608Z" fill="url(#paint1_linear_467_5173)"/>
<path d="M62.417 72.3646C60.6287 72.3646 59.1738 70.5882 59.1738 68.4048C59.1738 66.2215 60.6287 64.4453 62.417 64.4453C64.2054 64.4453 65.6601 66.2215 65.6601 68.4048C65.6601 70.5882 64.2053 72.3646 62.417 72.3646ZM62.417 65.3977C61.1539 65.3977 60.1262 66.7469 60.1262 68.4048C60.1262 70.0628 61.1539 71.4122 62.417 71.4122C63.6801 71.4122 64.7078 70.0632 64.7078 68.4048C64.7078 66.7465 63.68 65.3977 62.417 65.3977Z" fill="#080717"/>
<path d="M33.7524 44.9877C33.7524 44.9877 36.1319 43.8798 37.1834 44.9877C38.2348 46.0955 38.3455 48.1984 39.9503 48.1984C41.555 48.1984 41.2784 38.5697 42.8278 34.2532C44.3772 29.9368 48.8992 25.7312 48.8992 25.7312C48.8992 25.7312 58.7653 32.0398 62.9706 29.7156C67.176 27.3915 62.9706 23.4071 62.9706 23.4071C62.9706 23.4071 71.6033 30.7117 76.0301 28.9409C80.4569 27.17 77.0262 23.4071 77.0262 23.4071C77.0262 23.4071 86.7825 31.215 93.5806 28.9712C100.379 26.7274 100.711 17.6049 97.6119 14.6955C94.513 11.7861 86.0651 14.6955 86.0651 14.6955C86.0651 14.6955 64.6372 -1.65259 47.6451 14.6955C47.6451 14.6955 39.5072 15.5491 35.7442 20.8622C31.9812 26.1753 33.7524 44.9877 33.7524 44.9877Z" fill="#080717"/>
<path d="M111.646 140.13C111.53 140.13 111.418 140.087 111.331 140.01C111.244 139.933 111.188 139.827 111.174 139.711L108.244 115.51C108.229 115.385 108.264 115.258 108.342 115.159C108.42 115.06 108.534 114.995 108.659 114.98C108.785 114.965 108.911 115 109.011 115.078C109.11 115.156 109.174 115.27 109.19 115.396L112.12 139.597C112.128 139.664 112.122 139.732 112.102 139.796C112.081 139.86 112.048 139.92 112.003 139.97C111.958 140.02 111.903 140.061 111.842 140.088C111.78 140.116 111.714 140.13 111.646 140.13Z" fill="white"/>
<path d="M149.302 53.4509C161.758 53.4509 171.855 43.3533 171.855 30.8973C171.855 18.4413 161.758 8.34375 149.302 8.34375C136.846 8.34375 126.748 18.4413 126.748 30.8973C126.748 43.3533 136.846 53.4509 149.302 53.4509Z" fill="white"/>
<path d="M149.301 54.4025C136.34 54.4025 125.795 43.8578 125.795 30.8967C125.795 17.9356 136.34 7.39062 149.301 7.39062C162.262 7.39062 172.807 17.9354 172.807 30.8967C172.807 43.858 162.262 54.4025 149.301 54.4025ZM149.301 9.29539C137.39 9.29539 127.7 18.9859 127.7 30.8967C127.7 42.8075 137.39 52.4978 149.301 52.4978C161.212 52.4978 170.902 42.8073 170.902 30.8967C170.902 18.9861 161.212 9.29539 149.301 9.29539Z" fill="#090817"/>
<path d="M149.3 32.6283C154.132 32.6283 158.048 28.7118 158.048 23.8805C158.048 19.0493 154.132 15.1328 149.3 15.1328C144.469 15.1328 140.553 19.0493 140.553 23.8805C140.553 28.7118 144.469 32.6283 149.3 32.6283Z" fill="#080717"/>
<path d="M160.368 40.3645C160.368 37.4292 159.201 34.6141 157.126 32.5385C155.05 30.4629 152.235 29.2969 149.3 29.2969C146.365 29.2969 143.55 30.463 141.474 32.5386C139.398 34.6141 138.232 37.4292 138.232 40.3645V46.6604H160.368V40.3645Z" fill="#080717"/>
<path d="M168.893 42.3627C168.707 42.3627 168.524 42.319 168.358 42.2352L128.793 22.3137C128.651 22.2444 128.525 22.1477 128.422 22.0294C128.318 21.911 128.239 21.7733 128.189 21.6241C128.139 21.475 128.119 21.3174 128.13 21.1604C128.141 21.0035 128.183 20.8504 128.254 20.7098C128.325 20.5693 128.423 20.4442 128.542 20.3418C128.662 20.2393 128.8 20.1615 128.95 20.1129C129.099 20.0643 129.257 20.0459 129.414 20.0586C129.571 20.0714 129.723 20.1151 129.863 20.1872L169.429 40.1089C169.669 40.2293 169.861 40.427 169.974 40.6699C170.087 40.9129 170.115 41.1869 170.053 41.4477C169.991 41.7085 169.843 41.9407 169.632 42.1068C169.422 42.2729 169.162 42.3631 168.894 42.3629L168.893 42.3627Z" fill="url(#paint2_linear_467_5173)"/>
<path d="M38.2405 36.4977C38.118 36.4976 38.0003 36.4504 37.9118 36.3658C37.8233 36.2812 37.7708 36.1657 37.7651 36.0434C37.7512 35.7346 37.488 28.4313 43.2788 24.3439C43.382 24.2717 43.5096 24.2432 43.6337 24.2649C43.7578 24.2865 43.8683 24.3565 43.941 24.4594C44.0136 24.5623 44.0425 24.6899 44.0213 24.814C44.0001 24.9382 43.9306 25.049 43.828 25.122C38.4708 28.9036 38.7136 35.93 38.7167 36.0006C38.7222 36.1267 38.6774 36.2499 38.5922 36.343C38.5069 36.4362 38.3882 36.4916 38.262 36.4972C38.2549 36.4975 38.2476 36.4977 38.2405 36.4977Z" fill="white"/>
<path d="M59.503 27.7226C56.5776 27.7226 52.0595 23.2957 51.5166 22.7526C51.429 22.663 51.3802 22.5424 51.3809 22.417C51.3816 22.2917 51.4317 22.1716 51.5203 22.083C51.6089 21.9943 51.729 21.9442 51.8543 21.9435C51.9797 21.9428 52.1003 21.9915 52.1899 22.0792C53.6744 23.5628 57.955 27.2859 59.9102 26.7176C60.0513 26.6792 60.1818 26.6093 60.292 26.5132C60.4021 26.417 60.489 26.2971 60.546 26.1625C61.2046 24.7688 60.0901 21.5232 59.6055 20.3901C59.5636 20.2922 59.5558 20.1831 59.5832 20.0801C59.6106 19.9772 59.6717 19.8865 59.7568 19.8224C59.8419 19.7583 59.946 19.7246 60.0525 19.7267C60.159 19.7287 60.2617 19.7664 60.3442 19.8337C60.4257 19.9002 68.5448 26.459 72.199 24.3292C72.3081 24.2655 72.438 24.2478 72.5601 24.2799C72.6823 24.3121 72.7867 24.3914 72.8503 24.5005C72.914 24.6096 72.9317 24.7395 72.8995 24.8616C72.8674 24.9837 72.7881 25.0881 72.679 25.1518C69.4052 27.0614 63.6417 23.4282 61.0539 21.5662C61.5324 23.0562 62.033 25.2448 61.408 26.5687C61.2925 26.8249 61.1225 27.0528 60.9098 27.2365C60.6971 27.4202 60.4469 27.5553 60.1766 27.6323C59.9575 27.6941 59.7307 27.7246 59.503 27.7226Z" fill="white"/>
<path d="M89.8084 24.9236C88.1843 24.9236 86.3714 24.5743 84.3985 23.873C82.1164 23.0421 79.9421 21.9405 77.9223 20.5918C77.8196 20.5193 77.7497 20.4091 77.7279 20.2852C77.7061 20.1614 77.7342 20.0339 77.8061 19.9307C77.8779 19.8275 77.9876 19.7569 78.1113 19.7343C78.2351 19.7117 78.3627 19.739 78.4664 19.8101C78.5759 19.8861 89.498 27.3759 94.9049 22.0745C94.9956 21.989 95.1163 21.9425 95.2409 21.9449C95.3656 21.9473 95.4843 21.9986 95.5716 22.0876C95.6589 22.1766 95.7078 22.2963 95.7078 22.421C95.7078 22.5457 95.6589 22.6654 95.5716 22.7544C94.0999 24.1976 92.1503 24.9236 89.8084 24.9236Z" fill="white"/>
<path d="M101.262 100.644C103.61 106.78 125.789 163.554 146.991 160.651C147.722 160.551 151.509 160.032 153.765 157.203C163.684 144.762 128.4 107.227 114.162 92.7344L101.262 100.644Z" fill="white"/>
<path d="M145.39 161.236C136.715 161.236 127.055 152.18 116.644 134.276C108.442 120.17 102.456 105.097 100.817 100.813C100.777 100.71 100.775 100.595 100.811 100.49C100.846 100.385 100.918 100.295 101.013 100.237L113.913 92.3279C114.005 92.2717 114.113 92.2482 114.219 92.2614C114.326 92.2745 114.426 92.3234 114.501 92.4001C126.676 104.793 136.401 115.914 143.406 125.456C154.946 141.175 158.556 151.956 154.137 157.499C152.072 160.09 148.815 160.881 147.057 161.122C146.505 161.198 145.947 161.236 145.39 161.236ZM101.848 100.842C104.909 108.771 126.619 162.957 146.927 160.179C148.544 159.957 151.534 159.237 153.392 156.905C160.06 148.542 146.103 125.972 114.087 93.3374L101.848 100.842Z" fill="#090817"/>
<path d="M94.1001 67.2875L89.6699 68.8438L94.9469 83.8653L99.3771 82.309L94.1001 67.2875Z" fill="#080717"/>
<path d="M98.049 78.7318L93.7457 80.2435C92.2002 80.7864 91.3874 82.4795 91.9303 84.025L100.934 109.655C101.477 111.201 103.17 112.014 104.716 111.471L109.019 109.959C110.564 109.416 111.377 107.723 110.834 106.178L101.83 80.5471C101.288 79.0016 99.5945 78.1889 98.049 78.7318Z" fill="white"/>
<path d="M103.735 112.113C103.022 112.113 102.326 111.891 101.744 111.479C101.162 111.067 100.722 110.484 100.485 109.811L91.4806 84.181C91.1791 83.3196 91.2316 82.3737 91.6266 81.551C92.0217 80.7282 92.727 80.0958 93.5878 79.7924L97.891 78.2805C98.3175 78.1307 98.7694 78.0663 99.2208 78.0911C99.6722 78.1159 100.114 78.2294 100.522 78.4251C100.929 78.6207 101.294 78.8948 101.596 79.2315C101.898 79.5683 102.13 79.9611 102.28 80.3877L111.284 106.019C111.434 106.445 111.498 106.897 111.473 107.348C111.448 107.8 111.335 108.242 111.139 108.65C110.944 109.057 110.67 109.422 110.333 109.724C109.996 110.025 109.603 110.258 109.176 110.407L104.873 111.919C104.508 112.047 104.123 112.113 103.735 112.113ZM99.0292 79.0382C98.7489 79.0383 98.4707 79.0859 98.2063 79.1791L93.9032 80.691C93.2807 80.9106 92.7707 81.368 92.4851 81.9631C92.1994 82.5582 92.1614 83.2423 92.3794 83.8653L101.384 109.496C101.603 110.119 102.06 110.629 102.656 110.915C103.251 111.2 103.935 111.238 104.558 111.02L108.861 109.508C109.484 109.289 109.995 108.832 110.28 108.237C110.566 107.641 110.604 106.957 110.385 106.334L101.381 80.7029C101.209 80.2162 100.891 79.7948 100.47 79.4966C100.049 79.1984 99.5453 79.0383 99.0292 79.0382Z" fill="#090817"/>
<path d="M87.3466 73.5917C97.5331 73.5917 105.791 65.3339 105.791 55.1474C105.791 44.9609 97.5331 36.7031 87.3466 36.7031C77.1601 36.7031 68.9023 44.9609 68.9023 55.1474C68.9023 65.3339 77.1601 73.5917 87.3466 73.5917Z" fill="white"/>
<path d="M87.3634 74.0704C79.5539 74.0704 72.2272 69.1955 69.4953 61.4196C68.6718 59.0754 68.318 56.5919 68.4542 54.111C68.5905 51.63 69.2141 49.2002 70.2894 46.9603C71.3647 44.7203 72.8707 42.7141 74.7213 41.0562C76.572 39.3983 78.7311 38.1211 81.0753 37.2976C90.9187 33.8392 101.739 39.0343 105.197 48.8774C106.198 51.7289 106.502 54.7787 106.083 57.7716C105.663 60.7645 104.533 63.6134 102.787 66.0801C101.041 68.5467 98.7297 70.5593 96.0463 71.9494C93.3629 73.3396 90.3856 74.0668 87.3634 74.0704ZM87.3302 37.179C84.46 37.1819 81.6323 37.8722 79.0837 39.1922C76.535 40.5123 74.3397 42.4236 72.6813 44.7662C71.023 47.1088 69.9499 49.8146 69.5519 52.657C69.154 55.4995 69.4426 58.3959 70.3938 61.1039C73.6776 70.4509 83.9545 75.3843 93.3016 72.1009C102.649 68.8176 107.582 58.5408 104.299 49.1931C101.705 41.8092 94.7461 37.179 87.3302 37.179Z" fill="#090817"/>
<path d="M87.3473 71.2141C96.2214 71.2141 103.415 64.0202 103.415 55.1461C103.415 46.272 96.2214 39.0781 87.3473 39.0781C78.4732 39.0781 71.2793 46.272 71.2793 55.1461C71.2793 64.0202 78.4732 71.2141 87.3473 71.2141Z" fill="white"/>
<path d="M87.3343 71.6984C83.9095 71.6909 80.571 70.6226 77.7781 68.6404C74.9851 66.6583 72.8747 63.8596 71.7372 60.6291C68.7134 52.022 73.256 42.5602 81.8628 39.5367C83.9126 38.8166 86.0841 38.5073 88.2534 38.6265C90.4228 38.7456 92.5474 39.2908 94.506 40.231C96.4646 41.1713 98.2188 42.4881 99.6685 44.1063C101.118 45.7244 102.235 47.6123 102.955 49.6621C105.979 58.2692 101.437 67.731 92.8298 70.7547C91.0644 71.3776 89.2063 71.6966 87.3343 71.6984ZM87.3581 39.5458C85.5938 39.5474 83.8425 39.8482 82.1787 40.4352C74.0674 43.2847 69.7866 52.2021 72.6357 60.3134C74.0064 64.2149 76.8707 67.4121 80.5986 69.2017C84.3265 70.9913 88.6127 71.2268 92.5142 69.8563C100.626 67.0065 104.906 58.0891 102.057 49.9778C100.985 46.9335 98.9958 44.2961 96.3638 42.4281C93.7317 40.5601 90.5857 39.5532 87.3581 39.5458Z" fill="#090817"/>
<path d="M116.473 95.103C116.473 95.103 108.214 86.2271 104.997 84.5352C101.781 82.8433 92.5304 84.1986 91.7692 85.8821C91.008 87.5655 93.1478 89.9265 93.1478 89.9265C93.1478 89.9265 91.6927 92.5827 94.5224 93.9846C94.5224 93.9846 92.7042 96.4933 95.951 97.8952C95.951 97.8952 94.9105 100.811 98.2346 101.973C101.559 103.134 107.314 101.732 109.232 103.503C111.151 105.273 110.996 106.823 110.996 106.823" fill="white"/>
<path d="M110.996 107.299C110.98 107.299 110.964 107.299 110.948 107.297C110.886 107.291 110.826 107.272 110.771 107.243C110.716 107.213 110.667 107.173 110.627 107.125C110.588 107.076 110.558 107.021 110.54 106.961C110.522 106.901 110.516 106.838 110.522 106.776C110.526 106.726 110.603 105.417 108.909 103.853C107.984 102.999 105.747 102.99 103.583 102.982C101.643 102.975 99.6377 102.967 98.0777 102.423C96.8992 102.011 96.0835 101.346 95.6533 100.447C95.3282 99.7307 95.2375 98.9305 95.3941 98.16C94.4399 97.6703 93.8464 97.0221 93.6288 96.229C93.4026 95.4045 93.6505 94.6351 93.873 94.1675C93.1445 93.7097 92.6627 93.1177 92.4376 92.4025C92.1281 91.4187 92.4019 90.4745 92.5898 90.005C92.0338 89.3152 90.6029 87.3058 91.3349 85.6868C91.5699 85.1669 92.2516 84.7193 93.4182 84.3184C96.353 83.31 102.557 82.714 105.219 84.1145C108.471 85.8246 116.483 94.4146 116.823 94.7795C116.909 94.872 116.954 94.9949 116.95 95.1211C116.945 95.2473 116.891 95.3666 116.798 95.4526C116.706 95.5386 116.583 95.5844 116.457 95.5798C116.33 95.5752 116.211 95.5207 116.125 95.4282C116.043 95.3401 107.885 86.5926 104.776 84.9576C102.587 83.8062 96.8711 84.1389 93.7282 85.2195C92.7358 85.5605 92.2867 85.8959 92.2037 86.0796C91.6849 87.2269 92.9644 89.0156 93.5013 89.6081C93.5677 89.6814 93.6097 89.7737 93.6213 89.872C93.6328 89.9703 93.6135 90.0697 93.566 90.1565C93.5616 90.1646 93.0395 91.1531 93.3493 92.124C93.5374 92.7139 94.0041 93.1966 94.7352 93.5591C94.7973 93.5899 94.8519 93.6338 94.8952 93.6878C94.9386 93.7418 94.9696 93.8046 94.9862 93.8718C95.0028 93.9391 95.0045 94.0091 94.9912 94.0771C94.978 94.145 94.9501 94.2093 94.9094 94.2653C94.9045 94.272 94.3095 95.1225 94.55 95.9836C94.7167 96.5788 95.2514 97.0752 96.1411 97.4597C96.2521 97.5077 96.3407 97.5961 96.3889 97.7069C96.4372 97.8178 96.4414 97.9429 96.4008 98.0568C96.3663 98.1558 95.5756 100.54 98.393 101.525C99.802 102.017 101.726 102.025 103.588 102.031C106.041 102.04 108.359 102.049 109.556 103.155C111.626 105.064 111.478 106.799 111.471 106.872C111.459 106.989 111.403 107.098 111.316 107.177C111.228 107.256 111.114 107.3 110.996 107.299Z" fill="#090817"/>
<path d="M80.0528 45.1896C79.9511 45.1897 79.852 45.1572 79.7701 45.0969C79.6881 45.0366 79.6277 44.9516 79.5975 44.8544C79.5674 44.7573 79.5692 44.653 79.6026 44.557C79.636 44.4609 79.6993 44.378 79.7833 44.3205C81.6612 43.0447 83.8764 42.3565 86.1467 42.3438H86.1659C88.3556 42.3529 90.4968 42.9894 92.3359 44.178C92.4382 44.2484 92.5091 44.3561 92.5332 44.478C92.5573 44.5998 92.5328 44.7263 92.465 44.8304C92.3971 44.9345 92.2913 45.008 92.17 45.0351C92.0488 45.0622 91.9217 45.0409 91.816 44.9757C90.1319 43.8872 88.1712 43.3043 86.1661 43.2958H86.1486C84.0696 43.3076 82.0411 43.9378 80.3213 45.1061C80.2423 45.1604 80.1487 45.1895 80.0528 45.1896Z" fill="#080717"/>
<path d="M85.3466 56.1269C87.2435 56.1269 88.7812 54.5892 88.7812 52.6923C88.7812 50.7955 87.2435 49.2578 85.3466 49.2578C83.4498 49.2578 81.9121 50.7955 81.9121 52.6923C81.9121 54.5892 83.4498 56.1269 85.3466 56.1269Z" fill="#080717"/>
<path d="M93.0416 61.8598C93.0563 60.1493 90.944 58.7443 88.3236 58.7217C85.7032 58.6991 83.5669 60.0674 83.5521 61.7779C83.5374 63.4884 85.6497 64.8934 88.2701 64.916C90.8905 64.9386 93.0268 63.5703 93.0416 61.8598Z" fill="url(#paint3_linear_467_5173)"/>
<path d="M93.4419 89.956C93.3253 89.9558 93.2128 89.9127 93.1258 89.835C93.0388 89.7574 92.9834 89.6505 92.97 89.5346C92.9565 89.4188 92.9861 89.302 93.053 89.2065C93.12 89.111 93.2196 89.0434 93.3331 89.0165C93.489 88.9793 97.1873 88.1173 99.4245 88.342C99.5502 88.3548 99.6657 88.4169 99.7455 88.5148C99.8253 88.6127 99.863 88.7383 99.8502 88.864C99.8375 88.9897 99.7753 89.1051 99.6774 89.185C99.5795 89.2648 99.4539 89.3025 99.3282 89.2897C97.2505 89.077 93.5886 89.9347 93.5517 89.9433C93.5157 89.9518 93.4789 89.9561 93.4419 89.956Z" fill="#080717"/>
<path d="M94.5231 94.4572C94.4073 94.4572 94.2954 94.415 94.2085 94.3384C94.1215 94.2619 94.0654 94.1563 94.0507 94.0415C94.036 93.9266 94.0637 93.8103 94.1285 93.7143C94.1934 93.6183 94.291 93.5493 94.4031 93.5201C94.5222 93.4889 97.3555 92.7629 100.22 93.1392C100.345 93.1556 100.458 93.2212 100.535 93.3214C100.612 93.4216 100.646 93.5482 100.63 93.6735C100.613 93.7987 100.548 93.9123 100.447 93.9892C100.347 94.0661 100.221 94.1001 100.095 94.0836C97.4217 93.7309 94.6707 94.4341 94.643 94.4407C94.6039 94.4513 94.5636 94.4568 94.5231 94.4572Z" fill="#080717"/>
<path d="M101.26 98.3732C101.202 98.3731 101.145 98.3624 101.09 98.3415C98.7763 97.4575 96.1306 98.3383 96.1043 98.3473C95.985 98.3874 95.8548 98.3786 95.742 98.3229C95.6291 98.2672 95.5429 98.1691 95.5022 98.0501C95.4615 97.931 95.4695 97.8007 95.5246 97.6876C95.5796 97.5744 95.6772 97.4877 95.796 97.4463C95.9167 97.4047 98.7882 96.4421 101.43 97.4519C101.534 97.4915 101.621 97.5663 101.676 97.6634C101.731 97.7606 101.75 97.8738 101.729 97.9834C101.709 98.093 101.651 98.192 101.565 98.2632C101.48 98.3345 101.372 98.3734 101.26 98.3732Z" fill="#080717"/>
<path d="M44.6815 133.918C50.9475 133.918 56.0271 128.838 56.0271 122.572C56.0271 116.306 50.9475 111.227 44.6815 111.227C38.4155 111.227 33.3359 116.306 33.3359 122.572C33.3359 128.838 38.4155 133.918 44.6815 133.918Z" fill="url(#paint4_linear_467_5173)"/>
<defs>
<linearGradient id="paint0_linear_467_5173" x1="114.092" y1="8.89844" x2="114.092" y2="199.375" gradientUnits="userSpaceOnUse">
<stop stop-color="#CEB7A1"/>
<stop offset="1" stop-color="#CE202F"/>
</linearGradient>
<linearGradient id="paint1_linear_467_5173" x1="47.6441" y1="59.5902" x2="55.8176" y2="59.6608" gradientUnits="userSpaceOnUse">
<stop stop-color="#CEB7A1"/>
<stop offset="1" stop-color="#CE202F"/>
</linearGradient>
<linearGradient id="paint2_linear_467_5173" x1="149.106" y1="20.0547" x2="149.106" y2="42.3629" gradientUnits="userSpaceOnUse">
<stop stop-color="#CEB7A1"/>
<stop offset="1" stop-color="#CE202F"/>
</linearGradient>
<linearGradient id="paint3_linear_467_5173" x1="83.5521" y1="61.7779" x2="93.0416" y2="61.8598" gradientUnits="userSpaceOnUse">
<stop stop-color="#CEB7A1"/>
<stop offset="1" stop-color="#CE202F"/>
</linearGradient>
<linearGradient id="paint4_linear_467_5173" x1="44.6815" y1="111.227" x2="44.6815" y2="133.918" gradientUnits="userSpaceOnUse">
<stop stop-color="#CEB7A1"/>
<stop offset="1" stop-color="#CE202F"/>
</linearGradient>
</defs>
</svg>
