<svg width="251" height="251" viewBox="0 0 251 251" fill="none" xmlns="http://www.w3.org/2000/svg">
<path d="M132.278 70.6882C128.488 70.6882 124.698 70.6148 120.911 70.7318C119.7 70.7698 118.484 71.1072 117.241 71.1155C116.835 71.1155 116.588 71.4691 116.329 71.7602C115.29 72.9411 114.468 73.5641 112.659 73.6212C112.504 73.6212 112.202 74.5001 112.079 74.6388C110.469 76.4763 108.861 78.3165 107.256 80.1593C106.894 80.5756 106.589 81.0355 106.845 81.5877C107.568 83.1413 106.894 84.3602 105.977 85.5437C102.712 89.7473 99.4197 93.9238 96.2065 98.1655C91.8532 103.904 87.3259 109.503 82.4202 114.762C80.4694 116.849 79.4954 118.843 79.5471 121.6C79.6614 127.732 79.4572 133.87 79.7974 140.003C79.8845 141.532 79.928 143.067 79.9742 144.598C80.0314 146.47 79.226 147.77 77.5037 148.593C75.3167 149.669 73.0544 150.585 70.7345 151.335C67.6736 152.282 65.4915 154.217 63.9869 156.989C63.8265 157.337 63.6361 157.669 63.4182 157.984C62.3654 159.313 62.3871 160.495 63.2087 162.085C65.0752 165.69 65.486 169.752 66.2016 173.694C67.0914 178.592 67.7687 183.535 67.8559 188.528C67.9429 193.425 67.9266 198.304 67.0995 203.144C66.8927 204.349 66.3459 205.41 65.0697 205.658C64.1529 205.835 63.9815 206.259 63.8862 207.078C63.6712 209.127 63.3204 211.159 63.3149 213.23C63.3009 214.242 63.6826 215.218 64.3787 215.95C65.8812 217.697 67.4924 219.344 69.2026 220.887C69.5955 221.239 69.9595 221.622 70.291 222.032C71.3792 223.393 70.9847 224.48 69.2734 224.797C67.1784 225.197 65.067 225.068 62.9639 224.899C57.9467 224.529 52.9432 223.948 47.9071 223.972C46.1385 223.972 44.37 224.195 42.6042 224.339C40.3895 224.522 39.4807 223.939 39.4155 221.717C39.3094 218.128 39.3447 214.528 39.5189 210.939C39.8671 203.71 40.278 196.475 39.995 189.242C39.723 182.072 39.5134 174.878 37.7749 167.85C37.3559 166.155 36.8552 164.585 35.0785 163.712C34.1345 163.252 33.914 162.278 34.2106 161.214C34.7547 159.269 35.6145 157.459 36.4661 155.642C36.7627 155.01 36.7382 154.799 35.971 154.458C31.1035 152.32 26.3584 149.962 21.997 146.859C14.3516 141.418 10.167 129.903 18.7321 119.828C25.4877 111.878 33.827 106.211 43.3606 102.198C44.3237 101.792 43.9619 101.324 43.7877 100.756C40.8856 91.3526 37.9771 81.9487 35.0622 72.5438C34.1916 69.717 33.3345 66.8818 32.6135 64.0142C32.4067 63.198 32.0367 62.9258 31.3266 62.7681C28.6466 62.1505 27.4576 60.5723 27.7515 58.0937C28.0235 55.8655 30.075 54.1241 32.4694 54.0996C34.5371 54.0778 34.5589 54.0778 34.5644 52.0726C34.5644 49.4226 35.4077 47.2841 37.9897 46.1223C41.0616 44.7401 43.6707 45.7985 46.125 47.646C46.5794 47.9887 46.9411 48.4622 47.3601 48.8485C47.5915 49.0607 47.7601 49.4797 48.1574 49.3328C48.5546 49.1858 48.4295 48.7642 48.4866 48.4513C49.1505 44.3918 51.6562 41.9595 55.6477 41.6738C58.7249 41.4535 61.1709 42.6668 62.7652 45.3468C63.1597 46.0053 63.3829 46.1468 64.1447 45.8067C67.2192 44.4327 70.5657 45.5156 72.8811 48.5138C75.1965 51.5122 75.289 54.7717 73.1914 57.5061C72.3612 58.6298 71.3045 59.5668 70.0896 60.2567C69.1536 60.7656 69.1374 61.3125 69.4421 62.2076C72.201 70.2937 73.3165 78.6547 73.5559 87.1653C73.6729 91.3063 71.9832 94.4598 68.6585 96.8486C68.2912 97.1207 67.4396 97.2431 67.9701 98.1002C68.4326 98.8457 68.936 98.4457 69.4447 98.2253C70.6311 97.7138 71.8174 97.2077 72.9819 96.68C77.8249 94.5033 81.4789 91.0833 84.137 86.4688C86.8401 81.6653 89.9024 77.0732 93.2979 72.7316C94.2639 71.5153 95.2705 70.1522 97.2485 71.0147C97.8444 71.2868 97.9667 70.5168 98.228 70.1741C101.67 65.6657 105.846 62.1123 111.168 59.9847C112.199 59.5738 113.726 59.7643 114.191 58.793C114.656 57.8217 114.286 56.5375 114.302 55.3866C114.338 52.7011 114.354 50.013 114.433 47.3303C114.498 45.1673 115.018 44.6667 117.154 44.9007C123.629 45.6108 130.083 44.8055 136.542 44.664C139.535 44.5986 142.487 44.8108 145.461 44.8136C146.185 44.8136 146.5 45.1618 146.511 45.8638C146.522 46.5657 146.663 47.3086 146.578 48.0132C146.106 51.9447 146.544 55.8681 146.615 59.7942C146.666 62.6238 146.735 65.459 146.342 68.2641C146.035 70.4978 145.422 70.906 143.208 70.8977C139.562 70.8815 135.918 70.8977 132.273 70.8977L132.278 70.6882Z" fill="white"/>
<path d="M160.661 176.411C160.164 172.478 160.299 168.547 160.289 164.616C160.289 163.256 160.809 162.833 162.169 162.798C172.815 162.526 183.464 162.618 194.11 162.463C201.308 162.357 208.504 162.338 215.7 162.317C216.275 162.286 216.851 162.314 217.42 162.403C218.211 162.567 219.398 162.581 218.331 163.936C218.165 164.147 218.274 164.588 218.276 164.921C218.355 175.858 218.198 186.789 217.943 197.722C217.903 198.008 217.908 198.298 217.959 198.582C218.296 199.637 217.798 199.977 216.84 200.023C213.013 200.208 209.186 200.459 205.355 200.589C194.628 200.954 183.9 201.352 173.166 201.563C169.488 201.634 165.793 202.034 162.104 201.534C161.271 201.422 160.928 201.112 160.906 200.279C160.851 198.171 160.686 196.064 160.673 193.959C160.64 188.109 160.661 182.259 160.661 176.411Z" fill="white"/>
<path d="M134.404 138.914C135.938 138.914 137.473 138.914 139.008 138.914C139.753 138.914 140.158 139.063 140.321 140.002C140.77 142.57 140.566 145.158 140.756 147.732C141.281 154.768 141.08 161.812 140.795 168.853C140.703 171.105 140.506 171.354 138.254 171.558C128.929 172.409 119.581 172.222 110.229 172.219C108.254 172.219 107.781 171.773 107.677 169.77C107.359 164.272 107.149 158.767 106.788 153.274C106.54 149.535 106.309 145.81 107.002 142.103C107.438 139.777 107.666 139.558 109.963 139.477C115.04 139.294 120.117 139.125 125.199 139.017C128.265 138.952 131.334 139.017 134.4 139.017L134.404 138.914Z" fill="white"/>
<path d="M235.114 110.409C235.051 111.75 234.996 113.233 234.91 114.713C234.846 115.801 234.129 116.196 233.167 116.234C225.694 116.506 218.222 116.234 210.751 116.136C209.162 116.114 207.587 116.179 206.02 116.313C204.295 116.457 203.946 116.313 203.992 114.547C204.072 111.581 204.112 108.615 203.914 105.652C203.476 99.1036 203.462 92.5411 203.245 85.9867C203.199 84.6481 203.742 84.0305 205.06 84.0005C210.471 83.8699 215.88 83.636 221.289 83.625C224.972 83.625 228.657 83.8971 232.339 84.0902C233.622 84.1529 234.575 84.1203 234.175 86.1908C233.694 88.683 233.965 91.3466 234.094 93.926C234.367 99.3784 234.76 104.82 235.114 110.409Z" fill="white"/>
<path d="M225.688 50.5534C220.222 50.4418 214.762 50.7983 209.298 50.7601C206.937 50.7438 206.664 50.401 206.738 48.0748C206.948 41.5449 206.338 35.0449 206.58 28.5259C206.599 27.998 206.58 27.4701 206.648 26.9451C206.74 26.0418 207.272 25.5004 208.178 25.5846C217.282 26.439 226.372 25.0243 235.473 25.4731C235.712 25.4731 235.952 25.4731 236.19 25.5058C237.007 25.5711 237.492 25.854 237.048 26.79C236.685 27.5628 237.249 28.2729 237.249 29.0374C237.249 35.7033 237.295 42.3693 237.325 49.0324C237.325 50.0745 236.903 50.586 235.758 50.5696C232.4 50.518 229.045 50.5534 225.688 50.5534Z" fill="white"/>
<path d="M42.0463 94.6731C41.1021 91.7265 40.2424 89.1499 39.4506 86.5515C37.1353 78.9496 34.6104 71.4076 32.5725 63.7241C32.5351 63.4711 32.415 63.2375 32.2309 63.0599C32.0469 62.8823 31.8091 62.7704 31.5549 62.742C28.4914 62.0183 27.4139 60.5028 27.8791 57.6541C28.2165 55.5728 30.5455 53.7851 32.9371 54.1389C34.6294 54.3891 34.6268 53.7144 34.6131 52.4248C34.5696 48.2484 36.1585 46.2159 40.0248 45.5656C42.4735 45.1521 44.4651 46.3983 46.3179 47.8294C46.6934 48.1205 46.9873 48.515 47.341 48.8415C47.5749 49.0564 47.7545 49.4754 48.1328 49.353C48.5708 49.2143 48.5109 48.7435 48.5626 48.3789C49.1068 44.7168 51.1881 42.4721 54.7524 41.7511C57.9493 41.1035 61.0102 42.4749 62.7923 45.4895C63.2059 46.1833 63.4589 46.1153 64.0846 45.8323C65.3443 45.2783 66.7413 45.1151 68.0947 45.3639C69.448 45.6128 70.6955 46.2621 71.6757 47.228C74.0183 49.5679 75.414 52.237 74.1979 55.638C73.9531 56.3434 73.5558 56.986 73.0343 57.5203C72.5128 58.0545 71.8798 58.4671 71.1805 58.7288C69.0719 59.5804 66.8409 59.9015 64.6507 60.3939C61.4591 61.1068 58.3411 62.0264 55.5141 63.7378C52.6873 65.4491 50.7964 67.8761 50.0454 71.1574C49.8233 72.0893 49.5396 73.0055 49.1965 73.8999C49.1083 74.2005 48.9415 74.4721 48.7134 74.6868C48.4853 74.9015 48.204 75.0516 47.8988 75.1215C45.5561 75.6658 44.9059 76.6098 45.1045 79.0041C45.2011 80.3901 45.4605 81.7599 45.8771 83.0853C46.2659 84.2345 46.2525 85.4818 45.8391 86.6223C44.9031 89.2941 43.6053 91.7973 42.0463 94.6731Z" fill="#EEEEEE"/>
<path d="M63.135 156.521C58.6238 157.256 54.3277 158.098 49.9173 157.379C54.4937 156.663 59.1327 156.35 63.8587 155.259C62.0928 154.065 60.4577 155.43 58.8416 154.935C61.3963 153.763 64.3131 153.531 66.6992 151.888C64.7103 151.564 62.8575 152.666 60.8413 152.291C63.0642 150.93 65.8367 150.953 68.027 149.524C67.4093 149.124 65.9727 148.934 65.0341 148.98C64.0328 149.043 63.1295 149.796 61.7691 149.371C63.6737 148.19 65.7387 148.051 67.6542 146.863C66.2611 146.624 65.2055 147.038 64.1172 147.176C62.8438 147.339 61.5868 147.641 60.3081 147.856C59.8836 147.926 59.3748 147.993 59.111 147.584C58.8007 147.108 59.3286 146.811 59.5517 146.495C60.1836 145.651 60.681 144.714 61.0263 143.718C59.8401 143.949 59.0347 144.684 58.1532 145.239C57.337 145.753 56.5207 146.248 55.5793 146.441C55.2447 146.509 54.7332 146.661 54.5917 146.169C54.4801 145.771 54.8937 145.625 55.1957 145.498C56.9567 144.754 58.6507 143.861 60.2591 142.828C60.7433 142.529 61.2848 142.216 61.8426 142.695C62.4003 143.174 62.3078 143.873 62.0602 144.416C61.7147 145.184 61.1896 145.873 60.6318 146.773C62.3377 146.525 63.9103 146.289 65.483 146.069C66.0027 145.998 66.5251 145.94 67.0475 145.914C67.6705 145.884 68.3833 145.813 68.7235 146.458C69.1397 147.241 68.3398 147.603 67.9507 148.09C69.8063 148.749 69.8961 148.953 68.9901 150.405C72.5407 149.589 75.8492 148.139 79.1603 146.686C79.74 146.433 79.7835 146.06 79.7208 145.549C79.3291 142.316 79.2611 139.065 79.1468 135.814C78.9455 130.1 79.2012 124.416 79.4651 118.722C79.4923 118.148 79.4488 117.563 79.9712 117.133C80.5507 117.359 80.3303 117.87 80.314 118.235C80.0011 126.213 80.9751 134.114 81.6336 142.036C81.7451 143.369 81.6336 144.721 81.6336 146.063C81.6336 147.151 81.5302 148.183 80.344 148.696C79.7345 148.969 79.8325 149.575 79.7535 150.058C78.0992 160.508 76.5348 170.971 74.7881 181.406C73.4277 189.489 71.9748 197.559 70.2416 205.575C69.6975 208.116 69.4581 208.418 66.9767 208.619C63.7335 208.891 60.4985 209.31 57.2336 209.118C57.0486 209.118 56.82 208.97 56.7438 209.201C56.3792 210.304 55.3562 210.121 54.5672 210.26C49.5066 211.153 44.4322 211.62 39.3117 210.679C37.2521 210.301 36.9718 210.121 36.6536 208.01C36.1665 204.773 36.4141 201.504 36.2617 198.253C35.9733 192.076 35.821 185.901 35.6278 179.721C35.5153 176.226 35.4418 172.731 35.4075 169.236C35.3938 167.951 34.8905 166.695 35.2496 165.386C35.4237 164.749 34.7816 164.755 34.4333 164.616C33.1111 164.071 32.801 163.079 33.1437 161.816C33.4158 160.813 33.7967 159.83 34.1667 158.854C34.3381 158.401 34.594 157.906 35.1871 158.038C35.7802 158.168 35.7148 158.729 35.7067 159.21C35.6745 160.12 35.4588 161.014 35.0727 161.838C34.6238 162.848 35.2088 163.123 35.9407 163.313C38.5636 163.999 41.2027 164.633 43.831 165.329C47.6401 166.344 51.4492 167.359 55.2582 168.458C56.0282 168.681 56.3466 168.493 56.7737 167.914C58.2348 165.886 59.296 163.659 60.3625 161.414C61.1515 159.789 62.1418 158.269 63.135 156.521Z" fill="#777777"/>
<path d="M37.7854 132.721C38.8736 134.28 40.4626 135.279 41.9291 136.386C45.5299 139.16 49.4371 141.51 53.574 143.392C54.1183 143.629 54.3005 143.806 54.2025 144.516C53.5386 149.367 51.3811 153.475 48.2604 157.165C47.2619 158.346 46.3994 158.724 44.7234 158.164C38.6696 156.129 32.624 154.082 26.7254 151.634C22.7093 149.996 19.1685 147.376 16.4271 144.015C10.5802 136.835 10.3625 128.751 15.7443 121.136C19.9179 115.227 25.4684 110.852 31.5656 107.138C35.0238 105.029 38.4546 102.823 42.3699 101.604C43.1698 101.353 42.8596 100.964 42.7126 100.529C41.1863 96.0125 39.6164 91.5123 38.1363 86.9795C35.8536 80.0007 33.6144 73.0082 32.1179 65.8036C32.0309 65.3846 31.9819 64.9574 31.9166 64.5329C31.8323 63.9888 31.7016 63.6568 30.9861 63.5345C27.8083 62.9903 26.309 60.7865 26.777 57.527C27.1335 55.0266 29.944 52.7982 32.643 53.084C33.7668 53.2036 33.7913 52.937 33.7314 51.9738C33.4403 47.4682 37.8125 43.972 42.4379 44.957C44.4104 45.376 45.292 45.8195 47.0196 47.2777C48.5379 43.2565 51.022 40.3887 55.6581 40.2555C59.2524 40.1493 61.9431 41.5858 63.445 45.1093C66.1196 42.7123 68.99 42.8837 71.7516 44.7965C75.041 47.0737 76.649 50.3115 76.1049 54.3192C75.4928 58.8683 72.7448 61.2027 67.8528 61.853C64.83 62.2557 61.7446 62.2938 58.8034 63.2515C53.9386 64.835 50.9839 68.0237 50.369 73.2068C50.2574 74.1346 49.7704 75.0433 50.5649 75.9276C50.6251 76.005 50.6689 76.0938 50.6935 76.1887C50.7181 76.2836 50.723 76.3825 50.708 76.4793C50.693 76.5761 50.6583 76.6688 50.606 76.7518C50.5539 76.8347 50.4851 76.9061 50.4044 76.9616C50.2645 77.0581 50.0955 77.1031 49.9263 77.0887C49.757 77.0742 49.598 77.0014 49.4765 76.8826C49.4399 76.8515 49.4008 76.8233 49.3595 76.7983C48.6685 76.4527 48.04 75.6147 47.1829 76.1262C46.1571 76.7438 46.0158 77.9601 46.1436 78.9505C46.4156 81.1271 46.7176 83.4098 49.433 84.1008C49.7214 84.1716 50.0833 84.4301 49.9309 84.8463C49.8778 85.0363 49.755 85.1992 49.5871 85.3026C49.4191 85.406 49.2184 85.4422 49.0249 85.4041C47.2129 84.841 46.8483 86.185 46.2824 87.355C45.2158 89.5316 44.1058 91.6783 42.9956 93.8331C42.8106 94.195 43.0528 94.4725 43.1126 94.7881C43.5289 96.943 43.9696 99.0925 44.3179 101.255C44.4186 101.895 44.7641 102.999 43.2976 102.502C43.167 102.455 42.9466 102.627 42.7834 102.719C35.3285 106.934 27.8109 111.069 21.6838 117.213C18.65 120.206 16.2421 123.637 14.9988 127.772C13.7934 131.72 14.392 135.442 16.4925 138.944C19.5506 144.04 23.9691 147.622 29.2448 150.2C34.2601 152.65 39.3389 154.96 44.4811 157.13C45.4444 157.535 45.9395 157.377 46.6061 156.531C49.2198 153.229 51.2874 149.53 52.7306 145.574C53.0026 144.791 52.8421 144.51 52.1158 144.257C51.177 143.929 50.1295 143.004 49.3949 143.226C48.6603 143.45 48.3338 144.794 47.7896 145.624C46.0205 148.361 43.9796 150.914 41.6978 153.241C41.3169 153.625 40.8653 154.357 40.2966 153.837C39.728 153.317 40.4544 152.82 40.7728 152.417C43.0751 149.544 45.2179 146.546 47.1911 143.439C47.7625 142.525 47.6809 142.079 46.6769 141.52C40.9986 138.389 36.4521 133.976 32.605 128.804C32.507 128.699 32.4263 128.58 32.3655 128.45C32.2785 128.159 31.8024 127.881 32.1724 127.579C32.5424 127.277 32.7573 127.715 32.9641 127.946C34.0198 129.125 35.0455 130.332 36.1256 131.484C36.6073 132 37.0779 132.571 37.818 132.767L37.7854 132.721ZM48.8916 74.3713C48.9106 74.181 48.9405 73.9958 48.9514 73.8082C49.3433 67.5286 52.9184 63.0528 58.9476 61.2545C61.6684 60.4382 64.4899 60.2396 67.2786 59.8451C73.6698 58.9445 74.5813 54.8578 73.3351 50.7767C72.5951 48.3525 70.9136 46.5867 68.4378 45.6725C66.3671 44.908 64.8409 45.7405 63.4315 47.1607C62.9635 47.6342 62.6153 47.4955 62.4791 46.7853C61.935 43.7925 59.021 41.6512 55.8514 41.8281C52.6816 42.0048 50.2765 44.1326 49.5065 47.4682C49.3024 48.3497 48.9923 49.2041 48.7148 50.0666C48.6703 50.2292 48.5716 50.3718 48.435 50.4708C48.2985 50.5698 48.1323 50.6192 47.9638 50.6107C47.7945 50.6312 47.6235 50.5883 47.4839 50.4905C47.3443 50.3925 47.2458 50.2463 47.2074 50.0802C46.6633 47.9987 44.9355 47.2043 43.2079 46.5432C38.2451 44.6386 34.1885 48.6517 35.6659 52.8227C35.8321 53.3723 35.9344 53.9393 35.9705 54.5123C36.0849 55.5788 35.5951 55.9353 34.6101 55.5136C34.3054 55.3802 34.0198 55.2007 33.7096 55.081C31.6663 54.2892 29.1768 55.4728 28.4666 57.5651C27.7565 59.6573 28.7659 61.6081 31.1411 62.068C32.8145 62.3917 33.3178 63.3113 33.7395 64.7371C35.7311 71.6559 37.5486 78.6267 39.9974 85.4151C40.8135 87.657 41.5564 89.9233 42.446 92.4891C43.2623 89.6921 44.0785 87.287 45.4715 85.143C45.8525 84.5635 45.8361 84.2178 45.447 83.6656C44.3721 82.1183 43.8893 80.2363 44.0866 78.3627C44.3289 75.3372 46.0701 73.8816 48.8916 74.3713Z" fill="#777777"/>
<path d="M13.6064 224.298C15.1164 224.183 16.5993 224.025 18.0793 223.974C20.7158 223.9 23.3549 223.921 25.9914 223.878C29.7787 223.813 33.5661 223.701 37.3534 223.658C38.1479 223.658 38.3846 223.437 38.4146 222.607C38.5207 219.694 38.7383 216.788 38.9152 213.876C38.9117 213.785 38.9228 213.692 38.9478 213.605C39.2198 212.962 38.9261 211.79 40.0361 211.899C40.9966 211.996 40.9639 213.016 40.8714 213.754C40.7163 215.009 41.1434 215.335 42.4168 215.342C45.2899 215.342 48.1658 215.342 51.0389 215.324C52.0593 215.324 52.5979 215.131 52.4184 213.994C52.3287 213.414 52.5299 212.861 52.6714 212.301C52.7803 211.885 52.9436 211.561 53.4033 211.569C53.9284 211.569 54.0699 212.13 54.0128 212.385C53.5584 214.526 55.0712 214.443 56.4179 214.633C58.1647 214.878 59.8462 214.437 61.5548 214.249C62.2404 214.172 62.2296 213.705 62.2023 213.212C62.1829 212.255 62.2816 211.298 62.4962 210.364C62.5158 210.17 62.6068 209.99 62.7517 209.859C62.8964 209.729 63.0847 209.656 63.2798 209.656C63.7342 209.656 63.9328 210.005 63.9546 210.432C64.0316 211.336 64.0616 212.245 64.0443 213.152C63.9872 214.142 64.3789 214.766 65.2116 215.24C68.6833 217.206 71.9128 219.503 74.7207 222.351C74.9408 222.571 75.2073 222.739 75.5006 222.842C75.7939 222.945 76.1067 222.981 76.4157 222.947C85.5767 222.577 94.7321 223.098 103.896 223.22C115.307 223.373 126.718 223.475 138.129 223.527C143.499 223.549 148.868 223.618 154.239 223.618C156.778 223.618 159.318 223.716 161.856 223.914C162.203 223.941 162.79 223.739 162.83 224.221C162.88 224.806 162.265 224.744 161.861 224.765C158.651 224.871 155.441 225.001 152.23 225.038C148.44 225.089 144.653 225.038 140.863 225.068C130.459 225.151 120.054 225.2 109.65 225.369C100.835 225.51 92.0222 225.938 83.2041 225.986C72.8026 226.046 62.4064 225.56 51.9994 225.516C41.8399 225.473 31.6806 225.227 21.5266 225.059C19.1323 225.017 16.7353 224.929 14.3411 224.853C14.0499 224.855 13.7343 224.893 13.6064 224.298ZM40.6456 219.671C40.1204 220.735 40.4633 221.941 40.0714 223.021C39.9736 223.293 40.0143 223.641 40.4224 223.618C41.6196 223.544 43.3392 224.199 43.8588 223.318C44.2942 222.58 43.0779 221.241 42.1012 220.515C41.6604 220.18 41.2741 219.705 40.6456 219.666V219.671Z" fill="#777777"/>
<path d="M185.935 144.964C185.73 136.143 185.588 129.143 185.39 122.144C185.273 117.837 184.998 113.53 184.968 109.221C184.943 105.92 185.14 102.615 185.347 99.3198C185.41 98.3648 185.322 98.0927 184.275 98.1608C178.966 98.5008 173.663 98.7539 168.328 98.5144C167.695 98.4872 167.593 98.7049 167.602 99.2218C167.695 104.541 167.33 109.868 167.773 115.182C167.857 116.191 167.528 116.695 166.562 116.94C165.906 117.076 165.235 117.131 164.565 117.106C156.795 117.152 149.025 117.146 141.256 117.253C136.418 117.315 131.587 117.688 126.746 117.609C124.423 117.571 124.415 117.579 124.366 119.884C124.262 124.631 124.178 129.376 124.061 134.121C124.061 134.625 124.352 135.481 123.487 135.455C122.836 135.435 122.915 134.639 122.964 134.151C123.536 128.359 122.709 122.561 123.046 116.768C123.092 115.952 123.479 115.748 124.202 115.642C126.496 115.31 128.798 115.345 131.095 115.424C142.503 115.816 153.912 115.997 165.322 115.968C166.41 115.968 166.453 115.487 166.446 114.698C166.388 109.038 166.388 103.379 166.285 97.7199C166.181 91.8268 165.953 85.9336 165.833 80.0348C165.695 73.1839 165.362 66.3329 165.588 59.4793C165.623 58.4373 165.025 58.5842 164.416 58.5733C160.821 58.5107 157.227 58.4618 153.633 58.3802C152.762 58.3611 151.298 58.5407 151.317 57.6401C151.342 56.5518 152.778 56.9871 153.617 56.9681C159.417 56.8402 165.221 56.8347 171.03 56.6388C175.247 56.4947 179.465 56.3967 183.678 56.4619C184.418 56.4619 184.563 56.1899 184.55 55.5369C184.462 50.4028 185.486 45.3367 185.518 40.2053C185.532 37.6722 185.632 37.6668 188.238 37.6641H202.487C202.776 37.6641 203.062 37.6641 203.35 37.6641C203.723 37.6641 204.022 37.8273 204.05 38.2299C204.077 38.6327 203.75 38.7742 203.386 38.7932C203.29 38.7932 203.192 38.7932 203.097 38.7932C197.927 38.9292 192.758 39.1007 187.588 39.1659C186.525 39.1659 186.187 39.4081 186.228 40.5101C186.385 45.3929 186.49 50.2794 186.546 55.1696C186.592 58.6468 186.365 58.8726 182.832 58.8372C178.186 58.7919 173.538 58.7012 168.891 58.5652C167.857 58.5379 167.561 58.6631 167.656 59.8821C168.002 64.2842 167.836 68.7028 167.797 73.1159C167.735 80.5491 167.688 87.9851 167.615 95.4263C167.615 96.2426 167.67 96.7868 168.75 96.6833C172.72 96.2997 176.706 96.4847 180.681 96.5663C186.862 96.6916 193.038 96.9609 199.222 96.6969C199.791 96.6724 200.833 96.2617 200.855 97.2248C200.887 98.2587 199.832 97.7689 199.266 97.8043C195.438 97.9784 191.598 97.5786 187.771 98.0547C187.167 98.1308 187.033 98.2559 187.082 98.9008C187.975 110.638 187.218 122.381 186.973 134.116C186.802 142.374 187.121 150.615 187.098 158.875C187.098 159.518 187.512 160.668 186.555 160.676C185.385 160.676 185.962 159.476 185.956 158.838C185.912 153.596 185.935 148.368 185.935 144.964Z" fill="#777777"/>
<path d="M91.5834 76.2001C90.5739 77.8626 89.6189 79.3888 88.7129 80.9425C86.3675 84.9638 83.8155 88.8327 80.6757 92.2936C78.1535 95.0742 74.9974 96.8591 71.5855 98.3746C71.5447 98.2416 71.5173 98.1048 71.5039 97.9665C75.3539 96.266 77.7835 93.069 80.2104 89.834C85.0045 83.4918 89.2272 76.7416 94.1273 70.4756C94.9435 69.4362 95.806 68.7615 97.1583 69.1152C98.056 69.3546 98.1459 68.5275 98.5187 68.133C102.358 63.992 106.752 60.7026 112.261 59.1381C113.967 58.6511 115.725 58.3762 117.483 58.9721C118.073 59.1735 118.789 59.3911 118.813 60.104C118.84 60.8631 118.084 61.0453 117.502 61.2167C116.389 61.5487 115.257 61.8098 113.883 62.1663C114.906 60.844 116.375 60.9583 117.673 60.0985C115.67 59.5761 113.965 59.7856 112.283 60.2862C106.597 61.9813 102.216 65.4395 98.8588 70.2797C97.6208 72.07 97.6127 72.0972 99.1717 73.6072C101.275 75.6396 103.432 77.6177 105.519 79.6691C106.191 80.3276 106.491 80.2541 106.969 79.4623C107.922 77.8897 109.377 76.7416 110.629 75.4192C111.222 74.7935 113.078 73.9473 113.01 72.8155C113.01 72.5706 113.214 71.5531 113.439 71.9992C113.635 72.6032 115.94 72.1842 116.585 70.5408C116.998 69.4933 117.172 68.1738 116.781 67.9616C116.201 69.0227 115.532 69.6785 114.604 70.4946C114.248 70.8102 113.657 70.949 113.244 71.1503C112.874 71.3272 112.351 71.5421 112.201 71.0606C112.03 70.53 113.102 70.3232 113.423 70.1981C115.001 69.5723 115.934 67.5807 115.622 65.6543C114.705 66.5332 114.577 67.2133 113.622 68.0867C113.377 68.3126 110.819 69.8552 110.038 68.9628C109.258 68.0705 111.002 66.2747 111.426 65.4775C111.837 66.0407 110.447 67.861 110.882 68.4051C112.348 67.5481 113.747 66.8052 114.381 65.2108C114.52 64.8653 114.19 63.758 113.668 63.524C113.298 63.3553 112.963 63.0805 113.344 62.6506C113.344 62.6506 115.932 62.5363 116.065 63.7172C116.087 63.8831 115.902 64.5578 116.065 65.0938C116.171 65.4231 116.759 65.2843 116.881 65.6027C117.085 66.1251 116.83 67.0475 116.971 67.1263C117.164 67.2351 117.621 67.6895 117.624 67.8718C117.933 68.9807 117.801 70.1661 117.257 71.1803C116.68 72.3176 116.065 72.9923 114.808 73.4766C113.785 73.8711 113.595 73.8086 111.962 75.2506C111.146 75.9797 110.381 76.9185 109.598 77.6993C108.613 78.6733 107.723 79.9167 108.509 81.669C108.752 82.2131 108.558 82.9748 108.161 83.5735C100.774 94.9191 92.8594 105.849 83.0945 115.317C82.6829 115.719 82.2505 116.1 81.7994 116.457C81.5518 116.647 81.2335 117.026 80.9315 116.748C80.5505 116.4 80.945 116.051 81.1682 115.768C82.1204 114.566 83.0537 113.35 84.0522 112.188C91.1698 103.881 97.5065 94.9736 104.02 86.2045C104.706 85.2821 105.47 84.417 106.197 83.5381C106.594 83.0701 106.784 82.847 106.134 82.2348C102.374 78.6978 98.4805 75.2615 95.1884 71.0796C94.4239 72.1326 93.7002 73.161 92.9329 74.1596C92.541 74.6683 92.8132 74.9921 93.0825 75.4192C94.987 78.4692 97.5718 80.8881 100.331 83.1381C100.603 83.3476 100.875 83.5191 101.147 83.7312C101.449 83.9788 101.789 84.3135 101.498 84.6917C101.207 85.0698 100.81 84.8631 100.45 84.6917C96.731 82.8062 93.5395 80.3221 91.5834 76.2001Z" fill="#777777"/>
<path d="M140.06 139.363C136.727 139.72 133.374 139.882 130.02 139.847C123.159 139.858 116.298 139.848 109.438 139.818C108.508 139.818 108.059 140.059 107.895 141.033C107.548 142.965 107.379 144.925 107.389 146.889C107.509 154.654 107.92 162.397 108.554 170.14C108.63 171.093 108.641 171.953 110.143 171.844C117.075 171.327 124.019 171.359 130.982 171.232C133.803 171.18 136.624 171.074 139.445 170.987C139.947 170.97 140.515 170.945 140.599 171.547C140.684 172.148 140.178 172.298 139.674 172.418C137.762 172.858 135.808 173.094 133.847 173.119C125.602 173.308 117.356 173.414 109.109 173.53C107.204 173.558 106.709 173.202 106.467 171.302C106.141 168.742 105.923 166.165 105.735 163.589C105.43 159.429 105.254 155.255 105.488 151.092C105.681 147.71 105.4 144.29 106.184 140.94C106.742 138.56 107.354 138.033 109.819 137.987C112.842 137.929 115.862 137.904 118.885 137.864C125.118 137.777 131.345 137.545 137.582 137.668C141.255 137.742 141.295 137.802 141.413 141.384C141.549 145.5 141.774 149.615 141.919 153.734C142.095 158.819 141.529 163.88 141.362 168.97C141.362 169.324 141.462 169.828 140.865 169.787C140.407 169.765 140.232 169.373 140.213 168.97C140.162 167.675 140.077 166.38 140.115 165.088C140.357 156.599 140.083 148.11 140.153 139.622C140.137 139.53 140.105 139.443 140.06 139.363Z" fill="#ED5A67"/>
<path d="M218.077 163.277C216.257 162.962 214.45 163.351 212.635 163.359C196.142 163.441 179.654 162.704 163.16 162.88C162.682 162.88 162.2 162.902 161.72 162.88C161.057 162.845 160.834 162.921 160.875 163.786C161.479 175.995 161.503 188.216 161.477 200.441C161.477 201.029 161.477 201.727 160.693 201.722C159.877 201.722 159.985 200.957 159.96 200.407C159.724 195.146 159.547 189.881 159.468 184.611C159.373 178.241 159.172 171.872 159.305 165.5C159.305 164.972 159.354 164.445 159.4 163.922C159.517 162.619 160.157 162.017 161.544 162.034C166.675 162.077 171.807 162.082 176.938 162.015C188.638 161.86 200.337 161.634 212.037 161.471C214.093 161.444 216.15 161.661 218.21 161.707C219.212 161.73 219.624 162.082 219.688 163.144C220.003 168.367 219.774 173.586 219.633 178.807C219.467 185.032 219.274 191.257 219.089 197.484C219.089 197.867 219.089 198.25 219.069 198.631C219.02 199.267 218.782 199.771 218.033 199.739C217.328 199.706 217.198 199.135 217.184 198.61C217.143 197.219 217.105 195.824 217.184 194.439C217.494 189.171 217.342 183.899 217.457 178.631C217.565 173.537 217.598 168.409 218.077 163.277Z" fill="#ED5A67"/>
<path d="M203.876 84.3248C204.986 92.283 204.441 100.135 204.272 107.979C204.23 109.99 204.001 112.001 204.322 114.006C204.395 114.474 204.373 114.947 203.832 115.029C203.173 115.13 203.236 114.569 203.211 114.15C202.94 109.468 202.702 104.782 202.382 100.103C202.11 96.3315 201.837 92.5605 201.9 88.7814C201.927 87.2604 202.205 85.745 202.352 84.224C202.422 83.4813 202.815 83.2283 203.543 83.0732C205.775 82.5998 208.038 82.8012 210.272 82.7249C217.128 82.4692 223.99 82.4719 230.852 82.6488C231.137 82.6488 231.428 82.6488 231.715 82.6759C235.167 83.0895 235.336 83.3425 235.51 86.8659C235.946 95.6405 235.85 104.415 235.638 113.192C235.553 116.678 235.548 116.729 231.927 116.795C228.57 116.857 225.21 116.795 221.86 116.795C216.102 116.795 210.347 116.806 204.593 116.83C204.306 116.838 204.017 116.828 203.731 116.8C203.583 116.799 203.442 116.742 203.335 116.642C203.227 116.541 203.162 116.403 203.152 116.256C203.136 115.916 203.423 115.772 203.696 115.712C203.885 115.675 204.078 115.663 204.27 115.676C212.513 115.693 220.752 115.037 229.002 115.404C230.438 115.467 231.875 115.532 233.303 115.657C234.12 115.728 234.392 115.489 234.376 114.648C234.337 110.529 234.008 106.418 233.916 102.301C233.798 97.1315 233.562 91.9402 233.916 86.7625C234.043 84.858 234.078 84.7464 232.15 84.8907C226.015 85.3478 219.89 84.8145 213.762 84.7709C210.471 84.7464 207.183 84.4825 203.876 84.3248Z" fill="#ED5A67"/>
<path d="M222.021 24.6255C227.599 24.6255 232.006 24.6255 236.416 24.6255C237.478 24.6255 238.131 24.552 238.224 26.2578C238.469 30.7417 238.931 35.2365 239.004 39.7176C239.061 43.3063 238.904 46.8978 238.795 50.4838C238.765 51.417 238.158 51.9203 237.228 52.0591C235.13 52.3638 233.021 52.3475 230.918 52.2958C224.84 52.1407 218.761 51.9775 212.689 51.7163C210.784 51.632 208.88 51.4088 206.975 51.6863C206.159 51.8033 205.699 51.5205 205.52 50.5627C205.093 48.2663 205.416 45.9727 205.386 43.6846C205.313 37.8457 205.289 32.007 205.828 26.179C205.914 25.2348 206.238 25.0227 207.116 24.9411C212.46 24.435 217.834 24.9328 222.021 24.6255ZM221.959 26.13C217.401 26.13 212.846 26.1762 208.293 26.0973C207.144 26.0783 206.97 26.4076 207.044 27.4577C207.539 34.6406 207.261 41.8345 207.171 49.02C207.171 50.1083 207.324 50.3477 208.401 50.356C217.651 50.4266 226.903 49.7192 236.153 50.3232C236.786 50.3668 236.899 50.1655 236.841 49.4907C236.228 42.0915 236.193 34.6556 236.738 27.251C236.814 26.1627 236.518 26.1056 235.636 26.111C231.068 26.1491 226.513 26.13 221.959 26.13Z" fill="#ED5A67"/>
<path d="M131.734 43.9545C135.459 43.7586 140.778 44.5313 146.098 44.0116C146.981 43.9246 147.34 44.2185 147.479 45.1571C148.138 49.641 147.983 54.1357 147.95 58.6441C147.925 62.4286 147.721 66.2078 147.43 69.9842C147.328 71.3311 146.789 71.9405 145.444 72.0385C142.573 72.2185 139.693 72.253 136.816 72.1418C131.07 71.9841 125.327 71.7882 119.58 71.5977C119.14 71.5813 118.465 71.7936 118.432 71.1052C118.4 70.4168 119.055 70.5475 119.521 70.5447C127.381 70.4822 135.225 69.8128 143.091 69.9842C143.956 70.0033 145.113 70.6073 145.633 69.8727C146.035 69.3013 145.744 68.2022 145.675 67.3423C145.279 62.2681 145.464 57.1885 145.501 52.106C145.508 50.2843 145.648 48.4655 145.92 46.6645C146.119 45.3911 145.741 45.0972 144.539 45.1435C137.693 45.4173 130.845 45.656 123.996 45.8591C121.458 45.9298 118.911 45.9135 116.378 45.7828C115.518 45.7393 115.45 45.9815 115.448 46.6726C115.426 49.7852 115.616 52.9058 115.176 56.0076C115.113 56.4592 115.29 57.0741 114.631 57.1585C113.878 57.2537 114.003 56.5871 113.948 56.1545C113.513 52.6311 113.589 49.0941 113.785 45.5597C113.834 44.6565 114.422 44.3163 115.341 44.2375C120.261 43.8348 125.202 44.0552 131.734 43.9545Z" fill="#ED5A67"/>
<path d="M136.806 156.104C137.198 161.943 132.02 168.671 124.269 168.72C117.314 168.764 111.301 163.464 111.331 155.958C111.361 148.355 117.371 143.185 123.996 143.243C131.161 143.308 137.108 149.158 136.806 156.104ZM124.413 166.935C126.068 166.948 127.706 166.588 129.203 165.883C130.701 165.176 132.021 164.144 133.066 162.859C134.111 161.575 134.853 160.073 135.24 158.463C135.626 156.851 135.645 155.176 135.296 153.558C135.136 152.781 134.915 152.469 134.02 152.836C131.122 154.055 128.083 154.858 125.068 155.736C124.462 155.914 123.817 156.248 123.368 155.611C122.919 154.975 123.341 154.374 123.771 153.816C125.583 151.468 127.341 149.076 129.182 146.741C129.67 146.126 129.55 145.925 128.911 145.654C127.343 144.93 125.692 144.805 124.013 144.884C117.856 145.155 113.328 150.069 113.434 156.344C113.532 162.201 118.435 166.933 124.413 166.935ZM125.547 154.039C128.597 153.188 131.362 152.406 134.14 151.653C134.716 151.498 134.502 151.149 134.376 150.91C133.705 149.534 132.762 148.308 131.603 147.305C131.226 146.989 130.902 146.854 130.567 147.398C129.155 149.675 127.251 151.588 125.547 154.039Z" fill="#ED5A67"/>
<path d="M63.0064 102.143C58.9986 102.399 55.8344 100.261 52.3709 99.1505C52.1395 99.0771 51.7151 98.9736 51.862 98.6063C52.009 98.2391 52.4361 98.1547 52.8415 98.2553C54.7679 98.7314 56.7323 98.6498 58.6913 98.6935C62.9329 98.7886 66.606 97.099 70.1185 95.015C71.9686 93.913 72.4856 91.8832 72.8611 89.8672C73.5223 86.3111 72.9536 82.7931 72.491 79.2861C72.0694 76.0782 71.3538 72.9085 70.8966 69.7035C70.7606 68.7593 70.4069 68.6151 69.6179 68.7158C69.1881 68.764 68.7533 68.741 68.331 68.6477C67.7106 68.5145 67.0576 68.3103 67.1338 67.4806C67.2019 66.7377 67.7569 66.4303 68.4208 66.3487C68.9046 66.3199 69.3898 66.3199 69.8736 66.3487C70.1865 65.8046 69.7349 65.2957 69.7159 64.7462C69.7159 64.3952 69.5064 63.8863 70.0369 63.7829C70.4341 63.7013 70.562 64.164 70.679 64.4468C71.4544 66.3515 71.8599 68.354 72.2706 70.3591C73.144 74.6117 73.982 78.8752 74.4718 83.1876C74.7901 85.9901 74.8091 88.8061 74.1208 91.6031C73.2474 95.1401 70.9593 97.246 67.5583 98.0622C65.4006 98.5791 64.5654 99.507 64.364 101.852C64.1628 104.198 63.4853 106.714 61.8718 108.73C61.0828 109.718 60.2013 109.928 59.1075 109.321C55.4644 107.302 51.59 105.816 47.7074 104.344C47.3945 104.227 47.1034 104.059 46.7959 103.931C46.4885 103.803 46.0968 103.659 46.2164 103.251C46.3361 102.843 46.7986 102.979 47.087 103.028C48.8535 103.424 50.5829 103.97 52.2565 104.66C54.5638 105.558 56.8683 106.467 59.1565 107.408C60.3944 107.92 61.2134 107.694 61.7766 106.388C62.3483 105.025 62.7609 103.601 63.0064 102.143Z" fill="#777777"/>
<path d="M196.71 199.743C203.917 199.743 209.38 199.743 214.844 199.743C215.72 199.743 217.092 199.62 217.097 200.559C217.097 201.552 215.688 201.35 214.852 201.435C211.315 201.783 207.778 201.672 204.242 201.737C198.544 201.84 192.847 201.898 187.152 202.039C181.03 202.189 174.908 202.363 168.792 202.632C166.888 202.717 164.983 202.872 163.062 202.724C162.559 202.687 161.865 202.682 161.884 201.972C161.9 201.348 162.513 201.248 163.054 201.155C166.123 200.627 169.233 200.527 172.332 200.339C181.024 199.794 189.737 199.655 196.71 199.743Z" fill="#ED5A67"/>
<path d="M64.4491 126.379C63.2113 128.319 64.8056 128.634 66.4163 129.059C67.5726 129.366 67.7766 130.319 67.1809 131.198C66.4843 132.206 67.0665 132.351 67.8148 132.604C69.5261 133.184 71.2403 133.76 72.9271 134.408C74.429 134.981 74.6413 135.496 74.0889 137.06C73.3074 139.368 72.263 141.576 70.9764 143.645C70.7288 144.029 70.5383 144.651 69.9343 144.341C69.4745 144.101 69.7139 143.606 69.8254 143.183C70.3865 141.064 71.1236 138.996 72.0293 137C72.4184 136.146 72.6088 135.779 71.3383 135.436C64.0384 133.464 56.7739 131.355 49.5175 129.221C48.4129 128.895 47.9231 129.096 47.466 130.128C46.7341 131.783 45.858 133.374 45.001 134.968C44.8186 135.311 44.5765 135.901 44.0759 135.67C43.4855 135.398 43.8338 134.854 44.0051 134.426C44.7589 132.523 45.3411 130.55 46.3669 128.754C47.0116 127.623 47.8306 127.121 49.1964 127.394C50.6901 127.709 52.143 128.153 53.6095 128.555C54.2026 128.719 54.7141 128.934 54.774 127.873C54.8394 126.714 55.8624 126.661 56.7494 126.83C57.9574 127.059 58.6865 126.911 58.4689 125.401C58.3355 124.466 58.9015 123.993 59.8293 123.965C60.9788 123.89 62.1323 124.026 63.233 124.365C64.0139 124.643 64.5798 125.141 64.4491 126.379ZM65.7933 131.085C65.9619 130.59 65.5484 130.694 65.3089 130.631C62.5528 129.891 59.8239 129.054 57.0024 128.578C56.7303 128.531 56.3494 128.125 56.1861 128.68C56.0229 129.235 56.5045 129.348 56.8445 129.426C59.5871 130.051 62.2861 130.833 64.9498 131.716C65.6055 131.935 65.6545 131.491 65.7933 131.091V131.085ZM62.9119 128.019C63.2303 125.725 63.2303 125.715 61.1325 125.426C60.6483 125.361 59.9354 124.825 59.8103 125.829C59.7095 126.645 59.6144 127.461 60.8823 127.519C61.5244 127.554 62.1583 127.826 62.9119 128.019Z" fill="#777777"/>
<path d="M193.115 184.055C193.115 186.74 193.115 189.426 193.115 192.111C193.115 193.529 192.517 194.287 190.969 194.356C188.247 194.47 185.571 195.031 182.806 194.628C181.677 194.459 181.367 194.277 181.212 192.995C180.641 188.256 180.771 183.525 180.94 178.785C180.965 178.105 180.649 176.916 181.682 176.926C182.547 176.926 182.477 178.052 182.515 178.81C182.674 181.916 182.871 185.021 182.967 188.131C183.01 189.563 182.861 190.999 182.771 192.432C182.744 192.865 182.702 193.177 183.315 193.137C185.609 192.982 187.902 192.851 190.196 192.729C190.95 192.691 191.214 192.389 191.267 191.584C191.586 186.841 191.369 182.096 191.459 177.354C191.477 176.44 191.314 176.216 190.28 176.306C188.041 176.503 185.775 176.424 183.522 176.429C183.092 176.405 182.666 176.34 182.249 176.235C181.876 176.163 181.432 176.113 181.432 175.601C181.432 175.134 181.862 174.979 182.235 174.914C183.121 174.73 184.017 174.605 184.92 174.54C186.885 174.461 188.852 174.44 190.819 174.438C192.432 174.438 192.957 174.935 192.996 176.598C193.039 179.09 193.01 181.585 193.01 184.076L193.115 184.055Z" fill="#ED5A67"/>
<path d="M219.554 95.658C221.328 95.658 223.09 95.6308 224.875 95.658C226.07 95.6853 226.889 96.2022 226.984 97.5299C227.022 98.0523 227.178 98.5802 227.134 99.0917C226.868 102.195 226.875 105.316 227.155 108.419C227.283 109.722 226.698 110.388 225.428 110.557C221.249 111.103 217.037 111.355 212.823 111.313C211.484 111.313 210.749 110.601 210.728 109.137C210.678 105.929 210.534 102.721 210.455 99.5134C210.455 99.0889 210.235 98.3707 210.907 98.3489C211.512 98.3272 211.269 99.0019 211.327 99.3883C211.723 102.139 211.797 104.911 211.87 107.684C211.905 108.96 212.205 109.48 213.718 109.395C217.3 109.191 220.898 109.325 224.487 109.072C225.377 109.009 225.773 108.895 225.632 107.853C225.252 105.042 225.439 102.212 225.572 99.3856C225.629 98.2264 225.572 97.4809 223.823 97.6252C220.202 97.919 216.539 97.7912 212.895 97.7558C212.123 97.7558 210.842 97.9762 210.825 96.8226C210.825 95.8539 212.042 95.9247 212.798 95.8213C215.04 95.5552 217.302 95.5005 219.554 95.658Z" fill="#ED5A67"/>
<path d="M213.312 176.405C212.852 181.387 213.432 186.357 213.459 191.333C213.459 191.905 213.383 192.477 213.355 193.051C213.312 194.055 212.727 194.533 211.792 194.542C209.394 194.568 206.997 194.542 204.603 194.542C204.363 194.538 204.125 194.49 203.904 194.397C203.583 194.267 203.038 194.397 203.017 193.853C202.995 193.31 203.537 193.391 203.865 193.31C205.324 192.915 206.82 193.201 208.298 193.118C211.933 192.917 211.799 193.756 211.612 189.582C211.339 183.356 211.593 177.142 211.783 170.928C211.897 167.201 211.938 167.151 208.245 167.546C206.295 167.753 204.339 167.905 202.383 168.043C201.838 168.082 201.098 168.136 200.993 167.388C200.887 166.64 201.607 166.63 202.094 166.542C205.157 165.995 208.264 165.748 211.375 165.805C212.958 165.835 213.247 167.105 213.279 168.357C213.337 170.416 213.298 172.476 213.302 174.538L213.312 176.405Z" fill="#ED5A67"/>
<path d="M129.469 62.6351C130.718 60.3225 131.854 58.2328 132.978 56.1378C133.946 54.3286 134.848 52.4783 136.118 50.8513C136.39 50.5003 136.608 49.8827 137.206 50.1521C137.873 50.4541 137.419 51.0065 137.28 51.3955C135.694 55.9093 133.541 60.1646 131.319 64.3873C130.866 65.2471 130.331 66.115 129.213 66.1068C128.01 66.1068 127.515 65.1518 127.104 64.2158C126.125 61.9848 125.156 59.7538 124.236 57.501C123.964 56.8535 123.676 56.0046 124.53 55.5965C125.444 55.153 125.94 55.8985 126.31 56.5895C127.335 58.5103 128.339 60.4531 129.469 62.6351Z" fill="#ED5A67"/>
<path d="M61.3231 117.645C61.4346 115.76 61.5352 114.187 61.6087 112.612C61.5942 112.036 61.6751 111.463 61.8481 110.914C61.976 110.585 62.1039 110.255 62.512 110.296C62.9201 110.337 63.0426 110.65 63.0725 111.012C63.2494 113.36 63.3229 115.708 62.7406 118.01C62.425 119.25 61.489 119.552 60.1124 118.81C57.2446 117.264 54.6055 115.351 52.0071 113.403C49.7869 111.738 47.6539 109.953 45.4907 108.215C45.012 107.828 44.28 107.366 44.7209 106.727C45.2051 106.019 45.9397 106.509 46.4757 106.898C50.9306 110.132 55.3745 113.374 59.8076 116.625C60.232 116.921 60.6646 117.196 61.3231 117.645Z" fill="#777777"/>
<path d="M201.256 180.581C201.321 177.471 201.166 174.361 201.376 171.253C201.397 170.92 201.392 170.582 201.427 170.25C201.476 169.755 201.58 169.222 202.213 169.26C202.801 169.295 202.94 169.803 202.965 170.307C203.055 172.023 203.15 173.741 203.217 175.461C203.405 180.333 203.577 185.208 203.237 190.082C203.153 190.84 203.006 191.59 202.796 192.323C202.711 192.675 202.618 193.14 202.086 193.05C201.705 192.991 201.585 192.683 201.541 192.318C201.377 191.477 201.28 190.623 201.251 189.766C201.272 186.706 201.256 183.642 201.256 180.581Z" fill="#ED5A67"/>
<path d="M170.35 186.992C171.357 186.992 172.364 186.957 173.367 186.992C173.936 187.022 174.826 186.8 174.812 187.716C174.812 188.548 173.996 188.502 173.376 188.478C171.654 188.405 169.921 188.413 168.206 188.206C166.994 188.067 166.574 188.587 166.414 189.646C165.769 194.04 165.764 194.063 170.206 193.792C173.52 193.591 172.627 194.123 173.325 190.853C173.48 190.13 173.254 188.84 174.141 188.881C175.182 188.93 174.766 190.22 174.78 190.938C174.865 195.101 174.701 195.277 170.502 195.563C168.987 195.666 167.477 195.906 165.937 195.716C164.996 195.598 164.541 195.152 164.515 194.257C164.424 192.49 164.567 190.717 164.941 188.987C165.265 187.627 166.03 186.936 167.472 186.992C168.43 187.033 169.376 186.992 170.347 186.992H170.35Z" fill="#ED5A67"/>
<path d="M74.2111 111.284C71.8414 107.222 68.4975 103.859 66.6446 99.4324C67.4609 99.3209 67.6868 99.7426 67.9289 100.064C70.6006 103.617 73.2653 107.176 75.9225 110.74C76.094 110.971 76.2436 111.216 76.4041 111.453C76.7905 112.021 77.1823 112.661 76.7524 113.303C76.2681 114.027 75.4328 113.861 74.7798 113.624C73.3459 113.111 71.9391 112.524 70.5653 111.866C69.0608 111.145 67.6078 110.321 66.144 109.516C65.6979 109.268 65.0938 108.999 65.4013 108.335C65.7441 107.597 66.3671 108.063 66.7753 108.242C68.8376 109.107 70.8564 110.052 72.916 110.947C73.2915 111.113 73.6263 111.455 74.2111 111.284Z" fill="#777777"/>
<path d="M223.465 93.1063C223.448 93.3919 223.427 93.6776 223.413 93.9633C223.378 94.5781 223.217 95.174 222.507 95.2121C221.691 95.2584 221.751 94.5809 221.667 93.9986C221.482 92.6764 221.302 91.3378 220.493 90.2086C219.482 88.7965 218.067 88.8264 217.145 90.2984C216.476 91.3649 216.192 92.5811 215.937 93.7946C215.861 94.1591 215.746 94.4449 215.368 94.5183C215.096 94.57 214.936 94.385 214.823 94.1646C213.648 92.0424 215.501 88.0374 217.92 87.4633C219.626 87.0579 221.217 87.7626 222.273 89.4685C222.967 90.5705 223.462 91.7621 223.465 93.1063Z" fill="#ED5A67"/>
<path d="M38.1201 144.147C37.934 145.9 37.646 147.64 37.2576 149.36C37.1461 149.92 36.9856 150.53 36.2293 150.513C35.3749 150.497 35.2389 149.801 35.2116 149.205C35.1219 147.117 34.8579 145.02 35.4021 142.947C35.6361 142.057 35.802 141.001 36.991 141.118C38.1201 141.232 38.0468 142.293 38.1148 143.142C38.1419 143.475 38.1201 143.81 38.1201 144.147Z" fill="#777777"/>
<path d="M173.738 169.35C172.723 168.692 171.793 169.171 170.775 169.77C169.959 170.254 169.064 169.914 168.493 169.135C167.883 168.306 167.303 168.369 166.639 169.03C166.469 169.192 166.287 169.345 166.095 169.484C165.649 169.829 165.194 170.379 164.618 169.783C164.042 169.188 164.403 168.624 164.817 168.124C166.232 166.412 167.934 166.26 169.42 167.789C169.964 168.332 170.304 168.314 170.838 167.872C171.673 167.179 172.549 166.85 173.558 167.65C173.999 168.004 174.582 167.802 175.095 167.742C175.482 167.699 175.95 167.536 176.094 167.992C176.238 168.45 175.768 168.714 175.417 168.961C174.935 169.29 174.39 169.211 173.738 169.35Z" fill="#ED5A67"/>
<path d="M66.6559 80.7879C66.282 80.7804 65.9088 80.7532 65.5377 80.7063C65.1242 80.6192 64.6316 80.5757 64.5255 80.0533C64.4031 79.4602 64.8467 79.2044 65.2819 78.9786C65.4904 78.8601 65.7078 78.7582 65.9323 78.6738C67.8368 78.0046 67.864 78.0046 67.347 76.0047C66.9988 74.6716 66.577 73.3547 66.2397 72.0161C66.158 71.6896 66.0301 71.1808 66.5525 71.0474C67.0749 70.9142 67.2137 71.3631 67.3253 71.7194C68.0363 73.9887 68.7347 76.2604 69.4203 78.5351C69.7168 79.5118 69.2353 80.1294 68.3673 80.4397C67.8068 80.5998 67.2345 80.7162 66.6559 80.7879Z" fill="#777777"/>
<path d="M42.2673 112.993C42.3816 113.951 42.2482 114.441 41.6551 114.656C41.062 114.871 40.6022 114.536 40.3518 114.057C39.5356 112.501 38.5942 110.999 38.2351 109.236C38.0746 108.441 38.0066 107.652 38.8772 107.272C39.8022 106.863 40.2785 107.544 40.6756 108.235C41.6088 109.824 41.8592 111.636 42.2673 112.993Z" fill="#777777"/>
<path d="M29.073 136.255C27.1956 136.078 25.536 135.692 24.0776 134.693C23.4736 134.28 23.1036 133.742 23.3892 132.993C23.675 132.244 24.3225 132.255 24.9619 132.37C26.604 132.665 28.1776 133.262 29.6035 134.128C30.1477 134.459 30.4361 134.944 30.2157 135.575C29.9954 136.207 29.4266 136.184 29.073 136.255Z" fill="#777777"/>
<path d="M218.875 99.5503C219.657 99.5122 220.35 99.7871 220.674 100.484C220.847 100.803 220.909 101.171 220.853 101.529C220.797 101.888 220.624 102.219 220.362 102.47C219.545 103.286 220.152 104.404 219.717 105.318C219.48 105.814 219.553 106.594 218.843 106.611C218.082 106.627 218.103 105.795 218.005 105.302C217.752 104.064 217.709 102.823 217.09 101.634C216.56 100.614 217.58 99.545 218.875 99.5503Z" fill="#ED5A67"/>
<path d="M77.7314 104.204C77.7314 104.874 77.7314 105.543 77.7314 106.212C77.75 106.405 77.6961 106.598 77.5805 106.753C77.4649 106.909 77.2956 107.015 77.1056 107.053C76.6268 107.165 76.1888 107.01 76.0581 106.539C75.5004 104.528 74.6978 102.564 74.8719 100.409C74.929 99.7777 75.2039 99.2852 75.8813 99.2063C76.5588 99.1274 76.956 99.4784 77.1683 100.099C77.6171 101.432 77.6363 102.82 77.7314 104.204Z" fill="#777777"/>
<path d="M53.8954 119.536C53.8165 121.067 50.4481 124.058 49.1504 123.859C48.2905 123.728 47.8416 123.127 48.2389 122.305C49.1394 120.442 50.8317 119.405 52.6329 118.621C53.3675 118.3 53.8655 118.891 53.8954 119.536Z" fill="#777777"/>
<path d="M71.3113 123.437C70.4759 123.385 70.3154 122.721 70.5848 121.856C70.9385 120.724 74.1218 118.455 75.3434 118.469C76.1596 118.469 76.5978 118.915 76.4181 119.758C76.1569 120.977 72.8485 123.472 71.3113 123.437Z" fill="#777777"/>
<path d="M87.527 101.251C86.8767 101.221 86.3107 101.11 86.0686 100.476C85.7966 99.7767 86.1475 99.2707 86.7026 98.9007C88.2154 97.8886 89.9675 97.6764 91.7115 97.4097C91.9047 97.3782 92.1027 97.4131 92.2736 97.5084C92.4445 97.6037 92.5782 97.754 92.653 97.9349C92.8162 98.3592 92.8026 98.8327 92.3809 99.0994C90.8681 100.087 89.3254 101.036 87.527 101.251Z" fill="#777777"/>
<path d="M20.5244 124.147C20.7122 122.624 23.0493 120.006 24.5077 119.726C24.9294 119.647 25.3702 119.62 25.6694 120.058C25.7818 120.185 25.8479 120.347 25.8568 120.516C25.8657 120.685 25.8169 120.853 25.7184 120.991C24.63 122.447 23.7785 124.079 22.2548 125.154C21.8522 125.44 21.3814 125.651 20.9325 125.306C20.7665 125.168 20.641 124.987 20.5693 124.783C20.4974 124.579 20.4819 124.359 20.5244 124.147Z" fill="#777777"/>
<path d="M89.8317 83.9489C89.8317 83.5299 89.8317 83.2443 89.8317 82.9558C89.8317 82.2757 90.0602 81.6934 90.8219 81.6091C91.5239 81.5329 91.8504 82.0472 91.9974 82.6376C92.4551 84.3039 92.5222 86.0534 92.1933 87.7499C92.0953 88.2069 91.9212 88.5879 91.3988 88.6178C90.8221 88.6504 90.5282 88.2859 90.4193 87.7689C90.1499 86.4712 89.7609 85.1761 89.8317 83.9489Z" fill="#777777"/>
<path d="M66.2363 116.59C66.2363 118.021 66.2363 119.452 66.2363 120.883C66.2363 121.242 66.3669 121.762 65.8716 121.849C65.3275 121.944 65.3548 121.397 65.3003 121.052C64.845 117.94 64.6784 114.794 64.8024 111.652C64.816 111.181 65.031 110.789 65.5696 110.814C66.1084 110.838 66.2662 111.271 66.2689 111.725C66.2853 113.357 66.2689 114.968 66.2689 116.59H66.2363Z" fill="#777777"/>
<path d="M77.4061 142.055C77.3518 143.078 74.9574 145.706 74.0215 145.864C73.0855 146.021 72.3455 145.233 72.759 144.378C73.4774 142.895 74.835 142.025 76.2498 141.323C76.8375 141.031 77.3708 141.378 77.4061 142.055Z" fill="#777777"/>
<path d="M167.668 173.969C166.995 173.887 166.258 173.446 165.365 173.969C164.921 174.241 164.565 173.594 164.821 173.044C165.205 172.251 165.86 171.664 166.745 171.862C168.013 172.135 169.063 171.721 170.14 171.22C170.47 171.065 170.859 170.755 171.158 171.196C171.301 171.392 171.363 171.639 171.328 171.879C171.293 172.12 171.164 172.339 170.97 172.486C170.049 173.309 168.895 173.827 167.668 173.969Z" fill="#ED5A67"/>
<path d="M109.72 63.9756C108.289 64.0464 107.157 64.5008 106.009 64.9089C105.683 65.0259 105.209 65.219 105.021 64.7593C104.877 64.4028 105.264 64.1851 105.544 64.0029C106.651 63.2415 107.969 62.8474 109.312 62.8765C110.596 62.9173 111.064 63.8179 110.447 64.9225C109.63 66.3781 107.086 67.9425 105.089 68.0923C106.779 66.8161 108.806 66.1714 109.72 63.9756Z" fill="#777777"/>
<path d="M62.8086 84.2944C60.9449 84.3135 59.2307 82.6022 59.3124 80.8527C59.3341 80.3439 59.4266 79.8542 59.9844 79.7372C60.5421 79.6202 60.6864 80.0827 60.8387 80.4989C61.3556 81.9138 62.1501 82.9232 63.886 82.5967C64.2778 82.5232 64.656 82.6267 64.754 83.1137C64.8356 83.5244 64.5689 83.7394 64.2587 83.8782C63.7854 84.0877 63.3119 84.357 62.8086 84.2944Z" fill="#777777"/>
<path d="M60.6375 67.9883C61.0728 68.1326 61.7258 68.0401 61.6878 68.8346C61.6496 69.5311 59.4268 71.2832 58.6513 71.2124C58.0146 71.1553 57.7316 70.7254 57.7344 70.1242C57.7399 69.1093 59.3669 67.9067 60.6375 67.9883Z" fill="#777777"/>
<path d="M37.8269 132.751C37.7407 132.636 37.677 132.508 37.6391 132.37C37.5956 131.535 40.7789 128.784 41.5789 128.953C41.7205 128.983 41.8522 129.049 41.9616 129.144C42.0711 129.239 42.1546 129.36 42.2046 129.496C42.2862 129.674 42.2967 129.876 42.234 130.06C42.1712 130.245 42.04 130.399 41.8672 130.49C40.5069 131.228 39.307 132.278 37.786 132.722L37.8269 132.751Z" fill="#777777"/>
<path d="M103.65 84.0173C103.06 83.9983 102.6 83.4868 102.619 82.7767C102.613 82.6203 102.638 82.4642 102.693 82.3177C102.748 82.1712 102.831 82.0371 102.939 81.9232C103.046 81.8094 103.175 81.7183 103.319 81.6551C103.462 81.5918 103.616 81.5578 103.773 81.5551C104.589 81.5387 105.005 82.0747 104.983 82.8229C104.967 83.4732 104.668 84.0173 103.65 84.0173Z" fill="#777777"/>
<path d="M46.1362 154.301C46.1362 155.118 45.6765 155.61 44.9146 155.594C44.2017 155.594 43.791 155.001 43.8263 154.324C43.8617 153.646 44.2045 153.018 45.0751 153.056C45.8778 153.091 46.1417 153.591 46.1362 154.301Z" fill="#777777"/>
<path d="M71.2024 73.242C71.1398 73.7997 70.9303 74.2377 70.2583 74.2377C69.5264 74.2377 69.2189 73.7398 69.2298 73.1495C69.2406 72.559 69.5264 71.9876 70.2528 72.0611C70.9031 72.0992 71.2024 72.5617 71.2024 73.242Z" fill="#777777"/>
<path d="M63.8566 74.3634C63.7342 74.9077 63.5546 75.4001 62.888 75.3729C62.2215 75.3457 61.933 74.8641 61.9167 74.2329C61.9003 73.6724 62.1697 73.3459 62.7492 73.3214C63.4676 73.2942 63.7178 73.7649 63.8566 74.3634Z" fill="#777777"/>
<path d="M222.399 30.7502C225.024 30.9026 228.235 30.538 231.44 30.9352C232.12 31.0196 232.333 31.1611 232.387 31.8195C232.705 35.7428 232.623 39.6717 232.61 43.6005C232.61 44.9473 232.142 45.7146 230.539 45.7146C224.744 45.7146 218.952 45.8043 213.178 45.1703C212.519 45.097 212.292 44.833 212.188 44.2153C211.643 40.9858 211.657 37.74 211.802 34.4858C211.802 34.3906 211.841 34.2981 211.853 34.2138C212.225 30.7775 212.225 30.7775 215.638 30.7747L222.399 30.7502ZM213.335 33.1037C213.335 36.6951 213.608 40.0907 213.08 43.4617C212.998 43.9841 213.118 44.1827 213.774 44.1283C219.173 43.6863 224.595 43.5908 230.007 43.8427C230.895 43.8862 231.23 43.7366 231.209 42.7543C231.138 39.8295 231.209 36.9046 231.168 33.9771C231.168 33.4002 231.522 32.5296 230.895 32.3065C230.27 32.0835 230.691 33.2098 230.134 33.3948C230.055 33.4221 230.009 33.5363 229.938 33.6016C227.637 35.7102 225.585 38.0637 223.473 40.3492C222.113 41.8292 221.382 41.7286 220.17 40.137C218.235 37.5848 216.128 35.1851 213.335 33.1037ZM215.123 32.4671C217.442 34.1838 219.183 36.4176 221.202 38.3685C221.537 38.6922 221.816 39.2962 222.478 38.7412C224.926 36.6925 227.375 34.66 230.148 32.3637C224.885 32.1732 220.029 32.7228 215.132 32.4671H215.123Z" fill="#ED5A67"/>
<path d="M56.7578 209.215C56.7578 209.215 57.4489 200.8 58.4312 190.953C59.0406 184.84 60.3357 178.331 61.0839 172.783C62.0389 165.585 62.9884 157.8 63.8047 158.012C63.9816 158.058 63.1054 163.647 62.5423 168.485C62.3219 170.376 62.0634 172.503 61.7832 174.77C61.3316 178.388 60.5398 181.7 60.0283 185.617C58.5073 197.278 57.2558 209.131 57.2558 209.131L56.7578 209.215Z" fill="white"/>
</svg>
