<svg width="346" height="362" viewBox="0 0 346 362" fill="none" xmlns="http://www.w3.org/2000/svg">
<path d="M151.584 245.248C147.689 232.433 135.939 224.592 122.74 218.199C72.0167 193.583 71.4592 125.875 122.653 98.312C143.396 87.1334 168.729 83.7523 194.764 95.416C221.66 108.448 212.509 152.424 218.084 166.925C222.507 189.312 235.387 211.951 231.985 234.576C230.457 270.443 157.572 279.659 151.584 245.248Z" fill="#1DBF73"/>
<path opacity="0.9" d="M151.584 245.248C147.689 232.433 135.939 224.592 122.74 218.199C72.0167 193.583 71.4592 125.875 122.653 98.312C143.396 87.1334 168.729 83.7523 194.764 95.416C221.66 108.448 212.509 152.424 218.084 166.925C222.507 189.312 235.387 211.951 231.985 234.576C230.457 270.443 157.572 279.659 151.584 245.248Z" fill="white"/>
<path d="M165 309.553C242.528 309.553 305.376 305.884 305.376 301.358C305.376 296.831 242.528 293.162 165 293.162C87.4722 293.162 24.6235 296.831 24.6235 301.358C24.6235 305.884 87.4722 309.553 165 309.553Z" fill="#F5F5F5"/>
<path d="M157.623 295.66L151.411 295.566L151.056 281.144L157.268 281.238L157.623 295.66Z" fill="#FFB573"/>
<path d="M197.471 295.682H191.252L188.827 281.281H195.046L197.471 295.682Z" fill="#FFB573"/>
<path d="M190.528 294.284H198.108C198.235 294.287 198.357 294.33 198.457 294.407C198.557 294.483 198.631 294.59 198.666 294.711L200.252 300.236C200.292 300.365 200.301 300.503 200.277 300.637C200.254 300.771 200.199 300.897 200.117 301.005C200.034 301.114 199.928 301.201 199.805 301.26C199.682 301.318 199.548 301.347 199.412 301.343C196.972 301.3 195.184 301.162 192.107 301.162C190.217 301.162 186.886 301.358 184.273 301.358C181.659 301.358 181.152 298.773 182.209 298.541C186.93 297.492 188.096 296.051 189.544 294.668C189.812 294.421 190.163 294.284 190.528 294.284Z" fill="#263238"/>
<path d="M151.244 294.168L158.021 294.277C158.139 294.275 158.253 294.318 158.341 294.397C158.428 294.477 158.482 294.586 158.491 294.704L159.02 300.25C159.03 300.391 159.01 300.533 158.963 300.666C158.915 300.8 158.84 300.922 158.743 301.025C158.645 301.127 158.528 301.209 158.397 301.264C158.267 301.319 158.126 301.346 157.984 301.343C155.545 301.264 152.033 301.068 148.956 301.017C145.336 300.96 144.388 301.112 140.174 301.017C137.626 300.981 137.278 298.389 138.342 298.172C143.331 297.188 145.162 297.13 149.687 294.61C150.159 294.33 150.696 294.178 151.244 294.168Z" fill="#263238"/>
<path d="M153.727 112.944C153.286 117.216 152.743 121.451 152.135 125.701C151.526 129.951 150.824 134.172 150.028 138.414C149.825 139.493 149.637 140.507 149.398 141.636C149.26 142.23 149.123 142.831 148.971 143.41L148.457 145.111C147.732 147.277 146.866 149.393 145.865 151.446C144.899 153.459 143.842 155.409 142.694 157.296C141.553 159.192 140.313 161.026 138.98 162.791L134.932 160.467C136.38 156.594 137.886 152.641 139.066 148.753C139.66 146.805 140.189 144.872 140.587 142.961L140.847 141.556L141.036 140.195L141.405 137.097C142.353 128.713 143.244 120.235 144.359 111.844L153.727 112.944Z" fill="#FFB573"/>
<path d="M154.509 107.405C158.578 111.749 156.602 129.191 156.602 129.191L141.108 121.581C141.491 118.285 142.045 115.01 142.766 111.771C143.816 106.58 150.52 103.192 154.509 107.405Z" fill="#1DBF73"/>
<path opacity="0.3" d="M154.509 107.405C158.578 111.749 156.602 129.191 156.602 129.191L141.108 121.581C141.491 118.285 142.045 115.01 142.766 111.771C143.816 106.58 150.52 103.192 154.509 107.405Z" fill="white"/>
<path d="M136.409 158.223L131.167 163.124L136.959 167.186C136.959 167.186 141.506 163.928 139.776 159.743L136.409 158.223Z" fill="#FFB573"/>
<path d="M131.399 168.808L132.804 169.177C133.239 169.294 133.698 169.288 134.13 169.161C134.561 169.033 134.95 168.788 135.251 168.453L136.96 167.186L131.168 163.124L129.85 165.296C129.679 165.623 129.584 165.984 129.571 166.353C129.559 166.721 129.63 167.088 129.779 167.425C129.928 167.763 130.151 168.062 130.431 168.301C130.712 168.541 131.043 168.714 131.399 168.808Z" fill="#FFB573"/>
<path opacity="0.2" d="M151.063 281.144L151.244 288.579L157.456 288.681L157.275 281.245L151.063 281.144Z" fill="black"/>
<path opacity="0.2" d="M195.046 281.288H188.827L190.079 288.709H196.299L195.046 281.288Z" fill="black"/>
<path d="M180.038 108.368C178.423 130.95 183.049 152.46 183.245 157.202L150.115 160.098C142.513 133.947 144.033 116.492 145.177 109.7C145.333 108.739 145.755 107.841 146.395 107.107C147.034 106.372 147.866 105.831 148.797 105.545C149.362 105.371 149.992 105.19 150.665 105.009C151.548 104.77 152.504 104.538 153.503 104.321C154.053 104.198 154.618 104.089 155.19 103.981C159.88 103.295 164.606 102.879 169.344 102.736C170.235 102.699 171.14 102.692 172.023 102.692C172.906 102.692 173.645 102.692 174.405 102.743H175.049C175.75 102.774 176.437 102.945 177.07 103.247C177.703 103.549 178.269 103.975 178.735 104.499C179.2 105.024 179.555 105.637 179.779 106.302C180.003 106.966 180.091 107.669 180.038 108.368Z" fill="#1DBF73"/>
<path opacity="0.4" d="M180.038 108.368C178.423 130.95 183.049 152.46 183.245 157.202L150.115 160.098C142.513 133.947 144.033 116.492 145.177 109.7C145.333 108.739 145.755 107.841 146.395 107.107C147.034 106.372 147.866 105.831 148.797 105.545C149.362 105.371 149.992 105.19 150.665 105.009C151.548 104.77 152.504 104.538 153.503 104.321C154.053 104.198 154.618 104.089 155.19 103.981C159.88 103.295 164.606 102.879 169.344 102.736C170.235 102.699 171.14 102.692 172.023 102.692C172.906 102.692 173.645 102.692 174.405 102.743H175.049C175.75 102.774 176.437 102.945 177.07 103.247C177.703 103.549 178.269 103.975 178.735 104.499C179.2 105.024 179.555 105.637 179.779 106.302C180.003 106.966 180.091 107.669 180.038 108.368Z" fill="white"/>
<path opacity="0.3" d="M179.697 118.533L174.673 117.99C175.436 121.047 177.276 123.726 179.856 125.534C179.755 123.261 179.704 120.908 179.697 118.533Z" fill="#1DBF73"/>
<path d="M166.542 86.9958C166.043 91.6005 165.876 99.9844 169.308 102.736C167.056 105.393 164.081 108.528 158.716 109.157C153.351 109.787 153.973 106.03 155.226 103.952C160.171 102.308 159.722 98.5726 158.535 95.1264L166.542 86.9958Z" fill="#FFB573"/>
<path d="M158.73 114.088C158.73 114.711 158.441 115.203 158.108 115.203C157.775 115.203 157.514 114.689 157.521 114.073C157.528 113.458 157.811 112.958 158.137 112.966C158.462 112.973 158.737 113.473 158.73 114.088Z" fill="white"/>
<path d="M158.781 119.156C158.832 119.771 158.6 120.293 158.267 120.322C157.934 120.351 157.63 119.865 157.579 119.25C157.528 118.635 157.767 118.113 158.1 118.084C158.433 118.055 158.737 118.541 158.781 119.156Z" fill="white"/>
<path opacity="0.2" d="M163.277 90.3118L158.535 95.1191C158.825 95.9185 159.043 96.7424 159.186 97.5807C161.098 97.1391 163.566 94.7861 163.595 92.7516C163.637 91.9258 163.529 91.0993 163.277 90.3118Z" fill="black"/>
<path d="M149.304 77.0698C149.304 77.0698 153.293 75.2019 156.971 75.7304C161.894 78.9884 157.145 81.3776 154.321 87.3796C150.563 89.1823 151.888 87.271 151.888 87.271C151.888 87.271 146.4 84.0781 149.304 77.0698Z" fill="#263238"/>
<path d="M166.492 80.1251C166.644 86.2936 167.049 89.8991 164.225 93.3164C159.968 98.4568 152.149 96.3065 150.158 90.3045C148.363 84.9035 148.413 75.7232 154.205 72.762C155.48 72.103 156.902 71.7807 158.336 71.8257C159.771 71.8707 161.17 72.2815 162.401 73.0192C163.632 73.7569 164.653 74.7969 165.369 76.0405C166.085 77.2842 166.472 78.6902 166.492 80.1251Z" fill="#FFB573"/>
<path d="M160.656 75.3756C160.656 75.3756 164.037 72.552 167.73 72.1249C173.326 74.0218 169.337 77.5404 168.128 84.0636C164.957 86.7714 165.753 84.5849 165.753 84.5849C165.753 84.5849 159.592 82.8908 160.656 75.3756Z" fill="#263238"/>
<path d="M161.836 76.0996C160.229 77.4463 152.164 80.6681 147.219 76.8236C144.323 74.5575 144.837 69.1492 149.116 68.0705C148.811 68.9393 150.18 71.5674 154.799 69.7574C159.186 68.0488 168.642 67.5854 168.099 73.3774C167.556 79.1694 161.836 76.0996 161.836 76.0996Z" fill="#263238"/>
<path d="M166.383 72.19C166.383 72.19 168.844 70.9882 169.597 69.294C170.712 72.4 167.853 73.1964 166.383 72.19Z" fill="#263238"/>
<path d="M169.851 86.6483C169.499 87.3326 169.015 87.9406 168.427 88.4375C167.84 88.9345 167.16 89.3106 166.426 89.5443C164.464 90.1597 163.422 88.4221 163.914 86.5325C164.363 84.8383 165.92 82.4708 167.911 82.6808C169.902 82.8908 170.705 84.9542 169.851 86.6483Z" fill="#FFB573"/>
<path d="M162.596 225.461C163.32 210.793 171.893 158.187 171.893 158.187L150.115 160.076C150.115 160.076 145.915 204.508 146.133 223.484C146.35 243.221 148.949 286.429 148.949 286.429L159.476 286.588C159.476 286.588 161.814 241.092 162.596 225.461Z" fill="#263238"/>
<path opacity="0.2" d="M165.478 174.759C162.061 183.295 162.394 204.306 163.74 213.754C165.058 202.778 167.245 188.023 169.018 176.468C167.317 175.613 165.963 174.955 165.478 174.759Z" fill="black"/>
<path d="M161.865 159.056C161.865 159.056 170.553 207.81 174.173 225.866C178.097 245.646 187.98 286.595 187.98 286.595H198.304C198.304 286.595 192.686 243.988 189.109 224.664C185.026 202.669 186.076 170.488 183.245 157.202L161.865 159.056Z" fill="#263238"/>
<path d="M186.778 286.842H198.985L198.724 282.838L184.925 282.577L186.778 286.842Z" fill="#1DBF73"/>
<path d="M148.558 286.653L160.164 286.849L160.229 282.794L147.146 282.367L148.558 286.653Z" fill="#1DBF73"/>
<path d="M157.333 82.6518C157.376 83.1514 157.145 83.5786 156.819 83.6075C156.493 83.6365 156.189 83.2528 156.146 82.7532C156.102 82.2536 156.334 81.8265 156.66 81.7975C156.985 81.7686 157.29 82.1523 157.333 82.6518Z" fill="#263238"/>
<path d="M151.686 83.1369C151.729 83.6365 151.498 84.0636 151.172 84.0926C150.846 84.1216 150.542 83.7378 150.498 83.2383C150.455 82.7387 150.687 82.3116 151.012 82.2826C151.338 82.2536 151.642 82.6374 151.686 83.1369Z" fill="#263238"/>
<path d="M153.503 83.26C153.037 84.839 152.358 86.3469 151.483 87.7416C152.439 88.4656 153.908 87.9805 153.908 87.9805L153.503 83.26Z" fill="#ED893E"/>
<path d="M158.404 87.6764C157.849 87.7101 157.306 87.8557 156.808 88.1045C156.311 88.3534 155.869 88.7003 155.508 89.1244C155.481 89.1527 155.466 89.1903 155.466 89.2294C155.466 89.2685 155.481 89.3061 155.508 89.3344C155.537 89.3598 155.575 89.3739 155.613 89.3739C155.652 89.3739 155.689 89.3598 155.718 89.3344C156.128 88.8637 156.644 88.4965 157.222 88.2625C157.801 88.0285 158.427 87.9344 159.049 87.9877C159.087 87.9879 159.123 87.9739 159.151 87.9484C159.18 87.923 159.197 87.8879 159.201 87.8502C159.203 87.8306 159.201 87.8108 159.195 87.792C159.189 87.7732 159.179 87.7558 159.166 87.7409C159.153 87.726 159.138 87.7139 159.12 87.7053C159.102 87.6967 159.083 87.6918 159.063 87.6909C158.844 87.6674 158.624 87.6625 158.404 87.6764Z" fill="#263238"/>
<path d="M156.471 79.3359C156.421 79.3493 156.378 79.3801 156.348 79.4228C156.321 79.4497 156.299 79.4819 156.284 79.5173C156.27 79.5527 156.262 79.5907 156.262 79.6291C156.262 79.6675 156.27 79.7056 156.284 79.741C156.299 79.7764 156.321 79.8085 156.348 79.8355C156.697 80.1491 157.116 80.3735 157.57 80.4895C158.024 80.6055 158.499 80.6097 158.955 80.5016C158.992 80.4917 159.027 80.4743 159.057 80.4504C159.087 80.4265 159.112 80.3967 159.131 80.3628C159.149 80.3289 159.16 80.2916 159.164 80.2532C159.167 80.2148 159.162 80.1761 159.15 80.1396C159.14 80.1022 159.123 80.0672 159.099 80.0367C159.075 80.0062 159.046 79.9807 159.012 79.9618C158.978 79.9429 158.941 79.931 158.903 79.9267C158.864 79.9224 158.825 79.9259 158.788 79.9368C158.427 80.0168 158.051 80.0085 157.693 79.9127C157.335 79.8169 157.006 79.6365 156.732 79.3866C156.696 79.358 156.653 79.3384 156.608 79.3296C156.563 79.3208 156.516 79.323 156.471 79.3359Z" fill="#263238"/>
<path d="M151.02 79.5024C150.972 79.4972 150.924 79.5037 150.88 79.5214C150.836 79.5391 150.797 79.5674 150.766 79.6038C150.538 79.8955 150.244 80.1285 149.908 80.2833C149.571 80.4382 149.203 80.5106 148.833 80.4943C148.759 80.4924 148.688 80.518 148.632 80.5661C148.576 80.6143 148.54 80.6815 148.531 80.7547C148.522 80.8279 148.54 80.9018 148.583 80.9621C148.625 81.0224 148.689 81.0647 148.761 81.0808C149.228 81.1104 149.695 81.0264 150.122 80.836C150.55 80.6456 150.925 80.3545 151.215 79.9875C151.24 79.9576 151.26 79.923 151.271 79.8857C151.283 79.8484 151.288 79.8091 151.284 79.77C151.281 79.731 151.27 79.693 151.252 79.6583C151.234 79.6235 151.209 79.5927 151.179 79.5676C151.133 79.5313 151.078 79.5088 151.02 79.5024Z" fill="#263238"/>
<path d="M188.544 295.392C189.087 295.378 189.626 295.302 190.152 295.168C190.18 295.161 190.205 295.146 190.223 295.123C190.242 295.101 190.252 295.073 190.253 295.044C190.257 295.016 190.252 294.987 190.239 294.961C190.226 294.935 190.206 294.914 190.181 294.9C189.942 294.755 187.857 293.524 187.191 293.879C187.117 293.918 187.056 293.978 187.017 294.052C186.977 294.125 186.959 294.208 186.966 294.292C186.96 294.441 186.989 294.589 187.051 294.725C187.112 294.86 187.205 294.98 187.321 295.073C187.684 295.308 188.113 295.419 188.544 295.392ZM189.71 294.958C188.668 295.168 187.857 295.131 187.495 294.849C187.418 294.783 187.357 294.701 187.317 294.608C187.277 294.515 187.258 294.414 187.263 294.313C187.263 294.197 187.306 294.161 187.343 294.139C187.69 293.944 188.892 294.473 189.71 294.943V294.958Z" fill="#1DBF73"/>
<path d="M190.123 295.153C190.143 295.154 190.162 295.15 190.18 295.141C190.198 295.133 190.214 295.121 190.227 295.105C190.24 295.09 190.248 295.072 190.253 295.053C190.258 295.033 190.258 295.013 190.253 294.994C190.253 294.921 189.978 293.126 189.218 292.532C189.13 292.459 189.028 292.405 188.919 292.372C188.809 292.34 188.694 292.33 188.581 292.344C188.472 292.343 188.367 292.383 188.285 292.455C188.204 292.527 188.152 292.627 188.139 292.735C188.052 293.423 189.384 294.791 190.05 295.139L190.123 295.153ZM188.675 292.634C188.802 292.638 188.924 292.684 189.022 292.764C189.489 293.317 189.785 293.994 189.877 294.711C189.211 294.226 188.349 293.198 188.429 292.786C188.429 292.786 188.429 292.663 188.631 292.641H188.704L188.675 292.634Z" fill="#1DBF73"/>
<path d="M150.607 295.016C150.632 295.008 150.655 294.993 150.672 294.972C150.689 294.952 150.699 294.926 150.701 294.9C150.706 294.87 150.702 294.839 150.689 294.812C150.676 294.785 150.655 294.762 150.629 294.748C150.346 294.596 147.87 293.3 147.103 293.698C147.031 293.736 146.971 293.793 146.928 293.861C146.885 293.93 146.86 294.008 146.857 294.089C146.837 294.222 146.852 294.358 146.899 294.485C146.946 294.611 147.023 294.724 147.124 294.813C147.79 295.428 149.579 295.211 150.585 295.03L150.607 295.016ZM147.298 293.944C147.769 293.792 149.115 294.328 150.093 294.813C148.717 295.023 147.696 294.943 147.32 294.596C147.255 294.537 147.206 294.464 147.177 294.382C147.148 294.299 147.14 294.211 147.153 294.125C147.152 294.092 147.161 294.06 147.177 294.032C147.194 294.004 147.218 293.981 147.247 293.966L147.298 293.944Z" fill="#1DBF73"/>
<path d="M150.607 295.016C150.628 295 150.646 294.979 150.657 294.955C150.668 294.931 150.674 294.905 150.672 294.878C150.672 294.813 150.52 293.133 149.738 292.467C149.628 292.371 149.499 292.298 149.36 292.253C149.22 292.209 149.073 292.193 148.927 292.206C148.522 292.243 148.406 292.445 148.377 292.605C148.247 293.329 149.716 294.675 150.462 295.023C150.484 295.038 150.509 295.046 150.536 295.045C150.562 295.043 150.587 295.033 150.607 295.016ZM148.84 292.496H148.992C149.1 292.488 149.208 292.502 149.31 292.537C149.412 292.572 149.506 292.627 149.586 292.699C150.042 293.244 150.318 293.916 150.375 294.625C149.651 294.154 148.623 293.082 148.703 292.663C148.703 292.619 148.717 292.554 148.84 292.496Z" fill="#1DBF73"/>
<path d="M179.567 107.282C180.291 108.064 180.87 108.73 181.485 109.505C182.101 110.28 182.687 110.989 183.266 111.742C184.432 113.255 185.533 114.819 186.597 116.434C188.832 119.746 190.667 123.311 192.063 127.055C192.419 128.093 192.712 129.152 192.939 130.226C193.004 130.501 193.048 130.798 193.098 131.08L193.171 131.515V131.688C193.171 131.819 193.171 131.949 193.214 132.079C193.232 132.342 193.232 132.606 193.214 132.868C193.133 133.785 192.827 134.668 192.324 135.439C191.993 135.948 191.591 136.406 191.129 136.8C190.53 137.303 189.868 137.727 189.16 138.06C188.619 138.322 188.063 138.551 187.495 138.747C186.503 139.087 185.489 139.361 184.461 139.565C182.55 139.961 180.615 140.23 178.669 140.369C176.774 140.526 174.872 140.575 172.971 140.514L172.363 135.888C175.73 134.751 179.219 133.716 182.289 132.434C183.049 132.116 183.781 131.775 184.41 131.449C184.685 131.301 184.951 131.137 185.207 130.957C185.417 130.812 185.547 130.653 185.482 130.668C185.357 130.754 185.251 130.865 185.171 130.993C184.915 131.38 184.763 131.827 184.729 132.289C184.729 132.441 184.729 132.593 184.729 132.738V132.963L184.664 132.731C184.62 132.572 184.591 132.42 184.533 132.246C184.317 131.553 184.061 130.874 183.766 130.211C183.136 128.751 182.405 127.336 181.58 125.976C180.732 124.528 179.791 123.131 178.807 121.733C177.822 120.336 176.779 118.939 175.73 117.563L174.122 115.521L172.522 113.559L179.567 107.282Z" fill="#FFB573"/>
<path d="M175.136 102.765C180.812 102.859 188.168 114.747 188.168 114.747L176.519 124.427C176.519 124.427 170.56 118.801 168.446 113.386C166.144 107.485 168.236 102.656 175.136 102.765Z" fill="#1DBF73"/>
<path opacity="0.4" d="M175.136 102.765C180.812 102.859 188.168 114.747 188.168 114.747L176.519 124.427C176.519 124.427 170.56 118.801 168.446 113.386C166.144 107.485 168.236 102.656 175.136 102.765Z" fill="white"/>
<path d="M168.62 101.541C168.62 101.541 167.006 105.53 158.484 109.179C160.171 110.301 161.38 113.393 161.38 113.393C161.38 113.393 172.486 108.73 171.089 102.316C170.314 101.925 169.48 101.663 168.62 101.541Z" fill="white"/>
<path d="M155.964 113.444C155.964 113.444 156.688 110.453 158.506 109.179C157.427 108.368 155.566 105.704 156.059 103.445C155.362 103.501 154.676 103.657 154.024 103.908C154.024 103.908 151.244 108.89 155.964 113.444Z" fill="white"/>
<path d="M169.663 145.473C169.444 145.47 169.233 145.399 169.057 145.269C168.882 145.139 168.752 144.957 168.685 144.749L151.852 97.3852C151.756 97.126 151.767 96.8393 151.883 96.5881C151.998 96.3369 152.208 96.1419 152.468 96.0458C152.727 95.9498 153.014 95.9607 153.265 96.0761C153.516 96.1916 153.711 96.402 153.807 96.6612L170.64 144.076C170.686 144.204 170.706 144.34 170.699 144.477C170.692 144.613 170.659 144.746 170.6 144.869C170.542 144.992 170.459 145.103 170.358 145.194C170.257 145.285 170.139 145.356 170.01 145.401C169.899 145.443 169.781 145.467 169.663 145.473Z" fill="#263238"/>
<path d="M154.167 103.912C160.744 101.603 163.773 93.168 160.93 85.072C158.088 76.9759 150.452 72.2846 143.874 74.5938C137.297 76.9029 134.268 85.3381 137.111 93.4342C139.953 101.53 147.589 106.221 154.167 103.912Z" fill="#263238"/>
<path d="M154.543 103.499C160.85 101.257 163.624 92.8607 160.739 84.7453C157.854 76.63 150.403 71.8688 144.096 74.1109C137.789 76.3529 135.015 84.7492 137.9 92.8646C140.785 100.98 148.237 105.741 154.543 103.499Z" fill="#1DBF73"/>
<path d="M141.557 91.5498C141.12 91.5397 140.691 91.4332 140.301 91.238C139.91 91.0427 139.568 90.7635 139.298 90.4204C139.276 90.3907 139.26 90.3568 139.251 90.3208C139.243 90.2849 139.241 90.2475 139.247 90.211C139.253 90.1745 139.267 90.1396 139.287 90.1084C139.307 90.0772 139.333 90.0503 139.363 90.0294C139.424 89.9856 139.5 89.9671 139.574 89.9779C139.648 89.9887 139.715 90.0279 139.761 90.0873C140.072 90.468 140.492 90.7435 140.965 90.8759C141.438 91.0084 141.94 90.9914 142.403 90.8273C142.866 90.6633 143.267 90.3601 143.551 89.9593C143.835 89.5585 143.988 89.0798 143.989 88.5886C143.985 88.513 144.011 88.4388 144.061 88.3819C144.111 88.3251 144.182 88.2901 144.257 88.2846C144.295 88.2816 144.333 88.2863 144.369 88.2982C144.405 88.3102 144.438 88.3292 144.466 88.3542C144.494 88.3792 144.517 88.4096 144.534 88.4436C144.55 88.4777 144.56 88.5147 144.561 88.5524C144.575 89.1694 144.392 89.7747 144.038 90.28C143.683 90.7853 143.177 91.1642 142.592 91.3616C142.261 91.4861 141.91 91.5498 141.557 91.5498Z" fill="white"/>
<path d="M153.141 87.4302C152.705 87.4187 152.276 87.3115 151.886 87.1164C151.496 86.9212 151.153 86.6428 150.882 86.3008C150.839 86.2401 150.822 86.1651 150.834 86.092C150.847 86.0188 150.887 85.9534 150.947 85.9098C150.977 85.8876 151.012 85.8716 151.048 85.8628C151.085 85.8541 151.123 85.8527 151.16 85.8587C151.197 85.8648 151.233 85.8782 151.264 85.8982C151.296 85.9181 151.324 85.9443 151.345 85.975C151.657 86.3548 152.079 86.6292 152.553 86.7607C153.026 86.8921 153.529 86.8743 153.992 86.7097C154.455 86.545 154.856 86.2415 155.14 85.8405C155.425 85.4395 155.579 84.9606 155.581 84.4691C155.578 84.4314 155.582 84.3935 155.594 84.3577C155.606 84.3218 155.625 84.2887 155.65 84.2604C155.675 84.232 155.706 84.209 155.74 84.1926C155.774 84.1762 155.811 84.1668 155.849 84.165C155.886 84.162 155.923 84.1667 155.959 84.1788C155.994 84.1908 156.027 84.2099 156.055 84.235C156.082 84.2601 156.105 84.2906 156.12 84.3246C156.136 84.3586 156.145 84.3955 156.145 84.4329C156.16 85.049 155.977 85.6535 155.624 86.1588C155.272 86.664 154.767 87.0434 154.183 87.242C153.85 87.366 153.497 87.4297 153.141 87.4302Z" fill="white"/>
<path d="M147.139 96.9002C147.066 96.9004 146.995 96.8729 146.942 96.8232C146.888 96.7735 146.855 96.7053 146.849 96.6323C146.845 95.7745 147.107 94.9365 147.599 94.2344C148.092 93.5322 148.791 93.0007 149.599 92.7135C150.408 92.4263 151.285 92.3977 152.11 92.6315C152.936 92.8654 153.668 93.3501 154.205 94.0186C154.228 94.0489 154.244 94.0833 154.252 94.1199C154.261 94.1564 154.262 94.1943 154.256 94.2314C154.25 94.2685 154.237 94.304 154.217 94.3359C154.197 94.3677 154.171 94.3952 154.14 94.4168C154.078 94.4599 154.002 94.4772 153.928 94.465C153.853 94.4529 153.787 94.4122 153.742 94.3517C153.277 93.7831 152.649 93.372 151.941 93.1746C151.234 92.9771 150.483 93.003 149.791 93.2487C149.1 93.4944 148.501 93.9478 148.076 94.547C147.652 95.1462 147.423 95.8619 147.421 96.5961C147.425 96.6717 147.4 96.7459 147.35 96.8028C147.299 96.8596 147.229 96.8946 147.154 96.9002H147.139Z" fill="white"/>
<path d="M139.87 87.6692C139.831 87.6685 139.793 87.6574 139.76 87.637C139.727 87.6166 139.7 87.5877 139.682 87.5533C139.669 87.5286 139.662 87.5017 139.66 87.4741C139.658 87.4465 139.661 87.4188 139.67 87.3926C139.679 87.3663 139.693 87.3421 139.711 87.3212C139.729 87.3003 139.751 87.2833 139.776 87.271C140.734 86.7039 141.564 85.9448 142.214 85.0415C142.865 84.1382 143.321 83.1102 143.555 82.022C143.56 81.9942 143.569 81.9676 143.584 81.9437C143.599 81.9199 143.619 81.8992 143.642 81.883C143.665 81.8668 143.69 81.8554 143.718 81.8494C143.745 81.8434 143.774 81.843 143.801 81.8482C143.857 81.8604 143.905 81.8937 143.936 81.941C143.967 81.9884 143.979 82.046 143.968 82.1016C143.732 83.256 143.253 84.3472 142.564 85.3032C141.876 86.2591 140.992 87.0581 139.971 87.6474C139.939 87.6616 139.905 87.669 139.87 87.6692Z" fill="white"/>
<path d="M152.576 82.8111C150.641 82.8295 148.761 82.1627 147.269 80.9287C147.226 80.8922 147.199 80.8401 147.194 80.7837C147.19 80.7274 147.207 80.6715 147.244 80.6283C147.28 80.5851 147.333 80.5581 147.389 80.5534C147.445 80.5486 147.501 80.5664 147.544 80.6029C148.41 81.3024 149.412 81.8137 150.487 82.1042C151.562 82.3947 152.685 82.4579 153.785 82.2898C153.812 82.2841 153.84 82.2838 153.868 82.2889C153.895 82.294 153.921 82.3044 153.944 82.3196C153.967 82.3347 153.987 82.3542 154.003 82.3771C154.018 82.3999 154.029 82.4256 154.035 82.4527C154.041 82.4798 154.041 82.5078 154.036 82.535C154.031 82.5622 154.02 82.5882 154.005 82.6114C153.99 82.6346 153.971 82.6545 153.948 82.6702C153.925 82.6858 153.899 82.6968 153.872 82.7025C153.445 82.7816 153.011 82.8179 152.576 82.8111Z" fill="white"/>
<path d="M158.484 90.1597C158.18 90.1364 157.89 90.0174 157.657 89.8197C157.425 89.6221 157.26 89.3559 157.188 89.0592C157.033 88.2204 157.179 87.3537 157.601 86.6121C157.629 86.5659 157.674 86.5322 157.726 86.5174C157.779 86.5027 157.835 86.5081 157.883 86.5325C158.637 86.9302 159.227 87.5814 159.548 88.3714C159.676 88.7047 159.667 89.075 159.524 89.4018C159.38 89.7286 159.113 89.9854 158.781 90.1163C158.685 90.1454 158.585 90.16 158.484 90.1597ZM157.876 87.0248C157.571 87.6152 157.474 88.2911 157.601 88.9434C157.604 89.0711 157.636 89.1964 157.696 89.3095C157.755 89.4226 157.84 89.5206 157.943 89.5957C158.046 89.6709 158.166 89.7213 158.292 89.743C158.417 89.7647 158.547 89.7572 158.669 89.7209C158.792 89.6847 158.904 89.6207 158.998 89.534C159.092 89.4473 159.165 89.3402 159.21 89.2209C159.256 89.1017 159.274 88.9735 159.262 88.8462C159.25 88.719 159.21 88.5962 159.143 88.4873C158.901 87.8755 158.463 87.3612 157.898 87.0248H157.876Z" fill="white"/>
<path d="M163.552 139.29L164.124 140.586C164.304 140.994 164.592 141.344 164.957 141.599C165.322 141.854 165.75 142.005 166.195 142.034L169.482 142.259L168.432 134.881L165.036 135.974C164.71 136.079 164.409 136.251 164.154 136.48C163.898 136.708 163.694 136.988 163.554 137.301C163.414 137.614 163.341 137.953 163.341 138.296C163.341 138.638 163.413 138.977 163.552 139.29Z" fill="#FFB573"/>
<path d="M174.723 135.569L168.446 134.845L169.496 142.223C169.496 142.223 175.288 142.165 175.853 139.138L174.723 135.569Z" fill="#FFB573"/>
</svg>
