<svg width="190" height="200" viewBox="0 0 190 200" fill="none" xmlns="http://www.w3.org/2000/svg">
<g clip-path="url(#clip0_1150_3241)">
<path opacity="0.2" d="M94.6109 9.57812H94.6107C42.3586 9.57812 0 51.9368 0 104.189V104.189C0 156.441 42.3586 198.8 94.6107 198.8H94.6109C146.863 198.8 189.222 156.441 189.222 104.189V104.189C189.222 51.9368 146.863 9.57812 94.6109 9.57812Z" fill="#CEB7A1"/>
<path d="M82.4263 82.0344C79.4518 79.8879 76.7347 79.0402 73.1477 77.9211C69.1926 76.687 63.0323 75.2695 55.0898 75.4632C57.05 87.7422 61.3481 99.5161 67.744 110.127C71.4539 116.29 80.295 130.604 98.0653 141.782C101.335 143.837 104.73 145.681 108.229 147.302L120.958 121.818C115.776 119.413 110.935 116.313 106.564 112.602C98.879 106.067 93.9786 98.7218 93.0558 97.3183C87.9264 89.5169 87.7113 85.8484 82.4263 82.0344Z" fill="#CEB7A1"/>
<path d="M122.74 86.2266C121.169 88.4752 91.6827 131.259 103.304 144.015C105.146 146.037 108.744 147.628 112.164 147.248C114.636 146.974 120.193 145.306 127.882 127.205C131.406 118.907 135.722 106.348 137.724 89.7975L122.74 86.2266Z" fill="#CEB7A1"/>
<path d="M66.5874 63.4821C66.5874 63.4821 79.1024 63.0031 82.1059 70.9854C85.1095 78.9677 74.3467 87.4287 74.3467 87.4287H56.6045L53.8926 71.3046L66.5874 63.4821Z" fill="#CEB7A1"/>
<path d="M79.4221 115.719C78.3774 94.353 78.9112 83.9242 70.7406 78.4373C69.8926 77.8706 68.9968 77.3785 68.0634 76.9665C66.2366 76.155 65.1178 74.4098 65.1178 72.5425V67.3874C67.0655 66.8953 68.9619 66.2197 70.7814 65.3695C81.9589 60.1731 83.2475 45.8146 81.8692 33.1121C80.4739 20.2525 70.0196 10.9416 58.2063 10.083C55.728 9.6118 53.1982 9.46956 50.6825 9.65994C34.9311 10.852 23.1308 24.5559 24.3257 40.2695C25.2849 52.8918 34.3414 62.9641 46.0313 65.8229C46.5923 66.0513 47.1666 66.2676 47.754 66.4719V72.4563C47.754 74.9023 46.27 77.114 43.9481 78.3037C43.7092 78.4259 43.4739 78.5513 43.2421 78.6798C27.8439 87.2135 25.3211 108.477 22.746 130.18C21.3164 142.226 21.1751 154.389 22.3246 166.464H83.8321C81.1496 144.746 79.9897 127.327 79.4221 115.719Z" fill="white"/>
<path d="M83.3658 167.661H22.7785C22.6624 167.661 22.5505 167.617 22.4646 167.538C22.3787 167.459 22.3249 167.35 22.3139 167.233C21.1802 155.104 21.3198 142.888 22.7302 130.79C25.3271 108.535 27.7801 87.5147 43.1564 78.8496C43.3892 78.7183 43.6255 78.5903 43.8653 78.4656C46.0213 77.3426 47.3607 75.2601 47.3607 73.0303V67.3707C46.8894 67.1991 46.4283 67.0202 45.9859 66.8376C38.7416 65.025 32.4807 60.4163 28.5354 53.9924C24.5901 47.5684 23.272 39.8364 24.8615 32.4416C26.451 25.0468 30.8227 18.5732 37.0462 14.3982C43.2697 10.2233 50.8537 8.67662 58.1844 10.0874C70.5724 11.0164 80.5425 20.8898 81.8961 33.5733C83.7236 50.6997 79.8548 62.0375 70.7075 66.3611C68.9981 67.1716 67.2214 67.827 65.3981 68.3196V73.1166C65.3981 74.8254 66.4283 76.395 68.0226 77.1157C68.9665 77.5397 69.8725 78.0458 70.7304 78.6284C78.086 83.651 78.4781 92.8855 79.1901 109.649C79.2793 111.751 79.3739 113.979 79.4875 116.339C80.2827 132.875 81.7431 149.963 83.8286 167.131C83.8367 167.197 83.8307 167.265 83.8112 167.329C83.7916 167.393 83.7588 167.452 83.715 167.502C83.6712 167.552 83.6175 167.593 83.5572 167.62C83.4969 167.648 83.4316 167.662 83.3655 167.662L83.3658 167.661ZM23.2033 166.715H82.8383C80.7843 149.703 79.3436 132.772 78.5555 116.385C78.4422 114.022 78.3473 111.793 78.258 109.689C77.5365 92.6975 77.1742 84.1684 70.2096 79.4127C69.3966 78.8608 68.538 78.3813 67.6435 77.9795C65.7127 77.1072 64.4651 75.1981 64.4651 73.1161V67.9526C64.4651 67.8472 64.4998 67.7448 64.5637 67.6617C64.6276 67.5785 64.717 67.5194 64.8178 67.4937C66.7075 67.0073 68.5475 66.3407 70.3134 65.5029C76.4157 62.6182 83.2176 54.7547 80.9684 33.6745C79.6625 21.4367 70.0406 11.9122 58.0895 11.0296C58.0716 11.0282 58.0538 11.0258 58.0362 11.0224C50.9408 9.65011 43.5975 11.1427 37.5711 15.182C31.5447 19.2214 27.3116 25.4881 25.7737 32.6471C24.2359 39.8061 25.5148 47.2912 29.3382 53.5076C33.1615 59.724 39.2268 64.1802 46.2419 65.9267C46.2641 65.9322 46.2859 65.9394 46.3071 65.9482C46.8418 66.1696 47.4052 66.386 47.9815 66.5896C48.0729 66.622 48.1521 66.6824 48.2082 66.7624C48.2642 66.8424 48.2943 66.9382 48.2943 67.0364V73.0303C48.2943 75.6166 46.7606 78.0219 44.2918 79.3076C44.061 79.4277 43.8339 79.5507 43.6102 79.6769C28.651 88.1067 26.2254 108.894 23.6574 130.901C22.2712 142.79 22.119 154.794 23.2033 166.715Z" fill="#090817"/>
<path d="M20.3598 159.188C20.3446 164.829 20.6957 170.465 21.411 176.062C22.3987 183.77 24.0647 191.379 26.3902 198.804H87.4252L83.3918 154.492L20.3598 159.188Z" fill="#080717"/>
<path d="M108.477 31.1679L142.987 10.9925C143.227 10.8541 143.499 10.7812 143.776 10.7812C144.052 10.7812 144.324 10.8541 144.564 10.9925L178.947 31.0938C180.098 31.7664 179.747 33.4039 178.407 33.6159L141.161 39.5042C140.984 39.5323 140.803 39.5301 140.626 39.4977L108.978 33.6833C107.664 33.442 107.343 31.8311 108.477 31.1679Z" fill="white"/>
<path d="M140.95 39.5182C140.826 39.5182 140.703 39.5067 140.581 39.4839L109.351 33.6227C108.971 33.56 108.619 33.3798 108.344 33.1065C108.068 32.8333 107.883 32.4803 107.812 32.0958C107.747 31.7244 107.798 31.3417 107.957 31.0013C108.117 30.6609 108.378 30.3798 108.703 30.1975L142.757 9.85954C143.065 9.67528 143.417 9.57813 143.775 9.57812C144.133 9.57813 144.484 9.67528 144.793 9.85954L178.722 30.1227C179.05 30.3062 179.313 30.5909 179.472 30.9359C179.632 31.2808 179.679 31.6682 179.608 32.0424C179.532 32.4312 179.339 32.7861 179.054 33.0576C178.77 33.329 178.409 33.5035 178.023 33.5565L141.27 39.4923C141.164 39.5095 141.057 39.5181 140.95 39.5182ZM108.943 30.6128L109.184 31.0285C109.027 31.1122 108.899 31.2443 108.821 31.406C108.742 31.5677 108.716 31.7506 108.746 31.9283C108.783 32.1196 108.878 32.2945 109.017 32.4284C109.157 32.5622 109.334 32.6483 109.524 32.6745L140.754 38.5356C140.875 38.5587 140.999 38.5602 141.121 38.5402L177.875 32.6046C178.069 32.5834 178.251 32.5001 178.395 32.3669C178.539 32.2337 178.638 32.0574 178.677 31.8634C178.71 31.6845 178.686 31.4995 178.607 31.3358C178.529 31.1721 178.401 31.0383 178.242 30.9542L144.313 10.6908C144.149 10.5949 143.964 10.5445 143.775 10.5445C143.587 10.5445 143.401 10.5949 143.238 10.6908L109.184 31.0288L108.943 30.6128Z" fill="#090817"/>
<path d="M177.678 29.9375H109.747C108.663 29.9375 107.784 30.8133 107.784 31.8937V79.4783C107.784 80.5587 108.663 81.4345 109.747 81.4345H177.678C178.762 81.4345 179.64 80.5587 179.64 79.4783V31.8937C179.64 30.8133 178.762 29.9375 177.678 29.9375Z" fill="white"/>
<path d="M177.23 81.4345H110.195C109.556 81.4338 108.943 81.1817 108.491 80.7335C108.039 80.2853 107.785 79.6776 107.784 79.0438V32.3282C107.785 31.6944 108.039 31.0867 108.491 30.6385C108.943 30.1903 109.556 29.9382 110.195 29.9375H177.23C177.869 29.9382 178.482 30.1903 178.934 30.6385C179.385 31.0867 179.64 31.6944 179.64 32.3282V79.0438C179.64 79.6776 179.385 80.2853 178.934 80.7335C178.482 81.1817 177.869 81.4338 177.23 81.4345ZM110.195 30.878C109.807 30.8784 109.436 31.0313 109.161 31.3032C108.887 31.5751 108.733 31.9437 108.733 32.3282V79.0438C108.733 79.4283 108.887 79.7969 109.161 80.0688C109.436 80.3407 109.807 80.4936 110.195 80.494H177.23C177.617 80.4936 177.989 80.3407 178.263 80.0688C178.537 79.7969 178.692 79.4283 178.692 79.0438V32.3282C178.692 31.9437 178.537 31.5751 178.263 31.3032C177.989 31.0313 177.617 30.8784 177.23 30.878H110.195Z" fill="#090817"/>
<path d="M143.712 56.2848C143.614 56.2849 143.519 56.2534 143.44 56.1948L109.184 30.8946C109.133 30.8582 109.09 30.8117 109.056 30.7577C109.023 30.7038 109 30.6435 108.989 30.5804C108.979 30.5172 108.98 30.4525 108.994 30.39C109.008 30.3276 109.033 30.2685 109.07 30.2164C109.106 30.1643 109.151 30.1201 109.204 30.0864C109.257 30.0527 109.316 30.0302 109.377 30.0202C109.438 30.0103 109.501 30.013 109.561 30.0283C109.621 30.0435 109.678 30.071 109.728 30.1092L143.711 55.2083L177.695 30.0346C177.745 29.9959 177.802 29.9678 177.862 29.9521C177.923 29.9364 177.985 29.9333 178.047 29.9431C178.108 29.9528 178.168 29.9751 178.221 30.0088C178.274 30.0424 178.32 30.0867 178.356 30.139C178.392 30.1913 178.418 30.2506 178.432 30.3133C178.446 30.3761 178.447 30.441 178.436 30.5044C178.426 30.5678 178.403 30.6283 178.369 30.6823C178.335 30.7364 178.291 30.7829 178.24 30.8192L143.984 56.1945C143.905 56.2533 143.809 56.2849 143.712 56.2848Z" fill="#080717"/>
<path d="M109.595 81.4378C109.475 81.4378 109.357 81.4021 109.257 81.3351C109.157 81.2681 109.078 81.1727 109.031 81.0609C108.984 80.9491 108.971 80.8257 108.992 80.7061C109.014 80.5866 109.07 80.4761 109.153 80.3884C114.082 75.1976 136.024 52.5213 143.05 52.6963C150.153 52.8732 172.497 75.7658 177.102 80.5627C177.172 80.6355 177.219 80.7274 177.237 80.827C177.256 80.9267 177.245 81.0296 177.206 81.123C177.167 81.2164 177.101 81.296 177.018 81.352C176.934 81.408 176.837 81.4379 176.736 81.4378H109.595Z" fill="white"/>
<path d="M176.275 81.4372H110.056C109.846 81.4374 109.64 81.376 109.464 81.2607C109.289 81.1455 109.151 80.9815 109.068 80.7891C108.986 80.5967 108.962 80.3845 109 80.1788C109.038 79.9731 109.136 79.7831 109.282 79.6323C115.414 73.2967 135.903 52.6953 142.976 52.6953C143.005 52.6953 143.034 52.6953 143.062 52.6965C150.081 52.8676 170.791 73.4851 176.971 79.7998C177.104 79.9358 177.194 80.1078 177.229 80.2943C177.264 80.4808 177.244 80.6736 177.169 80.8484C177.095 81.0232 176.97 81.1724 176.811 81.2772C176.652 81.382 176.465 81.4379 176.274 81.4378L176.275 81.4372ZM142.978 53.6272C139.473 53.6272 128.987 60.6178 109.959 80.2789C109.941 80.2978 109.928 80.3216 109.924 80.3474C109.919 80.3731 109.922 80.3997 109.932 80.4237C109.943 80.4477 109.96 80.4683 109.982 80.4827C110.004 80.4971 110.03 80.5048 110.056 80.5048H176.275L176.299 80.4494C173.82 77.9166 167.314 71.3716 160.455 65.3153C149.614 55.7423 145.001 53.6759 143.04 53.6279C143.02 53.6274 142.999 53.6272 142.978 53.6272Z" fill="#090817"/>
<path d="M47.2244 75.2902C47.2244 75.2902 56.9056 85.8804 61.9175 86.711C66.9295 87.5416 67.1334 76.4266 67.1334 76.4266C67.1334 76.4266 77.0819 79.1174 80.9369 94.7789C84.7919 110.44 83.6844 159.086 83.6844 159.086L20.7936 164.069L23.457 93.1178C21.8525 92.6807 15.3826 90.7438 12.8261 85.2871C9.52983 78.251 16.8093 69.0446 17.7952 67.8064C22.5345 61.8554 28.7363 59.5631 31.8128 58.6797L34.9776 61.1799C36.172 61.9989 37.4852 62.8238 38.9204 63.6245C41.6995 65.174 44.6186 66.4575 47.6389 67.458C47.501 70.0688 47.3629 72.6795 47.2244 75.2902Z" fill="#CEB7A1"/>
<path d="M49.2699 79.3573C45.2623 78.8415 37.5476 78.4422 30.4875 82.4664C24.3048 85.9905 22.0135 91.3399 18.9092 96.8165C4.7931 121.72 -2.26491 134.173 2.87125 145.049C4.19611 147.854 8.4324 151.528 16.8508 158.761C26.3983 166.964 34.6629 173.191 40.2646 177.243L50.2991 164.98C42.1515 155.147 34.0038 145.315 25.8561 135.483C31.6689 128.16 36.5553 120.137 40.403 111.599C45.0023 101.381 47.9938 90.5031 49.2699 79.3573Z" fill="#CEB7A1"/>
<path d="M37.6625 49.1065C37.6625 49.1065 31.3005 46.0646 31.3005 40.0836C31.3005 34.1027 36.6196 33.7879 37.6625 35.6765C38.3897 36.9935 39.1677 38.2594 40.1024 38.265C40.7232 38.2687 41.2138 37.7042 41.4172 37.4603C43.4279 35.0477 41.8881 30.0595 43.0859 27.072C45.4096 21.2762 59.1678 20.1972 67.8385 19.5171C71.2357 19.2506 76.5982 19.0334 80.2525 15.2617C81.1744 14.2941 81.8687 13.1307 82.2842 11.8572C84.0738 6.29604 78.7549 0.315086 72.0799 0C72.0799 0 74.1658 3.98312 69.89 3.98525C65.6142 3.98738 35.5761 5.24761 28.0669 11.9631C20.5576 18.6786 23.1998 23.5752 23.1998 23.5752C23.1998 23.5752 13.3261 35.4672 20.6965 50.2972C28.0669 65.1271 47.2228 72.682 50.2991 65.5469C53.3754 58.4117 45.0322 48.6162 37.6625 49.1065Z" fill="#080717"/>
<path d="M47.1828 38.3217C47.0899 38.3217 46.9989 38.2908 46.9213 38.2329C46.8436 38.1749 46.7826 38.0924 46.7459 37.9956C46.7091 37.8987 46.6981 37.7917 46.7143 37.6879C46.7305 37.584 46.7732 37.4878 46.837 37.4112C51.4044 31.9275 56.9209 33.8356 57.1536 33.9199C57.2738 33.9632 57.374 34.0589 57.4321 34.186C57.4901 34.3131 57.5014 34.4611 57.4632 34.5976C57.4251 34.7341 57.3408 34.8478 57.2288 34.9137C57.1168 34.9796 56.9863 34.9923 56.8661 34.949C56.656 34.874 51.6747 33.1734 47.5285 38.1527C47.4841 38.2062 47.4305 38.2487 47.3711 38.2778C47.3116 38.3068 47.2475 38.3217 47.1828 38.3217Z" fill="#080717"/>
<path d="M54.4911 44.3139C56.1446 44.3139 57.4851 43.2415 57.4851 41.9186C57.4851 40.5958 56.1446 39.5234 54.4911 39.5234C52.8375 39.5234 51.4971 40.5958 51.4971 41.9186C51.4971 43.2415 52.8375 44.3139 54.4911 44.3139Z" fill="#080717"/>
<path d="M78.5822 34.7311C78.472 34.7312 78.3654 34.6977 78.2821 34.6367C77.1757 33.8272 75.8102 33.3135 74.3584 33.1606C72.9065 33.0077 71.4336 33.2224 70.1262 33.7776C70.0723 33.8005 70.0135 33.8141 69.9534 33.8178C69.8932 33.8215 69.8328 33.8151 69.7755 33.799C69.6599 33.7665 69.5643 33.6966 69.5097 33.6045C69.4551 33.5124 69.446 33.4057 69.4844 33.308C69.5228 33.2102 69.6055 33.1294 69.7144 33.0832C71.1842 32.4592 72.8399 32.2179 74.4719 32.3899C76.1039 32.5618 77.639 33.1392 78.8827 34.049C78.9536 34.1008 79.0041 34.1697 79.0274 34.2464C79.0507 34.3232 79.0456 34.4041 79.0129 34.4783C78.9802 34.5526 78.9214 34.6166 78.8444 34.6618C78.7674 34.707 78.6759 34.7312 78.5822 34.7311Z" fill="#080717"/>
<path d="M74.2517 43.113C75.5745 43.113 76.6469 41.7726 76.6469 40.119C76.6469 38.4655 75.5745 37.125 74.2517 37.125C72.9288 37.125 71.8564 38.4655 71.8564 40.119C71.8564 41.7726 72.9288 43.113 74.2517 43.113Z" fill="#080717"/>
<path d="M63.9151 47.9067C63.8862 47.9067 63.8594 47.9067 63.8348 47.9067C63.738 47.9055 63.6454 47.8557 63.5775 47.7681C63.5097 47.6806 63.472 47.5624 63.4729 47.4397C63.4712 47.3782 63.4797 47.3169 63.4977 47.2598C63.5158 47.2026 63.543 47.1508 63.5776 47.1077C63.6123 47.0646 63.6536 47.031 63.699 47.0092C63.7444 46.9873 63.7929 46.9777 63.8414 46.9808C64.9112 46.991 66.1616 46.7201 66.3425 46.2979C66.4934 45.7656 65.5296 42.7073 64.5331 40.191C64.4905 40.0814 64.4838 39.9549 64.5145 39.8391C64.5451 39.7233 64.6107 39.6275 64.6969 39.5727C64.783 39.5178 64.8828 39.5084 64.9745 39.5464C65.0661 39.5844 65.1422 39.6667 65.1861 39.7755C65.8767 41.5186 67.4344 45.6862 66.9856 46.7384C66.529 47.8059 64.6145 47.9067 63.9151 47.9067Z" fill="#080717"/>
<path d="M51.2166 51.4182C53.1745 51.3023 54.7004 50.1722 54.6247 48.8942C54.549 47.6162 52.9004 46.6741 50.9426 46.7901C48.9847 46.906 47.4588 48.036 47.5345 49.3141C47.6102 50.5921 49.2587 51.5342 51.2166 51.4182Z" fill="#CEB7A1"/>
<path d="M77.1502 49.2307C79.1081 49.1148 80.634 47.9847 80.5583 46.7067C80.4826 45.4287 78.834 44.4866 76.8761 44.6026C74.9182 44.7185 73.3924 45.8485 73.4681 47.1266C73.5438 48.4046 75.1923 49.3467 77.1502 49.2307Z" fill="#CEB7A1"/>
<path d="M39.0302 47.9009C38.9231 47.9011 38.8189 47.8639 38.7337 47.7951C36.9293 46.3433 36.0725 44.8397 36.1856 43.3263C36.287 41.9748 37.1459 40.9495 37.8522 40.3252L33.9202 39.3456C33.8565 39.3311 33.7961 39.3033 33.7427 39.2638C33.6892 39.2243 33.6438 39.1739 33.609 39.1157C33.5742 39.0574 33.5507 38.9924 33.5399 38.9244C33.5292 38.8564 33.5313 38.7869 33.5463 38.7198C33.5613 38.6527 33.5887 38.5895 33.6271 38.5337C33.6655 38.478 33.7139 38.4309 33.7697 38.3953C33.8255 38.3596 33.8874 38.336 33.9519 38.3259C34.0164 38.3158 34.0822 38.3194 34.1454 38.3365L39.1433 39.5817C39.2401 39.6059 39.3277 39.6606 39.3944 39.7386C39.4612 39.8166 39.5038 39.9142 39.5169 40.0185C39.5299 40.1227 39.5126 40.2287 39.4673 40.3223C39.422 40.416 39.3508 40.4928 39.2633 40.5427C39.2436 40.5541 37.2895 41.6906 37.1633 43.4126C37.0799 44.5507 37.8082 45.7474 39.3278 46.9701C39.4095 47.0358 39.4696 47.127 39.4997 47.2308C39.5298 47.3346 39.5283 47.4457 39.4954 47.5486C39.4626 47.6514 39.4 47.7408 39.3165 47.804C39.2331 47.8673 39.1329 47.9012 39.0302 47.9012V47.9009Z" fill="#080717"/>
<path d="M62.7636 68.2624C57.058 68.2624 53.176 66.7899 52.9907 66.7178C52.9319 66.6951 52.8786 66.662 52.8338 66.6206C52.7891 66.5791 52.7537 66.53 52.7298 66.4761C52.6814 66.3672 52.6826 66.2452 52.733 66.1371C52.7833 66.029 52.8788 65.9435 52.9984 65.8995C53.1179 65.8554 53.2518 65.8565 53.3705 65.9024C53.4208 65.9219 58.4611 67.8278 65.3324 67.2736C65.3965 67.2676 65.4612 67.2733 65.5228 67.2903C65.5844 67.3074 65.6417 67.3354 65.6914 67.3727C65.741 67.41 65.782 67.456 65.812 67.5079C65.842 67.5598 65.8604 67.6166 65.8661 67.675C65.8718 67.7334 65.8647 67.7923 65.8452 67.8482C65.8257 67.9041 65.7942 67.9559 65.7526 68.0007C65.7109 68.0454 65.6599 68.0821 65.6025 68.1087C65.5452 68.1354 65.4826 68.1514 65.4184 68.1558C64.4972 68.2299 63.6102 68.2624 62.7636 68.2624Z" fill="#080717"/>
<path d="M62.8743 58.6833C61.2234 58.6833 59.8799 57.3402 59.8799 55.6893C59.8799 54.0383 61.2229 52.6953 62.8743 52.6953C64.5257 52.6953 65.8679 54.0383 65.8679 55.6893C65.8679 57.3402 64.525 58.6833 62.8743 58.6833ZM62.8743 53.5734C61.7694 53.5734 60.8698 54.5226 60.8698 55.6893C60.8698 56.8559 61.7689 57.8052 62.8743 57.8052C63.9798 57.8052 64.878 56.8559 64.878 55.6893C64.878 54.5226 63.9792 53.5734 62.8743 53.5734Z" fill="#080717"/>
<path d="M83.4368 129.338C83.3339 129.338 83.235 129.29 83.1612 129.204C83.0874 129.118 83.0445 129.001 83.0416 128.877C83.0395 128.788 82.8337 119.833 83.0317 105.735C83.2254 91.9545 80.3824 88.2651 80.3536 88.2295C80.2799 88.1402 80.2387 88.0193 80.2393 87.8936C80.2398 87.7679 80.2819 87.6475 80.3564 87.5591C80.4309 87.4706 80.5316 87.4212 80.6364 87.4219C80.7413 87.4225 80.8416 87.4731 80.9153 87.5624C81.0423 87.7152 84.0227 91.4646 83.822 105.751C83.6245 119.826 83.8293 128.762 83.8319 128.85C83.8334 128.913 83.8246 128.975 83.8061 129.033C83.7877 129.091 83.7598 129.144 83.7242 129.189C83.6885 129.235 83.6458 129.271 83.5984 129.297C83.5511 129.322 83.5 129.336 83.4481 129.338C83.4443 129.338 83.4402 129.338 83.4368 129.338Z" fill="white"/>
<path d="M101.05 136.53C101.024 136.53 100.999 136.528 100.973 136.523C100.855 136.501 100.75 136.43 100.681 136.325C100.612 136.22 100.585 136.09 100.605 135.963C100.722 135.236 103.505 118.098 106.963 112.785C107.032 112.68 107.136 112.608 107.254 112.586C107.372 112.563 107.493 112.592 107.591 112.665C107.69 112.739 107.756 112.852 107.777 112.978C107.798 113.105 107.771 113.235 107.703 113.34C104.36 118.477 101.523 135.952 101.495 136.128C101.476 136.24 101.422 136.342 101.341 136.416C101.259 136.49 101.157 136.53 101.05 136.53Z" fill="white"/>
<path d="M22.0203 93.4135C21.9374 93.4134 21.8561 93.3917 21.7847 93.3507C21.7133 93.3097 21.6545 93.2508 21.6145 93.1802C21.5744 93.1096 21.5545 93.0299 21.5568 92.9493C21.5592 92.8687 21.5836 92.7902 21.6277 92.7219C21.8821 92.328 27.9132 83.0571 32.732 81.5545C34.6688 80.95 37.2612 82.7723 40.5429 85.0792C45.95 88.8803 53.3551 94.0853 61.6409 90.8445C61.7549 90.8008 61.8821 90.8028 61.9946 90.85C62.1071 90.8971 62.1959 90.9856 62.2417 91.0962C62.2874 91.2067 62.2863 91.3304 62.2387 91.4402C62.1911 91.5499 62.1007 91.637 61.9874 91.6823C53.2262 95.1085 45.581 89.7348 39.9988 85.8112C37.0502 83.7391 34.505 81.9515 33.0153 82.4145C28.5162 83.8173 22.4746 93.1085 22.414 93.2022C22.3722 93.267 22.3141 93.3204 22.2453 93.3574C22.1764 93.3944 22.099 93.4137 22.0203 93.4135Z" fill="white"/>
<path d="M47.4199 75.4498C47.3352 75.4498 47.2521 75.427 47.1788 75.3835C44.6152 73.8682 42.6442 73.5728 40.5575 73.2598C38.4171 72.9389 36.2042 72.6071 33.3317 70.9113C31.749 69.977 31.0163 68.9905 31.1541 67.9795C31.4388 65.8911 35.4622 64.805 35.9199 64.6882C35.9819 64.6715 36.0464 64.6676 36.1099 64.6766C36.1733 64.6857 36.2344 64.7077 36.2895 64.7411C36.3446 64.7746 36.3927 64.819 36.4309 64.8718C36.4692 64.9245 36.4969 64.9845 36.5124 65.0483C36.5279 65.112 36.5308 65.1784 36.5212 65.2433C36.5115 65.3083 36.4893 65.3707 36.4559 65.4268C36.4226 65.4829 36.3787 65.5317 36.3268 65.5702C36.275 65.6088 36.2161 65.6364 36.1538 65.6515C34.6691 66.032 32.2589 67.0378 32.1123 68.1175C32.0369 68.6717 32.6411 69.3585 33.8139 70.051C36.526 71.6519 38.5522 71.9558 40.6974 72.2774C42.7822 72.5902 44.938 72.9132 47.6617 74.5237C47.7541 74.5782 47.8263 74.6626 47.8672 74.7636C47.9081 74.8646 47.9153 74.9767 47.8877 75.0824C47.8601 75.188 47.7993 75.2814 47.7147 75.3479C47.6301 75.4145 47.5264 75.4505 47.4199 75.4503V75.4498Z" fill="white"/>
<path d="M23.2129 132.931C23.1307 132.931 23.05 132.907 22.9793 132.863C22.9086 132.819 22.8505 132.755 22.811 132.679C22.7716 132.603 22.7523 132.517 22.7552 132.43C22.758 132.343 22.7829 132.258 22.8273 132.185L37.4794 108.004C37.545 107.896 37.6486 107.82 37.7673 107.792C37.8861 107.765 38.0103 107.788 38.1126 107.858C38.215 107.927 38.2871 108.037 38.3131 108.162C38.3391 108.288 38.3169 108.419 38.2513 108.527L23.5992 132.708C23.5577 132.776 23.5005 132.833 23.433 132.872C23.3655 132.911 23.2898 132.931 23.2129 132.931Z" fill="white"/>
<path d="M47.4356 161.674C47.3661 161.675 47.2974 161.659 47.2346 161.628C47.1717 161.598 47.1163 161.554 47.0724 161.498L25.625 134.635C21.4227 131.47 15.0298 133.151 14.9655 133.168C14.9057 133.185 14.8432 133.19 14.7816 133.182C14.72 133.174 14.6605 133.154 14.6067 133.122C14.5528 133.091 14.5057 133.048 14.4679 132.998C14.4301 132.947 14.4025 132.89 14.3866 132.828C14.3708 132.767 14.367 132.703 14.3755 132.64C14.3841 132.577 14.4047 132.516 14.4363 132.461C14.4679 132.407 14.5098 132.359 14.5595 132.321C14.6093 132.283 14.6659 132.255 14.7261 132.24C15.0073 132.164 21.6705 130.415 26.2315 133.9C26.262 133.923 26.2895 133.95 26.3135 133.98L47.7981 160.89C47.8543 160.961 47.8898 161.046 47.9006 161.136C47.9113 161.226 47.8969 161.318 47.8589 161.4C47.821 161.482 47.761 161.551 47.6861 161.6C47.6112 161.649 47.5243 161.674 47.4356 161.674Z" fill="white"/>
<path d="M22.3504 164.075C22.2569 164.075 22.1663 164.038 22.0942 163.971L20.507 162.492C20.466 162.454 20.432 162.407 20.407 162.354C20.382 162.301 20.3665 162.243 20.3613 162.183C20.3561 162.123 20.3614 162.062 20.3768 162.005C20.3922 161.947 20.4175 161.894 20.4511 161.847C20.4848 161.801 20.5262 161.762 20.573 161.734C20.6198 161.705 20.6711 161.688 20.7239 161.682C20.7767 161.676 20.83 161.682 20.8807 161.699C20.9315 161.717 20.9787 161.746 21.0197 161.784L22.6069 163.263C22.6713 163.322 22.7178 163.404 22.74 163.495C22.7622 163.586 22.759 163.682 22.7309 163.771C22.7028 163.86 22.6512 163.937 22.583 163.991C22.5149 164.046 22.4336 164.075 22.3504 164.075Z" fill="white"/>
<path d="M36.3862 179.639C36.285 179.639 36.1867 179.606 36.1065 179.545C36.0263 179.483 35.9688 179.398 35.943 179.3C35.9171 179.203 35.9243 179.1 35.9635 179.008C36.0027 178.915 36.0717 178.838 36.1597 178.789C43.2043 174.822 50.5906 164.367 50.6648 164.262C50.7348 164.164 50.8408 164.098 50.9598 164.077C51.0789 164.056 51.2012 164.083 51.3003 164.152C51.3995 164.221 51.4673 164.325 51.4891 164.443C51.5109 164.561 51.4849 164.683 51.4167 164.782C51.1108 165.218 43.8389 175.511 36.612 179.58C36.5432 179.619 36.4654 179.639 36.3862 179.639Z" fill="white"/>
<path d="M41.1355 179.644C41.0372 179.644 40.9421 179.606 40.8669 179.536C40.7917 179.467 40.7413 179.37 40.7247 179.263C40.7081 179.156 40.7263 179.046 40.7761 178.953C40.826 178.86 40.9041 178.789 40.9969 178.753C45.7407 176.908 47.0995 173.946 47.1127 173.916C47.1606 173.806 47.2461 173.722 47.3503 173.682C47.4545 173.642 47.569 173.649 47.6685 173.702C47.768 173.754 47.8445 173.849 47.881 173.963C47.9175 174.078 47.9111 174.204 47.8632 174.314C47.8046 174.449 46.3712 177.636 41.2742 179.618C41.2297 179.635 41.1828 179.644 41.1355 179.644Z" fill="white"/>
<path d="M79.6397 200C79.5143 200 79.3933 199.958 79.2994 199.88C79.2055 199.803 79.1452 199.697 79.1298 199.581L76.6502 180.946C76.638 180.852 76.6559 180.757 76.7017 180.673L81.6603 171.521C81.6907 171.465 81.7326 171.415 81.7838 171.374C81.8349 171.333 81.8942 171.302 81.9584 171.282C82.0225 171.262 82.0902 171.255 82.1576 171.259C82.225 171.264 82.2907 171.281 82.3511 171.309C82.4115 171.337 82.4653 171.376 82.5094 171.423C82.5536 171.471 82.5872 171.526 82.6085 171.585C82.6297 171.645 82.6381 171.708 82.6331 171.77C82.6282 171.833 82.61 171.894 82.5797 171.95L77.691 180.973L80.1514 199.464C80.1597 199.527 80.1547 199.59 80.1367 199.65C80.1187 199.711 80.088 199.767 80.0465 199.817C80.0049 199.866 79.9533 199.907 79.8945 199.938C79.8357 199.969 79.7709 199.989 79.7039 199.997C79.6826 199.999 79.6612 200 79.6397 200Z" fill="white"/>
<path d="M137.585 93.4153C137.585 93.4153 141.967 85.7355 146.797 84.1332C151.628 82.5309 155.335 70.0257 154.324 69.4364C153.313 68.847 150.916 73.3408 150.916 73.3408C150.916 73.3408 152.676 68.7365 151.59 68.2944C150.505 67.8524 148.183 72.641 148.183 72.641C148.183 72.641 149.718 68.9207 148.482 68.626C147.247 68.3313 145.075 73.1197 145.075 73.1197C145.075 73.1197 146.197 69.8784 144.401 69.9521C142.604 70.0257 139.083 78.7185 137.286 79.5289C135.488 80.3393 129.871 80.1476 127.999 80.1476C126.127 80.1476 123.355 86.0485 123.355 86.0485C123.355 86.0485 122.869 92.4208 137.585 93.4153Z" fill="white"/>
<path d="M136.976 94.6129C136.965 94.6129 136.954 94.6129 136.943 94.6117C128.736 94.0558 125.144 91.8101 123.575 90.0242C122.053 88.2905 122.153 86.7279 122.158 86.662C122.163 86.6054 122.177 86.5501 122.201 86.4986C122.689 85.4575 125.228 80.2631 127.316 80.2631C127.574 80.2631 127.901 80.2666 128.279 80.2708C130.463 80.2958 135.006 80.3445 136.473 79.6814C137.175 79.3643 138.497 77.0803 139.56 75.2451C141.438 72.0035 142.647 70.0141 143.822 69.9659C144.461 69.9411 144.819 70.2288 145.006 70.4762C145.142 70.6627 145.237 70.875 145.285 71.0997C146.728 68.6743 147.68 68.5457 148.068 68.6398C148.214 68.6741 148.351 68.74 148.468 68.8327C148.585 68.9254 148.68 69.0425 148.745 69.1757C148.858 69.4192 148.916 69.6841 148.915 69.9519C149.719 68.7993 150.559 68.0372 151.27 68.3276C151.658 68.4859 152.108 69.0236 151.823 70.7471C152.337 70.0977 152.882 69.5639 153.357 69.4309C153.477 69.3934 153.605 69.3811 153.73 69.3949C153.856 69.4088 153.977 69.4483 154.086 69.5111C154.442 69.7192 154.554 70.1908 154.458 71.0876C154.132 74.1385 150.859 83.7336 146.411 85.2131C141.773 86.7551 137.438 94.2947 137.395 94.3706C137.353 94.444 137.292 94.5052 137.219 94.5478C137.145 94.5904 137.061 94.6128 136.976 94.6129ZM123.119 86.8044C123.144 87.4768 123.764 92.6881 136.709 93.6435C137.547 92.2374 141.575 85.819 146.103 84.3133C147.846 83.7341 149.707 81.4392 151.345 77.8521C152.952 74.3302 153.637 71.1353 153.526 70.3473C153.057 70.5478 151.827 72.2171 150.834 74.0836C150.777 74.1909 150.681 74.2729 150.565 74.3126C150.449 74.3524 150.322 74.3469 150.21 74.2974C150.098 74.2478 150.009 74.158 149.962 74.0461C149.915 73.9343 149.913 73.8089 149.957 73.6957C150.713 71.7116 151.151 69.6188 150.901 69.2178C150.404 69.3462 149.112 71.2433 148.087 73.3604C148.033 73.4716 147.938 73.5577 147.82 73.6005C147.703 73.6433 147.573 73.6394 147.459 73.5896C147.344 73.5399 147.254 73.4481 147.207 73.3339C147.16 73.2196 147.16 73.0918 147.207 72.9774C147.64 71.9235 148.157 70.124 147.888 69.6085C147.868 69.5684 147.857 69.5659 147.842 69.5621C147.442 69.5168 146.076 71.3712 144.961 73.8332C144.911 73.9448 144.819 74.0329 144.704 74.0792C144.589 74.1255 144.461 74.1265 144.346 74.0819C144.23 74.0373 144.137 73.9505 144.085 73.8397C144.033 73.7289 144.026 73.6025 144.066 73.4869C144.328 72.7253 144.554 71.4639 144.235 71.0444C144.203 71.0024 144.128 70.9074 143.862 70.9139C143.16 70.9428 141.497 73.8148 140.396 75.7154C138.816 78.4432 137.791 80.1293 136.874 80.544C135.34 81.2377 131.628 81.256 128.269 81.2197C127.896 81.2155 127.572 81.212 127.317 81.212C126.243 81.2124 124.235 84.4507 123.119 86.8044Z" fill="#090817"/>
<path d="M67.4451 76.6433C67.3713 76.6433 67.299 76.616 67.2372 76.5647C67.1754 76.5134 67.1268 76.4403 67.0972 76.3544C67.0676 76.2686 67.0584 76.1736 67.0707 76.0812C67.083 75.9888 67.1163 75.903 67.1665 75.8342C69.6781 72.3921 68.3233 67.7636 68.3093 67.7177C68.2913 67.6587 68.2827 67.5957 68.284 67.5324C68.2852 67.4692 68.2963 67.4068 68.3165 67.349C68.3367 67.2911 68.3658 67.2389 68.4019 67.1953C68.438 67.1516 68.4806 67.1175 68.5271 67.0947C68.5737 67.072 68.6233 67.0611 68.6732 67.0626C68.723 67.0642 68.7722 67.0783 68.8178 67.1039C68.8634 67.1296 68.9045 67.1664 68.9389 67.2123C68.9733 67.2581 69.0002 67.3121 69.0182 67.3712C69.0824 67.5829 70.5623 72.599 67.7239 76.4888C67.6883 76.5376 67.6452 76.5765 67.5972 76.6031C67.5493 76.6297 67.4975 76.6434 67.4451 76.6433Z" fill="white"/>
<path d="M65.8384 89.823C65.3923 89.823 65.1335 89.8031 65.1173 89.8016C64.9887 89.7904 64.8695 89.726 64.7861 89.6227C64.7027 89.5193 64.6619 89.3855 64.6726 89.2506C64.6833 89.1157 64.7446 88.9907 64.8432 88.9033C64.9417 88.8158 65.0693 88.773 65.198 88.7842C65.3011 88.7937 75.4878 89.5576 80.5302 80.4954C80.5952 80.3785 80.7019 80.2934 80.8268 80.259C80.9516 80.2245 81.0844 80.2435 81.1959 80.3118C81.3074 80.38 81.3885 80.4919 81.4214 80.6228C81.4542 80.7537 81.4361 80.893 81.371 81.0099C76.8207 89.1875 68.3534 89.823 65.8384 89.823Z" fill="white"/>
<path d="M42.3744 21.5542C42.2568 21.5543 42.1437 21.5104 42.0586 21.4317C41.9735 21.353 41.9229 21.2456 41.9175 21.1317C41.9133 21.0398 41.8326 18.856 43.7726 16.9947C45.7458 15.1015 49.0133 14.2653 53.4876 14.5113C58.0735 14.763 63.8743 14.9596 68.0612 14.2395C72.0088 13.5605 74.1278 12.158 74.5391 9.95173C74.5487 9.89345 74.5703 9.83762 74.6024 9.7875C74.6346 9.73738 74.6767 9.69399 74.7264 9.65985C74.7761 9.62572 74.8323 9.60154 74.8917 9.58872C74.9511 9.5759 75.0126 9.5747 75.0725 9.58519C75.1324 9.59569 75.1896 9.61766 75.2407 9.64983C75.2917 9.682 75.3356 9.72372 75.3698 9.77254C75.404 9.82137 75.4279 9.87632 75.4399 9.93418C75.4519 9.99204 75.452 10.0516 75.44 10.1095C74.4455 15.4464 65.9254 16.0819 53.4359 15.3976C49.2439 15.1672 46.2158 15.9125 44.4322 17.6108C43.4511 18.5247 42.877 19.774 42.8323 21.0924C42.8372 21.2098 42.7939 21.3243 42.7118 21.4108C42.6297 21.4973 42.5155 21.5487 42.3944 21.5537C42.3875 21.5542 42.3809 21.5542 42.3744 21.5542Z" fill="white"/>
<path d="M37.5992 21.5574C37.5963 21.5574 37.5932 21.5574 37.5905 21.5574C37.4652 21.5551 37.3459 21.5029 37.2589 21.4122C37.1718 21.3214 37.124 21.1996 37.126 21.0734C37.1272 21.0041 37.3168 14.1017 43.679 12.0045C43.7385 11.983 43.8017 11.9738 43.8648 11.9773C43.928 11.9808 43.9898 11.9971 44.0465 12.025C44.1033 12.053 44.154 12.0922 44.1955 12.1402C44.237 12.1883 44.2685 12.2442 44.2881 12.3047C44.3078 12.3652 44.3152 12.4291 44.31 12.4926C44.3047 12.556 44.2869 12.6178 44.2575 12.6742C44.2281 12.7306 44.1879 12.7804 44.139 12.8209C44.0902 12.8613 44.0338 12.8915 43.9732 12.9096C38.2597 14.7929 38.0768 20.8338 38.0719 21.0899C38.0696 21.2146 38.0188 21.3335 37.9304 21.4209C37.842 21.5084 37.7231 21.5574 37.5992 21.5574Z" fill="white"/>
<path d="M33.0794 58.6827C33.0225 58.6827 32.9661 58.6714 32.9132 58.6496C29.4574 57.2395 26.3977 53.7807 24.0656 48.6477C22.993 46.2878 22.1561 43.8216 21.5678 41.2873C21.5546 41.2273 21.5531 41.1652 21.5633 41.1047C21.5736 41.0441 21.5953 40.9862 21.6274 40.9343C21.6595 40.8825 21.7012 40.8376 21.7501 40.8025C21.7991 40.7673 21.8543 40.7425 21.9127 40.7294C21.971 40.7163 22.0312 40.7153 22.09 40.7263C22.1487 40.7374 22.2047 40.7603 22.2548 40.7938C22.3048 40.8272 22.348 40.8706 22.3817 40.9213C22.4155 40.972 22.4391 41.0292 22.4513 41.0894C22.4798 41.2237 25.3828 54.5747 33.2465 57.7838C33.3445 57.8236 33.4259 57.8974 33.4766 57.9925C33.5274 58.0875 33.5444 58.1978 33.5247 58.3044C33.5049 58.411 33.4497 58.5071 33.3685 58.5762C33.2873 58.6453 33.1852 58.683 33.0799 58.6828L33.0794 58.6827Z" fill="white"/>
<path d="M83.3458 159.28C83.2209 159.28 83.1008 159.234 83.0105 159.151C82.9202 159.068 82.8667 158.955 82.8609 158.835L82.11 143.187C78.5163 141.841 77.57 137.695 77.3499 136.294L51.5063 138.207C48.3499 146.395 42.911 150.138 42.6785 150.295C42.5731 150.365 42.443 150.392 42.3167 150.37C42.1904 150.349 42.0781 150.28 42.0044 150.179C41.9306 150.078 41.9013 149.954 41.923 149.832C41.9446 149.711 42.0153 149.602 42.1198 149.531C42.1751 149.493 47.6719 145.698 50.7005 137.606C50.7322 137.521 50.7887 137.447 50.8632 137.393C50.9377 137.338 51.027 137.305 51.1204 137.299L77.7372 135.329C77.8647 135.321 77.9907 135.36 78.0882 135.44C78.1857 135.519 78.2468 135.632 78.2586 135.754C78.2636 135.808 78.7982 141.173 82.7322 142.41C82.8259 142.439 82.9081 142.496 82.9678 142.571C83.0275 142.646 83.0619 142.737 83.0664 142.832L83.8317 158.792C83.8376 158.916 83.7921 159.037 83.7053 159.128C83.6184 159.22 83.4974 159.274 83.3686 159.28C83.361 159.28 83.3535 159.28 83.3458 159.28Z" fill="white"/>
<path d="M141.722 80.2426C141.639 80.2426 141.558 80.2117 141.49 80.1539C141.422 80.0961 141.371 80.0142 141.342 79.9194C141.314 79.8246 141.31 79.7214 141.331 79.6238C141.352 79.5261 141.397 79.4388 141.461 79.3736C142.002 78.816 143.383 74.6643 144.127 72.1784C144.164 72.057 144.24 71.9585 144.336 71.9043C144.433 71.8502 144.544 71.8447 144.644 71.8892C144.744 71.9336 144.826 72.0243 144.871 72.1417C144.917 72.259 144.923 72.3935 144.887 72.5159C144.554 73.6307 142.847 79.2364 141.984 80.1258C141.911 80.2013 141.818 80.2427 141.722 80.2426Z" fill="#080717"/>
<path d="M144.23 80.2426C144.129 80.2426 144.03 80.2169 143.946 80.1688C143.861 80.1207 143.795 80.0522 143.755 79.9718C143.715 79.8914 143.703 79.8026 143.721 79.7163C143.738 79.6301 143.785 79.5502 143.854 79.4865C145.043 78.395 146.882 73.8409 147.491 72.1782C147.51 72.1213 147.543 72.0684 147.587 72.0226C147.63 71.9767 147.684 71.9389 147.745 71.9112C147.805 71.8834 147.872 71.8664 147.94 71.8612C148.008 71.8559 148.077 71.8624 148.142 71.8803C148.208 71.8983 148.268 71.9273 148.321 71.9658C148.373 72.0042 148.416 72.0512 148.447 72.1041C148.478 72.1571 148.497 72.2148 148.502 72.2741C148.507 72.3333 148.498 72.3928 148.477 72.4492C148.385 72.7011 146.2 78.6387 144.606 80.1021C144.558 80.1465 144.5 80.1819 144.435 80.2061C144.37 80.2303 144.301 80.2427 144.23 80.2426Z" fill="#080717"/>
<path d="M147.684 80.2426C147.61 80.2426 147.538 80.216 147.476 80.166C147.414 80.1161 147.365 80.045 147.336 79.9617C147.307 79.8783 147.299 79.7863 147.312 79.6971C147.325 79.608 147.359 79.5255 147.411 79.46C148.641 77.8874 150.145 72.2368 150.16 72.1799C150.19 72.0631 150.258 71.9661 150.347 71.9102C150.437 71.8543 150.541 71.8441 150.636 71.8818C150.732 71.9195 150.811 72.0021 150.857 72.1113C150.903 72.2206 150.911 72.3476 150.88 72.4644C150.817 72.705 149.308 78.3745 147.958 80.0996C147.923 80.1448 147.88 80.1808 147.833 80.2054C147.786 80.23 147.735 80.2427 147.684 80.2426Z" fill="#080717"/>
<path d="M174.85 43.1129C182.126 43.1129 188.024 37.2149 188.024 29.9393C188.024 22.6637 182.126 16.7656 174.85 16.7656C167.575 16.7656 161.677 22.6637 161.677 29.9393C161.677 37.2149 167.575 43.1129 174.85 43.1129Z" fill="#080717"/>
<path d="M174.324 38.3212H174.179C172.769 38.3196 171.418 37.7671 170.421 36.7848C169.424 35.8025 168.864 34.4707 168.862 33.0816V26.7944C168.864 25.4052 169.424 24.0734 170.421 23.0911C171.418 22.1088 172.769 21.5562 174.179 21.5547H174.324C175.734 21.5562 177.085 22.1088 178.082 23.0911C179.079 24.0734 179.639 25.4052 179.641 26.7944V33.0814C179.639 34.4705 179.079 35.8024 178.082 36.7847C177.085 37.7671 175.734 38.3196 174.324 38.3212ZM174.179 23.9832C173.422 23.9841 172.697 24.2806 172.163 24.8077C171.628 25.3347 171.327 26.0493 171.326 26.7946V33.0816C171.327 33.8269 171.628 34.5415 172.163 35.0685C172.697 35.5955 173.422 35.892 174.179 35.8929H174.324C175.081 35.892 175.806 35.5955 176.34 35.0685C176.875 34.5415 177.176 33.8269 177.177 33.0816V26.7944C177.176 26.049 176.875 25.3345 176.34 24.8074C175.806 24.2804 175.081 23.9839 174.324 23.983L174.179 23.9832Z" fill="white"/>
</g>
<defs>
<clipPath id="clip0_1150_3241">
<rect width="189.222" height="200" fill="white"/>
</clipPath>
</defs>
</svg>
