<svg width="214" height="200" viewBox="0 0 214 200" fill="none" xmlns="http://www.w3.org/2000/svg">
<g clip-path="url(#clip0_1150_3144)">
<path d="M86.8983 91.6668C86.6947 91.6665 86.4971 91.5975 86.3375 91.4708C82.4399 88.3799 80.81 82.7814 82.5439 78.4496C84.7045 73.0563 90.8563 69.3155 95.4685 67.7444C95.5821 67.7021 95.7029 67.6831 95.8238 67.6884C95.9448 67.6937 96.0634 67.7231 96.1727 67.7751C96.282 67.8271 96.3799 67.9005 96.4603 67.9909C96.5409 68.0814 96.6023 68.1871 96.6411 68.3017C96.68 68.4164 96.6954 68.5377 96.6866 68.6584C96.6778 68.7793 96.6447 68.8969 96.5895 69.0048C96.5343 69.1125 96.4581 69.2081 96.3651 69.2857C96.2723 69.3635 96.1649 69.4218 96.0491 69.4572C91.8016 70.8987 86.155 74.2942 84.2236 79.116C82.7987 82.6759 84.2236 87.4766 87.4608 90.0475C87.6079 90.1641 87.715 90.3237 87.7673 90.5041C87.8195 90.6845 87.8145 90.8766 87.7526 91.0539C87.6909 91.2312 87.5755 91.3848 87.4223 91.4937C87.2693 91.6024 87.0862 91.6607 86.8983 91.6607V91.6668Z" fill="#CEB7A1"/>
<path d="M68.5257 157.98C68.2858 157.98 68.0557 157.884 67.886 157.714C67.7164 157.545 67.6211 157.314 67.6211 157.074L67.63 148.283C67.63 147.875 67.63 147.411 67.511 147.098C67.3767 146.746 67.0783 146.416 65.8208 146.38C65.702 146.376 65.585 146.35 65.4765 146.302C65.368 146.252 65.2702 146.183 65.1886 146.097C65.1069 146.011 65.0432 145.909 65.0007 145.798C64.9584 145.687 64.9384 145.568 64.9418 145.449C64.9451 145.331 64.9718 145.214 65.0204 145.106C65.0689 144.997 65.1385 144.899 65.2249 144.818C65.3112 144.736 65.4129 144.672 65.5238 144.63C65.635 144.587 65.7533 144.568 65.8721 144.571C66.5249 144.589 68.5106 144.646 69.2012 146.449C69.4409 147.077 69.4394 147.746 69.4394 148.284L69.4304 157.074C69.4304 157.314 69.3351 157.545 69.1654 157.714C68.9957 157.884 68.7656 157.98 68.5257 157.98Z" fill="#3A3A3A"/>
<path d="M84.8578 157.615L67.0073 157.093C66.2246 157.046 65.4394 157.072 64.6612 157.166C63.7655 157.304 62.9091 157.618 62.0587 157.94C61.5627 158.122 61.0636 158.304 60.566 158.481C56.6096 159.895 52.603 161.154 48.546 162.26C45.5561 163.075 34.5795 165.164 26.0967 166.621C27.7553 174.009 34.1799 185.317 41.3389 193.055C54.2053 187.949 67.1626 183.074 80.2108 178.429C82.0534 171.563 83.6024 164.625 84.8578 157.615ZM74.0365 163.796C74.0365 162.06 75.6498 160.654 77.6386 160.654C79.6274 160.654 81.2391 162.06 81.2391 163.796C81.2391 165.531 79.6274 166.94 77.6386 166.94C75.6498 166.94 74.0365 165.536 74.0365 163.8V163.796Z" fill="#CEB7A1"/>
<path d="M41.3392 193.961C41.2146 193.961 41.0912 193.935 40.9771 193.884C40.8629 193.835 40.7603 193.762 40.6758 193.67C33.5757 185.999 26.9278 174.456 25.2134 166.821C25.1865 166.701 25.1843 166.577 25.2067 166.456C25.2293 166.336 25.276 166.221 25.3444 166.119C25.4127 166.017 25.5009 165.93 25.6038 165.863C25.7069 165.797 25.8223 165.752 25.9432 165.73C34.3596 164.285 45.3543 162.195 48.3081 161.389C52.3248 160.293 56.3476 159.028 60.2618 157.629C60.7584 157.451 61.2534 157.272 61.7469 157.09L61.8359 157.056C62.6878 156.742 63.5699 156.417 64.5258 156.271C65.3572 156.166 66.1966 156.138 67.0332 156.189L84.8837 156.709C85.0139 156.713 85.1416 156.744 85.2582 156.801C85.3749 156.859 85.4778 156.941 85.5598 157.042C85.6418 157.143 85.701 157.261 85.7335 157.387C85.7659 157.513 85.7707 157.644 85.7478 157.773C84.4962 164.771 82.9267 171.795 81.0856 178.671C81.0476 178.812 80.9758 178.942 80.8763 179.05C80.7767 179.158 80.6524 179.239 80.5142 179.288C67.5548 183.899 54.487 188.815 41.6739 193.896C41.5675 193.939 41.4538 193.961 41.3392 193.961ZM27.2067 167.349C29.1231 174.545 35.1166 184.839 41.5864 191.984C54.0859 187.035 66.8221 182.245 79.4603 177.743C81.146 171.411 82.598 164.937 83.7801 158.485L66.9805 157.995C66.2527 157.952 65.5226 157.974 64.7986 158.06C64.0252 158.178 63.2653 158.457 62.4632 158.754L62.3726 158.787C61.8701 158.971 61.3675 159.153 60.8649 159.331C56.907 160.748 52.8404 162.028 48.7786 163.134C45.8926 163.917 35.5221 165.906 27.2067 167.349ZM77.6389 167.848C75.1541 167.848 73.1321 166.038 73.1321 163.8C73.1321 161.56 75.1541 159.753 77.6389 159.753C80.1238 159.753 82.1441 161.562 82.1441 163.8C82.1441 166.037 80.1238 167.848 77.6389 167.848ZM77.6389 161.562C76.1522 161.562 74.9414 162.566 74.9414 163.8C74.9414 165.033 76.1478 166.038 77.6389 166.038C79.1301 166.038 80.3348 165.035 80.3348 163.8C80.3348 162.565 79.1255 161.562 77.6389 161.562Z" fill="#CEB7A1"/>
<path d="M34.1639 196.835C33.9272 196.835 33.6999 196.742 33.5306 196.576C29.2787 192.413 20.3134 179.328 17.5829 168.067C17.5532 167.945 17.5497 167.817 17.5723 167.694C17.5949 167.569 17.6432 167.451 17.7143 167.346C17.7853 167.242 17.8773 167.153 17.9845 167.088C18.0918 167.021 18.2118 166.977 18.3368 166.959C20.1461 166.7 22.7833 166.274 25.9465 165.732C26.1708 165.694 26.4012 165.74 26.5921 165.864C26.7829 165.988 26.9201 166.18 26.9763 166.399C28.8204 173.637 33.891 182.42 42.0541 192.484C42.1434 192.595 42.2054 192.724 42.2352 192.863C42.2651 193.002 42.2619 193.146 42.2259 193.283C42.19 193.42 42.1223 193.547 42.0282 193.653C41.9343 193.759 41.8166 193.841 41.6848 193.894C39.1999 194.881 36.7874 195.845 34.5137 196.759C34.4035 196.807 34.2844 196.834 34.1639 196.835ZM19.5897 168.603C22.3732 178.812 30.3417 190.642 34.384 194.865C36.1436 194.156 37.9816 193.418 39.8679 192.668C32.2853 183.156 27.4362 174.752 25.4369 167.655C23.1406 168.045 21.1518 168.368 19.5897 168.603Z" fill="#CEB7A1"/>
<path d="M52.1362 65.697C54.7702 67.7295 46.5107 61.0108 47.462 53.2292C49.0346 40.413 41.0027 22.2021 22.6907 32.4219C1.83363 44.0709 12.7575 71.8186 25.6836 67.5153C38.6099 63.2122 39.5687 56.0035 52.1362 65.697Z" fill="#CEB7A1"/>
<path d="M22.9966 68.8672C18.5758 68.8672 14.366 65.6586 11.9446 60.1658C9.92084 55.4908 9.56049 50.2634 10.9239 45.3549C12.5462 39.6133 16.4634 34.8698 22.2518 31.6341C30.8943 26.8092 36.7264 28.498 40.0994 30.7641C46.7909 35.2634 49.321 45.5252 48.3635 53.3385C47.9263 56.8939 49.4943 60.8352 53.021 65.054C53.1402 65.1942 53.2321 65.3058 53.2924 65.3827C53.8352 66.0763 53.401 66.5889 53.3075 66.6899C53.1778 66.8241 52.7044 67.2237 51.9942 66.7231C51.9067 66.6612 51.7876 66.5723 51.5826 66.4125C43.1014 59.8808 40.5275 61.277 34.8764 64.3423C32.6027 65.5771 29.7726 67.1121 25.97 68.3787C25.0115 68.7003 24.0076 68.8651 22.9966 68.8672ZM32.6585 30.354C29.759 30.354 26.5519 31.3115 23.1338 33.2188C11.5043 39.7112 10.0388 51.3604 13.6001 59.436C15.7337 64.276 20.2102 68.3891 25.3985 66.6612C29.0489 65.446 31.6875 64.0152 34.0139 62.7532C38.9338 60.0828 42.1922 58.3158 48.8625 62.3309C46.9808 59.1269 46.2104 56.036 46.5692 53.123C47.4604 45.8569 45.1775 36.3625 39.0907 32.2703C37.1899 30.9953 34.9471 30.3271 32.6585 30.354Z" fill="#CEB7A1"/>
<path d="M163.99 31.1978C163.261 31.4993 171.939 26.9097 170.733 19.5441C169.226 10.3829 177.836 -3.51432 193.314 3.86334C207.603 10.6679 200.62 35.1074 185.745 31.7406C176.071 29.5453 174.538 26.9097 163.99 31.1978Z" fill="#CEB7A1"/>
<path d="M188.494 32.9512C187.502 32.9486 186.512 32.8354 185.545 32.6134C183.307 32.1067 181.513 31.5806 179.93 31.1162C174.768 29.6083 172.177 28.8424 164.331 32.0328C164.12 32.127 163.882 32.1383 163.662 32.0643C163.444 31.9902 163.261 31.8364 163.15 31.6333C162.762 30.9066 163.432 30.4557 163.652 30.3065C166.319 28.5092 170.668 24.7398 169.834 19.6873C168.9 13.9758 171.643 7.26163 176.352 3.72135C181.061 0.18107 187.208 -0.0480963 193.691 3.03675C197.431 4.81743 200.054 7.85266 201.278 11.8136C202.363 15.3192 202.256 19.2785 200.977 22.9621C199.833 26.2626 197.811 29.0475 195.296 30.8025C193.305 32.2044 190.929 32.9551 188.494 32.9512ZM173.264 27.9905C175.699 27.9905 177.772 28.5937 180.44 29.3807C181.997 29.8331 183.757 30.3547 185.945 30.8493C193.062 32.4596 197.579 27.2879 199.282 22.3696C201.384 16.3038 200.291 8.17829 192.925 4.67122C185.43 1.10077 180.372 2.97046 177.446 5.16731C172.682 8.74673 170.913 15.0342 171.627 19.3947C172.161 22.6485 171.002 25.863 168.33 28.7278C170.237 28.2062 171.815 27.9905 173.264 27.9905Z" fill="#CEB7A1"/>
<path d="M100.583 118.353C100.343 118.353 100.113 118.257 99.9433 118.087C99.7737 117.917 99.6784 117.687 99.6784 117.447C99.6784 107.228 99.6784 88.2071 94.9665 67.522C93.5205 61.1712 94.6318 55.9241 98.0152 53.1241C100.126 51.3706 102.891 50.8384 105.349 51.6707L107.158 49.9126C107.33 49.7452 107.561 49.6531 107.801 49.6563C108.041 49.6596 108.271 49.758 108.437 49.9299C108.605 50.1019 108.698 50.3334 108.694 50.5732C108.691 50.8131 108.593 51.0419 108.421 51.2094L106.198 53.3715C106.069 53.497 105.906 53.5812 105.729 53.6135C105.552 53.6457 105.369 53.6244 105.204 53.5524C103.244 52.6945 100.928 53.0639 99.1732 54.5173C96.3266 56.862 95.4415 61.4591 96.7306 67.1148C101.488 87.999 101.488 107.152 101.488 117.443C101.488 117.562 101.465 117.681 101.42 117.791C101.375 117.901 101.308 118.002 101.224 118.086C101.14 118.169 101.04 118.238 100.93 118.283C100.82 118.329 100.702 118.353 100.583 118.353Z" fill="#3A3A3A"/>
<path d="M110.146 79.612C109.976 79.6119 109.811 79.5646 109.667 79.4752C109.524 79.3859 109.408 79.2583 109.334 79.1066C109.259 78.9551 109.229 78.7857 109.245 78.6176C109.263 78.4494 109.326 78.2894 109.428 78.1556L110.952 76.1849C110.984 76.1442 111.051 76.0537 111.095 75.9844C111.012 75.9051 110.922 75.8325 110.826 75.7672L108.541 74.1088C108.439 74.0421 108.35 73.9552 108.282 73.8535C108.214 73.7518 108.167 73.6373 108.144 73.517C108.122 73.3966 108.124 73.2729 108.151 73.1535C108.177 73.0339 108.228 72.921 108.3 72.8216C108.37 72.7223 108.461 72.6384 108.566 72.5753C108.671 72.512 108.788 72.4708 108.91 72.454C109.031 72.437 109.154 72.445 109.272 72.4773C109.391 72.5096 109.5 72.5654 109.596 72.6416L111.882 74.2926C112.184 74.5113 112.894 75.0224 112.937 75.8773C112.968 76.5257 112.589 77.0172 112.387 77.2811L110.87 79.2502C110.786 79.3628 110.676 79.4541 110.551 79.517C110.425 79.5797 110.286 79.6123 110.146 79.612Z" fill="#3A3A3A"/>
<path d="M115.505 49.1535C119.793 57.5035 128.787 66.4342 133.427 67.069C134.125 67.1654 134.918 67.2996 135.298 67.8937C135.511 68.2299 135.544 68.6476 135.552 69.0456C135.644 73.0729 133.92 76.9902 131.405 80.1384C128.891 83.2866 125.624 85.7443 122.26 87.9547C119.057 90.0566 113.186 93.2922 114.491 96.0364C116.135 99.4907 127.823 92.1705 133.482 88.012C130.034 92.2986 122.528 103.482 127.03 105.718C130.605 107.495 135.519 104.126 136.129 103.673C134.851 105.889 137.364 108.763 139.92 108.747C142.477 108.73 144.638 106.888 146.35 104.978C155.313 95.0051 158.545 80.3042 154.944 67.39C152.577 58.9164 147.307 51.1423 139.866 46.4576C132.426 41.773 122.764 40.4311 114.569 43.6275C110.713 45.1278 106.757 47.795 106.757 51.5735C106.749 51.5735 111.077 48.0815 115.505 49.1535Z" fill="#3A3A3A"/>
<path d="M139.9 109.653C138.169 109.653 136.393 108.597 135.471 107.011C135.193 106.544 135.008 106.028 134.926 105.49C132.895 106.592 129.471 107.942 126.633 106.529C126.173 106.303 125.773 105.975 125.462 105.568C125.152 105.163 124.94 104.691 124.841 104.188C124.124 100.909 127.131 95.528 129.65 91.7495C125.556 94.4168 119.648 97.8334 116.256 97.8334C115.942 97.8356 115.629 97.7991 115.325 97.7248C114.967 97.6483 114.631 97.4914 114.345 97.2659C114.057 97.0404 113.825 96.7524 113.666 96.4236C112.974 94.9702 113.581 93.3492 115.475 91.5987C116.898 90.2854 118.816 89.0671 120.509 87.9921C120.962 87.7087 121.378 87.4418 121.759 87.19C124.547 85.3626 128.081 82.843 130.701 79.5651C133.32 76.2872 134.727 72.5479 134.649 69.0589C134.649 68.8886 134.638 68.5328 134.534 68.3729C134.361 68.103 133.7 68.0126 133.304 67.9583C128.408 67.2888 119.394 58.4337 114.9 49.9434C111.1 49.2784 107.361 52.2397 107.316 52.2713C107.183 52.3782 107.023 52.4454 106.854 52.465C106.684 52.4847 106.512 52.4559 106.358 52.382C106.204 52.3083 106.075 52.1925 105.984 52.0481C105.893 51.9036 105.845 51.7363 105.845 51.5657C105.845 46.7574 111.102 43.9952 114.235 42.7753C122.411 39.6 132.417 40.7188 140.335 45.7065C147.643 50.3037 153.283 58.1231 155.808 67.1607C157.628 73.6712 157.777 80.705 156.24 87.5006C154.691 94.3534 151.503 100.619 147.022 105.593C145.464 107.328 143.03 109.635 139.927 109.655L139.9 109.653ZM136.131 102.77C136.291 102.77 136.446 102.812 136.583 102.891C136.721 102.97 136.836 103.085 136.916 103.222C136.995 103.36 137.037 103.515 137.037 103.674C137.037 103.833 136.995 103.99 136.916 104.126C136.464 104.901 136.798 105.698 137.034 106.102C137.638 107.13 138.809 107.845 139.899 107.845H139.916C141.734 107.833 143.565 106.732 145.677 104.377C154.323 94.7606 157.616 80.3401 154.066 67.6386C151.654 59.0293 146.304 51.5899 139.373 47.2279C131.928 42.5492 122.548 41.4847 114.892 44.4687C113.107 45.1622 109.384 46.8916 108.106 49.6252C109.916 48.6467 112.765 47.5565 115.724 48.2681C115.85 48.2988 115.967 48.3564 116.07 48.4368C116.172 48.5171 116.255 48.6185 116.315 48.7341C118.304 52.6257 121.464 56.8641 124.974 60.3621C128.347 63.726 131.554 65.8987 133.551 66.1715C134.255 66.268 135.438 66.4294 136.061 67.4049C136.39 67.9205 136.447 68.4875 136.458 69.0228C136.548 72.943 135.005 77.0833 132.115 80.7005C129.337 84.1775 125.654 86.807 122.754 88.7098C122.361 88.9676 121.933 89.2391 121.48 89.5255C118.87 91.1841 114.503 93.9569 115.298 95.6455C115.354 95.7662 115.45 95.899 115.751 95.9743C118.339 96.6241 126.534 91.9817 132.94 87.2804C133.116 87.1496 133.335 87.0878 133.554 87.1065C133.774 87.1253 133.979 87.2234 134.13 87.3825C134.283 87.5415 134.371 87.7506 134.381 87.9704C134.39 88.1904 134.318 88.406 134.181 88.5771C130.864 92.6995 125.871 100.476 126.601 103.806C126.639 104.043 126.735 104.269 126.88 104.461C127.024 104.654 127.212 104.809 127.429 104.914C130.696 106.539 135.539 102.989 135.587 102.953C135.744 102.835 135.935 102.77 136.131 102.77Z" fill="#3A3A3A"/>
<path d="M144.876 99.4199C144.712 99.4209 144.549 99.3768 144.408 99.2925C144.266 99.2081 144.15 99.0867 144.073 98.9412C143.995 98.7958 143.958 98.6319 143.967 98.4672C143.976 98.3026 144.03 98.1435 144.122 98.0071C147.891 92.4284 152.13 83.8974 150.865 74.9382C150.848 74.8204 150.855 74.7006 150.885 74.5855C150.914 74.4704 150.967 74.3622 151.038 74.2672C151.11 74.1723 151.199 74.0922 151.302 74.0319C151.404 73.9714 151.518 73.9318 151.635 73.9151C151.752 73.8986 151.872 73.9052 151.987 73.9349C152.102 73.9646 152.211 74.0166 152.306 74.0881C152.401 74.1595 152.481 74.2491 152.542 74.3515C152.602 74.4539 152.641 74.5671 152.658 74.6848C154.002 84.214 149.574 93.1792 145.621 99.0219C145.539 99.1438 145.428 99.2438 145.298 99.3132C145.168 99.3825 145.024 99.4191 144.876 99.4199Z" fill="white"/>
<path d="M146.272 86.802C146.122 86.8019 145.974 86.7645 145.841 86.6932C145.71 86.6219 145.598 86.5188 145.516 86.3933C145.433 86.268 145.383 86.1239 145.37 85.9745C145.358 85.825 145.383 85.6746 145.442 85.537C146.242 83.7 146.739 81.7459 146.913 79.7502C146.935 79.5103 147.051 79.2885 147.235 79.1339C147.42 78.9792 147.658 78.9042 147.898 78.9254C148.138 78.9466 148.36 79.0623 148.514 79.2469C148.67 79.4316 148.744 79.6701 148.723 79.91C148.531 82.0991 147.987 84.2427 147.11 86.2577C147.04 86.4209 146.922 86.5594 146.773 86.6562C146.624 86.7531 146.45 86.8037 146.272 86.802Z" fill="white"/>
<path d="M178.134 23.5654C177.079 23.5654 176.182 23.2563 175.571 22.6759C175.405 22.5087 175.31 22.2832 175.307 22.0473C175.305 21.8115 175.394 21.5841 175.557 21.4135C175.72 21.2428 175.944 21.1424 176.179 21.1338C176.415 21.1251 176.644 21.2088 176.819 21.3671C177.136 21.6687 177.738 21.8044 178.478 21.741C179.572 21.6445 180.711 21.1124 181.182 20.473C181.288 20.314 181.362 20.1353 181.398 19.9477C181.435 19.76 181.434 19.5669 181.393 19.3799C181.276 18.7237 180.91 18.1381 180.372 17.7439C179.478 17.1182 178.11 17.0141 176.816 17.4725C176.699 17.514 176.574 17.5307 176.449 17.5214C176.325 17.5123 176.204 17.4775 176.094 17.4194C175.983 17.3612 175.886 17.2808 175.809 17.1833C175.73 17.0858 175.673 16.9733 175.642 16.8528C175.324 15.6689 175.219 14.4382 175.33 13.2175C175.34 13.0987 175.374 12.9832 175.43 12.8775C175.485 12.7719 175.561 12.6781 175.652 12.6017C175.744 12.5252 175.849 12.4677 175.963 12.432C176.078 12.3964 176.196 12.3836 176.316 12.3943C176.435 12.405 176.55 12.439 176.656 12.4943C176.762 12.5497 176.855 12.6254 176.931 12.7169C177.008 12.8084 177.066 12.9141 177.102 13.028C177.137 13.1419 177.149 13.2616 177.139 13.3804C177.075 14.0842 177.099 14.7932 177.209 15.4913C178.754 15.1898 180.274 15.4567 181.416 16.2558C182.354 16.9308 182.985 17.9493 183.175 19.0889C183.254 19.5141 183.247 19.951 183.155 20.3736C183.061 20.7961 182.884 21.1956 182.633 21.5481C181.845 22.617 180.273 23.3996 178.631 23.5428C178.461 23.5579 178.295 23.5654 178.134 23.5654Z" fill="white"/>
<path d="M176.225 14.2058C175.996 14.2062 175.773 14.1188 175.607 13.9617C175.439 13.8046 175.336 13.5895 175.321 13.3601C175.306 13.1307 175.379 12.9041 175.526 12.7266C175.671 12.549 175.879 12.4337 176.108 12.404C178.123 12.1357 181.206 11.8809 181.336 11.8703C181.455 11.8605 181.575 11.874 181.689 11.9103C181.802 11.9466 181.907 12.0049 181.998 12.0819C182.089 12.1589 182.165 12.2531 182.219 12.3591C182.273 12.4651 182.306 12.5808 182.316 12.6996C182.326 12.8184 182.312 12.938 182.277 13.0515C182.24 13.165 182.182 13.2703 182.105 13.3613C182.028 13.4524 181.934 13.5273 181.828 13.5819C181.722 13.6365 181.607 13.6697 181.488 13.6796C181.455 13.6796 178.321 13.942 176.348 14.2044C176.306 14.207 176.266 14.2076 176.225 14.2058Z" fill="white"/>
<path d="M189.924 27.1078C189.835 27.1076 189.746 27.0939 189.66 27.0672C189.547 27.0327 189.441 26.9761 189.349 26.9006C189.256 26.8253 189.181 26.7325 189.125 26.6275C189.068 26.5226 189.034 26.4077 189.023 26.2894C189.011 26.1711 189.023 26.0515 189.057 25.9379L193.971 9.85733C194.047 9.63435 194.206 9.44937 194.416 9.34192C194.625 9.23448 194.868 9.21288 195.094 9.28182C195.318 9.35064 195.508 9.50468 195.621 9.71086C195.735 9.91718 195.763 10.1596 195.701 10.3866L190.788 26.467C190.732 26.6523 190.618 26.8145 190.462 26.9298C190.307 27.0452 190.118 27.1076 189.924 27.1078Z" fill="white"/>
<path d="M22.7465 54.6363H22.7361C22.6171 54.635 22.4996 54.6102 22.3902 54.5633C22.2809 54.5165 22.1819 54.4485 22.0988 54.3634C22.0159 54.2782 21.9503 54.1776 21.9063 54.0671C21.8622 53.9566 21.8404 53.8386 21.8419 53.7196L22.0078 40.3004C22.0106 40.0623 22.107 39.8349 22.2765 39.6675C22.4458 39.5002 22.6743 39.4062 22.9125 39.4062H22.9229C23.0417 39.4076 23.1592 39.4324 23.2684 39.4792C23.3776 39.5259 23.4766 39.5937 23.5595 39.6787C23.6426 39.7637 23.7082 39.8642 23.7522 39.9746C23.7964 40.0848 23.8185 40.2027 23.8171 40.3215L23.6512 53.7407C23.6488 53.9791 23.5525 54.2069 23.383 54.3746C23.2137 54.5424 22.9849 54.6364 22.7465 54.6363Z" fill="white"/>
<path d="M140.139 179.706C140.006 179.706 139.876 179.679 139.756 179.622C138.154 178.876 136.413 178.475 134.647 178.449C133.97 178.441 132.56 178.424 132.022 177.243C131.642 176.41 131.938 175.421 132.816 174.6C133.447 174.011 134.191 173.555 135.001 173.258C135.812 172.963 136.674 172.833 137.537 172.877C137.923 172.897 138.291 172.951 138.648 173.004C138.998 173.064 139.35 173.103 139.703 173.121C140.294 173.133 140.769 172.986 141.005 172.709C141.207 172.473 141.28 172.071 141.2 171.653C141.056 170.932 140.421 170.311 139.753 170.238C139.113 170.169 138.416 170.66 138.323 171.249C138.28 171.482 138.149 171.686 137.957 171.823C137.764 171.959 137.527 172.015 137.294 171.978C137.062 171.941 136.852 171.815 136.711 171.627C136.57 171.439 136.508 171.203 136.537 170.969C136.779 169.424 138.346 168.267 139.95 168.439C141.404 168.59 142.676 169.796 142.974 171.304C143.164 172.258 142.942 173.22 142.383 173.878C141.779 174.581 140.817 174.955 139.659 174.924C139.23 174.906 138.801 174.862 138.376 174.79C138.048 174.742 137.736 174.695 137.435 174.68C136.816 174.652 136.198 174.747 135.616 174.959C135.036 175.171 134.501 175.497 134.046 175.916C133.765 176.179 133.657 176.429 133.663 176.497C133.7 176.53 133.878 176.631 134.664 176.647C136.688 176.676 138.683 177.134 140.518 177.989C140.703 178.076 140.855 178.225 140.945 178.41C141.036 178.594 141.061 178.805 141.015 179.006C140.971 179.205 140.859 179.386 140.698 179.515C140.538 179.642 140.339 179.713 140.133 179.713L140.139 179.706Z" fill="#CEB7A1"/>
<path d="M146.319 181.897C146.123 181.897 145.916 181.887 145.7 181.868C143.835 181.703 142.424 181.025 141.619 179.907C141.542 179.812 141.487 179.701 141.454 179.584C141.422 179.465 141.415 179.341 141.431 179.22C141.448 179.099 141.489 178.983 141.552 178.878C141.616 178.773 141.699 178.682 141.799 178.61C141.898 178.54 142.011 178.488 142.131 178.461C142.251 178.435 142.373 178.434 142.494 178.456C142.614 178.479 142.729 178.526 142.83 178.594C142.933 178.661 143.02 178.749 143.085 178.853C143.703 179.708 144.936 179.984 145.862 180.067C146.671 180.139 147.228 180.033 147.511 179.751C147.594 179.662 147.657 179.556 147.695 179.44C147.733 179.325 147.746 179.203 147.733 179.081C147.715 178.841 147.651 178.608 147.544 178.393C147.436 178.179 147.287 177.987 147.106 177.83C146.382 177.227 145.356 177.047 144.09 176.873C143.931 176.85 143.781 176.786 143.655 176.686C143.528 176.586 143.431 176.455 143.372 176.306C143.314 176.156 143.296 175.993 143.321 175.835C143.347 175.676 143.414 175.527 143.516 175.402L145.895 172.506C146.16 172.182 146.563 171.694 147.22 171.522C147.744 171.384 148.237 171.511 148.56 171.594L151.482 172.348C151.597 172.377 151.704 172.43 151.799 172.501C151.895 172.573 151.974 172.662 152.035 172.764C152.094 172.867 152.135 172.98 152.151 173.098C152.167 173.215 152.161 173.335 152.131 173.45C152.102 173.565 152.049 173.674 151.978 173.768C151.906 173.863 151.816 173.942 151.714 174.003C151.612 174.064 151.499 174.103 151.381 174.119C151.263 174.136 151.143 174.129 151.028 174.1L148.109 173.345C147.969 173.3 147.823 173.275 147.676 173.271C147.587 173.295 147.374 173.555 147.291 173.653L145.901 175.345C146.762 175.52 147.57 175.893 148.261 176.435C148.636 176.754 148.943 177.146 149.162 177.586C149.383 178.027 149.511 178.507 149.541 178.998C149.565 179.372 149.511 179.746 149.381 180.097C149.251 180.446 149.049 180.766 148.787 181.032C148.203 181.612 147.392 181.897 146.319 181.897Z" fill="#CEB7A1"/>
<path d="M150.201 183.984C150.003 183.984 149.809 183.919 149.65 183.799C149.492 183.679 149.379 183.51 149.326 183.319C149.273 183.128 149.284 182.924 149.359 182.74C149.433 182.557 149.566 182.402 149.736 182.301C153.807 179.865 158.058 177.604 162.354 175.578C162.461 175.525 162.578 175.494 162.698 175.486C162.818 175.479 162.939 175.495 163.053 175.534C163.167 175.573 163.272 175.635 163.361 175.716C163.451 175.797 163.523 175.894 163.575 176.003C163.626 176.111 163.655 176.23 163.66 176.35C163.665 176.47 163.647 176.59 163.605 176.703C163.563 176.816 163.499 176.919 163.417 177.008C163.335 177.095 163.235 177.165 163.125 177.215C158.883 179.216 154.682 181.448 150.663 183.849C150.524 183.934 150.364 183.981 150.201 183.984Z" fill="#CEB7A1"/>
<path d="M42.1968 183.666C40.9413 183.67 39.7072 183.342 38.6187 182.717C38.4219 182.592 38.2809 182.395 38.2254 182.169C38.1699 181.941 38.2041 181.703 38.3209 181.501C38.4377 181.299 38.628 181.15 38.8521 181.084C39.0762 181.02 39.3167 181.044 39.5234 181.151C40.1833 181.53 40.916 181.762 41.6728 181.834C42.4296 181.906 43.1932 181.816 43.9125 181.57C44.4192 181.396 44.7614 181.166 44.9032 180.909C44.955 180.804 44.9831 180.69 44.9854 180.573C44.9878 180.457 44.9643 180.342 44.9167 180.234C44.8119 179.986 44.6585 179.76 44.4653 179.57C44.2723 179.381 44.0432 179.232 43.792 179.132C43.0817 178.863 42.257 178.857 41.3795 178.849C40.9889 178.849 40.5849 178.849 40.1733 178.814C38.2026 178.681 36.7054 177.799 36.161 176.45C36.0095 176.055 35.9399 175.633 35.9565 175.212C35.973 174.789 36.0756 174.374 36.2576 173.992C36.4608 173.544 36.7511 173.138 37.1115 172.803C37.472 172.465 37.8956 172.204 38.3579 172.032C39.8446 171.507 41.6283 171.906 43.0124 173.073C43.1868 173.231 43.2932 173.449 43.3093 173.683C43.3253 173.917 43.2498 174.148 43.0984 174.328C42.9471 174.507 42.732 174.621 42.4985 174.645C42.2649 174.669 42.0314 174.6 41.8469 174.455C40.9648 173.712 39.8325 173.43 38.961 173.739C38.4921 173.92 38.1131 174.279 37.9056 174.736C37.8269 174.896 37.7807 175.07 37.7696 175.248C37.7585 175.428 37.7826 175.606 37.8407 175.775C38.1649 176.584 39.3214 176.941 40.2954 177.008C40.6483 177.032 41.0086 177.035 41.3901 177.039C42.3836 177.047 43.4105 177.055 44.4237 177.439C44.918 177.628 45.3673 177.92 45.7431 178.292C46.1187 178.666 46.4124 179.113 46.6055 179.606C46.7432 179.955 46.8033 180.33 46.7817 180.705C46.7601 181.08 46.6572 181.446 46.4804 181.777C46.1139 182.444 45.4475 182.949 44.499 183.285C43.758 183.539 42.98 183.667 42.1968 183.666Z" fill="white"/>
<path d="M48.4468 181.501C48.2748 181.501 48.1061 181.452 47.9607 181.36C47.8155 181.267 47.6996 181.135 47.6266 180.979C46.1596 177.828 45.8038 173.721 46.722 170.515C46.7694 170.349 46.8635 170.2 46.9928 170.086C47.1222 169.971 47.2817 169.897 47.4523 169.87C47.6229 169.844 47.7975 169.866 47.9556 169.936C48.1136 170.005 48.2486 170.119 48.3443 170.262C49.2279 171.587 50.2623 172.945 51.2634 174.258C52.2647 175.571 53.3321 176.971 54.2489 178.345C54.382 178.546 54.4303 178.789 54.3831 179.025C54.3359 179.26 54.197 179.467 53.997 179.601C53.898 179.667 53.787 179.712 53.6703 179.736C53.5537 179.759 53.4335 179.759 53.3169 179.735C53.0813 179.688 52.8742 179.549 52.741 179.349C51.8559 178.024 50.8216 176.667 49.8205 175.354C49.2415 174.6 48.652 173.818 48.0806 173.039C47.8484 175.426 48.2645 178.07 49.2641 180.215C49.3283 180.352 49.3566 180.504 49.3465 180.655C49.3365 180.808 49.2883 180.955 49.2066 181.082C49.1249 181.211 49.0121 181.316 48.8788 181.389C48.7455 181.462 48.596 181.501 48.4439 181.501H48.4468Z" fill="white"/>
<path d="M47.72 178.251C47.5268 178.251 47.3387 178.189 47.1831 178.075C47.0277 177.96 46.9131 177.799 46.8559 177.614C46.7988 177.429 46.8022 177.232 46.8657 177.049C46.9292 176.868 47.0494 176.71 47.2088 176.6C48.2239 175.908 49.3781 175.445 50.5907 175.244C50.8253 175.21 51.0638 175.269 51.255 175.409C51.4461 175.549 51.5747 175.759 51.6131 175.993C51.6513 176.226 51.5964 176.466 51.4599 176.659C51.3234 176.854 51.1163 176.986 50.8833 177.029C49.9319 177.183 49.0258 177.543 48.2281 178.085C48.0795 178.189 47.9023 178.248 47.72 178.251Z" fill="white"/>
<path d="M56.5495 178.738C56.4799 178.737 56.4106 178.729 56.3429 178.714C55.8514 178.607 55.589 178.23 55.0688 177.155C54.7747 176.551 54.3978 175.714 53.95 174.666C53.1569 172.815 52.2914 170.646 51.812 169.413C51.7321 169.191 51.7425 168.946 51.8411 168.73C51.9396 168.516 52.1184 168.348 52.3393 168.263C52.56 168.179 52.8052 168.184 53.0222 168.277C53.2394 168.372 53.4111 168.546 53.5007 168.766C54.5095 171.388 56.1996 175.446 56.9038 176.785C57.2702 176.656 57.7677 176.468 58.1733 176.316C58.9679 176.014 59.7912 175.713 60.3279 175.542C60.5563 175.477 60.8014 175.503 61.0103 175.617C61.2192 175.73 61.375 175.921 61.4442 176.148C61.5134 176.375 61.4901 176.622 61.3798 176.833C61.2693 177.042 61.0805 177.201 60.8542 177.273C60.3746 177.425 59.5439 177.725 58.8111 178.009C57.3108 178.574 56.8601 178.738 56.5495 178.738Z" fill="white"/>
<path d="M64.4553 176.088C63.154 176.088 61.0145 175.658 59.4931 173.182C57.4818 169.91 58.5583 167.886 59.1147 167.166C59.9712 166.062 61.42 165.551 62.6399 165.927C64.6859 166.556 66.0309 167.705 66.5285 169.252C66.5926 169.45 66.5861 169.666 66.5097 169.86C66.4332 170.055 66.2918 170.218 66.1093 170.319C64.6357 171.142 63.2341 172.088 61.9192 173.146C61.8868 173.172 61.8525 173.196 61.8166 173.218C62.1938 173.584 62.6435 173.867 63.1371 174.049C63.6305 174.23 64.1567 174.307 64.6814 174.272C65.8333 174.205 66.5767 173.67 66.6656 173.482C66.7405 173.254 66.9022 173.065 67.1156 172.958C67.329 172.849 67.5765 172.83 67.804 172.903C67.9174 172.94 68.0223 172.999 68.1127 173.076C68.2033 173.155 68.2775 173.249 68.3314 173.355C68.3852 173.461 68.4174 173.578 68.4262 173.696C68.4352 173.815 68.4204 173.935 68.383 174.049C68.0618 175.036 66.7245 175.858 65.1338 176.048C64.9086 176.075 64.682 176.088 64.4553 176.088ZM61.8136 167.615C61.5665 167.624 61.3243 167.687 61.105 167.801C60.8856 167.916 60.6944 168.078 60.5455 168.275C59.9259 169.075 60.0088 170.326 60.7612 171.756L60.7853 171.737C61.9575 170.796 63.1944 169.94 64.487 169.174C63.926 168.372 62.9279 167.916 62.1092 167.666C62.0136 167.634 61.9141 167.618 61.8136 167.615Z" fill="white"/>
<path d="M20.9888 135.113C20.8691 135.113 20.7507 135.089 20.6404 135.042C20.4192 134.95 20.2437 134.773 20.1527 134.551C20.0616 134.328 20.0624 134.08 20.1549 133.859C22.6202 127.965 24.9331 121.916 27.0274 115.881C27.1062 115.654 27.2719 115.469 27.4879 115.364C27.7039 115.259 27.9527 115.245 28.1793 115.323C28.4061 115.402 28.5923 115.567 28.6969 115.784C28.8015 116 28.8161 116.249 28.7373 116.475C26.6264 122.544 24.3044 128.628 21.8241 134.557C21.7553 134.721 21.6393 134.863 21.4907 134.961C21.3421 135.06 21.1674 135.113 20.9888 135.113Z" fill="#CEB7A1"/>
<path d="M102.733 28.0085H102.641C101.159 27.8577 98.8715 26.9756 96.8662 26.1991C95.8514 25.8056 94.8924 25.4347 94.223 25.2342L64.8786 16.382C64.6808 16.3229 64.5094 16.1977 64.3924 16.0277C64.2755 15.8575 64.2203 15.6525 64.236 15.4467C64.2518 15.2409 64.3373 15.0466 64.4786 14.8961C64.6198 14.7457 64.8084 14.648 65.0128 14.6195C65.1787 14.5289 65.4998 14.3013 65.631 14.2078C65.7621 14.1143 65.8451 14.0571 65.9174 14.0133C66.0426 13.9364 66.1707 13.8625 66.2975 13.7886C66.5897 13.6303 66.8695 13.4499 67.1342 13.2489C76.3015 5.85165 79.2115 2.43208 80.0363 1.30569L80.0529 1.28309C80.1695 1.1245 80.3345 1.00822 80.523 0.951902C80.7116 0.895589 80.9134 0.902281 81.0977 0.970968C85.3859 2.57072 89.9725 4.30619 91.7231 4.97564C99.1042 7.79698 106.724 9.94874 114.49 11.4048C114.667 11.4378 114.829 11.5224 114.957 11.6476C115.085 11.773 115.173 11.9336 115.21 12.109C116.085 16.1694 118.311 19.8128 121.526 22.4433C121.654 22.5475 121.753 22.6851 121.808 22.841C121.865 22.9971 121.877 23.1655 121.844 23.328C121.811 23.4904 121.734 23.6407 121.621 23.7623C121.508 23.8838 121.364 23.9721 121.205 24.0174C118.606 24.7471 114.938 25.4423 111.392 26.1133C107.817 26.7886 104.44 27.428 103.06 27.9496C102.956 27.9895 102.845 28.0095 102.733 28.0085ZM67.386 15.2496L94.7462 23.4972C95.4805 23.7188 96.4711 24.1004 97.519 24.5059C99.2394 25.1708 101.359 25.991 102.63 26.1796C104.238 25.6232 107.406 25.0231 111.048 24.3355C113.859 23.8033 116.745 23.2575 119.08 22.6966C116.368 20.0754 114.456 16.7379 113.567 13.0725C105.898 11.5981 98.3729 9.45443 91.0778 6.66592C89.4192 6.02955 85.1884 4.42981 81.0918 2.89647C79.7061 4.61529 76.3393 8.14206 68.2756 14.6571C67.9948 14.8773 67.6975 15.0754 67.386 15.2496Z" fill="#CEB7A1"/>
<path d="M80.4265 15.5379C78.6821 15.5379 77.1623 14.6211 76.4777 13.0441C76.3912 12.8258 76.393 12.5824 76.4826 12.3652C76.5722 12.1481 76.7428 11.9745 76.9581 11.8808C77.1735 11.7873 77.4169 11.7811 77.6368 11.8637C77.8566 11.9462 78.0358 12.1111 78.1363 12.3233C78.7228 13.6803 80.1959 13.9306 81.3961 13.5869C82.0851 13.3893 82.3234 13.2023 82.3927 13.1345C82.343 13.0018 82.1138 12.646 81.0629 11.9283C80.9769 11.8695 80.9121 11.8228 80.8594 11.7865C80.71 11.6768 80.598 11.5239 80.5385 11.3484C80.4789 11.173 80.4746 10.9835 80.5263 10.8055C80.5779 10.6276 80.683 10.4697 80.8273 10.3534C80.9715 10.2371 81.1479 10.168 81.3327 10.1551C82.5933 10.0677 83.2356 9.80079 83.4965 9.62288C83.2989 9.51127 82.8933 9.35899 82.1741 9.33336C81.9342 9.32478 81.7075 9.22124 81.544 9.04548C81.3803 8.86973 81.2932 8.63626 81.3019 8.39637C81.3105 8.15634 81.414 7.9297 81.5898 7.76606C81.7656 7.60255 81.999 7.51543 82.2389 7.52402C84.5609 7.60697 85.4053 8.68349 85.4173 9.58071C85.4249 9.96063 85.2666 11.013 83.5039 11.5951C83.9653 12.1047 84.3046 12.7259 84.1916 13.4286C83.982 14.7282 82.4109 15.1791 81.8937 15.3268C81.4169 15.4654 80.9231 15.5365 80.4265 15.5379Z" fill="#CEB7A1"/>
<path d="M94.4161 20.5047C94.2115 20.5048 94.0129 20.4357 93.8528 20.3084C93.6926 20.1813 93.5803 20.0035 93.5341 19.8043C93.4879 19.605 93.5106 19.3961 93.5985 19.2114C93.6864 19.0266 93.8342 18.8771 94.018 18.7874C98.0359 16.8239 102.207 15.191 106.49 13.9052C106.72 13.8364 106.968 13.8617 107.18 13.9757C107.391 14.0896 107.548 14.2828 107.617 14.5127C107.686 14.7427 107.66 14.9905 107.546 15.2018C107.432 15.413 107.239 15.5703 107.009 15.6391C102.823 16.897 98.7459 18.4934 94.8186 20.4127C94.6932 20.4737 94.5555 20.5052 94.4161 20.5047Z" fill="#CEB7A1"/>
<path d="M52.8045 23.3752C52.6455 23.375 52.4896 23.3328 52.3521 23.2531C50.4508 22.1524 49.1858 19.936 48.6927 16.8435C48.0282 12.5905 48.6636 8.23597 50.5156 4.35011C50.6194 4.13357 50.805 3.96703 51.0313 3.88736C51.2579 3.80756 51.5067 3.82107 51.7233 3.92486C51.9398 4.02865 52.1064 4.21425 52.186 4.44064C52.2658 4.66716 52.2523 4.91602 52.1485 5.13256C50.455 8.68648 49.8738 12.6689 50.481 16.5586C50.7629 18.3286 51.4745 20.6536 53.2613 21.685C53.4332 21.7848 53.5676 21.9385 53.6435 22.1222C53.7194 22.306 53.7326 22.5097 53.6811 22.7018C53.6296 22.8939 53.5163 23.0636 53.3586 23.1848C53.2009 23.3059 53.0077 23.3718 52.8089 23.3722L52.8045 23.3752Z" fill="#3A3A3A"/>
<path d="M45.5272 17.5234C45.3728 17.5235 45.2209 17.4841 45.086 17.4089C44.9512 17.3336 44.8378 17.2251 44.7567 17.0937C44.135 16.0692 43.7675 14.9108 43.6849 13.7152C43.6022 12.5196 43.8069 11.3216 44.2819 10.2212C44.3783 10.0013 44.5584 9.82881 44.7821 9.74156C45.006 9.65432 45.2552 9.6595 45.4752 9.75609C45.6951 9.85268 45.8677 10.0327 45.955 10.2565C46.0422 10.4803 46.0369 10.7296 45.9403 10.9495C45.5873 11.7825 45.4357 12.6869 45.4976 13.5894C45.5598 14.4919 45.8339 15.3671 46.2976 16.1438C46.3822 16.2808 46.4286 16.4379 46.4322 16.5988C46.4358 16.7596 46.3963 16.9186 46.318 17.0592C46.2396 17.1998 46.1252 17.3169 45.9864 17.3985C45.8476 17.4802 45.6897 17.5233 45.5287 17.5234H45.5272Z" fill="#3A3A3A"/>
<path d="M10.1526 197.843C9.99323 197.843 9.83692 197.8 9.70017 197.718C4.79689 194.841 1.75876 189.096 2.13717 183.425C2.14513 183.305 2.17631 183.19 2.22909 183.083C2.28187 182.975 2.35523 182.881 2.44475 182.802C2.53439 182.724 2.63856 182.663 2.75131 182.625C2.86419 182.588 2.98338 182.572 3.1022 182.58C3.22101 182.588 3.33704 182.619 3.44374 182.672C3.55055 182.724 3.64576 182.797 3.72417 182.887C3.80258 182.976 3.86255 183.081 3.90068 183.194C3.93881 183.307 3.95447 183.426 3.94651 183.545C3.61179 188.548 6.29412 193.618 10.6199 196.158C10.7905 196.259 10.9234 196.413 10.9983 196.596C11.0732 196.78 11.0859 196.982 11.0346 197.173C10.9833 197.364 10.8706 197.533 10.7141 197.655C10.5575 197.776 10.3655 197.841 10.1676 197.843H10.1526Z" fill="#3A3A3A"/>
<path d="M4.65372 199.103C4.47821 199.1 4.30687 199.048 4.16066 198.951C2.72278 198.012 1.53011 196.743 0.682252 195.249C0.62354 195.147 0.585914 195.032 0.571267 194.914C0.556747 194.797 0.565459 194.677 0.597151 194.562C0.628717 194.447 0.682631 194.341 0.755737 194.247C0.828843 194.153 0.919625 194.075 1.02291 194.017C1.12632 193.957 1.24021 193.92 1.35814 193.906C1.47606 193.891 1.59564 193.899 1.71016 193.931C1.82468 193.962 1.93187 194.017 2.02556 194.09C2.11925 194.163 2.19766 194.254 2.25637 194.358C2.96117 195.599 3.95271 196.654 5.14829 197.436C5.30978 197.543 5.43263 197.7 5.49867 197.882C5.56483 198.063 5.57051 198.263 5.51508 198.449C5.45978 198.634 5.34614 198.797 5.19096 198.913C5.03591 199.029 4.84753 199.094 4.65372 199.095V199.103Z" fill="#3A3A3A"/>
<path d="M193.107 194.717C192.915 194.718 192.728 194.658 192.573 194.545C192.417 194.433 192.302 194.274 192.243 194.092C192.184 193.909 192.185 193.713 192.244 193.532C192.304 193.348 192.42 193.191 192.575 193.078C196.805 190.01 199.907 185.634 201.402 180.626C201.434 180.509 201.487 180.399 201.561 180.304C201.636 180.208 201.728 180.129 201.834 180.069C201.939 180.01 202.055 179.972 202.176 179.958C202.296 179.946 202.417 179.956 202.534 179.991C202.65 180.025 202.758 180.082 202.852 180.159C202.945 180.236 203.022 180.331 203.078 180.438C203.135 180.545 203.169 180.663 203.179 180.783C203.188 180.904 203.174 181.025 203.136 181.14C201.527 186.53 198.189 191.241 193.637 194.545C193.483 194.658 193.297 194.717 193.107 194.717Z" fill="#3A3A3A"/>
<path d="M200.455 198.909C200.225 198.909 200.004 198.821 199.838 198.663C199.67 198.507 199.569 198.291 199.555 198.062C199.54 197.832 199.613 197.606 199.759 197.429C199.904 197.251 200.113 197.137 200.34 197.108C201.038 197.014 201.694 196.719 202.225 196.257C202.312 196.169 202.417 196.101 202.532 196.056C202.647 196.01 202.771 195.989 202.894 195.993C203.018 195.998 203.139 196.027 203.25 196.08C203.363 196.133 203.463 196.207 203.545 196.301C203.625 196.393 203.687 196.503 203.725 196.62C203.763 196.738 203.777 196.861 203.764 196.985C203.753 197.108 203.715 197.227 203.656 197.336C203.596 197.443 203.514 197.538 203.416 197.614C202.615 198.311 201.627 198.757 200.574 198.897C200.534 198.903 200.495 198.907 200.455 198.909Z" fill="#3A3A3A"/>
<path d="M84.3333 113.997C82.4192 114.002 80.5113 113.779 78.6505 113.33C78.5352 113.301 78.4266 113.251 78.3309 113.18C78.2353 113.109 78.1545 113.021 78.093 112.919C78.0317 112.818 77.9909 112.705 77.9731 112.587C77.9553 112.469 77.9608 112.351 77.9894 112.234C78.0179 112.12 78.0688 112.011 78.1394 111.915C78.2098 111.819 78.2985 111.738 78.4001 111.678C78.5019 111.616 78.6146 111.575 78.7322 111.558C78.8496 111.54 78.9694 111.545 79.0848 111.574C84.7947 112.986 93.6469 112.328 99.8031 105.837C99.9683 105.662 100.196 105.561 100.436 105.555C100.676 105.548 100.908 105.637 101.082 105.803C101.257 105.968 101.358 106.195 101.364 106.435C101.371 106.675 101.282 106.907 101.116 107.082C96.2463 112.215 89.8428 113.997 84.3333 113.997Z" fill="#3A3A3A"/>
<path d="M159.45 113.99C159.31 113.99 159.171 113.957 159.046 113.894C158.205 113.473 155.648 112.476 153.175 111.509C150.547 110.484 148.066 109.516 147.152 109.059C146.937 108.952 146.774 108.764 146.699 108.535C146.622 108.308 146.639 108.059 146.747 107.845C146.855 107.63 147.043 107.467 147.271 107.39C147.498 107.314 147.747 107.332 147.961 107.439C148.802 107.86 151.359 108.859 153.831 109.824C156.46 110.85 158.94 111.818 159.855 112.275C160.038 112.366 160.185 112.516 160.271 112.701C160.358 112.886 160.379 113.095 160.333 113.293C160.285 113.491 160.172 113.669 160.012 113.795C159.851 113.922 159.653 113.99 159.45 113.99Z" fill="#3A3A3A"/>
<path d="M109.102 142.662C108.743 142.662 108.384 142.643 108.027 142.606C105.391 142.321 103.102 140.983 100.986 139.64C90.168 132.779 80.6229 124.092 72.775 113.967C72.7022 113.874 72.6485 113.766 72.6171 113.651C72.5858 113.537 72.5772 113.417 72.5921 113.299C72.6068 113.182 72.6447 113.068 72.7036 112.965C72.7624 112.861 72.8409 112.77 72.9349 112.698C73.0287 112.625 73.136 112.571 73.2505 112.539C73.3652 112.509 73.4849 112.5 73.6027 112.515C73.7206 112.529 73.8344 112.567 73.9377 112.626C74.0409 112.686 74.1316 112.764 74.2045 112.857C81.9241 122.817 91.3137 131.362 101.955 138.111C103.893 139.342 105.973 140.564 108.22 140.807C110.254 141.024 112.394 140.415 114.242 139.826C127.821 135.486 142.615 126.165 152.852 115.499C152.932 115.408 153.031 115.332 153.141 115.28C153.251 115.227 153.37 115.197 153.493 115.192C153.615 115.187 153.737 115.206 153.852 115.249C153.965 115.293 154.07 115.358 154.158 115.443C154.247 115.528 154.316 115.629 154.364 115.741C154.412 115.853 154.436 115.975 154.436 116.097C154.436 116.22 154.411 116.341 154.363 116.452C154.315 116.564 154.244 116.667 154.156 116.75C143.725 127.621 128.641 137.124 114.792 141.549C113.074 142.097 111.113 142.662 109.102 142.662Z" fill="#3A3A3A"/>
<path d="M43.0265 158.34C42.873 158.34 42.7221 158.301 42.588 158.226C42.4538 158.152 42.3409 158.045 42.2597 157.913C42.1786 157.783 42.1319 157.634 42.1242 157.481C42.1164 157.329 42.1478 157.176 42.2153 157.037C45.5834 150.159 48.2658 142.965 50.2231 135.561L50.3664 135.018C51.078 132.303 51.8154 129.494 53.6261 127.221C54.3016 126.374 55.0918 125.653 55.8546 124.96C56.6177 124.266 57.3278 123.613 57.9203 122.86C58.6742 121.908 59.2155 120.807 59.793 119.642C60.3298 118.557 60.8846 117.437 61.628 116.417C64.2802 112.779 69.1789 111.007 73.5394 112.103C73.7726 112.161 73.9733 112.308 74.0976 112.513C74.2218 112.719 74.2595 112.965 74.2021 113.199C74.1447 113.431 73.9971 113.632 73.7916 113.757C73.5862 113.88 73.3398 113.918 73.1067 113.861C69.4398 112.939 65.3219 114.43 63.0951 117.48C62.4421 118.384 61.9445 119.379 61.4184 120.442C60.8259 121.639 60.2121 122.878 59.3467 123.98C58.6621 124.848 57.8571 125.584 57.085 126.295C56.3416 126.974 55.6376 127.615 55.051 128.353C53.4784 130.325 52.7894 132.945 52.1274 135.479L51.9766 136.026C49.9876 143.545 47.263 150.85 43.8421 157.835C43.7673 157.988 43.6511 158.115 43.5068 158.205C43.3626 158.295 43.1962 158.341 43.0265 158.34Z" fill="#3A3A3A"/>
<path d="M106.683 188.35C106.643 188.353 106.603 188.353 106.563 188.35C106.445 188.335 106.331 188.296 106.229 188.236C106.126 188.177 106.035 188.098 105.963 188.004C105.891 187.909 105.838 187.801 105.807 187.687C105.777 187.572 105.769 187.452 105.785 187.334C106.262 183.72 106.16 180.052 105.483 176.469C105.355 175.788 105.201 175.086 105.054 174.408C104.512 171.925 103.951 169.356 104.34 166.744C104.594 165.038 105.238 163.438 105.86 161.893C106.647 159.933 107.392 158.086 107.331 156.152C107.292 154.893 106.911 153.662 106.507 152.36C106.197 151.428 105.945 150.478 105.753 149.514C105.311 146.997 105.663 144.404 106.759 142.095C106.867 141.884 107.051 141.725 107.275 141.649C107.498 141.574 107.743 141.589 107.955 141.69C108.168 141.792 108.333 141.973 108.413 142.195C108.495 142.416 108.487 142.661 108.391 142.875C107.458 144.844 107.158 147.053 107.536 149.199C107.714 150.087 107.947 150.965 108.234 151.826C108.656 153.183 109.091 154.591 109.138 156.096C109.21 158.411 108.36 160.524 107.537 162.568C106.934 164.076 106.35 165.515 106.129 167.01C105.789 169.294 106.29 171.591 106.821 174.023C106.971 174.714 107.122 175.427 107.259 176.134C107.969 179.907 108.074 183.768 107.57 187.572C107.54 187.787 107.434 187.983 107.271 188.125C107.108 188.268 106.9 188.349 106.683 188.35Z" fill="#3A3A3A"/>
<path d="M65.66 125.49C65.4554 125.489 65.257 125.419 65.097 125.292C64.9371 125.164 64.8252 124.986 64.7795 124.787C64.1826 122.135 64.6028 119.358 65.957 117.001C66.0136 116.893 66.0915 116.797 66.1859 116.72C66.2804 116.643 66.3895 116.585 66.5066 116.552C66.6238 116.518 66.7466 116.508 66.8677 116.522C66.9888 116.537 67.1057 116.576 67.2114 116.637C67.317 116.698 67.4092 116.78 67.4824 116.878C67.5556 116.975 67.6083 117.086 67.6373 117.205C67.6663 117.323 67.6711 117.447 67.6513 117.567C67.6315 117.687 67.5876 117.803 67.5222 117.905C66.3956 119.864 66.0464 122.174 66.5436 124.379C66.5718 124.495 66.5767 124.615 66.558 124.734C66.5393 124.851 66.4975 124.965 66.4348 125.066C66.3722 125.168 66.29 125.257 66.1929 125.326C66.0959 125.397 65.986 125.446 65.8696 125.474C65.8007 125.488 65.7302 125.493 65.66 125.49Z" fill="#3A3A3A"/>
<path d="M108.028 147.63C106.54 147.63 105.058 147.427 103.625 147.026C103.511 146.995 103.404 146.941 103.31 146.867C103.217 146.794 103.139 146.702 103.08 146.598C102.963 146.39 102.933 146.143 102.997 145.912C103.062 145.681 103.216 145.485 103.425 145.366C103.634 145.249 103.881 145.218 104.112 145.284C105.803 145.758 107.566 145.922 109.316 145.766C109.434 145.755 109.554 145.769 109.668 145.804C109.782 145.84 109.888 145.898 109.979 145.975C110.07 146.05 110.145 146.145 110.201 146.25C110.256 146.356 110.289 146.472 110.301 146.591C110.311 146.71 110.298 146.83 110.261 146.943C110.226 147.057 110.168 147.163 110.092 147.254C110.015 147.345 109.922 147.42 109.816 147.476C109.71 147.532 109.595 147.564 109.475 147.576C108.991 147.602 108.509 147.63 108.028 147.63Z" fill="#3A3A3A"/>
<path d="M109.941 159.886C109.864 159.886 109.787 159.876 109.712 159.856C108.378 159.509 107.015 159.279 105.641 159.172C105.401 159.153 105.179 159.039 105.022 158.856C104.866 158.674 104.789 158.435 104.807 158.196C104.826 157.956 104.94 157.733 105.123 157.577C105.306 157.42 105.543 157.343 105.783 157.362C107.264 157.48 108.733 157.727 110.171 158.101C110.384 158.156 110.57 158.288 110.693 158.47C110.817 158.651 110.87 158.874 110.842 159.092C110.815 159.31 110.707 159.511 110.542 159.656C110.376 159.802 110.163 159.882 109.943 159.881L109.941 159.886Z" fill="#3A3A3A"/>
<path d="M106.369 172.087C104.876 172.088 103.384 171.987 101.905 171.785C101.787 171.769 101.674 171.73 101.571 171.67C101.469 171.61 101.379 171.53 101.307 171.435C101.235 171.342 101.183 171.233 101.153 171.119C101.122 171.004 101.115 170.884 101.131 170.766C101.148 170.649 101.187 170.535 101.247 170.433C101.307 170.329 101.386 170.24 101.481 170.168C101.576 170.097 101.683 170.044 101.798 170.014C101.913 169.983 102.033 169.977 102.151 169.992C104.014 170.247 105.897 170.333 107.777 170.247C107.895 170.242 108.014 170.26 108.125 170.3C108.238 170.341 108.34 170.403 108.428 170.483C108.515 170.563 108.587 170.66 108.638 170.768C108.688 170.875 108.717 170.992 108.722 171.111C108.727 171.23 108.71 171.348 108.669 171.461C108.629 171.572 108.567 171.675 108.486 171.762C108.407 171.851 108.309 171.922 108.202 171.972C108.095 172.023 107.977 172.052 107.859 172.057C107.364 172.076 106.868 172.086 106.369 172.087Z" fill="#3A3A3A"/>
<path d="M107.334 182.722C106.182 182.723 105.034 182.588 103.915 182.318C103.798 182.291 103.687 182.242 103.59 182.173C103.492 182.103 103.409 182.015 103.346 181.913C103.283 181.81 103.24 181.698 103.221 181.579C103.202 181.461 103.207 181.339 103.235 181.223C103.264 181.106 103.315 180.996 103.386 180.9C103.457 180.803 103.547 180.722 103.65 180.66C103.753 180.598 103.867 180.558 103.986 180.54C104.105 180.524 104.226 180.53 104.342 180.56C106.031 180.966 107.785 181.024 109.497 180.729C109.617 180.703 109.74 180.702 109.86 180.726C109.98 180.748 110.094 180.796 110.195 180.865C110.296 180.933 110.382 181.021 110.449 181.125C110.514 181.227 110.559 181.342 110.58 181.463C110.6 181.583 110.595 181.707 110.567 181.825C110.538 181.944 110.487 182.056 110.413 182.154C110.34 182.252 110.248 182.334 110.142 182.396C110.037 182.457 109.92 182.496 109.798 182.511C108.984 182.652 108.16 182.723 107.334 182.722Z" fill="#3A3A3A"/>
<path d="M159.531 121.532C159.392 121.532 159.253 121.499 159.128 121.437C159.003 121.375 158.894 121.286 158.81 121.173C158.725 121.062 158.668 120.933 158.642 120.796C158.615 120.659 158.621 120.518 158.659 120.383C159.32 118.027 159.077 115.558 158.82 112.946C158.63 111.02 158.435 109.027 158.621 107.051C159.018 103.009 160.969 99.2783 164.063 96.6474C165.692 95.2708 167.565 94.2652 169.375 93.2926C171.009 92.415 172.552 91.5859 173.94 90.5062C175.777 89.0754 177.316 87.1892 178.805 85.3798C179.012 85.128 179.217 84.8748 179.426 84.6259C179.945 83.9971 180.654 83.1362 181.653 82.6658C182.161 82.4336 182.711 82.3082 183.269 82.2976C183.827 82.287 184.382 82.3913 184.898 82.6039C185.522 82.8448 186.092 83.208 186.575 83.6722C187.056 84.1365 187.441 84.6924 187.705 85.3075C188.508 87.2524 188.12 89.7297 186.695 91.7727C185.459 93.5444 183.714 94.7884 182.034 95.8981C181.835 96.0308 181.59 96.0787 181.355 96.0312C181.119 95.9837 180.913 95.8447 180.779 95.6447C180.647 95.4448 180.599 95.2003 180.647 94.965C180.695 94.7298 180.834 94.523 181.033 94.3903C182.568 93.371 184.156 92.2492 185.211 90.7369C186.055 89.5307 186.719 87.6475 186.033 85.9965C185.861 85.6091 185.616 85.2592 185.31 84.9669C185.004 84.6745 184.643 84.4455 184.248 84.2927C183.962 84.17 183.654 84.1066 183.344 84.1066C183.032 84.1066 182.724 84.17 182.438 84.2927C181.85 84.5731 181.361 85.1311 180.829 85.7764L180.212 86.5302C178.659 88.427 177.056 90.3871 175.06 91.9432C173.552 93.1162 171.868 94.0208 170.235 94.8953C168.426 95.8664 166.717 96.7846 165.235 98.0376C162.499 100.363 160.774 103.662 160.426 107.235C160.254 109.044 160.441 110.942 160.623 112.782C160.885 115.446 161.156 118.201 160.404 120.885C160.347 121.072 160.233 121.238 160.075 121.354C159.918 121.471 159.726 121.533 159.531 121.532Z" fill="#3A3A3A"/>
<path d="M182.314 125.533C182.074 125.533 181.844 125.438 181.673 125.269C181.504 125.099 181.408 124.869 181.408 124.629C181.408 122.789 181.71 119.47 183.76 117.909C184.872 117.062 186.124 116.5 187.336 115.96C187.788 115.76 188.24 115.553 188.678 115.34C190.723 114.339 192.648 112.967 194.508 111.643C196.619 110.135 198.817 108.576 201.267 107.482C202.153 107.086 203.076 106.754 203.955 106.427C205.595 105.823 207.143 105.269 208.493 104.347C210.348 103.082 211.861 100.626 211.017 98.5654C210.113 96.3581 206.984 95.7747 204.629 96.6053C202.647 97.311 201.01 98.6936 199.267 100.158C198.769 100.576 198.255 101.009 197.736 101.421C194.579 103.928 191.643 104.937 189.009 104.418C188.891 104.398 188.777 104.354 188.676 104.289C188.574 104.224 188.486 104.139 188.418 104.041C188.349 103.941 188.301 103.828 188.277 103.711C188.253 103.592 188.252 103.471 188.276 103.352C188.298 103.234 188.345 103.121 188.413 103.022C188.48 102.921 188.567 102.836 188.668 102.769C188.769 102.703 188.882 102.659 189 102.637C189.12 102.615 189.242 102.618 189.359 102.644C191.447 103.056 193.883 102.168 196.611 100.004C197.109 99.6089 197.614 99.1836 198.101 98.7735C199.887 97.2658 201.733 95.7158 204.021 94.9C207.148 93.7874 211.351 94.5985 212.691 97.8719C213.911 100.845 212.016 104.128 209.514 105.835C207.976 106.89 206.245 107.513 204.572 108.12C203.716 108.431 202.831 108.754 202.009 109.121C199.725 110.143 197.705 111.581 195.564 113.105C193.643 114.472 191.657 115.885 189.48 116.953C189.014 117.181 188.54 117.393 188.081 117.599C186.912 118.121 185.808 118.614 184.864 119.335C183.837 120.119 183.224 122.092 183.224 124.613C183.226 124.732 183.205 124.852 183.159 124.965C183.115 125.077 183.048 125.179 182.962 125.265C182.878 125.351 182.777 125.419 182.666 125.465C182.553 125.512 182.435 125.534 182.314 125.533Z" fill="#3A3A3A"/>
<path d="M185.709 100.017C185.487 100.016 185.272 99.9336 185.107 99.7844C184.941 99.6351 184.838 99.4301 184.814 99.2087C184.79 98.9873 184.849 98.7651 184.979 98.5844C185.109 98.4037 185.302 98.2774 185.52 98.2296C188.797 97.5254 191.656 96.773 193.449 94.6923C194.302 93.7017 194.855 92.4593 195.44 91.1445C196.204 89.4302 196.992 87.6585 198.52 86.383C201.132 84.1997 205.455 84.4726 207.777 86.968C210.099 89.4633 210.051 93.7968 207.682 96.2438C207.599 96.3292 207.501 96.3974 207.392 96.4446C207.282 96.4918 207.166 96.5171 207.046 96.519C206.927 96.5209 206.81 96.4993 206.699 96.4556C206.589 96.4119 206.488 96.3469 206.402 96.2642C206.318 96.1815 206.249 96.0829 206.201 95.9738C206.155 95.8648 206.129 95.7475 206.128 95.6287C206.126 95.5099 206.147 95.392 206.191 95.2815C206.234 95.171 206.3 95.0702 206.382 94.9849C208.114 93.1951 208.148 90.0243 206.451 88.1998C204.756 86.3754 201.59 86.1749 199.679 87.7716C198.473 88.7788 197.804 90.2851 197.093 91.8803C196.48 93.257 195.847 94.6802 194.819 95.8729C192.484 98.5869 188.679 99.4012 185.9 99.9985C185.837 100.011 185.773 100.017 185.709 100.017Z" fill="#3A3A3A"/>
<path d="M175.184 97.0644C174.954 97.0669 174.732 96.9819 174.563 96.8266C174.393 96.6714 174.289 96.4575 174.271 96.2285C174.255 95.9993 174.324 95.7722 174.468 95.5931C174.612 95.414 174.819 95.2963 175.046 95.264L180.624 94.4046C183.534 93.9522 186.506 93.3492 188.049 91.2699C188.744 90.3366 189.104 89.171 189.488 87.9377C189.563 87.695 189.638 87.4507 189.717 87.2094C190.587 84.5121 192.323 81.1362 195.648 80.3656C197.156 80.0189 198.796 80.3656 200.172 81.3291C201.547 82.2926 202.434 83.7175 202.63 85.2493C202.645 85.3673 202.636 85.487 202.604 85.6015C202.573 85.716 202.518 85.8232 202.445 85.917C202.372 86.0107 202.282 86.0891 202.179 86.1478C202.075 86.2064 201.962 86.2441 201.843 86.2588C201.725 86.2734 201.606 86.2647 201.491 86.2332C201.377 86.2016 201.27 86.1477 201.176 86.0747C201.082 86.0017 201.003 85.9109 200.945 85.8077C200.886 85.7042 200.848 85.5905 200.834 85.4726C200.709 84.4517 200.089 83.4838 199.135 82.8174C198.18 82.1508 197.06 81.9021 196.059 82.1343C193.558 82.7118 192.167 85.5178 191.44 87.7689C191.363 88.0041 191.29 88.2407 191.217 88.4775C190.808 89.8029 190.383 91.1734 189.501 92.3555C187.541 94.979 184.18 95.6923 180.907 96.1973L175.328 97.0568C175.28 97.0632 175.232 97.0657 175.184 97.0644Z" fill="#3A3A3A"/>
<path d="M170.082 113.526C169.904 113.526 169.731 113.474 169.582 113.376C169.435 113.277 169.318 113.138 169.249 112.974C169.179 112.811 169.159 112.631 169.192 112.457C169.224 112.281 169.307 112.119 169.431 111.992C171.104 110.289 173.149 108.996 175.405 108.215C177.662 107.435 180.068 107.189 182.437 107.494C182.668 107.535 182.874 107.662 183.013 107.852C183.15 108.041 183.21 108.277 183.178 108.51C183.147 108.742 183.025 108.953 182.841 109.098C182.657 109.242 182.423 109.31 182.19 109.286C180.104 109.016 177.983 109.233 175.995 109.921C174.007 110.608 172.205 111.747 170.73 113.248C170.647 113.335 170.546 113.405 170.435 113.453C170.323 113.501 170.203 113.525 170.082 113.526Z" fill="#3A3A3A"/>
<path d="M205.585 107.366C205.401 107.366 205.222 107.311 205.07 107.206C204.919 107.101 204.804 106.952 204.739 106.781C203.905 104.576 205.088 101.855 207.267 100.959C207.489 100.868 207.738 100.868 207.96 100.96C208.181 101.053 208.358 101.229 208.449 101.451C208.54 101.673 208.54 101.922 208.448 102.144C208.356 102.365 208.179 102.541 207.957 102.633C206.665 103.163 205.938 104.835 206.431 106.142C206.473 106.253 206.493 106.37 206.489 106.49C206.486 106.609 206.458 106.725 206.41 106.834C206.361 106.942 206.291 107.039 206.204 107.122C206.118 107.202 206.016 107.267 205.905 107.308C205.803 107.346 205.694 107.366 205.585 107.366Z" fill="#3A3A3A"/>
<path d="M148.751 159.4C148.526 159.401 148.309 159.319 148.141 159.169C147.974 159.019 147.869 158.812 147.845 158.588C147.321 153.414 148.148 148.193 150.247 143.434C150.299 143.314 150.353 143.193 150.407 143.073C150.815 142.168 151.199 141.308 151.222 140.449C151.215 139.994 151.165 139.539 151.071 139.092C150.946 138.357 150.816 137.6 150.959 136.78C151.087 136.057 151.402 135.424 151.713 134.807C152.089 134.053 152.414 133.399 152.246 132.847C152.106 132.377 151.623 132.013 151.065 131.59C150.532 131.184 149.929 130.726 149.518 130.066C148.412 128.289 149.036 126.069 151.366 123.466C151.527 123.293 151.749 123.191 151.986 123.181C152.222 123.17 152.453 123.252 152.628 123.41C152.805 123.568 152.912 123.788 152.927 124.024C152.944 124.26 152.867 124.492 152.713 124.672C151.523 126.001 150.271 127.85 151.055 129.111C151.289 129.486 151.712 129.807 152.16 130.148C152.867 130.684 153.667 131.294 153.979 132.327C154.35 133.568 153.811 134.655 153.334 135.614C153.075 136.136 152.829 136.63 152.748 137.096C152.659 137.607 152.757 138.182 152.861 138.792C152.974 139.355 153.032 139.927 153.032 140.5C152.999 141.723 152.523 142.788 152.06 143.818C152.007 143.936 151.955 144.053 151.91 144.17C149.935 148.64 149.156 153.547 149.647 158.408C149.66 158.526 149.648 158.646 149.614 158.76C149.58 158.874 149.525 158.98 149.449 159.072C149.374 159.164 149.282 159.24 149.177 159.297C149.073 159.353 148.958 159.389 148.839 159.4H148.751Z" fill="#3A3A3A"/>
<path d="M187.716 185.481C187.634 185.481 187.553 185.47 187.475 185.448C187.36 185.417 187.252 185.362 187.159 185.29C187.064 185.217 186.986 185.126 186.928 185.023C186.869 184.919 186.831 184.805 186.817 184.688C186.802 184.569 186.81 184.451 186.842 184.336C190.689 170.356 191.18 155.667 188.278 141.462C187.937 139.803 187.423 137.299 188.86 135.491C189.312 134.915 189.915 134.483 190.482 134.067C191.386 133.41 191.929 132.98 191.909 132.408C191.894 132.007 191.568 131.598 191.191 131.125C190.794 130.627 190.346 130.069 190.146 129.339C189.713 127.773 190.59 126.449 191.362 125.28C191.53 125.028 191.688 124.789 191.829 124.555C192.107 124.092 191.507 123.231 191.184 122.77C190.934 122.414 190.77 122.178 190.755 121.842C190.745 121.625 190.814 121.411 190.951 121.24C191.086 121.069 191.279 120.953 191.492 120.914C191.707 120.874 191.929 120.913 192.116 121.023C192.304 121.132 192.447 121.308 192.516 121.514C192.552 121.569 192.617 121.665 192.667 121.733C193.185 122.475 194.264 124.016 193.38 125.487C193.218 125.755 193.043 126.023 192.872 126.28C192.256 127.207 191.677 128.089 191.89 128.857C191.991 129.225 192.29 129.6 192.606 129.999C193.11 130.63 193.68 131.355 193.716 132.341C193.774 133.905 192.54 134.805 191.548 135.529C191.05 135.893 190.582 136.235 190.275 136.619C189.434 137.674 189.689 139.342 190.05 141.1C193.012 155.587 192.511 170.569 188.587 184.826C188.533 185.015 188.418 185.182 188.261 185.299C188.103 185.418 187.913 185.482 187.716 185.481Z" fill="#3A3A3A"/>
<path d="M170.392 133.444C167.225 133.444 163.933 133.158 160.729 132.372C160.502 132.31 160.307 132.161 160.188 131.957C160.068 131.754 160.033 131.512 160.09 131.283C160.146 131.053 160.289 130.856 160.489 130.731C160.69 130.606 160.931 130.565 161.161 130.615C167.922 132.273 175.167 131.584 180.721 130.797C184.46 130.267 188.225 129.44 190.438 126.975C190.603 126.811 190.822 126.716 191.053 126.711C191.284 126.705 191.51 126.787 191.682 126.941C191.854 127.096 191.961 127.311 191.98 127.541C191.999 127.772 191.928 128 191.783 128.181C189.182 131.074 185.053 132.007 180.976 132.585C177.854 133.032 174.207 133.444 170.392 133.444Z" fill="#3A3A3A"/>
<path d="M175.712 138.531C175.057 138.531 174.401 138.488 173.751 138.399C173.633 138.387 173.516 138.349 173.412 138.291C173.306 138.232 173.213 138.152 173.14 138.057C173.066 137.963 173.011 137.854 172.98 137.738C172.948 137.622 172.941 137.499 172.956 137.38C172.972 137.261 173.013 137.146 173.073 137.042C173.134 136.939 173.216 136.848 173.312 136.776C173.409 136.704 173.519 136.652 173.635 136.623C173.752 136.594 173.874 136.589 173.994 136.608C175.717 136.838 177.47 136.721 179.148 136.267C179.263 136.235 179.383 136.226 179.5 136.242C179.619 136.257 179.732 136.295 179.836 136.354C179.938 136.412 180.029 136.492 180.102 136.585C180.174 136.68 180.229 136.787 180.259 136.901C180.29 137.016 180.299 137.136 180.284 137.253C180.269 137.372 180.231 137.485 180.172 137.589C180.114 137.691 180.034 137.782 179.941 137.855C179.847 137.927 179.74 137.981 179.625 138.012C178.348 138.358 177.033 138.532 175.712 138.531Z" fill="#3A3A3A"/>
<path d="M146.271 191.296C140.572 191.296 135.201 189.82 131.148 187.14C126.981 184.384 124.686 180.681 124.686 176.714C124.686 172.748 126.981 169.044 131.155 166.288C135.208 163.609 140.579 162.133 146.279 162.133C151.978 162.133 157.35 163.609 161.401 166.288C165.571 169.044 167.865 172.748 167.865 176.714C167.865 180.681 165.571 184.384 161.401 187.14C157.342 189.82 151.972 191.296 146.271 191.296ZM146.271 163.942C135.367 163.942 126.495 169.671 126.495 176.714C126.495 183.757 135.367 189.486 146.271 189.486C157.175 189.486 166.049 183.757 166.049 176.714C166.049 169.671 157.177 163.942 146.271 163.942Z" fill="#CEB7A1"/>
<path d="M155.416 176.239C154.467 176.239 153.804 175.749 153.804 175.045C153.804 174.341 154.467 173.852 155.416 173.852C156.367 173.852 157.03 174.343 157.03 175.045C157.03 175.748 156.367 176.239 155.416 176.239ZM155.421 174.535C155.301 174.4 155.138 174.311 154.959 174.286C154.781 174.259 154.599 174.296 154.445 174.389C154.292 174.483 154.176 174.628 154.118 174.799C154.059 174.969 154.063 175.155 154.127 175.323C154.191 175.49 154.313 175.632 154.469 175.719C154.627 175.807 154.81 175.838 154.987 175.805C155.164 175.772 155.324 175.679 155.439 175.54C155.554 175.401 155.617 175.227 155.617 175.047C155.618 174.857 155.546 174.672 155.416 174.532L155.421 174.535Z" fill="#CEB7A1"/>
<path d="M157.178 185.528C156.229 185.528 155.566 185.037 155.566 184.335C155.566 183.632 156.229 183.141 157.178 183.141C158.126 183.141 158.791 183.632 158.791 184.335C158.791 185.037 158.127 185.528 157.178 185.528ZM157.178 183.82C157.058 183.687 156.895 183.6 156.718 183.575C156.54 183.55 156.359 183.586 156.207 183.68C156.054 183.774 155.939 183.918 155.881 184.088C155.823 184.258 155.827 184.442 155.891 184.609C155.955 184.777 156.077 184.916 156.233 185.004C156.39 185.091 156.571 185.122 156.747 185.089C156.924 185.056 157.083 184.963 157.198 184.825C157.313 184.687 157.376 184.514 157.376 184.335C157.374 184.146 157.304 183.963 157.178 183.822V183.82Z" fill="#CEB7A1"/>
<path d="M70.6172 166.659C70.4733 166.659 70.3314 166.625 70.2035 166.559C70.0755 166.494 69.9651 166.398 69.8814 166.28L68.0721 163.754C67.9321 163.558 67.8754 163.315 67.9144 163.079C67.9534 162.842 68.085 162.63 68.2802 162.49C68.4752 162.35 68.718 162.294 68.955 162.332C69.1919 162.371 69.4037 162.504 69.5437 162.698L71.353 165.226C71.4497 165.361 71.5073 165.52 71.5194 165.685C71.5314 165.851 71.4977 166.018 71.4216 166.165C71.3456 166.313 71.2303 166.437 71.0884 166.524C70.9464 166.61 70.7834 166.656 70.6172 166.656V166.659Z" fill="white"/>
<path d="M74.8511 172.783C74.7069 172.784 74.5647 172.75 74.4366 172.683C74.3083 172.618 74.1976 172.523 74.1137 172.406L72.3044 169.878C72.1645 169.683 72.1078 169.441 72.1468 169.204C72.1858 168.966 72.3174 168.754 72.5125 168.615C72.7077 168.475 72.9503 168.418 73.1873 168.457C73.4243 168.497 73.6361 168.628 73.776 168.822L75.5853 171.35C75.682 171.485 75.7395 171.644 75.7517 171.81C75.7639 171.975 75.7301 172.142 75.6544 172.289C75.5785 172.437 75.4635 172.561 75.3217 172.648C75.18 172.734 75.0171 172.781 74.8511 172.781V172.783Z" fill="white"/>
<path d="M79.2314 178.441C79.0876 178.441 78.9457 178.407 78.8178 178.341C78.6897 178.274 78.5794 178.179 78.4957 178.062L76.6863 175.535C76.5463 175.34 76.4896 175.097 76.5286 174.86C76.5677 174.624 76.6992 174.412 76.8944 174.271C77.0895 174.131 77.3323 174.075 77.5693 174.114C77.8062 174.153 78.0179 174.284 78.1579 174.48L79.9673 177.006C80.064 177.141 80.1216 177.302 80.1337 177.467C80.1458 177.633 80.112 177.799 80.036 177.947C79.9598 178.095 79.8445 178.218 79.7026 178.306C79.5607 178.391 79.3977 178.438 79.2314 178.438V178.441Z" fill="white"/>
<path d="M66.8339 161.58C66.6901 161.58 66.5482 161.546 66.4203 161.479C66.2923 161.413 66.1819 161.318 66.0982 161.201L64.2889 158.676C64.2195 158.578 64.1699 158.47 64.1429 158.354C64.1159 158.238 64.1118 158.118 64.1311 158C64.1505 157.883 64.1928 157.77 64.2555 157.669C64.3183 157.568 64.4003 157.481 64.4969 157.412C64.5935 157.342 64.7029 157.293 64.8187 157.267C64.9344 157.239 65.0544 157.235 65.1718 157.254C65.2891 157.274 65.4015 157.316 65.5025 157.379C65.6035 157.441 65.6911 157.523 65.7604 157.62L67.5698 160.147C67.6665 160.282 67.7241 160.442 67.7362 160.607C67.7482 160.773 67.7145 160.94 67.6384 161.087C67.5623 161.235 67.4471 161.359 67.3051 161.446C67.1632 161.532 67.0002 161.578 66.8339 161.578V161.58Z" fill="white"/>
<path d="M24.4354 142.143C13.881 142.143 5.30469 134.845 5.30469 125.876C5.30469 116.906 13.887 109.609 24.4354 109.609C34.9839 109.609 43.5676 116.907 43.5676 125.876C43.5676 134.844 34.9854 142.143 24.4354 142.143ZM24.4354 111.419C14.8836 111.419 7.11403 117.902 7.11403 125.876C7.11403 133.849 14.8836 140.334 24.4354 140.334C33.9873 140.334 41.7582 133.851 41.7582 125.876C41.7582 117.901 33.9873 111.419 24.4354 111.419Z" fill="#CEB7A1"/>
<path d="M15.9811 125.484C14.0843 125.484 12.5977 124.304 12.5977 122.796C12.5977 121.287 14.0843 120.109 15.9811 120.109C17.8778 120.109 19.3661 121.29 19.3661 122.796C19.3661 124.303 17.8793 125.484 15.9811 125.484ZM15.9811 121.919C15.0764 121.919 14.407 122.382 14.407 122.796C14.407 123.209 15.081 123.675 15.9811 123.675C16.8812 123.675 17.5567 123.21 17.5567 122.796C17.5567 122.381 16.8828 121.919 15.9811 121.919Z" fill="#CEB7A1"/>
<path d="M32.8893 130.428C30.9926 130.428 29.5059 129.248 29.5059 127.742C29.5059 126.235 30.9926 125.055 32.8893 125.055C34.7862 125.055 36.2743 126.233 36.2743 127.742C36.2743 129.249 34.7877 130.428 32.8893 130.428ZM32.8893 126.864C31.9846 126.864 31.3152 127.326 31.3152 127.742C31.3152 128.156 31.9892 128.619 32.8893 128.619C33.7894 128.619 34.4649 128.156 34.4649 127.742C34.4649 127.326 33.791 126.864 32.8893 126.864Z" fill="#CEB7A1"/>
<path d="M94.5478 94.4544L91.0018 90.9083C90.072 89.9787 88.5649 89.9784 87.6354 90.9078C86.706 91.8373 86.7061 93.3445 87.6359 94.2743L91.182 97.8202C92.1117 98.75 93.6189 98.7503 94.5484 97.8208C95.4779 96.8913 95.4776 95.3841 94.5478 94.4544Z" fill="#CEB7A1"/>
<path d="M92.8586 99.4252C92.4274 99.426 92.0003 99.3414 91.6018 99.1766C91.2034 99.0119 90.8415 98.7699 90.5367 98.4649L86.9889 94.9186C86.6742 94.6158 86.4229 94.2531 86.25 93.8521C86.0771 93.451 85.9858 93.0194 85.9816 92.5827C85.9773 92.146 86.0603 91.7127 86.2255 91.3084C86.3907 90.9042 86.6349 90.5367 86.9437 90.2279C87.2526 89.9191 87.6199 89.6749 88.0242 89.5097C88.4286 89.3446 88.8618 89.2616 89.2985 89.2658C89.7353 89.2699 90.1668 89.3612 90.5678 89.5342C90.969 89.7072 91.3315 89.9583 91.6344 90.2731L95.1821 93.8194C95.6407 94.279 95.9528 94.8643 96.0791 95.5011C96.2052 96.138 96.1399 96.798 95.8913 97.3978C95.6427 97.9976 95.222 98.5103 94.6822 98.8712C94.1425 99.2319 93.5079 99.4249 92.8586 99.4252ZM91.8153 97.1847C92.092 97.4631 92.468 97.6201 92.8604 97.6212C93.2529 97.6223 93.6297 97.4675 93.9081 97.1908C94.1864 96.914 94.3433 96.5381 94.3445 96.1456C94.3456 95.7531 94.1908 95.3763 93.9141 95.098L90.3603 91.5442C90.2233 91.4072 90.0606 91.2986 89.8816 91.2246C89.7026 91.1505 89.5108 91.1125 89.3171 91.1125C89.1234 91.1126 88.9316 91.1507 88.7527 91.225C88.5738 91.2991 88.4112 91.4079 88.2743 91.5449C88.1373 91.6819 88.0287 91.8446 87.9547 92.0236C87.8806 92.2025 87.8425 92.3943 87.8426 92.5881C87.8427 92.7818 87.8808 92.9736 87.9551 93.1525C88.0293 93.3314 88.1379 93.4941 88.275 93.6309L91.8153 97.1847Z" fill="#CEB7A1"/>
<path d="M22.7466 62.374C22.4245 62.374 22.1096 62.2785 21.8418 62.0995C21.574 61.9204 21.3652 61.666 21.242 61.3684C21.1188 61.0708 21.0866 60.7433 21.1496 60.4274C21.2125 60.1115 21.3678 59.8213 21.5957 59.5937C21.8236 59.3659 22.1139 59.211 22.4298 59.1483C22.7458 59.0856 23.0732 59.1182 23.3708 59.2416C23.6683 59.3651 23.9226 59.574 24.1012 59.842C24.28 60.1099 24.3752 60.425 24.375 60.7471C24.3746 61.1788 24.2029 61.5925 23.8974 61.8976C23.5921 62.2026 23.1781 62.374 22.7466 62.374Z" fill="white"/>
<path d="M28.6997 51.4098H28.6892C28.5702 51.4084 28.4527 51.3837 28.3434 51.3368C28.234 51.29 28.135 51.222 28.0519 51.1368C27.969 51.0517 27.9035 50.951 27.8594 50.8406C27.8153 50.7301 27.7935 50.6119 27.795 50.4931L27.9609 37.0738C27.9637 36.8339 28.0617 36.6049 28.2334 36.4372C28.405 36.2695 28.6362 36.177 28.8761 36.1797C29.1161 36.1825 29.345 36.2805 29.5127 36.4522C29.6803 36.6238 29.773 36.855 29.7702 37.095L29.6043 50.5142C29.6019 50.7526 29.5056 50.9804 29.3362 51.1481C29.1668 51.3157 28.9381 51.4098 28.6997 51.4098Z" fill="white"/>
<path d="M28.6997 59.1473C28.3776 59.1473 28.0627 59.0519 27.7949 58.8728C27.5271 58.6938 27.3184 58.4394 27.1951 58.1418C27.0719 57.8442 27.0397 57.5167 27.1027 57.2008C27.1656 56.8848 27.3209 56.5947 27.5488 56.367C27.7767 56.1394 28.067 55.9843 28.3829 55.9217C28.6989 55.8591 29.0263 55.8915 29.3239 56.015C29.6214 56.1385 29.8757 56.3473 30.0544 56.6154C30.2331 56.8833 30.3283 57.1983 30.3281 57.5204C30.3277 57.9521 30.156 58.3659 29.8506 58.6709C29.5453 58.976 29.1313 59.1473 28.6997 59.1473Z" fill="white"/>
<path d="M34.6475 48.8598H34.6353C34.5165 48.8584 34.3992 48.8337 34.2899 48.7869C34.1807 48.7401 34.0818 48.6723 33.9987 48.5874C33.9156 48.5024 33.8502 48.4019 33.806 48.2915C33.7619 48.1813 33.7399 48.0634 33.7413 47.9446L33.9071 34.5254C33.9102 34.2875 34.0069 34.0605 34.1762 33.8934C34.3456 33.7264 34.5738 33.6327 34.8117 33.6328H34.8223C35.062 33.6363 35.2905 33.7348 35.4576 33.9068C35.6246 34.0786 35.7167 34.3098 35.7134 34.5495L35.5476 47.9687C35.5441 48.2055 35.4477 48.4314 35.2794 48.5981C35.1111 48.7646 34.8842 48.8587 34.6475 48.8598Z" fill="white"/>
<path d="M34.646 56.6006C34.3239 56.6006 34.0091 56.505 33.7413 56.3261C33.4735 56.1472 33.2648 55.8929 33.1416 55.5953C33.0183 55.2978 32.986 54.9703 33.0489 54.6545C33.1118 54.3386 33.2668 54.0484 33.4946 53.8207C33.7222 53.593 34.0124 53.4378 34.3283 53.3751C34.6442 53.3122 34.9716 53.3444 35.2692 53.4678C35.5667 53.591 35.8211 53.7997 36 54.0675C36.1789 54.3352 36.2744 54.6501 36.2744 54.9722C36.2744 55.1859 36.2323 55.3977 36.1504 55.5953C36.0686 55.7929 35.9486 55.9724 35.7975 56.1236C35.6462 56.2748 35.4667 56.3948 35.2692 56.4766C35.0716 56.5584 34.8599 56.6006 34.646 56.6006Z" fill="white"/>
<path d="M86.9102 17.8397C86.1819 17.8397 85.5742 17.5894 85.1867 17.0767C84.9033 16.6998 84.5279 15.8705 85.1867 14.5633C85.6563 13.7075 86.3092 12.9661 87.0986 12.3921C89.113 10.8752 91.2284 10.6445 92.1302 11.8418C93.0318 13.039 92.2251 15.008 90.2122 16.5265C89.0678 17.3934 87.8827 17.8397 86.9102 17.8397ZM86.6357 15.9852C86.8499 16.1088 87.8812 16.0213 89.1312 15.0805C90.3811 14.1396 90.749 13.1731 90.6901 12.9319C90.4761 12.8098 89.4433 12.8972 88.1948 13.8366C86.9463 14.7758 86.5755 15.7454 86.6357 15.9852Z" fill="#CEB7A1"/>
<path d="M98.4612 14.5445C97.5566 14.5445 96.9082 14.0319 96.9082 13.3262C96.9082 12.6205 97.5611 12.1094 98.4612 12.1094C99.3614 12.1094 100.014 12.6205 100.014 13.3262C100.014 14.0319 99.3614 14.5445 98.4612 14.5445Z" fill="#CEB7A1"/>
<path d="M102.733 22.7787C101.828 22.7787 101.18 22.2661 101.18 21.5619C101.18 20.8579 101.833 20.3438 102.733 20.3438C103.633 20.3438 104.286 20.8564 104.286 21.5619C104.286 22.2676 103.633 22.7787 102.733 22.7787Z" fill="#CEB7A1"/>
<path d="M187.085 21.3779C185.591 21.3779 184.421 19.7977 184.421 17.7788C184.421 15.7599 185.591 14.1797 187.085 14.1797C188.58 14.1797 189.748 15.7614 189.748 17.7788C189.748 19.7962 188.579 21.3779 187.085 21.3779ZM187.085 15.989C186.745 15.989 186.23 16.7038 186.23 17.7788C186.23 18.8538 186.745 19.5686 187.085 19.5686C187.426 19.5686 187.939 18.8553 187.939 17.7788C187.939 16.7023 187.425 15.989 187.085 15.989Z" fill="white"/>
<path d="M139.901 63.9989C139.735 63.9988 139.573 63.9528 139.431 63.8663C139.29 63.7798 139.174 63.6559 139.098 63.5083C139.022 63.3607 138.988 63.1951 139.001 63.0294C139.012 62.8639 139.069 62.7048 139.166 62.5696C143.002 57.1763 144.759 50.9597 143.754 46.361C143.273 44.1626 142.169 42.5116 140.561 41.5859C139.287 40.8405 137.848 40.4208 136.373 40.364C134.897 40.3072 133.43 40.615 132.102 41.2601C131.998 41.3178 131.883 41.3543 131.766 41.3678C131.647 41.3812 131.527 41.3713 131.413 41.3385C131.182 41.2724 130.988 41.1173 130.872 40.9073C130.754 40.6974 130.727 40.4498 130.794 40.2191C130.859 39.9884 131.014 39.7933 131.224 39.677C131.425 39.5654 136.189 36.9841 141.465 40.0177C143.526 41.2043 144.932 43.264 145.521 45.975C146.633 51.0623 144.767 57.8231 140.641 63.6159C140.556 63.7342 140.446 63.8308 140.317 63.8975C140.189 63.9642 140.046 63.9989 139.901 63.9989Z" fill="#CEB7A1"/>
<path d="M171.829 126.759C170.17 126.759 168.408 126.698 166.551 126.579C164.202 126.427 156.253 125.648 152.528 121.889C152.361 121.718 152.269 121.488 152.271 121.249C152.273 121.011 152.369 120.782 152.538 120.614C152.707 120.446 152.937 120.352 153.176 120.352C153.414 120.352 153.644 120.446 153.813 120.615C157.096 123.92 164.486 124.633 166.673 124.773C175.013 125.307 181.071 124.643 186.927 122.557C187.039 122.514 187.159 122.494 187.281 122.498C187.401 122.502 187.519 122.531 187.629 122.581C187.739 122.632 187.837 122.704 187.918 122.793C187.999 122.882 188.062 122.987 188.103 123.1C188.143 123.214 188.159 123.335 188.152 123.455C188.146 123.576 188.114 123.694 188.061 123.802C188.008 123.91 187.933 124.007 187.842 124.085C187.75 124.165 187.646 124.225 187.531 124.262C182.74 125.964 177.855 126.759 171.829 126.759Z" fill="#3A3A3A"/>
<path d="M159.737 118.398C159.737 118.398 152.757 119.906 153.157 121.249C153.559 122.593 159.384 124.626 159.384 124.626L159.737 118.398Z" fill="#3A3A3A"/>
<path d="M159.384 125.531C159.282 125.532 159.18 125.514 159.084 125.48C159.023 125.459 157.575 124.951 156.048 124.267C153.061 122.926 152.471 122.12 152.29 121.512C152.238 121.331 152.224 121.142 152.25 120.955C152.276 120.769 152.341 120.59 152.44 120.431C152.742 119.928 153.464 119.237 156.49 118.32C158.046 117.846 159.488 117.532 159.547 117.521C159.684 117.492 159.825 117.493 159.96 117.527C160.095 117.561 160.22 117.627 160.326 117.716C160.432 117.807 160.516 117.921 160.571 118.048C160.625 118.177 160.649 118.316 160.642 118.455L160.291 124.682C160.278 124.913 160.177 125.13 160.008 125.29C159.84 125.447 159.618 125.536 159.387 125.536L159.384 125.531ZM154.202 121.172C154.806 121.701 156.57 122.585 158.551 123.354L158.766 119.556C156.714 120.074 154.862 120.728 154.202 121.172Z" fill="#3A3A3A"/>
<path d="M183.162 120.109C183.162 120.109 188.185 121.063 188.459 122.371C188.734 123.68 182.313 124.633 182.313 124.633L183.162 120.109Z" fill="#3A3A3A"/>
<path d="M182.314 125.528C182.181 125.528 182.05 125.497 181.929 125.442C181.809 125.385 181.701 125.303 181.617 125.201C181.532 125.097 181.47 124.978 181.437 124.85C181.403 124.721 181.4 124.586 181.424 124.454L182.273 119.932C182.317 119.697 182.454 119.489 182.652 119.353C182.849 119.218 183.093 119.167 183.329 119.211C184.22 119.386 185.103 119.608 185.973 119.875C188.108 120.539 189.147 121.246 189.341 122.168C189.378 122.35 189.377 122.538 189.336 122.72C189.297 122.9 189.222 123.072 189.114 123.223C188.209 124.523 184.148 125.256 182.445 125.51C182.402 125.519 182.358 125.524 182.314 125.528ZM183.881 121.182L183.442 123.511C185.148 123.184 186.687 122.745 187.347 122.395C186.764 122.02 185.374 121.531 183.881 121.182Z" fill="#3A3A3A"/>
<path d="M111.075 53.1792C110.91 53.1791 110.747 53.1331 110.605 53.0465L108.963 52.0393C108.859 51.9789 108.768 51.8984 108.695 51.8022C108.622 51.7059 108.569 51.5962 108.54 51.4793C108.509 51.3625 108.504 51.2408 108.522 51.1216C108.54 51.0023 108.581 50.8879 108.644 50.785C108.706 50.682 108.79 50.5927 108.887 50.5222C108.985 50.4517 109.096 50.4015 109.214 50.3745C109.331 50.3475 109.452 50.3443 109.572 50.365C109.691 50.3859 109.803 50.4302 109.906 50.4953L111.555 51.501C111.724 51.6035 111.855 51.7587 111.927 51.9426C112 52.1265 112.011 52.3292 111.956 52.5195C111.903 52.7099 111.788 52.8774 111.63 52.9965C111.473 53.1157 111.281 53.1798 111.082 53.1792H111.075Z" fill="#3A3A3A"/>
<path d="M118.883 58.4073C118.686 58.4059 118.497 58.3409 118.34 58.2218C117.632 57.6851 116.89 57.1664 116.142 56.6959C115.945 56.5649 115.808 56.3622 115.759 56.1314C115.71 55.9006 115.753 55.6598 115.879 55.4603C116.005 55.2608 116.205 55.1185 116.435 55.0637C116.663 55.0091 116.906 55.046 117.108 55.167C117.903 55.6692 118.683 56.212 119.433 56.7804C119.584 56.8949 119.695 57.054 119.75 57.2351C119.807 57.4161 119.805 57.6102 119.744 57.7897C119.683 57.9694 119.567 58.1255 119.414 58.236C119.26 58.3464 119.075 58.4059 118.885 58.4058L118.883 58.4073Z" fill="#3A3A3A"/>
<g opacity="0.2">
<path d="M123.2 70.4619C123.768 69.7698 123.224 68.3818 121.982 67.3618C120.741 66.3417 119.274 66.0759 118.705 66.7681C118.136 67.4603 118.681 68.8483 119.922 69.8684C121.163 70.8883 122.63 71.1541 123.2 70.4619Z" fill="#CEB7A1"/>
<path d="M122.231 71.7532C121.34 71.7532 120.299 71.3492 119.349 70.5666C117.669 69.1871 117.087 67.3054 118.008 66.1941C118.923 65.0814 120.873 65.2819 122.558 66.663C124.244 68.0441 124.819 69.9228 123.899 71.0355C123.503 71.5165 122.912 71.7532 122.231 71.7532ZM119.405 67.3415C119.316 67.4516 119.448 68.3065 120.498 69.1689C121.547 70.0314 122.41 69.9951 122.501 69.8867C122.591 69.7781 122.458 68.9217 121.409 68.0592C120.36 67.1968 119.496 67.2314 119.405 67.3415Z" fill="#CEB7A1"/>
</g>
<path d="M107.824 56.7268C107.51 56.7255 107.206 56.6236 106.955 56.4364C106.704 56.249 106.52 55.986 106.43 55.6863C106.34 55.3864 106.348 55.0656 106.454 54.771C106.56 54.4764 106.758 54.2238 107.019 54.0501C107.279 53.8764 107.589 53.7911 107.902 53.8065C108.214 53.822 108.513 53.9374 108.755 54.1359C108.998 54.3344 109.17 54.6053 109.247 54.909C109.322 55.2125 109.3 55.5326 109.18 55.8221C109.07 56.0907 108.882 56.3202 108.639 56.4815C108.398 56.6426 108.114 56.7279 107.824 56.7268Z" fill="#3A3A3A"/>
<path d="M114.156 61.6438C113.843 61.6428 113.537 61.541 113.286 61.3535C113.036 61.1661 112.85 60.9029 112.761 60.6027C112.67 60.3025 112.679 59.9813 112.785 59.6863C112.891 59.3914 113.089 59.1382 113.35 58.9644C113.61 58.7905 113.921 58.705 114.234 58.7205C114.546 58.7361 114.846 58.8517 115.089 59.0506C115.331 59.2495 115.503 59.5208 115.58 59.8248C115.656 60.1289 115.633 60.4495 115.513 60.7391C115.402 61.0075 115.214 61.2368 114.973 61.3979C114.73 61.5591 114.446 61.6447 114.156 61.6438Z" fill="#3A3A3A"/>
<path d="M91.179 96.7557C90.9852 96.7555 90.7964 96.6932 90.6408 96.5778C89.8737 96.0101 89.1578 95.3764 88.5012 94.684C88.3361 94.5098 88.2468 94.2771 88.2533 94.0372C88.2596 93.7973 88.361 93.5698 88.5352 93.4047C88.7093 93.2395 88.9419 93.1503 89.1818 93.1566C89.4218 93.163 89.6493 93.2644 89.8145 93.4385C90.3983 94.0549 91.0351 94.6191 91.7173 95.1242C91.8702 95.2375 91.9834 95.3962 92.0409 95.5775C92.0985 95.7588 92.0973 95.9538 92.0377 96.1345C91.978 96.3151 91.863 96.4725 91.7088 96.584C91.5546 96.6954 91.3693 96.7555 91.179 96.7557Z" fill="white"/>
<path d="M134.917 76.0476C139.024 76.0476 142.354 72.7176 142.354 68.6098C142.354 64.5019 139.024 61.1719 134.917 61.1719C130.808 61.1719 127.479 64.5019 127.479 68.6098C127.479 72.7176 130.808 76.0476 134.917 76.0476Z" fill="#CEB7A1"/>
<path d="M134.917 76.9507C133.266 76.9507 131.653 76.4614 130.282 75.5448C128.909 74.628 127.84 73.3251 127.208 71.8007C126.577 70.2763 126.412 68.5989 126.734 66.9806C127.056 65.3623 127.85 63.8758 129.016 62.709C130.183 61.5424 131.67 60.7478 133.288 60.426C134.907 60.104 136.585 60.2693 138.109 60.9007C139.633 61.532 140.936 62.6013 141.852 63.9733C142.769 65.3451 143.259 66.9582 143.259 68.6082C143.256 70.82 142.376 72.9406 140.812 74.5046C139.249 76.0686 137.127 76.9483 134.917 76.9507ZM134.917 62.0749C133.624 62.0749 132.361 62.4582 131.287 63.176C130.212 63.8939 129.375 64.9142 128.88 66.108C128.385 67.3018 128.256 68.6154 128.509 69.8826C128.76 71.1501 129.383 72.3141 130.297 73.2279C131.21 74.1415 132.374 74.7637 133.641 75.0159C134.909 75.2679 136.222 75.1385 137.417 74.644C138.61 74.1496 139.63 73.3122 140.348 72.2378C141.066 71.1635 141.449 69.9003 141.449 68.6082C141.448 66.876 140.759 65.2151 139.534 63.9902C138.309 62.7654 136.648 62.0766 134.917 62.0749Z" fill="#CEB7A1"/>
<path d="M132.829 75.3263C132.709 75.326 132.591 75.3024 132.481 75.2569C131.98 75.0458 131.531 74.7278 131.166 74.3251C131.078 74.2386 131.007 74.1349 130.961 74.0203C130.914 73.9057 130.891 73.7827 130.894 73.659C130.896 73.5352 130.924 73.4134 130.976 73.3009C131.028 73.1884 131.102 73.0876 131.194 73.0049C131.286 72.9222 131.394 72.8593 131.511 72.8201C131.629 72.7809 131.754 72.7662 131.876 72.7768C132 72.7875 132.12 72.8234 132.228 72.8822C132.337 72.941 132.433 73.0216 132.51 73.1189C132.696 73.3239 132.924 73.4855 133.179 73.5923C133.372 73.6727 133.531 73.8177 133.63 74.0025C133.728 74.1874 133.76 74.4006 133.718 74.6059C133.677 74.8112 133.565 74.9958 133.404 75.1283C133.242 75.2607 133.039 75.3328 132.829 75.3323V75.3263Z" fill="white"/>
<path d="M129.489 72.3981C129.311 72.3982 129.137 72.346 128.988 72.2479C128.84 72.1496 128.724 72.01 128.654 71.8462C126.878 67.6501 129.471 63.6559 129.584 63.4886C129.72 63.2977 129.925 63.1672 130.156 63.1245C130.385 63.0818 130.624 63.1303 130.82 63.2597C131.014 63.3891 131.152 63.5894 131.204 63.8183C131.254 64.0472 131.214 64.2869 131.091 64.4867C131.056 64.5395 128.931 67.8611 130.319 71.1405C130.365 71.25 130.39 71.3674 130.392 71.4864C130.392 71.6052 130.37 71.7231 130.325 71.8332C130.281 71.9434 130.215 72.0438 130.132 72.1285C130.048 72.2133 129.949 72.2808 129.84 72.3273C129.729 72.3737 129.609 72.3979 129.489 72.3981Z" fill="white"/>
</g>
<defs>
<clipPath id="clip0_1150_3144">
<rect width="213.636" height="200" fill="white"/>
</clipPath>
</defs>
</svg>
