<svg width="301" height="251" viewBox="0 0 301 251" fill="none" xmlns="http://www.w3.org/2000/svg">
<path fill-rule="evenodd" clip-rule="evenodd" d="M157.313 12.1172L14.2344 104.023L33.7286 238.93H258.72L286.767 122.94L157.313 12.1172Z" fill="#FEF7F7"/>
<path fill-rule="evenodd" clip-rule="evenodd" d="M114.639 109.002C114.639 107.973 114.241 107.001 113.517 106.271C112.791 105.551 111.809 105.148 110.787 105.148H43.6516C42.629 105.147 41.6476 105.551 40.9216 106.271C40.197 107.001 39.79 107.973 39.79 109.002V151.394C39.79 152.415 40.197 153.397 40.9216 154.116C41.2794 154.475 41.7048 154.76 42.1734 154.955C42.6419 155.149 43.1443 155.249 43.6516 155.248H110.787C111.809 155.248 112.792 154.846 113.517 154.116C114.241 153.397 114.639 152.415 114.639 151.394V109.002Z" fill="#777777"/>
<path fill-rule="evenodd" clip-rule="evenodd" d="M105.924 77.6865C105.924 75.9182 104.492 74.4844 102.72 74.4844H52.034C50.262 74.4844 48.8232 75.9182 48.8232 77.6865V111.509L74.0716 130.549C75.0222 131.268 76.1815 131.657 77.3733 131.657C78.5651 131.657 79.7244 131.268 80.6751 130.549L105.924 111.509V77.6865Z" fill="white"/>
<path fill-rule="evenodd" clip-rule="evenodd" d="M106.393 77.6892C106.393 75.6622 104.742 74.0234 102.72 74.0234H52.0344C50.0048 74.0234 48.3613 75.6622 48.3613 77.6892V111.511C48.3613 111.662 48.4296 111.791 48.5509 111.878C48.5509 111.878 66.2717 125.258 73.7916 130.918C74.8221 131.7 76.08 132.123 77.3735 132.123C78.667 132.123 79.9249 131.7 80.9554 130.918C88.4755 125.258 106.204 111.878 106.204 111.878C106.325 111.791 106.393 111.662 106.393 111.511V77.6892ZM105.462 77.6892V111.285C103.569 112.708 87.4685 124.859 80.4029 130.185C79.5293 130.841 78.4663 131.196 77.3737 131.196C76.2812 131.196 75.2181 130.841 74.3445 130.185L49.2853 111.285V77.6892C49.2853 76.1797 50.5198 74.9398 52.0344 74.9398H102.72C104.235 74.9398 105.462 76.1797 105.462 77.6892Z" fill="#777777"/>
<path fill-rule="evenodd" clip-rule="evenodd" d="M40.8807 106.106C40.8807 106.106 64.8051 124.152 73.7673 130.898C75.8969 132.51 78.8481 132.51 80.9778 130.898C89.929 124.152 113.864 106.106 113.864 106.106C114.059 105.949 114.102 105.659 113.95 105.457C113.914 105.409 113.868 105.368 113.815 105.337C113.763 105.306 113.705 105.286 113.645 105.278C113.584 105.269 113.523 105.273 113.464 105.289C113.405 105.304 113.35 105.331 113.302 105.367C113.302 105.367 89.3776 123.414 80.4264 130.16C78.6208 131.525 76.1237 131.525 74.3182 130.16C63.3589 121.897 52.4006 113.633 41.4433 105.367C41.3948 105.331 41.3396 105.304 41.2808 105.289C41.2219 105.273 41.1606 105.269 41.1004 105.278C41.0401 105.286 40.9821 105.306 40.9296 105.337C40.8771 105.368 40.8312 105.409 40.7946 105.457C40.6432 105.659 40.6754 105.949 40.8807 106.106Z" fill="white"/>
<path fill-rule="evenodd" clip-rule="evenodd" d="M57.7498 86.4624H77.991C78.0522 86.4624 78.1129 86.4504 78.1695 86.427C78.2262 86.4035 78.2776 86.3692 78.3209 86.3258C78.3642 86.2825 78.3986 86.231 78.422 86.1744C78.4454 86.1178 78.4574 86.0571 78.4573 85.9958C78.4573 85.7476 78.249 85.5391 77.991 85.5391H57.7498C57.6291 85.5405 57.5138 85.589 57.4285 85.6744C57.3432 85.7598 57.2948 85.8751 57.2935 85.9958C57.2935 86.2539 57.5016 86.4624 57.7498 86.4624ZM57.7205 94.6058H96.6574C96.7203 94.6064 96.7826 94.5944 96.8408 94.5706C96.899 94.5468 96.9519 94.5117 96.9963 94.4672C97.0408 94.4228 97.0759 94.3699 97.0996 94.3117C97.1234 94.2535 97.1353 94.1911 97.1347 94.1283C97.1347 93.88 96.9246 93.67 96.6574 93.67H57.7205C57.4723 93.67 57.2627 93.88 57.2627 94.1283C57.2627 94.3957 57.4723 94.6058 57.7205 94.6058ZM57.7205 102.748H96.6574C96.7203 102.749 96.7826 102.737 96.8408 102.713C96.899 102.689 96.9518 102.654 96.9962 102.61C97.0407 102.565 97.0758 102.513 97.0996 102.454C97.1234 102.396 97.1353 102.334 97.1347 102.271C97.1347 102.023 96.9246 101.812 96.6574 101.812H57.7205C57.4723 101.812 57.2627 102.023 57.2627 102.271C57.2627 102.538 57.4723 102.748 57.7205 102.748ZM57.7205 110.879H96.6574C96.7203 110.88 96.7826 110.868 96.8408 110.844C96.899 110.82 96.9518 110.785 96.9962 110.741C97.0407 110.696 97.0758 110.643 97.0996 110.585C97.1234 110.527 97.1353 110.465 97.1347 110.402C97.1347 110.154 96.9246 109.944 96.6574 109.944H57.7205C57.4723 109.944 57.2627 110.154 57.2627 110.402C57.2627 110.669 57.4723 110.879 57.7205 110.879Z" fill="#CEB7A1"/>
<path fill-rule="evenodd" clip-rule="evenodd" d="M108.578 136.264L110.605 139.912C110.634 139.966 110.673 140.013 110.721 140.051C110.768 140.089 110.822 140.118 110.881 140.135C110.939 140.152 111 140.157 111.061 140.15C111.121 140.144 111.18 140.125 111.233 140.095C111.455 139.973 111.539 139.686 111.415 139.468L109.388 135.809C109.263 135.591 108.982 135.504 108.76 135.626C108.538 135.758 108.454 136.035 108.578 136.264Z" fill="#777777"/>
<path fill-rule="evenodd" clip-rule="evenodd" d="M46.5622 71.7692L33.9077 59.1147C33.8647 59.0717 33.8138 59.0377 33.7577 59.0145C33.7016 58.9913 33.6415 58.9793 33.5808 58.9793C33.5201 58.9793 33.46 58.9913 33.4039 59.0146C33.3478 59.0378 33.2969 59.0719 33.2539 59.1148C33.211 59.1577 33.177 59.2087 33.1537 59.2648C33.1305 59.3209 33.1186 59.381 33.1186 59.4417C33.1186 59.5024 33.1306 59.5625 33.1538 59.6186C33.177 59.6747 33.2111 59.7256 33.254 59.7685L45.9086 72.4228C45.9953 72.5095 46.1128 72.5582 46.2354 72.5583C46.3581 72.5583 46.4757 72.5097 46.5624 72.4231C46.6491 72.3363 46.6977 72.2187 46.6976 72.0961C46.6976 71.9735 46.6489 71.8559 46.5622 71.7692ZM52.0256 66.1743L49.523 56.8337C49.4893 56.7174 49.4114 56.6191 49.306 56.5596C49.2006 56.5002 49.0761 56.4844 48.9592 56.5158C48.8424 56.5471 48.7424 56.623 48.6809 56.7272C48.6193 56.8313 48.6011 56.9555 48.63 57.073L51.1327 66.4136C51.1645 66.5319 51.242 66.6328 51.3482 66.694C51.4544 66.7552 51.5805 66.7717 51.6988 66.7399C51.7574 66.7243 51.8124 66.6972 51.8605 66.6603C51.9087 66.6234 51.9491 66.5773 51.9794 66.5248C52.0098 66.4723 52.0295 66.4143 52.0374 66.3541C52.0453 66.294 52.0413 66.2329 52.0256 66.1743ZM40.5525 76.9933L30.4587 74.2888C30.3403 74.2571 30.2141 74.2738 30.108 74.3351C30.0018 74.3964 29.9244 74.4974 29.8927 74.6158C29.861 74.7342 29.8776 74.8603 29.9389 74.9665C30.0002 75.0726 30.1012 75.1501 30.2196 75.1818L40.3134 77.8863C40.4318 77.9179 40.558 77.9012 40.6641 77.8399C40.7703 77.7787 40.8478 77.6778 40.8798 77.5595C40.9113 77.441 40.8945 77.3149 40.8331 77.2087C40.7718 77.1026 40.6709 77.0252 40.5525 76.9933Z" fill="#CEB7A1"/>
<path fill-rule="evenodd" clip-rule="evenodd" d="M179.623 97.3247C180.556 97.4437 181.49 97.5232 182.414 97.573C182.475 97.5774 182.536 97.5695 182.594 97.5497C182.651 97.53 182.705 97.4988 182.75 97.458C182.795 97.4172 182.832 97.3677 182.858 97.3124C182.884 97.2571 182.898 97.1971 182.9 97.1361C182.909 96.878 182.722 96.6695 182.463 96.6499C181.559 96.6102 180.657 96.5206 179.733 96.4115C179.485 96.3717 179.246 96.5506 179.217 96.8086C179.188 97.0569 179.367 97.2948 179.623 97.3247ZM188.021 97.4439C188.966 97.3446 189.899 97.2156 190.801 97.0468C191.06 96.9973 191.229 96.7591 191.178 96.5108C191.129 96.2626 190.89 96.0938 190.642 96.1336C189.749 96.3023 188.845 96.4313 187.932 96.5206C187.675 96.5405 187.497 96.7689 187.515 97.0269C187.546 97.2752 187.774 97.4638 188.021 97.4439ZM171.444 95.379C172.337 95.6967 173.232 95.9746 174.125 96.2228C174.364 96.2824 174.621 96.1434 174.69 95.8951C174.759 95.6471 174.612 95.3989 174.362 95.3295C173.483 95.0848 172.612 94.81 171.752 94.5055C171.513 94.426 171.245 94.5551 171.167 94.7932C171.078 95.0317 171.205 95.2998 171.444 95.379ZM196.232 95.6174C197.125 95.3096 197.998 94.962 198.853 94.5948C198.964 94.5422 199.05 94.4491 199.095 94.3347C199.139 94.2202 199.138 94.093 199.092 93.9793C199.039 93.8681 198.946 93.7814 198.831 93.7371C198.717 93.6927 198.589 93.6942 198.476 93.7411C197.643 94.1121 196.795 94.4466 195.933 94.7437C195.685 94.833 195.567 95.0913 195.647 95.3393C195.736 95.5775 195.993 95.7067 196.232 95.6174ZM163.821 91.8749C164.644 92.3513 165.468 92.7881 166.292 93.1951C166.519 93.3143 166.79 93.225 166.908 92.9967C166.961 92.8858 166.969 92.7587 166.93 92.642C166.891 92.5254 166.809 92.4283 166.7 92.3712C165.894 91.974 165.091 91.5374 164.278 91.0806C164.059 90.9516 163.771 91.0311 163.651 91.2496C163.524 91.4679 163.602 91.7557 163.821 91.8749ZM203.795 91.9345C204.581 91.4223 205.347 90.8792 206.09 90.3064C206.287 90.1575 206.327 89.8698 206.177 89.6613C206.101 89.5647 205.989 89.5021 205.866 89.4873C205.744 89.4724 205.621 89.5064 205.523 89.5818C204.809 90.1279 204.063 90.654 203.291 91.1503C203.081 91.2894 203.012 91.5771 203.15 91.7954C203.288 92.0039 203.576 92.0736 203.795 91.9345ZM156.871 87.2588C157.516 87.6857 158.162 88.1424 158.807 88.619C158.916 88.6884 159.017 88.7677 159.126 88.8373C159.334 88.9862 159.621 88.9465 159.771 88.738C159.918 88.5295 159.869 88.2417 159.662 88.0928C159.561 88.0134 159.463 87.9439 159.363 87.8645C158.714 87.3898 158.052 86.933 157.378 86.4945C157.159 86.3456 156.871 86.4054 156.733 86.6237C156.7 86.6744 156.677 86.7311 156.666 86.7906C156.655 86.8501 156.656 86.9112 156.669 86.9703C156.682 87.0295 156.706 87.0854 156.741 87.135C156.776 87.1845 156.82 87.2266 156.871 87.2588ZM210.238 86.5244C210.883 85.8295 211.49 85.1147 212.064 84.38C212.213 84.1816 212.173 83.8838 211.977 83.7349C211.778 83.5759 211.479 83.6159 211.329 83.8143C210.771 84.5342 210.182 85.2297 209.564 85.8989C209.394 86.0875 209.405 86.3755 209.593 86.5541C209.771 86.7228 210.07 86.713 210.238 86.5244ZM118.078 86.157C118.078 86.157 118.911 85.5812 120.43 84.807C120.484 84.7797 120.531 84.7421 120.57 84.6964C120.609 84.6507 120.639 84.5977 120.657 84.5405C120.676 84.4833 120.683 84.4231 120.678 84.3632C120.673 84.3033 120.656 84.245 120.629 84.1916C120.572 84.0826 120.475 83.9999 120.358 83.961C120.242 83.9221 120.114 83.93 120.004 83.9831C118.425 84.797 117.551 85.4026 117.551 85.4026C117.343 85.5415 117.283 85.8295 117.432 86.038C117.581 86.2563 117.869 86.3058 118.078 86.157ZM149.596 83.4371C150.429 83.7645 151.264 84.142 152.107 84.549C152.335 84.6581 152.612 84.5588 152.721 84.3304C152.831 84.1021 152.741 83.8242 152.514 83.715C151.67 83.3084 150.812 82.931 149.942 82.5834C149.886 82.5601 149.826 82.5484 149.765 82.5488C149.705 82.5493 149.645 82.5619 149.589 82.586C149.534 82.6101 149.483 82.6451 149.442 82.689C149.4 82.7329 149.367 82.7847 149.346 82.8415C149.248 83.0698 149.366 83.3478 149.596 83.4371ZM125.483 82.7225C126.35 82.4382 127.228 82.1865 128.114 81.9679C128.362 81.9083 128.511 81.6503 128.451 81.402C128.392 81.1538 128.134 81.0051 127.896 81.0647C126.933 81.3029 126.039 81.5708 125.195 81.8389C125.137 81.8577 125.083 81.8877 125.037 81.9273C124.99 81.9669 124.952 82.0154 124.924 82.0698C124.897 82.1242 124.88 82.1835 124.875 82.2444C124.871 82.3053 124.878 82.3665 124.897 82.4245C124.977 82.6727 125.235 82.8017 125.483 82.7225ZM141.694 81.2831C142.577 81.4121 143.47 81.5806 144.383 81.7992C144.631 81.8586 144.881 81.6998 144.939 81.4516C144.988 81.2036 144.841 80.9554 144.593 80.8957C143.66 80.6774 142.736 80.5087 141.833 80.3698C141.575 80.3301 141.346 80.5087 141.306 80.7567C141.267 81.015 141.445 81.2433 141.694 81.2831ZM133.504 81.0547C134.388 80.9752 135.301 80.9257 136.244 80.9158C136.492 80.9058 136.7 80.6973 136.7 80.4491C136.691 80.191 136.482 79.9825 136.234 79.9925C135.271 80.0024 134.328 80.0522 133.425 80.1316C133.364 80.1361 133.304 80.1529 133.25 80.1811C133.195 80.2093 133.147 80.2482 133.108 80.2955C133.069 80.3428 133.04 80.3975 133.023 80.4563C133.006 80.5151 133.001 80.5768 133.008 80.6377C133.028 80.8859 133.256 81.0743 133.504 81.0547Z" fill="#777777"/>
<path fill-rule="evenodd" clip-rule="evenodd" d="M121.557 230.53C122.461 230.582 123.394 230.611 124.347 230.62C124.605 230.62 124.813 230.421 124.813 230.164C124.813 229.905 124.605 229.698 124.357 229.698C123.414 229.687 122.501 229.658 121.607 229.608C121.349 229.597 121.13 229.796 121.12 230.044C121.116 230.105 121.123 230.166 121.143 230.224C121.163 230.282 121.194 230.335 121.235 230.381C121.275 230.426 121.325 230.463 121.381 230.489C121.436 230.514 121.496 230.529 121.557 230.53ZM129.926 230.432C130.839 230.363 131.762 230.274 132.705 230.164C132.766 230.158 132.825 230.139 132.878 230.109C132.932 230.079 132.979 230.039 133.016 229.991C133.054 229.943 133.082 229.888 133.099 229.83C133.115 229.771 133.12 229.709 133.112 229.649C133.097 229.526 133.035 229.415 132.938 229.338C132.841 229.262 132.718 229.227 132.596 229.24C131.673 229.35 130.759 229.439 129.856 229.508C129.795 229.512 129.736 229.528 129.681 229.556C129.627 229.583 129.578 229.621 129.538 229.668C129.499 229.714 129.469 229.768 129.45 229.826C129.431 229.884 129.424 229.945 129.43 230.006C129.449 230.254 129.678 230.452 129.926 230.432ZM113.239 229.459C114.132 229.646 115.055 229.816 115.998 229.966C116.247 230.006 116.485 229.827 116.525 229.577C116.534 229.517 116.531 229.456 116.516 229.397C116.502 229.339 116.476 229.283 116.44 229.234C116.404 229.186 116.359 229.144 116.307 229.113C116.255 229.082 116.197 229.061 116.137 229.053C115.204 228.903 114.31 228.745 113.427 228.555C113.179 228.506 112.931 228.664 112.881 228.912C112.832 229.171 112.991 229.41 113.239 229.459ZM138.224 229.329C139.118 229.162 140.031 228.972 140.954 228.765C141.013 228.752 141.069 228.728 141.119 228.694C141.169 228.66 141.211 228.616 141.244 228.565C141.276 228.514 141.298 228.457 141.308 228.397C141.318 228.337 141.316 228.276 141.302 228.218C141.252 227.97 141.004 227.811 140.756 227.861C139.843 228.068 138.939 228.247 138.046 228.416C137.797 228.465 137.629 228.704 137.679 228.952C137.728 229.211 137.966 229.37 138.224 229.329ZM105.198 227.066C106.052 227.405 106.925 227.722 107.839 228.019C108.077 228.099 108.335 227.97 108.414 227.722C108.452 227.608 108.443 227.483 108.389 227.375C108.335 227.267 108.241 227.185 108.126 227.146C107.233 226.849 106.369 226.541 105.545 226.204C105.307 226.113 105.039 226.233 104.94 226.472C104.85 226.709 104.96 226.977 105.198 227.066ZM146.355 227.434C147.239 227.195 148.132 226.956 149.036 226.709C149.283 226.639 149.431 226.392 149.362 226.144C149.292 225.896 149.036 225.746 148.797 225.816C147.893 226.063 147 226.302 146.116 226.53C145.868 226.599 145.718 226.858 145.788 227.097C145.859 227.345 146.107 227.494 146.355 227.434ZM154.384 225.211C155.259 224.963 156.152 224.704 157.045 224.445C157.293 224.367 157.434 224.119 157.364 223.871C157.348 223.812 157.32 223.758 157.281 223.71C157.243 223.662 157.196 223.622 157.143 223.592C157.089 223.562 157.03 223.544 156.97 223.537C156.909 223.53 156.847 223.535 156.789 223.552C155.893 223.811 155.012 224.068 154.128 224.327C154.069 224.342 154.014 224.369 153.967 224.406C153.919 224.443 153.879 224.489 153.85 224.542C153.82 224.595 153.801 224.653 153.795 224.713C153.788 224.773 153.793 224.834 153.811 224.892C153.88 225.142 154.137 225.28 154.384 225.211ZM97.7132 223.284C98.4776 223.771 99.2814 224.237 100.125 224.704C100.353 224.822 100.632 224.733 100.751 224.516C100.78 224.464 100.8 224.405 100.807 224.345C100.814 224.285 100.809 224.224 100.793 224.165C100.776 224.107 100.748 224.053 100.71 224.005C100.672 223.958 100.625 223.918 100.572 223.889C99.7668 223.451 98.9756 222.988 98.1996 222.501C97.9811 222.371 97.6933 222.431 97.5643 222.65C97.4254 222.867 97.4949 223.155 97.7132 223.284ZM162.376 222.878C163.249 222.619 164.144 222.351 165.026 222.083C165.276 222.014 165.414 221.755 165.345 221.507C165.265 221.268 165.008 221.13 164.769 221.199C163.876 221.467 162.992 221.726 162.108 221.994C161.86 222.063 161.722 222.322 161.8 222.559C161.869 222.809 162.128 222.947 162.376 222.878ZM170.348 220.505C171.232 220.237 172.116 219.978 173.009 219.71C173.245 219.641 173.386 219.382 173.317 219.134C173.245 218.898 172.989 218.757 172.741 218.826C171.857 219.096 170.964 219.353 170.08 219.621C169.841 219.69 169.703 219.949 169.772 220.188C169.841 220.436 170.1 220.574 170.348 220.505ZM91.0523 218.163C91.6975 218.768 92.3922 219.393 93.1565 220.018C93.3552 220.177 93.653 220.148 93.8119 219.949C93.9707 219.75 93.9407 219.462 93.7521 219.304C93.0438 218.725 92.3552 218.123 91.6874 217.498C91.6434 217.456 91.5915 217.422 91.5345 217.4C91.4775 217.378 91.4167 217.368 91.3557 217.37C91.2946 217.372 91.2346 217.386 91.1791 217.411C91.1236 217.437 91.0737 217.473 91.0324 217.518C90.8536 217.697 90.8637 217.994 91.0523 218.163ZM178.328 218.152C179.213 217.895 180.097 217.636 180.989 217.377C181.228 217.308 181.376 217.051 181.306 216.813C181.237 216.565 180.978 216.424 180.731 216.493C179.838 216.752 178.954 217 178.072 217.259C177.822 217.339 177.683 217.596 177.753 217.835C177.822 218.083 178.081 218.221 178.328 218.152ZM186.32 215.868C187.213 215.621 188.097 215.382 188.99 215.134C189.238 215.065 189.388 214.817 189.318 214.569C189.249 214.321 188.99 214.181 188.751 214.241C187.858 214.489 186.965 214.737 186.073 214.987C185.822 215.045 185.684 215.304 185.753 215.551C185.825 215.799 186.073 215.94 186.32 215.868ZM85.6025 211.739C85.6025 211.739 86.1286 212.643 87.2403 214.053C87.3993 214.252 87.6969 214.281 87.8953 214.123C88.094 213.964 88.1237 213.676 87.9647 213.478C86.9026 212.127 86.3967 211.272 86.3967 211.272C86.2677 211.055 85.9896 210.975 85.7712 211.105C85.718 211.135 85.6714 211.175 85.634 211.223C85.5966 211.272 85.5693 211.327 85.5535 211.386C85.5378 211.445 85.534 211.507 85.5424 211.567C85.5508 211.628 85.5713 211.686 85.6025 211.739ZM194.35 213.714C195.245 213.486 196.138 213.259 197.031 213.031C197.09 213.017 197.145 212.991 197.194 212.956C197.243 212.92 197.284 212.875 197.315 212.823C197.347 212.772 197.367 212.714 197.377 212.654C197.386 212.595 197.383 212.534 197.368 212.475C197.308 212.225 197.051 212.078 196.803 212.136C195.91 212.355 195.015 212.582 194.113 212.821C193.863 212.881 193.716 213.14 193.785 213.388C193.843 213.625 194.102 213.774 194.35 213.714ZM202.411 211.739C203.315 211.531 204.217 211.323 205.112 211.125C205.369 211.075 205.519 210.825 205.469 210.578C205.441 210.458 205.367 210.353 205.264 210.287C205.16 210.22 205.034 210.196 204.914 210.22C204.021 210.419 203.117 210.627 202.203 210.837C201.956 210.895 201.806 211.145 201.866 211.392C201.915 211.64 202.163 211.79 202.411 211.739ZM251.469 209.685C252.344 209.973 253.197 210.301 254.032 210.647C254.269 210.747 254.536 210.638 254.637 210.41C254.735 210.171 254.626 209.904 254.389 209.803C253.545 209.437 252.661 209.109 251.768 208.812C251.518 208.723 251.262 208.861 251.181 209.1C251.103 209.336 251.233 209.604 251.469 209.685ZM210.532 210.002C211.445 209.823 212.347 209.656 213.251 209.495C213.372 209.474 213.48 209.405 213.55 209.305C213.621 209.205 213.649 209.08 213.629 208.959C213.606 208.839 213.538 208.732 213.437 208.662C213.337 208.591 213.214 208.563 213.093 208.582C212.18 208.752 211.276 208.921 210.363 209.1C210.104 209.149 209.945 209.388 209.994 209.636C210.046 209.883 210.285 210.051 210.532 210.002ZM218.712 208.602C219.634 208.464 220.549 208.345 221.451 208.225C221.71 208.196 221.888 207.957 221.848 207.709C221.819 207.45 221.589 207.272 221.332 207.312C220.419 207.421 219.504 207.551 218.582 207.689C218.323 207.72 218.156 207.957 218.185 208.205C218.225 208.464 218.464 208.642 218.712 208.602ZM243.448 207.868C244.373 207.997 245.277 208.147 246.17 208.314C246.417 208.365 246.656 208.196 246.705 207.948C246.755 207.7 246.585 207.45 246.337 207.401C245.435 207.234 244.511 207.084 243.578 206.955C243.33 206.914 243.091 207.093 243.062 207.352C243.022 207.6 243.201 207.839 243.448 207.868ZM226.951 207.649C227.873 207.571 228.797 207.51 229.699 207.461C229.958 207.441 230.157 207.222 230.137 206.975C230.135 206.914 230.121 206.853 230.095 206.798C230.069 206.742 230.033 206.693 229.987 206.652C229.942 206.611 229.888 206.58 229.83 206.56C229.772 206.54 229.711 206.533 229.65 206.537C228.737 206.588 227.804 206.646 226.871 206.727C226.612 206.747 226.424 206.975 226.445 207.222C226.474 207.481 226.692 207.669 226.951 207.649ZM235.22 207.323C236.142 207.323 237.066 207.352 237.97 207.392C238.227 207.401 238.446 207.202 238.455 206.946C238.466 206.698 238.267 206.479 238.008 206.468C237.095 206.428 236.162 206.399 235.22 206.399C234.972 206.39 234.762 206.597 234.762 206.856C234.753 207.104 234.961 207.312 235.22 207.323ZM115.346 208.131C113.907 208.131 112.736 209.303 112.736 210.743C112.736 212.192 113.907 213.361 115.346 213.361C116.796 213.361 117.967 212.192 117.967 210.743C117.967 209.303 116.796 208.131 115.346 208.131ZM115.346 209.055C116.289 209.055 117.044 209.81 117.044 210.743C117.044 211.685 116.289 212.439 115.346 212.439C114.413 212.439 113.659 211.685 113.659 210.743C113.659 209.81 114.413 209.055 115.346 209.055Z" fill="#CEB7A1"/>
<path fill-rule="evenodd" clip-rule="evenodd" d="M231.846 136.82C231.579 136.82 231.314 136.872 231.067 136.975C230.82 137.077 230.596 137.227 230.407 137.416C230.217 137.605 230.067 137.829 229.965 138.076C229.863 138.323 229.81 138.588 229.811 138.855C229.81 139.123 229.863 139.387 229.965 139.635C230.067 139.882 230.217 140.106 230.407 140.295C230.596 140.484 230.82 140.634 231.067 140.736C231.314 140.838 231.579 140.891 231.846 140.89C232.965 140.89 233.88 139.975 233.88 138.855C233.88 137.736 232.965 136.82 231.846 136.82ZM231.846 137.747C232.456 137.747 232.954 138.245 232.954 138.855C232.953 139.149 232.836 139.43 232.629 139.638C232.421 139.846 232.14 139.963 231.846 139.963C231.224 139.963 230.726 139.466 230.726 138.855C230.726 138.245 231.224 137.747 231.846 137.747Z" fill="#777777"/>
<path fill-rule="evenodd" clip-rule="evenodd" d="M217.27 116.695L229.501 111.036C229.729 110.927 229.827 110.649 229.729 110.421C229.619 110.183 229.34 110.083 229.112 110.193L216.884 115.861C216.654 115.97 216.555 116.238 216.665 116.476C216.763 116.705 217.042 116.804 217.27 116.695Z" fill="#CEB7A1"/>
<path fill-rule="evenodd" clip-rule="evenodd" d="M70.3505 184.84C70.2729 184.796 70.1842 184.776 70.0954 184.782C70.0066 184.788 69.9214 184.82 69.8503 184.873C69.78 184.928 69.727 185.002 69.698 185.086C69.6689 185.17 69.665 185.26 69.6866 185.347L75.5675 209.769C75.6021 209.907 75.7055 210.028 75.8348 210.079C75.9727 210.139 76.1281 210.13 76.2488 210.054L86.7431 204L96.8755 200.223C96.9578 200.193 97.0293 200.139 97.0814 200.068C97.1335 199.998 97.1639 199.913 97.1689 199.826C97.1767 199.738 97.1588 199.649 97.1175 199.571C97.0762 199.493 97.0132 199.429 96.936 199.386L70.3505 184.84ZM70.8249 186.15C70.8249 186.15 91.081 197.238 95.5995 199.714L86.381 203.145C86.3551 203.154 86.338 203.163 86.3121 203.181L76.3265 208.949L70.8249 186.15Z" fill="#777777"/>
<path fill-rule="evenodd" clip-rule="evenodd" d="M224.375 61.7044C224.42 61.5231 224.353 61.3419 224.208 61.2258C224.137 61.1723 224.052 61.1405 223.963 61.134C223.874 61.1276 223.786 61.1468 223.708 61.1894L201.342 73.4276C201.19 73.5146 201.096 73.6888 201.103 73.87C201.119 74.0441 201.235 74.2038 201.409 74.2692L209.925 77.4391L218.745 82.5318C218.87 82.6043 219.022 82.6188 219.16 82.5608C219.29 82.5028 219.393 82.3867 219.422 82.2416L224.375 61.7044ZM223.237 62.5025L218.667 81.4219L210.354 76.6196C210.331 76.6051 210.309 76.5906 210.28 76.5832L202.677 73.754L223.237 62.5025Z" fill="#CEB7A1"/>
<path fill-rule="evenodd" clip-rule="evenodd" d="M86.6562 203.217L70.8757 185.394C70.7119 185.204 70.4185 185.177 70.2288 185.349C70.0393 185.523 70.0134 185.816 70.1857 186.005L85.9664 203.828C86.1303 204.018 86.4234 204.036 86.6131 203.864C86.8114 203.701 86.8285 203.406 86.6562 203.217Z" fill="#777777"/>
<path fill-rule="evenodd" clip-rule="evenodd" d="M210.664 77.276L223.933 62.2811C224.107 62.0927 224.085 61.8025 223.898 61.6283C223.708 61.4614 223.411 61.4832 223.243 61.6719L209.968 76.6666C209.802 76.8552 209.816 77.1525 210.012 77.3195C210.2 77.4863 210.49 77.4718 210.664 77.276Z" fill="#CEB7A1"/>
<path fill-rule="evenodd" clip-rule="evenodd" d="M85.7254 203.622L83.0263 209.14L81.0256 206.718C80.9469 206.624 80.8344 206.563 80.712 206.551C80.5896 206.538 80.467 206.573 80.3702 206.649C80.3232 206.688 80.2843 206.736 80.2558 206.79C80.2273 206.844 80.2097 206.903 80.2041 206.963C80.1985 207.024 80.205 207.086 80.2231 207.144C80.2413 207.202 80.2708 207.256 80.31 207.303L82.7675 210.279C82.8709 210.399 83.0263 210.46 83.1814 210.442C83.3366 210.426 83.4745 210.33 83.5435 210.192L86.5529 204.026C86.665 203.803 86.5704 203.526 86.346 203.414C86.1134 203.303 85.8375 203.396 85.7254 203.622Z" fill="#777777"/>
<path fill-rule="evenodd" clip-rule="evenodd" d="M210.041 77.4345L212.579 82.6142C212.653 82.7519 212.791 82.8535 212.943 82.868C213.101 82.8899 213.255 82.8245 213.356 82.7012L215.423 80.1983C215.584 80.0026 215.555 79.7124 215.358 79.5527C215.312 79.5134 215.259 79.4837 215.202 79.4653C215.144 79.4469 215.083 79.4402 215.023 79.4456C214.963 79.451 214.905 79.4684 214.851 79.4968C214.798 79.5252 214.751 79.5639 214.713 79.6108L213.095 81.5623L210.876 77.0284C210.76 76.7962 210.483 76.7018 210.257 76.8107C210.146 76.8654 210.062 76.9615 210.021 77.0782C209.981 77.1949 209.988 77.3229 210.041 77.4345Z" fill="#CEB7A1"/>
<path fill-rule="evenodd" clip-rule="evenodd" d="M206.647 159.009C206.259 157.56 204.774 156.705 203.323 157.094C197.89 158.549 185.449 161.882 180.011 163.34C178.564 163.728 177.705 165.213 178.093 166.661L181.81 180.536C182.196 181.98 183.685 182.839 185.132 182.453C190.57 180.995 203.011 177.663 208.444 176.205C209.895 175.816 210.75 174.33 210.364 172.885C209.386 169.233 207.625 162.661 206.647 159.009Z" fill="#777777"/>
<path fill-rule="evenodd" clip-rule="evenodd" d="M226.949 162.73C226.949 162.73 237.057 166.82 241.374 168.563C242.698 169.101 244.22 168.693 245.098 167.565C247.955 163.909 254.63 155.359 254.63 155.359C254.788 155.16 254.75 154.87 254.549 154.714C254.452 154.639 254.329 154.605 254.207 154.62C254.086 154.634 253.974 154.696 253.898 154.792L244.372 166.996C243.747 167.8 242.662 168.09 241.72 167.706L227.295 161.875C227.06 161.781 226.79 161.895 226.694 162.13C226.598 162.366 226.712 162.639 226.949 162.73ZM145.155 104.652C145.155 104.652 146.374 111.671 147.756 114.788C147.756 114.788 145.504 121.687 150.256 120.257C150.256 120.257 154.116 131.256 164.409 126.104L166.231 131.544L185.842 128.04L181.46 117.289L171.546 99.8281L145.155 104.652Z" fill="white"/>
<path fill-rule="evenodd" clip-rule="evenodd" d="M145.064 104.197C144.945 104.222 144.841 104.291 144.772 104.391C144.703 104.491 144.676 104.614 144.696 104.733C144.696 104.733 145.904 111.593 147.265 114.819C147.122 115.305 146.743 116.745 146.763 118.065C146.783 119.177 147.122 120.179 147.951 120.646C148.424 120.904 149.078 121.013 149.98 120.815C150.533 122.115 152.592 126.274 156.677 127.555C158.664 128.18 161.133 128.141 164.133 126.751L165.792 131.695C165.863 131.913 166.088 132.042 166.314 132.002L185.925 128.488C186.068 128.468 186.182 128.379 186.253 128.26C186.314 128.141 186.325 127.992 186.273 127.863L181.889 117.112C181.877 117.097 181.867 117.08 181.86 117.062L171.946 99.601C171.855 99.4322 171.658 99.3431 171.464 99.3728L145.064 104.197ZM145.689 105.021L171.31 100.345C171.31 100.345 180.619 116.755 181.041 117.489L185.197 127.684L166.539 131.02L164.849 125.957C164.809 125.828 164.707 125.729 164.584 125.679C164.459 125.629 164.316 125.629 164.204 125.689C161.255 127.168 158.858 127.277 156.954 126.672C152.489 125.272 150.696 120.11 150.696 120.11C150.614 119.872 150.359 119.743 150.123 119.822C149.335 120.05 148.781 120.05 148.402 119.832C147.839 119.524 147.705 118.8 147.685 118.055C147.665 116.576 148.198 114.928 148.198 114.928C148.239 114.829 148.227 114.71 148.187 114.6C147.02 111.99 145.986 106.609 145.689 105.021Z" fill="#777777"/>
<path fill-rule="evenodd" clip-rule="evenodd" d="M170.74 105.584C170.74 105.584 168.321 106.848 166.079 109.623C165.921 109.821 165.945 110.111 166.144 110.271C166.349 110.434 166.64 110.402 166.796 110.202C168.896 107.596 171.176 106.404 171.176 106.404C171.399 106.285 171.493 106.006 171.37 105.78C171.312 105.671 171.213 105.589 171.095 105.552C170.978 105.516 170.85 105.527 170.74 105.584Z" fill="#777777"/>
<path fill-rule="evenodd" clip-rule="evenodd" d="M170.69 109.114C170.69 109.114 169.207 108.199 168.098 107.843C167.848 107.764 167.589 107.898 167.513 108.141C167.435 108.384 167.575 108.646 167.814 108.723C168.841 109.052 170.201 109.9 170.201 109.9C170.422 110.034 170.705 109.967 170.844 109.751C170.971 109.532 170.911 109.249 170.69 109.114Z" fill="#777777"/>
<path fill-rule="evenodd" clip-rule="evenodd" d="M164.173 105.786C164.173 105.786 164.6 107.732 164.51 111.097C164.51 111.177 164.45 111.256 164.372 111.296C164.292 111.336 164.202 111.316 164.133 111.256C163.477 110.631 161.999 109.072 160.53 106.422C160.53 106.422 150.563 107.851 145.281 105.151L145.62 106.819C145.62 106.819 141.321 104.566 142.313 99.3937L140.318 101.498C140.318 101.498 141.906 82.1606 160.53 78.4083C175.498 75.4004 181.704 84.6126 181.704 84.6126C181.704 84.6126 193.426 90.2609 189.763 102.133C186.626 112.309 185.148 113.857 182.557 119.674L180.074 120.151L171.857 111.882C171.857 111.882 175.261 109.211 172.739 105.151C171.359 102.938 167.189 102.044 164.173 105.786Z" fill="#777777"/>
<path fill-rule="evenodd" clip-rule="evenodd" d="M149.38 108.756C149.38 108.756 150.217 107.733 152.016 107.142C152.253 107.065 152.387 106.801 152.306 106.556C152.226 106.32 151.969 106.181 151.721 106.269C149.628 106.959 148.665 108.176 148.665 108.176C148.505 108.38 148.538 108.667 148.737 108.829C148.933 108.991 149.219 108.951 149.38 108.756ZM159.128 117.623C159.128 117.623 158.742 121.086 154.972 121.286C154.726 121.31 154.53 121.532 154.539 121.772C154.55 122.029 154.771 122.233 155.032 122.207C159.604 121.959 160.05 117.728 160.05 117.728C160.068 117.466 159.89 117.237 159.635 117.21C159.383 117.184 159.149 117.378 159.128 117.623Z" fill="#777777"/>
<path d="M151.89 112.677C152.234 112.63 152.546 112.449 152.756 112.173C152.967 111.897 153.059 111.548 153.013 111.204C152.966 110.86 152.785 110.549 152.509 110.338C152.232 110.128 151.884 110.036 151.54 110.082C151.196 110.129 150.884 110.31 150.674 110.586C150.463 110.862 150.371 111.211 150.417 111.555C150.464 111.899 150.645 112.21 150.921 112.421C151.198 112.631 151.546 112.723 151.89 112.677Z" fill="#777777"/>
<path fill-rule="evenodd" clip-rule="evenodd" d="M159.102 238.927L154.206 175.633V146.251L186.816 141.883L207.544 150.649C211.287 151.026 223.418 198.068 227.675 238.927H159.102Z" fill="white"/>
<path fill-rule="evenodd" clip-rule="evenodd" d="M158.635 238.958C158.655 239.194 158.863 239.384 159.101 239.384H227.675C227.804 239.384 227.934 239.335 228.023 239.234C228.112 239.136 228.152 239.007 228.141 238.877C224.728 206.14 216.258 169.449 211.097 155.89C210.164 153.447 209.331 151.749 208.655 150.916C208.309 150.478 207.961 150.262 207.673 150.202C206.541 149.724 186.995 141.455 186.995 141.455C186.919 141.426 186.838 141.415 186.758 141.426L154.148 145.794C153.92 145.823 153.739 146.022 153.739 146.25V175.635C153.739 175.644 153.742 175.653 153.75 175.664L158.635 238.958ZM159.528 238.46C159.101 232.991 154.753 176.755 154.672 175.615V146.657C158.258 146.171 184.713 142.627 186.758 142.359C188.414 143.064 207.356 151.065 207.356 151.065C207.405 151.086 207.445 151.095 207.494 151.103C207.563 151.115 207.633 151.175 207.713 151.253C207.872 151.391 208.03 151.601 208.209 151.858C208.793 152.742 209.47 154.222 210.233 156.218C215.357 169.668 223.723 205.95 227.168 238.46H159.528Z" fill="#777777"/>
<path fill-rule="evenodd" clip-rule="evenodd" d="M156.509 138.84C156.509 138.84 156.163 134.035 160.273 131.236C164.392 128.446 189.776 121.269 201.25 125.598C205.547 127.216 206.521 131.375 208.13 137.42C208.974 140.607 208.427 141.61 210.91 146.146C213.381 150.682 209.441 154.674 204.277 154.654C199.116 154.623 185.845 153.87 172.71 148.926C159.577 143.972 156.768 146.394 153.84 147.903C153.84 147.903 151.705 141.59 156.509 138.84Z" fill="#CEB7A1"/>
<path fill-rule="evenodd" clip-rule="evenodd" d="M158.494 139.022C158.494 139.022 162.265 138.179 165.216 138.855C165.334 138.881 165.457 138.86 165.559 138.795C165.661 138.731 165.733 138.629 165.761 138.511C165.825 138.256 165.671 138.012 165.415 137.956C162.298 137.235 158.293 138.112 158.293 138.112C158.05 138.168 157.894 138.423 157.95 138.667C158.005 138.922 158.249 139.077 158.494 139.022ZM207.38 142.15C207.38 142.15 202.489 144.801 190.785 142.116C190.542 142.05 190.287 142.205 190.232 142.461C190.176 142.705 190.33 142.96 190.575 143.015C202.744 145.8 207.825 142.96 207.825 142.96C208.046 142.838 208.124 142.56 208.001 142.338C207.881 142.116 207.604 142.028 207.38 142.15ZM26.5516 239.386H267.585C267.839 239.386 268.047 239.178 268.047 238.93C268.047 238.671 267.839 238.464 267.585 238.464H26.5516C26.2976 238.464 26.0889 238.671 26.0889 238.93C26.0889 239.178 26.2976 239.386 26.5516 239.386Z" fill="#777777"/>
<path fill-rule="evenodd" clip-rule="evenodd" d="M116.501 147.801C116.501 147.801 114.765 144.06 114.402 141.815C114.038 139.559 112.635 137.095 111.595 136.056C110.597 135.058 108.934 136.056 108.934 136.056C108.934 136.056 103.872 129.195 101.751 126.316C101.242 125.63 100.265 125.485 99.5787 125.984C98.872 126.503 98.6847 127.481 99.1316 128.229C100.805 131.025 104.568 137.272 104.568 137.272C104.568 137.272 102.344 138.052 101.678 139.944C101.678 139.944 99.4227 141.129 99.3084 143.249C99.3084 143.249 97.8116 144.715 98.3313 146.98C98.851 149.246 101.678 151.19 103.269 152.137C104.859 153.092 106.356 154.954 106.356 154.954L111.21 153.498L116.501 147.801Z" fill="white"/>
<path fill-rule="evenodd" clip-rule="evenodd" d="M116.835 148.116C116.97 147.98 117.001 147.772 116.918 147.607C116.918 147.607 115.214 143.947 114.86 141.744C114.486 139.394 113.01 136.817 111.918 135.725C111.409 135.216 110.765 135.101 110.183 135.164C109.746 135.205 109.351 135.351 109.08 135.465L102.116 126.048C101.461 125.154 100.203 124.956 99.3094 125.621C98.4051 126.276 98.166 127.513 98.7377 128.47L103.904 137.066C103.177 137.43 101.867 138.251 101.306 139.623C100.775 139.956 99.0601 141.151 98.8523 143.053C98.4781 143.49 97.4073 144.976 97.8854 147.087C98.1142 148.073 98.7277 149 99.5072 149.819C100.609 150.996 102.054 151.951 103.031 152.543C104.569 153.458 106.004 155.246 106.004 155.246C106.061 155.317 106.138 155.37 106.225 155.398C106.312 155.426 106.405 155.427 106.492 155.402L111.347 153.947C111.419 153.927 111.492 153.873 111.555 153.822L116.835 148.116ZM115.952 147.71L110.962 153.094L106.524 154.424C106.046 153.884 104.809 152.523 103.509 151.743C102.584 151.192 101.222 150.288 100.172 149.185C99.5175 148.489 98.9768 147.71 98.7898 146.879C98.3323 144.883 99.6318 143.573 99.6318 143.573C99.7151 143.49 99.7568 143.386 99.7671 143.272C99.8711 141.39 101.898 140.351 101.898 140.351C102.002 140.299 102.085 140.205 102.116 140.091C102.719 138.396 104.715 137.71 104.715 137.71C104.85 137.658 104.954 137.555 104.996 137.43C105.048 137.295 105.037 137.149 104.964 137.035L99.528 127.991C99.1954 127.451 99.3409 126.744 99.8503 126.36C100.339 126.006 101.025 126.11 101.378 126.588L108.561 136.328C108.628 136.422 108.729 136.488 108.843 136.511C108.957 136.534 109.075 136.513 109.174 136.453C109.174 136.453 109.683 136.141 110.276 136.079C110.608 136.047 110.972 136.089 111.263 136.38C112.261 137.378 113.602 139.737 113.945 141.889C114.257 143.802 115.536 146.785 115.952 147.71Z" fill="#777777"/>
<path fill-rule="evenodd" clip-rule="evenodd" d="M121.696 151.785C123.076 151.814 123.969 152.231 124.991 153.205C127.841 155.935 133.558 162.038 142.84 174.577C142.84 174.577 149.134 153.144 153.71 148.11C158.286 143.088 176.254 150.345 171.787 169.941C167.329 189.545 159.983 207.623 147.645 207.911C135.296 208.199 126.649 196.704 117.626 183.986C108.592 171.271 107.163 163.685 108.066 161.076C108.066 161.076 108.096 160.966 108.186 160.779C107.938 160.272 107.083 158.913 106.379 157.582C105.733 156.35 105.952 154.841 106.915 153.839C108.563 152.142 111.6 149.501 116.018 147.644C116.951 147.258 118.033 147.517 118.688 148.289C119.693 149.452 120.695 150.618 121.696 151.785Z" fill="white"/>
<path fill-rule="evenodd" clip-rule="evenodd" d="M121.915 151.321C121.478 150.814 120.058 149.146 119.036 147.977C118.252 147.064 116.961 146.756 115.839 147.211C111.352 149.097 108.255 151.787 106.578 153.515C106.039 154.072 105.691 154.784 105.582 155.551C105.474 156.318 105.61 157.099 105.972 157.783C106.598 158.984 107.352 160.197 107.68 160.79C107.65 160.871 107.63 160.911 107.63 160.92C107.253 162.023 107.243 163.949 107.997 166.728C109.089 170.729 111.789 176.555 117.249 184.248C121.776 190.641 126.223 196.716 131.077 201.165C136.001 205.67 141.361 208.509 147.654 208.371C152.728 208.252 156.996 205.234 160.559 200.33C165.801 193.144 169.553 181.866 172.243 170.043C175.44 155.977 167.321 148.135 160.591 146.456C157.581 145.703 154.831 146.189 153.362 147.798C151.974 149.325 150.404 152.363 148.915 155.857C146.087 162.509 143.475 170.858 142.662 173.557C133.678 161.487 128.119 155.551 125.31 152.87C124.248 151.856 123.304 151.39 121.915 151.321ZM121.349 152.075C121.438 152.176 121.557 152.234 121.686 152.234C122.937 152.265 123.741 152.651 124.674 153.535C127.513 156.254 133.211 162.351 142.463 174.847C142.572 174.986 142.741 175.057 142.92 175.026C143.089 174.997 143.227 174.868 143.276 174.698C143.276 174.698 146.355 164.226 149.77 156.225C151.208 152.841 152.697 149.901 154.047 148.423C155.329 147.012 157.74 146.695 160.361 147.352C166.774 148.948 174.389 156.453 171.342 169.836C168.681 181.529 164.997 192.677 159.816 199.794C156.441 204.431 152.429 207.328 147.625 207.446C141.58 207.587 136.438 204.817 131.703 200.479C126.888 196.07 122.491 190.045 118.004 183.712C112.633 176.149 109.963 170.421 108.891 166.481C108.196 163.969 108.156 162.21 108.504 161.219C108.504 161.219 108.533 161.118 108.613 160.951C108.662 160.831 108.652 160.692 108.603 160.574C108.355 160.056 107.501 158.696 106.786 157.357C106.24 156.306 106.419 155.013 107.243 154.16C108.861 152.482 111.859 149.892 116.197 148.066C116.951 147.758 117.805 147.965 118.341 148.582C119.552 149.981 121.349 152.075 121.349 152.075Z" fill="#777777"/>
<path fill-rule="evenodd" clip-rule="evenodd" d="M142.441 174.808C142.441 174.808 146.013 180.875 147.466 188.108C147.511 188.352 147.754 188.519 148.011 188.474C148.254 188.419 148.419 188.175 148.366 187.93C146.89 180.532 143.24 174.341 143.24 174.341C143.107 174.12 142.829 174.042 142.608 174.176C142.386 174.308 142.308 174.585 142.441 174.808ZM110.449 160.066C110.449 160.066 116.084 154.641 119.823 153.498C120.067 153.42 120.211 153.165 120.133 152.922C120.096 152.805 120.016 152.708 119.908 152.65C119.8 152.592 119.674 152.578 119.557 152.612C115.674 153.797 109.806 159.4 109.806 159.4C109.628 159.577 109.617 159.876 109.795 160.054C109.972 160.242 110.261 160.242 110.449 160.066Z" fill="#777777"/>
<path fill-rule="evenodd" clip-rule="evenodd" d="M251.273 144.572C251.317 144.39 251.25 144.209 251.105 144.093C251.034 144.04 250.949 144.008 250.86 144.001C250.772 143.995 250.683 144.014 250.605 144.057L228.239 156.295C228.087 156.382 227.994 156.556 228 156.737C228.016 156.911 228.132 157.071 228.306 157.136L236.823 160.306L245.643 165.399C245.768 165.472 245.919 165.486 246.058 165.428C246.187 165.37 246.29 165.254 246.319 165.109L251.273 144.572ZM250.134 145.37L245.564 164.289L237.251 159.487C237.229 159.472 237.207 159.458 237.178 159.45L229.574 156.621L250.134 145.37Z" fill="#CEB7A1"/>
<path fill-rule="evenodd" clip-rule="evenodd" d="M237.562 160.143L250.831 145.148C251.005 144.96 250.983 144.67 250.795 144.496C250.605 144.329 250.308 144.35 250.141 144.539L236.865 159.534C236.7 159.722 236.713 160.02 236.91 160.187C237.097 160.353 237.388 160.339 237.562 160.143Z" fill="#CEB7A1"/>
<path fill-rule="evenodd" clip-rule="evenodd" d="M236.938 160.302L239.476 165.481C239.55 165.619 239.688 165.721 239.84 165.735C239.999 165.757 240.153 165.692 240.253 165.568L242.32 163.066C242.481 162.87 242.452 162.58 242.256 162.42C242.21 162.381 242.157 162.351 242.099 162.332C242.042 162.314 241.981 162.307 241.921 162.313C241.861 162.318 241.802 162.336 241.749 162.364C241.696 162.392 241.649 162.431 241.61 162.478L239.992 164.429L237.773 159.896C237.657 159.663 237.38 159.569 237.155 159.678C237.044 159.733 236.959 159.829 236.919 159.945C236.878 160.062 236.885 160.19 236.938 160.302Z" fill="#CEB7A1"/>
</svg>
