<svg width="201" height="200" viewBox="0 0 201 200" fill="none" xmlns="http://www.w3.org/2000/svg">
<path d="M56.9741 182.126C56.8291 181.977 56.8654 181.754 57.0104 181.604C59.693 179.106 62.6656 180.821 62.7018 180.859C62.8831 180.971 62.9193 181.194 62.8468 181.381C62.7381 181.567 62.5206 181.604 62.3393 181.53C62.2306 181.455 59.8017 180.076 57.4817 182.201C57.3367 182.276 57.1192 182.276 56.9741 182.126Z" fill="#AAAAAA"/>
<path d="M70.0053 170.25C61.4919 170.25 52.2468 166.808 41.0064 157.953C40.8733 157.853 40.8401 157.619 40.9398 157.485C41.0396 157.352 41.2724 157.318 41.4054 157.419C76.4237 185.086 91.8876 159.056 127.637 142.014C142.004 135.198 158.166 132.123 172.267 139.575C181.545 144.454 185.768 151.905 185.835 151.972C185.935 152.139 185.868 152.34 185.702 152.44C185.536 152.54 185.336 152.473 185.236 152.306C185.203 152.239 181.013 144.955 171.901 140.176C163.487 135.732 149.054 132.591 127.904 142.649C119.058 146.859 111.309 151.705 104.458 156.015C92.1204 163.734 81.7446 170.25 70.0053 170.25Z" fill="#AAAAAA"/>
<path d="M187.882 25.5585V48.9415C187.882 55.7462 182.382 61.25 175.582 61.25H62.1818C55.4152 61.25 49.8818 55.7462 49.8818 48.9415V25.5585C49.8818 18.7538 55.3818 13.25 62.1818 13.25H175.582C182.348 13.25 187.882 18.7205 187.882 25.5585Z" fill="white"/>
<path d="M187.882 25.4011V48.8753C187.882 55.7065 182.372 61.2319 175.559 61.2319C55.1733 61.1649 61.7853 61.3993 59.8818 61.0644C61.4514 59.2561 63.9559 57.9167 66.2935 57.1465C98.8195 46.2968 134.284 67.159 167.177 58.4525C172.654 57.0125 178.465 54.1327 180.168 48.7413C180.802 46.7656 180.802 44.6894 180.769 42.6467C180.735 37.7577 180.735 32.8686 180.702 27.9795C180.702 24.9657 180.568 16.6276 180.669 14.25C184.943 16.1253 187.882 20.4116 187.882 25.4011Z" fill="#E1E5FF"/>
<path d="M175.309 61.25H62.4544C55.5213 61.25 49.8818 55.6571 49.8818 48.7812V25.7188C49.8818 18.8429 55.5213 13.25 62.4544 13.25H175.309C182.242 13.25 187.882 18.8429 187.882 25.7188V48.7812C187.882 55.6571 182.242 61.25 175.309 61.25ZM62.4544 13.9409C55.8862 13.9409 50.5453 19.2377 50.5453 25.7517V48.8141C50.5453 55.3281 55.8862 60.6249 62.4544 60.6249H175.309C181.878 60.6249 187.218 55.3281 187.218 48.8141V25.7517C187.218 19.2377 181.878 13.9409 175.309 13.9409H62.4544Z" fill="#112544"/>
<path d="M83.7695 52.8341L77.411 49.4629L71.0193 52.8341C68.4362 54.2026 65.3894 51.9996 65.8861 49.0623L67.1115 41.9194L61.9451 36.8459C59.8587 34.7765 61.0179 31.205 63.8991 30.7711L71.0193 29.7364L74.2317 23.2277C75.5233 20.5908 79.2656 20.5908 80.5571 23.2277L83.7364 29.7364L90.8566 30.8045C93.771 31.2384 94.897 34.8099 92.8106 36.8793L87.6774 41.9194L88.8696 49.0623C89.3995 51.9996 86.3527 54.2026 83.7695 52.8341ZM77.7422 48.8621L84.1007 52.2333C86.2202 53.3681 88.6709 51.5323 88.2735 49.1958L87.0481 42.0529C87.015 41.8193 87.0813 41.5856 87.2469 41.4521L92.3801 36.412C94.069 34.7431 93.1417 31.8058 90.7904 31.4721L83.6702 30.4373C83.4383 30.404 83.2396 30.2704 83.1403 30.0702L79.961 23.5614C78.9013 21.3919 75.8545 21.3919 74.7947 23.5614L71.6154 30.0702C71.5161 30.2704 71.3174 30.404 71.0856 30.4373L63.9653 31.4721C61.614 31.8058 60.6536 34.7097 62.3757 36.412L67.5089 41.4521C67.6745 41.619 67.7407 41.8527 67.7076 42.0529L66.4822 49.1958C66.0848 51.5657 68.5355 53.3681 70.655 52.2333L77.0136 48.8621C77.2785 48.7619 77.5434 48.7619 77.7422 48.8621Z" fill="#E1E5FF"/>
<path d="M80.8818 173.362L84.0198 177.97L87.5715 183.25L96.8818 177.398L91.8818 170.503L90.2611 168.25L80.8818 173.362Z" fill="#FCBBA4"/>
<path d="M80.8818 173.795L84.2223 178.25C84.2561 178.19 84.3236 178.13 84.3236 178.069C84.7285 177.347 84.4248 176.474 84.661 175.691C84.9984 174.638 86.1456 174.006 87.2929 173.675C88.4401 173.344 89.6886 173.163 90.7009 172.591C91.1732 172.32 91.5782 171.989 91.8818 171.568L90.026 169.25L80.8818 173.795Z" fill="#E2805D"/>
<path d="M93.3191 170.317C93.6443 170.183 94.0021 170.25 94.1973 170.519C94.978 171.496 96.9947 173.719 98.7837 173.146C101.061 172.439 103.012 171.53 104.443 171.462C106.265 171.328 109.843 173.248 108.64 176.514C107.826 178.704 99.3692 183.958 94.7503 186.618C92.5709 187.865 89.8061 187.225 88.4074 185.069L86.0979 181.634C85.6751 181.028 85.9028 180.152 86.5208 179.815C86.5208 179.815 89.3832 178.232 92.3432 176.548C93.7094 175.774 91.0746 171.126 93.3191 170.317Z" fill="#8D95FF"/>
<path d="M90.9375 186.097C90.8386 185.924 90.8715 185.718 91.0363 185.614L103.365 177.308C103.53 177.205 103.727 177.239 103.826 177.412C103.925 177.584 103.892 177.791 103.727 177.894L91.399 186.2C91.2341 186.304 91.0364 186.235 90.9375 186.097Z" fill="#112544"/>
<path d="M96.7609 172.25C97.054 172.85 96.8342 173.53 95.8818 174.25Z" fill="white"/>
<path d="M95.9927 174.2C95.8743 174.114 95.8447 173.914 95.9335 173.8C96.259 173.371 96.3478 172.999 96.259 172.599C96.2294 172.456 96.3182 172.284 96.4662 172.255C96.6142 172.227 96.7918 172.313 96.8214 172.456C96.9694 172.999 96.851 173.571 96.407 174.143C96.3182 174.257 96.1111 174.286 95.9927 174.2Z" fill="#112544"/>
<path d="M97.1035 174.18C96.8667 174.095 96.8075 173.897 96.9851 173.784C97.6362 173.359 97.8138 172.991 97.6362 172.595C97.577 172.454 97.7546 172.284 98.0506 172.255C98.3466 172.227 98.7017 172.312 98.7609 172.454C99.0569 172.991 98.8201 173.557 97.9322 174.124C97.7546 174.265 97.3995 174.293 97.1035 174.18Z" fill="#112544"/>
<path d="M99.761 172.25C100.054 172.85 99.8342 173.53 98.8818 174.25Z" fill="white"/>
<path d="M98.9927 174.192C98.8743 174.106 98.8447 173.907 98.9335 173.793C99.259 173.366 99.3478 172.996 99.259 172.597C99.2294 172.455 99.3182 172.284 99.4662 172.255C99.6142 172.227 99.7918 172.312 99.8214 172.455C99.9694 172.996 99.851 173.565 99.407 174.135C99.3182 174.277 99.111 174.277 98.9927 174.192Z" fill="#112544"/>
<path d="M31.6714 144.25C30.5792 144.735 35.6762 142.518 20.8818 148.927L24.8535 159.25C25.8795 158.765 21.1466 160.982 34.8818 154.539L31.6714 144.25Z" fill="#FCBBA4"/>
<path d="M31.5588 144.25L25.8818 146.714C26.5049 147.429 27.8203 147.357 28.6857 147.786C29.7934 148.357 30.278 149.714 30.4511 151C30.6241 152.286 30.5549 153.607 31.0049 154.786C31.2126 155.321 31.5241 155.821 31.9049 156.25L34.8818 154.857L31.5588 144.25Z" fill="#E2805D"/>
<path d="M32.8656 157.002C32.9305 157.345 32.8007 157.722 32.4761 157.894C31.4049 158.512 28.9056 160.159 29.1003 162.149C29.3275 164.655 29.8144 166.851 29.6197 168.327C29.3924 170.248 26.8931 173.577 24.0366 171.69C22.0891 170.42 18.7782 160.639 17.1228 155.354C16.3437 152.849 17.5123 150.138 19.7845 149.074L23.4848 147.359C24.134 147.05 24.913 147.427 25.1078 148.148C25.1078 148.148 26.0491 151.442 27.0878 154.805C27.6396 156.35 32.5086 154.531 32.8656 157.002Z" fill="#8D95FF"/>
<path d="M23.243 166.033L17.9061 151.726C17.8414 151.553 17.9061 151.345 18.1002 151.276C18.2619 151.207 18.456 151.276 18.5207 151.484L23.8576 165.791C23.9223 165.964 23.8576 166.172 23.6635 166.241C23.4694 166.276 23.3077 166.207 23.243 166.033Z" fill="#112544"/>
<path d="M29.8818 160.245C29.5414 160.29 29.201 160.019 28.8818 159.25Z" fill="white"/>
<path d="M27.9947 159.646C27.8174 159.55 27.8617 159.407 28.039 159.311C28.2164 159.215 28.4823 159.239 28.6597 159.335C29.1916 159.646 29.7679 159.814 30.3885 159.766C30.6102 159.766 30.8318 159.861 30.8761 159.981C30.9205 160.101 30.6988 160.22 30.4772 160.244C29.4576 160.292 28.6153 160.029 27.9947 159.646Z" fill="#112544"/>
<path d="M29.8818 161.245C29.201 161.29 28.5201 161.019 27.8818 160.25Z" fill="white"/>
<path d="M27.9572 161.045C27.8388 160.853 27.8684 160.565 27.9868 160.372C28.1053 160.18 28.2829 160.228 28.4014 160.42C28.7567 161.045 29.1416 161.382 29.5561 161.286C29.7042 161.286 29.8522 161.478 29.8818 161.718C29.8818 162.006 29.7634 162.199 29.6154 162.247C28.9343 162.295 28.4014 161.814 27.9572 161.045Z" fill="#112544"/>
<path d="M29.8818 163.245C29.201 163.29 28.5201 163.019 27.8818 162.25Z" fill="white"/>
<path d="M27.9571 162.646C27.8389 162.55 27.8684 162.407 27.9866 162.311C28.1049 162.215 28.2822 162.239 28.4004 162.335C28.755 162.646 29.1392 162.814 29.5529 162.766C29.7303 162.766 29.8485 162.861 29.878 162.981C29.9076 163.101 29.7598 163.22 29.6121 163.244C28.9323 163.292 28.4004 163.029 27.9571 162.646Z" fill="#112544"/>
<path d="M36.5421 158.553C37.1026 158.951 37.6301 159.217 38.1246 159.25C38.1246 159.25 85.205 154.372 83.8533 128.221C83.2598 116.473 71.193 107.281 62.2253 102.037C56.8183 98.8845 52.5323 97.1588 52.5323 97.1588C42.7404 91.3181 33.2781 95.234 23.8818 100.477L59.357 126.661L28.3657 139.471C25.7281 140.765 32.0253 155.234 36.5421 158.553Z" fill="#CEB7A1"/>
<path d="M36.4192 158.25C38.1868 156.599 39.5617 154.518 41.3621 152.899C48.3346 146.491 59.6607 147.515 67.1897 141.735C70.6268 139.093 72.9837 135.096 73.6711 130.769C74.3586 126.475 73.3438 121.917 70.9214 118.317C67.8116 113.693 62.705 110.918 57.8276 108.309C55.2088 106.922 52.5901 105.535 50.004 104.114C53.2775 104.445 56.7474 104.775 59.7589 103.454C60.5446 103.123 61.2975 102.595 61.9521 102C56.5837 98.8626 52.3282 97.1451 52.3282 97.1451C42.606 91.3319 33.2112 95.2294 23.8818 100.448L59.1042 126.508L28.3337 139.258C25.6822 140.546 31.9345 154.947 36.4192 158.25Z" fill="#EE4756"/>
<path d="M14.9577 95.7528C7.96685 116.82 18.2377 131.408 51.8002 137.522L76.4833 176.767C81.1218 179.724 97.025 168.326 94.6395 163.84C94.6395 163.84 76.0526 128.418 66.5769 119.578C59.1554 112.633 38.945 103.894 32.1862 97.9127C27.3821 93.6926 14.9577 95.7528 14.9577 95.7528Z" fill="#CEB7A1"/>
<path d="M81.3107 141.102C74.8607 130.236 69.8513 123.092 66.4135 119.869C60.9785 114.718 40.417 103.686 32.0353 97.871C31.8716 97.7713 31.8389 97.5719 31.9371 97.4058C32.0353 97.2396 32.2318 97.2064 32.3955 97.3061C40.7772 103.121 61.3386 114.153 66.8391 119.37C70.3097 122.627 75.3518 129.838 81.8345 140.737C81.9328 140.903 81.8673 141.102 81.7363 141.202C81.6053 141.302 81.4089 141.235 81.3107 141.102Z" fill="#112544"/>
<path d="M87.8818 78.9588C87.8818 78.9588 72.2898 88.0205 56.5289 82.4264C51.5003 80.6272 46.438 77.3558 41.8818 71.7944L42.8268 51.25C42.8268 51.25 59.4989 53.1147 63.5488 70.6821C63.7175 70.6821 70.5686 67.836 86.6331 69.9297C85.1819 72.8412 86.2281 76.0145 87.8818 78.9588Z" fill="#66D3D8"/>
<path d="M87.8818 78.7578C87.8818 78.7578 72.0801 88.1637 56.1074 82.3572C56.1758 82.1535 55.7312 81.8139 55.9364 81.712C60.246 82.0516 65.137 82.5609 69.4807 82.3232C73.7903 82.1195 78.1682 81.3385 82.1016 79.5728C82.8198 79.2332 83.5381 78.8936 84.0853 78.3164C84.6326 77.7391 84.9746 76.9242 84.8036 76.1771C84.6326 75.3961 84.0169 74.8189 83.6749 74.1397C82.9908 72.8154 83.3329 71.3213 84.3247 70.3027C84.6668 69.9291 85.0088 69.5896 85.3508 69.25C85.7613 69.284 86.1375 69.3519 86.5479 69.4198C85.1456 72.408 86.2059 75.7017 87.8818 78.7578Z" fill="#47B6C3"/>
<path d="M93.4769 62.8157C93.4108 63.0182 93.4439 63.2207 93.5761 63.3558L100.78 72.9762C103.457 76.5206 100.945 81.6853 96.5833 81.6515H84.7196C84.5214 81.6515 84.3561 81.7528 84.2239 81.9216L77.4825 91.9134C75.004 95.5928 69.4522 94.7827 68.0973 90.4956C63.0743 74.664 64.8257 80.1325 64.4292 78.9511C64.3631 78.7485 64.2309 78.6135 64.0326 78.546L52.6646 75.1029C48.4677 73.8201 47.5094 68.1829 51.0784 65.5499L60.6949 58.4274C60.8601 58.3261 60.9262 58.1236 60.9262 57.921L60.6288 45.8026C60.5297 41.313 65.4866 38.6463 69.0226 41.313L78.6061 48.4356C78.7713 48.5368 78.9696 48.5706 79.1348 48.5031C80.2914 48.098 74.9709 49.9883 90.3375 44.4861C94.4683 43.0008 98.5 46.9841 97.112 51.2711L93.4769 62.8157Z" fill="#FFC25E"/>
<path d="M93.5103 62.8664C93.4444 63.0686 93.4774 63.2708 93.609 63.4056L100.785 73.0106C103.451 76.5492 100.949 81.7056 96.6043 81.6719H84.7877C84.5902 81.6719 84.4257 81.773 84.294 81.9415L77.5793 91.9172C75.1107 95.5906 69.5809 94.7818 68.2314 90.5017L66.8818 86.2216C69.1201 83.5592 72.0824 81.5371 75.0777 79.7846C78.8959 77.5603 83.0432 75.4371 85.3144 71.5951C87.4868 67.989 87.5855 63.473 87.2893 59.2266C86.9931 55.115 86.2689 49.6891 87.6514 45.5775L90.4162 44.5664C94.5307 43.0835 98.5463 47.0603 97.1639 51.3404L93.5103 62.8664Z" fill="#EFA130"/>
<path d="M67.2136 90.3026L63.5223 78.8972C63.489 78.8305 63.4225 78.7638 63.356 78.7305L51.9164 75.3289C47.4271 73.995 46.4294 68.0588 50.2205 65.2909C60.3631 57.8541 59.9973 58.2876 59.9973 58.0542L59.698 46.0819C59.5983 41.3797 64.8857 38.5784 68.6768 41.3464C78.8527 48.7165 78.3206 48.5164 78.5866 48.4497L89.8599 44.4812C94.2828 42.9138 98.5727 47.1491 97.1095 51.5845C93.2519 63.5901 93.2852 62.9898 93.4514 63.2233L100.701 72.7277C103.561 76.4628 100.9 81.8653 96.2116 81.8653C88.829 81.8653 91.6557 81.8653 84.2732 81.8653C84.0071 81.8653 84.4394 81.4985 77.2897 91.8366C74.5961 95.6717 68.6435 94.7713 67.2136 90.3026ZM65.3513 40.9128C62.7242 40.9128 60.2633 43.0472 60.3299 46.0486L60.6291 58.0208C60.6291 58.321 60.4961 58.6211 60.2633 58.7879L50.5863 65.8245C47.2275 68.2589 48.1254 73.4947 52.0827 74.6953L63.5223 78.1302C63.8216 78.2303 64.0544 78.4304 64.1209 78.7305L67.8121 90.1358C69.0758 94.1043 74.33 94.8714 76.6911 91.4364L83.4751 81.5652C83.7744 81.165 84.2067 81.165 84.2399 81.165H96.1783C100.302 81.165 102.663 76.4294 100.136 73.1279L92.8861 63.6234C92.6866 63.39 92.6533 63.0565 92.7531 62.7897L96.4444 51.3844C97.7413 47.4492 93.9503 43.7141 90.0262 45.1148L78.7862 49.05C78.4869 49.15 78.1876 49.1167 77.9215 48.9166L68.2777 41.88C67.4131 41.213 66.3822 40.9128 65.3513 40.9128Z" fill="#112544"/>
<path d="M14.0554 97.3569C11.951 97.787 13.5802 86.8696 13.3087 80.7822C13.1729 78.0032 13.105 75.8528 13.0711 75.3235C11.0345 55.8044 25.6636 46.4749 45.9609 51.669C59.368 55.1097 52.1044 86.9357 57.2975 97.4562C62.287 107.778 34.2509 93.3208 14.0554 97.3569Z" fill="#66D3D8"/>
<path d="M14.9474 97.3305C13.2495 97.6625 14.0485 90.2923 14.215 84.25C16.6452 85.3788 17.7106 87.6695 19.5749 89.5619C21.7721 91.8194 24.8349 93.1806 27.931 93.745C37.6188 95.4714 46.4077 89.9935 55.696 91.3547C56.0289 93.7782 56.495 95.8698 57.294 97.4633C62.2544 107.788 34.7557 93.2802 14.9474 97.3305Z" fill="#47B6C3"/>
<path d="M54.5447 101.25C47.3206 101.25 28.706 94.4075 14.2914 97.3305C14.1234 97.3637 13.9218 97.2641 13.8882 97.0648C13.8546 96.8987 13.9554 96.6994 14.157 96.6662C31.2596 93.1785 54.343 103.243 56.9975 99.8881C57.4007 99.3899 57.2663 98.4931 56.6615 97.2641C52.5622 88.7608 56.2247 67.0707 51.3862 56.7073C51.319 56.5412 51.3862 56.3419 51.5542 56.2755C51.7222 56.209 51.9238 56.2755 51.991 56.4415C54.5783 61.9554 54.7799 70.4255 54.9815 78.6631C55.1831 86.0703 55.3511 93.0456 57.2663 96.9983C58.0055 98.5263 58.0727 99.6224 57.5015 100.32C56.9975 100.984 55.9895 101.25 54.5447 101.25Z" fill="#112544"/>
<path d="M60.3084 54.25L60.3736 56.9129C60.6996 57.6882 65.1007 54.6545 65.7527 55.7669C66.6982 57.3511 62.4927 59.9129 62.4927 59.9129C62.8839 60.8905 67.1546 57.014 67.5784 58.2612C68.263 60.25 63.4055 62.8455 63.4055 62.8455C63.6663 63.6208 67.5132 60.3848 67.8392 61.6657C68.3608 63.5534 63.9271 65.8118 63.9271 65.8118C64.0249 66.2163 67.448 64.0927 67.5458 65.441C67.7088 68.2388 58.6132 69.25 58.6132 69.25C54.8315 65.9803 54.6033 57.9916 60.3084 54.25Z" fill="#FCBBA4"/>
<path d="M14.2423 65.1631C13.8831 66.0202 13.7851 66.9762 13.9811 67.8663C16.9532 81.2505 22.2116 87.7449 28.3518 89.6239C39.3584 93.0854 53.1086 81.6461 60.8818 68.7894C59.0528 67.7674 55.2315 65.9213 55.7868 61.4379C43.2124 61.0753 34.1001 75.7452 34.0674 75.7782C32.6303 59.6577 25.7063 56.0644 25.7063 56.0644C21.2971 53.1634 17.2145 58.438 14.2423 65.1631Z" fill="#66D3D8"/>
<path d="M27.8818 89.62C39.0475 93.1031 52.9963 81.5923 60.8818 68.655C59.0264 67.6266 55.1499 65.769 55.7132 61.2575C52.433 61.158 49.3848 62.0537 46.668 63.4801C47.1318 64.6411 48.0595 65.6363 49.3186 65.9017C51.2071 66.3329 53.4933 65.4373 54.918 66.731C55.8126 67.5271 55.9451 68.9204 55.5806 70.0482C55.2162 71.1761 54.421 72.1381 53.6589 73.0338C50.6108 76.6496 47.5294 80.2654 43.8517 83.1846C40.1409 86.1037 35.7342 88.2931 31.0294 88.5917C29.8698 88.658 28.5114 88.7575 27.8818 89.62Z" fill="#47B6C3"/>
<path d="M32.8478 90.25C21.8572 90.25 16.4449 79.1782 13.8882 68.4722C13.855 68.3059 13.9546 68.1064 14.1206 68.0732C14.2866 68.0399 14.4859 68.1397 14.5191 68.3059C17.5407 80.9404 23.0858 88.2218 30.5567 89.4188C35.5041 90.1835 41.2484 88.3216 47.1256 83.966C52.3718 80.1092 57.3193 74.5899 61.1377 68.4057C59.2119 67.3749 55.7255 65.4465 56.0575 61.1907C56.0243 61.1907 55.9911 61.1907 55.9579 61.1907C43.7388 61.1907 34.674 75.3546 34.6076 75.4876C34.4416 75.7536 34.0099 75.6539 34.0099 75.3546C32.5822 59.4618 25.7421 55.7712 25.6757 55.7379C25.6757 55.7379 25.6425 55.7379 25.6425 55.7047C24.4139 54.9067 23.2186 54.7072 21.9568 55.1395C21.7908 55.2059 21.5916 55.1062 21.5252 54.94C21.4588 54.7737 21.5584 54.5742 21.7244 54.5077C23.1522 54.009 24.5799 54.2417 25.9745 55.1395C26.4394 55.4054 32.9474 59.1293 34.5412 74.3572C36.6995 71.2983 45.2994 60.1932 56.3896 60.5257C56.5888 60.5257 56.7216 60.692 56.7216 60.8915C56.1903 64.9811 59.4775 66.7765 61.4366 67.8404L61.7022 68.0067C61.8682 68.1064 61.9347 68.3059 61.835 68.4722C55.2938 79.3445 43.6724 90.25 32.8478 90.25Z" fill="#112544"/>
<path d="M33.8818 29.25C36.419 30.0041 38.0751 30.9221 37.8637 33.25L33.8818 29.25Z" fill="#112544"/>
<path d="M38.4765 48.6182L36.7437 45.058C37.2289 44.992 37.6794 44.8602 38.0953 44.6953C40.7637 43.5745 41.4914 40.7066 40.3825 37.5089C39.6894 35.4651 38.1646 33.2894 36.7091 31.773C36.2932 31.3444 35.8427 30.9488 35.4269 30.6192C34.7338 30.2236 33.8327 30.0258 32.8971 30.6522C32.8971 30.6522 31.5802 35.9596 24.268 36.5529C24.268 36.5529 28.0801 39.322 26.1047 41.1681C26.1047 41.1681 23.8868 39.4209 22.8818 39.4539L28.2533 50.9587C30.5752 55.9035 38.1646 54.8486 38.823 50.6291C38.8923 49.9368 38.7537 49.2445 38.4765 48.6182Z" fill="#FCBBA4"/>
<path d="M27.9077 50.5947C27.8402 50.4223 27.9077 50.2155 28.0765 50.1465C28.2454 50.0775 28.448 50.1465 28.5155 50.3189C30.609 55.1806 37.5987 54.1462 38.1727 50.0775C38.2065 49.9396 38.2065 49.7672 38.2065 49.5948C38.2065 49.3879 38.3416 49.25 38.5442 49.25C38.713 49.25 38.8818 49.3879 38.8818 49.5948C38.8818 49.8017 38.8818 49.9741 38.8481 50.181C38.1727 54.9393 30.2714 56.0771 27.9077 50.5947Z" fill="#112544"/>
<path d="M35.7813 28.9614C35.9106 30.2663 35.8782 31.2964 35.8782 31.2964C35.8782 31.2964 34.2307 28.6867 32.3247 30.1289C32.3247 30.1289 31.0972 35.6572 24.2809 36.2753C24.2809 36.2753 27.8344 39.1596 25.993 41.0825C25.993 41.0825 20.6305 36.344 23.3118 42.25C23.2795 42.2157 14.6218 37.3398 21.5996 34.0777C21.5996 34.0777 18.4338 29.9229 21.7934 28.6524C22.7626 28.309 24.0548 28.412 25.5408 27.0042C33.5846 19.2783 35.3937 25.2873 35.7813 28.9614Z" fill="#112544"/>
<path d="M32.8549 34.3149C33.0207 34.5387 32.399 35.0235 31.5699 35.5456C30.7409 36.0677 30.0777 36.4033 29.9119 36.1795C29.7461 35.9558 30.2849 35.3964 31.0725 34.8743C31.9016 34.3522 32.6891 34.1285 32.8549 34.3149Z" fill="#112544"/>
<path d="M36.8639 32.3298C36.9744 32.5519 36.5599 33.0329 36.0072 33.551C35.4546 34.0691 35.0124 34.4021 34.9019 34.1801C34.7913 33.9581 35.1506 33.403 35.6756 32.8849C36.2283 32.3668 36.7534 32.1078 36.8639 32.3298Z" fill="#112544"/>
<path d="M37.835 34.5934C38.0137 34.8646 37.6563 35.1359 37.1797 35.2263C36.6435 35.3167 36.1074 35.1359 35.9287 34.8948C35.7499 34.6235 36.1074 34.3523 36.584 34.292C37.1201 34.1715 37.6563 34.3222 37.835 34.5934Z" fill="#112544"/>
<path d="M33.835 36.9368C34.0137 37.4793 33.6563 38.0218 33.1797 38.2026C32.6435 38.3835 32.1074 38.0218 31.9287 37.5396C31.7499 36.9971 32.1074 36.4546 32.584 36.334C33.1201 36.0929 33.6563 36.3943 33.835 36.9368Z" fill="#112544"/>
<path d="M26.4001 40.23C27.1146 41.772 27.0253 43.4933 26.1917 44.0671C25.3582 44.6409 24.078 43.8161 23.3635 42.274C22.649 40.732 22.7383 39.0107 23.5719 38.4369C24.4055 37.8632 25.6559 38.6521 26.4001 40.23Z" fill="#FCBBA4"/>
<path d="M35.9904 44.6829C35.9904 44.6829 32.6559 44.9355 30.1798 44.262C29.9486 44.1778 29.7836 44.5566 29.9486 44.7671C30.8401 45.8614 32.92 47.7555 36.8818 47.1242L35.9904 44.6829Z" fill="#E2805D"/>
<path d="M35.9932 38.0498C35.9465 37.8761 35.9932 37.6678 36.1099 37.5983C36.3432 37.4247 36.4132 37.2858 36.4132 37.2164C36.3899 36.8691 35.6898 36.2441 35.0365 35.9315C34.9198 35.8621 34.8498 35.6537 34.8965 35.4801C34.9431 35.3065 35.0831 35.2023 35.1998 35.2718C35.5965 35.4801 36.8332 36.2093 36.8799 37.1816C36.9032 37.5983 36.7166 37.9456 36.3199 38.2234C36.1799 38.2928 36.0398 38.2234 35.9932 38.0498Z" fill="#E2805D"/>
<path d="M24.3818 41.1644L23.9544 40.701C23.8404 40.592 23.8689 40.4284 23.9829 40.3194C24.0969 40.2104 24.2679 40.2376 24.3818 40.3467L24.8093 40.8101C24.9233 40.9191 24.8948 41.0827 24.7808 41.1917C24.6668 41.2735 24.4958 41.2735 24.3818 41.1644Z" fill="#E2805D"/>
<path d="M35.8818 40.25C35.8818 40.8088 36.3263 41.25 36.8818 41.25C37.4374 41.25 37.8818 40.8088 37.8818 40.25C37.8818 39.6912 37.4374 39.25 36.8818 39.25C36.3263 39.25 35.8818 39.6912 35.8818 40.25Z" fill="#112544"/>
<path d="M26.1367 111.25C26.046 111.25 25.9855 111.218 25.925 111.155C25.8041 111.028 25.8041 110.839 25.925 110.712C27.7396 108.94 28.5259 107.231 28.1932 105.649C27.5884 102.58 23.1125 100.871 23.0822 100.871C22.931 100.808 22.8403 100.618 22.9008 100.46C22.9613 100.301 23.1427 100.207 23.2939 100.27C23.5056 100.333 28.1327 102.105 28.7981 105.523C29.161 107.326 28.3445 109.225 26.3484 111.187C26.288 111.218 26.2275 111.25 26.1367 111.25Z" fill="#112544"/>
<path d="M167.733 42.0963C167.635 42.1956 167.602 42.2948 167.635 42.4271L168.845 49.5056C169.303 52.1188 166.588 54.1034 164.265 52.8795L157.984 49.5387C157.886 49.4726 157.755 49.4726 157.657 49.5387L151.375 52.8795C149.053 54.1034 146.337 52.1188 146.795 49.5056L147.253 46.8925L148.006 42.4602C148.038 42.3279 147.973 42.2287 147.907 42.1294L142.837 37.1348C140.972 35.2824 141.986 32.0409 144.603 31.677L151.637 30.6516C151.768 30.6185 151.866 30.5524 151.899 30.4532L155.039 24.0362C156.217 21.6546 159.554 21.6546 160.732 24.0362L163.873 30.4532C163.938 30.5524 164.036 30.6185 164.134 30.6516C164.854 30.7509 161.517 30.2547 171.168 31.677C173.753 32.0409 174.8 35.2824 172.935 37.1348L167.733 42.0963Z" fill="#FFC25E"/>
<path d="M167.815 42.0304C167.717 42.1302 167.684 42.23 167.717 42.3631L168.924 49.4835C169.381 52.1121 166.673 54.1084 164.356 52.8773L158.092 49.5168C157.994 49.4502 157.863 49.4502 157.765 49.5168L151.501 52.8773C149.184 54.1084 146.476 52.1121 146.933 49.4835L147.389 46.855C149.315 46.0897 151.403 45.8568 153.491 45.7902C156.101 45.6904 158.907 45.757 161.159 44.3595C163.279 43.0619 164.585 40.6995 165.563 38.3704C166.542 36.1078 167.619 33.0467 169.446 31.25L171.176 31.5162C173.753 31.8822 174.797 35.1429 172.937 37.0062L167.815 42.0304Z" fill="#EFA130"/>
<path d="M164.463 52.8341L157.912 49.4629L151.327 52.8341C148.665 54.2026 145.526 51.9996 146.038 49.0623L147.3 41.9194L141.977 36.8459C139.828 34.7765 141.022 31.205 143.991 30.7711L151.327 29.7364L154.636 23.2277C155.967 20.5908 159.823 20.5908 161.153 23.2277L164.429 29.7364L171.765 30.8045C174.768 31.2384 175.928 34.8099 173.778 36.8793L168.489 41.9194L169.718 49.0623C170.23 51.9662 167.125 54.2026 164.463 52.8341ZM158.219 48.8621L164.77 52.2333C166.954 53.3347 169.479 51.5657 169.069 49.1958L167.807 42.0529C167.773 41.8193 167.841 41.5856 168.012 41.4521L173.3 36.412C175.041 34.7431 174.085 31.8058 171.663 31.4721L164.327 30.4373C164.088 30.404 163.883 30.2704 163.781 30.0702L160.505 23.5614C159.413 21.3919 156.274 21.3919 155.182 23.5614L151.907 30.0702C151.804 30.2704 151.599 30.404 151.361 30.4373L144.025 31.4721C141.602 31.8058 140.613 34.7097 142.387 36.412L147.676 41.4521C147.846 41.619 147.914 41.8527 147.88 42.0529L146.618 49.1958C146.208 51.5657 148.733 53.3681 150.917 52.2333L157.468 48.8621C157.775 48.7619 158.014 48.7619 158.219 48.8621Z" fill="#112544"/>
<path d="M127.541 41.7611C127.44 41.8633 127.406 41.9655 127.44 42.1018L128.688 49.3931C129.16 52.0847 126.36 54.129 123.965 52.8684L117.487 49.4272C117.386 49.359 117.251 49.359 117.15 49.4272L110.672 52.8343C108.277 54.095 105.476 52.0507 105.949 49.359C107.636 39.3761 107.062 42.8173 107.197 42.0677C107.231 41.9314 107.163 41.8292 107.096 41.727L101.866 36.5822C99.9433 34.6742 100.989 31.3352 103.688 30.9604L110.942 29.9042C111.077 29.8701 111.178 29.802 111.212 29.6997L114.451 23.0899C115.665 20.6367 119.107 20.6367 120.321 23.0899L123.56 29.6997C123.627 29.802 123.729 29.8701 123.83 29.9042C124.572 30.0064 121.131 29.4953 131.083 30.9604C133.749 31.3352 134.828 34.6742 132.905 36.5822L127.541 41.7611Z" fill="#FFC25E"/>
<path d="M127.59 42.0473C127.489 42.147 127.455 42.2467 127.489 42.3796L128.741 49.4892C129.214 52.1138 126.406 54.1071 124.003 52.8779L117.507 49.5224C117.405 49.456 117.27 49.456 117.168 49.5224L110.672 52.8447C108.269 54.0739 105.461 52.0806 105.935 49.456L106.408 46.8314C108.405 46.0673 110.57 45.8347 112.736 45.7683C115.443 45.6686 118.353 45.735 120.687 44.3397C122.887 43.044 124.24 40.6852 125.255 38.3596C126.27 36.1005 127.387 33.044 129.282 31.25L131.075 31.5158C133.748 31.8812 134.831 35.137 132.902 36.9975L127.59 42.0473Z" fill="#EFA130"/>
<path d="M123.77 52.8341L117.411 49.4629L111.019 52.8341C108.436 54.2026 105.389 51.9996 105.886 49.0623L107.111 41.9194L101.945 36.8459C99.8587 34.7765 101.018 31.205 103.899 30.7711L111.019 29.7364L114.232 23.2277C115.523 20.5908 119.266 20.5908 120.557 23.2277L123.736 29.7364L130.857 30.8045C133.771 31.2384 134.897 34.8099 132.811 36.8793L127.677 41.9194L128.87 49.0623C129.399 51.9662 126.353 54.2026 123.77 52.8341ZM117.709 48.8621L124.068 52.2333C126.187 53.3347 128.638 51.5657 128.24 49.1958L127.015 42.0529C126.982 41.8193 127.048 41.5856 127.214 41.4521L132.347 36.412C134.036 34.7431 133.109 31.8058 130.757 31.4721L123.637 30.4373C123.405 30.404 123.207 30.2704 123.107 30.0702L119.928 23.5614C118.868 21.3919 115.821 21.3919 114.762 23.5614L111.582 30.0702C111.483 30.2704 111.284 30.404 111.052 30.4373L103.932 31.4721C101.581 31.8058 100.62 34.7097 102.343 36.412L107.476 41.4521C107.641 41.619 107.708 41.8527 107.674 42.0529L106.449 49.1958C106.052 51.5657 108.502 53.3681 110.622 52.2333L116.98 48.8621C117.279 48.7619 117.51 48.7619 117.709 48.8621Z" fill="#112544"/>
<path d="M87.7024 85.4888C89.6085 83.9937 89.0193 78.5569 87.2519 78.8288C85.9003 79.0327 86.628 81.7171 86.628 81.7171C86.628 81.7171 84.6526 77.8434 83.405 78.2851C82.6772 78.5569 82.9198 79.9841 84.5487 82.4646C84.5487 82.4646 82.1227 78.2171 81.2563 78.7948C80.1127 79.5763 82.4693 83.1782 82.4693 83.1782C82.4693 83.1782 80.8751 80.4258 80.0087 81.0375C79.0037 81.785 80.8751 83.8918 80.8751 83.8918C80.8751 83.8918 80.0087 82.1248 79.1423 83.0083C78.4145 83.7559 79.3156 85.6587 80.5632 86.95C82.0534 88.4451 82.7466 89.3965 87.7024 85.4888Z" fill="#FCBBA4"/>
<path d="M156.882 87.25V113.393C156.782 113.426 156.682 113.426 156.615 113.459C144.769 116.594 133.123 114.66 133.123 114.66C130.053 114.46 126.816 112.926 126.883 110.292C128.084 110.325 129.319 110.625 130.52 110.825C141.866 112.693 153.078 105.023 154.846 92.852C155.113 91.0514 154.946 89.2507 155.213 87.4834C156.148 87.4167 156.848 87.25 156.882 87.25Z" fill="#E1E5FF"/>
<path d="M133.676 114.651C127.306 114.224 125.697 109.593 128.144 107.556C124.926 105.684 125.697 102.464 127.273 101.479C122.981 100.132 122.512 96.9129 124.054 95.1391C120.467 94.4493 117.785 92.1827 119.327 88.9635C120.836 85.8428 129.116 87.6166 134.313 86.3355C136.962 85.6785 136.492 81.3096 135.587 77.7619C134.883 74.8383 136.325 72.3418 139.007 71.0278C139.744 70.6665 140.549 70.4037 141.32 70.2723C142.158 70.1409 142.963 70.6008 143.298 71.3563C143.633 72.1447 143.969 73.1302 144.337 74.2471C144.874 75.791 145.444 77.532 146.181 79.2401C147.623 82.5907 149.266 84.923 151.21 86.3355C152.752 87.4852 155.535 87.3538 157.48 87.0254C157.681 86.9925 157.882 87.1568 157.882 87.3538V113.108C157.882 113.239 157.781 113.37 157.647 113.403C157.58 113.436 157.513 113.436 157.446 113.469C157.412 113.469 157.379 113.469 157.345 113.502C149.567 115.506 139.61 115.637 133.676 114.651ZM141.622 70.8636C141.286 70.8636 140.281 71.0935 139.308 71.5534C136.928 72.736 135.587 74.904 136.224 77.5648C137.599 83.0506 136.995 86.3027 134.447 86.9268C129.452 88.1751 121.137 86.6312 119.897 89.2262C118.455 92.2812 121.473 94.1536 124.825 94.5806C125.127 94.6135 125.227 95.0077 124.959 95.1719C123.316 96.1902 123.048 99.8694 128.278 101.052C128.614 101.118 128.614 101.578 128.312 101.676C126.099 102.497 125.63 105.618 128.915 107.228C129.15 107.359 129.15 107.687 128.915 107.819C126.803 108.936 127.004 113.567 133.71 114.027C133.844 114.06 145.477 115.9 157.178 112.878H157.211V87.748C156.943 87.7809 156.407 87.8466 155.904 87.9123C154.362 88.0108 152.216 87.9451 150.808 86.894C148.796 85.3829 147.053 82.9849 145.578 79.5358C144.304 76.645 143.399 73.3601 142.661 71.652C142.527 71.1593 142.091 70.8636 141.622 70.8636Z" fill="#112544"/>
<path d="M145.882 79.2499C139.214 79.2834 138.762 73.4844 138.901 71.0039C139.665 70.6351 140.464 70.4005 141.193 70.2664C141.923 70.1659 142.582 70.5346 142.86 71.1715C143.659 73.0821 144.527 76.1995 145.882 79.2499Z" fill="#E1E5FF"/>
<path d="M155.882 88.5075V110.992C155.882 113.354 157.782 115.25 160.148 115.25H165.615C167.982 115.25 169.882 113.354 169.882 110.992V88.5075C169.882 86.1459 167.982 84.25 165.615 84.25H160.148C157.782 84.25 155.882 86.1459 155.882 88.5075Z" fill="#8D95FF"/>
<path d="M129.538 95.25C126.535 95.25 124.266 94.812 124.133 94.7846C123.966 94.7572 123.833 94.5929 123.899 94.456C123.933 94.3192 124.133 94.2096 124.3 94.2644C124.366 94.2644 129.437 95.2774 134.475 94.2644C134.642 94.237 134.842 94.3192 134.875 94.456C134.909 94.5929 134.809 94.7572 134.642 94.7846C132.84 95.1405 131.106 95.25 129.538 95.25Z" fill="#112544"/>
<path d="M131.103 102.25C129.284 102.25 128.213 102.014 128.115 101.988C127.953 101.936 127.856 101.805 127.888 101.674C127.921 101.543 128.115 101.464 128.278 101.491C128.31 101.491 131.232 102.145 135.486 101.255C135.648 101.229 135.843 101.307 135.876 101.438C135.908 101.569 135.811 101.726 135.648 101.753C133.895 102.145 132.336 102.25 131.103 102.25Z" fill="#112544"/>
<path d="M131.643 108.25C129.765 108.25 128.19 107.846 128.123 107.817C127.955 107.759 127.855 107.615 127.888 107.47C127.922 107.326 128.123 107.239 128.291 107.268C128.324 107.268 131.743 108.163 134.425 107.268C134.593 107.21 134.794 107.297 134.861 107.441C134.928 107.586 134.827 107.759 134.66 107.817C133.688 108.163 132.615 108.25 131.643 108.25Z" fill="#112544"/>
<path d="M145.575 79.25C140.771 79.25 138.703 75.9025 138.894 71.2411C138.894 71.116 138.958 71.0221 139.053 70.9908C139.753 70.6467 140.516 70.3964 141.248 70.2713C142.043 70.1461 142.807 70.5841 143.125 71.3037C143.443 72.0545 143.761 72.993 144.111 74.0567C144.62 75.5271 145.161 77.1539 145.861 78.812C145.893 78.9059 145.893 79.031 145.829 79.0936C145.766 79.1874 145.67 79.2187 145.575 79.25ZM139.53 71.4601C139.403 75.4645 141.057 78.4366 145.129 78.6243C144.016 75.9651 143.22 73.1495 142.552 71.5539C142.362 71.0847 141.853 70.8031 141.344 70.897C140.739 70.9908 140.103 71.1785 139.53 71.4601Z" fill="#112544"/>
<path d="M163.576 109.25H161.188C161.004 109.25 160.882 109.05 160.882 108.75C160.882 108.45 161.004 108.25 161.188 108.25H163.576C163.759 108.25 163.882 108.45 163.882 108.75C163.882 109.05 163.729 109.25 163.576 109.25Z" fill="#112544"/>
<path d="M113.615 124.265C112.382 126.314 111.389 128.561 111.389 130.642C111.389 133.021 112.724 135.036 112.416 137.481C112.142 139.761 110.327 142.206 108.033 143.395C105.19 144.882 102.039 144.287 100.224 142.701C100.122 142.602 99.9846 142.503 99.8818 142.404C101.56 143.098 103.786 143.098 105.978 142.074C108.443 140.917 110.533 138.571 111.08 136.391C111.663 134.012 110.567 132.096 110.841 129.816C111.08 127.801 112.382 125.653 113.82 123.671C114.163 123.208 114.539 122.746 114.882 122.25C114.471 122.878 114.026 123.572 113.615 124.265Z" fill="#E1E5FF"/>
<path d="M100.536 142.618C98.2697 140.527 96.1367 137.806 100.069 134.387C102.736 132.097 105.902 132.33 105.502 127.551C105.102 122.639 104.669 119.519 105.502 116.267C107.001 110.393 111.867 107.538 115.4 108.401C119.566 109.397 119.533 113.91 117.7 117.793C117.033 119.187 116.2 120.548 115.4 121.876C114.967 122.572 114.534 123.303 114.1 124.033C112.634 126.555 111.967 128.546 111.967 130.272C111.967 132.628 113.267 134.62 112.967 137.175C112.7 139.565 110.867 142.12 108.501 143.381C105.735 144.841 102.469 144.377 100.536 142.618ZM106.135 116.433C105.335 119.486 105.735 122.34 106.168 127.484C106.602 132.728 103.036 132.661 100.503 134.885C96.8033 138.071 99.0695 140.394 100.969 142.12C102.469 143.481 105.368 144.277 108.168 142.784C110.334 141.622 112.034 139.299 112.267 137.109C112.534 134.719 111.267 132.761 111.267 130.272C111.267 128.413 111.967 126.356 113.5 123.701C113.934 122.971 114.367 122.241 114.8 121.544C115.6 120.249 116.433 118.889 117.066 117.528C118.733 113.977 118.866 109.928 115.233 109.065C111.934 108.269 107.501 111.09 106.135 116.433Z" fill="#AAAAAA"/>
<path d="M102.645 155.776C102.579 155.676 97.5197 145.891 105.008 134.541C111.665 124.49 111.066 116.003 111.066 115.936C111.066 115.77 111.199 115.604 111.365 115.57C111.532 115.57 111.698 115.703 111.731 115.87C111.731 115.97 112.33 124.623 105.574 134.907C98.2852 145.924 103.178 155.376 103.244 155.443C103.344 155.609 103.278 155.809 103.111 155.909C102.912 156.009 102.712 155.942 102.645 155.776Z" fill="#AAAAAA"/>
<path d="M101.614 138.541C100.582 138.142 99.1177 138.608 98.4854 137.643C98.0194 136.977 98.1525 136.078 98.3522 132.717C98.4521 130.82 98.5852 128.889 98.1525 127.225C97.7199 125.561 96.6881 124.197 95.1238 124.097C92.2282 123.964 88.8001 128.324 91.0633 132.65C92.2948 134.98 94.6246 136.511 94.6579 139.706C94.6579 141.47 93.8924 143.434 94.0588 145.165C94.2252 146.762 95.3235 147.86 96.6881 147.894C98.3855 147.894 100.249 146.296 101.314 144.432C101.913 143.401 102.679 142.302 102.779 141.137C102.979 139.939 102.479 138.874 101.614 138.541Z" fill="#AAAAAA"/>
<path d="M96.754 148.027C95.2896 148.027 94.1247 146.828 93.9583 145.164C93.7586 143.434 94.5574 141.437 94.5574 139.706C94.5241 136.611 92.1943 135.013 90.9961 132.75C89.5317 129.988 90.2972 126.959 92.2609 125.162C94.6905 122.932 97.5195 123.83 98.3849 127.192C98.8175 128.889 98.7177 130.853 98.5846 132.75C98.4182 135.646 98.2185 136.877 98.6844 137.576C99.2835 138.441 100.715 137.975 101.746 138.408C102.678 138.774 103.211 139.872 103.078 141.17C102.945 142.369 102.179 143.467 101.58 144.532C100.582 146.163 98.6844 148.027 96.754 148.027ZM91.2291 132.584C92.394 134.813 94.8236 136.478 94.8236 139.706C94.8236 141.403 94.0581 143.5 94.2246 145.131C94.391 146.562 95.3562 147.694 96.7207 147.694C98.4514 147.694 100.249 145.963 101.181 144.332C101.78 143.301 102.512 142.235 102.645 141.104C102.745 140.006 102.279 139.007 101.513 138.708C100.515 138.308 98.984 138.807 98.285 137.742C97.7525 136.944 97.9855 135.845 98.1186 132.717C98.2185 130.853 98.3516 128.922 97.9189 127.292C97.5528 125.894 96.6209 124.396 95.0566 124.296C92.3607 124.13 89.0325 128.357 91.2291 132.584Z" fill="#AAAAAA"/>
<path d="M100.815 147.356C100.615 144.793 99.7496 142.563 98.2186 140.799C93.9584 135.84 94.2912 129.383 94.2912 129.117C94.2912 128.917 94.4576 128.784 94.6573 128.818C94.857 128.818 94.9902 128.984 94.9569 129.184C94.9569 129.25 94.6573 135.641 98.7178 140.4C100.315 142.264 101.247 144.594 101.48 147.323C101.48 147.522 101.347 147.656 101.181 147.689C100.981 147.689 100.848 147.556 100.815 147.356Z" fill="#AAAAAA"/>
<path d="M117.29 158.675C117.157 158.542 117.19 158.342 117.323 158.209C119.786 155.979 122.515 157.51 122.548 157.543C122.715 157.643 122.748 157.843 122.682 158.009C122.582 158.176 122.382 158.209 122.216 158.142C122.116 158.076 119.886 156.844 117.756 158.742C117.623 158.808 117.423 158.808 117.29 158.675Z" fill="#AAAAAA"/>
<path d="M146.579 151.683C146.446 151.55 146.479 151.35 146.612 151.217C149.075 148.987 151.804 150.518 151.838 150.551C152.004 150.651 152.037 150.851 151.971 151.017C151.871 151.184 151.671 151.217 151.505 151.15C151.405 151.084 149.175 149.852 147.045 151.749C146.912 151.816 146.712 151.816 146.579 151.683Z" fill="#AAAAAA"/>
<path d="M136.927 166.331C136.793 166.198 136.827 165.998 136.96 165.865C139.423 163.635 142.152 165.166 142.185 165.2C142.352 165.299 142.385 165.499 142.318 165.666C142.218 165.832 142.019 165.865 141.852 165.799C141.753 165.732 139.523 164.501 137.393 166.398C137.259 166.464 137.06 166.464 136.927 166.331Z" fill="#AAAAAA"/>
<path d="M167.547 155.011C167.414 154.878 167.447 154.678 167.58 154.545C170.043 152.315 172.772 153.846 172.805 153.879C172.972 153.979 173.005 154.179 172.938 154.345C172.839 154.512 172.639 154.545 172.472 154.478C172.373 154.412 170.143 153.18 168.013 155.077C167.879 155.144 167.68 155.144 167.547 155.011Z" fill="#AAAAAA"/>
<path d="M153.567 162.003C153.434 161.87 153.467 161.67 153.6 161.537C156.063 159.307 158.793 160.838 158.826 160.872C158.992 160.971 159.026 161.171 158.959 161.337C158.859 161.504 158.659 161.537 158.493 161.471C158.393 161.404 156.163 160.173 154.033 162.07C153.9 162.136 153.7 162.136 153.567 162.003Z" fill="#AAAAAA"/>
<path d="M120.286 170.659C120.153 170.526 120.186 170.327 120.319 170.193C122.782 167.963 125.511 169.494 125.545 169.528C125.711 169.628 125.744 169.827 125.678 169.994C125.578 170.16 125.378 170.193 125.212 170.127C125.112 170.06 122.882 168.829 120.752 170.726C120.619 170.792 120.419 170.792 120.286 170.659Z" fill="#AAAAAA"/>
<path d="M36.0808 167.995C35.9477 167.862 35.981 167.662 36.1141 167.529C38.577 165.299 41.3062 166.83 41.3395 166.864C41.5059 166.964 41.5392 167.163 41.4726 167.33C41.3728 167.496 41.1731 167.529 41.0067 167.463C40.9068 167.396 38.6769 166.165 36.5468 168.062C36.4137 168.128 36.214 168.128 36.0808 167.995Z" fill="#AAAAAA"/>
<path d="M71.6931 184.3C71.56 184.167 71.5933 183.967 71.7264 183.834C74.1893 181.604 76.9185 183.135 76.9518 183.168C77.1182 183.268 77.1515 183.468 77.0849 183.634C76.9851 183.801 76.7854 183.834 76.619 183.767C76.5191 183.701 74.2892 182.469 72.1591 184.367C72.026 184.433 71.8263 184.433 71.6931 184.3Z" fill="#AAAAAA"/>
</svg>
