<svg width="222" height="200" viewBox="0 0 222 200" fill="none" xmlns="http://www.w3.org/2000/svg">
<g clip-path="url(#clip0_1265_3035)">
<path opacity="0.2" d="M97.2763 5.38281H97.276C43.5584 5.38281 0.0117188 48.9295 0.0117188 102.647V102.647C0.0117188 156.365 43.5584 199.912 97.276 199.912H97.2763C150.994 199.912 194.541 156.365 194.541 102.647V102.647C194.541 48.9295 150.994 5.38281 97.2763 5.38281Z" fill="#CEB7A1"/>
<path d="M93.6079 49.1851C93.6079 49.1851 94.5684 63.7204 82.082 71.0444C85.9907 76.518 91.9862 83.0566 100.812 87.8241C130.218 103.706 163.363 84.9712 166.369 83.2111C169.334 68.4343 169.958 53.283 168.216 38.3125L93.6079 49.1851Z" fill="#080717"/>
<path d="M124.84 87.3006C124.84 87.3006 95.6904 84.5606 87.5503 99.8234C79.4101 115.086 72.542 168.76 72.542 168.76L98.9309 171.812L124.84 87.3006Z" fill="#CEB7A1"/>
<path d="M50.1155 0.578125C63.4735 0.578125 74.3022 11.4069 74.3022 24.7649C74.3058 28.1526 73.5959 31.5031 72.2186 34.5983C70.8413 37.6934 68.8275 40.4637 66.3084 42.7289L72.8153 50.9824C72.9083 51.1003 72.9604 51.2452 72.9638 51.3954C72.9672 51.5455 72.9218 51.6927 72.8342 51.8147C72.7467 51.9367 72.6218 52.0269 72.4785 52.0718C72.3352 52.1166 72.1812 52.1137 72.0397 52.0634L58.7771 47.3471C56.0129 48.4093 53.0767 48.9533 50.1155 48.952C36.7575 48.952 25.9287 38.1233 25.9287 24.7652C25.9287 11.4072 36.7569 0.578125 50.1155 0.578125Z" fill="white"/>
<path d="M72.2768 52.585C72.1405 52.585 72.0053 52.5615 71.8769 52.5157L58.7827 47.86C56.012 48.9021 53.0758 49.4349 50.1156 49.4327C36.5107 49.4327 25.4424 38.3641 25.4424 24.7595C25.4424 11.1549 36.5107 0.0859375 50.1156 0.0859375C63.7204 0.0859375 74.7889 11.1545 74.7889 24.7593C74.7855 28.1373 74.0899 31.4789 72.745 34.5777C71.4 37.6765 69.4343 40.4668 66.9691 42.7764L73.1973 50.6754C73.3339 50.8489 73.419 51.0574 73.443 51.277C73.467 51.4966 73.4289 51.7185 73.333 51.9174C73.2371 52.1164 73.0872 52.2845 72.9005 52.4025C72.7138 52.5205 72.4977 52.5838 72.2768 52.585ZM58.7771 46.8552C58.8326 46.8553 58.8877 46.8647 58.94 46.8831L72.2027 51.5988C72.2449 51.6139 72.2908 51.615 72.3335 51.6017C72.3763 51.5884 72.4136 51.5615 72.4397 51.5252C72.4658 51.4888 72.4793 51.4449 72.4783 51.4002C72.4772 51.3554 72.4616 51.3123 72.4338 51.2772L65.9264 43.0239C65.85 42.9271 65.8133 42.8048 65.8238 42.6819C65.8342 42.559 65.8909 42.4446 65.9824 42.3619C68.4456 40.138 70.4154 37.4225 71.7646 34.3905C73.1138 31.3586 73.8126 28.0775 73.8159 24.7589C73.8159 11.6904 63.1837 1.05822 50.1152 1.05822C37.0468 1.05822 26.4147 11.6904 26.4147 24.7589C26.4147 37.8273 37.0465 48.46 50.1156 48.46C53.0175 48.4623 55.8949 47.9295 58.6035 46.8881C58.6589 46.8667 58.7177 46.8555 58.7771 46.8552Z" fill="#090817"/>
<path d="M134.102 86.6468C143.335 84.8224 158.089 83.5407 170.732 91.6036C174.462 93.9822 176.794 96.4002 178.363 98.0474C195.024 115.543 211.541 133.374 218.386 140.783L204.14 157.063C174.848 140.366 150.64 116.027 134.102 86.6457V86.6468Z" fill="white"/>
<path d="M204.14 157.545C204.056 157.545 203.973 157.523 203.899 157.482C174.531 140.741 150.26 116.34 133.678 86.8814C133.64 86.8144 133.619 86.7394 133.616 86.6625C133.612 86.5856 133.628 86.5091 133.66 86.4392C133.692 86.3693 133.74 86.308 133.8 86.2603C133.861 86.2127 133.932 86.1801 134.007 86.1651C148.753 83.2529 161.197 84.9413 170.994 91.1895C174.85 93.6485 177.269 96.1899 178.716 97.7082C193.644 113.384 208.722 129.604 218.743 140.449C218.824 140.537 218.87 140.652 218.872 140.772C218.873 140.892 218.831 141.008 218.752 141.099L204.506 157.378C204.461 157.431 204.404 157.473 204.341 157.501C204.278 157.53 204.21 157.545 204.14 157.545ZM134.857 86.9915C151.28 115.92 175.172 139.905 204.037 156.439L217.732 140.788C207.715 129.948 192.789 113.896 178.012 98.3788C176.597 96.8928 174.228 94.4051 170.471 92.0092C161.039 85.9942 149.06 84.3078 134.857 86.9915Z" fill="#090817"/>
<path d="M171.24 196.069C168.262 178.084 167.012 159.855 167.51 141.632C168.23 114.823 172.237 105.698 165.636 97.0169C160.895 90.7825 152.311 86.92 142.627 85.4425C141.751 85.3071 140.953 84.8626 140.376 84.1893C139.8 83.516 139.483 82.6586 139.484 81.7722V66.2188H120.742V82.2735C120.739 83.3219 120.39 84.3398 119.749 85.1697C119.108 85.9997 118.212 86.5953 117.199 86.8643C108.63 89.1888 101.055 93.4365 96.4449 99.6223C91.2845 106.548 92.0122 112.989 92.5528 144.685C92.9333 166.976 92.9346 184.954 92.884 196.225L171.24 196.069Z" fill="white"/>
<path d="M92.8838 196.705C92.8198 196.705 92.7563 196.692 92.6972 196.668C92.638 196.643 92.5843 196.607 92.5391 196.562C92.4939 196.516 92.4581 196.462 92.4338 196.403C92.4095 196.344 92.3972 196.28 92.3975 196.216C92.4731 179.33 92.361 161.993 92.0661 144.687C92.011 141.445 91.9535 138.467 91.9009 135.726C91.434 111.446 91.3229 105.677 96.055 99.3258C100.476 93.3927 107.743 88.9198 117.071 86.3889C117.98 86.1457 118.784 85.6106 119.36 84.8659C119.935 84.1213 120.25 83.2083 120.256 82.2674V66.2129C120.256 66.0839 120.307 65.9602 120.398 65.869C120.489 65.7778 120.613 65.7266 120.742 65.7266H139.484C139.613 65.7266 139.737 65.7778 139.828 65.869C139.919 65.9602 139.97 66.0839 139.97 66.2129V81.7657C139.965 82.5369 140.238 83.2841 140.74 83.87C141.241 84.456 141.937 84.8413 142.7 84.9553C153.191 86.5567 161.474 90.7336 166.023 96.7167C170.698 102.865 170.195 109.052 169.193 121.379C168.758 126.722 168.218 133.373 167.995 141.639C167.502 159.831 168.749 178.029 171.72 195.983C171.731 196.053 171.728 196.124 171.709 196.192C171.69 196.26 171.657 196.323 171.611 196.377C171.566 196.431 171.509 196.474 171.445 196.504C171.381 196.534 171.312 196.549 171.241 196.55L92.8848 196.705H92.8838ZM121.228 66.6988V82.2677C121.222 83.4222 120.837 84.5426 120.132 85.4568C119.426 86.3709 118.441 87.0282 117.326 87.3275C108.21 89.801 101.124 94.1508 96.8348 99.9074C92.3016 105.991 92.4114 111.696 92.8735 135.708C92.9262 138.449 92.9829 141.428 93.0387 144.671C93.3313 161.817 93.4434 178.993 93.3721 195.731L170.667 195.578C167.753 177.745 166.533 159.676 167.023 141.613C167.246 133.321 167.788 126.655 168.223 121.3C169.206 109.221 169.699 103.157 165.249 97.3057C160.853 91.5249 152.793 87.48 142.553 85.9165C141.56 85.7686 140.654 85.2673 140.001 84.5048C139.348 83.7423 138.991 82.7697 138.998 81.7657V66.6992L121.228 66.6988Z" fill="#090817"/>
<path d="M162.48 43.2354C162.484 41.5147 162.354 39.7964 162.091 38.0961C159.314 20.2086 142.562 7.9594 124.675 10.7364C108.477 13.2511 96.9033 27.2249 96.9229 43.1244H96.9219C95.9254 43.1249 94.9401 43.3344 94.0297 43.7395C93.1192 44.1447 92.3039 44.7363 91.6365 45.4763C90.969 46.2162 90.4643 47.088 90.1548 48.0352C89.8454 48.9825 89.7382 49.9841 89.8401 50.9754C89.942 51.9667 90.2508 52.9255 90.7465 53.79C91.2422 54.6545 91.9138 55.4053 92.7178 55.994C93.5219 56.5826 94.4405 56.996 95.4144 57.2074C96.3882 57.4188 97.3955 57.4235 98.3713 57.2212C100.518 66.2137 106.948 78.9368 126.094 80.9648C145.653 83.0365 156.09 70.3567 160.288 57.2948C162.138 57.554 164.016 57.0753 165.516 55.9619C167.016 54.8486 168.018 53.1901 168.306 51.3443C168.593 49.4985 168.144 47.6136 167.054 46.0964C165.964 44.5793 164.321 43.5517 162.48 43.2354Z" fill="white"/>
<path d="M130.246 81.6756C128.842 81.6737 127.439 81.5976 126.042 81.4477C107.341 79.4668 100.464 67.5875 98.0066 57.778C96.9922 57.9246 95.9587 57.8647 94.968 57.6019C93.9773 57.3392 93.0499 56.879 92.2414 56.249C91.433 55.619 90.7601 54.8321 90.2633 53.9356C89.7665 53.0391 89.4559 52.0515 89.3502 51.032C89.2444 50.0126 89.3458 48.9822 89.6481 48.0029C89.9504 47.0235 90.4475 46.1154 91.1094 45.3329C91.7714 44.5504 92.5847 43.9097 93.5004 43.4492C94.4161 42.9888 95.4154 42.7181 96.4383 42.6534C96.5519 34.7977 99.4416 27.2357 104.596 21.3062C109.75 15.3767 116.836 11.4622 124.599 10.2559C142.723 7.44294 159.757 19.8973 162.571 38.0214C162.817 39.6148 162.949 41.2238 162.964 42.836C164.787 43.2526 166.393 44.3261 167.474 45.8516C168.556 47.377 169.037 49.2474 168.827 51.1055C168.617 52.9636 167.729 54.679 166.334 55.9242C164.939 57.1694 163.134 57.8569 161.264 57.8556C161.06 57.8556 160.852 57.8456 160.627 57.8242C158.923 62.9728 155.585 70.0292 149.259 75.1817C143.957 79.4994 137.575 81.6756 130.246 81.6756ZM98.3714 56.7347C98.4806 56.7348 98.5867 56.7717 98.6724 56.8394C98.7581 56.9071 98.8186 57.0017 98.844 57.108C101.132 66.6939 107.726 78.5305 126.145 80.4809C133.756 81.2863 152.278 80.6286 159.824 57.146C159.859 57.0369 159.931 56.9436 160.028 56.8827C160.125 56.8217 160.24 56.797 160.354 56.813C162.077 57.0535 163.825 56.607 165.222 55.5698C166.619 54.5327 167.552 52.9879 167.82 51.2689C168.088 49.5499 167.67 47.7944 166.655 46.3812C165.64 44.9679 164.111 44.0102 162.396 43.7147C162.283 43.6952 162.181 43.6363 162.107 43.5484C162.033 43.4605 161.992 43.3494 161.993 43.2346C161.997 41.5391 161.869 39.8459 161.609 38.1704C158.878 20.5768 142.345 8.48246 124.748 11.217C117.134 12.3999 110.194 16.2658 105.181 22.1169C100.167 27.968 97.4106 35.4187 97.4087 43.1239C97.4088 43.1878 97.3963 43.2511 97.3719 43.3101C97.3474 43.3692 97.3116 43.4228 97.2665 43.468C97.2213 43.5131 97.1676 43.549 97.1086 43.5734C97.0496 43.5978 96.9863 43.6103 96.9224 43.6102C95.9939 43.6106 95.0759 43.8059 94.2276 44.1833C93.3793 44.5607 92.6196 45.112 91.9977 45.8014C91.3758 46.4908 90.9055 47.303 90.6172 48.1856C90.3289 49.0682 90.229 50.0014 90.3239 50.925C90.4189 51.8486 90.7066 52.742 91.1684 53.5474C91.6303 54.3529 92.256 55.0524 93.0052 55.6009C93.7544 56.1494 94.6103 56.5345 95.5176 56.7314C96.425 56.9284 97.3635 56.9327 98.2727 56.7442C98.3052 56.7378 98.3382 56.7346 98.3714 56.7347Z" fill="#090817"/>
<path d="M150.383 44.4806C150.277 44.4806 150.173 44.4455 150.089 44.3808C143.731 39.5195 137.532 42.545 137.271 42.6759C137.157 42.7304 137.025 42.7379 136.905 42.6968C136.785 42.6558 136.686 42.5694 136.629 42.4561C136.571 42.3429 136.561 42.2117 136.599 42.0906C136.637 41.9696 136.721 41.8682 136.832 41.8082C136.901 41.7725 143.823 38.3665 150.679 43.6076C150.76 43.6693 150.82 43.7549 150.85 43.8523C150.879 43.9497 150.878 44.0539 150.845 44.1503C150.812 44.2467 150.75 44.3305 150.667 44.3897C150.585 44.4489 150.485 44.4807 150.383 44.4805V44.4806Z" fill="#080717"/>
<path d="M107.705 42.8688C107.601 42.8691 107.5 42.836 107.416 42.7745C107.332 42.713 107.271 42.6262 107.24 42.5269C107.209 42.4277 107.211 42.3211 107.245 42.2229C107.279 42.1247 107.343 42.04 107.429 41.9813C109.219 40.7596 111.322 40.0778 113.488 40.017C115.726 39.9818 117.926 40.6045 119.814 41.8079C119.922 41.878 119.998 41.9882 120.025 42.1143C120.052 42.2404 120.028 42.3721 119.958 42.4804C119.888 42.5888 119.778 42.6648 119.652 42.6919C119.526 42.719 119.394 42.6949 119.286 42.6248C117.597 41.5294 115.622 40.9596 113.609 40.9878C111.596 41.0159 109.638 41.6406 107.98 42.7829C107.899 42.8388 107.804 42.8688 107.705 42.8688Z" fill="#080717"/>
<path d="M110.591 49.1654C110.085 49.1654 109.56 48.9641 109.046 48.389C109.001 48.3419 108.966 48.2861 108.943 48.2251C108.92 48.1641 108.909 48.099 108.911 48.0337C108.914 47.9685 108.93 47.9044 108.957 47.8453C108.985 47.7862 109.025 47.7333 109.073 47.6898C109.122 47.6463 109.179 47.613 109.241 47.592C109.303 47.571 109.368 47.5626 109.433 47.5674C109.498 47.5722 109.562 47.5901 109.62 47.6199C109.678 47.6498 109.729 47.6911 109.771 47.7413C110.436 48.4829 110.993 48.2124 112.004 47.6257C112.308 47.4409 112.623 47.276 112.948 47.1319C114.42 46.5173 115.854 47.3945 115.914 47.4326C116.024 47.5006 116.102 47.6095 116.131 47.7351C116.161 47.8608 116.139 47.993 116.071 48.1026C116.003 48.2122 115.894 48.2903 115.768 48.3197C115.643 48.3491 115.511 48.3274 115.401 48.2593C115.387 48.2508 114.325 47.614 113.323 48.03C113.037 48.1581 112.759 48.3043 112.492 48.4677C111.948 48.7827 111.288 49.1654 110.591 49.1654Z" fill="#080717"/>
<path d="M114.305 53.619C116.173 53.619 117.688 52.104 117.688 50.2353C117.688 48.3665 116.173 46.8516 114.305 46.8516C112.436 46.8516 110.921 48.3665 110.921 50.2353C110.921 52.104 112.436 53.619 114.305 53.619Z" fill="#080717"/>
<path d="M128.059 59.2682C126.655 59.2682 124.533 59.0896 123.892 58.0671C123.678 57.7267 123.225 56.0406 126.36 48.6404C126.41 48.5216 126.506 48.4277 126.626 48.3793C126.745 48.3309 126.879 48.332 126.998 48.3823C127.117 48.4326 127.21 48.528 127.259 48.6476C127.307 48.7672 127.306 48.9011 127.256 49.0198C125.727 52.6279 124.342 56.9169 124.716 57.5504C125.138 58.2234 127.615 58.3696 129.158 58.2571C129.286 58.2502 129.41 58.2935 129.506 58.3776C129.602 58.4618 129.66 58.58 129.67 58.707C129.679 58.834 129.638 58.9596 129.556 59.0568C129.474 59.154 129.357 59.2151 129.23 59.2269C129.027 59.2421 128.595 59.2682 128.059 59.2682Z" fill="#080717"/>
<path d="M146.202 63.0457C148.783 62.9683 150.834 61.5399 150.783 59.8554C150.733 58.1709 148.6 56.8681 146.019 56.9456C143.439 57.0231 141.388 58.4515 141.438 60.136C141.489 61.8205 143.622 63.1232 146.202 63.0457Z" fill="#CEB7A1"/>
<path d="M111.943 63.2254C114.524 63.1479 116.575 61.7196 116.524 60.0351C116.474 58.3506 114.341 57.0478 111.76 57.1253C109.18 57.2028 107.129 58.6312 107.179 60.3157C107.23 62.0002 109.363 63.3029 111.943 63.2254Z" fill="#CEB7A1"/>
<path d="M94.207 43.66C94.207 43.66 105.763 47.5051 112.533 32.8571C119.302 18.2091 127.403 13.5264 140.762 14.1268C141.696 19.8782 143.361 25.4868 145.717 30.816C146.581 32.7628 153.091 47.418 158.444 46.5446C160.446 46.2181 161.173 43.9009 163.446 43.9935C165.535 44.0786 167.16 46.1269 168.209 47.8502C168.209 47.8502 172.011 15.564 147.638 10.3426C147.638 10.3426 125.111 0.278865 110.92 7.32263C96.729 14.3664 94.2458 29.2493 94.207 43.66Z" fill="#080717"/>
<path d="M117.421 86.3313C117.421 86.3313 132.086 93.1351 142.683 84.6103C142.683 84.6103 163.707 82.7086 176.244 94.1652C188.781 105.622 207.411 128.234 207.411 128.234L186.219 146.284C186.219 146.284 174.693 138.12 169.81 133.237L176.244 199.914H89.7998V124.032C89.7998 124.032 91.6235 97.8021 98.6911 93.1351C105.759 88.4681 117.421 86.3313 117.421 86.3313Z" fill="#CEB7A1"/>
<path d="M157.086 184.984C180.713 184.984 199.867 165.83 199.867 142.203C199.867 118.576 180.713 99.4219 157.086 99.4219C133.458 99.4219 114.305 118.576 114.305 142.203C114.305 165.83 133.458 184.984 157.086 184.984Z" fill="white"/>
<path d="M157.087 185.472C133.229 185.472 113.819 166.063 113.819 142.205C113.819 118.347 133.229 98.9375 157.087 98.9375C180.945 98.9375 200.354 118.347 200.354 142.205C200.354 166.063 180.945 185.472 157.087 185.472ZM157.087 99.9101C133.765 99.9101 114.792 118.883 114.792 142.205C114.792 165.527 133.765 184.5 157.087 184.5C180.408 184.5 199.382 165.527 199.382 142.205C199.382 118.883 180.408 99.9101 157.087 99.9101Z" fill="#090817"/>
<path d="M157.087 174.972C175.186 174.972 189.858 160.3 189.858 142.201C189.858 124.102 175.186 109.43 157.087 109.43C138.988 109.43 124.315 124.102 124.315 142.201C124.315 160.3 138.988 174.972 157.087 174.972Z" fill="white"/>
<path d="M157.087 175.46C138.748 175.46 123.829 160.541 123.829 142.203C123.829 123.865 138.748 108.945 157.087 108.945C175.425 108.945 190.344 123.865 190.344 142.203C190.344 160.541 175.425 175.46 157.087 175.46ZM157.087 109.918C139.285 109.918 124.802 124.401 124.802 142.203C124.802 160.005 139.285 174.488 157.087 174.488C174.889 174.488 189.371 160.005 189.371 142.203C189.371 124.401 174.889 109.918 157.087 109.918Z" fill="#090817"/>
<path d="M158.034 109.477H156.138C155.792 109.477 155.512 109.757 155.512 110.102V116.337C155.512 116.683 155.792 116.963 156.138 116.963H158.034C158.38 116.963 158.66 116.683 158.66 116.337V110.102C158.66 109.757 158.38 109.477 158.034 109.477Z" fill="#080717"/>
<path d="M158.034 167.484H156.138C155.792 167.484 155.512 167.765 155.512 168.11V174.345C155.512 174.691 155.792 174.971 156.138 174.971H158.034C158.38 174.971 158.66 174.691 158.66 174.345V168.11C158.66 167.765 158.38 167.484 158.034 167.484Z" fill="#080717"/>
<path d="M189.835 143.171V141.274C189.835 140.929 189.555 140.648 189.209 140.648H182.974C182.629 140.648 182.349 140.929 182.349 141.274V143.171C182.349 143.517 182.629 143.797 182.974 143.797H189.209C189.555 143.797 189.835 143.517 189.835 143.171Z" fill="#080717"/>
<path d="M131.824 143.171V141.274C131.824 140.929 131.544 140.648 131.198 140.648H124.964C124.618 140.648 124.338 140.929 124.338 141.274V143.171C124.338 143.517 124.618 143.797 124.964 143.797H131.198C131.544 143.797 131.824 143.517 131.824 143.171Z" fill="#080717"/>
<path d="M157.086 143.17C156.829 143.17 156.583 143.069 156.4 142.887C156.218 142.706 156.115 142.46 156.114 142.203L156.003 120.915C156.002 120.788 156.027 120.661 156.075 120.543C156.123 120.424 156.194 120.317 156.284 120.226C156.374 120.135 156.481 120.063 156.599 120.014C156.716 119.964 156.843 119.938 156.97 119.938H156.976C157.233 119.937 157.479 120.039 157.662 120.221C157.844 120.402 157.947 120.648 157.948 120.905L158.054 141.225L173.392 141.219C173.65 141.219 173.897 141.321 174.08 141.504C174.262 141.686 174.364 141.934 174.364 142.191C174.364 142.449 174.262 142.697 174.08 142.879C173.897 143.062 173.65 143.164 173.392 143.164L157.086 143.17H157.086Z" fill="#080717"/>
<path d="M89.6721 81.1311C89.6721 81.1311 90.0294 73.6782 90.0733 70.5315C90.1172 67.3847 89.9517 61.2101 88.203 61.9149C86.4543 62.6197 85.0695 78.9176 85.0695 78.9176C82.6794 74.6336 78.9164 78.6535 78.9164 78.6535C75.7039 74.5089 73.1815 79.228 73.1815 79.228C71.4615 77.5715 68.235 77.5371 67.9981 83.9288C67.8261 88.5739 70.3743 95.4362 71.7805 98.8418C69.7973 109.912 59.1711 174.094 79.0896 182.489C81.9186 183.682 86.5474 184.093 89.9499 181.932C96.6581 177.67 95.403 165.428 92.8921 139.692C92.2452 133.062 90.8892 119.12 88.9336 98.6174C91.3007 94.8923 92.277 88.3171 92.3656 87.1081C92.4851 85.4661 89.6721 81.1311 89.6721 81.1311Z" fill="white"/>
<path d="M84.1628 183.947C82.2218 183.947 80.3497 183.549 78.9002 182.938C58.902 174.51 68.9742 111.792 71.2762 98.8972C69.7707 95.2322 67.3401 88.5419 67.512 83.9124C67.663 79.8218 68.9989 78.437 70.0931 77.9953C71.0269 77.6178 72.1263 77.8129 73.0658 78.4988C73.5544 77.7953 74.5869 76.5929 75.9945 76.4741C77.0227 76.3868 78.0154 76.8826 78.959 77.9452C79.6399 77.3506 81.1053 76.2867 82.6772 76.481C83.4371 76.5742 84.1139 76.9389 84.6999 77.5686C85.201 72.0974 86.338 62.1445 88.0205 61.4653C88.1927 61.3912 88.3808 61.3619 88.5673 61.3804C88.7538 61.3988 88.9326 61.4643 89.0868 61.5708C90.1364 62.2898 90.6317 65.3075 90.559 70.5398C90.5196 73.4069 90.2167 79.9109 90.1649 81.0004C90.702 81.842 92.9702 85.5041 92.8496 87.145C92.7666 88.2863 91.839 94.8269 89.4326 98.7365C90.8517 113.612 92.1781 127.375 93.3753 139.646L93.4385 140.294C95.9623 166.154 97.1139 177.958 90.21 182.343C88.4062 183.489 86.2449 183.947 84.1628 183.947ZM71.0857 78.7765C70.8703 78.7756 70.6568 78.8166 70.457 78.8971C69.7797 79.1706 68.6229 80.1903 68.4837 83.9484C68.3165 88.4497 70.759 95.0962 72.2294 98.6572C72.2649 98.7431 72.2751 98.8374 72.2588 98.9289C71.2957 104.305 68.1204 123.278 67.7076 141.681C67.3476 157.717 69.0631 177.736 79.2782 182.042C82.0546 183.212 86.498 183.549 89.6885 181.522C96.0881 177.457 94.879 165.068 92.4706 140.388L92.4075 139.74C91.206 127.424 89.8738 113.604 88.449 98.6644C88.4386 98.5567 88.4645 98.4487 88.5226 98.3575C90.8569 94.6846 91.8029 88.1272 91.8799 87.0734C91.9587 85.9963 90.3173 83.0204 89.264 81.3975C89.2085 81.3119 89.1813 81.2111 89.186 81.1092C89.1899 81.0347 89.5437 73.6288 89.5864 70.526C89.6571 65.4392 89.11 62.7653 88.5369 62.3726C88.5041 62.3502 88.4742 62.3312 88.3844 62.3674C87.4616 62.9509 86.1931 71.4365 85.5534 78.9603C85.5445 79.064 85.5026 79.1621 85.4338 79.2402C85.365 79.3183 85.273 79.3722 85.1712 79.3941C85.0695 79.416 84.9634 79.4047 84.8686 79.3618C84.7737 79.3189 84.6952 79.2468 84.6444 79.1559C84.0664 78.1201 83.365 77.545 82.559 77.4461C80.9262 77.2453 79.2872 78.9698 79.2711 78.9873C79.2224 79.0379 79.1635 79.0778 79.0984 79.1042C79.0332 79.1306 78.9633 79.1431 78.893 79.1407C78.8228 79.1374 78.7541 79.1189 78.6917 79.0864C78.6293 79.0539 78.5747 79.0083 78.5317 78.9526C77.7024 77.8836 76.8804 77.3693 76.0767 77.4433C74.8828 77.544 73.8912 78.9322 73.6095 79.4589C73.5741 79.5251 73.5239 79.5823 73.4627 79.6258C73.4015 79.6693 73.3311 79.698 73.2569 79.7097C73.1826 79.7221 73.1064 79.7168 73.0346 79.6942C72.9628 79.6715 72.8973 79.6323 72.8435 79.5795C72.3999 79.153 71.7536 78.7765 71.0857 78.7765Z" fill="#090817"/>
<path d="M96.9687 54.9576C96.8861 54.9578 96.8049 54.9369 96.7327 54.8968C94.6891 53.7594 93.6538 52.469 93.6547 51.0623C93.6556 49.8878 94.3908 48.8848 95.1432 48.1667L92.7794 48.5215C92.7162 48.531 92.6518 48.5279 92.5898 48.5125C92.5278 48.4971 92.4694 48.4696 92.418 48.4316C92.3667 48.3936 92.3233 48.3459 92.2903 48.2911C92.2574 48.2364 92.2356 48.1757 92.2261 48.1125C92.2166 48.0493 92.2197 47.9849 92.2351 47.9229C92.2505 47.8609 92.278 47.8025 92.316 47.7511C92.354 47.6998 92.4017 47.6564 92.4564 47.6234C92.5112 47.5905 92.5719 47.5687 92.6351 47.5592L96.897 46.9195C97.0097 46.9025 97.1249 46.9256 97.2224 46.9848C97.3198 47.044 97.3934 47.1356 97.4301 47.2436C97.4669 47.3515 97.4646 47.469 97.4236 47.5754C97.3825 47.6818 97.3054 47.7704 97.2057 47.8257C97.1796 47.8399 94.6268 49.2832 94.6273 51.0646C94.6273 52.0915 95.495 53.095 97.2057 54.0467C97.3001 54.099 97.3745 54.1812 97.4171 54.2804C97.4597 54.3796 97.4681 54.4901 97.4409 54.5946C97.4138 54.6991 97.3526 54.7915 97.2671 54.8574C97.1816 54.9233 97.0766 54.9589 96.9687 54.9586V54.9576Z" fill="#080717"/>
<path d="M160.885 55.1117C160.776 55.1117 160.67 55.075 160.584 55.0076C160.498 54.9401 160.438 54.8458 160.412 54.7397C160.386 54.6337 160.397 54.5221 160.443 54.4229C160.488 54.3237 160.565 54.2427 160.663 54.1928C161.507 53.7596 162.007 53.1774 162.188 52.4132C162.64 50.5054 160.949 48.1664 160.932 48.1432C160.882 48.0739 160.85 47.9924 160.841 47.9069C160.832 47.8215 160.846 47.7353 160.881 47.6569C160.916 47.5785 160.972 47.5109 161.041 47.4608C161.111 47.4108 161.193 47.3801 161.278 47.3719L165.321 46.9872C165.385 46.9803 165.449 46.9861 165.511 47.0045C165.572 47.0229 165.629 47.0534 165.678 47.0942C165.728 47.135 165.769 47.1853 165.798 47.2421C165.828 47.2989 165.846 47.361 165.851 47.4249C165.863 47.5532 165.824 47.6811 165.742 47.7805C165.66 47.8798 165.542 47.9426 165.413 47.9549L162.161 48.2645C162.709 49.2186 163.522 50.9967 163.134 52.6372C162.887 53.6806 162.205 54.4951 161.106 55.0579C161.038 55.0933 160.962 55.1118 160.885 55.1117Z" fill="#080717"/>
<path d="M81.6016 93.6172C81.528 93.6172 81.4552 93.6006 81.3889 93.5684C81.3226 93.5363 81.2645 93.4895 81.2189 93.4316C81.1734 93.3737 81.1416 93.3062 81.1259 93.2342C81.1102 93.1622 81.1112 93.0875 81.1286 93.0159C81.6595 90.8313 83.4277 88.6466 84.4477 87.5254C82.2398 87.276 79.2207 86.3908 78.4352 85.2918C78.3289 85.1593 78.2571 85.0025 78.2262 84.8354C78.1952 84.6683 78.2062 84.4962 78.258 84.3344C78.6836 83.0596 85.531 81.4824 89.5745 80.6561C89.6995 80.6337 89.8282 80.661 89.9333 80.7323C90.0384 80.8036 90.1114 80.9131 90.1368 81.0375C90.1622 81.1619 90.138 81.2912 90.0692 81.398C90.0005 81.5047 89.8928 81.5804 89.7691 81.6088C85.0369 82.5762 79.6362 84.0257 79.1626 84.6805C79.2191 85.1374 82.4809 86.6015 85.5261 86.623C85.6229 86.6237 85.7174 86.6532 85.7973 86.7078C85.8772 86.7625 85.939 86.8397 85.9747 86.9297C86.0105 87.0197 86.0186 87.1183 85.998 87.2129C85.9774 87.3075 85.929 87.3938 85.859 87.4607C85.8277 87.4907 82.7507 90.4595 82.0734 93.2459C82.0476 93.3516 81.9872 93.4457 81.9016 93.513C81.8161 93.5803 81.7105 93.617 81.6016 93.6172Z" fill="#080717"/>
<path d="M75.2635 89.5491C73.4356 89.5491 70.8368 84.8241 70.0635 83.3348C70.0041 83.2203 69.9925 83.0869 70.0314 82.9639C70.0704 82.8409 70.1565 82.7385 70.271 82.679C70.3855 82.6196 70.5189 82.608 70.6418 82.6469C70.7648 82.6859 70.8673 82.772 70.9267 82.8865C72.5282 85.9706 74.5029 88.5803 75.221 88.5803H75.2239C75.5842 87.8973 74.4596 83.7536 72.7291 79.4148C72.6844 79.2956 72.6882 79.1637 72.7397 79.0474C72.7912 78.931 72.8862 78.8395 73.0044 78.7924C73.1226 78.7453 73.2546 78.7464 73.3719 78.7954C73.4893 78.8445 73.5828 78.9376 73.6324 79.0548C74.4155 81.0176 76.9051 87.5425 76.0588 89.0766C75.9975 89.1939 75.9105 89.2958 75.8044 89.3748C75.6982 89.4537 75.5756 89.5077 75.4456 89.5326C75.3856 89.5435 75.3246 89.549 75.2635 89.5491Z" fill="#080717"/>
<path d="M77.9951 88.7775C76.6919 88.7775 75.3872 87.5294 75.3193 87.4633C75.2278 87.3734 75.1755 87.2508 75.1739 87.1224C75.1723 86.9941 75.2215 86.8703 75.3108 86.778C75.4002 86.6858 75.5223 86.6327 75.6507 86.6302C75.7791 86.6277 75.9032 86.6761 75.9961 86.7647C76.3959 87.1514 77.7011 88.152 78.4339 87.6828C79.322 87.1176 78.8466 85.6145 78.8418 85.5993C78.8015 85.4767 78.8115 85.3432 78.8696 85.2281C78.9278 85.1129 79.0293 85.0256 79.1518 84.9853C79.2743 84.945 79.4079 84.955 79.523 85.0131C79.6382 85.0713 79.7255 85.1728 79.7658 85.2953C79.7957 85.386 80.4831 87.5308 78.9566 88.5035C78.6694 88.686 78.3354 88.7812 77.9951 88.7775Z" fill="#080717"/>
<path d="M79.4586 84.4135C79.3383 84.4135 79.2223 84.3688 79.133 84.2882C79.0437 84.2076 78.9874 84.0967 78.9751 83.9771L78.4322 78.7082C78.4257 78.6447 78.4317 78.5805 78.45 78.5192C78.4683 78.458 78.4984 78.401 78.5387 78.3514C78.5791 78.3019 78.6287 78.2607 78.6849 78.2304C78.7412 78.2 78.8028 78.181 78.8664 78.1744C78.9299 78.1679 78.9941 78.1739 79.0553 78.1922C79.1166 78.2105 79.1736 78.2406 79.2232 78.2809C79.2727 78.3212 79.3139 78.3709 79.3442 78.4271C79.3746 78.4833 79.3936 78.545 79.4002 78.6085L79.943 83.8774C79.9496 83.9409 79.9436 84.0051 79.9253 84.0663C79.907 84.1276 79.8769 84.1846 79.8366 84.2341C79.7963 84.2837 79.7466 84.3249 79.6904 84.3552C79.6342 84.3856 79.5725 84.4046 79.509 84.4111C79.4918 84.4126 79.4752 84.4135 79.4586 84.4135Z" fill="#080717"/>
<path d="M84.738 82.7529C84.7218 82.7529 84.7056 82.752 84.6893 82.7505C84.6258 82.7442 84.5641 82.7254 84.5078 82.6953C84.4515 82.6652 84.4017 82.6242 84.3612 82.5748C84.3207 82.5254 84.2903 82.4686 84.2718 82.4074C84.2533 82.3463 84.247 82.2821 84.2533 82.2186L84.5854 78.8751C84.6003 78.7477 84.6641 78.631 84.7633 78.5497C84.8625 78.4684 84.9894 78.4287 85.1173 78.4391C85.1809 78.4454 85.2425 78.4642 85.2988 78.4943C85.3552 78.5245 85.405 78.5654 85.4455 78.6148C85.4859 78.6642 85.5163 78.7211 85.5348 78.7822C85.5533 78.8433 85.5596 78.9075 85.5533 78.971L85.2212 82.3145C85.2094 82.4345 85.1534 82.5458 85.0641 82.6268C84.9747 82.7078 84.8585 82.7528 84.738 82.7529Z" fill="#080717"/>
<path d="M81.0804 89.2364C81.0572 89.2364 81.0335 89.2354 81.0096 89.2339C79.9154 89.1623 78.9248 88.0243 78.8156 87.8952C78.735 87.7965 78.6964 87.67 78.7081 87.5431C78.7198 87.4162 78.7809 87.2989 78.8782 87.2165C78.9754 87.1342 79.1012 87.0933 79.2283 87.1027C79.3554 87.1121 79.4738 87.1711 79.5578 87.2669C79.7673 87.5133 80.4953 88.2253 81.0733 88.2638C81.4538 88.3066 82.349 87.3995 82.916 86.5874C82.9903 86.4829 83.1028 86.4119 83.2291 86.39C83.3554 86.368 83.4853 86.3969 83.5905 86.4702C83.6956 86.5435 83.7676 86.6553 83.7907 86.7814C83.8139 86.9075 83.7863 87.0376 83.714 87.1435C83.3673 87.6411 82.1694 89.2364 81.0804 89.2364Z" fill="#080717"/>
<path d="M145.944 50.6844C144.961 50.6844 144.299 50.1311 143.715 49.642C143.335 49.3242 142.976 49.0241 142.543 48.8602C141.534 48.4779 140.148 48.8835 138.428 50.0666C138.322 50.1396 138.191 50.1674 138.064 50.1439C137.937 50.1204 137.825 50.0475 137.752 49.9412C137.678 49.8348 137.651 49.7039 137.674 49.577C137.698 49.4502 137.771 49.3379 137.877 49.2649C139.874 47.891 141.558 47.4483 142.887 47.9503C143.474 48.1726 143.934 48.5568 144.339 48.8959C144.862 49.3335 145.314 49.7118 145.945 49.7118H145.962C146.402 49.6931 146.826 49.5386 147.175 49.2696C147.281 49.1958 147.411 49.1666 147.537 49.1883C147.664 49.21 147.777 49.2809 147.851 49.3855C147.926 49.4901 147.956 49.6199 147.935 49.7466C147.914 49.8733 147.844 49.9866 147.74 50.0618C147.229 50.4478 146.612 50.6654 145.972 50.6844H145.944Z" fill="#080717"/>
<path d="M127.066 67.9121C124.787 67.9121 123.267 67.3854 123.139 67.3398C123.02 67.2947 122.923 67.2046 122.87 67.0889C122.817 66.9732 122.811 66.8411 122.854 66.7211C122.897 66.6011 122.985 66.5028 123.1 66.4472C123.214 66.3917 123.346 66.3834 123.467 66.4242C123.528 66.4446 129.56 68.512 135.744 64.0073C135.796 63.9697 135.855 63.9426 135.917 63.9276C135.979 63.9126 136.043 63.91 136.106 63.92C136.169 63.9299 136.23 63.9521 136.284 63.9855C136.339 64.0188 136.386 64.0625 136.424 64.1142C136.462 64.1658 136.489 64.2243 136.504 64.2865C136.519 64.3486 136.521 64.413 136.511 64.4761C136.501 64.5392 136.479 64.5998 136.446 64.6543C136.413 64.7088 136.369 64.7562 136.317 64.7938C132.881 67.2967 129.53 67.9121 127.066 67.9121Z" fill="#080717"/>
<path d="M220.76 145.7C219.38 140.181 213.971 134.352 208.549 134.168C200.836 133.908 196.785 145.203 183.451 160.963C178.877 166.368 173.934 171.449 168.657 176.171C168.65 176.174 168.445 176.268 168.08 176.416C166.576 177.029 162.4 178.551 158.661 178.262C154.002 177.902 150.16 176.413 149.679 178.299C149.199 180.184 153.54 182.11 157.087 183.474C157.087 183.474 148.431 184.602 144.181 183.002C139.931 181.403 135.694 178.646 134.102 180.015C132.51 181.384 142.636 193.42 151.381 196.107C160.125 198.794 171.811 197.801 178.635 192.054C191.712 184.41 225.078 162.978 220.76 145.7Z" fill="white"/>
<path d="M161.207 197.985C157.657 197.985 154.2 197.477 151.237 196.567C143.542 194.203 134.214 184.306 133.494 180.861C133.352 180.181 133.574 179.822 133.784 179.641C135.159 178.458 137.655 179.593 140.818 181.03C141.968 181.553 143.157 182.093 144.352 182.543C147.226 183.625 152.284 183.409 155.062 183.183C151.641 181.749 148.723 180.074 149.208 178.173C149.649 176.438 151.898 176.798 154.742 177.255C155.934 177.447 157.284 177.663 158.698 177.772C162.305 178.055 166.331 176.599 167.896 175.961C168.133 175.864 168.302 175.791 168.388 175.753C173.626 171.06 178.535 166.011 183.079 160.644C187.572 155.334 191.075 150.438 193.89 146.503C199.695 138.392 203.198 133.481 208.565 133.678C214.325 133.872 219.863 140.105 221.231 145.578C223.138 153.209 218.197 162.383 206.545 172.846C196.982 181.434 185.144 188.805 178.915 192.448C174.268 196.344 167.587 197.985 161.207 197.985ZM134.419 180.378C134.427 180.378 134.359 180.597 134.655 181.268C136.257 184.905 144.482 193.474 151.523 195.637C159.568 198.109 171.356 197.543 178.321 191.677C178.342 191.659 178.365 191.643 178.389 191.629C184.577 188.012 196.378 180.669 205.895 172.123C217.259 161.919 222.1 153.068 220.288 145.813C219.004 140.677 213.86 134.83 208.532 134.649C208.451 134.647 208.37 134.645 208.29 134.645C203.571 134.645 200.203 139.353 194.682 147.069C191.856 151.018 188.339 155.933 183.822 161.272C179.232 166.693 174.273 171.791 168.98 176.528C168.941 176.563 168.896 176.592 168.847 176.613C168.811 176.63 168.605 176.723 168.263 176.862C166.634 177.526 162.436 179.038 158.623 178.743C157.169 178.63 155.798 178.41 154.588 178.216C151.975 177.797 150.362 177.582 150.15 178.414C149.953 179.19 151.026 180.618 157.261 183.016C157.362 183.054 157.447 183.126 157.503 183.218C157.559 183.311 157.582 183.42 157.57 183.527C157.557 183.635 157.508 183.735 157.432 183.812C157.356 183.888 157.257 183.938 157.149 183.952C156.791 183.999 148.324 185.078 144.009 183.453C142.785 182.993 141.58 182.445 140.415 181.916C137.797 180.727 135.325 179.604 134.419 180.379V180.378Z" fill="#090817"/>
<path d="M92.2473 127.562C92.1294 127.562 92.0156 127.519 91.927 127.441C91.8384 127.363 91.7811 127.256 91.7657 127.139C90.9545 120.975 96.0795 110.948 96.298 110.524C96.3263 110.466 96.366 110.414 96.4147 110.371C96.4635 110.328 96.5203 110.295 96.5818 110.275C96.6433 110.254 96.7083 110.246 96.773 110.251C96.8376 110.256 96.9006 110.274 96.9583 110.304C97.0159 110.334 97.0671 110.375 97.1086 110.424C97.1502 110.474 97.1814 110.532 97.2005 110.594C97.2195 110.656 97.2259 110.721 97.2193 110.785C97.2128 110.85 97.1934 110.913 97.1623 110.969C97.11 111.071 91.9586 121.151 92.7298 127.012C92.7467 127.14 92.7121 127.269 92.6336 127.371C92.5552 127.474 92.4393 127.541 92.3115 127.558C92.2902 127.56 92.2687 127.562 92.2473 127.562Z" fill="white"/>
<path d="M160.885 39.8623C160.863 39.8623 160.84 39.8607 160.818 39.8575C156.903 39.3155 153.573 35.9042 150.921 29.7177C149.7 26.8094 148.764 23.7897 148.126 20.7008C148.103 20.574 148.13 20.4429 148.203 20.3365C148.276 20.23 148.389 20.157 148.515 20.1333C148.642 20.1096 148.773 20.1373 148.88 20.2102C148.986 20.2831 149.059 20.3954 149.083 20.5222C149.115 20.6936 152.397 37.7097 160.951 38.8942C161.073 38.9114 161.184 38.974 161.261 39.0695C161.339 39.165 161.377 39.2862 161.369 39.4089C161.36 39.5316 161.306 39.6465 161.216 39.7306C161.126 39.8147 161.008 39.8617 160.885 39.8621V39.8623Z" fill="white"/>
<path d="M164.446 34.0697H164.436C161.263 34.0008 158.495 32.3847 156.434 29.3969C155.487 28.02 154.759 26.5048 154.275 24.9051C154.246 24.782 154.265 24.6521 154.33 24.5431C154.394 24.4342 154.499 24.3547 154.621 24.3216C154.743 24.2885 154.874 24.3044 154.984 24.3659C155.095 24.4274 155.177 24.5297 155.214 24.651C155.237 24.7341 157.55 32.947 164.457 33.0971C164.586 33.0984 164.709 33.151 164.799 33.2432C164.889 33.3354 164.939 33.4596 164.938 33.5886C164.936 33.7176 164.884 33.8407 164.792 33.931C164.699 34.0212 164.575 34.0711 164.446 34.0697Z" fill="white"/>
<path d="M99.6002 39.2134C98.7544 39.203 97.916 39.0528 97.1192 38.7689C97.0588 38.7482 97.003 38.7159 96.9551 38.6737C96.9071 38.6315 96.868 38.5803 96.8398 38.523C96.8117 38.4656 96.7951 38.4033 96.791 38.3396C96.787 38.2758 96.7955 38.2119 96.8161 38.1515C96.8368 38.091 96.8691 38.0353 96.9113 37.9873C96.9535 37.9394 97.0047 37.9002 97.062 37.8721C97.1194 37.8439 97.1817 37.8273 97.2454 37.8233C97.3092 37.8192 97.3731 37.8277 97.4335 37.8484C102.64 39.6252 105.106 35.0971 108.227 29.3639C109.712 26.636 111.248 23.8153 113.254 21.4208C119.452 14.0258 129.13 11.2917 129.538 11.1791C129.662 11.1477 129.793 11.1659 129.903 11.2299C130.013 11.2939 130.093 11.3984 130.127 11.5212C130.161 11.6439 130.145 11.775 130.084 11.8864C130.022 11.9977 129.919 12.0804 129.797 12.1166C129.7 12.1436 119.999 14.8886 114 22.0458C112.056 24.3658 110.543 27.1431 109.082 29.8293C106.466 34.6346 103.973 39.2134 99.6002 39.2134Z" fill="white"/>
<path d="M99.9311 31.3472C99.8078 31.347 99.6891 31.3 99.5991 31.2157C99.509 31.1313 99.4545 31.0159 99.4464 30.8928C99.4383 30.7697 99.4772 30.6481 99.5554 30.5526C99.6336 30.4572 99.7452 30.395 99.8674 30.3788C106.696 29.4684 110.425 18.9606 110.462 18.8547C110.481 18.7928 110.513 18.7355 110.555 18.6861C110.598 18.6367 110.649 18.5962 110.707 18.5671C110.765 18.538 110.829 18.5209 110.894 18.5167C110.958 18.5124 111.023 18.5212 111.085 18.5426C111.146 18.5639 111.203 18.5973 111.251 18.6408C111.299 18.6843 111.338 18.7371 111.366 18.7959C111.393 18.8548 111.409 18.9185 111.411 18.9835C111.414 19.0484 111.403 19.1131 111.38 19.1739C110.642 21.1617 109.687 23.0626 108.535 24.8426C106.039 28.6833 103.086 30.9311 99.9955 31.3429C99.9741 31.3457 99.9527 31.3471 99.9311 31.3472Z" fill="white"/>
<path d="M160.884 81.0135C160.799 81.0135 160.716 80.9911 160.642 80.9488C160.569 80.9065 160.507 80.8456 160.465 80.7723C160.422 80.6989 160.399 80.6157 160.398 80.5308C160.398 80.4459 160.419 80.3623 160.461 80.2883C163.875 74.2364 163.485 61.3422 163.481 61.2123C163.477 61.1474 163.486 61.0823 163.507 61.0208C163.529 60.9594 163.562 60.9029 163.606 60.8547C163.65 60.8065 163.703 60.7676 163.762 60.7403C163.821 60.7129 163.885 60.6977 163.95 60.6956C164.015 60.6934 164.08 60.7043 164.141 60.7277C164.201 60.751 164.257 60.7863 164.304 60.8315C164.35 60.8767 164.388 60.9308 164.413 60.9907C164.439 61.0505 164.452 61.1149 164.452 61.18C164.471 61.7194 164.857 74.4759 161.308 80.7659C161.266 80.8411 161.204 80.9037 161.13 80.9472C161.055 80.9907 160.971 81.0136 160.884 81.0135Z" fill="white"/>
<path d="M92.165 72.6065C92.0673 72.6065 91.972 72.5771 91.8913 72.5222C91.8106 72.4672 91.7483 72.3892 91.7125 72.2984C91.6768 72.2075 91.6692 72.108 91.6907 72.0128C91.7123 71.9175 91.762 71.831 91.8334 71.7644C93.9103 69.8306 96.4806 61.7948 96.5063 61.7141C96.5256 61.6532 96.5567 61.5968 96.5979 61.5479C96.639 61.4991 96.6894 61.4588 96.7461 61.4295C96.8029 61.4001 96.8648 61.3822 96.9284 61.3768C96.9921 61.3713 97.0562 61.3785 97.117 61.3978C97.1779 61.4172 97.2344 61.4483 97.2832 61.4895C97.332 61.5306 97.3723 61.581 97.4017 61.6377C97.431 61.6944 97.4489 61.7564 97.4544 61.82C97.4598 61.8836 97.4527 61.9477 97.4333 62.0086C97.325 62.349 94.7585 70.3692 92.4964 72.4759C92.4065 72.56 92.288 72.6067 92.165 72.6065Z" fill="white"/>
<path d="M52.4885 38.2153C53.7992 38.2153 54.8617 37.1527 54.8617 35.842C54.8617 34.5313 53.7992 33.4688 52.4885 33.4688C51.1778 33.4688 50.1152 34.5313 50.1152 35.842C50.1152 37.1527 51.1778 38.2153 52.4885 38.2153Z" fill="#080717"/>
<path d="M51.2266 31.6612C51.2266 31.6612 52.8598 11.3359 53.1567 11.3359C53.4536 11.3359 57.0168 12.5153 57.1654 12.9277C57.314 13.3401 54.1959 32.1958 54.1959 32.1958L51.2266 31.6612Z" fill="#080717"/>
<path d="M46.3381 37.2778C47.6488 37.2778 48.7113 36.2152 48.7113 34.9045C48.7113 33.5938 47.6488 32.5312 46.3381 32.5312C45.0274 32.5312 43.9648 33.5938 43.9648 34.9045C43.9648 36.2152 45.0274 37.2778 46.3381 37.2778Z" fill="#080717"/>
<path d="M44.4635 30.9579C44.4635 30.9579 43.0352 10.6174 43.3288 10.5726C43.6225 10.5277 47.322 11.1607 47.5307 11.5463C47.7393 11.932 47.4795 31.0418 47.4795 31.0418L44.4635 30.9579Z" fill="#080717"/>
</g>
<defs>
<clipPath id="clip0_1265_3035">
<rect width="221.641" height="200" fill="white"/>
</clipPath>
</defs>
</svg>
