<svg width="305" height="201" viewBox="0 0 305 201" fill="none" xmlns="http://www.w3.org/2000/svg">
<path d="M284.252 52.8959L279.976 73.6032L277.224 70.9182L272.542 74.2599L268.964 69.8147L260.94 75.6494L254.082 64.1811L246.433 68.6621L243.4 64.4804L233.687 69.9532L230.766 63.6941L237.574 30.7188L274.075 38.2556L284.252 52.8959Z" fill="#EBEBEB"/>
<path d="M274.076 38.2656L284.253 52.9059L271.592 50.2924L274.076 38.2656Z" fill="#DBDBDB"/>
<path d="M279.065 77.7484L272.797 108.128L223.631 97.9777L229.854 67.8438L232.776 74.0984L242.493 68.6256L245.522 72.8073L253.175 68.3307L260.028 79.799L268.057 73.9644L271.631 78.4051L276.317 75.0679L279.065 77.7484Z" fill="#EBEBEB"/>
<path d="M208.696 74.1844L158.592 77.2849L154.611 12.9693L191.817 10.6641L205.475 22.1234L208.696 74.1844Z" fill="#EBEBEB"/>
<path d="M191.818 10.6641L205.476 22.1234L192.573 22.9231L191.818 10.6641Z" fill="#DBDBDB"/>
<path d="M177.946 53.9468L177.749 52.4948C177.244 49.4881 178.066 46.124 180.68 42.608C183.039 39.4807 184.316 37.2469 184.173 34.7093C184.013 31.8501 182.114 30.0452 178.58 30.1881C176.56 30.293 174.621 31.0098 173.018 32.2432L171.477 28.7898C173.264 27.3378 176.391 26.2656 179.362 26.1092C185.809 25.7518 188.945 29.5671 189.191 33.8247C189.405 37.6356 187.43 40.4993 184.92 43.8456C182.614 46.8969 181.859 49.4122 182.185 52.258L182.324 53.7145L177.946 53.9468ZM177.15 61.8589C177.034 59.7859 178.352 58.2491 180.313 58.1419C182.275 58.0346 183.704 59.4107 183.821 61.4881C183.928 63.4494 182.726 65.0309 180.653 65.1471C178.674 65.2588 177.244 63.8202 177.133 61.8589H177.15Z" fill="#DBDBDB"/>
<path d="M52.6208 43.0017L47.5813 40.7188L46.8799 42.2601C46.7764 42.4803 46.6148 42.6682 46.4125 42.8036C46.2102 42.939 45.9749 43.0167 45.7317 43.0285C45.4548 43.0376 45.1787 43.0644 44.9052 43.1089C44.6652 43.1446 44.4199 43.1144 44.1957 43.0215C43.9714 42.9287 43.7766 42.7767 43.632 42.5817L42.6446 41.2013L38.1458 44.4269L39.1331 45.8073C39.2704 46.0066 39.3513 46.2393 39.367 46.4808C39.3827 46.7223 39.3328 46.9635 39.2225 47.1789C39.0951 47.4246 38.9803 47.6766 38.8785 47.9339C38.79 48.1608 38.6413 48.3593 38.4484 48.5081C38.2556 48.6569 38.0258 48.7503 37.7839 48.7783L36.0996 48.9436L36.6402 54.4521L38.3334 54.2824C38.5762 54.263 38.8198 54.3101 39.0378 54.4187C39.2558 54.5274 39.4402 54.6934 39.5709 54.8989C39.6424 55.0151 39.7184 55.1267 39.7988 55.2384C39.8792 55.3501 39.9596 55.4573 40.0445 55.5646C40.1987 55.7522 40.2978 55.9788 40.3309 56.2194C40.3641 56.4599 40.3299 56.7049 40.2321 56.9272L39.5263 58.4819L44.5702 60.7693L45.2716 59.2191C45.3761 58.999 45.5387 58.8116 45.7418 58.677C45.9449 58.5424 46.1808 58.4657 46.4242 58.4551C46.6981 58.4438 46.971 58.417 47.2418 58.3747C47.4819 58.339 47.7271 58.3693 47.9514 58.4621C48.1756 58.5549 48.3704 58.7069 48.5151 58.9019L49.5024 60.2824L54.0057 57.0568L53.0184 55.6763C52.8768 55.4788 52.7934 55.2457 52.7777 55.0033C52.7619 54.7608 52.8143 54.5188 52.929 54.3047C53.0535 54.0604 53.1653 53.8099 53.2641 53.5542C53.35 53.3256 53.498 53.1255 53.6913 52.9763C53.8847 52.8272 54.1158 52.7349 54.3587 52.7098L56.0519 52.54L55.5069 47.0315L53.8136 47.1968C53.5723 47.218 53.3298 47.172 53.113 47.064C52.8962 46.956 52.7135 46.7901 52.585 46.5847C52.5091 46.4685 52.4331 46.3569 52.3527 46.2452C52.2723 46.1335 52.1919 46.0218 52.107 45.919C51.9539 45.7291 51.8555 45.5011 51.8224 45.2594C51.7893 45.0177 51.8229 44.7715 51.9194 44.5475L52.6208 43.0017ZM49.7615 48.0992C50.284 48.8283 50.5785 49.6959 50.6078 50.5923C50.6371 51.4888 50.3999 52.3738 49.9262 53.1354C49.4525 53.897 48.7636 54.5011 47.9466 54.8712C47.1296 55.2412 46.2212 55.3607 45.3363 55.2145C44.4513 55.0682 43.6297 54.6629 42.9751 54.0496C42.3206 53.4364 41.8627 52.6428 41.6592 51.7692C41.4557 50.8957 41.5159 49.9815 41.832 49.1421C42.1482 48.3028 42.7062 47.576 43.4354 47.0538C44.413 46.3537 45.6286 46.0706 46.8149 46.2666C48.0013 46.4627 49.0611 47.1219 49.7615 48.0992Z" fill="#EBEBEB"/>
<path d="M280.424 116.094L277.064 118.033L277.659 119.06C277.747 119.208 277.791 119.378 277.786 119.55C277.78 119.722 277.725 119.888 277.627 120.03C277.524 120.191 277.426 120.356 277.337 120.53C277.263 120.684 277.147 120.814 277.003 120.904C276.858 120.995 276.69 121.041 276.519 121.039H275.34V124.922H276.528C276.699 124.92 276.867 124.967 277.012 125.057C277.156 125.147 277.272 125.277 277.346 125.431C277.435 125.605 277.533 125.771 277.636 125.931C277.734 126.073 277.789 126.24 277.795 126.412C277.8 126.584 277.756 126.753 277.667 126.901L277.073 127.928L280.433 129.867L281.032 128.835C281.118 128.689 281.244 128.57 281.395 128.491C281.545 128.412 281.715 128.376 281.885 128.389H282.457C282.626 128.377 282.796 128.413 282.946 128.491C283.097 128.57 283.223 128.689 283.31 128.835L283.909 129.872L287.264 127.933L286.67 126.901C286.585 126.753 286.544 126.584 286.55 126.413C286.556 126.243 286.61 126.077 286.705 125.936C286.808 125.775 286.906 125.605 286.996 125.435C287.069 125.281 287.185 125.152 287.33 125.061C287.475 124.971 287.643 124.924 287.813 124.926H289.002V121.044H287.804C287.634 121.046 287.466 120.999 287.321 120.909C287.176 120.819 287.06 120.689 286.987 120.535C286.898 120.365 286.799 120.195 286.696 120.034C286.601 119.893 286.547 119.727 286.541 119.557C286.535 119.386 286.576 119.217 286.661 119.069L287.255 118.037L283.9 116.098L283.301 117.117C283.214 117.263 283.089 117.383 282.938 117.461C282.787 117.54 282.617 117.576 282.448 117.564H282.162H281.876C281.706 117.575 281.536 117.539 281.384 117.461C281.233 117.382 281.106 117.263 281.018 117.117L280.424 116.094ZM282.162 119.802C282.791 119.801 283.407 119.987 283.931 120.336C284.455 120.685 284.863 121.182 285.104 121.763C285.346 122.345 285.409 122.985 285.286 123.602C285.164 124.22 284.861 124.787 284.416 125.232C283.97 125.677 283.403 125.98 282.786 126.103C282.168 126.225 281.528 126.162 280.947 125.921C280.366 125.679 279.869 125.271 279.52 124.747C279.17 124.223 278.985 123.608 278.985 122.978C278.985 122.561 279.067 122.147 279.226 121.761C279.385 121.375 279.619 121.025 279.914 120.729C280.209 120.434 280.56 120.2 280.945 120.04C281.331 119.88 281.744 119.797 282.162 119.797V119.802Z" fill="#EBEBEB"/>
<path d="M62.8155 26.4947L59.7373 28.8536L60.4477 29.7963C60.5536 29.9306 60.6188 30.0925 60.6354 30.2628C60.6521 30.4331 60.6195 30.6045 60.5415 30.7568C60.456 30.9307 60.3814 31.1098 60.3181 31.2929C60.2631 31.4543 60.164 31.5971 60.0322 31.7052C59.9004 31.8133 59.741 31.8825 59.572 31.905L58.3926 32.0569L58.893 35.9035L60.0724 35.7516C60.2441 35.7277 60.419 35.7527 60.5771 35.8238C60.7352 35.895 60.87 36.0093 60.9659 36.1537C61.0735 36.3091 61.1898 36.4583 61.3144 36.6004C61.4295 36.727 61.5058 36.884 61.5343 37.0527C61.5628 37.2213 61.5423 37.3947 61.4752 37.552L61.0285 38.6511L64.6025 40.1388L65.0493 39.0397C65.1158 38.8821 65.2251 38.7462 65.3649 38.6475C65.5046 38.5488 65.6693 38.4912 65.8401 38.4813L66.126 38.45L66.4074 38.4053C66.5728 38.3742 66.7435 38.389 66.901 38.448C67.0586 38.5071 67.1969 38.6082 67.301 38.7404L68.0292 39.692L71.1074 37.3331L70.3881 36.3905C70.2842 36.2543 70.2204 36.0918 70.2038 35.9213C70.1872 35.7508 70.2185 35.5791 70.2943 35.4255C70.3789 35.2527 70.4535 35.0752 70.5176 34.8938C70.5727 34.7325 70.6717 34.5897 70.8035 34.4816C70.9353 34.3734 71.0947 34.3042 71.2637 34.2818L72.4432 34.1299L71.9428 30.2833L70.7634 30.4352C70.5921 30.4595 70.4174 30.4352 70.2594 30.3649C70.1014 30.2945 69.9664 30.1811 69.8698 30.0375C69.7581 29.8767 69.642 29.7248 69.5169 29.5908C69.4128 29.4615 69.3455 29.3066 69.3219 29.1423C69.2983 28.978 69.3194 28.8104 69.3829 28.6571L69.8296 27.558L66.2556 26.0703L65.8088 27.1693C65.7414 27.3264 65.6319 27.4617 65.4923 27.5603C65.3527 27.6589 65.1886 27.7169 65.018 27.7278L64.7321 27.7546L64.4685 27.7635C64.3032 27.7947 64.1325 27.7799 63.9749 27.7209C63.8174 27.6618 63.6791 27.5607 63.575 27.4285L62.8155 26.4947ZM65.018 29.9482C65.6404 29.8682 66.2724 29.9743 66.8345 30.2531C67.3966 30.5319 67.8636 30.971 68.1764 31.5148C68.4893 32.0587 68.6341 32.6831 68.5925 33.3092C68.5509 33.9352 68.3249 34.535 67.9429 35.0327C67.5608 35.5305 67.04 35.9039 66.4459 36.106C65.8519 36.308 65.2114 36.3296 64.6051 36.1681C63.9988 36.0065 63.4539 35.669 63.0392 35.1981C62.6245 34.7273 62.3586 34.1441 62.2749 33.5223C62.2191 33.1073 62.2459 32.6854 62.3537 32.2808C62.4615 31.8762 62.6482 31.4969 62.9032 31.1647C63.1581 30.8326 63.4762 30.5541 63.8391 30.3453C64.2021 30.1365 64.6027 30.0016 65.018 29.9482Z" fill="#EBEBEB"/>
<path d="M39.8159 127.288C39.9837 122.969 39.9241 118.645 39.6372 114.332C38.998 105.427 37.6399 96.5883 35.5761 87.902C34.4414 83.0144 33.0475 78.2073 31.591 73.4046C31.5464 73.2572 31.3141 73.2974 31.3543 73.4493C35.8531 90.3815 39.5434 107.85 39.2887 125.452C39.2172 130.367 38.6454 135.214 38.1808 140.11C38.1808 140.24 38.3818 140.293 38.4131 140.159C39.3379 135.955 39.6417 131.568 39.8159 127.288Z" fill="#EBEBEB"/>
<path d="M31.355 73.4375C31.355 73.4375 24.5464 90.7271 26.0699 94.7747C27.5933 98.8224 30.7385 99.6891 30.7385 99.6891C30.7385 99.6891 26.5702 105.64 29.4831 111.22C32.396 116.8 38.8651 116.536 39.3118 122.863C39.2984 122.894 39.6558 96.4412 31.355 73.4375Z" fill="#EBEBEB"/>
<path d="M38.5556 111.968C38.5666 111.939 38.5666 111.907 38.5556 111.879C37.662 100.075 35.4471 88.4084 31.9525 77.0984C31.9525 77.0671 31.8855 77.076 31.8944 77.0984C33.2436 82.1616 34.435 87.2458 35.4685 92.3507C34.5532 91.4836 33.4349 90.8599 32.2161 90.5369C32.2161 90.5369 32.1804 90.5637 32.2161 90.5726C33.4965 91.0418 34.6477 91.8073 35.5757 92.8064C35.7723 93.8116 35.9689 94.8124 36.152 95.8176C34.6286 94.1154 32.5199 93.2711 30.4067 92.4669C30.4019 92.469 30.3979 92.4724 30.395 92.4768C30.3921 92.4811 30.3906 92.4863 30.3906 92.4915C30.3906 92.4967 30.3921 92.5018 30.395 92.5062C30.3979 92.5105 30.4019 92.514 30.4067 92.516C32.6092 93.4096 34.7984 94.5622 36.2905 96.4609C36.8088 99.3291 37.2645 102.208 37.6576 105.097C36.5576 103.944 35.1469 103.136 33.5966 102.769C33.5474 102.769 33.5206 102.827 33.5698 102.841C35.1624 103.31 36.5842 104.232 37.6621 105.494H37.6889C37.8229 106.507 37.951 107.524 38.0731 108.546C37.2222 107.826 36.2614 107.246 35.2273 106.83C35.2005 106.83 35.1826 106.861 35.2273 106.87C36.2826 107.328 37.249 107.967 38.0821 108.76C38.0821 108.76 38.1044 108.76 38.1178 108.76C38.2295 109.73 38.3412 110.699 38.4395 111.669C36.9053 109.814 34.9144 108.391 32.6629 107.541C32.6534 107.541 32.6443 107.544 32.6376 107.551C32.6309 107.558 32.6271 107.567 32.6271 107.576C32.6271 107.586 32.6309 107.595 32.6376 107.602C32.6443 107.608 32.6534 107.612 32.6629 107.612C34.8861 108.592 36.839 110.096 38.3546 111.995C38.3713 112.016 38.3938 112.031 38.4192 112.039C38.4447 112.047 38.472 112.047 38.4975 112.039C38.645 113.527 38.779 115.015 38.8862 116.507C38.8862 116.529 38.922 116.529 38.922 116.507C38.8058 115.009 38.6837 113.496 38.5556 111.968Z" fill="white"/>
<path d="M33.084 88.8402C31.8509 88.0728 30.4423 87.633 28.9916 87.5625C28.9845 87.5625 28.9777 87.5653 28.9727 87.5703C28.9677 87.5754 28.9648 87.5822 28.9648 87.5893C28.9648 87.5964 28.9677 87.6032 28.9727 87.6083C28.9777 87.6133 28.9845 87.6161 28.9916 87.6161C30.3942 87.8821 31.7552 88.3328 33.0393 88.9564C33.0929 88.9698 33.1331 88.876 33.084 88.8402Z" fill="white"/>
<path d="M33.9108 107.136C32.9631 106.592 31.9195 106.235 30.8371 106.086C30.8014 106.086 30.7969 106.135 30.8371 106.144C31.8941 106.356 32.9165 106.714 33.8751 107.207C33.9153 107.23 33.951 107.158 33.9108 107.136Z" fill="white"/>
<path d="M57.722 95.0718C54.8417 97.0628 52.1963 99.3739 49.8367 101.961C47.4032 104.7 45.5261 107.887 44.3103 111.343C41.7226 118.544 40.3311 126.12 40.1911 133.77C40.1044 138.007 40.5107 142.239 41.4019 146.382C41.4091 146.412 41.4276 146.438 41.4536 146.455C41.4796 146.472 41.5111 146.478 41.5415 146.473C41.572 146.467 41.599 146.45 41.6171 146.424C41.6352 146.399 41.6429 146.368 41.6387 146.338C40.5297 139.027 40.5719 131.588 41.7637 124.29C42.9343 117.142 44.7704 109.359 49.3184 103.547C51.7935 100.379 54.8806 97.8909 57.932 95.3176C58.0928 95.1746 57.8873 94.9557 57.722 95.0718Z" fill="#EBEBEB"/>
<path d="M41.1934 128.617C42.8329 125.965 44.7596 123.502 46.9387 121.272C50.3475 117.863 53.2157 115.442 53.6624 113.19C54.1092 110.938 50.2492 109.276 50.2492 109.276C50.2492 109.276 54.9625 110.125 56.2536 108.146C57.5448 106.167 58.1658 94.7031 58.1658 94.7031C58.1658 94.7031 49.588 100.828 45.5895 109.415C41.591 118.002 41.1934 128.617 41.1934 128.617Z" fill="#EBEBEB"/>
<path d="M55.0853 105.457C54.5205 105.373 53.9479 105.353 53.3787 105.399C53.3117 105.399 53.3161 105.515 53.3787 105.52C53.9416 105.52 54.509 105.493 55.0719 105.52C55.0783 105.518 55.0842 105.514 55.0888 105.51C55.0934 105.505 55.0966 105.499 55.0979 105.492C55.0993 105.486 55.0989 105.479 55.0967 105.473C55.0944 105.467 55.0905 105.461 55.0853 105.457Z" fill="white"/>
<path d="M48.9261 116.578C48.0203 116.597 47.1249 116.775 46.2812 117.105C46.2812 117.105 46.2812 117.15 46.2812 117.146C47.1748 116.936 48.037 116.851 48.9216 116.699C48.9331 116.694 48.943 116.685 48.9501 116.675C48.9572 116.665 48.9612 116.652 48.9617 116.64C48.9622 116.627 48.9591 116.615 48.9528 116.604C48.9465 116.593 48.9372 116.584 48.9261 116.578Z" fill="white"/>
<path d="M47.0763 112.735C46.7002 112.732 46.3248 112.764 45.9549 112.833C45.9481 112.835 45.9422 112.84 45.938 112.846C45.9339 112.852 45.9316 112.859 45.9316 112.866C45.9316 112.874 45.9339 112.881 45.938 112.887C45.9422 112.893 45.9481 112.897 45.9549 112.9C46.3294 112.922 46.7052 112.905 47.0763 112.851C47.0917 112.851 47.1065 112.845 47.1174 112.834C47.1283 112.823 47.1344 112.808 47.1344 112.793C47.1344 112.777 47.1283 112.762 47.1174 112.752C47.1065 112.741 47.0917 112.735 47.0763 112.735Z" fill="white"/>
<path d="M16.0435 107.235C18.8354 108.181 21.5108 109.442 24.0182 110.992C26.6198 112.645 28.876 114.787 30.6615 117.3C34.4183 122.53 37.2947 128.338 39.1767 134.496C40.2264 137.905 40.8741 141.426 41.1067 144.986C41.1019 145.009 41.0892 145.03 41.0709 145.044C41.0526 145.059 41.0298 145.067 41.0062 145.067C40.9827 145.067 40.9598 145.059 40.9415 145.044C40.9232 145.03 40.9106 145.009 40.9057 144.986C40.1171 138.814 38.3654 132.803 35.7144 127.174C33.1098 121.656 29.8261 115.786 24.8045 112.131C22.0703 110.143 18.9966 108.839 15.9318 107.463C15.771 107.409 15.8827 107.181 16.0435 107.235Z" fill="#EBEBEB"/>
<path d="M37.1756 130.564C35.2346 128.798 33.1057 127.251 30.8271 125.949C27.2799 123.979 24.3983 122.683 23.5181 120.963C22.638 119.243 25.3767 117.01 25.3767 117.01C25.3767 117.01 21.7579 118.797 20.2568 117.479C18.7557 116.161 15.6016 107.047 15.6016 107.047C15.6016 107.047 23.9604 110.018 29.1741 116.045C34.3878 122.071 37.1756 130.564 37.1756 130.564Z" fill="#EBEBEB"/>
<path d="M30.237 122.172C29.4152 122.114 28.59 122.216 27.8066 122.471C27.8066 122.471 27.8066 122.511 27.8066 122.507C28.6058 122.37 29.4133 122.286 30.2236 122.257C30.2817 122.257 30.2951 122.176 30.237 122.172Z" fill="white"/>
<path d="M22.9456 112.615C22.5707 112.585 22.1934 112.606 21.8242 112.678C21.784 112.678 21.7974 112.749 21.8242 112.745C22.195 112.705 22.5569 112.718 22.9232 112.709C22.9346 112.709 22.9458 112.706 22.9549 112.699C22.9639 112.692 22.9704 112.682 22.973 112.671C22.9756 112.66 22.9743 112.649 22.9693 112.638C22.9643 112.628 22.9559 112.62 22.9456 112.615Z" fill="white"/>
<path d="M47.9565 156.509H29.0898L31.7793 136.803L32.4673 131.75H44.579L45.267 136.803L47.9565 156.509Z" fill="#DBDBDB"/>
<path d="M45.267 136.803H31.7793L32.4673 131.75H44.579L45.267 136.803Z" fill="#C7C7C7"/>
<path d="M46.3084 130H30.7344V134.28H46.3084V130Z" fill="#DBDBDB"/>
<path d="M17.0918 156.512L51.05 156.405L85.0082 156.365L152.925 156.289L220.841 156.365L254.799 156.405L288.757 156.512L254.799 156.624L220.841 156.66L152.925 156.736L85.0082 156.66L51.05 156.62L17.0918 156.512Z" fill="#263238"/>
<path d="M153.821 189.809C224.57 189.809 281.925 183.524 281.925 175.772C281.925 168.019 224.57 161.734 153.821 161.734C83.0709 161.734 25.7168 168.019 25.7168 175.772C25.7168 183.524 83.0709 189.809 153.821 189.809Z" fill="#EBEBEB"/>
<path d="M123.999 173.445C122.959 173.798 93.1105 173.892 91.9668 173.186C91.52 172.918 91.2654 168.571 91.0733 163.308C91.0331 162.173 91.0018 160.998 90.975 159.81L88.5938 143.887L108.551 143.758L110.431 159.685L110.355 163.187C110.355 163.187 121.801 168.258 122.972 169.178C124.142 170.099 125.04 173.092 123.999 173.445Z" fill="#EB9481"/>
<path d="M123.997 173.44C122.956 173.793 93.1079 173.887 91.9642 173.181C91.437 172.85 91.1511 166.502 90.9902 159.805L110.406 159.68L110.33 163.182C110.33 163.182 121.776 168.253 122.947 169.173C124.117 170.094 125.038 173.087 123.997 173.44Z" fill="white"/>
<path d="M123.997 173.437C122.956 173.79 93.1075 173.884 91.9638 173.178C91.5171 172.91 91.2624 168.563 91.0703 163.3L110.312 163.18C110.312 163.18 121.758 168.25 122.929 169.171C124.099 170.091 125.037 173.084 123.997 173.437Z" fill="#A6A6A6"/>
<path d="M123.565 172.248C118.561 172.141 98.3675 172.19 93.413 172.467C93.3728 172.467 93.3728 172.494 93.413 172.498C98.372 172.708 118.566 172.498 123.565 172.328C123.672 172.324 123.672 172.248 123.565 172.248Z" fill="#263238"/>
<path d="M121.023 168.11C120.466 168.098 119.913 168.201 119.399 168.413C118.884 168.626 118.419 168.942 118.034 169.343C117.331 170.059 116.934 171.021 116.926 172.024C116.926 172.055 116.979 172.055 116.984 172.024C117.15 171.036 117.631 170.127 118.356 169.435C119.081 168.742 120.01 168.303 121.005 168.182C121.014 168.184 121.024 168.183 121.033 168.178C121.041 168.173 121.047 168.165 121.049 168.155C121.052 168.146 121.05 168.136 121.045 168.127C121.04 168.119 121.032 168.113 121.023 168.11Z" fill="#263238"/>
<path d="M112.272 163.672C110.27 163.65 107.951 164.365 106.709 166.009C106.665 166.071 106.754 166.138 106.812 166.107C108.561 165.184 110.403 164.45 112.307 163.918C112.337 163.91 112.362 163.891 112.379 163.866C112.396 163.84 112.402 163.81 112.398 163.779C112.394 163.749 112.378 163.722 112.355 163.702C112.332 163.682 112.302 163.672 112.272 163.672Z" fill="#263238"/>
<path d="M113.824 164.266C111.818 164.266 109.5 164.963 108.262 166.602C108.213 166.669 108.302 166.736 108.365 166.705C110.111 165.779 111.952 165.043 113.856 164.511C113.885 164.503 113.91 164.485 113.927 164.46C113.943 164.435 113.95 164.405 113.947 164.375C113.943 164.345 113.928 164.318 113.906 164.297C113.883 164.277 113.855 164.266 113.824 164.266Z" fill="#263238"/>
<path d="M115.371 164.867C113.37 164.867 111.051 165.56 109.809 167.204C109.764 167.266 109.854 167.333 109.912 167.302C111.66 166.379 113.503 165.645 115.407 165.113C115.436 165.105 115.462 165.086 115.479 165.061C115.495 165.035 115.502 165.004 115.498 164.974C115.493 164.944 115.478 164.917 115.455 164.897C115.431 164.877 115.402 164.867 115.371 164.867Z" fill="#263238"/>
<path d="M116.922 165.469C114.916 165.447 112.597 166.162 111.359 167.806C111.31 167.868 111.404 167.935 111.462 167.904C113.211 166.98 115.053 166.246 116.957 165.715C116.987 165.707 117.012 165.688 117.029 165.663C117.046 165.637 117.053 165.607 117.048 165.576C117.044 165.546 117.028 165.519 117.005 165.499C116.982 165.479 116.952 165.469 116.922 165.469Z" fill="#263238"/>
<path d="M94.6714 167.703C92.4376 167.703 92.4376 171.21 94.6714 171.197C96.9052 171.183 96.9231 167.69 94.6714 167.703Z" fill="#263238"/>
<path d="M114.421 158.324C113.406 157.484 112.129 158.324 111.508 159.186C110.474 160.71 109.858 162.479 109.721 164.315C109.721 164.355 109.752 164.373 109.783 164.373C109.791 164.411 109.808 164.446 109.833 164.476C109.857 164.506 109.888 164.53 109.924 164.545C109.959 164.56 109.998 164.567 110.036 164.564C110.075 164.561 110.112 164.55 110.145 164.529C111.566 163.542 113.21 162.657 114.287 161.259C114.899 160.446 115.399 159.106 114.421 158.324ZM111.981 162.586C111.293 163.091 110.583 163.56 109.913 164.092C110.27 163.091 110.578 162.081 111.034 161.116C111.245 160.653 111.487 160.206 111.758 159.776C112.205 159.11 114.153 157.43 114.358 159.606C114.474 160.799 112.799 161.987 111.981 162.586Z" fill="#263238"/>
<path d="M104.733 165.076C106.475 165.335 108.276 164.835 109.987 164.562C110.024 164.552 110.058 164.534 110.087 164.509C110.116 164.483 110.138 164.452 110.153 164.416C110.167 164.381 110.173 164.342 110.17 164.304C110.166 164.266 110.154 164.229 110.134 164.196C110.141 164.191 110.146 164.184 110.149 164.177C110.153 164.17 110.155 164.162 110.155 164.153C110.155 164.145 110.153 164.137 110.149 164.13C110.146 164.122 110.141 164.116 110.134 164.111C108.759 162.885 107.086 162.042 105.282 161.667C104.228 161.466 102.736 161.757 102.602 163.066C102.441 164.299 103.714 164.915 104.733 165.076ZM103.518 163.941C102.177 162.226 104.737 162.078 105.506 162.257C106.004 162.382 106.494 162.54 106.971 162.73C107.948 163.136 108.904 163.59 109.835 164.093C108.986 164.178 108.151 164.33 107.306 164.446C106.296 164.58 104.268 164.884 103.518 163.941Z" fill="#263238"/>
<path d="M59.248 70.2891C59.248 70.2891 82.4215 109.711 83.0425 112.481C83.9941 116.734 89.038 158.734 89.038 158.734L113.163 158.287C113.163 158.287 109.008 121.255 105.072 109.054C102.24 100.267 81.7871 71.12 81.7871 71.12L59.248 70.2891Z" fill="#37474F"/>
<path d="M110.97 154.613C107.508 154.586 95.2353 154.448 90.6248 154.876C90.589 154.876 90.5935 154.939 90.6248 154.943C92.2108 155.171 107.503 154.818 110.966 154.707C110.973 154.709 110.981 154.71 110.988 154.709C110.996 154.708 111.003 154.706 111.01 154.701C111.016 154.697 111.021 154.691 111.025 154.685C111.029 154.678 111.031 154.671 111.032 154.663C111.032 154.655 111.03 154.647 111.027 154.64C111.024 154.633 111.019 154.627 111.013 154.622C111.007 154.618 111 154.614 110.993 154.612C110.985 154.611 110.978 154.611 110.97 154.613Z" fill="#263238"/>
<path d="M63.2022 73.9105C64.7212 76.2917 66.3295 78.6238 67.8753 80.9872C69.4211 83.3505 70.9758 85.7139 72.5082 88.0728C75.564 92.8382 78.5424 97.6349 81.4434 102.463C82.8592 104.701 84.0703 107.062 85.0622 109.517C85.9675 111.973 86.6479 114.506 87.0949 117.085C87.5685 119.672 87.8812 122.286 88.1716 124.899C88.4694 127.678 88.7807 130.458 89.1053 133.24C89.7397 138.932 90.3756 144.624 91.013 150.315C91.0889 151.012 91.1649 151.709 91.2364 152.411C91.2364 152.513 91.0621 152.531 91.0487 152.411C90.3384 146.759 89.7487 141.085 89.1053 135.434C88.7837 132.613 88.4635 129.794 88.1448 126.977C87.8455 124.354 87.5595 121.727 87.153 119.123C86.7799 116.552 86.2124 114.013 85.4553 111.528C84.6211 108.955 83.5033 106.482 82.1225 104.156C79.3302 99.3356 76.3727 94.6 73.4151 89.8598C70.4576 85.1197 67.4196 80.3394 64.3012 75.6573C63.917 75.081 63.5283 74.5047 63.1263 73.9373C63.095 73.906 63.1754 73.8658 63.2022 73.9105Z" fill="#263238"/>
<path d="M66.8437 175.762C65.7447 175.695 37.3576 164.195 36.5713 163.105C36.5363 163.041 36.5207 162.968 36.5266 162.895C36.5266 161.917 38.4968 158.503 40.1409 154.018C40.2436 153.732 40.9763 152.401 41.9905 150.609C44.8095 145.699 49.7239 137.242 49.7239 137.242L68.2778 144.614L59.3962 157.905L58.0157 161.121C58.0157 161.121 66.7231 170.124 67.4558 171.397C68.1885 172.67 67.9383 175.824 66.8437 175.762Z" fill="#EB9481"/>
<path d="M66.8437 175.762C65.7447 175.695 37.3576 164.195 36.5713 163.105C36.5363 163.041 36.5207 162.968 36.5266 162.895C36.5266 161.917 38.4968 158.504 40.1409 154.018C40.2436 153.732 40.9763 152.401 41.9905 150.609L59.4141 157.905L58.0336 161.122C58.0336 161.122 66.741 170.124 67.4736 171.397C68.2063 172.67 67.9383 175.824 66.8437 175.762Z" fill="white"/>
<path d="M66.844 175.767C65.745 175.7 37.3579 164.201 36.5716 163.111C36.2678 162.695 37.5366 158.822 40.1456 154.023L58.016 161.131C58.016 161.131 66.7234 170.125 67.4605 171.407C68.1977 172.689 67.9386 175.83 66.844 175.767Z" fill="#A6A6A6"/>
<path d="M66.8875 174.497C62.2904 172.522 43.5533 164.99 38.8578 163.391C38.8176 163.391 38.8087 163.391 38.8578 163.417C43.3745 165.473 62.1697 172.853 66.8696 174.586C66.959 174.609 66.9858 174.537 66.8875 174.497Z" fill="#263238"/>
<path d="M66.0851 169.699C65.5753 169.475 65.0246 169.359 64.4678 169.359C63.911 169.359 63.3603 169.475 62.8506 169.699C61.934 170.1 61.2075 170.84 60.8223 171.763C60.8223 171.79 60.8625 171.812 60.8759 171.785C61.4026 170.929 62.1927 170.266 63.1278 169.896C64.0629 169.526 65.0927 169.47 66.0628 169.735C66.0703 169.733 66.0767 169.728 66.0809 169.721C66.085 169.715 66.0865 169.707 66.0851 169.699Z" fill="#263238"/>
<path d="M59.6374 162.312C57.7923 161.539 55.3708 161.333 53.6061 162.392C53.5391 162.432 53.6061 162.526 53.6642 162.522C55.6314 162.322 57.6143 162.332 59.5793 162.553C59.6095 162.556 59.6399 162.548 59.6648 162.531C59.6897 162.513 59.7073 162.487 59.7144 162.458C59.7216 162.428 59.7177 162.397 59.7035 162.37C59.6893 162.343 59.6658 162.322 59.6374 162.312Z" fill="#263238"/>
<path d="M60.8483 163.452C59.0032 162.679 56.5818 162.474 54.817 163.533C54.75 163.573 54.8171 163.667 54.8751 163.662C56.8422 163.46 58.8254 163.471 60.7902 163.693C60.8205 163.697 60.8509 163.689 60.8757 163.671C60.9006 163.654 60.9183 163.628 60.9254 163.598C60.9325 163.569 60.9286 163.538 60.9144 163.511C60.9002 163.484 60.8767 163.463 60.8483 163.452Z" fill="#263238"/>
<path d="M62.0633 164.577C60.2137 163.804 57.7923 163.599 56.032 164.658C55.9605 164.698 56.032 164.792 56.0856 164.787C58.0528 164.585 60.0359 164.596 62.0007 164.818C62.0316 164.824 62.0633 164.817 62.0895 164.8C62.1157 164.783 62.1347 164.757 62.1425 164.726C62.1504 164.696 62.1466 164.664 62.1319 164.636C62.1173 164.609 62.0928 164.588 62.0633 164.577Z" fill="#263238"/>
<path d="M63.2742 165.718C61.4246 164.946 59.0077 164.74 57.243 165.794C57.1715 165.839 57.243 165.933 57.2966 165.928C59.2637 165.727 61.2468 165.737 63.2117 165.96C63.2425 165.965 63.2742 165.958 63.3004 165.941C63.3267 165.924 63.3456 165.898 63.3534 165.868C63.3613 165.837 63.3575 165.805 63.3428 165.778C63.3282 165.75 63.3037 165.729 63.2742 165.718Z" fill="#263238"/>
<path d="M41.8076 159.447C39.7213 158.616 38.4257 161.864 40.521 162.695C42.6163 163.526 43.9163 160.278 41.8076 159.447Z" fill="#263238"/>
<path d="M63.6355 158.157C63.0055 157 61.5178 157.286 60.6109 157.862C59.0831 158.885 57.8507 160.292 57.0368 161.941C57.0332 161.948 57.0313 161.956 57.0313 161.964C57.0312 161.972 57.0329 161.98 57.0364 161.988C57.0398 161.995 57.0448 162.001 57.0511 162.006C57.0574 162.011 57.0647 162.015 57.0726 162.017C57.0726 162.164 57.1708 162.339 57.3451 162.303C59.0383 161.914 60.8923 161.713 62.4113 160.82C63.2825 160.301 64.2296 159.251 63.6355 158.157ZM59.771 161.19C58.9445 161.4 58.1135 161.57 57.2959 161.811C57.9722 160.997 58.6894 160.217 59.4448 159.475C59.8167 159.121 60.2123 158.792 60.6288 158.492C61.2766 158.045 63.7248 157.219 63.0993 159.314C62.7553 160.471 60.7583 160.94 59.771 161.19Z" fill="#263238"/>
<path d="M52.1232 160.783C53.6422 161.676 55.4963 161.886 57.185 162.279C57.3593 162.32 57.4754 162.145 57.462 161.993C57.4704 161.993 57.4784 161.989 57.4853 161.985C57.4922 161.98 57.4976 161.973 57.5012 161.965C57.5048 161.958 57.5064 161.949 57.5058 161.941C57.5052 161.933 57.5024 161.925 57.4978 161.917C56.6851 160.265 55.4526 158.856 53.9237 157.83C53.0302 157.249 51.5335 156.958 50.8991 158.111C50.2647 159.264 51.2342 160.26 52.1232 160.783ZM51.4263 159.273C50.8053 157.177 53.2491 158.008 53.8969 158.46C54.3129 158.76 54.707 159.09 55.0763 159.447C55.8303 160.19 56.5461 160.972 57.2208 161.788C56.4032 161.547 55.5722 161.372 54.7457 161.162C53.745 160.894 51.7658 160.448 51.4263 159.273Z" fill="#263238"/>
<path d="M60.8402 157.165L40.0703 148.78C40.0703 148.78 65.8215 110.917 66.0092 108.098C66.1789 105.605 54.867 83.8833 54.4247 77.5527C53.9422 70.7173 57.2303 65.4321 60.8491 62.1484L82.2712 71.2579C82.2712 71.2579 80.0106 74.8722 76.4634 76.887C76.4634 76.887 87.4492 101.995 86.8237 109.715C86.1982 117.435 60.8402 157.165 60.8402 157.165Z" fill="#37474F"/>
<path d="M61.7587 153.22C58.7565 151.929 59.6366 152.255 56.6165 150.986C55.1422 150.369 45.4475 146.335 43.9554 146C43.9241 146 43.9018 146.045 43.933 146.063C45.2242 146.853 54.9993 150.718 56.487 151.308C59.5294 152.505 58.6672 152.13 61.723 153.291C61.7276 153.297 61.7336 153.302 61.7406 153.305C61.7475 153.308 61.7552 153.309 61.7628 153.309C61.7703 153.308 61.7776 153.306 61.7839 153.301C61.7902 153.297 61.7953 153.291 61.7987 153.284C61.8021 153.277 61.8037 153.27 61.8034 153.262C61.803 153.255 61.8008 153.247 61.7968 153.241C61.7927 153.234 61.7871 153.229 61.7805 153.225C61.7738 153.222 61.7664 153.22 61.7587 153.22Z" fill="#263238"/>
<path d="M79.9732 76.4256C77.7429 76.9455 75.5608 77.6539 73.4505 78.5432C73.442 78.5462 73.4341 78.5507 73.4274 78.5567C73.4207 78.5627 73.4152 78.5699 73.4112 78.578C73.4073 78.5861 73.405 78.5949 73.4044 78.6039C73.4039 78.6128 73.4051 78.6218 73.408 78.6304C73.411 78.6389 73.4156 78.6467 73.4215 78.6534C73.4275 78.6602 73.4347 78.6657 73.4428 78.6696C73.4509 78.6736 73.4597 78.6759 73.4687 78.6764C73.4777 78.677 73.4867 78.6757 73.4952 78.6728C75.6843 78.0339 77.9091 77.4353 80.0625 76.6802C80.2278 76.6222 80.1429 76.3899 79.9732 76.4256Z" fill="#263238"/>
<path d="M77.4247 75.5613C77.2165 75.9316 77.033 76.3151 76.8752 76.7095C76.721 77.0088 76.6255 77.3348 76.5938 77.67C76.5938 77.737 76.6831 77.7504 76.7233 77.7102C76.9475 77.4421 77.1283 77.1407 77.2594 76.8167C77.4426 76.4638 77.6302 76.1153 77.8045 75.7534C77.9251 75.4898 77.5632 75.3201 77.4247 75.5613Z" fill="#263238"/>
<path d="M77.69 73.5285C77.824 73.1979 77.9536 72.8718 78.0921 72.5412C78.2306 72.2106 78.4048 71.871 78.5388 71.5226C78.5388 71.4689 78.646 71.5226 78.6237 71.5628C78.4897 71.8934 78.4048 72.2418 78.302 72.5814C78.1993 72.9209 78.0831 73.2604 77.9714 73.6C77.7615 74.2299 77.5247 74.8554 77.2343 75.4674C77.5858 75.485 77.9369 75.4239 78.2618 75.2887C78.5938 75.0763 78.849 74.7632 78.99 74.3952C79.1777 74.0289 79.3519 73.6536 79.544 73.2873C79.7805 72.8912 79.9794 72.4739 80.1382 72.0408C80.1382 71.9872 80.2454 72.0408 80.2231 72.081C79.9318 72.9967 79.5502 73.8812 79.0839 74.7214C78.8828 75.0475 78.7265 75.3915 78.3601 75.5166C77.9636 75.6275 77.5486 75.6564 77.1405 75.6015C77.0869 75.6015 77.0243 75.6015 77.0422 75.5211C77.2251 74.8466 77.4413 74.1816 77.69 73.5285Z" fill="#263238"/>
<path d="M76.7792 77.711C77.5432 79.3238 78.2133 80.9321 78.9237 82.5405C79.634 84.1488 80.264 85.7035 80.9028 87.3029C82.1806 90.5285 83.3243 93.8167 84.3295 97.1317C84.8254 98.7757 85.2855 100.433 85.6966 102.104C86.1493 103.77 86.4807 105.466 86.6884 107.179C86.8676 108.89 86.7159 110.619 86.2416 112.272C85.7489 113.907 85.1166 115.495 84.3518 117.021C83.8827 117.986 83.7263 117.857 83.9497 117.37C84.5886 115.985 86.2639 111.79 86.1433 108.265C86.0456 106.577 85.7853 104.903 85.366 103.266C84.9758 101.577 84.5365 99.9016 84.048 98.2396C83.0964 94.9604 81.9661 91.7482 80.8045 88.5405C80.1523 86.7534 79.4643 84.9664 78.7941 83.1793C78.124 81.3923 77.4538 79.7482 76.7033 77.7736C76.6809 77.6931 76.7569 77.6619 76.7792 77.711Z" fill="#263238"/>
<path d="M61.0126 72.3787C61.3834 72.2402 61.9061 72.468 62.2814 72.5306C62.7674 72.613 63.2585 72.6623 63.7512 72.678C64.2387 72.6952 64.7269 72.6787 65.2121 72.6288C65.7008 72.6162 66.1797 72.4892 66.6105 72.258C67.3172 71.7432 67.923 71.1026 68.3975 70.3682C68.963 69.6178 69.4299 68.7981 69.7869 67.9289C69.7869 67.8753 69.8808 67.9289 69.8629 67.9647C69.7065 68.4606 69.5904 68.9609 69.4161 69.4479C69.2235 69.9054 68.9934 70.3463 68.7281 70.7659C68.298 71.6102 67.6618 72.3324 66.8785 72.8656C66.0163 73.3571 64.9083 73.3124 63.9478 73.2722C63.3907 73.2397 62.8367 73.1665 62.2903 73.0533C61.8972 72.9684 61.236 72.9058 60.9858 72.5618C60.974 72.5487 60.9653 72.5331 60.9602 72.5162C60.9551 72.4993 60.9538 72.4814 60.9563 72.464C60.9589 72.4465 60.9653 72.4298 60.975 72.4151C60.9847 72.4003 60.9975 72.3879 61.0126 72.3787Z" fill="#263238"/>
<path d="M45.9981 144.808C49.4113 139.638 52.762 134.425 56.0502 129.172C59.3383 123.918 62.5818 118.624 65.7806 113.289C66.5446 112.016 67.4247 110.747 67.9161 109.335C68.4522 107.803 68.1484 106.315 67.6659 104.814C66.7548 102.076 65.6899 99.3909 64.4761 96.7725C63.2788 94.1322 61.9876 91.5365 60.7188 88.9319C59.45 86.3273 58.1232 83.7539 57.1448 81.0376C56.2512 78.442 55.8894 75.7525 56.5863 73.063C57.2832 70.3735 58.7844 67.9967 60.3525 65.7585C60.7635 65.1687 61.1879 64.5835 61.6034 63.9714C61.6347 63.9267 61.7017 63.9714 61.6704 64.025C59.9415 66.3571 58.2572 68.8277 57.243 71.5663C56.7247 72.9162 56.4348 74.343 56.3853 75.7882C56.3768 77.2551 56.6046 78.7139 57.0599 80.1084C57.8998 82.8247 59.2266 85.3935 60.4642 87.949C61.7017 90.5045 63.0241 93.1493 64.2438 95.7807C65.502 98.4291 66.6204 101.142 67.5945 103.907C68.0099 105.136 68.488 106.423 68.4522 107.74C68.421 109.183 67.733 110.484 67.0181 111.699C63.8908 116.993 60.6876 122.224 57.4262 127.425C54.1649 132.625 50.8097 137.825 47.4143 142.972L46.1277 144.915C46.0606 144.996 45.9445 144.902 45.9981 144.808Z" fill="#263238"/>
<path d="M83.4594 47.1764C85.3939 51.4206 95.1645 57.2687 99.7393 57.8987C103.027 58.3454 113.026 58.5063 116.453 57.9835C120.473 57.367 117.4 46.5331 115.027 46.8146C108.505 47.574 102.965 48.4229 101.223 48.4229C99.096 48.4229 87.5919 44.7327 86.207 44.2099C82.8116 42.9456 82.3648 44.7684 83.4594 47.1764Z" fill="#EB9481"/>
<path d="M83.5208 48.3052C85.969 51.9285 94.1045 57.8525 94.1045 57.8525L95.2348 55.3506L98.9742 47.0766C98.9742 47.0766 91.4999 44.7312 86.5811 43.6589C86.0022 43.5272 85.4135 43.4435 84.8208 43.4087C81.6801 43.239 81.4076 45.1779 83.5208 48.3052Z" fill="#CEB7A1"/>
<path d="M83.5208 48.313C85.969 51.9362 94.1045 57.8602 94.1045 57.8602L95.2348 55.3584C92.2013 51.8335 87.5148 46.4947 84.8208 43.4254C81.6801 43.2467 81.4076 45.1857 83.5208 48.313Z" fill="#263238"/>
<path d="M92.6388 56.1786C93.2598 54.6551 96.0207 48.5211 96.7087 47.2434C96.7534 47.154 96.8249 47.163 96.7847 47.2434C95.587 50.2938 94.2239 53.2767 92.7013 56.1786C92.6834 56.2322 92.612 56.2143 92.6388 56.1786Z" fill="#263238"/>
<path d="M113.83 46.9307C117.797 46.4124 122.707 45.5234 126.867 47.2881C127.334 47.4713 127.726 47.8065 127.979 48.2397C129.855 48.9992 130.061 50.1116 130.061 50.1116C131.593 51.3536 131.647 52.5241 131.647 52.5241C131.647 52.5241 133.845 53.4176 133.51 54.8562C133.144 56.4466 130.132 54.8562 127.943 54.9857C122.917 55.2985 115.881 57.1436 114.429 57.3759L113.83 46.9307Z" fill="#EB9481"/>
<path d="M122.448 51.6097C123.918 51.5092 125.393 51.5092 126.862 51.6097C128.463 51.8105 130.046 52.1316 131.598 52.5703C131.608 52.5738 131.619 52.5732 131.629 52.5686C131.638 52.564 131.646 52.5558 131.649 52.5457C131.653 52.5356 131.652 52.5245 131.648 52.5149C131.643 52.5053 131.635 52.4979 131.625 52.4943C128.709 51.3502 125.534 51.0288 122.448 51.565C122.377 51.5561 122.377 51.6142 122.448 51.6097Z" fill="#263238"/>
<path d="M121.513 46.9744C123.966 47.0995 125.498 47.4927 127.965 48.2343V48.2075C125.248 47.0727 124.136 46.9655 121.5 46.8672C121.415 46.9029 121.42 46.9744 121.513 46.9744Z" fill="#263238"/>
<path d="M121.911 55.75C121.272 56.0493 121.428 56.3844 122.648 56.6659C123.868 56.9473 128.938 57.0322 128.76 58.8014C128.581 60.5705 121.428 60.3472 119.431 59.7217C117.434 59.0962 114.428 57.3807 114.428 57.3807C115.844 57.1439 119.168 56.2459 121.911 55.75Z" fill="#EB9481"/>
<path d="M88.7711 53.9422C88.7399 54.7062 88.6684 55.4835 88.5612 56.2564C88.5612 56.2251 88.5612 56.1983 88.5924 56.1715C88.7399 55.7694 88.8873 55.3584 89.066 54.9697C89.066 54.9697 89.1107 54.9697 89.1062 54.9697C89.0203 55.3956 88.8916 55.8118 88.722 56.2117C88.6416 56.4038 88.5656 56.5915 88.4807 56.7791C88.4271 57.1231 88.3646 57.4627 88.2976 57.8022C88.1635 58.4411 87.5604 61.1574 87.404 61.6175C87.3772 61.7113 87.2611 61.689 87.27 61.5818C87.3013 61.0814 87.8061 58.2534 87.9089 57.6101C88.1085 56.3679 88.3754 55.1375 88.7086 53.9243C88.7309 53.902 88.7756 53.9199 88.7711 53.9422Z" fill="#263238"/>
<path d="M84.1251 74.2555C82.9322 74.8675 81.3954 75.8191 74.4706 74.4565C74.0238 74.3671 73.6039 74.2599 73.166 74.1304C66.6746 72.1825 58.8697 64.5474 58.4453 64.0068C58.4453 64.0068 68.761 47.2846 81.9538 42.0262C83.5845 41.3784 86.2829 42.6293 87.7617 44.1885C88.2933 44.747 89.4504 48.8527 89.0081 52.1766C88.5658 55.5005 85.3134 73.6434 84.1251 74.2555Z" fill="#CEB7A1"/>
<path d="M83.1946 52.0312C83.2444 52.7379 83.1454 53.4471 82.9042 54.1131C82.8475 53.4063 82.9466 52.6956 83.1946 52.0312Z" fill="white"/>
<path d="M78.6957 63.4141C78.7241 63.7657 78.7121 64.1195 78.6599 64.4684C78.6169 64.82 78.5314 65.165 78.4053 65.496C78.3745 65.1429 78.3865 64.7874 78.441 64.4371C78.4867 64.0875 78.5721 63.7443 78.6957 63.4141Z" fill="white"/>
<path d="M71.0537 54.8047C71.104 55.5128 71.0051 56.2236 70.7633 56.8911C70.7072 56.1828 70.8063 55.4707 71.0537 54.8047Z" fill="white"/>
<path d="M86.139 62.8281C86.1676 63.1813 86.1556 63.5365 86.1033 63.887C86.0603 64.2385 85.9748 64.5835 85.8486 64.9145C85.8179 64.5614 85.8299 64.2059 85.8844 63.8557C85.9295 63.5045 86.015 63.1597 86.139 62.8281Z" fill="white"/>
<path d="M76.3242 53.3291C76.6757 53.2992 77.0295 53.3097 77.3786 53.3604C77.7303 53.405 78.0753 53.492 78.4061 53.6195C77.6995 53.6703 76.99 53.5713 76.3242 53.3291Z" fill="white"/>
<path d="M67.6484 61.5516C68.3551 61.5018 69.0643 61.6007 69.7303 61.842C69.0235 61.8987 68.3128 61.7995 67.6484 61.5516Z" fill="white"/>
<path d="M77.8691 70.4583C78.5758 70.4075 79.2852 70.5064 79.951 70.7486C79.2442 70.8044 78.5337 70.7053 77.8691 70.4583Z" fill="white"/>
<path d="M64.9707 67.2235C65.6773 67.1737 66.3866 67.2726 67.0526 67.5139C66.3458 67.5697 65.6353 67.4706 64.9707 67.2235Z" fill="white"/>
<path d="M83.127 44.0204C83.8336 43.9705 84.5428 44.0695 85.2088 44.3108C84.5022 44.3606 83.793 44.2616 83.127 44.0204Z" fill="white"/>
<path d="M80.6034 46.875C80.3775 47.1465 80.1195 47.3895 79.8349 47.5987C79.5581 47.8128 79.2584 47.9956 78.9414 48.1438C79.1658 47.874 79.4206 47.6312 79.7009 47.42C79.9804 47.2052 80.2831 47.0223 80.6034 46.875Z" fill="white"/>
<path d="M66.8481 54.9688C66.6194 55.2379 66.36 55.4793 66.0752 55.688C65.8011 55.9061 65.501 56.0892 65.1816 56.2331C65.4115 55.9651 65.6707 55.7238 65.9545 55.5138C66.2292 55.2966 66.5292 55.1136 66.8481 54.9688Z" fill="white"/>
<path d="M84.0258 58.625C83.7972 58.8955 83.5379 59.1385 83.2529 59.3488C82.9782 59.5659 82.6782 59.749 82.3594 59.8938C82.5879 59.6232 82.8473 59.3804 83.1323 59.17C83.4085 58.955 83.7082 58.7722 84.0258 58.625Z" fill="white"/>
<path d="M72.9008 65.6328C72.6722 65.9034 72.4129 66.1463 72.1279 66.3566C71.8528 66.5731 71.5528 66.7561 71.2344 66.9016C71.4629 66.6311 71.7223 66.3882 72.0073 66.1779C72.2835 65.9629 72.5832 65.78 72.9008 65.6328Z" fill="white"/>
<path d="M88.2875 49.0547C88.059 49.3252 87.7996 49.5681 87.5146 49.7784C87.2378 49.9925 86.9381 50.1753 86.6211 50.3235C86.8496 50.0529 87.109 49.81 87.394 49.5997C87.6691 49.3832 87.9691 49.2002 88.2875 49.0547Z" fill="white"/>
<path d="M88.0559 57.1742C87.7854 56.9457 87.5425 56.6863 87.3321 56.4013C87.1147 56.1268 86.9317 55.8268 86.7871 55.5078C87.0586 55.7337 87.3017 55.9917 87.5109 56.2762C87.7243 56.5551 87.907 56.8562 88.0559 57.1742Z" fill="white"/>
<path d="M63.261 62.768C62.9904 62.5394 62.7475 62.28 62.5372 61.9951C62.3222 61.7189 62.1394 61.4191 61.9922 61.1016C62.2627 61.3301 62.5056 61.5895 62.7159 61.8745C62.9325 62.1496 63.1155 62.4495 63.261 62.768Z" fill="white"/>
<path d="M85.0403 69.4198C84.7688 69.1939 84.5257 68.9359 84.3165 68.6513C84.1024 68.3745 83.9197 68.0748 83.7715 67.7578C84.042 67.9864 84.2849 68.2457 84.4952 68.5307C84.7108 68.8049 84.8937 69.1032 85.0403 69.4198Z" fill="white"/>
<path d="M74.1262 50.4588C73.8558 50.2318 73.6129 49.9739 73.4025 49.6904C73.1893 49.4129 73.0066 49.1134 72.8574 48.7969C73.1289 49.0227 73.372 49.2808 73.5812 49.5653C73.7943 49.8428 73.9771 50.1423 74.1262 50.4588Z" fill="white"/>
<path d="M74.3196 73.2055C74.049 72.9769 73.8061 72.7175 73.5958 72.4326C73.3815 72.1559 73.1987 71.8562 73.0508 71.5391C73.3223 71.7649 73.5653 72.023 73.7745 72.3075C73.9895 72.5853 74.1724 72.8865 74.3196 73.2055Z" fill="white"/>
<path d="M76.1725 59.7836C75.9045 59.5538 75.6633 59.2945 75.4533 59.0107C75.2351 58.7367 75.052 58.4365 74.9082 58.1172C75.1774 58.3458 75.4188 58.6052 75.6275 58.8901C75.8447 59.1648 76.0277 59.4648 76.1725 59.7836Z" fill="white"/>
<path d="M85.3438 48.6461C83.6595 48.3334 82.078 44.8531 81.877 42.5121C81.877 42.3513 82.6633 41.078 83.5612 39.4831C84.1063 38.5136 84.6826 37.419 85.1428 36.3826C85.2366 36.1726 85.7861 36.8829 85.7861 36.8829L86.9834 37.7765L90.9372 40.81C89.9957 41.9397 89.196 43.1805 88.556 44.5047C88.4928 44.6481 88.4449 44.7979 88.413 44.9514C88.4113 44.9767 88.4113 45.0021 88.413 45.0274C88.1673 45.9119 86.9655 48.9454 85.3438 48.6461Z" fill="#EB9481"/>
<path d="M88.4143 44.9758C88.4125 45.0011 88.4125 45.0265 88.4143 45.0518C88.1795 44.9829 87.9509 44.8948 87.7307 44.7882C83.4016 42.7599 85.3093 36.9609 85.3093 36.9609L87.007 37.8008L90.9608 40.8343C90.0193 41.9641 89.2196 43.2049 88.5795 44.529C88.5087 44.6717 88.4533 44.8214 88.4143 44.9758Z" fill="#263238"/>
<path d="M95.4805 28.4609C95.4805 28.4609 97.4596 29.7163 97.4685 31.9501C97.4775 34.1839 96.575 36.3686 96.3874 36.449C96.1998 36.5294 95.4805 28.4609 95.4805 28.4609Z" fill="#263238"/>
<path d="M85.6614 29.6255C84.473 31.971 84.5356 39.3649 86.0188 41.2681C88.1722 44.029 92.3181 44.9806 94.8244 42.2509C97.2503 39.6061 97.0001 29.974 95.2712 28.178C92.7559 25.5243 87.4216 26.1542 85.6614 29.6255Z" fill="#EB9481"/>
<path d="M91.9688 35.5391C91.9688 35.5391 91.9286 35.5659 91.9331 35.5837C91.9599 36.0886 91.9063 36.6694 91.4551 36.8481C91.4551 36.8481 91.4551 36.8793 91.4551 36.8749C92.0135 36.7855 92.0761 36.0126 91.9688 35.5391Z" fill="#263238"/>
<path d="M91.5101 35.0322C90.697 34.9875 90.6702 36.6137 91.4253 36.6539C92.1803 36.6941 92.1892 35.0679 91.5101 35.0322Z" fill="#263238"/>
<path d="M94.7257 35.5312C94.7257 35.5312 94.7659 35.5312 94.7659 35.5759C94.7391 36.0808 94.7972 36.6616 95.2529 36.8358C95.2529 36.8358 95.2529 36.8671 95.2529 36.8626C94.69 36.7777 94.6229 36.0048 94.7257 35.5312Z" fill="#263238"/>
<path d="M95.1853 35.0089C95.9939 34.9598 96.0341 36.586 95.2835 36.6306C94.533 36.6753 94.5062 35.0491 95.1853 35.0089Z" fill="#263238"/>
<path d="M91.0002 33.7919C91.2137 33.7312 91.4239 33.6596 91.6301 33.5775C91.8648 33.535 92.0786 33.4155 92.2377 33.2379C92.2764 33.1729 92.2925 33.097 92.2836 33.0219C92.2747 32.9468 92.2413 32.8767 92.1886 32.8224C92.0677 32.7305 91.9245 32.6726 91.7737 32.6545C91.6229 32.6364 91.47 32.6589 91.3308 32.7197C91.0293 32.8004 90.7684 32.9898 90.5981 33.2513C90.5641 33.3136 90.5487 33.3842 90.5536 33.455C90.5586 33.5257 90.5837 33.5935 90.626 33.6504C90.6683 33.7073 90.7261 33.7509 90.7924 33.776C90.8587 33.801 90.9308 33.8066 91.0002 33.7919Z" fill="#263238"/>
<path d="M95.74 34.5113C95.5227 34.4627 95.3079 34.4031 95.0967 34.3326C94.8612 34.3014 94.6428 34.193 94.4757 34.0243C94.4326 33.9622 94.4118 33.8873 94.4167 33.8119C94.4216 33.7365 94.4518 33.6649 94.5025 33.6088C94.6177 33.5103 94.7573 33.4446 94.9067 33.4187C95.056 33.3928 95.2096 33.4075 95.3513 33.4614C95.6569 33.5247 95.9278 33.7 96.1108 33.9528C96.1491 34.0127 96.1692 34.0823 96.1686 34.1534C96.1679 34.2244 96.1467 34.2937 96.1074 34.3529C96.0681 34.4121 96.0125 34.4586 95.9472 34.4867C95.882 34.5148 95.81 34.5233 95.74 34.5113Z" fill="#263238"/>
<path d="M90.8259 40.3216C90.9465 40.4423 91.0626 40.6031 91.2458 40.621C91.4336 40.6209 91.6193 40.5813 91.7909 40.5048C91.7909 40.5048 91.8221 40.5048 91.7909 40.5316C91.7177 40.6298 91.6191 40.7062 91.5058 40.7527C91.3924 40.7991 91.2686 40.8138 91.1475 40.7952C91.0455 40.7674 90.9538 40.7102 90.8839 40.6308C90.8141 40.5514 90.769 40.4532 90.7544 40.3484C90.7508 40.339 90.7512 40.3285 90.7554 40.3193C90.7596 40.31 90.7672 40.3029 90.7767 40.2993C90.7862 40.2958 90.7967 40.2961 90.8059 40.3003C90.8151 40.3045 90.8223 40.3122 90.8259 40.3216Z" fill="#263238"/>
<path d="M93.7475 38.1655C93.7475 38.1655 93.7698 38.9161 93.7475 39.269C93.061 39.1962 92.3677 39.2202 91.6879 39.3405C91.5271 39.3762 91.545 39.2467 91.7282 39.1618C92.2757 38.9115 92.8856 38.8306 93.4794 38.9295C93.5152 38.8356 93.4214 37.7679 93.4794 37.7724C93.7497 37.8254 94.0113 37.9156 94.2568 38.0404C94.2568 36.4678 94.0066 34.9131 94.029 33.3405C94.029 33.2869 94.1138 33.278 94.1228 33.3405C94.4403 35.0041 94.5899 36.6954 94.5695 38.3889C94.574 38.581 93.8815 38.237 93.7475 38.1655Z" fill="#263238"/>
<path d="M92.7416 38.9988C92.5635 39.4672 92.2331 39.8622 91.8034 40.1201C91.1288 40.3927 90.9099 39.7806 91.589 39.2266C91.9451 39.0466 92.3438 38.9678 92.7416 38.9988Z" fill="#263238"/>
<path d="M92.0408 39.9904C91.9695 40.0485 91.8896 40.0952 91.804 40.1289C91.183 40.3791 90.9373 39.8832 91.4377 39.3828C91.7772 39.4096 92.1659 39.5347 92.0408 39.9904Z" fill="#FF99BA"/>
<path d="M85.3218 35.9471C86.1393 36.1973 87.0775 33.7401 87.3456 32.8198C87.5779 31.9888 87.846 29.3484 87.8862 29.1653C87.9264 28.9821 91.4602 31.5018 93.5064 30.9032C95.5526 30.3045 96.942 28.4504 96.9733 27.5882C97.0045 26.726 94.4446 24.5368 92.2331 24.4251C90.0217 24.3134 87.0239 27.1057 87.0239 27.1057C87.386 26.6948 87.7147 26.2555 88.0068 25.7922C87.971 25.6939 86.5414 26.2658 86.2778 27.2844C86.2778 27.2844 86.5638 26.0022 86.4565 25.9799C86.3493 25.9575 85.2369 27.0521 85.4871 27.8831C85.4871 27.8831 84.2004 28.9955 84.0842 30.2151C83.9681 31.4348 84.3612 35.6522 85.3218 35.9471Z" fill="#263238"/>
<path d="M94.9724 30.4374C94.3639 30.7673 93.7085 31.0023 93.029 31.1343C92.2663 31.2023 91.4986 31.0795 90.7952 30.7769C90.0866 30.5032 89.4283 30.1136 88.8473 29.6243C88.3336 29.2043 87.8734 28.6905 87.3239 28.3153C87.1854 28.217 87.029 28.418 87.1139 28.5431C88.0307 29.8381 89.3404 30.8031 90.8488 31.2951C91.5494 31.5236 92.2973 31.5662 93.0193 31.419C93.7413 31.2718 94.4127 30.9397 94.9679 30.4552C94.9679 30.4552 94.9813 30.4374 94.9724 30.4374Z" fill="#263238"/>
<path d="M86.1734 35.7345C86.1734 35.7345 84.9046 33.1612 83.7609 33.5766C82.6172 33.9921 83.3141 37.5528 84.4891 38.2051C84.633 38.2982 84.7943 38.3613 84.9632 38.3906C85.1321 38.4199 85.3051 38.4148 85.472 38.3755C85.6389 38.3363 85.7961 38.2638 85.9343 38.1624C86.0725 38.0609 86.1888 37.9326 86.2761 37.7851L86.1734 35.7345Z" fill="#EB9481"/>
<path d="M83.9904 34.5859C83.9904 34.5859 83.9636 34.5859 83.9904 34.6217C84.8035 35.1042 85.1341 35.962 85.3307 36.8555C85.2937 36.7609 85.2366 36.6755 85.1633 36.6051C85.09 36.5348 85.0024 36.4812 84.9064 36.448C84.8103 36.4149 84.7083 36.403 84.6072 36.4132C84.5062 36.4234 84.4085 36.4554 84.321 36.507C84.2942 36.507 84.321 36.5561 84.321 36.5561C84.4809 36.5313 84.6444 36.5566 84.7893 36.6286C84.9341 36.7006 85.053 36.8158 85.1297 36.9582C85.2575 37.1968 85.3594 37.4484 85.4335 37.7088C85.4603 37.7937 85.6077 37.7713 85.5943 37.6775C85.7864 36.5651 85.1609 34.8808 83.9904 34.5859Z" fill="#263238"/>
<path d="M77.7981 47.2183C76.9046 52.28 82.3908 69.3329 85.9068 72.5183C91.1384 77.2539 100.811 80.3678 104.318 81.382C105.846 81.8287 110.072 71.0752 108.526 70.3649C105.216 68.8593 94.9313 65.6426 93.9529 64.8385C92.9745 64.0343 87.0773 55.5146 84.4504 50.6092C80.9344 44.006 78.2404 44.6583 77.7981 47.2183Z" fill="#EB9481"/>
<path d="M105.921 69.4219C105.921 69.4219 110.487 70.5879 113.431 71.4859C115.075 71.9907 117.818 73.1032 118.859 74.0235C120.414 75.404 126.034 82.159 124.426 83.5574C122.969 84.8261 118.877 78.4062 118.877 78.4062C118.877 78.4062 123.577 84.5179 121.557 85.7197C119.538 86.9214 115.843 79.054 115.843 79.054C115.843 79.054 120.53 85.4427 118.238 86.3496C116.505 87.0331 112.787 80.095 112.787 80.095C112.787 80.095 116.782 85.6124 115.021 86.3943C113.082 87.261 109.254 81.0689 109.254 81.0689C104.464 82.3064 101.659 80.9349 99.8136 79.7286C99.3802 79.4338 105.921 69.4219 105.921 69.4219Z" fill="#EB9481"/>
<path d="M117.386 76.1793C117.967 76.8762 118.556 77.5821 119.07 78.3282C119.584 79.0743 120.071 79.8427 120.513 80.6335C121.113 81.6563 121.592 82.7446 121.943 83.8769C121.174 81.9112 119.374 79.2083 118.86 78.4622C118.346 77.7161 117.868 76.9432 117.359 76.1971C117.346 76.1793 117.373 76.1614 117.386 76.1793Z" fill="#263238"/>
<path d="M114.655 77.9899C115.647 78.7762 117.725 81.698 118.524 83.6593C118.56 83.7397 118.524 83.7353 118.466 83.6593C117.841 82.6898 115.303 78.9371 114.633 78.0033C114.62 77.9899 114.642 77.9765 114.655 77.9899Z" fill="#263238"/>
<path d="M112.032 79.1417C113.264 80.4342 114.238 81.9507 114.9 83.6093C114.932 83.6897 114.869 83.6763 114.82 83.6093C113.895 82.1037 113.18 80.9287 111.983 79.1819C111.965 79.1417 112.005 79.1014 112.032 79.1417Z" fill="#263238"/>
<path d="M82.7837 47.5883C78.7048 41.8206 76.2655 43.9562 77.0831 50.2197C77.8515 56.0767 79.9021 63.0551 79.9021 63.0551L90.1776 58.0693C90.1776 58.0693 85.3794 51.283 82.7837 47.5883Z" fill="#CEB7A1"/>
<path d="M85.2641 49.8594C85.3995 50.1851 85.497 50.5254 85.5545 50.8735C85.6172 51.2227 85.6397 51.578 85.6215 51.9323C85.4875 51.6049 85.3916 51.2631 85.3356 50.9137C85.2691 50.5665 85.2451 50.2124 85.2641 49.8594Z" fill="white"/>
<path d="M79.1738 53.3622C79.8295 53.0955 80.5351 52.9736 81.2423 53.0048C80.9164 53.1388 80.5761 53.2347 80.2282 53.2907C79.8809 53.357 79.5269 53.381 79.1738 53.3622Z" fill="white"/>
<path d="M79.4373 44.3984C79.1606 45.0514 78.7479 45.6377 78.2266 46.1185C78.5032 45.4655 78.916 44.8792 79.4373 44.3984Z" fill="white"/>
<path d="M88.1443 56.0625C88.0087 56.3893 87.8363 56.6995 87.6305 56.9873C87.4302 57.2787 87.1962 57.5456 86.9336 57.7825C87.2103 57.1296 87.623 56.5432 88.1443 56.0625Z" fill="white"/>
<path d="M80.9954 59.5623C80.6679 59.4283 80.3575 59.2558 80.0706 59.0485C79.779 58.8483 79.5121 58.6144 79.2754 58.3516C79.9283 58.6282 80.5147 59.041 80.9954 59.5623Z" fill="white"/>
<path d="M84.1231 49.3281C84.6726 50.0831 85.24 50.8203 85.8029 51.5619C85.6599 51.1866 85.5348 50.8069 85.4276 50.4227H85.4544C85.5661 50.7175 85.6957 51.0079 85.8029 51.3162L85.9637 51.763C85.9776 51.7935 85.9895 51.8248 85.9995 51.8568C86.4462 52.4331 86.893 53.0094 87.304 53.5991C87.8088 54.305 88.2958 55.0198 88.7872 55.7347C89.2787 56.4495 89.7746 57.3385 90.3062 58.0578C90.3554 58.1204 89.4127 58.5046 89.31 58.5537C89.2072 58.6029 89.1536 58.518 89.2519 58.4867C89.3502 58.4554 90.1007 57.9953 90.1097 57.9863C89.6182 57.2626 89.0508 56.5969 88.5371 55.8955C88.0233 55.1941 87.514 54.4927 87.0181 53.7823C86.0129 52.3348 85.0925 50.8337 84.0918 49.3817L84.1231 49.3281Z" fill="#263238"/>
<path d="M77.324 54.362C77.4804 54.6658 77.6501 54.9651 77.7708 55.2779L77.9405 55.6665C77.7037 54.5541 77.4938 53.4327 77.248 52.3203C77.7216 54.1074 78.1996 55.9346 78.6375 57.7484C79.053 59.4819 79.5578 61.2332 79.799 63.0023C80.1106 62.8657 80.4335 62.7565 80.764 62.6762C80.4323 62.8909 80.0751 63.0635 79.7008 63.19C79.1622 61.3909 78.7149 59.5658 78.3605 57.7216C78.2488 57.2213 78.146 56.7209 78.0388 56.2205C77.9227 55.9167 77.7842 55.6263 77.6457 55.327C77.5072 55.0277 77.3821 54.6926 77.257 54.3754C77.2838 54.3575 77.3151 54.3397 77.324 54.362Z" fill="#263238"/>
<path d="M80.0549 61.3275C81.4845 60.5233 87.4577 57.4317 88.7935 56.8599C88.8873 56.8197 88.9365 56.8599 88.8426 56.9224C86.0073 58.57 83.0841 60.0614 80.0861 61.39C80.0504 61.399 80.0147 61.3498 80.0549 61.3275Z" fill="#263238"/>
<path d="M243.761 178.787H107.643L127.322 67.1641H263.441L243.761 178.787Z" fill="#CEB7A1"/>
<path d="M173.91 55.6016H129.364L127.322 67.1637H174.996L173.91 55.6016Z" fill="#CEB7A1"/>
<g opacity="0.1">
<path d="M243.759 178.787H107.641L127.32 67.1641H263.439L243.759 178.787Z" fill="black"/>
<path d="M173.908 55.6016H129.362L127.32 67.1637H174.994L173.908 55.6016Z" fill="black"/>
</g>
<path d="M124.557 60.3165C124.26 59.038 124.26 57.7082 124.557 56.4297C124.855 57.7082 124.855 59.038 124.557 60.3165Z" fill="#263238"/>
<path d="M120.598 61.469C120.143 60.9973 119.751 60.4687 119.432 59.8964C119.097 59.336 118.835 58.7356 118.65 58.1094C119.107 58.5783 119.499 59.1056 119.816 59.6775C120.151 60.2398 120.413 60.8417 120.598 61.469Z" fill="#263238"/>
<path d="M117.739 64.4356C116.484 64.0539 115.333 63.389 114.375 62.4922C115.001 62.6742 115.602 62.9355 116.162 63.2695C116.734 63.5908 117.264 63.9825 117.739 64.4356Z" fill="#263238"/>
<path d="M116.738 68.4422C115.46 68.74 114.13 68.74 112.852 68.4422C114.13 68.1443 115.46 68.1443 116.738 68.4422Z" fill="#263238"/>
<path d="M117.899 72.3984C117.425 72.851 116.897 73.2427 116.326 73.5645C115.766 73.8986 115.165 74.1598 114.539 74.3418C115.011 73.8869 115.539 73.495 116.112 73.1758C116.671 72.8401 117.272 72.5788 117.899 72.3984Z" fill="#263238"/>
<path d="M120.867 75.25C120.487 76.5073 119.822 77.66 118.924 78.6186C119.106 77.9915 119.369 77.3907 119.706 76.8315C120.024 76.2572 120.414 75.7257 120.867 75.25Z" fill="#263238"/>
<path d="M124.869 76.2344C125.025 76.8702 125.1 77.5232 125.092 78.1778C125.102 78.8325 125.027 79.4857 124.869 80.1212C124.709 79.4861 124.634 78.8326 124.646 78.1778C124.638 77.5232 124.713 76.8702 124.869 76.2344Z" fill="#263238"/>
<path d="M128.826 75.1105C129.281 75.5822 129.673 76.1108 129.992 76.6831C130.328 77.2425 130.589 77.8432 130.77 78.4701C129.872 77.5115 129.207 76.3588 128.826 75.1016V75.1105Z" fill="#263238"/>
<path d="M131.682 72.125C132.309 72.3054 132.909 72.5667 133.469 72.9024C134.041 73.2216 134.57 73.6135 135.041 74.0684C134.414 73.888 133.814 73.6267 133.254 73.291C132.682 72.9718 132.153 72.5799 131.682 72.125Z" fill="#263238"/>
<path d="M132.67 68.1218C133.95 67.824 135.281 67.824 136.561 68.1218C135.281 68.4195 133.95 68.4195 132.67 68.1218Z" fill="#263238"/>
<path d="M131.527 64.1622C131.999 63.71 132.528 63.3197 133.099 63.0006C133.657 62.6617 134.258 62.3988 134.886 62.2188C133.928 63.1168 132.775 63.7818 131.518 64.1622H131.527Z" fill="#263238"/>
<path d="M128.555 61.3049C128.739 60.6793 129 60.079 129.332 59.5179C129.651 58.9456 130.043 58.417 130.498 57.9453C130.318 58.5722 130.056 59.173 129.721 59.7324C129.402 60.3047 129.01 60.8332 128.555 61.3049Z" fill="#263238"/>
<path d="M243.56 178.79H107.151L87.7793 71.2188H224.193L243.56 178.79Z" fill="#CEB7A1"/>
<path d="M135.05 136.979C138.181 136.979 140.72 134.441 140.72 131.31C140.72 128.179 138.181 125.641 135.05 125.641C131.919 125.641 129.381 128.179 129.381 131.31C129.381 134.441 131.919 136.979 135.05 136.979Z" fill="#263238"/>
<path d="M179.869 136.979C183 136.979 185.538 134.441 185.538 131.31C185.538 128.179 183 125.641 179.869 125.641C176.737 125.641 174.199 128.179 174.199 131.31C174.199 134.441 176.737 136.979 179.869 136.979Z" fill="#263238"/>
<path d="M165.605 137.879L165.292 137.285C165.266 137.232 162.335 131.817 156.442 131.817C151.081 131.817 149.741 136.914 149.705 137.133L149.544 137.781L148.244 137.468L148.401 136.816C148.401 136.754 150 130.477 156.442 130.477C163.144 130.477 166.347 136.41 166.481 136.664L166.794 137.254L165.605 137.879Z" fill="#263238"/>
<path d="M234.553 130.871L234.459 130.424C234.749 130.362 235.035 130.295 235.321 130.219L235.433 130.666C235.129 130.741 234.848 130.808 234.553 130.871Z" fill="#263238"/>
<path d="M237.161 130.152L237.018 129.732C237.576 129.54 238.135 129.33 238.675 129.103L238.85 129.514C238.3 129.746 237.733 129.96 237.161 130.152ZM240.489 128.727L240.288 128.334C240.811 128.062 241.334 127.767 241.829 127.441L242.062 127.82C241.552 128.173 241.021 128.473 240.489 128.727ZM243.563 126.837L243.299 126.476C243.782 126.123 244.246 125.752 244.684 125.372L244.979 125.707C244.51 126.114 244.063 126.493 243.558 126.855L243.563 126.837ZM246.288 124.461L245.962 124.152C246.373 123.706 246.762 123.259 247.119 122.812L247.472 123.085C247.101 123.576 246.704 124.036 246.297 124.479L246.288 124.461ZM248.5 121.601L248.12 121.365C248.429 120.866 248.703 120.346 248.942 119.81L249.353 119.993C249.1 120.552 248.814 121.095 248.495 121.619L248.5 121.601ZM249.978 118.286L249.532 118.161C249.695 117.601 249.816 117.029 249.893 116.45L250.34 116.508C250.266 117.116 250.144 117.716 249.974 118.304L249.978 118.286ZM250.474 114.712H250.027V114.583C250.027 114.042 249.996 113.493 249.943 112.952L250.389 112.907C250.448 113.464 250.478 114.023 250.479 114.583L250.474 114.712ZM249.67 111.214C249.55 110.638 249.401 110.069 249.223 109.508L249.67 109.374C249.853 109.954 250.01 110.544 250.117 111.12L249.67 111.214ZM248.611 107.85C248.397 107.323 248.165 106.782 247.879 106.237L248.281 106.036C248.553 106.59 248.803 107.144 249.022 107.68L248.611 107.85ZM247.048 104.665C246.771 104.178 246.467 103.664 246.154 103.137L246.534 102.9C246.86 103.432 247.168 103.95 247.427 104.446L247.048 104.665ZM245.18 101.631C244.854 101.14 244.523 100.644 244.184 100.148L244.555 99.8978C244.894 100.394 245.225 100.89 245.551 101.39L245.18 101.631ZM243.17 98.6737C242.835 98.1823 242.495 97.6864 242.165 97.1949L242.535 96.9448C242.866 97.4362 243.201 97.9321 243.536 98.4191L243.17 98.6737ZM241.173 95.6983C240.847 95.1979 240.529 94.6886 240.217 94.1793L240.596 93.947C240.909 94.4563 241.226 94.9567 241.548 95.4571L241.173 95.6983ZM239.31 92.6291C239.006 92.0885 238.724 91.5524 238.47 91.0386L238.872 90.8376C239.122 91.3469 239.404 91.874 239.698 92.4102L239.31 92.6291ZM237.724 89.4124C237.487 88.8539 237.277 88.2866 237.08 87.7326L237.527 87.5896C237.715 88.1302 237.925 88.6886 238.157 89.2382L237.724 89.4124ZM236.562 86.0036C236.415 85.4228 236.285 84.8286 236.187 84.2166L236.634 84.1451C236.732 84.717 236.853 85.2977 237 85.8696L236.562 86.0036ZM235.964 82.4295C235.919 81.88 235.896 81.326 235.896 80.7721V80.6246H236.343V80.7676C236.343 81.3082 236.343 81.8532 236.41 82.3893L235.964 82.4295ZM236.41 78.8555L235.964 78.8108C235.964 78.6902 235.986 78.5651 235.999 78.4355C236.053 77.9575 236.12 77.4794 236.2 77.0238L236.647 77.0997C236.571 77.5465 236.504 78.0156 236.45 78.4846C236.468 78.6231 236.468 78.7438 236.433 78.8689L236.41 78.8555ZM237.031 75.3797L236.585 75.2591C236.75 74.6693 236.942 74.093 237.156 73.5435L237.572 73.7043C237.369 74.2575 237.196 74.8212 237.054 75.3931L237.031 75.3797ZM259.293 72.7751C259.043 72.7751 258.784 72.7393 258.529 72.7036C258.181 72.6544 257.832 72.5964 257.488 72.5294L257.578 72.0826C257.908 72.1451 258.252 72.2032 258.592 72.2524C258.833 72.2836 259.079 72.306 259.316 72.3194L259.293 72.7751ZM261.129 72.6366L261.036 72.1898C261.596 72.074 262.134 71.8657 262.626 71.5733L262.858 71.953C262.332 72.2786 261.756 72.5142 261.152 72.65L261.129 72.6366ZM238.318 72.1049L237.92 71.8949C238.205 71.3621 238.52 70.846 238.863 70.3492L239.229 70.6038C238.903 71.0903 238.606 71.5961 238.34 72.1183L238.318 72.1049ZM255.742 72.0781C255.165 71.8952 254.598 71.6819 254.044 71.4393L254.227 71.0282C254.764 71.2669 255.315 71.4742 255.876 71.6492L255.742 72.0781ZM264.23 70.6842L263.859 70.434C264.177 69.9726 264.366 69.434 264.404 68.8749L264.851 68.9061C264.813 69.547 264.603 70.1659 264.243 70.6976L264.23 70.6842ZM252.436 70.6172C251.913 70.3133 251.407 69.9807 250.921 69.6209L251.185 69.2635C251.658 69.6124 252.15 69.9346 252.659 70.2285L252.436 70.6172ZM240.328 69.2233L239.998 68.924C240.402 68.4741 240.833 68.0489 241.289 67.6507L241.584 67.9858C241.145 68.3779 240.731 68.7956 240.342 69.2367L240.328 69.2233ZM249.527 68.4683C249.082 68.0584 248.66 67.6244 248.263 67.1682L248.598 66.8734C248.985 67.3165 249.395 67.7385 249.826 68.1377L249.527 68.4683ZM264.069 67.2576C263.813 66.747 263.46 66.2917 263.028 65.9173L263.323 65.5822C263.798 65.9928 264.188 66.4921 264.471 67.0521L264.069 67.2576ZM242.973 66.9046L242.719 66.5383C243.218 66.1971 243.736 65.8824 244.269 65.5956L244.479 65.9888C243.966 66.2724 243.467 66.5826 242.987 66.918L242.973 66.9046ZM247.146 65.7431C246.976 65.5018 246.811 65.2561 246.654 65.0014L246.074 65.2293L245.904 64.8183L246.418 64.6128C246.337 64.4787 246.257 64.3447 246.181 64.2107L246.57 63.9918C246.659 64.1481 246.748 64.3045 246.842 64.4385C247.092 64.3492 247.347 64.2643 247.606 64.1839L247.736 64.6306C247.517 64.6976 247.289 64.7691 247.083 64.8451C247.222 65.064 247.365 65.2918 247.53 65.4839L247.146 65.7431ZM261.59 64.9746C261.157 64.7592 260.709 64.577 260.249 64.4296L259.955 64.3358L260.084 63.889L260.388 63.9873C260.867 64.1399 261.333 64.3296 261.782 64.5547L261.59 64.9746ZM249.447 64.1749L249.353 63.7282C249.929 63.5986 250.528 63.4914 251.14 63.4065L251.207 63.8533C250.617 63.9471 250.032 64.0588 249.46 64.1883L249.447 64.1749ZM258.248 63.9337C257.689 63.8354 257.1 63.7595 256.497 63.7058L256.532 63.2591C257.153 63.3127 257.756 63.3886 258.319 63.4914L258.248 63.9337ZM252.954 63.6746L252.923 63.2278C253.454 63.1965 253.986 63.1787 254.513 63.1787H254.732V63.6254H254.517C254.013 63.6388 253.485 63.6522 252.967 63.688L252.954 63.6746ZM245.404 62.6068C245.162 62.0618 244.957 61.4944 244.756 60.9181L245.202 60.7796C245.39 61.3425 245.6 61.8965 245.832 62.4281L245.404 62.6068ZM244.273 59.1757C244.139 58.5994 244.028 58.0007 243.943 57.3887L244.389 57.3261C244.474 57.9158 244.582 58.5011 244.711 59.0685L244.273 59.1757ZM243.773 55.6016C243.751 55.1995 243.737 54.7885 243.737 54.3775C243.737 54.1854 243.737 53.9888 243.737 53.7967H244.184C244.184 53.9888 244.184 54.1765 244.184 54.3686C244.184 54.7706 244.184 55.1772 244.215 55.5659L243.773 55.6016ZM244.305 52.0275L243.858 51.9829C243.92 51.3931 244.005 50.79 244.108 50.1958L244.555 50.2718C244.434 50.866 244.349 51.4378 244.291 52.0365L244.305 52.0275ZM244.917 48.5383L244.47 48.4311C244.613 47.8548 244.778 47.274 244.961 46.6932L245.408 46.8317C245.207 47.417 245.042 47.9844 244.903 48.5473L244.917 48.5383ZM245.989 45.1564L245.573 44.9955C245.792 44.4371 246.02 43.8786 246.293 43.3381L246.695 43.5346C246.427 44.0708 246.19 44.6158 245.975 45.1832L245.989 45.1564ZM247.526 41.971L247.137 41.7431C247.441 41.2294 247.767 40.7156 248.106 40.2242L248.473 40.4788C248.124 40.9702 247.807 41.4706 247.512 41.9799L247.526 41.971ZM249.541 39.0626L249.192 38.7811C249.567 38.3344 249.969 37.8608 250.385 37.4408L250.707 37.7491C250.287 38.1691 249.893 38.6158 249.527 39.0715L249.541 39.0626ZM251.971 36.4892L251.672 36.1586C252.118 35.761 252.565 35.3679 253.043 34.9881L253.32 35.3411C252.842 35.7208 252.386 36.1095 251.958 36.4982L251.971 36.4892ZM254.745 34.2823L254.491 33.9114C254.978 33.5764 255.487 33.2458 256.005 32.933L256.233 33.3128C255.715 33.63 255.232 33.9561 254.732 34.2912L254.745 34.2823ZM257.779 32.4371L257.569 32.044C258.096 31.7625 258.641 31.4945 259.186 31.2443L259.374 31.6508C258.806 31.9055 258.284 32.1735 257.765 32.4461L257.779 32.4371ZM261.009 30.9539L260.844 30.5339C261.406 30.315 261.974 30.0872 262.537 29.9219L262.68 30.3686C262.112 30.5384 261.549 30.7439 260.995 30.9628L261.009 30.9539Z" fill="#263238"/>
<path d="M264.455 29.8241L264.344 29.3774C264.898 29.2344 265.237 29.1719 265.237 29.1719L265.318 29.6186C265.318 29.6186 264.996 29.6856 264.455 29.8241Z" fill="#263238"/>
<path d="M272.355 26.9324C271.215 23.403 263.585 24.6718 265.072 29.2868C266.56 33.9018 273.494 30.4662 272.355 26.9324Z" fill="#263238"/>
<path d="M260.921 25.5249C260.979 23.9746 263.133 22.7818 266.179 23.3313C269.226 23.8808 272.09 25.9359 272.09 25.9359C272.09 25.9359 269.083 27.7587 266.005 28.0938C262.927 28.4288 260.863 27.0707 260.921 25.5249Z" fill="#EBEBEB"/>
<path d="M272.088 25.9266C270.507 25.9266 268.93 25.8819 267.353 25.8328C265.776 25.7836 264.194 25.7032 262.617 25.5781C264.199 25.5781 265.78 25.6183 267.357 25.6675C268.934 25.7166 270.516 25.797 272.088 25.9266Z" fill="#263238"/>
<path d="M263.98 24.1406C264.878 24.5701 265.725 25.0992 266.505 25.7177C266.055 25.5068 265.62 25.2681 265.2 25.0029C264.777 24.7395 264.37 24.4516 263.98 24.1406Z" fill="#263238"/>
<path d="M268.121 25.7734C267.313 26.4284 266.437 26.9946 265.508 27.4622C266.32 26.8064 267.201 26.2402 268.135 25.7734H268.121Z" fill="#263238"/>
<path d="M268.582 24.9062C269.033 25.1227 269.427 25.4408 269.735 25.8355C269.509 25.7291 269.298 25.5956 269.105 25.4379C268.911 25.2812 268.735 25.1028 268.582 24.9062Z" fill="#263238"/>
<path d="M263.826 34.7026C264.778 35.9268 267.221 35.6319 269.37 33.407C271.519 31.1822 272.658 27.8359 272.658 27.8359C272.658 27.8359 269.138 28.104 266.453 29.623C263.768 31.142 262.87 33.474 263.826 34.7026Z" fill="#EBEBEB"/>
<path d="M272.656 27.8359C271.37 28.7295 270.119 29.7213 268.864 30.6818C267.608 31.6423 266.38 32.6341 265.178 33.6572C266.464 32.7637 267.715 31.7764 268.966 30.8158C270.217 29.8553 271.437 28.8635 272.656 27.8359Z" fill="#263238"/>
<path d="M267.107 34.0177C267.346 33.5837 267.56 33.1362 267.746 32.6774C267.936 32.2173 268.098 31.7458 268.229 31.2656C267.989 31.6992 267.776 32.1468 267.59 32.6059C267.402 33.0667 267.241 33.5381 267.107 34.0177Z" fill="#263238"/>
<path d="M269.53 30.2789C268.484 30.223 267.436 30.2784 266.402 30.4442C266.923 30.4754 267.445 30.4754 267.966 30.4442C268.49 30.4186 269.012 30.3634 269.53 30.2789Z" fill="#263238"/>
<path d="M270.393 30.7153C270.512 30.4947 270.605 30.2608 270.67 30.0184C270.736 29.7778 270.775 29.5305 270.786 29.2812C270.548 29.7235 270.414 30.2138 270.393 30.7153Z" fill="#263238"/>
<path d="M272.354 26.9432C272.102 27.0251 271.831 27.0303 271.575 26.9581C271.32 26.886 271.092 26.7397 270.92 26.5378C270.748 26.3359 270.639 26.0875 270.609 25.824C270.578 25.5605 270.626 25.2938 270.747 25.0576C270.868 24.8215 271.056 24.6266 271.288 24.4975C271.52 24.3684 271.784 24.311 272.049 24.3326C272.313 24.3541 272.565 24.4536 272.773 24.6185C272.981 24.7834 273.135 25.0063 273.216 25.2589C273.324 25.5966 273.295 25.9635 273.133 26.2792C272.971 26.5949 272.691 26.8336 272.354 26.9432Z" fill="#455A64"/>
<path d="M273.175 29.4905C272.923 29.5721 272.652 29.5771 272.397 29.5048C272.142 29.4326 271.914 29.2864 271.742 29.0847C271.57 28.883 271.462 28.6348 271.431 28.3716C271.4 28.1083 271.448 27.8419 271.568 27.6058C271.689 27.3698 271.877 27.1747 272.108 27.0454C272.339 26.9161 272.604 26.8582 272.868 26.8792C273.132 26.9002 273.384 26.999 273.593 27.1632C273.801 27.3274 273.955 27.5496 274.037 27.8017C274.091 27.9692 274.112 28.1458 274.098 28.3213C274.084 28.4968 274.036 28.6679 273.956 28.8248C273.876 28.9816 273.766 29.1211 273.632 29.2353C273.498 29.3495 273.342 29.4362 273.175 29.4905Z" fill="#455A64"/>
<path d="M126.705 28.352C126.491 30.4041 125.711 32.3562 124.452 33.9907C123.193 35.6252 121.505 36.8777 119.575 37.6084C117.646 38.3391 115.551 38.5194 113.525 38.1289C111.5 37.7385 109.622 36.7928 108.102 35.3974L102.531 36.215L105.319 31.3989C104.682 29.8319 104.41 28.1401 104.524 26.4522C104.638 24.7643 105.135 23.1246 105.978 21.6576C106.821 20.1907 107.987 18.9351 109.387 17.9863C110.788 17.0374 112.386 16.4202 114.061 16.1816C115.736 15.943 117.443 16.0892 119.053 16.6092C120.663 17.1291 122.133 18.0091 123.352 19.1823C124.571 20.3556 125.507 21.7911 126.088 23.38C126.669 24.9689 126.88 26.6693 126.705 28.352Z" fill="white"/>
<path d="M126.705 28.3552C126.496 30.4061 125.723 32.3591 124.472 33.9977C123.86 34.8265 123.123 35.5546 122.287 36.1556C121.469 36.7791 120.566 37.2831 119.606 37.6522C118.646 38.0305 117.637 38.2712 116.609 38.367C116.095 38.4132 115.578 38.4236 115.063 38.3983C114.546 38.385 114.03 38.3312 113.522 38.2375C111.468 37.8597 109.561 36.9176 108.013 35.5167L108.143 35.5569L102.58 36.4102L102.174 36.4728L102.379 36.1154L105.149 31.2904V31.4825C104.496 29.8865 104.218 28.1616 104.337 26.441C104.456 24.7205 104.97 23.0505 105.837 21.5599C106.704 20.0741 107.895 18.8034 109.322 17.8429C110.747 16.8951 112.367 16.2822 114.063 16.0501C115.758 15.818 117.484 15.9727 119.11 16.5026C120.72 17.0503 122.187 17.9508 123.404 19.1385C124.618 20.3232 125.546 21.7689 126.118 23.3658C126.69 24.9628 126.891 26.669 126.705 28.3552ZM126.705 28.3552C126.886 26.6773 126.678 24.9805 126.099 23.3956C125.52 21.8107 124.584 20.3801 123.364 19.2144C122.143 18.0487 120.672 17.1789 119.062 16.6723C117.452 16.1657 115.748 16.0358 114.08 16.2926C112.429 16.537 110.856 17.1576 109.483 18.1065C108.121 19.0628 106.984 20.3037 106.15 21.7431C105.329 23.1857 104.844 24.7956 104.734 26.452C104.625 28.1195 104.894 29.7902 105.52 31.3395L105.56 31.4378L105.507 31.5316L102.701 36.3388L102.504 36.0439L108.08 35.2621H108.156L108.21 35.3112C109.7 36.6984 111.547 37.6436 113.544 38.0409C114.042 38.1423 114.546 38.2035 115.054 38.2241C115.561 38.2598 116.07 38.2598 116.577 38.2241C117.595 38.1421 118.596 37.9211 119.553 37.5673C120.512 37.2181 121.415 36.7304 122.233 36.1198C123.066 35.5237 123.804 34.8052 124.422 33.9888C125.69 32.3581 126.48 30.408 126.705 28.3552Z" fill="#263238"/>
<path d="M110.189 32.3869C110.181 32.239 110.203 32.0909 110.254 31.9518C110.305 31.8127 110.384 31.6856 110.486 31.5783C110.588 31.4711 110.711 31.386 110.848 31.3283C110.984 31.2707 111.131 31.2417 111.279 31.2432C111.583 31.2432 111.874 31.3637 112.088 31.5782C112.303 31.7926 112.423 32.0835 112.423 32.3869C112.423 32.6902 112.303 32.9811 112.088 33.1956C111.874 33.4101 111.583 33.5306 111.279 33.5306C111.131 33.5321 110.984 33.5031 110.848 33.4454C110.711 33.3877 110.588 33.3027 110.486 33.1954C110.384 33.0882 110.305 32.961 110.254 32.822C110.203 32.6829 110.181 32.5348 110.189 32.3869ZM110.636 29.7465L110.377 20.8828H112.164L111.905 29.7465H110.636Z" fill="#CEB7A1"/>
<path d="M114.437 32.3869C114.429 32.2393 114.451 32.0916 114.501 31.9528C114.552 31.8141 114.631 31.6872 114.733 31.58C114.834 31.4728 114.957 31.3876 115.093 31.3297C115.229 31.2718 115.375 31.2423 115.523 31.2432C115.826 31.2432 116.117 31.3637 116.332 31.5782C116.546 31.7926 116.667 32.0835 116.667 32.3869C116.667 32.6902 116.546 32.9811 116.332 33.1956C116.117 33.4101 115.826 33.5306 115.523 33.5306C115.375 33.5314 115.229 33.502 115.093 33.4441C114.957 33.3861 114.834 33.3009 114.733 33.1938C114.631 33.0866 114.552 32.9597 114.501 32.8209C114.451 32.6821 114.429 32.5344 114.437 32.3869ZM114.884 29.7465L114.638 20.8828H116.425L116.166 29.7465H114.884Z" fill="#CEB7A1"/>
<path d="M118.682 32.3869C118.673 32.239 118.695 32.0909 118.746 31.9518C118.797 31.8127 118.876 31.6856 118.978 31.5783C119.08 31.4711 119.204 31.386 119.34 31.3283C119.477 31.2707 119.623 31.2417 119.772 31.2432C120.075 31.2432 120.366 31.3637 120.58 31.5782C120.795 31.7926 120.915 32.0835 120.915 32.3869C120.915 32.6902 120.795 32.9811 120.58 33.1956C120.366 33.4101 120.075 33.5306 119.772 33.5306C119.623 33.5321 119.477 33.5031 119.34 33.4454C119.204 33.3877 119.08 33.3027 118.978 33.1954C118.876 33.0882 118.797 32.961 118.746 32.822C118.695 32.6829 118.673 32.5348 118.682 32.3869ZM119.128 29.7465L118.869 20.8828H120.656L120.402 29.7465H119.128Z" fill="#CEB7A1"/>
</svg>
